<?xml version="1.0" encoding="utf-8"?>
<!-- Generator: Adobe Illustrator 24.0.1, SVG Export Plug-In . SVG Version: 6.00 Build 0)  -->
<svg version="1.1" id="Layer_1" xmlns="http://www.w3.org/2000/svg" xmlns:xlink="http://www.w3.org/1999/xlink" x="0px" y="0px"
	 viewBox="0 0 512 512" style="enable-background:new 0 0 512 512;" xml:space="preserve">
<style type="text/css">
	.st0{display:none;}
	.st1{display:inline;fill:#200A7F;stroke:#18E5EA;stroke-width:20;stroke-miterlimit:10;}
	.st2{display:inline;fill:#EF0B79;}
	.st3{display:inline;fill:#18E5EA;}
	.st4{display:inline;}
	.st5{fill:#E9F21C;}
	.st6{display:inline;fill:none;}
	.st7{display:inline;fill:#EF3A24;}
	.st8{font-family:'MyriadPro-Regular';}
	.st9{font-size:250px;}
	.st10{display:inline;fill:#FFFFFF;}
	.st11{fill:#C4C6C8;}
	.st12{fill:url(#SVGID_1_);}
	.st13{fill:none;stroke:#E8E8E8;stroke-width:3;stroke-miterlimit:10;}
	.st14{fill:#FFFFFF;}
	.st15{fill:#57A4FF;}
	.st16{fill:url(#SVGID_2_);}
	.st17{fill:#4C4C4C;}
	.st18{fill:url(#SVGID_3_);}
	.st19{fill:#FFFFFF;stroke:#000000;stroke-miterlimit:10;}
	.st20{fill:#004FAC;}
	.st21{fill:#1E1E1E;}
	.st22{fill:#262626;}
</style>
<g id="Layer_3" class="st0">
	<path class="st1" d="M401.1,212.2c5.1,15.3,7.9,31.7,7.9,48.8c0,85.3-69.2,154.5-154.5,154.5S100,346.3,100,261
		s69.2-154.5,154.5-154.5c51.2,0,96.6,24.9,124.7,63.3"/>
	<path class="st2" d="M333.4,255.2c0,4.2-3.3,7.7-7.4,7.7H174.9c-4.1,0-7.4-3.4-7.4-7.7l0,0c0-4.2,3.3-7.7,7.4-7.7H326
		C330.1,247.5,333.4,250.9,333.4,255.2L333.4,255.2z"/>
	<path class="st2" d="M333.4,284.8c0,4.2-3.3,7.6-7.4,7.6H174.9c-4.1,0-7.4-3.4-7.4-7.6l0,0c0-4.2,3.3-7.6,7.4-7.6H326
		C330.1,277.1,333.4,280.6,333.4,284.8L333.4,284.8z"/>
	<path class="st2" d="M333.4,313c0,4.2-3.3,7.7-7.4,7.7H174.9c-4.1,0-7.4-3.4-7.4-7.7l0,0c0-4.2,3.3-7.6,7.4-7.6H326
		C330.1,305.4,333.4,308.8,333.4,313L333.4,313z"/>
	<path class="st2" d="M333.4,338.4c0,4.2-3.3,7.7-7.4,7.7H174.9c-4.1,0-7.4-3.4-7.4-7.7l0,0c0-4.2,3.3-7.6,7.4-7.6H326
		C330.1,330.7,333.4,334.1,333.4,338.4L333.4,338.4z"/>
	<polygon class="st3" points="395,191.5 320.2,165.2 380.4,113.5 	"/>
	<g class="st4">
		<g>
			<g>
				<path class="st5" d="M241.5,239.2c-2.3,0-4.4-1.1-5.8-2.9l-18.8-24.8c-2.4-3.2-1.8-7.8,1.4-10.3c3.2-2.4,7.8-1.8,10.3,1.4
					l12.3,16.3l31-49.8c2.1-3.4,6.6-4.5,10.1-2.3c3.4,2.1,4.5,6.6,2.3,10.1l-36.7,58.9c-1.3,2-3.5,3.3-5.9,3.4
					C241.7,239.2,241.6,239.2,241.5,239.2z"/>
			</g>
		</g>
	</g>
</g>
<g id="Layer_2_2_" class="st0">
	<rect x="121" y="171.5" class="st6" width="298" height="251"/>
	<text transform="matrix(1 0 0 1 121 348.9979)" class="st7 st8 st9">24</text>
	<circle class="st10" cx="138.3" cy="91.8" r="17.3"/>
	<circle class="st10" cx="185.3" cy="91.8" r="17.3"/>
	<circle class="st10" cx="232.3" cy="91.8" r="17.3"/>
	<circle class="st10" cx="278.3" cy="91.8" r="17.3"/>
	<circle class="st10" cx="323.3" cy="91.8" r="17.3"/>
	<circle class="st10" cx="368.3" cy="91.8" r="17.3"/>
</g>
<g>
	<path class="st11" d="M350.3,54.5H161.7c-17.9,0-34.5,9.6-43.4,25.1L24,242.9c-9,15.5-9,34.6,0,50.2l94.3,163.3
		c9,15.5,25.5,25.1,43.4,25.1h188.5c17.9,0,34.5-9.6,43.4-25.1L488,293.1c9-15.5,9-34.6,0-50.2L393.7,79.6
		C384.8,64.1,368.2,54.5,350.3,54.5z"/>
</g>
<g>
	<radialGradient id="SVGID_1_" cx="256.891" cy="254" r="226.4345" gradientUnits="userSpaceOnUse">
		<stop  offset="0" style="stop-color:#FFE7A3"/>
		<stop  offset="0.5" style="stop-color:#FFCA05"/>
		<stop  offset="1" style="stop-color:#FAAC18"/>
	</radialGradient>
	<path class="st12" d="M351.2,40.5H162.6c-17.9,0-34.5,9.6-43.4,25.1L24.9,228.9c-9,15.5-9,34.6,0,50.2l94.3,163.3
		c9,15.5,25.5,25.1,43.4,25.1h188.5c17.9,0,34.5-9.6,43.4-25.1l94.3-163.3c9-15.5,9-34.6,0-50.2L394.6,65.6
		C385.6,50.1,369.1,40.5,351.2,40.5z"/>
	<path class="st13" d="M351.2,40.5H162.6c-17.9,0-34.5,9.6-43.4,25.1L24.9,228.9c-9,15.5-9,34.6,0,50.2l94.3,163.3
		c9,15.5,25.5,25.1,43.4,25.1h188.5c17.9,0,34.5-9.6,43.4-25.1l94.3-163.3c9-15.5,9-34.6,0-50.2L394.6,65.6
		C385.6,50.1,369.1,40.5,351.2,40.5z"/>
</g>
<g>
	<g>
		<path class="st14" d="M330.4,297.5c0,5.4-4.3,9.7-9.7,9.7c-5.4,0-9.7-4.3-9.7-9.7c0-5.4,4.3-9.7,9.7-9.7
			C326,287.8,330.4,292.1,330.4,297.5z"/>
		<path class="st15" d="M272.2,278.1h-19.4v19.4C252.8,286.8,261.4,278.1,272.2,278.1z"/>
		<path class="st15" d="M252.8,297.5v19.4h19.4C261.4,316.9,252.8,308.2,252.8,297.5z"/>
		<path class="st14" d="M281.9,297.5c0,5.4-4.3,9.7-9.7,9.7s-9.7-4.3-9.7-9.7c0-5.4,4.3-9.7,9.7-9.7S281.9,292.1,281.9,297.5z"/>
		<path class="st15" d="M291.6,297.5c0,10.7-8.7,19.4-19.4,19.4h48.5c-10.7,0-19.4-8.7-19.4-19.4c0-10.7,8.7-19.4,19.4-19.4h-48.5
			C282.9,278.1,291.6,286.8,291.6,297.5z"/>
		
			<linearGradient id="SVGID_2_" gradientUnits="userSpaceOnUse" x1="107.2311" y1="223.0853" x2="136.3351" y2="223.0853" gradientTransform="matrix(1 0 0 -1 0 513.2912)">
			<stop  offset="0" style="stop-color:#FEFE93"/>
			<stop  offset="0.5" style="stop-color:#FEFE00"/>
			<stop  offset="1" style="stop-color:#FEDD00"/>
		</linearGradient>
		<path class="st16" d="M107.2,337.2l29.1-18.2v-57.7l-29.1-18.2V337.2z"/>
		<path class="st15" d="M340.1,297.5v-19.4h-19.4C331.4,278.1,340.1,286.8,340.1,297.5z"/>
		<path class="st15" d="M320.7,316.9h19.4v-19.4C340.1,308.2,331.4,316.9,320.7,316.9z"/>
		<path class="st15" d="M349.8,162.7l9.7,2.4v-31.2l-9.7,2.4V162.7z"/>
		<path class="st17" d="M369.2,132.6h19.4v34h-19.4V132.6z"/>
		<path class="st15" d="M180,219.9h179.5v9.7H180V219.9z"/>
		
			<radialGradient id="SVGID_3_" cx="209.0976" cy="215.8098" r="15.3397" gradientTransform="matrix(1 0 0 -1 0 513.2912)" gradientUnits="userSpaceOnUse">
			<stop  offset="0" style="stop-color:#FB6040"/>
			<stop  offset="0.5" style="stop-color:#FE0000"/>
			<stop  offset="1" style="stop-color:#D50000"/>
		</radialGradient>
		<path class="st18" d="M199.4,278.1h19.4v38.8h-19.4V278.1z"/>
	</g>
	<path class="st19" d="M393.4,122.9h-29.1c-0.2,0-0.4,0.1-0.7,0.1c-0.2,0-0.3,0-0.5,0l-19.4,4.9c-0.1,0-0.2,0.1-0.4,0.2
		c-0.3,0.1-0.6,0.2-0.9,0.4c-0.2,0.1-0.4,0.2-0.5,0.4c-0.2,0.1-0.3,0.2-0.4,0.3l-61.7,61.6h-95c-8,0-14.6,6.5-14.6,14.6v48.5h-27.7
		L105,230.3c-1.5-0.9-3.4-1-4.9-0.1s-2.5,2.5-2.5,4.2V346c0,1.8,1,3.4,2.5,4.2c1.5,0.9,3.4,0.8,4.9-0.1l37.6-23.5h27.7v24.3
		c0,2.7,2.2,4.9,4.9,4.9h189.2c2.7,0,4.9-2.2,4.9-4.9V205.3c0-8-6.5-14.6-14.6-14.6h-27.1l18.9-18.9l16.7,4.2
		c0.4,0.1,0.8,0.1,1.2,0.1h29.1c2.7,0,4.9-2.2,4.9-4.9v-43.7C398.3,125,396.1,122.9,393.4,122.9z M359.5,229.6H180v-9.7h179.5V229.6
		z M107.2,243.2l29.1,18.2V319l-29.1,18.2V243.2z M146,316.9v-53.4h24.3v53.4H146z M359.5,346H180V239.3h179.5V346z M359.5,205.3
		v4.9H180v-4.9c0-2.7,2.2-4.9,4.9-4.9h169.8C357.3,200.5,359.5,202.6,359.5,205.3z M293.6,190.8l46.5-46.5v20.2l-26.3,26.3
		L293.6,190.8L293.6,190.8z M349.8,136.3l9.7-2.4v31.2l-9.7-2.4V136.3z M388.6,166.5h-19.4v-34h19.4V166.5z"/>
	<path class="st20" d="M194.5,326.6h29.1c2.7,0,4.9-2.2,4.9-4.9v-48.5c0-2.7-2.2-4.9-4.9-4.9h-29.1c-2.7,0-4.9,2.2-4.9,4.9v48.5
		C189.7,324.4,191.9,326.6,194.5,326.6z M199.4,278.1h19.4v38.8h-19.4V278.1z"/>
	<path class="st19" d="M247.9,326.6h97c2.7,0,4.9-2.2,4.9-4.9v-48.5c0-2.7-2.2-4.9-4.9-4.9h-97c-2.7,0-4.9,2.2-4.9,4.9v48.5
		C243.1,324.4,245.2,326.6,247.9,326.6z M252.8,297.5v-19.4h87.3v38.8h-87.3V297.5z"/>
	<path class="st21" d="M272.2,316.9c10.7,0,19.4-8.7,19.4-19.4c0-10.7-8.7-19.4-19.4-19.4c-10.7,0-19.4,8.7-19.4,19.4
		C252.8,308.2,261.4,316.9,272.2,316.9z M272.2,287.8c5.4,0,9.7,4.3,9.7,9.7c0,5.4-4.3,9.7-9.7,9.7s-9.7-4.3-9.7-9.7
		C262.5,292.1,266.8,287.8,272.2,287.8z"/>
	<path class="st22" d="M301.3,297.5c0,10.7,8.7,19.4,19.4,19.4c10.7,0,19.4-8.7,19.4-19.4c0-10.7-8.7-19.4-19.4-19.4
		C309.9,278.1,301.3,286.8,301.3,297.5z M320.7,287.8c5.4,0,9.7,4.3,9.7,9.7c0,5.4-4.3,9.7-9.7,9.7c-5.4,0-9.7-4.3-9.7-9.7
		C311,292.1,315.3,287.8,320.7,287.8z"/>
</g>
</svg>
