<?xml version="1.0" encoding="utf-8"?>
<!-- Generator: Adobe Illustrator 24.0.1, SVG Export Plug-In . SVG Version: 6.00 Build 0)  -->
<svg version="1.1" id="Layer_1" xmlns="http://www.w3.org/2000/svg" xmlns:xlink="http://www.w3.org/1999/xlink" x="0px" y="0px"
	 viewBox="0 0 512 512" style="enable-background:new 0 0 512 512;" xml:space="preserve">
<style type="text/css">
	.st0{display:none;}
	.st1{display:inline;fill:#200A7F;stroke:#18E5EA;stroke-width:20;stroke-miterlimit:10;}
	.st2{display:inline;fill:#EF0B79;}
	.st3{display:inline;fill:#18E5EA;}
	.st4{display:inline;}
	.st5{fill:#E9F21C;}
	.st6{display:inline;fill:none;}
	.st7{display:inline;fill:#EF3A24;}
	.st8{font-family:'MyriadPro-Regular';}
	.st9{font-size:250px;}
	.st10{display:inline;fill:#FFFFFF;}
	.st11{fill:#C4C6C8;}
	.st12{fill:url(#SVGID_1_);}
	.st13{fill:none;stroke:#E8E8E8;stroke-width:3;stroke-miterlimit:10;}
	.st14{fill:url(#SVGID_2_);stroke:#000000;stroke-miterlimit:10;}
	.st15{fill:url(#SVGID_3_);stroke:#000000;stroke-miterlimit:10;}
	.st16{fill:url(#SVGID_4_);stroke:#000000;stroke-miterlimit:10;}
	.st17{fill:url(#SVGID_5_);stroke:#000000;stroke-miterlimit:10;}
	.st18{fill:url(#SVGID_6_);stroke:#000000;stroke-miterlimit:10;}
	.st19{fill:url(#SVGID_7_);stroke:#000000;stroke-miterlimit:10;}
	.st20{fill:url(#SVGID_8_);stroke:#000000;stroke-miterlimit:10;}
	.st21{fill:url(#SVGID_9_);stroke:#000000;stroke-miterlimit:10;}
	.st22{fill:url(#SVGID_10_);stroke:#000000;stroke-miterlimit:10;}
	.st23{fill:url(#SVGID_11_);stroke:#000000;stroke-miterlimit:10;}
	.st24{fill:url(#SVGID_12_);stroke:#000000;stroke-miterlimit:10;}
</style>
<g id="Layer_3" class="st0">
	<path class="st1" d="M401.1,212.2c5.1,15.3,7.9,31.7,7.9,48.8c0,85.3-69.2,154.5-154.5,154.5S100,346.3,100,261
		s69.2-154.5,154.5-154.5c51.2,0,96.6,24.9,124.7,63.3"/>
	<path class="st2" d="M333.4,255.2c0,4.2-3.3,7.7-7.4,7.7H174.9c-4.1,0-7.4-3.4-7.4-7.7l0,0c0-4.2,3.3-7.7,7.4-7.7H326
		C330.1,247.5,333.4,250.9,333.4,255.2L333.4,255.2z"/>
	<path class="st2" d="M333.4,284.8c0,4.2-3.3,7.6-7.4,7.6H174.9c-4.1,0-7.4-3.4-7.4-7.6l0,0c0-4.2,3.3-7.6,7.4-7.6H326
		C330.1,277.1,333.4,280.6,333.4,284.8L333.4,284.8z"/>
	<path class="st2" d="M333.4,313c0,4.2-3.3,7.7-7.4,7.7H174.9c-4.1,0-7.4-3.4-7.4-7.7l0,0c0-4.2,3.3-7.6,7.4-7.6H326
		C330.1,305.4,333.4,308.8,333.4,313L333.4,313z"/>
	<path class="st2" d="M333.4,338.4c0,4.2-3.3,7.7-7.4,7.7H174.9c-4.1,0-7.4-3.4-7.4-7.7l0,0c0-4.2,3.3-7.6,7.4-7.6H326
		C330.1,330.7,333.4,334.1,333.4,338.4L333.4,338.4z"/>
	<polygon class="st3" points="395,191.5 320.2,165.2 380.4,113.5 	"/>
	<g class="st4">
		<g>
			<g>
				<path class="st5" d="M241.5,239.2c-2.3,0-4.4-1.1-5.8-2.9l-18.8-24.8c-2.4-3.2-1.8-7.8,1.4-10.3c3.2-2.4,7.8-1.8,10.3,1.4
					l12.3,16.3l31-49.8c2.1-3.4,6.6-4.5,10.1-2.3c3.4,2.1,4.5,6.6,2.3,10.1l-36.7,58.9c-1.3,2-3.5,3.3-5.9,3.4
					C241.7,239.2,241.6,239.2,241.5,239.2z"/>
			</g>
		</g>
	</g>
</g>
<g id="Layer_2_2_" class="st0">
	<rect x="121" y="171.5" class="st6" width="298" height="251"/>
	<text transform="matrix(1 0 0 1 121 348.9979)" class="st7 st8 st9">24</text>
	<circle class="st10" cx="138.3" cy="91.8" r="17.3"/>
	<circle class="st10" cx="185.3" cy="91.8" r="17.3"/>
	<circle class="st10" cx="232.3" cy="91.8" r="17.3"/>
	<circle class="st10" cx="278.3" cy="91.8" r="17.3"/>
	<circle class="st10" cx="323.3" cy="91.8" r="17.3"/>
	<circle class="st10" cx="368.3" cy="91.8" r="17.3"/>
</g>
<g>
	<path class="st11" d="M350.3,54.5H161.7c-17.9,0-34.5,9.6-43.4,25.1L24,242.9c-9,15.5-9,34.6,0,50.2l94.3,163.3
		c9,15.5,25.5,25.1,43.4,25.1h188.5c17.9,0,34.5-9.6,43.4-25.1L488,293.1c9-15.5,9-34.6,0-50.2L393.7,79.6
		C384.8,64.1,368.2,54.5,350.3,54.5z"/>
</g>
<g>
	<radialGradient id="SVGID_1_" cx="256.8879" cy="254.0013" r="226.4314" gradientUnits="userSpaceOnUse">
		<stop  offset="0" style="stop-color:#C18F73"/>
		<stop  offset="0.5056" style="stop-color:#B57E5C"/>
		<stop  offset="1" style="stop-color:#78533B"/>
	</radialGradient>
	<path class="st12" d="M491.1,274.8c-0.7,1.4-1.4,2.9-2.2,4.3l-94.3,163.3c-0.5,1-1.1,1.9-1.7,2.8c-8.3,12.4-21.7,20.5-36.5,22
		c-1.7,0.2-3.4,0.3-5.2,0.3H162.6c-17.9,0-34.5-9.6-43.5-25.1l-15.3-26.6l-70.4-122l-8.5-14.8c-9-15.5-9-34.6,0-50.2l6.5-11.3
		l22.3-38.6l65.5-113.4c9-15.5,25.5-25.1,43.5-25.1h188.5c17.9,0,34.5,9.6,43.5,25.1l20.7,35.9l6.3,10.9l25.3,43.8l2.4,4.2l5.5,9.6
		l7,12l27.1,47c1.2,2,2.2,4.1,3,6.2C497.1,247.9,496.8,262.3,491.1,274.8z"/>
	<path class="st13" d="M491.1,274.8c-0.7,1.4-1.4,2.9-2.2,4.3l-94.3,163.3c-0.5,1-1.1,1.9-1.7,2.8c-8.3,12.4-21.7,20.5-36.5,22
		c-1.7,0.2-3.4,0.3-5.2,0.3H162.6c-17.9,0-34.5-9.6-43.5-25.1l-15.3-26.6l-70.4-122l-8.5-14.8c-9-15.5-9-34.6,0-50.2l6.5-11.3
		l22.3-38.6l65.5-113.4c9-15.5,25.5-25.1,43.5-25.1h188.5c17.9,0,34.5,9.6,43.5,25.1l20.7,35.9l6.3,10.9l25.3,43.8l2.4,4.2l5.5,9.6
		l7,12l27.1,47c1.2,2,2.2,4.1,3,6.2C497.1,247.9,496.8,262.3,491.1,274.8z"/>
</g>
<g id="Layer_2">
	<g id="Layer_3_1_">
		<g>
			<g>
				
					<radialGradient id="SVGID_2_" cx="363.9466" cy="398.1766" r="12.1028" gradientTransform="matrix(1 0 0 -1 0 513.2912)" gradientUnits="userSpaceOnUse">
					<stop  offset="0" style="stop-color:#FEEC8E"/>
					<stop  offset="0.5" style="stop-color:#FECB00"/>
					<stop  offset="1" style="stop-color:#FEA300"/>
				</radialGradient>
				<polygon class="st14" points="361.3,115.8 361.8,119.4 356.4,120.5 355.7,128.1 362.1,128.1 370.7,127.3 375.1,122 370.4,120.2 
					367.8,117.2 364,111 362.1,102.1 354.8,103.6 352.8,106.7 352.8,110.2 356.3,112.6 				"/>
				
					<radialGradient id="SVGID_3_" cx="348.1621" cy="394.6752" r="6.9409" gradientTransform="matrix(1 0 0 -1 0 513.2912)" gradientUnits="userSpaceOnUse">
					<stop  offset="0" style="stop-color:#FEEC8E"/>
					<stop  offset="0.5" style="stop-color:#FECB00"/>
					<stop  offset="1" style="stop-color:#FEA300"/>
				</radialGradient>
				<polygon class="st15" points="355.1,118.7 355.5,113.9 351.2,112.1 345.3,113.5 340.8,120.6 340.8,125.2 346,125.2 				"/>
				
					<radialGradient id="SVGID_4_" cx="231.2532" cy="370.1332" r="5.4829" gradientTransform="matrix(1 0 0 -1 0 513.2912)" gradientUnits="userSpaceOnUse">
					<stop  offset="0" style="stop-color:#FEEC8E"/>
					<stop  offset="0.5" style="stop-color:#FECB00"/>
					<stop  offset="1" style="stop-color:#FEA300"/>
				</radialGradient>
				<path class="st16" d="M232.4,139.1l-1.3,3.4h-6.4v3.3h1.5c0,0,0.1,0.7,0.2,1.6l3.9-0.3l2.4-1.5l0.6-3.1l3.1-0.3l1.2-2.6
					l-2.9-0.6L232.4,139.1z"/>
				
					<radialGradient id="SVGID_5_" cx="218.2957" cy="367.9694" r="2.7207" gradientTransform="matrix(1 0 0 -1 0 513.2912)" gradientUnits="userSpaceOnUse">
					<stop  offset="0" style="stop-color:#FEEC8E"/>
					<stop  offset="0.5" style="stop-color:#FECB00"/>
					<stop  offset="1" style="stop-color:#FEA300"/>
				</radialGradient>
				<polygon class="st17" points="216,145 215.8,148.2 220.4,147.8 220.8,144.6 218.1,142.4 				"/>
				
					<radialGradient id="SVGID_6_" cx="255.2857" cy="259.2898" r="225.5881" gradientTransform="matrix(1 0 0 -1 0 513.2912)" gradientUnits="userSpaceOnUse">
					<stop  offset="0" style="stop-color:#FEEC8E"/>
					<stop  offset="0.5" style="stop-color:#FECB00"/>
					<stop  offset="1" style="stop-color:#FEA300"/>
				</radialGradient>
				<path class="st18" d="M394.5,88.3l-10.2,4L380,97l1,5.5l5.3,0.7l3.2,7.9l9.1-3.7l1.5,10.6h-2.7l-7.5-1.1l-8.3,1.4l-8,11.3
					l-11.5,1.8l-1.6,9.8l4.8,1.1l-1.4,6.3l-11.4-2.3l-10.4,2.3l-2.2,5.8l1.8,12.2l6.1,2.9l10.3-0.1l7-0.6l2.1-5.5l10.8-14.1l7.2,1.5
					l7-6.4l1.3,5l17.3,11.7l-2.1,2.8l-7.8-0.4l3,4.3l4.8,1l5.6-2.3l-0.1-6.8l2.5-1.3l-2-2.1l-11.5-6.4l-3-8.6h9.6l3.1,3l8.3,7.1
					l0.3,8.6l8.6,9.1l3.2-12.5l5.9-3.2l1.1,10.2l5.8,6.4l8.9-0.2l-5.5-9.6l-2.4,0.3v-4.5l-25.3-43.8l-3,4.5l-15.2-0.1l-1-3.2
					l9.5-4.8l0-10.8c1.1,1.2,2.2,2.4,3.3,3.6l-20.7-35.9c-9-15.5-25.5-25.1-43.5-25.1h-27.3c27.3,9.5,52.1,24.3,73.3,43L394.5,88.3z
					"/>
				
					<radialGradient id="SVGID_7_" cx="255.2857" cy="259.2898" r="225.5881" gradientTransform="matrix(1 0 0 -1 0 513.2912)" gradientUnits="userSpaceOnUse">
					<stop  offset="0" style="stop-color:#FEEC8E"/>
					<stop  offset="0.5" style="stop-color:#FECB00"/>
					<stop  offset="1" style="stop-color:#FEA300"/>
				</radialGradient>
				<path class="st19" d="M31.4,217.7l-6.5,11.3c-9,15.5-9,34.7,0,50.2l8.5,14.8c-2.9-14.2-4.4-28.9-4.4-44
					C29,238.9,29.8,228.2,31.4,217.7z"/>
				
					<radialGradient id="SVGID_8_" cx="255.2857" cy="259.2898" r="225.5881" gradientTransform="matrix(1 0 0 -1 0 513.2912)" gradientUnits="userSpaceOnUse">
					<stop  offset="0" style="stop-color:#FEEC8E"/>
					<stop  offset="0.5" style="stop-color:#FECB00"/>
					<stop  offset="1" style="stop-color:#FEA300"/>
				</radialGradient>
				<path class="st20" d="M119.2,442.4c9,15.5,25.5,25.1,43.5,25.1h45.3c-39.4-7.8-75.1-26-104.1-51.7L119.2,442.4z"/>
				
					<radialGradient id="SVGID_9_" cx="255.2857" cy="259.2898" r="225.5881" gradientTransform="matrix(1 0 0 -1 0 513.2912)" gradientUnits="userSpaceOnUse">
					<stop  offset="0" style="stop-color:#FEEC8E"/>
					<stop  offset="0.5" style="stop-color:#FECB00"/>
					<stop  offset="1" style="stop-color:#FEA300"/>
				</radialGradient>
				<path class="st21" d="M276.3,290.4l-19.5-0.2l-15.5-5.9l-0.7-11.1l-5.2-9l-14-0.2l-8.1-12.7l-7.2-3.5l-0.4,3.9l-13.1,0.8
					l-4.8-6.7l-13.7-2.8L163,256l-17.7-3L144,233l-12.9-2.2l5.2-9.8l-1.5-5.6l-17,11.3l-10.7-1.3l-3.8-8.3l2.3-8.6l5.9-10.8
					l13.6-6.9l26.1,0l-0.1,8l9.4,4.4l-0.8-13.6l6.8-6.8l13.7-9l0.9-6.3l13.6-14.2l14.5-8l-1.3-1l9.8-9.2l3.6,1l1.7,2.1l3.7-4.1
					l0.9-0.4l-4.1-0.6l-4.2-1.4v-4l2.2-1.8h4.8l2.2,1l1.9,3.9l2.3-0.4v-0.3l0.7,0.2l6.8-1l1-3.3l3.9,1v3.6l-3.6,2.5l0.5,4l12.3,3.8
					c0,0,0,0,0,0.1l2.8-0.2l0.2-5.3l-9.8-4.4l-0.6-2.6l8.1-2.8l0.4-7.8l-8.5-5.2l-0.5-13.1l-11.6,5.7H231l1.1-10l-15.8-3.7l-6.5,4.9
					v15.1l-11.8,3.7l-4.7,9.8l-5.1,0.8v-12.6l-11.1-1.5l-5.5-3.6l-2.2-8.1l19.8-11.6l9.7-2.9l1,6.5l5.4-0.3l0.4-3.3l5.6-0.8l0.1-1.2
					l-2.4-1l-0.5-3.5l6.9-0.6l4.2-4.4l0.2-0.3l0.1,0l1.3-1.3l14.6-1.8L242,79l-16.9,9l21.5,5.1l2.8-7.2h9.4l3.3-6.3l-6.6-1.7V70
					l-20.8-9.2l-14.4,1.7l-8.1,4.2l0.6,10.3l-8.5-1.3L203,70l8.1-7.4l-14.7-0.7l-4.2,1.3l-1.8,5l5.5,0.9l-1.1,5.5l-9.4,0.6l-1.5,3.7
					l-13.6,0.4c0,0-0.4-7.7-0.9-7.7c0.5,0,10.7-0.2,10.7-0.2l8.1-7.9l-4.4-2.2l-5.9,5.7l-9.8-0.6l-5.9-8.1h-12.5L136.5,68h12
					l1.1,3.5l-3.1,2.9l13.3,0.4l2,4.8L146.8,79l-0.7-3.7l-9.4-2l-5-2.8l-11.2,0.1c17.4-12.6,36.6-22.8,57.2-30.1h-15.1
					c-17.9,0-34.5,9.6-43.5,25.1L53.7,179.1l2.3,1.1v17.5l8.8,15.1l7.2,1.1l0.9-5.2l-8.5-13.1l-1.7-12.7h5l2.1,13.1l12.3,17.9
					l-3.2,5.8l7.8,11.9l19.4,4.8v-3.1l7.7,1.1l-0.7,5.5l6.1,1.1l9.4,2.6l13.3,15.1l16.9,1.3l1.7,13.8l-11.6,8.1l-0.5,12.3l-1.7,7.5
					l16.8,21l1.3,7.2c0,0,6.1,1.6,6.8,1.6c0.7,0,13.6,9.8,13.6,9.8v38l4.6,1.3l-3.1,17.5l7.7,10.3l-1.4,17.3l10.2,18l13.1,11.5
					l13.2,0.3l1.3-4.3l-9.7-8.2l0.6-4.1l1.7-5l0.4-5.1l-6.5-0.2l-3.3-4.1l5.4-5.3l0.7-4l-6.1-1.7l0.4-3.7l8.7-1.3l13.2-6.3l4.4-8.1
					l13.8-17.7l-3.1-13.8l4.3-7.4l12.7,0.4l8.6-6.8l2.8-26.7l9.5-12.1l1.7-7.7l-8.7-2.8L276.3,290.4z M176.2,154.1l-3.2,3.2h-7
					l1.1-4.8l3.3-0.3l0.7-1.7l5.1-0.7V154.1z M177.9,145.4l-3.3,2.1l-4.1,0.8c0,0,0-6.6,0-7.3h7.5V145.4z M184.1,140.3l3.4,2.1
					l-2.7,2.2l-2.7-2.2L184.1,140.3z M179.7,145.8h0.6l8.4,2.5v4.3h-7.1l-1.9-2.8V145.8z M174.1,134l4.6,4.2l-4.6,1.1V134z
					 M154.8,134.7l6.4-2.6h8.7v2.6h1.9v4.5h-13.3l-5-1.4L154.8,134.7z M153.5,146.5l5.1-5.5h7.3l-9.4,13.1l-3.9-2.1L153.5,146.5z
					 M146.8,115.3l5.3,1.3l-1.8,7l-5.7,1.8l-3.6-7.3L146.8,115.3z M133.5,96.7l-10.9,0.7l-2.1-2.5l7.7-2.2c0,0,4.8-0.8,5.3-0.8
					S133.5,96.7,133.5,96.7z M120.5,81.9v-0.4h4.8l0.4-1.7h7.9v3.5l-2.3,3h-10.9L120.5,81.9z"/>
				
					<radialGradient id="SVGID_10_" cx="255.2857" cy="259.2898" r="225.5881" gradientTransform="matrix(1 0 0 -1 0 513.2912)" gradientUnits="userSpaceOnUse">
					<stop  offset="0" style="stop-color:#FEEC8E"/>
					<stop  offset="0.5" style="stop-color:#FECB00"/>
					<stop  offset="1" style="stop-color:#FEA300"/>
				</radialGradient>
				<path class="st22" d="M482.3,290c0.7-3.7,2.7-6.7,5.4-8.8l1.2-2.1c0.8-1.4,1.5-2.8,2.2-4.3c0.9-8.2,1.3-16.5,1.3-24.9
					c0-0.8,0-1.7,0-2.5c-0.1-4.1-0.2-8.2-0.4-12.3c-0.9-2.1-1.9-4.2-3-6.2l-27.1-47c0.6,1.8,1.2,3.6,1.7,5.5l-1.2,1.1h-17.7l-10.8-8
					l-11.3,1.1v6.9h-3.6l-3.9-2.8l-19.6-5v-12.7l-24.9,1.9l-7.7,4.1h-9.9l-4.8-0.5l-12,6.7v12.5l-24.5,17.7l2,7.5h5l-1.3,7.2
					l-3.5,1.3l-0.2,18.8l21.2,24.1h9.2l0.6-1.5h16.6l4.8-4.4h9.4l5.2,5.2l14,1.4l-1.9,18.6l15.5,27.5L400,332l0.5,7.4l6.5,6.4v17.7
					l8.5,11.4v14.7h7.3c-32.1,39.4-77.4,67.6-129.1,77.8h57.6c1.7,0,3.5-0.1,5.2-0.3c12.9-6.3,25.1-13.7,36.5-22
					c0.6-0.9,1.2-1.8,1.7-2.8l87.6-151.7C482.2,290.5,482.3,290.2,482.3,290z M466.5,198.9c0.3,1.3,0.6,2.5,0.9,3.8l-1.6-3
					L466.5,198.9z"/>
				<radialGradient id="SVGID_11_" cx="423.6844" cy="399.0959" r="39.1792" gradientUnits="userSpaceOnUse">
					<stop  offset="0" style="stop-color:#C18F73"/>
					<stop  offset="0.5056" style="stop-color:#B57E5C"/>
					<stop  offset="1" style="stop-color:#78533B"/>
				</radialGradient>
				<path class="st23" d="M409.7,419.9l-15.1,22.5c-0.5,1-1.1,1.9-1.7,2.8l16.7-25C409.6,420,409.7,420,409.7,419.9z"/>
				<radialGradient id="SVGID_12_" cx="488.36" cy="290.6414" r="11.3424" gradientUnits="userSpaceOnUse">
					<stop  offset="0" style="stop-color:#C18F73"/>
					<stop  offset="0.5056" style="stop-color:#B57E5C"/>
					<stop  offset="1" style="stop-color:#78533B"/>
				</radialGradient>
				<path class="st24" d="M490.6,279.3c0.2-1.5,0.4-2.9,0.5-4.4c-0.7,1.4-1.4,2.9-2.2,4.3l-0.2,1.3
					C489.3,280,489.9,279.6,490.6,279.3z"/>
			</g>
		</g>
	</g>
</g>
</svg>
