<?xml version="1.0" encoding="utf-8"?>
<!-- Generator: Adobe Illustrator 24.0.1, SVG Export Plug-In . SVG Version: 6.00 Build 0)  -->
<svg version="1.1" id="Layer_1" xmlns="http://www.w3.org/2000/svg" xmlns:xlink="http://www.w3.org/1999/xlink" x="0px" y="0px"
	 viewBox="0 0 512 512" style="enable-background:new 0 0 512 512;" xml:space="preserve">
<style type="text/css">
	.st0{display:none;}
	.st1{display:inline;fill:#200A7F;stroke:#18E5EA;stroke-width:20;stroke-miterlimit:10;}
	.st2{display:inline;fill:#EF0B79;}
	.st3{display:inline;fill:#18E5EA;}
	.st4{display:inline;}
	.st5{fill:#E9F21C;}
	.st6{display:inline;fill:none;}
	.st7{display:inline;fill:#EF3A24;}
	.st8{font-family:'MyriadPro-Regular';}
	.st9{font-size:250px;}
	.st10{display:inline;fill:#FFFFFF;}
	.st11{fill:#C4C6C8;}
	.st12{fill:url(#SVGID_1_);}
	.st13{fill:none;stroke:#E8E8E8;stroke-width:3;stroke-miterlimit:10;}
	.st14{fill:#787780;}
	.st15{fill:#57555C;}
	.st16{fill:#3C3A41;}
	.st17{fill:#FD3018;}
	.st18{fill:#C1001F;}
</style>
<g id="Layer_3" class="st0">
	<path class="st1" d="M401.1,212.2c5.1,15.3,7.9,31.7,7.9,48.8c0,85.3-69.2,154.5-154.5,154.5S100,346.3,100,261
		s69.2-154.5,154.5-154.5c51.2,0,96.6,24.9,124.7,63.3"/>
	<path class="st2" d="M333.4,255.2c0,4.2-3.3,7.7-7.4,7.7H174.9c-4.1,0-7.4-3.4-7.4-7.7l0,0c0-4.2,3.3-7.7,7.4-7.7H326
		C330.1,247.5,333.4,250.9,333.4,255.2L333.4,255.2z"/>
	<path class="st2" d="M333.4,284.8c0,4.2-3.3,7.6-7.4,7.6H174.9c-4.1,0-7.4-3.4-7.4-7.6l0,0c0-4.2,3.3-7.6,7.4-7.6H326
		C330.1,277.1,333.4,280.6,333.4,284.8L333.4,284.8z"/>
	<path class="st2" d="M333.4,313c0,4.2-3.3,7.7-7.4,7.7H174.9c-4.1,0-7.4-3.4-7.4-7.7l0,0c0-4.2,3.3-7.6,7.4-7.6H326
		C330.1,305.4,333.4,308.8,333.4,313L333.4,313z"/>
	<path class="st2" d="M333.4,338.4c0,4.2-3.3,7.7-7.4,7.7H174.9c-4.1,0-7.4-3.4-7.4-7.7l0,0c0-4.2,3.3-7.6,7.4-7.6H326
		C330.1,330.7,333.4,334.1,333.4,338.4L333.4,338.4z"/>
	<polygon class="st3" points="395,191.5 320.2,165.2 380.4,113.5 	"/>
	<g class="st4">
		<g>
			<g>
				<path class="st5" d="M241.5,239.2c-2.3,0-4.4-1.1-5.8-2.9l-18.8-24.8c-2.4-3.2-1.8-7.8,1.4-10.3c3.2-2.4,7.8-1.8,10.3,1.4
					l12.3,16.3l31-49.8c2.1-3.4,6.6-4.5,10.1-2.3c3.4,2.1,4.5,6.6,2.3,10.1l-36.7,58.9c-1.3,2-3.5,3.3-5.9,3.4
					C241.7,239.2,241.6,239.2,241.5,239.2z"/>
			</g>
		</g>
	</g>
</g>
<g id="Layer_2_2_" class="st0">
	<rect x="121" y="171.5" class="st6" width="298" height="251"/>
	<text transform="matrix(1 0 0 1 121 348.9979)" class="st7 st8 st9">24</text>
	<circle class="st10" cx="138.3" cy="91.8" r="17.3"/>
	<circle class="st10" cx="185.3" cy="91.8" r="17.3"/>
	<circle class="st10" cx="232.3" cy="91.8" r="17.3"/>
	<circle class="st10" cx="278.3" cy="91.8" r="17.3"/>
	<circle class="st10" cx="323.3" cy="91.8" r="17.3"/>
	<circle class="st10" cx="368.3" cy="91.8" r="17.3"/>
</g>
<g>
	<path class="st11" d="M350.3,54.5H161.7c-17.9,0-34.5,9.6-43.4,25.1L24,242.9c-9,15.5-9,34.6,0,50.2l94.3,163.3
		c9,15.5,25.5,25.1,43.4,25.1h188.5c17.9,0,34.5-9.6,43.4-25.1L488,293.1c9-15.5,9-34.6,0-50.2L393.7,79.6
		C384.8,64.1,368.2,54.5,350.3,54.5z"/>
</g>
<g>
	<radialGradient id="SVGID_1_" cx="256.8879" cy="254.0013" r="226.4314" gradientUnits="userSpaceOnUse">
		<stop  offset="0" style="stop-color:#FFE7A3"/>
		<stop  offset="0.5" style="stop-color:#FFCA05"/>
		<stop  offset="1" style="stop-color:#FAAC18"/>
	</radialGradient>
	<path class="st12" d="M491.1,274.8c-0.7,1.4-1.4,2.9-2.2,4.3l-94.3,163.3c-0.5,1-1.1,1.9-1.7,2.8c-8.3,12.4-21.7,20.5-36.5,22
		c-1.7,0.2-3.4,0.3-5.2,0.3H162.6c-17.9,0-34.5-9.6-43.5-25.1l-15.3-26.6l-70.4-122l-8.5-14.8c-9-15.5-9-34.6,0-50.2l6.5-11.3
		l22.3-38.6l65.5-113.4c9-15.5,25.5-25.1,43.5-25.1h188.5c17.9,0,34.5,9.6,43.5,25.1l20.7,35.9l6.3,10.9l25.3,43.8l2.4,4.2l5.5,9.6
		l7,12l27.1,47c1.2,2,2.2,4.1,3,6.2C497.1,247.9,496.8,262.3,491.1,274.8z"/>
	<path class="st13" d="M491.1,274.8c-0.7,1.4-1.4,2.9-2.2,4.3l-94.3,163.3c-0.5,1-1.1,1.9-1.7,2.8c-8.3,12.4-21.7,20.5-36.5,22
		c-1.7,0.2-3.4,0.3-5.2,0.3H162.6c-17.9,0-34.5-9.6-43.5-25.1l-15.3-26.6l-70.4-122l-8.5-14.8c-9-15.5-9-34.6,0-50.2l6.5-11.3
		l22.3-38.6l65.5-113.4c9-15.5,25.5-25.1,43.5-25.1h188.5c17.9,0,34.5,9.6,43.5,25.1l20.7,35.9l6.3,10.9l25.3,43.8l2.4,4.2l5.5,9.6
		l7,12l27.1,47c1.2,2,2.2,4.1,3,6.2C497.1,247.9,496.8,262.3,491.1,274.8z"/>
</g>
<g id="Layer_2">
	<path class="st14" d="M295,124.5c0,21-17.1,38.1-38.1,38.1s-38.1-17.1-38.1-38.1c0-4.3,3.4-7.6,7.6-7.6s7.6,3.4,7.6,7.6
		c0,12.6,10.2,22.9,22.9,22.9c12.6,0,22.9-10.2,22.9-22.9c0-4.3,3.4-7.6,7.6-7.6C291.6,116.9,295,120.2,295,124.5z"/>
	<g>
		<path class="st15" d="M295,124.5c0,21-17.1,38.1-38.1,38.1v-15.2c12.6,0,22.9-10.2,22.9-22.9c0-4.3,3.4-7.6,7.6-7.6
			C291.6,116.9,295,120.2,295,124.5z"/>
		<path class="st15" d="M294.5,191.7c-0.6,3.8-4,6.4-7.6,6.4h-58.8c-4.1,0.6-8.1-2.1-8.8-6.4c-3.8-23.3,14.2-44.3,37.6-44.3
			C280.3,147.3,298.3,168.4,294.5,191.7z"/>
		<path class="st15" d="M176.5,234.7L146.9,223c-1.8-0.7-3.2-2-4-3.7l-15.2-30.5c-1.9-3.8-0.4-8.3,3.4-10.2
			c3.8-1.9,8.3-0.4,10.2,3.4l13.9,27.9l26.9,10.6c3.9,1.5,5.8,6,4.3,9.9C184.9,234.4,180.4,236.2,176.5,234.7z"/>
	</g>
	<g>
		<path class="st16" d="M327.3,230.4c-1.5-3.9,0.4-8.3,4.3-9.9l26.9-10.6l13.9-27.9c1.9-3.8,6.5-5.3,10.2-3.4
			c3.8,1.9,5.3,6.5,3.4,10.2l-15.2,30.5c-0.8,1.7-2.3,3-4,3.7l-29.6,11.7C333.4,236.2,328.9,234.4,327.3,230.4z"/>
		<path class="st16" d="M294.5,191.7c-0.6,3.8-4,6.4-7.6,6.4h-30v-50.7C280.3,147.3,298.3,168.4,294.5,191.7z"/>
	</g>
	<g>
		<path class="st15" d="M290.7,347.6l-26.4-118.2c-0.8-3.5-4-5.9-7.5-5.9c-3.5,0-6.7,2.4-7.5,5.9l-26.4,118
			c-0.8,3.7,1.2,7.5,4.7,8.8c9.1,3.5,19,5.3,29.1,5.3c9.9,0,19.7-1.7,28.9-5.2C289.5,355.1,291.5,351.3,290.7,347.6z"/>
		<path class="st15" d="M165,285.5h-30.5c-4.2,0-7.6-3.4-7.6-7.6c0-4.2,3.4-7.6,7.6-7.6H165c4.2,0,7.6,3.4,7.6,7.6
			C172.6,282.1,169.2,285.5,165,285.5z"/>
	</g>
	<path class="st16" d="M379.3,285.5h-30.5c-4.2,0-7.6-3.4-7.6-7.6c0-4.2,3.4-7.6,7.6-7.6h30.5c4.2,0,7.6,3.4,7.6,7.6
		C386.9,282.1,383.5,285.5,379.3,285.5z"/>
	<path class="st15" d="M131.1,376.1c-3.8-1.9-5.3-6.5-3.4-10.2l15.2-30.5c0.8-1.7,2.3-3,4-3.7l29.6-11.7c3.9-1.5,8.3,0.4,9.9,4.3
		c1.5,3.9-0.4,8.3-4.3,9.9l-26.9,10.6l-13.9,27.9C139.5,376.4,135,378,131.1,376.1z"/>
	<path class="st16" d="M372.5,372.7l-13.9-27.9l-26.9-10.6c-3.9-1.5-5.8-6-4.3-9.9c1.6-3.9,6-5.8,9.9-4.3l29.6,11.7
		c1.8,0.7,3.2,2,4,3.7l15.2,30.5c1.9,3.8,0.4,8.3-3.4,10.2C378.8,378,374.3,376.4,372.5,372.7z"/>
	<path class="st17" d="M355.9,277.9c0,42.4-26.8,80-66.9,93.7c-4.3,1.5-8.8-1.1-9.9-5.5l-22.2-99.2l-22.2,99.2
		c-1.1,4.6-5.8,7-9.9,5.5c-40.1-13.7-66.9-51.3-66.9-93.7c0-30.8,14.3-60,37.2-78.3h123.7C341.6,217.7,355.9,246.8,355.9,277.9z"/>
	<path class="st16" d="M285.8,356.5c-9.3,3.5-19,5.2-28.9,5.2V223.5c3.5,0,6.7,2.4,7.5,5.9l26.4,118.2
		C291.5,351.3,289.5,355.1,285.8,356.5z"/>
	<path class="st18" d="M355.9,277.9c0,42.4-26.8,80-66.9,93.7c-4.3,1.5-8.8-1.1-9.9-5.5l-22.2-99.2v-67.3h61.9
		C341.6,217.7,355.9,246.8,355.9,277.9z"/>
	<path class="st14" d="M289.3,183.3c-10.7-3.7-21.5-5.5-32.4-5.5c-11,0-21.8,1.8-32.4,5.5c-10.8,3.7-21.8,9.8-29.4,16.3
		c11.1,23.5,35,39.2,61.9,39.2c27.3,0,50.9-15.8,61.9-39.2C310.2,192.7,299.8,186.8,289.3,183.3z"/>
	<path class="st15" d="M318.7,199.6c-11,23.3-34.6,39.2-61.9,39.2v-60.9c11,0,21.8,1.8,32.4,5.5
		C299.8,186.8,310.2,192.7,318.7,199.6z"/>
	<circle class="st16" cx="302.6" cy="262.6" r="7.6"/>
	<circle class="st15" cx="211.2" cy="262.6" r="7.6"/>
	<path class="st16" d="M310.2,315.9c-8.4,0-15.2-6.8-15.2-15.2s6.8-15.2,15.2-15.2c8.4,0,15.2,6.8,15.2,15.2
		S318.6,315.9,310.2,315.9z"/>
	<path class="st15" d="M203.6,315.9c-8.4,0-15.2-6.8-15.2-15.2s6.8-15.2,15.2-15.2s15.2,6.8,15.2,15.2S212,315.9,203.6,315.9z"/>
</g>
</svg>
