<?xml version="1.0" encoding="utf-8"?>
<!-- Generator: Adobe Illustrator 24.0.1, SVG Export Plug-In . SVG Version: 6.00 Build 0)  -->
<svg version="1.1" id="Layer_1" xmlns="http://www.w3.org/2000/svg" xmlns:xlink="http://www.w3.org/1999/xlink" x="0px" y="0px"
	 viewBox="0 0 512 512" style="enable-background:new 0 0 512 512;" xml:space="preserve">
<style type="text/css">
	.st0{display:none;}
	.st1{display:inline;fill:#200A7F;stroke:#18E5EA;stroke-width:20;stroke-miterlimit:10;}
	.st2{display:inline;fill:#EF0B79;}
	.st3{display:inline;fill:#18E5EA;}
	.st4{display:inline;}
	.st5{fill:#E9F21C;}
	.st6{display:inline;fill:none;}
	.st7{display:inline;fill:#EF3A24;}
	.st8{font-family:'MyriadPro-Regular';}
	.st9{font-size:250px;}
	.st10{display:inline;fill:#FFFFFF;}
	.st11{fill:#C4C6C8;}
	.st12{fill:url(#SVGID_1_);}
	.st13{fill:url(#SVGID_2_);stroke:#E8E8E8;stroke-width:3;stroke-miterlimit:10;}
	.st14{fill:url(#SVGID_3_);}
	.st15{fill:url(#SVGID_4_);}
	.st16{fill:#F8EC7D;}
	.st17{fill:url(#SVGID_5_);}
	.st18{fill:url(#SVGID_6_);}
</style>
<g id="Layer_3" class="st0">
	<path class="st1" d="M401.1,212.2c5.1,15.3,7.9,31.7,7.9,48.8c0,85.3-69.2,154.5-154.5,154.5S100,346.3,100,261
		s69.2-154.5,154.5-154.5c51.2,0,96.6,24.9,124.7,63.3"/>
	<path class="st2" d="M333.4,255.2c0,4.2-3.3,7.7-7.4,7.7H174.9c-4.1,0-7.4-3.4-7.4-7.7l0,0c0-4.2,3.3-7.7,7.4-7.7H326
		C330.1,247.5,333.4,250.9,333.4,255.2L333.4,255.2z"/>
	<path class="st2" d="M333.4,284.8c0,4.2-3.3,7.6-7.4,7.6H174.9c-4.1,0-7.4-3.4-7.4-7.6l0,0c0-4.2,3.3-7.6,7.4-7.6H326
		C330.1,277.1,333.4,280.6,333.4,284.8L333.4,284.8z"/>
	<path class="st2" d="M333.4,313c0,4.2-3.3,7.7-7.4,7.7H174.9c-4.1,0-7.4-3.4-7.4-7.7l0,0c0-4.2,3.3-7.6,7.4-7.6H326
		C330.1,305.4,333.4,308.8,333.4,313L333.4,313z"/>
	<path class="st2" d="M333.4,338.4c0,4.2-3.3,7.7-7.4,7.7H174.9c-4.1,0-7.4-3.4-7.4-7.7l0,0c0-4.2,3.3-7.6,7.4-7.6H326
		C330.1,330.7,333.4,334.1,333.4,338.4L333.4,338.4z"/>
	<polygon class="st3" points="395,191.5 320.2,165.2 380.4,113.5 	"/>
	<g class="st4">
		<g>
			<g>
				<path class="st5" d="M241.5,239.2c-2.3,0-4.4-1.1-5.8-2.9l-18.8-24.8c-2.4-3.2-1.8-7.8,1.4-10.3c3.2-2.4,7.8-1.8,10.3,1.4
					l12.3,16.3l31-49.8c2.1-3.4,6.6-4.5,10.1-2.3c3.4,2.1,4.5,6.6,2.3,10.1l-36.7,58.9c-1.3,2-3.5,3.3-5.9,3.4
					C241.7,239.2,241.6,239.2,241.5,239.2z"/>
			</g>
		</g>
	</g>
</g>
<g id="Layer_2_2_" class="st0">
	<rect x="121" y="171.5" class="st6" width="298" height="251"/>
	<text transform="matrix(1 0 0 1 121 348.9979)" class="st7 st8 st9">24</text>
	<circle class="st10" cx="138.3" cy="91.8" r="17.3"/>
	<circle class="st10" cx="185.3" cy="91.8" r="17.3"/>
	<circle class="st10" cx="232.3" cy="91.8" r="17.3"/>
	<circle class="st10" cx="278.3" cy="91.8" r="17.3"/>
	<circle class="st10" cx="323.3" cy="91.8" r="17.3"/>
	<circle class="st10" cx="368.3" cy="91.8" r="17.3"/>
</g>
<g>
	<path class="st11" d="M350.3,54.5H161.7c-17.9,0-34.5,9.6-43.4,25.1L24,242.9c-9,15.5-9,34.6,0,50.2l94.3,163.3
		c9,15.5,25.5,25.1,43.4,25.1h188.5c17.9,0,34.5-9.6,43.4-25.1L488,293.1c9-15.5,9-34.6,0-50.2L393.7,79.6
		C384.8,64.1,368.2,54.5,350.3,54.5z"/>
</g>
<g>
	
		<radialGradient id="SVGID_1_" cx="256.8813" cy="259.3414" r="226.4909" gradientTransform="matrix(1 0 0 -1 0 513.2912)" gradientUnits="userSpaceOnUse">
		<stop  offset="0" style="stop-color:#FFF7A9"/>
		<stop  offset="0.5" style="stop-color:#FFF100"/>
		<stop  offset="1" style="stop-color:#FFD700"/>
	</radialGradient>
	<path class="st12" d="M491.1,274.8c-0.7,1.4-1.4,2.9-2.2,4.3l-94.3,163.3c-0.5,1-1.1,1.9-1.7,2.8c-8.3,12.4-21.7,20.5-36.5,22
		c-1.7,0.2-3.4,0.3-5.2,0.3H162.6c-17.9,0-34.5-9.6-43.5-25.1l-15.3-26.6l-70.4-122L24.9,279c-9-15.5-9-34.6,0-50.2l6.5-11.3
		l22.3-38.6l65.5-113.4c9-15.5,25.5-25.1,43.5-25.1h188.5c17.9,0,34.5,9.6,43.5,25.1l20.7,35.9l6.3,10.9l25.3,43.8l2.4,4.2l5.5,9.6
		l7,12l27.1,47c1.2,2,2.2,4.1,3,6.2C497.1,247.9,496.8,262.3,491.1,274.8z"/>
	<radialGradient id="SVGID_2_" cx="256.8813" cy="253.9498" r="226.4909" gradientUnits="userSpaceOnUse">
		<stop  offset="0" style="stop-color:#FFF7A9"/>
		<stop  offset="0.5" style="stop-color:#FFF100"/>
		<stop  offset="1" style="stop-color:#FFD700"/>
	</radialGradient>
	<path class="st13" d="M491.1,274.8c-0.7,1.4-1.4,2.9-2.2,4.3l-94.3,163.3c-0.5,1-1.1,1.9-1.7,2.8c-8.3,12.4-21.7,20.5-36.5,22
		c-1.7,0.2-3.4,0.3-5.2,0.3H162.6c-17.9,0-34.5-9.6-43.5-25.1l-15.3-26.6l-70.4-122L24.9,279c-9-15.5-9-34.6,0-50.2l6.5-11.3
		l22.3-38.6l65.5-113.4c9-15.5,25.5-25.1,43.5-25.1h188.5c17.9,0,34.5,9.6,43.5,25.1l20.7,35.9l6.3,10.9l25.3,43.8l2.4,4.2l5.5,9.6
		l7,12l27.1,47c1.2,2,2.2,4.1,3,6.2C497.1,247.9,496.8,262.3,491.1,274.8z"/>
</g>
<path d="M261.5,268.1H121.2c-3.7,0-6.7-3-6.7-6.7s3-6.7,6.7-6.7h140.4c3.7,0,6.7,3,6.7,6.7S265.2,268.1,261.5,268.1z"/>
<path d="M268.1,303c-1.8,0-3.5-0.7-4.7-1.9c-1.2-1.2-1.9-3-1.9-4.7s0.7-3.5,1.9-4.7c1.2-1.2,3-1.9,4.7-1.9s3.5,0.7,4.7,1.9
	c1.2,1.2,1.9,3,1.9,4.7c0,1.8-0.7,3.5-1.9,4.7C271.6,302.3,269.9,303,268.1,303z"/>
<path d="M235.4,304.2H121.2c-3.7,0-6.7-2.5-6.7-5.5s3-5.5,6.7-5.5h114.2c3.7,0,6.7,2.5,6.7,5.5S239.1,304.2,235.4,304.2z"/>
<path d="M235.4,336H121.2c-3.7,0-6.7-2.5-6.7-5.5s3-5.5,6.7-5.5h114.2c3.7,0,6.7,2.5,6.7,5.5S239.1,336,235.4,336z"/>
<path d="M235.4,367.7H121.2c-3.7,0-6.7-2.5-6.7-5.5s3-5.5,6.7-5.5h114.2c3.7,0,6.7,2.5,6.7,5.5S239.1,367.7,235.4,367.7z"/>
<path d="M218.3,230.8h-97.1c-3.7,0-6.7-3-6.7-6.7s3-6.7,6.7-6.7h97.1c3.7,0,6.7,3,6.7,6.7S222,230.8,218.3,230.8z"/>
<linearGradient id="SVGID_3_" gradientUnits="userSpaceOnUse" x1="246.7128" y1="317.5413" x2="272.5825" y2="317.5413" gradientTransform="matrix(1 0 0 -1 0 513.2912)">
	<stop  offset="0" style="stop-color:#FEFE93"/>
	<stop  offset="0.5" style="stop-color:#FEFE00"/>
	<stop  offset="1" style="stop-color:#FEDD00"/>
</linearGradient>
<polygon class="st14" points="272.4,198.1 249.4,207.3 246.7,203.8 262,184.3 262.2,184.2 272.6,197.9 "/>
<linearGradient id="SVGID_4_" gradientUnits="userSpaceOnUse" x1="344.5838" y1="388.2753" x2="366.5202" y2="388.2753" gradientTransform="matrix(1 0 0 -1 0 513.2912)">
	<stop  offset="0" style="stop-color:#D750A5"/>
	<stop  offset="0.5" style="stop-color:#C6037E"/>
	<stop  offset="1" style="stop-color:#91027D"/>
</linearGradient>
<path class="st15" d="M364.3,128.9l-9.3,7l-10.4-13.7l9.3-7c2.4-1.8,5.7-1.4,7.6,0.9c0.1,0.1,0.1,0.1,0.2,0.2l3.7,4.9
	c0.1,0.1,0.1,0.2,0.2,0.2C367.2,123.8,366.7,127.2,364.3,128.9z"/>
<path class="st16" d="M365.6,121.4c-0.1-0.1-0.1-0.2-0.2-0.2l-3.7-4.9c-0.1-0.1-0.1-0.2-0.2-0.2l0.2-0.2l11.1-8.3l4,5.3l-11.1,8.3
	L365.6,121.4z"/>
<linearGradient id="SVGID_5_" gradientUnits="userSpaceOnUse" x1="262.1778" y1="353.236" x2="354.9885" y2="353.236" gradientTransform="matrix(1 0 0 -1 0 513.2912)">
	<stop  offset="0" style="stop-color:#64BC6B"/>
	<stop  offset="0.5" style="stop-color:#008837"/>
	<stop  offset="1" style="stop-color:#006F2D"/>
</linearGradient>
<polygon class="st17" points="355,135.9 272.6,197.9 262.2,184.2 344.6,122.2 "/>
<linearGradient id="SVGID_6_" gradientUnits="userSpaceOnUse" x1="242.0306" y1="355.1469" x2="378.6908" y2="355.1469" gradientTransform="matrix(1 0 0 -1 0 513.2912)">
	<stop  offset="0" style="stop-color:#482F92"/>
	<stop  offset="0.5" style="stop-color:#13007C"/>
	<stop  offset="1" style="stop-color:#251353"/>
</linearGradient>
<path class="st18" d="M247.7,208.1l0.3,0.3c0.5,0.6,1.4,0.9,2.1,0.6l23-9.3c0.2-0.1,0.4-0.2,0.5-0.3c0,0,0.1,0,0.1-0.1l82.4-62
	l9.3-7c0.9-0.7,1.6-1.5,2.1-2.5c0.4,0.7,0.6,1.5,0.6,2.3c0,1-0.6,1.8-1.6,2.6c-10,7.5-41.1,30.9-41.1,30.9l2.2,2.9
	c0,0,31.1-23.4,41.1-30.9c2.4-1.8,3-3.9,3.1-5.3c0.1-1.8-0.6-3.7-1.9-5.6c-0.5-0.7-1.1-1.4-1.7-2.1c-0.1-0.2-0.1-0.5-0.2-0.7
	l10.1-7.6c0.4-0.3,0.6-0.7,0.7-1.2l0,0c0.1-0.5-0.1-1-0.3-1.3l-4-5.3c-0.6-0.8-1.7-0.9-2.5-0.4l-10.1,7.6c-2.6-1.9-6.2-1.9-8.8,0
	l-9.3,7l-82.4,62c0,0-0.1,0.1-0.1,0.1c-0.2,0.1-0.3,0.2-0.4,0.4l-15.2,19.5c-0.5,0.6-0.5,1.5,0,2.2l0.3,0.3l-2.8,2.1
	c-0.8,0.6-1,1.7-0.4,2.5c0.6,0.8,1.7,1,2.5,0.4l0,0L247.7,208.1z M374.4,112.5l-8.5,6.4l-1.9-2.5l8.5-6.4L374.4,112.5z M360.2,117.2
	C360.2,117.2,360.2,117.2,360.2,117.2c0.1,0.1,0.1,0.1,0.1,0.2l3.7,4.9c0,0.1,0.1,0.1,0.1,0.2c1.1,1.7,0.8,3.9-0.8,5.1l-7.9,5.9
	l-8.2-10.9l7.9-5.9C356.6,115.4,358.9,115.7,360.2,117.2z M352.5,135.6l-79.5,59.8l-8.2-10.9l79.5-59.8L352.5,135.6z M262.1,187.1
	l7.7,10.1l-19.8,8l-1-1.3L262.1,187.1z"/>
</svg>
