<?xml version="1.0" encoding="utf-8"?>
<!-- Generator: Adobe Illustrator 24.0.1, SVG Export Plug-In . SVG Version: 6.00 Build 0)  -->
<svg version="1.1" id="Layer_1" xmlns="http://www.w3.org/2000/svg" xmlns:xlink="http://www.w3.org/1999/xlink" x="0px" y="0px"
	 viewBox="0 0 512 512" style="enable-background:new 0 0 512 512;" xml:space="preserve">
<style type="text/css">
	.st0{display:none;}
	.st1{display:inline;fill:#200A7F;stroke:#18E5EA;stroke-width:20;stroke-miterlimit:10;}
	.st2{display:inline;fill:#EF0B79;}
	.st3{display:inline;fill:#18E5EA;}
	.st4{display:inline;}
	.st5{fill:#E9F21C;}
	.st6{display:inline;fill:none;}
	.st7{display:inline;fill:#EF3A24;}
	.st8{font-family:'MyriadPro-Regular';}
	.st9{font-size:250px;}
	.st10{display:inline;fill:#FFFFFF;}
	.st11{fill:#C4C6C8;}
	.st12{fill:url(#SVGID_1_);}
	.st13{fill:none;stroke:#E8E8E8;stroke-width:3;stroke-miterlimit:10;}
	.st14{fill:url(#SVGID_2_);}
	.st15{fill:#E3001E;}
	.st16{fill:#E6BE8A;}
	.st17{fill:#FFEBB7;}
	.st18{fill:#FFD788;}
	.st19{fill:#868491;}
	.st20{fill:#B4B6BC;}
	.st21{fill:#5D647F;}
</style>
<g id="Layer_3" class="st0">
	<path class="st1" d="M401.1,212.2c5.1,15.3,7.9,31.7,7.9,48.8c0,85.3-69.2,154.5-154.5,154.5S100,346.3,100,261
		s69.2-154.5,154.5-154.5c51.2,0,96.6,24.9,124.7,63.3"/>
	<path class="st2" d="M333.4,255.2c0,4.2-3.3,7.7-7.4,7.7H174.9c-4.1,0-7.4-3.4-7.4-7.7l0,0c0-4.2,3.3-7.7,7.4-7.7H326
		C330.1,247.5,333.4,250.9,333.4,255.2L333.4,255.2z"/>
	<path class="st2" d="M333.4,284.8c0,4.2-3.3,7.6-7.4,7.6H174.9c-4.1,0-7.4-3.4-7.4-7.6l0,0c0-4.2,3.3-7.6,7.4-7.6H326
		C330.1,277.1,333.4,280.6,333.4,284.8L333.4,284.8z"/>
	<path class="st2" d="M333.4,313c0,4.2-3.3,7.7-7.4,7.7H174.9c-4.1,0-7.4-3.4-7.4-7.7l0,0c0-4.2,3.3-7.6,7.4-7.6H326
		C330.1,305.4,333.4,308.8,333.4,313L333.4,313z"/>
	<path class="st2" d="M333.4,338.4c0,4.2-3.3,7.7-7.4,7.7H174.9c-4.1,0-7.4-3.4-7.4-7.7l0,0c0-4.2,3.3-7.6,7.4-7.6H326
		C330.1,330.7,333.4,334.1,333.4,338.4L333.4,338.4z"/>
	<polygon class="st3" points="395,191.5 320.2,165.2 380.4,113.5 	"/>
	<g class="st4">
		<g>
			<g>
				<path class="st5" d="M241.5,239.2c-2.3,0-4.4-1.1-5.8-2.9l-18.8-24.8c-2.4-3.2-1.8-7.8,1.4-10.3c3.2-2.4,7.8-1.8,10.3,1.4
					l12.3,16.3l31-49.8c2.1-3.4,6.6-4.5,10.1-2.3c3.4,2.1,4.5,6.6,2.3,10.1l-36.7,58.9c-1.3,2-3.5,3.3-5.9,3.4
					C241.7,239.2,241.6,239.2,241.5,239.2z"/>
			</g>
		</g>
	</g>
</g>
<g id="Layer_2_2_" class="st0">
	<rect x="121" y="171.5" class="st6" width="298" height="251"/>
	<text transform="matrix(1 0 0 1 121 348.9979)" class="st7 st8 st9">24</text>
	<circle class="st10" cx="138.3" cy="91.8" r="17.3"/>
	<circle class="st10" cx="185.3" cy="91.8" r="17.3"/>
	<circle class="st10" cx="232.3" cy="91.8" r="17.3"/>
	<circle class="st10" cx="278.3" cy="91.8" r="17.3"/>
	<circle class="st10" cx="323.3" cy="91.8" r="17.3"/>
	<circle class="st10" cx="368.3" cy="91.8" r="17.3"/>
</g>
<g>
	<path class="st11" d="M350.3,54.5H161.7c-17.9,0-34.5,9.6-43.4,25.1L24,242.9c-9,15.5-9,34.6,0,50.2l94.3,163.3
		c9,15.5,25.5,25.1,43.4,25.1h188.5c17.9,0,34.5-9.6,43.4-25.1L488,293.1c9-15.5,9-34.6,0-50.2L393.7,79.6
		C384.8,64.1,368.2,54.5,350.3,54.5z"/>
</g>
<g>
	
		<radialGradient id="SVGID_1_" cx="256.8813" cy="-79.3412" r="226.4908" gradientTransform="matrix(1 0 0 1 0 333.2912)" gradientUnits="userSpaceOnUse">
		<stop  offset="0" style="stop-color:#2BC4F3"/>
		<stop  offset="0.5" style="stop-color:#00AEEE"/>
		<stop  offset="1" style="stop-color:#0095DA"/>
	</radialGradient>
	<path class="st12" d="M491.1,274.8c-0.7,1.4-1.4,2.9-2.2,4.3l-94.3,163.3c-0.5,1-1.1,1.9-1.7,2.8c-8.3,12.4-21.7,20.5-36.5,22
		c-1.7,0.2-3.4,0.3-5.2,0.3H162.6c-17.9,0-34.5-9.6-43.5-25.1l-15.3-26.6l-70.4-122L24.9,279c-9-15.5-9-34.6,0-50.2l6.5-11.3
		l22.3-38.6l65.5-113.4c9-15.5,25.5-25.1,43.5-25.1h188.5c17.9,0,34.5,9.6,43.5,25.1l20.7,35.9l6.3,10.9l25.3,43.8l2.4,4.2l5.5,9.6
		l7,12l27.1,47c1.2,2,2.2,4.1,3,6.2C497.1,247.9,496.8,262.3,491.1,274.8z"/>
	<path class="st13" d="M491.1,274.8c-0.7,1.4-1.4,2.9-2.2,4.3l-94.3,163.3c-0.5,1-1.1,1.9-1.7,2.8c-8.3,12.4-21.7,20.5-36.5,22
		c-1.7,0.2-3.4,0.3-5.2,0.3H162.6c-17.9,0-34.5-9.6-43.5-25.1l-15.3-26.6l-70.4-122L24.9,279c-9-15.5-9-34.6,0-50.2l6.5-11.3
		l22.3-38.6l65.5-113.4c9-15.5,25.5-25.1,43.5-25.1h188.5c17.9,0,34.5,9.6,43.5,25.1l20.7,35.9l6.3,10.9l25.3,43.8l2.4,4.2l5.5,9.6
		l7,12l27.1,47c1.2,2,2.2,4.1,3,6.2C497.1,247.9,496.8,262.3,491.1,274.8z"/>
</g>
<g>
	<g>
		
			<linearGradient id="SVGID_2_" gradientUnits="userSpaceOnUse" x1="118.3" y1="-59.9412" x2="403.4" y2="-59.9412" gradientTransform="matrix(1 0 0 1 0 333.2912)">
			<stop  offset="0" style="stop-color:#E60000"/>
			<stop  offset="0.5225" style="stop-color:#F9490F"/>
			<stop  offset="1" style="stop-color:#FF2A00"/>
		</linearGradient>
		<path class="st14" d="M389.6,183.7H132.1c-7.6,0-13.8,6.2-13.8,13.8v151.7c0,7.6,6.2,13.8,13.8,13.8h257.5
			c7.6,0,13.8-6.2,13.8-13.8V197.5C403.4,189.9,397.2,183.7,389.6,183.7z"/>
	</g>
	<g>
		<rect x="247" y="340" class="st15" width="27.6" height="23"/>
	</g>
	<g>
		<path class="st16" d="M385.1,326.2V340c0,2.5-2.1,4.6-4.6,4.6H141.4c-2.5,0-4.6-2.1-4.6-4.6v-13.8l27.5-13.8l110.4,4.6l92-4.6
			L385.1,326.2z"/>
	</g>
	<g>
		<path class="st17" d="M143.2,332.6c37.8-15.6,80.5-14.6,117.7,2.8V169.9c-38.4-18.1-82.7-18.5-121.4-1.3c-1.7,0.7-2.7,2.4-2.7,4.3
			v155.5C136.8,331.7,140.2,333.9,143.2,332.6z"/>
	</g>
	<g>
		<path class="st18" d="M260.9,335.4c37.2-17.5,79.9-18.4,117.7-2.8c3.1,1.3,6.5-0.9,6.5-4.2V172.9c0-1.8-1.1-3.5-2.7-4.3
			c-38.7-17.2-83-16.8-121.4,1.3L260.9,335.4L260.9,335.4z"/>
	</g>
	<g>
		<g>
			<path class="st19" d="M279.3,305.4c-2,0-3.8-1.3-4.4-3.2c-0.8-2.4,0.6-5,3-5.8c4.7-1.5,9.4-2.7,14.2-3.7c2.5-0.5,4.9,1.1,5.4,3.6
				s-1.1,4.9-3.6,5.4c-4.5,0.9-9,2.1-13.4,3.5C280.3,305.3,279.8,305.4,279.3,305.4z"/>
		</g>
	</g>
	<g>
		<g>
			<path class="st19" d="M366.7,305.4c-0.5,0-0.9-0.1-1.4-0.2c-17.4-5.4-35.3-7.5-53.4-6c-2.6,0.2-4.7-1.7-4.9-4.2
				c-0.2-2.5,1.7-4.7,4.2-4.9c19.3-1.5,38.4,0.6,56.9,6.4c2.4,0.8,3.8,3.3,3,5.8C370.5,304.1,368.7,305.4,366.7,305.4z"/>
		</g>
	</g>
	<g>
		<g>
			<path class="st19" d="M366.7,287c-0.5,0-0.9-0.1-1.4-0.2c-27.7-8.7-56.9-8.7-84.6,0c-2.4,0.8-5-0.6-5.8-3s0.6-5,3-5.8
				c29.5-9.3,60.6-9.3,90.1,0c2.4,0.8,3.8,3.3,3,5.8C370.5,285.7,368.7,287,366.7,287z"/>
		</g>
	</g>
	<g>
		<g>
			<path class="st19" d="M279.3,268.6c-2,0-3.8-1.3-4.4-3.2c-0.8-2.4,0.6-5,3-5.8c16.9-5.3,34.5-7.6,52.2-6.7
				c2.5,0.1,4.5,2.3,4.4,4.8s-2.2,4.5-4.8,4.4c-16.6-0.8-33.1,1.3-49,6.3C280.3,268.5,279.8,268.6,279.3,268.6z"/>
		</g>
	</g>
	<g>
		<g>
			<path class="st19" d="M366.7,268.6c-0.5,0-0.9-0.1-1.4-0.2c-5.8-1.8-11.8-3.3-17.8-4.3c-2.5-0.4-4.2-2.8-3.7-5.3
				c0.4-2.5,2.8-4.2,5.3-3.7c6.4,1.1,12.8,2.7,19,4.6c2.4,0.8,3.8,3.3,3,5.8C370.5,267.4,368.7,268.6,366.7,268.6z"/>
		</g>
	</g>
	<g>
		<g>
			<path class="st19" d="M366.7,250.2c-0.5,0-0.9-0.1-1.4-0.2c-27.7-8.7-56.9-8.7-84.6,0c-2.4,0.8-5-0.6-5.8-3s0.6-5,3-5.8
				c29.5-9.3,60.6-9.3,90.1,0c2.4,0.8,3.8,3.3,3,5.8C370.5,248.9,368.7,250.2,366.7,250.2z"/>
		</g>
	</g>
	<g>
		<g>
			<path class="st19" d="M279.3,231.8c-2,0-3.8-1.3-4.4-3.2c-0.8-2.4,0.6-5,3-5.8c9.3-2.9,18.8-4.9,28.5-6c2.6-0.3,4.8,1.5,5.1,4.1
				c0.3,2.5-1.5,4.8-4.1,5.1c-9,1-18,2.9-26.7,5.6C280.3,231.7,279.8,231.8,279.3,231.8z"/>
		</g>
	</g>
	<g>
		<g>
			<path class="st19" d="M366.7,231.8c-0.5,0-0.9-0.1-1.4-0.2c-13-4.1-26.5-6.3-40.1-6.5c-2.5,0-4.6-2.1-4.5-4.7
				c0-2.5,2.3-4.7,4.7-4.5c14.5,0.2,28.9,2.5,42.7,6.9c2.4,0.8,3.8,3.3,3,5.8C370.5,230.5,368.7,231.8,366.7,231.8z"/>
		</g>
	</g>
	<g>
		<g>
			<path class="st19" d="M279.3,213.4c-2,0-3.8-1.3-4.4-3.2c-0.8-2.4,0.6-5,3-5.8c20-6.3,40.8-8.3,61.7-6c2.5,0.3,4.3,2.6,4.1,5.1
				c-0.3,2.5-2.5,4.4-5.1,4.1c-19.6-2.2-39.1-0.3-57.9,5.6C280.3,213.4,279.8,213.4,279.3,213.4z"/>
		</g>
	</g>
	<g>
		<g>
			<path class="st19" d="M366.7,213.4c-0.5,0-0.9-0.1-1.4-0.2c-2.9-0.9-5.9-1.8-8.9-2.5c-2.5-0.6-4-3.1-3.4-5.6s3.1-4,5.6-3.4
				c3.2,0.8,6.4,1.7,9.5,2.6c2.4,0.8,3.8,3.3,3,5.8C370.5,212.2,368.7,213.4,366.7,213.4z"/>
		</g>
	</g>
	<g>
		<g>
			<path class="st19" d="M279.3,195c-2,0-3.8-1.3-4.4-3.2c-0.8-2.4,0.6-5,3-5.8c3.2-1,6.4-1.9,9.5-2.6c2.5-0.6,5,0.9,5.6,3.4
				s-0.9,5-3.4,5.6c-2.9,0.7-5.9,1.5-8.9,2.5C280.2,194.9,279.8,195,279.3,195z"/>
		</g>
	</g>
	<g>
		<g>
			<path class="st19" d="M366.7,195c-0.5,0-0.9-0.1-1.4-0.2c-18.8-5.9-38.3-7.8-57.9-5.6c-2.5,0.3-4.8-1.5-5.1-4.1
				c-0.3-2.5,1.5-4.8,4.1-5.1c20.9-2.3,41.6-0.3,61.7,6c2.4,0.8,3.8,3.3,3,5.8C370.5,193.7,368.7,195,366.7,195z"/>
		</g>
	</g>
	<g>
		<g>
			<path class="st20" d="M155.2,305.4c-2,0-3.8-1.3-4.4-3.2c-0.8-2.4,0.6-5,3-5.8c4.7-1.5,9.4-2.7,14.2-3.7c2.5-0.5,4.9,1.1,5.4,3.6
				s-1.1,4.9-3.6,5.4c-4.5,0.9-9,2.1-13.4,3.5C156.1,305.3,155.6,305.4,155.2,305.4z"/>
		</g>
	</g>
	<g>
		<g>
			<path class="st20" d="M242.5,305.4c-0.5,0-0.9-0.1-1.4-0.2c-17.3-5.4-35.3-7.5-53.4-6c-2.6,0.2-4.7-1.7-4.9-4.2s1.7-4.7,4.2-4.9
				c19.3-1.5,38.4,0.6,56.9,6.4c2.4,0.8,3.8,3.3,3,5.8C246.3,304.1,244.5,305.4,242.5,305.4z"/>
		</g>
	</g>
	<g>
		<g>
			<path class="st20" d="M242.5,287c-0.5,0-0.9-0.1-1.4-0.2c-27.7-8.7-56.9-8.7-84.6,0c-2.4,0.8-5-0.6-5.8-3s0.6-5,3-5.8
				c29.5-9.3,60.6-9.3,90.1,0c2.4,0.8,3.8,3.3,3,5.8C246.3,285.7,244.5,287,242.5,287z"/>
		</g>
	</g>
	<g>
		<g>
			<path class="st20" d="M155.2,268.6c-2,0-3.8-1.3-4.4-3.2c-0.8-2.4,0.6-5,3-5.8c16.9-5.3,34.5-7.6,52.2-6.7
				c2.5,0.1,4.5,2.3,4.4,4.8s-2.3,4.5-4.8,4.4c-16.6-0.8-33.1,1.3-49,6.3C156.1,268.5,155.6,268.6,155.2,268.6z"/>
		</g>
	</g>
	<g>
		<g>
			<path class="st20" d="M242.5,268.6c-0.5,0-0.9-0.1-1.4-0.2c-5.8-1.8-11.8-3.3-17.8-4.3c-2.5-0.4-4.2-2.8-3.7-5.3
				c0.4-2.5,2.8-4.2,5.3-3.7c6.4,1.1,12.8,2.7,19,4.6c2.4,0.8,3.8,3.3,3,5.8C246.3,267.4,244.5,268.6,242.5,268.6z"/>
		</g>
	</g>
	<g>
		<g>
			<path class="st20" d="M155.2,250.2c-2,0-3.8-1.3-4.4-3.2c-0.8-2.4,0.6-5,3-5.8c26.1-8.2,54-9.1,80.6-2.6c2.5,0.6,4,3.1,3.4,5.6
				s-3.1,4-5.6,3.4c-25-6.1-51.2-5.2-75.7,2.5C156.1,250.1,155.6,250.2,155.2,250.2z"/>
		</g>
	</g>
	<g>
		<g>
			<path class="st20" d="M155.2,231.8c-2,0-3.8-1.3-4.4-3.2c-0.8-2.4,0.6-5,3-5.8c9.3-2.9,18.8-4.9,28.5-6c2.5-0.3,4.8,1.5,5.1,4.1
				c0.3,2.5-1.5,4.8-4.1,5.1c-9,1-18,2.9-26.7,5.6C156.1,231.7,155.6,231.8,155.2,231.8z"/>
		</g>
	</g>
	<g>
		<g>
			<path class="st20" d="M233.4,229.2c-0.4,0-0.7,0-1.1-0.1c-10.2-2.5-20.7-3.8-31.2-4c-2.5,0-4.6-2.1-4.5-4.7c0-2.5,2-4.7,4.7-4.5
				c11.2,0.2,22.3,1.6,33.2,4.3c2.5,0.6,4,3.1,3.4,5.6C237.3,227.8,235.4,229.2,233.4,229.2z"/>
		</g>
	</g>
	<g>
		<g>
			<path class="st20" d="M155.2,213.4c-2,0-3.8-1.3-4.4-3.2c-0.8-2.4,0.6-5,3-5.8c20-6.3,40.8-8.3,61.7-6c2.5,0.3,4.3,2.6,4.1,5.1
				c-0.3,2.5-2.5,4.4-5.1,4.1c-19.6-2.2-39.1-0.3-57.9,5.6C156.1,213.4,155.6,213.4,155.2,213.4z"/>
		</g>
	</g>
	<g>
		<g>
			<path class="st20" d="M155.2,195c-2,0-3.8-1.3-4.4-3.2c-0.8-2.4,0.6-5,3-5.8c3.2-1,6.4-1.9,9.5-2.6c2.4-0.6,5,0.9,5.6,3.4
				s-0.9,5-3.4,5.6c-2.9,0.7-5.9,1.5-8.9,2.5C156.1,194.9,155.6,195,155.2,195z"/>
		</g>
	</g>
	<g>
		<g>
			<path class="st20" d="M233.4,192.4c-0.4,0-0.7,0-1.1-0.1c-16.1-3.9-32.6-5-49-3.1c-2.5,0.3-4.8-1.5-5.1-4.1
				c-0.3-2.5,1.5-4.8,4.1-5.1c17.5-1.9,35.1-0.8,52.2,3.3c2.5,0.6,4,3.1,3.4,5.6C237.3,191,235.4,192.4,233.4,192.4z"/>
		</g>
	</g>
	<g>
		<path class="st21" d="M233.3,241.2c0,1.8,2,2.9,3.6,1.9l10.2-6.8l10.2,6.8c1.5,1,3.6-0.1,3.6-1.9v-70.9c0-1.8-1.1-3.5-2.7-4.2
			c-7.2-3.2-14.5-5.7-22-7.7c-1.5-0.4-2.9,0.7-2.9,2.3L233.3,241.2z"/>
	</g>
</g>
</svg>
