<?xml version="1.0" encoding="utf-8"?>
<!-- Generator: Adobe Illustrator 24.0.1, SVG Export Plug-In . SVG Version: 6.00 Build 0)  -->
<svg version="1.1" id="Layer_1" xmlns="http://www.w3.org/2000/svg" xmlns:xlink="http://www.w3.org/1999/xlink" x="0px" y="0px"
	 viewBox="0 0 512 512" style="enable-background:new 0 0 512 512;" xml:space="preserve">
<style type="text/css">
	.st0{display:none;}
	.st1{display:inline;fill:#200A7F;stroke:#18E5EA;stroke-width:20;stroke-miterlimit:10;}
	.st2{display:inline;fill:#EF0B79;}
	.st3{display:inline;fill:#18E5EA;}
	.st4{display:inline;}
	.st5{fill:#E9F21C;}
	.st6{display:inline;fill:none;}
	.st7{display:inline;fill:#EF3A24;}
	.st8{font-family:'MyriadPro-Regular';}
	.st9{font-size:250px;}
	.st10{display:inline;fill:#FFFFFF;}
	.st11{fill:#C4C6C8;}
	.st12{fill:url(#SVGID_1_);}
	.st13{fill:url(#SVGID_2_);stroke:#E8E8E8;stroke-width:3;stroke-miterlimit:10;}
	.st14{fill:#199B94;}
	.st15{fill:#102D35;}
	.st16{fill:#3EC1B1;}
	.st17{fill:#E57F23;}
	.st18{fill:#FF9C39;}
	.st19{fill:#194951;}
	.st20{fill:#56DBC8;}
	.st21{fill:#E2F2EF;}
	.st22{fill:#9AB2AC;}
</style>
<g id="Layer_3" class="st0">
	<path class="st1" d="M401.1,212.2c5.1,15.3,7.9,31.7,7.9,48.8c0,85.3-69.2,154.5-154.5,154.5S100,346.3,100,261
		s69.2-154.5,154.5-154.5c51.2,0,96.6,24.9,124.7,63.3"/>
	<path class="st2" d="M333.4,255.2c0,4.2-3.3,7.7-7.4,7.7H174.9c-4.1,0-7.4-3.4-7.4-7.7l0,0c0-4.2,3.3-7.7,7.4-7.7H326
		C330.1,247.5,333.4,250.9,333.4,255.2L333.4,255.2z"/>
	<path class="st2" d="M333.4,284.8c0,4.2-3.3,7.6-7.4,7.6H174.9c-4.1,0-7.4-3.4-7.4-7.6l0,0c0-4.2,3.3-7.6,7.4-7.6H326
		C330.1,277.1,333.4,280.6,333.4,284.8L333.4,284.8z"/>
	<path class="st2" d="M333.4,313c0,4.2-3.3,7.7-7.4,7.7H174.9c-4.1,0-7.4-3.4-7.4-7.7l0,0c0-4.2,3.3-7.6,7.4-7.6H326
		C330.1,305.4,333.4,308.8,333.4,313L333.4,313z"/>
	<path class="st2" d="M333.4,338.4c0,4.2-3.3,7.7-7.4,7.7H174.9c-4.1,0-7.4-3.4-7.4-7.7l0,0c0-4.2,3.3-7.6,7.4-7.6H326
		C330.1,330.7,333.4,334.1,333.4,338.4L333.4,338.4z"/>
	<polygon class="st3" points="395,191.5 320.2,165.2 380.4,113.5 	"/>
	<g class="st4">
		<g>
			<g>
				<path class="st5" d="M241.5,239.2c-2.3,0-4.4-1.1-5.8-2.9l-18.8-24.8c-2.4-3.2-1.8-7.8,1.4-10.3c3.2-2.4,7.8-1.8,10.3,1.4
					l12.3,16.3l31-49.8c2.1-3.4,6.6-4.5,10.1-2.3c3.4,2.1,4.5,6.6,2.3,10.1l-36.7,58.9c-1.3,2-3.5,3.3-5.9,3.4
					C241.7,239.2,241.6,239.2,241.5,239.2z"/>
			</g>
		</g>
	</g>
</g>
<g id="Layer_2_2_" class="st0">
	<rect x="121" y="171.5" class="st6" width="298" height="251"/>
	<text transform="matrix(1 0 0 1 121 348.9979)" class="st7 st8 st9">24</text>
	<circle class="st10" cx="138.3" cy="91.8" r="17.3"/>
	<circle class="st10" cx="185.3" cy="91.8" r="17.3"/>
	<circle class="st10" cx="232.3" cy="91.8" r="17.3"/>
	<circle class="st10" cx="278.3" cy="91.8" r="17.3"/>
	<circle class="st10" cx="323.3" cy="91.8" r="17.3"/>
	<circle class="st10" cx="368.3" cy="91.8" r="17.3"/>
</g>
<g>
	<path class="st11" d="M350.3,54.5H161.7c-17.9,0-34.5,9.6-43.4,25.1L24,242.9c-9,15.5-9,34.6,0,50.2l94.3,163.3
		c9,15.5,25.5,25.1,43.4,25.1h188.5c17.9,0,34.5-9.6,43.4-25.1L488,293.1c9-15.5,9-34.6,0-50.2L393.7,79.6
		C384.8,64.1,368.2,54.5,350.3,54.5z"/>
</g>
<g>
	
		<linearGradient id="SVGID_1_" gradientUnits="userSpaceOnUse" x1="18.15" y1="5409.9502" x2="495.6125" y2="5409.9502" gradientTransform="matrix(1 0 0 1 0 -5156.0005)">
		<stop  offset="0" style="stop-color:#4A6876"/>
		<stop  offset="0.5393" style="stop-color:#0A3542"/>
		<stop  offset="1" style="stop-color:#000315"/>
	</linearGradient>
	<path class="st12" d="M491.1,274.8c-0.7,1.4-1.4,2.9-2.2,4.3l-94.3,163.3c-0.5,1-1.1,1.9-1.7,2.8c-8.3,12.4-21.7,20.5-36.5,22
		c-1.7,0.2-3.4,0.3-5.2,0.3H162.6c-17.9,0-34.5-9.6-43.5-25.1l-15.3-26.6l-70.4-122L24.9,279c-9-15.5-9-34.6,0-50.2l6.5-11.3
		l22.3-38.6l65.5-113.4c9-15.5,25.5-25.1,43.5-25.1h188.5c17.9,0,34.5,9.6,43.5,25.1l20.7,35.9l6.3,10.9l25.3,43.8l2.4,4.2l5.5,9.6
		l7,12l27.1,47c1.2,2,2.2,4.1,3,6.2C497.1,247.9,496.8,262.3,491.1,274.8z"/>
	
		<linearGradient id="SVGID_2_" gradientUnits="userSpaceOnUse" x1="18.15" y1="259.3414" x2="495.6125" y2="259.3414" gradientTransform="matrix(1 0 0 -1 0 513.2912)">
		<stop  offset="0" style="stop-color:#4A6876"/>
		<stop  offset="0.5393" style="stop-color:#0A3542"/>
		<stop  offset="1" style="stop-color:#000315"/>
	</linearGradient>
	<path class="st13" d="M491.1,274.8c-0.7,1.4-1.4,2.9-2.2,4.3l-94.3,163.3c-0.5,1-1.1,1.9-1.7,2.8c-8.3,12.4-21.7,20.5-36.5,22
		c-1.7,0.2-3.4,0.3-5.2,0.3H162.6c-17.9,0-34.5-9.6-43.5-25.1l-15.3-26.6l-70.4-122L24.9,279c-9-15.5-9-34.6,0-50.2l6.5-11.3
		l22.3-38.6l65.5-113.4c9-15.5,25.5-25.1,43.5-25.1h188.5c17.9,0,34.5,9.6,43.5,25.1l20.7,35.9l6.3,10.9l25.3,43.8l2.4,4.2l5.5,9.6
		l7,12l27.1,47c1.2,2,2.2,4.1,3,6.2C497.1,247.9,496.8,262.3,491.1,274.8z"/>
</g>
<path class="st14" d="M153.3,224.7c0,0,0.8-69.8,12-93.3l31.1,86.9l-16.4,7.6L153.3,224.7z"/>
<path class="st15" d="M169.2,240.7c0,0-14.4-83.3-3.2-115.2c0,0,20.7,27.9,22.3,40.3l11.2-10.4l0.8,12.4l7.6-9.6l0.8,6l8-3.2l1.6,4
	l15.6-0.8l-4,38.3l-36.3,33.9L169.2,240.7z"/>
<path class="st14" d="M347.9,224.7c0,0-0.8-69.8-12-93.3l-31.1,86.9l16.4,7.6L347.9,224.7z"/>
<g>
	<path class="st15" d="M331.9,240.7c0,0,14.4-83.3,3.2-115.2c0,0-20.7,27.9-22.3,40.3l-11.2-10.4l-0.8,12.4l-7.6-9.6l-0.8,6l-8-3.2
		l-1.6,4l-15.6-0.8l4,38.3l36.3,33.9L331.9,240.7z"/>
	<polygon class="st15" points="171.6,264.2 153.3,235.9 150.1,259.4 134.2,258.6 146.5,271.8 128.2,281.8 174.4,314.1 160.9,333.2 
		178.8,324 178.8,335.6 187.6,329.2 187.6,335.2 193.2,332.4 200,342 180.8,280.2 	"/>
	<polygon class="st15" points="166.9,221.9 154.9,190 146.9,212.8 131.4,208.4 140.5,223.9 120.6,229.5 158.9,271 141.3,286.9 
		160.5,281.8 157.7,292.9 168,288.5 166.9,294.5 173.2,293.3 177.6,304.1 172.4,239.1 	"/>
	<polygon class="st15" points="329.6,264.2 347.9,235.9 351.1,259.4 367,258.6 354.7,271.8 373,281.8 326.8,314.1 340.3,333.2 
		322.4,324 322.4,335.6 313.6,329.2 313.6,335.2 308,332.4 301.2,342 320.4,280.2 	"/>
	<polygon class="st15" points="334.3,221.9 346.3,190 354.3,212.8 369.8,208.4 360.7,223.9 380.6,229.5 342.3,271 359.9,286.9 
		340.7,281.8 343.5,292.9 333.1,288.5 334.3,294.5 328,293.3 323.6,304.1 328.8,239.1 	"/>
	<path class="st15" d="M341.1,238.7c0-43.1-40.7-78.2-90.5-78.2s-90.5,35.1-90.5,78.6c0,20.7,9.2,44.7,23.9,64.2
		c8.4,38.3,35.1,78.6,66.6,78.6s58.2-40.3,66.2-79C331.9,283.4,341.1,259.4,341.1,238.7z"/>
</g>
<path class="st16" d="M274.5,337.6c0,9.2-10.8,16.4-23.9,16.4s-23.9-7.2-23.9-16.4s10.8-8.4,23.9-8.4
	C263.8,329.2,274.5,328.4,274.5,337.6z"/>
<path class="st14" d="M274.5,337.6c0,9.2-10.8,16.4-23.9,16.4s-23.9-7.2-23.9-16.4"/>
<path class="st17" d="M186,245.1L186,245.1c-4.8,13.6,2,28.7,16,33.5c13.6,4.8,28.7-2,33.5-16l0,0L186,245.1z"/>
<path class="st18" d="M186,245.1L186,245.1c-4.8,13.6,5.6,20.7,19.1,25.5c13.6,4.8,25.5,6,30.3-7.6l0,0L186,245.1z"/>
<circle class="st15" cx="208.3" cy="263.8" r="4.8"/>
<path class="st17" d="M315.2,245.1L315.2,245.1c4.8,13.6-2,28.7-16,33.5c-13.6,4.8-28.7-2-33.5-16l0,0L315.2,245.1z"/>
<path class="st18" d="M315.2,245.1L315.2,245.1c4.8,13.6-5.6,20.7-19.1,25.5c-13.6,4.8-25.5,6-30.3-7.6l0,0L315.2,245.1z"/>
<circle class="st15" cx="292.9" cy="263.8" r="4.8"/>
<g>
	<ellipse class="st19" cx="250.6" cy="178.5" rx="30.3" ry="12"/>
	<ellipse class="st19" cx="250.6" cy="312.1" rx="26.7" ry="7.6"/>
</g>
<ellipse class="st20" cx="250.6" cy="331.6" rx="17.1" ry="2.8"/>
<g>
	<path class="st19" d="M241.8,250.7c-3.2,5.2-18.7,2.4-35.1-7.2c-16.4-9.2-27.1-21.1-24.3-26.3c3.2-5.2,15.6,3.2,31.9,12.8
		C231.1,239.1,245,245.1,241.8,250.7z"/>
	<path class="st19" d="M259.4,250.7c3.2,5.2,18.7,2.4,35.1-7.2c16.4-9.2,27.1-21.1,24.3-26.3c-3.2-5.2-15.6,3.2-31.9,12.8
		C270.1,239.1,256.2,245.1,259.4,250.7z"/>
</g>
<polygon class="st21" points="212.3,361.5 222.7,381.9 233,361.5 "/>
<polygon class="st22" points="220.7,361.5 222.7,381.9 233,361.5 "/>
<polygon class="st21" points="268.1,361.5 278.5,381.9 288.9,361.5 "/>
<polygon class="st22" points="276.5,361.5 278.5,381.9 288.9,361.5 "/>
</svg>
