<?xml version="1.0" encoding="utf-8"?>
<!-- Generator: Adobe Illustrator 24.0.1, SVG Export Plug-In . SVG Version: 6.00 Build 0)  -->
<svg version="1.1" id="Layer_1" xmlns="http://www.w3.org/2000/svg" xmlns:xlink="http://www.w3.org/1999/xlink" x="0px" y="0px"
	 viewBox="0 0 512 512" style="enable-background:new 0 0 512 512;" xml:space="preserve">
<style type="text/css">
	.st0{display:none;}
	.st1{display:inline;fill:#200A7F;stroke:#18E5EA;stroke-width:20;stroke-miterlimit:10;}
	.st2{display:inline;fill:#EF0B79;}
	.st3{display:inline;fill:#18E5EA;}
	.st4{display:inline;}
	.st5{fill:#E9F21C;}
	.st6{display:inline;fill:none;}
	.st7{display:inline;fill:#EF3A24;}
	.st8{font-family:'MyriadPro-Regular';}
	.st9{font-size:250px;}
	.st10{display:inline;fill:#FFFFFF;}
	.st11{fill:#C4C6C8;}
	.st12{fill:url(#SVGID_1_);}
	.st13{fill:url(#SVGID_2_);stroke:#E8E8E8;stroke-width:3;stroke-miterlimit:10;}
	.st14{fill:#FFFFFF;stroke:url(#SVGID_3_);stroke-width:2;stroke-miterlimit:10;}
	.st15{fill:#FFFFFF;stroke:url(#SVGID_4_);stroke-width:2;stroke-miterlimit:10;}
	.st16{fill:#FFFFFF;stroke:url(#SVGID_5_);stroke-width:2;stroke-miterlimit:10;}
</style>
<g id="Layer_3" class="st0">
	<path class="st1" d="M401.1,212.2c5.1,15.3,7.9,31.7,7.9,48.8c0,85.3-69.2,154.5-154.5,154.5S100,346.3,100,261
		s69.2-154.5,154.5-154.5c51.2,0,96.6,24.9,124.7,63.3"/>
	<path class="st2" d="M333.4,255.2c0,4.2-3.3,7.7-7.4,7.7H174.9c-4.1,0-7.4-3.4-7.4-7.7l0,0c0-4.2,3.3-7.7,7.4-7.7H326
		C330.1,247.5,333.4,250.9,333.4,255.2L333.4,255.2z"/>
	<path class="st2" d="M333.4,284.8c0,4.2-3.3,7.6-7.4,7.6H174.9c-4.1,0-7.4-3.4-7.4-7.6l0,0c0-4.2,3.3-7.6,7.4-7.6H326
		C330.1,277.1,333.4,280.6,333.4,284.8L333.4,284.8z"/>
	<path class="st2" d="M333.4,313c0,4.2-3.3,7.7-7.4,7.7H174.9c-4.1,0-7.4-3.4-7.4-7.7l0,0c0-4.2,3.3-7.6,7.4-7.6H326
		C330.1,305.4,333.4,308.8,333.4,313L333.4,313z"/>
	<path class="st2" d="M333.4,338.4c0,4.2-3.3,7.7-7.4,7.7H174.9c-4.1,0-7.4-3.4-7.4-7.7l0,0c0-4.2,3.3-7.6,7.4-7.6H326
		C330.1,330.7,333.4,334.1,333.4,338.4L333.4,338.4z"/>
	<polygon class="st3" points="395,191.5 320.2,165.2 380.4,113.5 	"/>
	<g class="st4">
		<g>
			<g>
				<path class="st5" d="M241.5,239.2c-2.3,0-4.4-1.1-5.8-2.9l-18.8-24.8c-2.4-3.2-1.8-7.8,1.4-10.3c3.2-2.4,7.8-1.8,10.3,1.4
					l12.3,16.3l31-49.8c2.1-3.4,6.6-4.5,10.1-2.3c3.4,2.1,4.5,6.6,2.3,10.1l-36.7,58.9c-1.3,2-3.5,3.3-5.9,3.4
					C241.7,239.2,241.6,239.2,241.5,239.2z"/>
			</g>
		</g>
	</g>
</g>
<g id="Layer_2_2_" class="st0">
	<rect x="121" y="171.5" class="st6" width="298" height="251"/>
	<text transform="matrix(1 0 0 1 121 348.9979)" class="st7 st8 st9">24</text>
	<circle class="st10" cx="138.3" cy="91.8" r="17.3"/>
	<circle class="st10" cx="185.3" cy="91.8" r="17.3"/>
	<circle class="st10" cx="232.3" cy="91.8" r="17.3"/>
	<circle class="st10" cx="278.3" cy="91.8" r="17.3"/>
	<circle class="st10" cx="323.3" cy="91.8" r="17.3"/>
	<circle class="st10" cx="368.3" cy="91.8" r="17.3"/>
</g>
<g>
	<path class="st11" d="M350.3,54.5H161.7c-17.9,0-34.5,9.6-43.4,25.1L24,242.9c-9,15.5-9,34.6,0,50.2l94.3,163.3
		c9,15.5,25.5,25.1,43.4,25.1h188.5c17.9,0,34.5-9.6,43.4-25.1L488,293.1c9-15.5,9-34.6,0-50.2L393.7,79.6
		C384.8,64.1,368.2,54.5,350.3,54.5z"/>
</g>
<g>
	
		<radialGradient id="SVGID_1_" cx="256.8813" cy="5409.9502" r="226.4908" gradientTransform="matrix(1 0 0 1 0 -5156.0005)" gradientUnits="userSpaceOnUse">
		<stop  offset="0" style="stop-color:#FFE7A3"/>
		<stop  offset="0.5" style="stop-color:#FFCA05"/>
		<stop  offset="1" style="stop-color:#FAAC18"/>
	</radialGradient>
	<path class="st12" d="M491.1,274.8c-0.7,1.4-1.4,2.9-2.2,4.3l-94.3,163.3c-0.5,1-1.1,1.9-1.7,2.8c-8.3,12.4-21.7,20.5-36.5,22
		c-1.7,0.2-3.4,0.3-5.2,0.3H162.6c-17.9,0-34.5-9.6-43.5-25.1l-15.3-26.6l-70.4-122L24.9,279c-9-15.5-9-34.6,0-50.2l6.5-11.3
		l22.3-38.6l65.5-113.4c9-15.5,25.5-25.1,43.5-25.1h188.5c17.9,0,34.5,9.6,43.5,25.1l20.7,35.9l6.3,10.9l25.3,43.8l2.4,4.2l5.5,9.6
		l7,12l27.1,47c1.2,2,2.2,4.1,3,6.2C497.1,247.9,496.8,262.3,491.1,274.8z"/>
	
		<radialGradient id="SVGID_2_" cx="256.8813" cy="259.3414" r="226.4908" gradientTransform="matrix(1 0 0 -1 0 513.2912)" gradientUnits="userSpaceOnUse">
		<stop  offset="0" style="stop-color:#FFE7A3"/>
		<stop  offset="0.5" style="stop-color:#FFCA05"/>
		<stop  offset="1" style="stop-color:#FAAC18"/>
	</radialGradient>
	<path class="st13" d="M491.1,274.8c-0.7,1.4-1.4,2.9-2.2,4.3l-94.3,163.3c-0.5,1-1.1,1.9-1.7,2.8c-8.3,12.4-21.7,20.5-36.5,22
		c-1.7,0.2-3.4,0.3-5.2,0.3H162.6c-17.9,0-34.5-9.6-43.5-25.1l-15.3-26.6l-70.4-122L24.9,279c-9-15.5-9-34.6,0-50.2l6.5-11.3
		l22.3-38.6l65.5-113.4c9-15.5,25.5-25.1,43.5-25.1h188.5c17.9,0,34.5,9.6,43.5,25.1l20.7,35.9l6.3,10.9l25.3,43.8l2.4,4.2l5.5,9.6
		l7,12l27.1,47c1.2,2,2.2,4.1,3,6.2C497.1,247.9,496.8,262.3,491.1,274.8z"/>
</g>
<linearGradient id="SVGID_3_" gradientUnits="userSpaceOnUse" x1="183.441" y1="238.6218" x2="325.0407" y2="238.6218">
	<stop  offset="0" style="stop-color:#4A6876"/>
	<stop  offset="0.5393" style="stop-color:#0A3542"/>
	<stop  offset="1" style="stop-color:#000315"/>
</linearGradient>
<path class="st14" d="M266.9,218.9c-6.1-0.5-19.4-0.6-39.9,3.6c-29.2,6.1-42.6,33-42.6,54.1c0,21.1,20.2,45.5,50.5,45.5
	c23.2,0,36.2-13.9,41.1-20.5c1.1-1.5,3.3-1.4,4.3,0.1c1.2,1.9,2.9,4.4,5.1,7.1c2.4,2.9,5.5,5.9,8.1,8.1c2.5,2.1,6.2,2,8.5-0.2
	l20.1-19.1c2.3-2.2,2.6-5.8,0.7-8.4c-1.1-1.5-2.5-3.4-4.2-5.9c-5.4-7.6-5.2-13.7-5.2-13.7v-70.9c0-8.5-5.2-43.5-59.4-43.5
	c-44.3,0-57.8,31.6-61.3,43.1c-0.7,2.2,0.8,4.5,3.1,4.9l27.5,4.7c1.7,0.3,3.3-0.6,4.1-2.1c3-6.1,11.8-21,25.5-21
	c17.3,0,18,14.1,18,14.1v16.3C270.8,217.4,269,219,266.9,218.9z M271.3,245.1v20.7c0,10.8-7.4,20.3-18,22.6c-2.7,0.6-5.8,1-9.4,1
	c-22.9,0-18.6-29.4-8.1-38.1c8-6.6,24.2-8.9,31.6-9.6C269.5,241.4,271.3,243,271.3,245.1z"/>
<linearGradient id="SVGID_4_" gradientUnits="userSpaceOnUse" x1="324.0741" y1="339.1473" x2="375.7046" y2="339.1473">
	<stop  offset="0" style="stop-color:#4A6876"/>
	<stop  offset="0.5393" style="stop-color:#0A3542"/>
	<stop  offset="1" style="stop-color:#000315"/>
</linearGradient>
<path class="st15" d="M335.5,331.1c11.1-1.3,16-2.7,19.3,0.2c3.4,3,2.2,9,0,15.9c-2.2,6.9-7.6,12.6-2.4,15.5
	c6.1,3.3,29.6-27.1,19.9-42.2c-8.1-12.6-42.2,1.5-44.8,3.2c-2.5,1.7-2.5,3.7-2.5,3.7S324.4,332.4,335.5,331.1z"/>
<linearGradient id="SVGID_5_" gradientUnits="userSpaceOnUse" x1="147.036" y1="351.5226" x2="347.6601" y2="351.5226">
	<stop  offset="0" style="stop-color:#4A6876"/>
	<stop  offset="0.5393" style="stop-color:#0A3542"/>
	<stop  offset="1" style="stop-color:#000315"/>
</linearGradient>
<path class="st16" d="M251.3,380.8c41,0,58.3-8.5,76-18.4c17.7-9.9,21.1-17.3,18.6-21.9c-2.5-4.6-12.6,0.1-21.5,4
	c-9,3.8-36.6,14.4-76.3,14.4s-79.6-28-88.2-34c-8.5-5.9-11.6,0-11.6,0s-2.6,4.9,5.3,14.6C161.6,349.1,201.4,380.8,251.3,380.8z"/>
</svg>
