<?xml version="1.0" encoding="utf-8"?>
<!-- Generator: Adobe Illustrator 24.0.1, SVG Export Plug-In . SVG Version: 6.00 Build 0)  -->
<svg version="1.1" id="Layer_1" xmlns="http://www.w3.org/2000/svg" xmlns:xlink="http://www.w3.org/1999/xlink" x="0px" y="0px"
	 viewBox="0 0 512 512" style="enable-background:new 0 0 512 512;" xml:space="preserve">
<style type="text/css">
	.st0{display:none;}
	.st1{display:inline;fill:#200A7F;stroke:#18E5EA;stroke-width:20;stroke-miterlimit:10;}
	.st2{display:inline;fill:#EF0B79;}
	.st3{display:inline;fill:#18E5EA;}
	.st4{display:inline;}
	.st5{fill:#E9F21C;}
	.st6{display:inline;fill:none;}
	.st7{display:inline;fill:#EF3A24;}
	.st8{font-family:'MyriadPro-Regular';}
	.st9{font-size:250px;}
	.st10{display:inline;fill:#FFFFFF;}
	.st11{fill:#C4C6C8;}
	.st12{fill:url(#SVGID_1_);}
	.st13{fill:url(#SVGID_2_);stroke:#E8E8E8;stroke-width:3;stroke-miterlimit:10;}
	.st14{fill:#FF826E;}
	.st15{fill:#FC6E51;}
	.st16{fill:#656D78;}
	.st17{fill:#969FAA;}
	.st18{fill:#AAB2BD;}
	.st19{fill:#F0D0B4;}
	.st20{fill:#69D6F4;}
</style>
<g id="Layer_3" class="st0">
	<path class="st1" d="M401.1,212.2c5.1,15.3,7.9,31.7,7.9,48.8c0,85.3-69.2,154.5-154.5,154.5S100,346.3,100,261
		s69.2-154.5,154.5-154.5c51.2,0,96.6,24.9,124.7,63.3"/>
	<path class="st2" d="M333.4,255.2c0,4.2-3.3,7.7-7.4,7.7H174.9c-4.1,0-7.4-3.4-7.4-7.7l0,0c0-4.2,3.3-7.7,7.4-7.7H326
		C330.1,247.5,333.4,250.9,333.4,255.2L333.4,255.2z"/>
	<path class="st2" d="M333.4,284.8c0,4.2-3.3,7.6-7.4,7.6H174.9c-4.1,0-7.4-3.4-7.4-7.6l0,0c0-4.2,3.3-7.6,7.4-7.6H326
		C330.1,277.1,333.4,280.6,333.4,284.8L333.4,284.8z"/>
	<path class="st2" d="M333.4,313c0,4.2-3.3,7.7-7.4,7.7H174.9c-4.1,0-7.4-3.4-7.4-7.7l0,0c0-4.2,3.3-7.6,7.4-7.6H326
		C330.1,305.4,333.4,308.8,333.4,313L333.4,313z"/>
	<path class="st2" d="M333.4,338.4c0,4.2-3.3,7.7-7.4,7.7H174.9c-4.1,0-7.4-3.4-7.4-7.7l0,0c0-4.2,3.3-7.6,7.4-7.6H326
		C330.1,330.7,333.4,334.1,333.4,338.4L333.4,338.4z"/>
	<polygon class="st3" points="395,191.5 320.2,165.2 380.4,113.5 	"/>
	<g class="st4">
		<g>
			<g>
				<path class="st5" d="M241.5,239.2c-2.3,0-4.4-1.1-5.8-2.9l-18.8-24.8c-2.4-3.2-1.8-7.8,1.4-10.3c3.2-2.4,7.8-1.8,10.3,1.4
					l12.3,16.3l31-49.8c2.1-3.4,6.6-4.5,10.1-2.3c3.4,2.1,4.5,6.6,2.3,10.1l-36.7,58.9c-1.3,2-3.5,3.3-5.9,3.4
					C241.7,239.2,241.6,239.2,241.5,239.2z"/>
			</g>
		</g>
	</g>
</g>
<g id="Layer_2_2_" class="st0">
	<rect x="121" y="171.5" class="st6" width="298" height="251"/>
	<text transform="matrix(1 0 0 1 121 348.9979)" class="st7 st8 st9">24</text>
	<circle class="st10" cx="138.3" cy="91.8" r="17.3"/>
	<circle class="st10" cx="185.3" cy="91.8" r="17.3"/>
	<circle class="st10" cx="232.3" cy="91.8" r="17.3"/>
	<circle class="st10" cx="278.3" cy="91.8" r="17.3"/>
	<circle class="st10" cx="323.3" cy="91.8" r="17.3"/>
	<circle class="st10" cx="368.3" cy="91.8" r="17.3"/>
</g>
<g>
	<path class="st11" d="M350.3,54.5H161.7c-17.9,0-34.5,9.6-43.4,25.1L24,242.9c-9,15.5-9,34.6,0,50.2l94.3,163.3
		c9,15.5,25.5,25.1,43.4,25.1h188.5c17.9,0,34.5-9.6,43.4-25.1L488,293.1c9-15.5,9-34.6,0-50.2L393.7,79.6
		C384.8,64.1,368.2,54.5,350.3,54.5z"/>
</g>
<g>
	<radialGradient id="SVGID_1_" cx="256.8813" cy="253.95" r="226.4908" gradientUnits="userSpaceOnUse">
		<stop  offset="0" style="stop-color:#FFF7A9"/>
		<stop  offset="0.5" style="stop-color:#FFF100"/>
		<stop  offset="1" style="stop-color:#FFD700"/>
	</radialGradient>
	<path class="st12" d="M491.1,274.8c-0.7,1.4-1.4,2.9-2.2,4.3l-94.3,163.3c-0.5,1-1.1,1.9-1.7,2.8c-8.3,12.4-21.7,20.5-36.5,22
		c-1.7,0.2-3.4,0.3-5.2,0.3H162.6c-17.9,0-34.5-9.6-43.5-25.1l-15.3-26.6l-70.4-122L24.9,279c-9-15.5-9-34.6,0-50.2l6.5-11.3
		l22.3-38.6l65.5-113.4c9-15.5,25.5-25.1,43.5-25.1h188.5c17.9,0,34.5,9.6,43.5,25.1l20.7,35.9l6.3,10.9l25.3,43.8l2.4,4.2l5.5,9.6
		l7,12l27.1,47c1.2,2,2.2,4.1,3,6.2C497.1,247.9,496.8,262.3,491.1,274.8z"/>
	<radialGradient id="SVGID_2_" cx="256.8813" cy="253.95" r="226.4908" gradientUnits="userSpaceOnUse">
		<stop  offset="0" style="stop-color:#FFF7A9"/>
		<stop  offset="0.5" style="stop-color:#FFF100"/>
		<stop  offset="1" style="stop-color:#FFD700"/>
	</radialGradient>
	<path class="st13" d="M491.1,274.8c-0.7,1.4-1.4,2.9-2.2,4.3l-94.3,163.3c-0.5,1-1.1,1.9-1.7,2.8c-8.3,12.4-21.7,20.5-36.5,22
		c-1.7,0.2-3.4,0.3-5.2,0.3H162.6c-17.9,0-34.5-9.6-43.5-25.1l-15.3-26.6l-70.4-122L24.9,279c-9-15.5-9-34.6,0-50.2l6.5-11.3
		l22.3-38.6l65.5-113.4c9-15.5,25.5-25.1,43.5-25.1h188.5c17.9,0,34.5,9.6,43.5,25.1l20.7,35.9l6.3,10.9l25.3,43.8l2.4,4.2l5.5,9.6
		l7,12l27.1,47c1.2,2,2.2,4.1,3,6.2C497.1,247.9,496.8,262.3,491.1,274.8z"/>
</g>
<g>
	<g>
		<g>
			<path class="st14" d="M391.8,358.9c-12.7-36-38.9-65.5-72.6-82.5l8.7-7.8c19.8-17.6,31.1-42.8,31.1-69.3
				c0-17.5-4.9-34.3-13.9-48.7c-8.9-14.4-21.7-26.4-37.4-34.2l-52.4-26.2L203,116.5c-31.4,15.7-51.3,47.8-51.3,82.9
				c0,13.2,2.8,26.2,8.2,38c5.3,11.8,13.1,22.5,23,31.3l8.9,7.9l0,0c-31,15.8-55.5,42.3-68.9,74.8L114,373h282.7L391.8,358.9z"/>
		</g>
		<g>
			<path class="st15" d="M302.5,175.1h30c4.9,9.5,7.7,20.3,7.7,31.8c0,21.8-9.2,42.5-25.3,57.2l-7.7,7l-17.6,16l0,0
				c-4.6-3.8-9.5-6.9-14.8-9.5l5.6-14.1c18.8-9.2,31.6-28.5,31.6-50.7v-28.3C311.9,179.3,307.7,175.1,302.5,175.1z"/>
		</g>
		<g>
			<path class="st15" d="M229,262.8l2.1,8.2c-0.4,0.3-0.8,0.7-1.2,1c-1.7,1.7-2.8,4.1-2.8,6.6h-9.4c-2.6,0-4.9,1-6.6,2.8l-9.5-9.5
				l-6.8-6.8c-7.7-7.7-13.8-16.8-17.9-26.8c-4.1-9.9-6.3-20.7-6.3-31.6c0-21.9,10.1-41.4,25.9-54c6.5,13.5,20.1,22.3,35.4,22.3
				h-23.6c-5.2,0-9.4,4.2-9.4,9.4v28.3C198.8,234.5,211.1,253.3,229,262.8L229,262.8z"/>
		</g>
		<g>
			<path class="st16" d="M264.8,175.1H246h-14.1c-15.3,0-28.9-8.8-35.4-22.3v0c11.9-9.6,27.1-15.4,43.6-15.4h30.7
				c19.2,0,36.6,7.8,49.1,20.4c5.1,5,9.4,10.9,12.7,17.3h-30h-28.3H264.8z"/>
		</g>
		<g>
			<path class="st17" d="M272.8,340.4L272.8,340.4l-3.3,32.6h-28.3l-4.7-47.1h14.1C257,332.2,264.5,337.2,272.8,340.4z"/>
		</g>
		<g>
			<path class="st18" d="M236.5,269.3c-2,0-3.9,0.7-5.5,1.7l-2.1-8.2l-0.7-2.9c-0.8-3.2-1.2-6.4-1.2-9.7c0-5.2,2.1-9.8,5.5-13.2
				c3.4-3.4,8-5.5,13.2-5.5h18.1c10.9,0,19.7,8.9,19.7,19.7c0,2.5-0.5,5-1.4,7.4l-1.9,4.8l-5.6,14.1c-10.9-5.4-23-8.3-35.5-8.3
				L236.5,269.3z"/>
		</g>
		<g>
			<path class="st19" d="M227.1,278.7c0,5.2,4.2,9.4,9.4,9.4c-2.6,0-4.9,1-6.6,2.8c-1.7,1.7-2.8,4.1-2.8,6.6h-9.4
				c-2.6,0-4.9-1-6.6-2.8c-1.7-1.7-2.8-4.1-2.8-6.6c0-2.6,1-4.9,2.8-6.6c1.7-1.7,4.1-2.8,6.6-2.8H227.1z"/>
		</g>
		<g>
			<path class="st19" d="M236.5,288.2c-5.2,0-9.4-4.2-9.4-9.4c0-2.6,1-4.9,2.8-6.6c0.4-0.4,0.8-0.7,1.2-1c1.6-1.1,3.4-1.7,5.5-1.7
				h2.7c12.5,0,24.6,2.9,35.5,8.3c5.3,2.6,10.2,5.7,14.8,9.5c6.9,5.5,12.9,12.2,17.7,19.9l-18.8,37.7l-4-0.8c-4-0.8-7.9-2-11.6-3.5
				c-8.2-3.3-15.7-8.2-22.1-14.6h-14.1c-5.2,0-9.4-4.2-9.4-9.4c0-2.6,1-4.9,2.8-6.6c1.7-1.7,4.1-2.8,6.6-2.8c-5.2,0-9.4-4.2-9.4-9.4
				c0-2.6,1-4.9,2.8-6.6C231.6,289.2,233.9,288.2,236.5,288.2L236.5,288.2z"/>
		</g>
		<g>
			<path class="st19" d="M227.1,250.3c0,3.3,0.4,6.5,1.2,9.7l0.7,2.9c-17.9-9.5-30.2-28.3-30.2-50h37.7c5.2,0,9.4-4.2,9.4-9.4v-28.3
				h18.8v28.3c0,5.2,4.2,9.4,9.4,9.4h37.7c0,22.3-12.9,41.6-31.6,50.7l1.9-4.8c0.9-2.4,1.4-4.8,1.4-7.4c0-10.9-8.9-19.7-19.7-19.7
				h-18.1c-5.2,0-9.8,2.1-13.2,5.5C229.2,240.5,227.1,245.1,227.1,250.3L227.1,250.3z"/>
		</g>
		<g>
			<path class="st20" d="M274.2,175.1h28.3c5.2,0,9.4,4.2,9.4,9.4v28.3h-37.7c-5.2,0-9.4-4.2-9.4-9.4v-28.3H274.2z"/>
		</g>
		<g>
			<path class="st20" d="M246,175.1v28.3c0,5.2-4.2,9.4-9.4,9.4h-37.7v-28.3c0-5.2,4.2-9.4,9.4-9.4h23.6H246z"/>
		</g>
	</g>
	<path d="M396.2,357.4c-12.3-35-37-63.9-68.9-81.8l3.7-3.3c20.8-18.5,32.7-45,32.7-72.8c0-37.1-20.6-70.5-53.9-87.1L255.4,85
		l-54.5,27.3c-33.2,16.6-53.9,50-53.9,87.2c0,27.8,11.9,54.3,32.7,72.8l3.9,3.4c-29.3,16.7-52,42.4-65.1,74l-11.5,28h296.4
		L396.2,357.4z M186,265.2c-18.8-16.7-29.5-40.7-29.5-65.8c0-33.5,18.6-63.7,48.7-78.7l50.3-25.1l50.3,25.1
		c30,15,48.7,45.2,48.7,78.7c0,25.1-10.8,49.1-29.5,65.8l-6.4,5.7c-0.9-0.4-1.7-0.8-2.6-1.2l2.3-2.1c17.1-15.5,26.9-37.6,26.9-60.7
		c0-40.9-33.3-74.2-74.2-74.2H240c-40.9,0-74.2,33.3-74.2,74.2c0,23.3,9.1,45.2,25.6,61.7l1.9,1.9c-0.3,0.1-0.6,0.3-0.9,0.4
		L186,265.2z M267.1,349.4h-23.5l-1.9-18.8h7c5.6,5.3,12,9.6,19,12.8L267.1,349.4z M244.6,358.8h21.6l-0.9,9.4h-19.7L244.6,358.8z
		 M276.9,346.8c2.2,0.7,4.4,1.2,6.6,1.7l2,0.4l12.9,19.3h-23.7L276.9,346.8z M285.8,339.4l-0.4-0.1c-11.9-2.4-22.7-8.2-31.3-16.8
		l-1.4-1.4h-16.1c-2.6,0-4.7-2.1-4.7-4.7s2.1-4.7,4.7-4.7h9.4h4.7v-9.4H246h-9.4c-2.6,0-4.7-2.1-4.7-4.7s2.1-4.7,4.7-4.7h9.4h4.7
		v-9.4H246h-9.4c-2.6,0-4.7-2.1-4.7-4.7s2.1-4.7,4.7-4.7h2.7c25.3,0,48.5,12.4,62.6,33.3L285.8,339.4z M217.7,292.9
		c-2.6,0-4.7-2.1-4.7-4.7s2.1-4.7,4.7-4.7h5.6c0.6,1.8,1.6,3.4,2.8,4.7c-1.2,1.4-2.2,2.9-2.8,4.7H217.7z M198.1,261.9
		c-14.7-14.7-22.8-34.3-22.8-55.1c0-18.3,7.7-34.9,20-46.7c2.7,4.1,6.2,7.6,10,10.5c-6.4,1.4-11.1,7-11.1,13.8v28.3
		c0,22.1,11.8,42.2,30.8,53.1l0.9,3.7c-1.1,1.3-2,2.8-2.6,4.4h-5.6c-2.2,0-4.2,0.5-6.1,1.4L198.1,261.9z M278.9,251.4
		c0,1.9-0.4,3.8-1.1,5.6l-3.6,9.1l-5-12.6l9.2-5.7C278.7,248.9,278.9,250.1,278.9,251.4z M265.7,244.6l-3.3-8.3h1.6
		c3.6,0,6.9,1.3,9.5,3.5L265.7,244.6z M252.2,236.3l5.3,13.3l-7,4.3l-7-17.4c0.7-0.1,1.5-0.2,2.2-0.2H252.2z M235.3,241.2l7.1,17.8
		l-8.2,5.1l-1.3-5.3c-0.7-2.8-1-5.6-1-8.5C231.8,246.8,233.2,243.6,235.3,241.2z M255.4,266.1l-1.3-3.3l7-4.3l4,10.1
		C261.9,267.6,258.7,266.8,255.4,266.1L255.4,266.1z M263.9,226.9h-18.1c-12.9,0-23.4,10.5-23.4,23.4c0,0.8,0.1,1.6,0.2,2.4
		c-10.7-8.7-17.4-21.4-18.7-35.3h32.7c7.8,0,14.1-6.3,14.1-14.1v-4.7h9.4v4.7c0,7.8,6.3,14.1,14.1,14.1h32.7
		c-1.3,14-8,26.5-18.6,35.3c0-0.5,0.1-0.9,0.1-1.4C288.4,237.9,277.4,226.9,263.9,226.9L263.9,226.9z M203.6,198.6h37.7v4.7
		c0,2.6-2.1,4.7-4.7,4.7h-33V198.6z M307.2,208.1h-33c-2.6,0-4.7-2.1-4.7-4.7v-4.7h37.7V208.1z M307.2,189.2h-37.7v-9.4h4.7h28.3
		c2.6,0,4.7,2.1,4.7,4.7V189.2z M260.1,189.2h-9.4v-9.4h9.4V189.2z M241.3,179.8v9.4h-37.7v-4.7c0-2.6,2.1-4.7,4.7-4.7H241.3z
		 M280.7,275.4l3.4-8.5c20.1-10.7,32.6-31.2,32.6-54.1v-28.3c0-7.8-6.3-14.1-14.1-14.1h-28.3c-2.6,0-4.7-2.1-4.7-4.7
		s2.1-4.7,4.7-4.7h4.7v-9.4h-4.7c-7.8,0-14.1,6.3-14.1,14.1c0,1.7,0.3,3.2,0.9,4.7h-15c-2.6,0-4.7-2.1-4.7-4.7s2.1-4.7,4.7-4.7h4.7
		v-9.4H246c-7.8,0-14.1,6.3-14.1,14.1c0,1.7,0.3,3.2,0.9,4.7h-0.9c-11.9,0-23-6.3-29.2-16.3c10.6-7.5,23.5-12,37.4-12h30.7
		c35.7,0,64.7,29,64.7,64.7c0,20.4-8.7,40-23.8,53.7l-22.4,20.3C286.6,278.9,283.7,277,280.7,275.4z M127.3,353.2
		c14-33.9,39.9-60.6,73.2-75.6l4.5,4.5c-0.9,1.8-1.4,3.9-1.4,6.1c0,7.8,6.3,14.1,14.1,14.1h5.6c0.6,1.8,1.6,3.4,2.8,4.7
		c-2.3,2.5-3.7,5.8-3.7,9.4c0,6.3,4.1,11.5,9.8,13.4l3.8,38.4h-51.3v-35.7c0-5.6-2.2-10.8-6.1-14.7l-6.7,6.7c2.1,2.1,3.3,5,3.3,8
		v35.7h-54.2L127.3,353.2z M309.7,368.3l-15.9-23.9l14.8-29.5l37.7,37.9l6.7-6.7l-8-8v-5.5c0-3,1.2-5.9,3.3-8l-6.7-6.7
		c-3.1,3.1-5,7-5.7,11.1l-24.9-24.9c-4.1-6.4-8.9-12.1-14.2-17.1l11.4-10.4c37,15.5,65.8,45.9,79.2,83.9l2.7,7.8L309.7,368.3z"/>
</g>
</svg>
