<?xml version="1.0" encoding="utf-8"?>
<!-- Generator: Adobe Illustrator 24.0.1, SVG Export Plug-In . SVG Version: 6.00 Build 0)  -->
<svg version="1.1" id="Layer_1" xmlns="http://www.w3.org/2000/svg" xmlns:xlink="http://www.w3.org/1999/xlink" x="0px" y="0px"
	 viewBox="0 0 512 512" style="enable-background:new 0 0 512 512;" xml:space="preserve">
<style type="text/css">
	.st0{display:none;}
	.st1{display:inline;fill:#200A7F;stroke:#18E5EA;stroke-width:20;stroke-miterlimit:10;}
	.st2{display:inline;fill:#EF0B79;}
	.st3{display:inline;fill:#18E5EA;}
	.st4{display:inline;}
	.st5{fill:#E9F21C;}
	.st6{display:inline;fill:none;}
	.st7{display:inline;fill:#EF3A24;}
	.st8{font-family:'MyriadPro-Regular';}
	.st9{font-size:250px;}
	.st10{display:inline;fill:#FFFFFF;}
	.st11{fill:#C4C6C8;}
	.st12{fill:url(#SVGID_1_);}
	.st13{fill:url(#SVGID_2_);stroke:#E8E8E8;stroke-width:3;stroke-miterlimit:10;}
	.st14{fill:#FFFFFF;}
</style>
<g id="Layer_3" class="st0">
	<path class="st1" d="M401.1,212.2c5.1,15.3,7.9,31.7,7.9,48.8c0,85.3-69.2,154.5-154.5,154.5S100,346.3,100,261
		s69.2-154.5,154.5-154.5c51.2,0,96.6,24.9,124.7,63.3"/>
	<path class="st2" d="M333.4,255.2c0,4.2-3.3,7.7-7.4,7.7H174.9c-4.1,0-7.4-3.4-7.4-7.7l0,0c0-4.2,3.3-7.7,7.4-7.7H326
		C330.1,247.5,333.4,250.9,333.4,255.2L333.4,255.2z"/>
	<path class="st2" d="M333.4,284.8c0,4.2-3.3,7.6-7.4,7.6H174.9c-4.1,0-7.4-3.4-7.4-7.6l0,0c0-4.2,3.3-7.6,7.4-7.6H326
		C330.1,277.1,333.4,280.6,333.4,284.8L333.4,284.8z"/>
	<path class="st2" d="M333.4,313c0,4.2-3.3,7.7-7.4,7.7H174.9c-4.1,0-7.4-3.4-7.4-7.7l0,0c0-4.2,3.3-7.6,7.4-7.6H326
		C330.1,305.4,333.4,308.8,333.4,313L333.4,313z"/>
	<path class="st2" d="M333.4,338.4c0,4.2-3.3,7.7-7.4,7.7H174.9c-4.1,0-7.4-3.4-7.4-7.7l0,0c0-4.2,3.3-7.6,7.4-7.6H326
		C330.1,330.7,333.4,334.1,333.4,338.4L333.4,338.4z"/>
	<polygon class="st3" points="395,191.5 320.2,165.2 380.4,113.5 	"/>
	<g class="st4">
		<g>
			<g>
				<path class="st5" d="M241.5,239.2c-2.3,0-4.4-1.1-5.8-2.9l-18.8-24.8c-2.4-3.2-1.8-7.8,1.4-10.3c3.2-2.4,7.8-1.8,10.3,1.4
					l12.3,16.3l31-49.8c2.1-3.4,6.6-4.5,10.1-2.3c3.4,2.1,4.5,6.6,2.3,10.1l-36.7,58.9c-1.3,2-3.5,3.3-5.9,3.4
					C241.7,239.2,241.6,239.2,241.5,239.2z"/>
			</g>
		</g>
	</g>
</g>
<g id="Layer_2_2_" class="st0">
	<rect x="121" y="171.5" class="st6" width="298" height="251"/>
	<text transform="matrix(1 0 0 1 121 348.9979)" class="st7 st8 st9">24</text>
	<circle class="st10" cx="138.3" cy="91.8" r="17.3"/>
	<circle class="st10" cx="185.3" cy="91.8" r="17.3"/>
	<circle class="st10" cx="232.3" cy="91.8" r="17.3"/>
	<circle class="st10" cx="278.3" cy="91.8" r="17.3"/>
	<circle class="st10" cx="323.3" cy="91.8" r="17.3"/>
	<circle class="st10" cx="368.3" cy="91.8" r="17.3"/>
</g>
<g>
	<path class="st11" d="M350.3,54.5H161.7c-17.9,0-34.5,9.6-43.4,25.1L24,242.9c-9,15.5-9,34.6,0,50.2l94.3,163.3
		c9,15.5,25.5,25.1,43.4,25.1h188.5c17.9,0,34.5-9.6,43.4-25.1L488,293.1c9-15.5,9-34.6,0-50.2L393.7,79.6
		C384.8,64.1,368.2,54.5,350.3,54.5z"/>
</g>
<g>
	
		<radialGradient id="SVGID_1_" cx="256.8813" cy="-78.05" r="226.4908" gradientTransform="matrix(1 0 0 1 0 332)" gradientUnits="userSpaceOnUse">
		<stop  offset="0" style="stop-color:#E3F2E7"/>
		<stop  offset="0.5" style="stop-color:#C9E6D1"/>
		<stop  offset="0.5094" style="stop-color:#C8E6D1"/>
		<stop  offset="1" style="stop-color:#B1DCC2"/>
	</radialGradient>
	<path class="st12" d="M491.1,274.8c-0.7,1.4-1.4,2.9-2.2,4.3l-94.3,163.3c-0.5,1-1.1,1.9-1.7,2.8c-8.3,12.4-21.7,20.5-36.5,22
		c-1.7,0.2-3.4,0.3-5.2,0.3H162.6c-17.9,0-34.5-9.6-43.5-25.1l-15.3-26.6l-70.4-122L24.9,279c-9-15.5-9-34.6,0-50.2l6.5-11.3
		l22.3-38.6l65.5-113.4c9-15.5,25.5-25.1,43.5-25.1h188.5c17.9,0,34.5,9.6,43.5,25.1l20.7,35.9l6.3,10.9l25.3,43.8l2.4,4.2l5.5,9.6
		l7,12l27.1,47c1.2,2,2.2,4.1,3,6.2C497.1,247.9,496.8,262.3,491.1,274.8z"/>
	<radialGradient id="SVGID_2_" cx="256.8813" cy="253.95" r="226.4908" gradientUnits="userSpaceOnUse">
		<stop  offset="0" style="stop-color:#E3F2E7"/>
		<stop  offset="0.5" style="stop-color:#C9E6D1"/>
		<stop  offset="0.5094" style="stop-color:#C8E6D1"/>
		<stop  offset="1" style="stop-color:#B1DCC2"/>
	</radialGradient>
	<path class="st13" d="M491.1,274.8c-0.7,1.4-1.4,2.9-2.2,4.3l-94.3,163.3c-0.5,1-1.1,1.9-1.7,2.8c-8.3,12.4-21.7,20.5-36.5,22
		c-1.7,0.2-3.4,0.3-5.2,0.3H162.6c-17.9,0-34.5-9.6-43.5-25.1l-15.3-26.6l-70.4-122L24.9,279c-9-15.5-9-34.6,0-50.2l6.5-11.3
		l22.3-38.6l65.5-113.4c9-15.5,25.5-25.1,43.5-25.1h188.5c17.9,0,34.5,9.6,43.5,25.1l20.7,35.9l6.3,10.9l25.3,43.8l2.4,4.2l5.5,9.6
		l7,12l27.1,47c1.2,2,2.2,4.1,3,6.2C497.1,247.9,496.8,262.3,491.1,274.8z"/>
</g>
<g>
	<g>
		<path class="st14" d="M367.1,303.8c-8.2,0-15.6,3.1-21.3,8.1L301,277.7c4.5-7.7,7.3-16.6,7.3-26.2c0-9.2-2.6-17.7-6.8-25.3
			l30.7-22.5c5.8,5.3,13.4,8.6,21.8,8.6c18,0,32.7-14.7,32.7-32.7s-14.7-32.7-32.7-32.7c-18,0-32.7,14.7-32.7,32.7
			c0,4.9,1.1,9.5,3.1,13.6l-30.6,22.4c-9.5-10.1-22.9-16.4-37.9-16.4c-4.2,0-8.2,0.6-12.1,1.5l-7.5-20.1
			c11.6-6.8,19.6-19.3,19.6-33.7c0-21.6-17.6-39.2-39.2-39.2s-39.2,17.6-39.2,39.2s17.6,39.2,39.2,39.2c2.5,0,5-0.3,7.4-0.8
			l7.5,20.1c-13.9,7.3-24.1,20.6-27.1,36.5l-27.6-1.6c-2.3-15.8-15.8-28-32.2-28c-18,0-32.7,14.7-32.7,32.7s14.7,32.7,32.7,32.7
			c15.1,0,27.7-10.3,31.4-24.3l27.7,1.6c0.9,13.3,6.6,25.3,15.6,34l-24.3,32.4c-5.4-2.8-11.4-4.5-17.9-4.5
			c-21.6,0-39.2,17.6-39.2,39.2s17.6,39.2,39.2,39.2s39.2-17.6,39.2-39.2c0-10.4-4.2-19.9-10.8-26.9l24.3-32.4
			c7.6,4.4,16.3,7.1,25.8,7.1c14.6,0,27.7-6,37.2-15.6l44.6,34.1c-2.1,4.3-3.4,9.1-3.4,14.2c0,18,14.7,32.7,32.7,32.7
			c18,0,32.7-14.7,32.7-32.7C399.8,318.5,385.1,303.8,367.1,303.8z M354,160c10.8,0,19.6,8.8,19.6,19.6c0,10.8-8.8,19.6-19.6,19.6
			c-10.8,0-19.6-8.8-19.6-19.6C334.4,168.8,343.2,160,354,160z M144.9,264.6c-10.8,0-19.6-8.8-19.6-19.6s8.8-19.6,19.6-19.6
			c10.8,0,19.6,8.8,19.6,19.6S155.7,264.6,144.9,264.6z M177.6,382.2c-14.4,0-26.1-11.7-26.1-26.1s11.7-26.1,26.1-26.1
			c14.4,0,26.1,11.7,26.1,26.1S192,382.2,177.6,382.2z M216.8,173.1c-14.4,0-26.1-11.7-26.1-26.1s11.7-26.1,26.1-26.1
			s26.1,11.7,26.1,26.1S231.2,173.1,216.8,173.1z M256,290.7c-21.6,0-39.2-17.6-39.2-39.2s17.6-39.2,39.2-39.2s39.2,17.6,39.2,39.2
			S277.6,290.7,256,290.7z M367.1,356.1c-10.8,0-19.6-8.8-19.6-19.6s8.8-19.6,19.6-19.6c10.8,0,19.6,8.8,19.6,19.6
			S377.9,356.1,367.1,356.1z"/>
	</g>
</g>
</svg>
