<?xml version="1.0" encoding="utf-8"?>
<!-- Generator: Adobe Illustrator 24.0.1, SVG Export Plug-In . SVG Version: 6.00 Build 0)  -->
<svg version="1.1" id="Layer_1" xmlns="http://www.w3.org/2000/svg" xmlns:xlink="http://www.w3.org/1999/xlink" x="0px" y="0px"
	 viewBox="0 0 512 512" style="enable-background:new 0 0 512 512;" xml:space="preserve">
<style type="text/css">
	.st0{display:none;}
	.st1{display:inline;fill:#200A7F;stroke:#18E5EA;stroke-width:20;stroke-miterlimit:10;}
	.st2{display:inline;fill:#EF0B79;}
	.st3{display:inline;fill:#18E5EA;}
	.st4{display:inline;}
	.st5{fill:#E9F21C;}
	.st6{display:inline;fill:none;}
	.st7{display:inline;fill:#EF3A24;}
	.st8{font-family:'MyriadPro-Regular';}
	.st9{font-size:250px;}
	.st10{display:inline;fill:#FFFFFF;}
	.st11{fill:#C4C6C8;}
	.st12{fill:url(#SVGID_1_);}
	.st13{fill:url(#SVGID_2_);stroke:#E8E8E8;stroke-width:3;stroke-miterlimit:10;}
	.st14{fill:#004ED6;}
	.st15{fill:#0026B6;}
	.st16{fill:#99CEFA;}
	.st17{fill:#C9E5FC;}
	.st18{fill:#64AEF7;}
	.st19{fill:#0A86E3;}
	.st20{fill:#001386;}
	.st21{fill:#46A4F2;}
	.st22{fill:#006CE2;}
	.st23{fill:#E1EBFC;}
</style>
<g id="Layer_3" class="st0">
	<path class="st1" d="M401.1,212.2c5.1,15.3,7.9,31.7,7.9,48.8c0,85.3-69.2,154.5-154.5,154.5S100,346.3,100,261
		s69.2-154.5,154.5-154.5c51.2,0,96.6,24.9,124.7,63.3"/>
	<path class="st2" d="M333.4,255.2c0,4.2-3.3,7.7-7.4,7.7H174.9c-4.1,0-7.4-3.4-7.4-7.7l0,0c0-4.2,3.3-7.7,7.4-7.7H326
		C330.1,247.5,333.4,250.9,333.4,255.2L333.4,255.2z"/>
	<path class="st2" d="M333.4,284.8c0,4.2-3.3,7.6-7.4,7.6H174.9c-4.1,0-7.4-3.4-7.4-7.6l0,0c0-4.2,3.3-7.6,7.4-7.6H326
		C330.1,277.1,333.4,280.6,333.4,284.8L333.4,284.8z"/>
	<path class="st2" d="M333.4,313c0,4.2-3.3,7.7-7.4,7.7H174.9c-4.1,0-7.4-3.4-7.4-7.7l0,0c0-4.2,3.3-7.6,7.4-7.6H326
		C330.1,305.4,333.4,308.8,333.4,313L333.4,313z"/>
	<path class="st2" d="M333.4,338.4c0,4.2-3.3,7.7-7.4,7.7H174.9c-4.1,0-7.4-3.4-7.4-7.7l0,0c0-4.2,3.3-7.6,7.4-7.6H326
		C330.1,330.7,333.4,334.1,333.4,338.4L333.4,338.4z"/>
	<polygon class="st3" points="395,191.5 320.2,165.2 380.4,113.5 	"/>
	<g class="st4">
		<g>
			<g>
				<path class="st5" d="M241.5,239.2c-2.3,0-4.4-1.1-5.8-2.9l-18.8-24.8c-2.4-3.2-1.8-7.8,1.4-10.3c3.2-2.4,7.8-1.8,10.3,1.4
					l12.3,16.3l31-49.8c2.1-3.4,6.6-4.5,10.1-2.3c3.4,2.1,4.5,6.6,2.3,10.1l-36.7,58.9c-1.3,2-3.5,3.3-5.9,3.4
					C241.7,239.2,241.6,239.2,241.5,239.2z"/>
			</g>
		</g>
	</g>
</g>
<g id="Layer_2_2_" class="st0">
	<rect x="121" y="171.5" class="st6" width="298" height="251"/>
	<text transform="matrix(1 0 0 1 121 348.9979)" class="st7 st8 st9">24</text>
	<circle class="st10" cx="138.3" cy="91.8" r="17.3"/>
	<circle class="st10" cx="185.3" cy="91.8" r="17.3"/>
	<circle class="st10" cx="232.3" cy="91.8" r="17.3"/>
	<circle class="st10" cx="278.3" cy="91.8" r="17.3"/>
	<circle class="st10" cx="323.3" cy="91.8" r="17.3"/>
	<circle class="st10" cx="368.3" cy="91.8" r="17.3"/>
</g>
<g>
	<path class="st11" d="M350.3,54.5H161.7c-17.9,0-34.5,9.6-43.4,25.1L24,242.9c-9,15.5-9,34.6,0,50.2l94.3,163.3
		c9,15.5,25.5,25.1,43.4,25.1h188.5c17.9,0,34.5-9.6,43.4-25.1L488,293.1c9-15.5,9-34.6,0-50.2L393.7,79.6
		C384.8,64.1,368.2,54.5,350.3,54.5z"/>
</g>
<g>
	
		<radialGradient id="SVGID_1_" cx="256.8813" cy="-78.05" r="226.4908" gradientTransform="matrix(1 0 0 1 0 332)" gradientUnits="userSpaceOnUse">
		<stop  offset="0" style="stop-color:#6CB5E4"/>
		<stop  offset="9.145045e-02" style="stop-color:#63B0E1"/>
		<stop  offset="0.2435" style="stop-color:#49A3D9"/>
		<stop  offset="0.4362" style="stop-color:#208DCC"/>
		<stop  offset="0.5674" style="stop-color:#007CC2"/>
		<stop  offset="1" style="stop-color:#0059A9"/>
	</radialGradient>
	<path class="st12" d="M491.1,274.8c-0.7,1.4-1.4,2.9-2.2,4.3l-94.3,163.3c-0.5,1-1.1,1.9-1.7,2.8c-8.3,12.4-21.7,20.5-36.5,22
		c-1.7,0.2-3.4,0.3-5.2,0.3H162.6c-17.9,0-34.5-9.6-43.5-25.1l-15.3-26.6l-70.4-122L24.9,279c-9-15.5-9-34.6,0-50.2l6.5-11.3
		l22.3-38.6l65.5-113.4c9-15.5,25.5-25.1,43.5-25.1h188.5c17.9,0,34.5,9.6,43.5,25.1l20.7,35.9l6.3,10.9l25.3,43.8l2.4,4.2l5.5,9.6
		l7,12l27.1,47c1.2,2,2.2,4.1,3,6.2C497.1,247.9,496.8,262.3,491.1,274.8z"/>
	<radialGradient id="SVGID_2_" cx="256.8813" cy="253.95" r="226.4908" gradientUnits="userSpaceOnUse">
		<stop  offset="0" style="stop-color:#6CB5E4"/>
		<stop  offset="9.145045e-02" style="stop-color:#63B0E1"/>
		<stop  offset="0.2435" style="stop-color:#49A3D9"/>
		<stop  offset="0.4362" style="stop-color:#208DCC"/>
		<stop  offset="0.5674" style="stop-color:#007CC2"/>
		<stop  offset="1" style="stop-color:#0059A9"/>
	</radialGradient>
	<path class="st13" d="M491.1,274.8c-0.7,1.4-1.4,2.9-2.2,4.3l-94.3,163.3c-0.5,1-1.1,1.9-1.7,2.8c-8.3,12.4-21.7,20.5-36.5,22
		c-1.7,0.2-3.4,0.3-5.2,0.3H162.6c-17.9,0-34.5-9.6-43.5-25.1l-15.3-26.6l-70.4-122L24.9,279c-9-15.5-9-34.6,0-50.2l6.5-11.3
		l22.3-38.6l65.5-113.4c9-15.5,25.5-25.1,43.5-25.1h188.5c17.9,0,34.5,9.6,43.5,25.1l20.7,35.9l6.3,10.9l25.3,43.8l2.4,4.2l5.5,9.6
		l7,12l27.1,47c1.2,2,2.2,4.1,3,6.2C497.1,247.9,496.8,262.3,491.1,274.8z"/>
</g>
<path class="st14" d="M291.4,139.9c0,0,25.4-12.7,50.7-12.7c38,0,63.4,25.4,63.4,63.4c0,25.4-25.4,50.7-25.4,50.7L291.4,139.9z"/>
<g>
	<path class="st15" d="M314.1,142.5l12.7-12.7c3.5-3.5,9.2-3.5,12.7,0c3.5,3.5,3.5,9.2,0,12.7l-12.7,12.7c-3.5,3.5-9.2,3.5-12.7,0
		C310.6,151.7,310.6,146,314.1,142.5z"/>
	<path class="st15" d="M339.4,155.2l12.7-12.7c3.5-3.5,9.2-3.5,12.7,0c3.5,3.5,3.5,9.2,0,12.7l-12.7,12.7c-3.5,3.5-9.2,3.5-12.7,0
		C335.9,164.3,335.9,158.7,339.4,155.2z"/>
	<path class="st15" d="M357.4,175.3l20.1-20.1c3.5-3.5,9.2-3.5,12.7,0c3.5,3.5,3.5,9.2,0,12.7L370,187.9c-3.5,3.5-9.2,3.5-12.7,0
		C353.9,184.4,353.9,178.8,357.4,175.3z"/>
	<path class="st15" d="M370,200.6l20.1-20.1c3.5-3.5,9.2-3.5,12.7,0c3.5,3.5,3.5,9.2,0,12.7l-20.1,20.1c-3.5,3.5-9.2,3.5-12.7,0
		C366.5,209.8,366.5,204.1,370,200.6z"/>
</g>
<path class="st16" d="M130.7,140.5c4.8-9.7,13.8-16.7,24.4-18.9c17-3.7,22.1-7,72.8-7c63.4,0,164.8,50.7,164.8,126.8
	S304,355.4,253.3,355.4c-38,0-63.4-12.7-63.4-12.7s-8.8,27.6-24.9,43.9c-6.8,6.9-17.4,8.7-26.1,4.4c-8.3-4.1-13.2-13-12.3-22.3
	c1.3-12,17.9-31.4,25.2-38.7c0,0-22.4-12.5-25.2-38c-1.1-9.3,3.7-18.3,12.1-22.6c7.9-4,17.5-2.8,24.2,2.9
	c11.2,9.6,26.9,29.1,26.9,45c0,0,114.1,0,114.1-50.7c0,0-25.4-25.4-63.4-25.4c-24,0-94.6-1.2-112.8-76.4
	C126,156.6,127,148,130.7,140.5z"/>
<path class="st17" d="M258.9,162.6c-3.5,0-6.3,2.8-6.3,6.3c0,0.4,0,0.7,0.1,1.1c0.4,2.6,0.7,5.2,0.7,7.8c0,6.8-2.3,12.6-7.2,17.7
	c-0.1,0.1-0.1,0.1-0.2,0.2c-0.1,0.1-0.1,0.1-0.2,0.2c-2.2,2.2-4.7,4.2-7.5,5.8c-3,1.8-4,5.7-2.2,8.7c1.8,3,5.7,4,8.7,2.2
	c0.2-0.1,0.5-0.3,0.7-0.4l0,0l0,0l0,0l0,0l0,0l0,0l0,0l0,0l0,0l0,0l0,0l0,0l0,0l0,0l0,0l0,0l0,0l0,0l0,0l0,0l0,0l0,0l0,0l0,0l0,0
	c2.4-1.5,4.6-3.2,6.7-5c0,0,0.1,0,0.1-0.1l0,0v0c0,0,0.1,0,0.1-0.1l0,0c0,0,0,0,0,0l0,0l0,0l0,0l0,0l0,0l0,0l0,0l0,0l0,0l0,0l0,0
	l0,0l0,0l0,0l0,0l0,0l0,0l0,0l0,0l0,0l0,0l0,0c0.5-0.5,1-0.9,1.5-1.4c0.1-0.1,0.2-0.2,0.2-0.2c0.1-0.1,0.2-0.2,0.2-0.2
	c3.8-3.9,6.7-8.5,8.5-13.6v0c0-0.1,0.1-0.2,0.1-0.3c0-0.1,0-0.1,0.1-0.2l0,0l0.1-0.2v0c0-0.1,0-0.1,0.1-0.2v0c0-0.1,0-0.1,0.1-0.2
	l0,0l0-0.1c0,0,0-0.1,0-0.1v0c0-0.1,0-0.1,0.1-0.2v0c0-0.1,0-0.1,0.1-0.2l0,0c0,0,0,0,0-0.1c0,0,0-0.1,0-0.1l0,0c0,0,0,0,0-0.1v0
	l0-0.1v0c0,0,0,0,0-0.1v0l0-0.1c0,0,0-0.1,0-0.1l0,0l0-0.1l0-0.1c0,0,0,0,0-0.1l0,0c0,0,0,0,0-0.1l0,0l0-0.1v0l0-0.1l0,0l0-0.1l0,0
	l0-0.1v0l0-0.1l0,0c0,0,0,0,0-0.1v0c0,0,0,0,0-0.1v0l0-0.1l0,0l0-0.1v0c0,0,0,0,0-0.1v0l0-0.1l0,0l0-0.1v0c0,0,0,0,0-0.1l0-0.1v0
	c0,0,0,0,0-0.1c0,0,0,0,0-0.1v0c0,0,0,0,0-0.1l0,0c0,0,0,0,0-0.1l0,0c0,0,0,0,0-0.1v0c0,0,0,0,0-0.1l0-0.1v0l0-0.1l0,0l0-0.1
	c0,0,0,0,0-0.1l0,0c0,0,0,0,0-0.1l0,0l0-0.1l0,0c0,0,0,0,0-0.1l0,0c0,0,0,0,0,0l0,0l0-0.1l0,0c0,0,0,0,0-0.1l0,0c0,0,0,0,0-0.1v0
	l0-0.1l0,0l0-0.1v0l0-0.1l0,0l0-0.1l0,0l0-0.1l0,0l0,0l0,0c0,0,0,0,0-0.1l0,0c0,0,0,0,0-0.1l0,0c0,0,0,0,0,0l0,0l0,0l0,0l0-0.1l0,0
	l0,0v0l0-0.1l0,0c0,0,0,0,0-0.1v0l0,0l0,0c0,0,0,0,0-0.1l0-0.1v0l0,0l0,0l0-0.1l0-0.1v0l0-0.1l0,0c0,0,0,0,0-0.1l0,0l0-0.1l0,0l0,0
	l0,0c0,0,0,0,0-0.1l0,0c0,0,0,0,0-0.1l0,0c0,0,0,0,0,0l0-0.1c0,0,0,0,0-0.1l0,0l0-0.1l0,0l0-0.1l0,0c0,0,0,0,0-0.1v0c0,0,0,0,0,0
	l0,0c0,0,0,0,0-0.1l0,0c0,0,0,0,0-0.1v0c0,0,0,0,0,0l0,0c0,0,0,0,0-0.1l0,0c0,0,0,0,0-0.1l0,0l0,0v0c0,0,0,0,0-0.1l0,0l0-0.1l0,0
	c0,0,0,0,0,0l0,0l0-0.1l0,0l0-0.1l0,0c0,0,0,0,0,0l0,0l0-0.1l0,0l0-0.1v0l0-0.1v0l0-0.1l0,0c0,0,0,0,0-0.1l0,0l0-0.1l0,0
	c0,0,0,0,0-0.1v0l0-0.1l0,0l0,0v0l0-0.1l0,0c0,0,0,0,0-0.1v0l0-0.1v0l0-0.1l0,0l0-0.1v0l0-0.1l0,0l0-0.1l0,0l0-0.1v0c0,0,0,0,0-0.1
	v0c0,0,0,0,0-0.1l0,0c0,0,0,0,0-0.1l0,0l0-0.1l0,0c0,0,0,0,0-0.1l0,0l0-0.1l0,0c0,0,0,0,0-0.1l0,0c0,0,0,0,0-0.1l0,0c0,0,0,0,0-0.1
	v0l0-0.1l0,0l0-0.1v0l0-0.1v0c0,0,0,0,0-0.1l0,0c0,0,0,0,0-0.1l0,0c0,0,0,0,0-0.1l0,0l0-0.1l0,0c0,0,0,0,0-0.1v0c0,0,0,0,0-0.1v0
	c0,0,0,0,0-0.1v0c0,0,0,0,0-0.1l0,0l0-0.1v0c0,0,0,0,0-0.1v0c0,0,0,0,0-0.1l0,0l0-0.1l0,0l0,0v0c0,0,0,0,0-0.1l0,0l0-0.1v0
	c0,0,0,0,0-0.1v0c0,0,0,0,0-0.1l0,0l0-0.1v0c0,0,0,0,0-0.1v0c0,0,0,0,0-0.1l0,0c0,0,0,0,0-0.1l0,0c0,0,0,0,0-0.1v0c0,0,0,0,0-0.1v0
	c0,0,0,0,0-0.1c0,0,0,0,0-0.1v0l0-0.1v0l0-0.1v0l0-0.1l0,0l0-0.1v0c0,0,0,0,0-0.1v0c0,0,0,0,0-0.1l0,0c0,0,0,0,0-0.1v0l0-0.1v0
	c0,0,0,0,0-0.1l0,0l0-0.1v0c0,0,0,0,0-0.1v0c0,0,0,0,0-0.1v0l0-0.1v0c0,0,0,0,0-0.1v0l0-0.1l0,0l0-0.1v0l0-0.1v0c0,0,0,0,0-0.1v0
	c0,0,0,0,0-0.1v0c0,0,0,0,0-0.1v0c0,0,0,0,0-0.1v0c0,0,0,0,0-0.1v-0.1l0,0v-0.1l0,0v-0.1l0-0.1v-0.1l0,0c0,0,0,0,0-0.1v0
	c0,0,0,0,0-0.1c0,0,0,0,0-0.1v0c0,0,0,0,0-0.1v-0.1c0,0,0,0,0-0.1l0,0c0,0,0-0.1,0-0.1v0c0,0,0,0,0-0.1v-0.4c0,0,0,0,0-0.1v0
	c0,0,0,0,0,0v0c0,0,0,0,0,0v0l0-0.1v-0.1c0,0,0-0.1,0-0.1V177l0,0c0,0,0-0.1,0-0.1v0l0,0v0c0,0,0-0.1,0-0.1v0l0-0.1v0l0-0.1l0-0.1v0
	c0-0.1,0-0.1,0-0.2v-0.1c0-0.1,0-0.1,0-0.2v0c-0.1-2.8-0.4-5.5-0.8-8.3C264.6,164.8,262,162.6,258.9,162.6L258.9,162.6z"/>
<path class="st17" d="M234.3,355.4c-3.5,0-6.3-2.8-6.3-6.3c0-3.5,2.8-6.3,6.3-6.3c0.4,0,36.7-0.4,72.6-24.3
	c34.8-23.2,35.2-57.8,35.2-58.1c0-3.5,2.8-6.3,6.3-6.3s6.3,2.8,6.3,6.3c0,1.7-0.5,41.7-40.9,68.7C274.7,355.1,236,355.4,234.3,355.4
	z"/>
<path class="st18" d="M244.5,216c-7,0-12.7,5.7-12.6,12.7c0,6.8,5.4,12.3,12.2,12.6l0,0c0,0,0,0,0.1,0h0c0,0,0,0,0.1,0h0l0.1,0l0,0
	c0,0,0,0,0.1,0c0.1,0,0.2,0,0.4,0c0.1,0,0.2,0,0.3,0c0.1,0,0.2,0,0.4,0c24.7,1.4,43.5,13.1,52.6,20.1c5.6,4.2,13.5,3.2,17.8-2.4
	c4.2-5.6,3.2-13.5-2.4-17.7c-11.3-8.7-35-23.5-66.5-25.2c-0.1,0-0.3,0-0.4,0c-0.2,0-0.3,0-0.5,0l-0.9,0
	C244.9,216,244.7,216,244.5,216z"/>
<path class="st19" d="M392.8,241.3c0-76.1-101.4-126.8-164.8-126.8c-50.7,0-55.8,3.4-72.8,7c-4.6,1-8.9,3-12.8,5.7
	c17,0.5,105.8,5,174.3,50.6c76.1,50.7,76.1,153.2-63.4,177.5C304,355.4,392.8,317.3,392.8,241.3z"/>
<path class="st15" d="M332.1,134.2c-3.5,0-6.3,2.8-6.3,6.3c0,2.2,1.1,4.2,3,5.4c8.2,5.1,16.1,10.8,23.4,17.2l0.1,0.1h0
	c0,0,0.1,0.1,0.1,0.1l0,0c0,0,0.1,0.1,0.1,0.1l0,0c0.1,0.1,0.2,0.2,0.3,0.2l0,0c0,0,0.1,0.1,0.1,0.1l0,0c0,0,0.1,0,0.1,0.1l0,0
	c0,0,0.1,0,0.1,0.1l0,0c0,0,0.1,0.1,0.1,0.1l0,0l0.1,0.1l0,0c0,0,0.1,0.1,0.1,0.1l0,0c0,0,0.1,0.1,0.1,0.1l0,0c0,0,0,0,0.1,0.1l0,0
	c0,0,0.1,0,0.1,0.1l0,0c0,0,0.1,0.1,0.1,0.1l0,0c0,0,0.1,0.1,0.1,0.1l0,0c0,0,0.1,0,0.1,0.1l0,0c0,0,0,0,0.1,0.1l0,0
	c0,0,0.1,0,0.1,0.1l0,0c0,0,0.1,0,0.1,0.1l0,0c0,0,0,0,0.1,0.1l0,0c0,0,0.1,0,0.1,0.1l0,0l0.1,0.1l0,0c0,0,0,0,0.1,0.1l0,0l0.1,0.1
	l0,0l0.1,0.1l0,0l0.1,0.1l0,0l0.1,0.1l0,0c0,0,0,0,0.1,0.1l0,0c0,0,0,0,0.1,0.1l0,0l0.1,0.1l0,0c0,0,0,0,0.1,0.1l0,0
	c0,0,0,0,0.1,0.1l0,0c0,0,0,0,0.1,0.1l0,0c0,0,0,0,0.1,0.1c0,0,0,0,0,0c0,0,0,0,0.1,0.1l0,0c0,0,0,0,0.1,0.1l0,0c0,0,0,0,0.1,0.1
	l0,0c0,0,0,0,0.1,0.1l0,0c0,0,0,0,0.1,0.1l0,0c0,0,0,0,0.1,0.1l0,0l0.1,0.1l0,0c0,0,0,0,0.1,0.1l0,0l0.1,0.1c0,0,0,0,0,0l0.1,0.1
	l0,0c0,0,0,0,0.1,0.1l0,0c0,0,0,0,0.1,0.1l0,0l0.1,0.1l0,0c0,0,0,0,0.1,0.1c0,0,0,0,0,0c0,0,0,0,0.1,0.1l0,0c0,0,0,0,0.1,0.1l0,0
	c0,0,0,0,0.1,0.1l0,0c0,0,0,0,0.1,0.1l0,0c0,0,0,0,0.1,0.1l0,0l0.1,0.1l0,0c0,0,0,0,0.1,0.1l0,0l0,0c0,0,0,0,0,0c0,0,0,0,0,0
	c0,0,0,0,0,0c0,0,0,0,0.1,0.1c0,0,0,0,0,0l0.1,0.1l0,0l0.1,0l0,0l0,0c0,0,0,0,0,0l0,0c0,0,0,0,0,0l0,0l0,0l0.1,0l0.1,0.1
	c0,0,0,0,0,0l0.1,0.1c0,0,0,0,0,0c0,0,0,0,0,0l0,0c0,0,0,0,0,0l0,0l0,0c0,0,0,0,0,0c0,0,0,0,0.1,0.1l0,0c0,0,0,0,0,0l0,0l0,0
	l0.1,0.1l0.1,0.1l0,0c0,0,0,0,0.1,0.1l0,0l0.1,0.1l0,0l0.1,0.1l0,0l0,0c0,0,0,0,0,0c0,0,0,0,0.1,0.1l0,0c0,0,0,0,0.1,0.1
	c0,0,0,0,0,0c0,0,0,0,0.1,0.1l0,0c0,0,0,0,0.1,0.1l0.1,0.1c0,0,0,0,0,0l0.1,0.1c0,0,0,0,0,0c0,0,0,0,0.1,0.1l0,0c0,0,0,0,0.1,0.1
	l0,0c0,0,0,0,0.1,0.1l0,0c0,0,0,0,0.1,0.1l0,0c0,0,0.1,0.1,0.1,0.1l0,0c0,0,0,0,0.1,0.1l0,0c0,0,0,0,0.1,0.1l0,0c0,0,0,0,0.1,0.1
	l0,0c0,0,0,0,0.1,0.1l0,0c0,0,0,0,0.1,0.1l0,0c0.1,0.1,0.1,0.1,0.2,0.2l0,0c0,0,0,0,0.1,0.1l0,0c0,0,0,0,0.1,0.1l0,0l0.1,0.1
	l0.1,0.1l0.1,0.1l0,0c0,0,0,0,0.1,0.1l0,0c0,0,0,0,0.1,0.1l0,0c0,0,0,0,0.1,0.1l0,0l0.1,0.1l0,0c0.1,0.1,0.1,0.1,0.2,0.2l0,0
	c0,0,0,0,0.1,0.1l0,0l0.1,0.1l0,0l0.1,0.1l0,0c0,0,0,0,0.1,0.1l0,0c0.1,0.1,0.1,0.1,0.2,0.2l0,0c0,0,0,0,0.1,0.1l0,0
	c0,0,0,0,0.1,0.1l0,0l0.1,0.1l0,0c0,0,0,0,0.1,0.1l0,0c0.1,0.1,0.2,0.2,0.3,0.4l0,0c0,0,0,0.1,0.1,0.1l0,0c0.1,0.1,0.2,0.2,0.3,0.3
	l0,0c0.1,0.1,0.1,0.1,0.2,0.2l0,0l0.1,0.1l0.1,0.1l0,0c0.3,0.3,0.6,0.6,0.8,0.9v0c0,0,0,0.1,0.1,0.1l0,0c0.1,0.1,0.2,0.2,0.3,0.3
	c0.1,0.1,0.1,0.1,0.2,0.2c0,0,0.1,0.1,0.1,0.1h0c0.1,0.2,0.3,0.3,0.4,0.5l0,0c0.2,0.2,0.4,0.4,0.6,0.6l0,0c0.1,0.1,0.2,0.2,0.3,0.4
	l0,0l0.1,0.1l0,0c0,0,0,0.1,0.1,0.1l0,0c0.1,0.2,0.3,0.3,0.4,0.5l0,0l0.1,0.1l0,0c0.1,0.1,0.1,0.1,0.2,0.2c0,0,0,0,0.1,0.1l0,0
	c0,0,0,0,0.1,0.1l0,0l0.1,0.1l0,0c0,0,0,0,0.1,0.1l0,0c0.1,0.1,0.2,0.2,0.2,0.3l0,0l0.1,0.1l0,0l0.1,0.1l0,0c0,0,0,0,0.1,0.1l0,0
	l0.2,0.2l0,0c0,0,0,0.1,0.1,0.1l0,0c0,0,0,0,0.1,0.1l0,0c0,0,0,0,0.1,0.1l0,0l0.1,0.1l0,0c0,0,0,0,0.1,0.1l0,0c0,0,0.1,0.1,0.1,0.1
	l0,0l0.1,0.1l0,0c0,0,0,0,0.1,0.1l0,0l0.1,0.1l0,0c0,0,0,0,0.1,0.1l0,0c0,0,0.1,0.1,0.1,0.1l0,0c0,0,0,0,0.1,0.1l0,0
	c0,0,0,0,0.1,0.1l0,0c0,0,0,0,0.1,0.1l0,0c0,0,0,0,0.1,0.1c0,0,0,0,0,0c0,0,0,0,0.1,0.1l0,0c0,0,0,0,0.1,0.1l0,0
	c0,0,0.1,0.1,0.1,0.1l0,0l0,0.1l0,0c0,0,0,0,0.1,0.1l0,0c0,0,0,0,0.1,0.1l0,0c0,0,0,0,0,0.1l0,0c0,0,0,0,0,0.1c0,0,0,0,0,0
	c0,0,0,0,0.1,0.1l0,0c0,0,0,0,0.1,0.1l0,0c0,0,0,0,0,0.1l0,0c0,0,0,0,0,0.1l0,0c0,0,0,0,0.1,0.1l0,0c0,0,0,0,0,0.1c0,0,0,0,0,0
	c0,0,0,0,0,0.1l0,0c0,0,0,0,0.1,0.1l0,0c0,0,0,0,0.1,0.1l0,0l0.1,0.1c0,0,0,0,0,0l0,0.1c0,0,0,0,0,0l0,0c0,0,0,0,0,0c0,0,0,0,0,0.1
	c0,0,0,0,0,0l0,0.1l0,0l0,0.1c0,0,0,0,0,0c0,0,0,0,0,0.1l0,0l0,0.1c0,0,0,0,0,0.1l0,0l0,0.1c0,0,0,0,0,0l0,0.1c0,0,0,0,0,0l0,0
	c0,0,0,0,0,0l0,0c0,0,0,0,0,0.1c0,0,0,0,0,0c0,0,0,0,0,0c0,0,0,0,0,0.1c0,0,0,0,0,0c0,0,0,0,0,0.1l0,0c0,0,0,0,0,0.1c0,0,0,0,0,0
	c0,0,0,0,0,0.1c0,0,0,0,0,0c0,0,0,0,0,0.1l0,0c0,0,0,0,0,0.1l0,0l0,0.1l0,0l0.1,0.1l0,0.1l0,0l0.1,0.2c0,0,0,0,0,0c0,0,0,0,0,0.1
	c0,0,0,0,0,0c0,0,0,0,0,0.1l0.1,0.1c0,0,0,0,0,0c0,0,0,0,0,0.1c0,0,0,0,0,0c0,0,0,0,0,0.1l0,0c0,0,0,0,0,0.1l0,0c0,0,0,0,0,0.1l0,0
	l0,0.1l0,0l0,0.1l0,0l0,0.1l0,0c0,0,0,0,0,0.1l0,0c0,0,0,0,0,0.1l0,0l0.1,0.1l0,0c0,0,0,0,0.1,0.1l0.1,0.1l0.1,0.1l0.1,0.1l0,0
	l0.1,0.1l0,0c0,0,0,0.1,0.1,0.1l0,0c0,0,0,0.1,0.1,0.1l0,0c0,0,0,0.1,0.1,0.1l0,0c0,0,0,0.1,0.1,0.1l0,0c0,0,0,0.1,0.1,0.1l0,0
	c0,0,0,0.1,0.1,0.1l0,0c0,0,0,0,0.1,0.1l0,0c0,0,0,0.1,0.1,0.1l0,0c0,0,0,0.1,0.1,0.1l0,0c0,0,0,0.1,0.1,0.1l0,0l0.1,0.1l0,0
	l0.1,0.1l0,0c0,0,0,0.1,0.1,0.1l0,0c0,0,0,0.1,0.1,0.1l0,0l0.1,0.1l0,0c0,0,0,0.1,0.1,0.1l0,0c0,0,0,0.1,0.1,0.1l0,0
	c0,0,0,0.1,0.1,0.1l0,0c0,0,0,0.1,0.1,0.1l0,0c0,0,0,0.1,0.1,0.1l0,0l0.1,0.1l0,0c0,0,0,0.1,0.1,0.1l0,0c0.1,0.1,0.1,0.2,0.2,0.3
	c0.1,0.1,0.1,0.2,0.2,0.3l0,0c0,0,0,0.1,0.1,0.1l0,0c0,0,0,0.1,0.1,0.1h0c4.8,6.9,8.7,14.4,11.6,22.3c1.2,3.3,4.9,4.9,8.2,3.7
	c3.3-1.2,4.9-4.9,3.7-8.1c-3.3-8.9-7.8-17.4-13.2-25.2c-0.1-0.1-0.1-0.2-0.2-0.3c-0.1-0.1-0.1-0.2-0.2-0.3
	c-11.9-17.1-29.2-33-50.2-46C334.4,134.5,333.3,134.2,332.1,134.2L332.1,134.2z"/>
<path class="st19" d="M266,139.9c0,7-5.7,12.7-12.7,12.7c-7,0-12.7-5.7-12.7-12.7s5.7-12.7,12.7-12.7
	C260.3,127.2,266,132.9,266,139.9z"/>
<path class="st19" d="M304,165.2c0,7-5.7,12.7-12.7,12.7c-7,0-12.7-5.7-12.7-12.7s5.7-12.7,12.7-12.7
	C298.4,152.5,304,158.2,304,165.2z"/>
<path class="st20" d="M202.6,139.9c0,7-5.7,12.7-12.7,12.7s-12.7-5.7-12.7-12.7s5.7-12.7,12.7-12.7S202.6,132.9,202.6,139.9z"/>
<path class="st21" d="M190,133.5c0,3.5-2.8,6.3-6.3,6.3c-3.5,0-6.3-2.8-6.3-6.3c0-3.5,2.8-6.3,6.3-6.3
	C187.1,127.2,190,130,190,133.5z"/>
<path class="st18" d="M158.3,177.9c-3.5,0-6.3-2.8-6.3-6.3c0,0,0,0,0,0v-5.2c0-2.2-1.1-4.2-3-5.3c-21.8-13-22.4-26-22.4-27.5
	c0-3.5,2.8-6.3,6.3-6.3c3.4,0,6.2,2.7,6.3,6.1c0.1,0.5,1.4,8.1,16.2,16.9c5.7,3.4,9.2,9.6,9.2,16.2v5.2
	C164.6,175,161.8,177.9,158.3,177.9C158.3,177.9,158.3,177.9,158.3,177.9z"/>
<path class="st22" d="M164.6,171.5c0,3.5-2.8,6.3-6.3,6.3c-3.5,0-6.3-2.8-6.3-6.3c0-3.5,2.8-6.3,6.3-6.3
	C161.8,165.2,164.6,168,164.6,171.5z"/>
<path class="st17" d="M138.5,155.3c-3.5,0-6.3,2.8-6.3,6.3c0,2,0.9,3.9,2.5,5.1c1.4,1.1,2.9,2.1,4.5,3.2v1.6
	c0,8.6,5.8,16.2,14.2,18.4c0.3,0.1,0.7,0.2,1,0.2c0.3,0.1,0.7,0.2,1,0.2c0.7,0.1,1.4,0.2,2.1,0.2c0.1,0,0.2,0,0.2,0
	c3.5,0,6.3-2.8,6.3-6.3c0-3.4-2.7-6.2-6.1-6.3h0c-0.2,0-0.5,0-0.7-0.1c-0.1,0-0.2,0-0.3,0c-0.1,0-0.2-0.1-0.3-0.1
	c-2.1-0.6-3.8-2.2-4.4-4.3l0,0c0,0,0,0,0-0.1v0l0,0c0,0,0-0.1,0-0.1v0l0,0v0l0,0c0,0,0,0,0-0.1l0,0c0,0,0-0.1,0-0.1l0,0l0,0l0,0l0,0
	c0,0,0,0,0,0l0,0l0,0l0,0l0,0l0-0.1v0l0,0l0,0l0,0v0l0,0l0,0l0,0v0l0,0v0l0,0l0,0l0,0v0l0,0v0l0,0v0l0,0v0l0,0l0,0l0,0v0l0,0v0l0,0
	v0l0,0v0c0,0,0,0,0,0v0l0,0v0l0,0v0l0,0v0l0,0v0l0,0l0,0v0l0,0v0l0,0v0l0,0v0l0,0l0,0v0l0,0v0l0,0v0l0,0v0l0,0v0l0,0v0l0,0v0l0,0
	l0,0v0l0,0v0l0,0v0l0,0v0l0,0v0l0,0v0l0,0v-5.3c0-2.2-1.1-4.2-3-5.3l-0.1,0l0,0l0,0l0,0l0,0l0,0l0,0c0,0,0,0,0,0l0,0c0,0,0,0,0,0
	l0,0c0,0,0,0,0,0l0,0c0,0,0,0,0,0l0,0l0,0l0,0l0,0h0c-0.1,0-0.1-0.1-0.2-0.1l0,0c0,0,0,0-0.1,0l0,0l-0.1,0l0,0l0,0l0,0
	c0,0,0,0-0.1,0l0,0l-0.1,0l0,0c-0.2-0.1-0.3-0.2-0.5-0.3c-0.6-0.4-1.2-0.8-1.8-1.2h0l0,0l0,0l0,0l0,0c0,0,0,0,0,0h0
	c-0.1-0.1-0.2-0.2-0.4-0.2l0,0l0,0l0,0l0,0l0,0l0,0l0,0l0,0l0,0l0,0l0,0l0,0l0,0l-0.1-0.1l0,0l0,0l0,0l0,0l-0.1,0l0,0l0,0l0,0l0,0
	l0,0l0,0l0,0l0,0l0,0l0,0c0,0,0,0,0,0l0,0c-0.1,0-0.1-0.1-0.2-0.1l0,0l-0.1,0l0,0l0,0l0,0c0,0,0,0,0,0l0,0l0,0l0,0l0,0l0,0
	c-0.5-0.3-0.9-0.7-1.4-1C141.2,155.8,139.9,155.3,138.5,155.3z"/>
<path class="st18" d="M240.7,241.3c-7,0-12.7-5.7-12.7-12.7c0-5.5,3.5-10.3,8.7-12c1.1-0.4,29.4-10.5,29.4-38.7
	c0-19.2-8.7-28.8-9.1-29.2c-4.7-5.1-4.6-13,0.4-17.9c4.9-4.8,12.8-4.8,17.7,0.1c1.7,1.7,16.4,17.2,16.4,47
	c0,46.6-44.8,62.1-46.7,62.7C243.4,241,242,241.3,240.7,241.3z"/>
<path class="st18" d="M240.7,241.3c-7,0-12.7-5.7-12.7-12.7c0-5.5,3.5-10.3,8.7-12c1.1-0.4,29.4-10.5,29.4-38.7
	c0-19.2-8.7-28.8-9.1-29.2c-4.7-5.1-4.6-13,0.4-17.9c4.9-4.8,12.8-4.8,17.7,0.1c1.7,1.7,16.4,17.2,16.4,47
	c0,46.6-44.8,62.1-46.7,62.7C243.4,241,242,241.3,240.7,241.3z"/>
<path class="st22" d="M277.5,177.9c-6.1,0-11.4-4.4-12.5-10.4c-2.3-12.4-7.9-18.6-8.2-18.8c-4.7-5.1-4.6-13,0.4-17.9
	c4.9-4.8,12.8-4.8,17.7,0.1c1.2,1.2,11.4,11.8,15.1,32c1.3,6.9-3.3,13.5-10.2,14.7c0,0,0,0,0,0C279.1,177.8,278.3,177.9,277.5,177.9
	z"/>
<path class="st19" d="M354.7,203.2c0,7-5.7,12.7-12.7,12.7c-7,0-12.7-5.7-12.7-12.7c0-7,5.7-12.7,12.7-12.7
	C349.1,190.6,354.7,196.2,354.7,203.2z"/>
<path class="st18" d="M316.7,292c0,7-5.7,12.7-12.7,12.7c-7,0-12.7-5.7-12.7-12.7c0-7,5.7-12.7,12.7-12.7
	C311,279.3,316.7,285,316.7,292z"/>
<path class="st17" d="M253.3,336.3c0,3.5-2.8,6.3-6.3,6.3s-6.3-2.8-6.3-6.3s2.8-6.3,6.3-6.3S253.3,332.8,253.3,336.3z"/>
<path class="st17" d="M278.7,311c0,3.5-2.8,6.3-6.3,6.3c-3.5,0-6.3-2.8-6.3-6.3c0-3.5,2.8-6.3,6.3-6.3
	C275.9,304.7,278.7,307.5,278.7,311z"/>
<path class="st23" d="M329.4,215.9c0,7-5.7,12.7-12.7,12.7c-7,0-12.7-5.7-12.7-12.7s5.7-12.7,12.7-12.7
	C323.7,203.2,329.4,208.9,329.4,215.9z"/>
<path class="st18" d="M215.3,171.5c0,3.5-2.8,6.3-6.3,6.3s-6.3-2.8-6.3-6.3c0-3.5,2.8-6.3,6.3-6.3S215.3,168,215.3,171.5z"/>
<path class="st22" d="M380.1,260.3c0,3.5-2.8,6.3-6.3,6.3c-3.5,0-6.3-2.8-6.3-6.3s2.8-6.3,6.3-6.3
	C377.3,253.9,380.1,256.8,380.1,260.3z"/>
<path class="st22" d="M354.7,311c0,3.5-2.8,6.3-6.3,6.3c-3.5,0-6.3-2.8-6.3-6.3c0-3.5,2.8-6.3,6.3-6.3
	C351.9,304.7,354.7,307.5,354.7,311z"/>
<path class="st22" d="M380.1,285.6c0,3.5-2.8,6.3-6.3,6.3c-3.5,0-6.3-2.8-6.3-6.3c0-3.5,2.8-6.3,6.3-6.3
	C377.3,279.3,380.1,282.1,380.1,285.6z"/>
<path class="st18" d="M316.7,323.7c0,3.5-2.8,6.3-6.3,6.3s-6.3-2.8-6.3-6.3c0-3.5,2.8-6.3,6.3-6.3S316.7,320.2,316.7,323.7z"/>
<path class="st18" d="M202.6,336.3c0,3.5-2.8,6.3-6.3,6.3s-6.3-2.8-6.3-6.3s2.8-6.3,6.3-6.3S202.6,332.8,202.6,336.3z"/>
<path class="st22" d="M354.7,196.9c0,3.5-2.8,6.3-6.3,6.3c-3.5,0-6.3-2.8-6.3-6.3c0-3.5,2.8-6.3,6.3-6.3
	C351.9,190.6,354.7,193.4,354.7,196.9z"/>
<path class="st19" d="M190,317.4c0-16-15.8-35.4-26.9-45c-6.7-5.8-16.3-6.9-24.2-2.9c-8.4,4.3-13.2,13.3-12.1,22.6
	c2.8,25.6,25.2,38,25.2,38c-7.3,7.3-23.9,26.7-25.2,38.7c-1.2,12.3,7.8,23.3,20.1,24.6c6.8,0.7,13.5-1.8,18.3-6.6
	c16.1-16.3,24.9-43.9,24.9-43.9c-12.7,0-12.7-12.7-12.7-12.7S177.3,317.4,190,317.4z"/>
<path class="st21" d="M148.7,267.1L148.7,267.1L148.7,267.1l-0.3,0c-0.1,0-0.3,0-0.4,0h0c-0.1,0-0.2,0-0.3,0c-3.4,0.2-6,3-5.9,6.4
	c0.1,3.5,3,6.2,6.4,6.2c0,0,0.1,0,0.1,0l0.3,0c2.2,0,4.3,0.8,6,2.2c7.1,6.1,16.2,16.7,20.4,26.6c1.4,3.2,5.1,4.7,8.3,3.4
	c3.2-1.4,4.7-5.1,3.4-8.3c-0.6-1.4-1.3-2.8-2-4.2v0c-0.1-0.1-0.1-0.2-0.2-0.3l0,0c0,0,0-0.1-0.1-0.1l0,0c0,0,0-0.1-0.1-0.1l0,0l0,0
	l0,0l0-0.1l0,0l0,0l0,0l0-0.1l0,0l-0.1-0.1l0,0l0-0.1l0,0l0,0l0,0c0,0,0,0,0-0.1l0,0c0,0,0,0,0,0l0,0c0,0,0,0,0-0.1l0-0.1
	c0,0,0,0,0,0c0,0,0,0,0,0l0,0l0-0.1l0,0c0,0,0,0,0-0.1l0,0l0,0l0,0c0,0,0,0,0,0l0,0l0,0c0,0,0,0,0,0l0,0l0,0c0,0,0,0,0,0l0,0l0,0
	l0,0c0,0,0,0,0-0.1l0,0c0,0,0,0,0,0l0,0l0-0.1l0,0c0,0,0,0,0-0.1l0,0c0,0,0,0,0-0.1l0,0l0-0.1l0,0c0,0,0,0,0-0.1l0,0l0-0.1l0,0
	c0,0,0,0,0-0.1l0,0c0,0,0,0,0-0.1l0,0c0,0,0,0,0-0.1l0,0c0,0,0,0,0-0.1l0,0c0,0,0,0,0-0.1l0,0l-0.1-0.1l0,0c0,0-0.1-0.1-0.1-0.1l0,0
	c0,0-0.1-0.1-0.1-0.1v0c0-0.1-0.1-0.1-0.1-0.2c0,0-0.1-0.1-0.1-0.1l0,0c-5.2-8.5-11.6-16.2-19.1-22.8v0c0,0-0.1-0.1-0.1-0.1l0,0
	c0,0-0.1-0.1-0.1-0.1l0,0l0,0l0,0c0,0,0,0,0,0l0,0l0,0l0,0l0,0l0,0l0,0l0,0c0,0,0,0,0,0l0,0l0,0l0,0c0,0,0,0,0,0
	C159,268.9,154,267.1,148.7,267.1z"/>
<path class="st22" d="M342.1,165.2c0,7-5.7,12.7-12.7,12.7c-7,0-12.7-5.7-12.7-12.7s5.7-12.7,12.7-12.7
	C336.4,152.5,342.1,158.2,342.1,165.2z"/>
<path class="st23" d="M209,215.9c-1.1,0-28.1-0.2-42.5-14.5c-2.5-2.5-2.5-6.5,0-9c2.5-2.5,6.5-2.5,9,0
	c10.6,10.6,33.3,10.8,33.6,10.8c3.5,0,6.3,2.9,6.3,6.4C215.3,213.1,212.5,215.9,209,215.9z"/>
<path class="st14" d="M171.7,329c-3.5,0-6.3,2.8-6.3,6.3c0,0.6,0.1,1.1,0.2,1.7c1.3,5,4.1,9.4,8,12.7c-3.4,7.6-8.6,17.9-15.4,25.7
	c-0.1,0.1-0.1,0.1-0.2,0.2c-0.1,0.1-0.1,0.1-0.2,0.2c-0.6,0.6-1.2,1.3-1.8,1.9c-2.3,2.3-5.6,3.4-8.9,2.8c-3.4-0.7-6.8,1.6-7.4,5
	c-0.7,3.4,1.6,6.7,5,7.4c0.3,0.1,0.7,0.1,1,0.2l0,0l0,0h0l0,0c0,0,0.1,0,0.1,0h0l0,0l0,0h0l0,0l0,0l0,0h0l0,0l0,0l0,0l0,0l0,0l0,0
	l0.1,0l0,0l0,0l0,0l0,0l0,0l0,0h0c0,0,0.1,0,0.1,0h0l0,0h0l0,0h0l0,0l0,0c0,0,0.1,0,0.1,0h0l0,0h0l0,0l0,0c0,0,0.1,0,0.1,0l0,0l0,0
	h0l0,0l0,0c0,0,0.1,0,0.1,0h0l0,0h0l0,0h0c0,0,0.1,0,0.1,0h0l0,0l0,0h0l0,0c0,0,0.1,0,0.1,0h0l0,0h0l0,0h0c0,0,0.1,0,0.1,0h0l0,0h0
	l0,0h0c0,0,0.1,0,0.1,0h0l0,0h0l0,0h0l0,0h0c0,0,0.1,0,0.1,0l0,0h0l0,0h0l0,0h0.1l0,0h0.1l0,0h0.1l0,0h0.1l0,0h0.1l0,0h0.1l0,0h0.2
	l0,0h0.1c6,0,11.8-2.4,16.1-6.7l0.1-0.1l0,0l0,0l0,0c0,0,0,0,0.1-0.1l0,0c0.2-0.2,0.3-0.3,0.5-0.5l0,0c0,0,0,0,0,0l0,0l0,0l0,0
	c0,0,0,0,0,0l0,0l0,0l0,0l0,0l0,0v0c0.4-0.5,0.9-0.9,1.3-1.4c0.1-0.1,0.2-0.2,0.2-0.3c0.1-0.1,0.2-0.2,0.2-0.3
	c4-4.7,7.6-9.9,10.7-15.3c0.1-0.1,0.1-0.2,0.2-0.4l0,0l0,0l0,0l0,0l0,0l0,0l0,0l0,0c0-0.1,0.1-0.1,0.1-0.2l0,0l0,0l0,0l0,0l0,0l0,0
	l0,0l0,0l0,0l0,0l0,0l0,0c0-0.1,0.1-0.2,0.1-0.2l0,0l0,0l0,0l0,0l0,0l0,0l0-0.1l0,0l0-0.1l0,0c0,0,0.1-0.1,0.1-0.1l0,0l0,0l0,0l0,0
	l0,0l0,0l0,0l0,0l0,0l0,0l0,0v0c0,0,0-0.1,0-0.1v0l0,0v0c0,0,0-0.1,0-0.1l0,0l0,0v0c0,0,0,0,0,0l0,0l0,0l0,0c0-0.1,0.1-0.1,0.1-0.2
	l0,0l0,0l0,0c0,0,0-0.1,0.1-0.1l0,0l0,0l0,0l0,0l0,0c0-0.1,0.1-0.1,0.1-0.2l0,0l0,0l0,0l0,0l0,0l0,0l0-0.1l0,0c0,0,0,0,0-0.1l0,0
	l0,0l0,0c0-0.1,0.1-0.1,0.1-0.2l0,0c3.9-7.3,7.2-14.8,9.8-22.6h0c-7.9,0-10.9-5-12-8.7v0l0,0l0,0l0,0l0,0l0,0l0,0h0l0,0l0,0l0,0l0,0
	l0,0l0,0l0,0l0,0l0,0l0,0l0,0l0,0l0,0l0,0l0,0l0,0C177.1,330.9,174.6,329,171.7,329z"/>
<path class="st21" d="M170.9,304.7h12.7c3.5,0,6.3,2.8,6.3,6.3c0,3.5-2.8,6.3-6.3,6.3h-12.7c-3.5,0-6.3-2.8-6.3-6.3
	C164.6,307.5,167.4,304.7,170.9,304.7z"/>
<path class="st14" d="M158.3,330h12.7c3.5,0,6.3,2.8,6.3,6.3s-2.8,6.3-6.3,6.3h-12.7c-3.5,0-6.3-2.8-6.3-6.3S154.8,330,158.3,330z"
	/>
<path class="st14" d="M145.6,355.4h25.4c3.5,0,6.3,2.8,6.3,6.3s-2.8,6.3-6.3,6.3h-25.4c-3.5,0-6.3-2.8-6.3-6.3
	S142.1,355.4,145.6,355.4z"/>
<path class="st21" d="M132.9,279.3h25.4c3.5,0,6.3,2.8,6.3,6.3c0,3.5-2.8,6.3-6.3,6.3h-25.4c-3.5,0-6.3-2.8-6.3-6.3
	C126.6,282.1,129.4,279.3,132.9,279.3z"/>
<path class="st21" d="M151.9,298.3c0,3.5-2.8,6.3-6.3,6.3c-3.5,0-6.3-2.8-6.3-6.3c0-3.5,2.8-6.3,6.3-6.3
	C149.1,292,151.9,294.8,151.9,298.3z"/>
<path class="st14" d="M151.9,349c0,3.5-2.8,6.3-6.3,6.3c-3.5,0-6.3-2.8-6.3-6.3s2.8-6.3,6.3-6.3C149.1,342.7,151.9,345.5,151.9,349z
	"/>
</svg>
