<?xml version="1.0" encoding="utf-8"?>
<!-- Generator: Adobe Illustrator 24.0.1, SVG Export Plug-In . SVG Version: 6.00 Build 0)  -->
<svg version="1.1" id="Layer_1" xmlns="http://www.w3.org/2000/svg" xmlns:xlink="http://www.w3.org/1999/xlink" x="0px" y="0px"
	 viewBox="0 0 512 512" style="enable-background:new 0 0 512 512;" xml:space="preserve">
<style type="text/css">
	.st0{display:none;}
	.st1{display:inline;fill:#200A7F;stroke:#18E5EA;stroke-width:20;stroke-miterlimit:10;}
	.st2{display:inline;fill:#EF0B79;}
	.st3{display:inline;fill:#18E5EA;}
	.st4{display:inline;}
	.st5{fill:#E9F21C;}
	.st6{display:inline;fill:none;}
	.st7{display:inline;fill:#EF3A24;}
	.st8{font-family:'MyriadPro-Regular';}
	.st9{font-size:250px;}
	.st10{display:inline;fill:#FFFFFF;}
	.st11{fill:#C4C6C8;}
	.st12{fill:url(#SVGID_1_);}
	.st13{fill:url(#SVGID_2_);stroke:#E8E8E8;stroke-width:3;stroke-miterlimit:10;}
	.st14{fill:#556080;}
	.st15{fill:#8697CB;}
	.st16{fill:#2C2F38;}
</style>
<g id="Layer_3" class="st0">
	<path class="st1" d="M401.1,212.2c5.1,15.3,7.9,31.7,7.9,48.8c0,85.3-69.2,154.5-154.5,154.5S100,346.3,100,261
		s69.2-154.5,154.5-154.5c51.2,0,96.6,24.9,124.7,63.3"/>
	<path class="st2" d="M333.4,255.2c0,4.2-3.3,7.7-7.4,7.7H174.9c-4.1,0-7.4-3.4-7.4-7.7l0,0c0-4.2,3.3-7.7,7.4-7.7H326
		C330.1,247.5,333.4,250.9,333.4,255.2L333.4,255.2z"/>
	<path class="st2" d="M333.4,284.8c0,4.2-3.3,7.6-7.4,7.6H174.9c-4.1,0-7.4-3.4-7.4-7.6l0,0c0-4.2,3.3-7.6,7.4-7.6H326
		C330.1,277.1,333.4,280.6,333.4,284.8L333.4,284.8z"/>
	<path class="st2" d="M333.4,313c0,4.2-3.3,7.7-7.4,7.7H174.9c-4.1,0-7.4-3.4-7.4-7.7l0,0c0-4.2,3.3-7.6,7.4-7.6H326
		C330.1,305.4,333.4,308.8,333.4,313L333.4,313z"/>
	<path class="st2" d="M333.4,338.4c0,4.2-3.3,7.7-7.4,7.7H174.9c-4.1,0-7.4-3.4-7.4-7.7l0,0c0-4.2,3.3-7.6,7.4-7.6H326
		C330.1,330.7,333.4,334.1,333.4,338.4L333.4,338.4z"/>
	<polygon class="st3" points="395,191.5 320.2,165.2 380.4,113.5 	"/>
	<g class="st4">
		<g>
			<g>
				<path class="st5" d="M241.5,239.2c-2.3,0-4.4-1.1-5.8-2.9l-18.8-24.8c-2.4-3.2-1.8-7.8,1.4-10.3c3.2-2.4,7.8-1.8,10.3,1.4
					l12.3,16.3l31-49.8c2.1-3.4,6.6-4.5,10.1-2.3c3.4,2.1,4.5,6.6,2.3,10.1l-36.7,58.9c-1.3,2-3.5,3.3-5.9,3.4
					C241.7,239.2,241.6,239.2,241.5,239.2z"/>
			</g>
		</g>
	</g>
</g>
<g id="Layer_2_2_" class="st0">
	<rect x="121" y="171.5" class="st6" width="298" height="251"/>
	<text transform="matrix(1 0 0 1 121 348.9979)" class="st7 st8 st9">24</text>
	<circle class="st10" cx="138.3" cy="91.8" r="17.3"/>
	<circle class="st10" cx="185.3" cy="91.8" r="17.3"/>
	<circle class="st10" cx="232.3" cy="91.8" r="17.3"/>
	<circle class="st10" cx="278.3" cy="91.8" r="17.3"/>
	<circle class="st10" cx="323.3" cy="91.8" r="17.3"/>
	<circle class="st10" cx="368.3" cy="91.8" r="17.3"/>
</g>
<g>
	<path class="st11" d="M350.3,54.5H161.7c-17.9,0-34.5,9.6-43.4,25.1L24,242.9c-9,15.5-9,34.6,0,50.2l94.3,163.3
		c9,15.5,25.5,25.1,43.4,25.1h188.5c17.9,0,34.5-9.6,43.4-25.1L488,293.1c9-15.5,9-34.6,0-50.2L393.7,79.6
		C384.8,64.1,368.2,54.5,350.3,54.5z"/>
</g>
<g>
	
		<linearGradient id="SVGID_1_" gradientUnits="userSpaceOnUse" x1="18.15" y1="-4897.9507" x2="495.6125" y2="-4897.9507" gradientTransform="matrix(1 0 0 -1 0 -4644.0005)">
		<stop  offset="0" style="stop-color:#F37E5F"/>
		<stop  offset="0.5" style="stop-color:#EC1C24"/>
		<stop  offset="1" style="stop-color:#CF232A"/>
	</linearGradient>
	<path class="st12" d="M491.1,274.8c-0.7,1.4-1.4,2.9-2.2,4.3l-94.3,163.3c-0.5,1-1.1,1.9-1.7,2.8c-8.3,12.4-21.7,20.5-36.5,22
		c-1.7,0.2-3.4,0.3-5.2,0.3H162.6c-17.9,0-34.5-9.6-43.5-25.1l-15.3-26.6l-70.4-122L24.9,279c-9-15.5-9-34.6,0-50.2l6.5-11.3
		l22.3-38.6l65.5-113.4c9-15.5,25.5-25.1,43.5-25.1h188.5c17.9,0,34.5,9.6,43.5,25.1l20.7,35.9l6.3,10.9l25.3,43.8l2.4,4.2l5.5,9.6
		l7,12l27.1,47c1.2,2,2.2,4.1,3,6.2C497.1,247.9,496.8,262.3,491.1,274.8z"/>
	
		<linearGradient id="SVGID_2_" gradientUnits="userSpaceOnUse" x1="18.15" y1="-79.3412" x2="495.6125" y2="-79.3412" gradientTransform="matrix(1 0 0 1 0 333.2912)">
		<stop  offset="0" style="stop-color:#F37E5F"/>
		<stop  offset="0.5" style="stop-color:#EC1C24"/>
		<stop  offset="1" style="stop-color:#CF232A"/>
	</linearGradient>
	<path class="st13" d="M491.1,274.8c-0.7,1.4-1.4,2.9-2.2,4.3l-94.3,163.3c-0.5,1-1.1,1.9-1.7,2.8c-8.3,12.4-21.7,20.5-36.5,22
		c-1.7,0.2-3.4,0.3-5.2,0.3H162.6c-17.9,0-34.5-9.6-43.5-25.1l-15.3-26.6l-70.4-122L24.9,279c-9-15.5-9-34.6,0-50.2l6.5-11.3
		l22.3-38.6l65.5-113.4c9-15.5,25.5-25.1,43.5-25.1h188.5c17.9,0,34.5,9.6,43.5,25.1l20.7,35.9l6.3,10.9l25.3,43.8l2.4,4.2l5.5,9.6
		l7,12l27.1,47c1.2,2,2.2,4.1,3,6.2C497.1,247.9,496.8,262.3,491.1,274.8z"/>
</g>
<g id="Page-1">
	<g id="_x30_21---Lightweight-Fabric">
		<path id="Shape" class="st14" d="M353.4,117.4c-19.8,0.2-39.4,3.5-58.3,9.6c-0.5,0.2-1,0.5-1.3,0.9c-6.7,8.2-11.7,17.7-14.8,27.9
			c-0.7,2.8-3.6,4.6-6.4,3.9c-2.8-0.7-4.6-3.6-3.9-6.4c1.2-4.5,2.8-8.9,4.9-13.1c0.5-1,0.3-2.2-0.4-3c-0.8-0.8-1.9-1.1-3-0.6
			c-12.8,5.8-25.1,12.7-36.7,20.7c-0.4,0.2-0.7,0.6-0.8,1c-7.5,15.4-11.5,32.2-11.9,49.3c0,2.9-2.4,5.3-5.3,5.3
			c-2.9,0-5.3-2.4-5.3-5.3c0.1-9.7,1.3-19.4,3.8-28.7c0.3-1.1-0.2-2.3-1.2-2.9c-1-0.6-2.3-0.5-3.2,0.4c-5.2,4.7-10.2,9.7-14.8,14.9
			c-0.3,0.3-0.5,0.7-0.6,1.1c-4.8,19-8.2,38.3-10.3,57.8c-0.1,1-0.7,1.9-1.7,2.3c-0.9,0.4-2,0.2-2.8-0.5
			c-5.6-4.9-9.5-11.3-11.2-18.6c-0.2-0.9-0.8-1.7-1.7-2s-1.9-0.1-2.6,0.5c-10.1,9-35.6,39.4-22.7,108.3l22.5,18.8
			c11.2,2.5,28,2.1,53.1-5.3c1.1-0.3,1.9-1.3,1.9-2.4c0.1-1.1-0.6-2.2-1.6-2.6c-7.6-3.5-13.4-10-15.9-18c-0.4-1-0.1-2.1,0.7-2.9
			c0.8-0.7,1.9-0.9,2.9-0.5c16.8,7.2,35.6,8.1,53,2.3c22.8-16.6,44.4-34.7,64.8-54.2c0.7-0.7,1-1.8,0.7-2.7c-0.3-1-1.2-1.6-2.2-1.8
			c-13.3-1.1-26-6.2-36.4-14.7c-0.9-0.8-1.1-2-0.6-3.1c0.5-1,1.6-1.7,2.7-1.5c13.2,2.2,40.3,4.9,55.9-6.8
			c8.1-6.3,15.7-13.3,22.7-20.8c0.8-0.8,1-2.1,0.4-3.1s-1.7-1.6-2.9-1.3c-11.9,2.6-24,4-36.2,4.1c-2.9,0-5.3-2.4-5.3-5.3
			c0-2.9,2.4-5.3,5.3-5.3c19.1-0.2,38.1-3.7,56.1-10.1c0.4-0.2,0.9-0.3,1.3-0.3c6.4-7.8,12.2-15.3,16.8-21.4
			c10.2-14.2,18.8-29.5,25.6-45.6c0.5-1.2,0-2.6-1.1-3.3C419.3,128.3,397.2,117.4,353.4,117.4z"/>
		<path id="Shape_1_" class="st15" d="M426.8,135.4c-0.1,0.2-0.2,0.4-0.2,0.5c-51.1,9.8-99.2,31.5-140.5,63.2
			c-41.7,32.1-78.5,70.1-109.3,112.7c-9,11.8-17.3,24.1-24.9,36.9l-10.4-8.7c-12.9-68.9,12.6-99.3,22.7-108.3
			c0.7-0.6,1.7-0.8,2.6-0.5s1.5,1.1,1.7,2c1.7,7.2,5.7,13.7,11.2,18.6c0.7,0.7,1.8,0.9,2.8,0.5c0.9-0.4,1.6-1.3,1.6-2.3
			c2.1-19.5,5.5-38.8,10.3-57.8c0.1-0.4,0.3-0.8,0.6-1.1c4.7-5.2,9.7-10.2,14.9-14.9c0.9-0.8,2.1-0.9,3.1-0.3c1,0.6,1.5,1.8,1.2,2.9
			c-2.5,9.4-3.7,19-3.8,28.7c0,2.9,2.4,5.3,5.3,5.3c2.9,0,5.3-2.4,5.3-5.3c0.3-17.1,4.4-34,11.9-49.3c0.2-0.4,0.5-0.7,0.8-1
			c11.6-8,23.8-14.9,36.7-20.7c1-0.5,2.2-0.2,3,0.6c0.8,0.8,0.9,2,0.4,3c-2.1,4.2-3.8,8.6-4.9,13.1c-0.5,1.9,0,3.9,1.4,5.2
			c1.4,1.4,3.4,1.9,5.3,1.3s3.3-2.1,3.7-4c3.1-10.2,8.1-19.6,14.8-27.8c0.3-0.5,0.8-0.8,1.3-1c18.8-6.1,38.5-9.4,58.3-9.6
			c43.8,0,65.9,10.9,72.2,14.6C426.8,132.7,427.3,134.2,426.8,135.4z"/>
		<path id="Shape_2_" class="st16" d="M129.5,417.4c-1.7,1.3-3.9,1.5-5.8,0.5s-3-3-2.8-5.1c2.4-25.3,9.4-49.9,20.5-72.7
			c17.9-35.8,92.6-124.7,163.4-157.8c2.5-1.2,5.4-0.3,6.8,2.1c1.4,2.4,0.8,5.4-1.4,7c-39.1,27.9-104.5,83.8-147.6,169.9
			c-5.5,11.2-10.1,22.8-13.7,34.8c-1.6,5.1-4.6,9.6-8.8,13L129.5,417.4z"/>
	</g>
</g>
</svg>
