<?xml version="1.0" encoding="utf-8"?>
<!-- Generator: Adobe Illustrator 24.0.1, SVG Export Plug-In . SVG Version: 6.00 Build 0)  -->
<svg version="1.1" id="Layer_1" xmlns="http://www.w3.org/2000/svg" xmlns:xlink="http://www.w3.org/1999/xlink" x="0px" y="0px"
	 viewBox="0 0 512 512" style="enable-background:new 0 0 512 512;" xml:space="preserve">
<style type="text/css">
	.st0{display:none;}
	.st1{display:inline;fill:#200A7F;stroke:#18E5EA;stroke-width:20;stroke-miterlimit:10;}
	.st2{display:inline;fill:#EF0B79;}
	.st3{display:inline;fill:#18E5EA;}
	.st4{display:inline;}
	.st5{fill:#E9F21C;}
	.st6{display:inline;fill:none;}
	.st7{display:inline;fill:#EF3A24;}
	.st8{font-family:'MyriadPro-Regular';}
	.st9{font-size:250px;}
	.st10{display:inline;fill:#FFFFFF;}
	.st11{fill:#C4C6C8;}
	.st12{fill:#1B5E08;}
	.st13{fill:#B76CFF;stroke:#E8E8E8;stroke-width:3;stroke-miterlimit:10;}
	.st14{fill:none;}
	.st15{fill:#FFFFFF;}
	.st16{font-family:'MyriadPro-Bold';}
	.st17{font-size:100px;}
	.st18{fill:#FF3162;}
	.st19{fill:#7FFF55;}
	.st20{fill:#FFEC06;}
	.st21{fill:#339EFF;}
</style>
<g id="Layer_3" class="st0">
	<path class="st1" d="M401.1,212.2c5.1,15.3,7.9,31.7,7.9,48.8c0,85.3-69.2,154.5-154.5,154.5S100,346.3,100,261
		s69.2-154.5,154.5-154.5c51.2,0,96.6,24.9,124.7,63.3"/>
	<path class="st2" d="M333.4,255.2c0,4.2-3.3,7.7-7.4,7.7H174.9c-4.1,0-7.4-3.4-7.4-7.7l0,0c0-4.2,3.3-7.7,7.4-7.7H326
		C330.1,247.5,333.4,250.9,333.4,255.2L333.4,255.2z"/>
	<path class="st2" d="M333.4,284.8c0,4.2-3.3,7.6-7.4,7.6H174.9c-4.1,0-7.4-3.4-7.4-7.6l0,0c0-4.2,3.3-7.6,7.4-7.6H326
		C330.1,277.1,333.4,280.6,333.4,284.8L333.4,284.8z"/>
	<path class="st2" d="M333.4,313c0,4.2-3.3,7.7-7.4,7.7H174.9c-4.1,0-7.4-3.4-7.4-7.7l0,0c0-4.2,3.3-7.6,7.4-7.6H326
		C330.1,305.4,333.4,308.8,333.4,313L333.4,313z"/>
	<path class="st2" d="M333.4,338.4c0,4.2-3.3,7.7-7.4,7.7H174.9c-4.1,0-7.4-3.4-7.4-7.7l0,0c0-4.2,3.3-7.6,7.4-7.6H326
		C330.1,330.7,333.4,334.1,333.4,338.4L333.4,338.4z"/>
	<polygon class="st3" points="395,191.5 320.2,165.2 380.4,113.5 	"/>
	<g class="st4">
		<g>
			<g>
				<path class="st5" d="M241.5,239.2c-2.3,0-4.4-1.1-5.8-2.9l-18.8-24.8c-2.4-3.2-1.8-7.8,1.4-10.3c3.2-2.4,7.8-1.8,10.3,1.4
					l12.3,16.3l31-49.8c2.1-3.4,6.6-4.5,10.1-2.3c3.4,2.1,4.5,6.6,2.3,10.1l-36.7,58.9c-1.3,2-3.5,3.3-5.9,3.4
					C241.7,239.2,241.6,239.2,241.5,239.2z"/>
			</g>
		</g>
	</g>
</g>
<g id="Layer_2_2_" class="st0">
	<rect x="121" y="171.5" class="st6" width="298" height="251"/>
	<text transform="matrix(1 0 0 1 121 348.9979)" class="st7 st8 st9">24</text>
	<circle class="st10" cx="138.3" cy="91.8" r="17.3"/>
	<circle class="st10" cx="185.3" cy="91.8" r="17.3"/>
	<circle class="st10" cx="232.3" cy="91.8" r="17.3"/>
	<circle class="st10" cx="278.3" cy="91.8" r="17.3"/>
	<circle class="st10" cx="323.3" cy="91.8" r="17.3"/>
	<circle class="st10" cx="368.3" cy="91.8" r="17.3"/>
</g>
<g>
	<path class="st11" d="M350.3,54.5H161.7c-17.9,0-34.5,9.6-43.4,25.1L24,242.9c-9,15.5-9,34.6,0,50.2l94.3,163.3
		c9,15.5,25.5,25.1,43.4,25.1h188.5c17.9,0,34.5-9.6,43.4-25.1L488,293.1c9-15.5,9-34.6,0-50.2L393.7,79.6
		C384.8,64.1,368.2,54.5,350.3,54.5z"/>
</g>
<g>
	<path class="st12" d="M491.1,274.8c-0.7,1.4-1.4,2.9-2.2,4.3l-10.3,17.8l-62.1,107.5l-22,38c-0.5,1-1.1,1.9-1.7,2.8
		c-8.3,12.4-21.7,20.5-36.5,22c-1.7,0.2-3.4,0.3-5.2,0.3H162.6c-5.9,0-11.6-1-17-3c-11-4-20.5-11.7-26.5-22.1l-15.3-26.6L81,376.2
		l-47.5-82.4L24.9,279c-9-15.5-9-34.6,0-50.2l6.5-11.3l22.3-38.6l65.5-113.4c9-15.5,25.5-25.1,43.5-25.1h188.5
		c5.2,0,10.4,0.8,15.2,2.4c11.8,3.7,21.9,11.8,28.3,22.7l20.7,35.9l6.3,10.9l25.3,43.8l2.4,4.2l5.5,9.6l7,12l27.1,47
		c1.2,2,2.2,4.1,3,6.2C497.1,247.9,496.8,262.3,491.1,274.8z"/>
	<path class="st13" d="M491.1,274.8c-0.7,1.4-1.4,2.9-2.2,4.3l-10.3,17.8l-62.1,107.5l-22,38c-0.5,1-1.1,1.9-1.7,2.8
		c-8.3,12.4-21.7,20.5-36.5,22c-1.7,0.2-3.4,0.3-5.2,0.3H162.6c-5.9,0-11.6-1-17-3c-11-4-20.5-11.7-26.5-22.1l-15.3-26.6L81,376.2
		l-47.5-82.4L24.9,279c-9-15.5-9-34.6,0-50.2l6.5-11.3l22.3-38.6l65.5-113.4c9-15.5,25.5-25.1,43.5-25.1h188.5
		c5.2,0,10.4,0.8,15.2,2.4c11.8,3.7,21.9,11.8,28.3,22.7l20.7,35.9l6.3,10.9l25.3,43.8l2.4,4.2l5.5,9.6l7,12l27.1,47
		c1.2,2,2.2,4.1,3,6.2C497.1,247.9,496.8,262.3,491.1,274.8z"/>
</g>
<rect x="58.4" y="93.3" class="st14" width="411" height="295"/>
<text transform="matrix(14.7626 0 0 1 128.0681 283.5657)" class="st15 st16 st17"> </text>
<rect x="130.9" y="203.3" class="st14" width="334" height="91"/>
<path class="st18" d="M357.4,247.3c-16.4,28.3-37.1,56.4-60.5,83.3c-45,51.9-99.6,99.1-151.3,134c-11-4-20.5-11.7-26.5-22.1
	l-15.3-26.6L81,376.2l-47.5-82.4L24.9,279c-9-15.5-9-34.6,0-50.2l6.5-11.3l22.3-38.6l65.5-113.4c9-15.5,25.5-25.1,43.5-25.1h188.5
	c5.2,0,10.4,0.8,15.2,2.4c7.5,9.1,13.7,18.9,18.5,29.4C408.2,123.6,393.1,185.7,357.4,247.3z"/>
<path class="st19" d="M478.6,296.9l-62.1,107.5l-22,38c-0.5,1-1.1,1.9-1.7,2.8c-8.3,12.4-21.7,20.5-36.5,22
	c-1.7,0.2-3.4,0.3-5.2,0.3H162.6c-5.9,0-11.6-1-17-3c-11-4-20.5-11.7-26.5-22.1l-15.3-26.6L81,376.2c9.4-27.6,23.8-53.4,44.7-75.5
	c24.7-26.1,54.7-43.1,87.5-52.6c10.1-2.9,20.4-5.1,31-6.7c13.3-1.9,26.8-2.8,40.5-2.8c24,0.1,48.5,3.2,72.7,8.7
	C400.3,257,442.2,274.5,478.6,296.9z"/>
<path class="st20" d="M491.1,274.8c-0.7,1.4-1.4,2.9-2.2,4.3l-10.3,17.8l-62.1,107.5c-45.1-14.9-87.7-40.5-119.7-73.8
	c-7.7-8-14.8-16.5-21.2-25.3c-8.1-11.2-14.6-22.6-19.9-33.8c-4.9-10.3-8.7-20.4-11.7-30c-4.6-14.9-7.3-28.8-8.8-40.8
	c-2.2-17.2-2-30.6-1.7-37.4c1.6-42.1,15-84.9,36.3-122.7h81.2c5.2,0,10.4,0.8,15.2,2.4c11.8,3.7,21.9,11.8,28.3,22.7l20.7,35.9
	l6.3,10.9l25.3,43.8l2.4,4.2l5.5,9.6l7,12l27.1,47c1.2,2,2.2,4.1,3,6.2C497.1,247.9,496.8,262.3,491.1,274.8z"/>
<circle class="st21" cx="247.9" cy="235.3" r="36.9"/>
</svg>
