<?xml version="1.0" encoding="utf-8"?>
<!-- Generator: Adobe Illustrator 24.0.1, SVG Export Plug-In . SVG Version: 6.00 Build 0)  -->
<svg version="1.1" id="Layer_1" xmlns="http://www.w3.org/2000/svg" xmlns:xlink="http://www.w3.org/1999/xlink" x="0px" y="0px"
	 viewBox="0 0 512 512" style="enable-background:new 0 0 512 512;" xml:space="preserve">
<style type="text/css">
	.st0{display:none;}
	.st1{display:inline;fill:#200A7F;stroke:#18E5EA;stroke-width:20;stroke-miterlimit:10;}
	.st2{display:inline;fill:#EF0B79;}
	.st3{display:inline;fill:#18E5EA;}
	.st4{display:inline;}
	.st5{fill:#E9F21C;}
	.st6{display:inline;fill:none;}
	.st7{display:inline;fill:#EF3A24;}
	.st8{font-family:'MyriadPro-Regular';}
	.st9{font-size:250px;}
	.st10{display:inline;fill:#FFFFFF;}
	.st11{fill:#C4C6C8;}
	.st12{fill:url(#SVGID_1_);}
	.st13{fill:#561815;}
	.st14{fill:none;stroke:#000000;stroke-width:9;stroke-miterlimit:10;}
	.st15{fill:url(#SVGID_2_);}
	.st16{display:none;fill:#FFFFFF;}
	.st17{fill:none;stroke:url(#SVGID_3_);stroke-miterlimit:10;}
	.st18{fill:#FFFFFF;}
	.st19{fill:#353535;}
	.st20{fill:url(#SVGID_4_);}
	.st21{fill:#E2E2E2;}
</style>
<g id="Layer_3" class="st0">
	<path class="st1" d="M401.1,212.2c5.1,15.3,7.9,31.7,7.9,48.8c0,85.3-69.2,154.5-154.5,154.5S100,346.3,100,261
		s69.2-154.5,154.5-154.5c51.2,0,96.6,24.9,124.7,63.3"/>
	<path class="st2" d="M333.4,255.2c0,4.2-3.3,7.7-7.4,7.7H174.9c-4.1,0-7.4-3.4-7.4-7.7l0,0c0-4.2,3.3-7.7,7.4-7.7H326
		C330.1,247.5,333.4,250.9,333.4,255.2L333.4,255.2z"/>
	<path class="st2" d="M333.4,284.8c0,4.2-3.3,7.6-7.4,7.6H174.9c-4.1,0-7.4-3.4-7.4-7.6l0,0c0-4.2,3.3-7.6,7.4-7.6H326
		C330.1,277.1,333.4,280.6,333.4,284.8L333.4,284.8z"/>
	<path class="st2" d="M333.4,313c0,4.2-3.3,7.7-7.4,7.7H174.9c-4.1,0-7.4-3.4-7.4-7.7l0,0c0-4.2,3.3-7.6,7.4-7.6H326
		C330.1,305.4,333.4,308.8,333.4,313L333.4,313z"/>
	<path class="st2" d="M333.4,338.4c0,4.2-3.3,7.7-7.4,7.7H174.9c-4.1,0-7.4-3.4-7.4-7.7l0,0c0-4.2,3.3-7.6,7.4-7.6H326
		C330.1,330.7,333.4,334.1,333.4,338.4L333.4,338.4z"/>
	<polygon class="st3" points="395,191.5 320.2,165.2 380.4,113.5 	"/>
	<g class="st4">
		<g>
			<g>
				<path class="st5" d="M241.5,239.2c-2.3,0-4.4-1.1-5.8-2.9l-18.8-24.8c-2.4-3.2-1.8-7.8,1.4-10.3c3.2-2.4,7.8-1.8,10.3,1.4
					l12.3,16.3l31-49.8c2.1-3.4,6.6-4.5,10.1-2.3c3.4,2.1,4.5,6.6,2.3,10.1l-36.7,58.9c-1.3,2-3.5,3.3-5.9,3.4
					C241.7,239.2,241.6,239.2,241.5,239.2z"/>
			</g>
		</g>
	</g>
</g>
<g id="Layer_2_2_" class="st0">
	<rect x="121" y="171.5" class="st6" width="298" height="251"/>
	<text transform="matrix(1 0 0 1 121 348.9979)" class="st7 st8 st9">24</text>
	<circle class="st10" cx="138.3" cy="91.8" r="17.3"/>
	<circle class="st10" cx="185.3" cy="91.8" r="17.3"/>
	<circle class="st10" cx="232.3" cy="91.8" r="17.3"/>
	<circle class="st10" cx="278.3" cy="91.8" r="17.3"/>
	<circle class="st10" cx="323.3" cy="91.8" r="17.3"/>
	<circle class="st10" cx="368.3" cy="91.8" r="17.3"/>
</g>
<g>
	<path class="st11" d="M350.3,54.5H161.7c-17.9,0-34.5,9.6-43.4,25.1L24,242.9c-9,15.5-9,34.6,0,50.2l94.3,163.3
		c9,15.5,25.5,25.1,43.4,25.1h188.5c17.9,0,34.5-9.6,43.4-25.1L488,293.1c9-15.5,9-34.6,0-50.2L393.7,79.6
		C384.8,64.1,368.2,54.5,350.3,54.5z"/>
</g>
<g>
	<radialGradient id="SVGID_1_" cx="256.8778" cy="253.95" r="226.4887" gradientUnits="userSpaceOnUse">
		<stop  offset="0" style="stop-color:#F37E5F"/>
		<stop  offset="0.5" style="stop-color:#EC1C24"/>
		<stop  offset="1" style="stop-color:#CF232A"/>
	</radialGradient>
	<path class="st12" d="M495.6,255.8c-0.2,6.5-1.7,13-4.5,19c-0.3,0.5-0.5,1-0.8,1.5c-0.5,0.9-0.9,1.9-1.4,2.8L399,434.8l-4.4,7.6
		c-0.5,1-1.1,1.9-1.7,2.8c-8.3,12.4-21.7,20.5-36.5,22c-1.7,0.2-3.4,0.3-5.2,0.3H162.6c-8.8,0-17.3-2.3-24.7-6.5h0
		c-0.4-0.2-0.9-0.5-1.3-0.8c-7.1-4.3-13.2-10.4-17.5-17.8l-15.3-26.6l-70.4-122L24.9,279c-1.1-1.8-2-3.7-2.8-5.7
		c-3.5-8.2-4.6-17.1-3.5-25.7c0.8-6.5,3-12.9,6.4-18.8l6.5-11.3l22.3-38.6L70,150.8l37.6-65.1l11.7-20.2c9-15.5,25.5-25.1,43.5-25.1
		h188.5c9.4,0,18.5,2.7,26.3,7.4c7,4.3,13,10.3,17.2,17.7l20.7,35.9l6.3,10.9l2.2,3.9l23.1,39.9l2.4,4.2l5.5,9.6l7,12l27.1,47
		c1.2,2,2.2,4.1,3,6.2C494.6,241.7,495.8,248.8,495.6,255.8z"/>
	<path class="st13" d="M495.6,255.8c-0.2,6.5-1.7,13-4.5,19c-0.3,0.5-0.5,1-0.8,1.5c-0.5,0.9-0.9,1.9-1.4,2.8L399,434.8l-4.4,7.6
		c-0.5,1-1.1,1.9-1.7,2.8c-8.3,12.4-21.7,20.5-36.5,22c-1.7,0.2-3.4,0.3-5.2,0.3H162.6c-8.8,0-17.3-2.3-24.7-6.5h0
		c-0.4-0.2-0.9-0.5-1.3-0.8c-7.1-4.3-13.2-10.4-17.5-17.8l-15.3-26.6l-70.4-122L24.9,279c-1.1-1.8-2-3.7-2.8-5.7
		c-3.5-8.2-4.6-17.1-3.5-25.7c0.8-6.5,3-12.9,6.4-18.8l6.5-11.3l22.3-38.6L70,150.8l37.6-65.1l11.7-20.2c9-15.5,25.5-25.1,43.5-25.1
		h188.5c9.4,0,18.5,2.7,26.3,7.4c7,4.3,13,10.3,17.2,17.7l20.7,35.9l6.3,10.9l2.2,3.9l23.1,39.9l2.4,4.2l5.5,9.6l7,12l27.1,47
		c1.2,2,2.2,4.1,3,6.2C494.6,241.7,495.8,248.8,495.6,255.8z"/>
</g>
<path class="st14" d="M385.8,390.4"/>
<path class="st14" d="M130.7,162.6"/>
<path class="st14" d="M140.1,379.6"/>
<path class="st14" d="M376.4,144.1"/>
<linearGradient id="SVGID_2_" gradientUnits="userSpaceOnUse" x1="405.0105" y1="696.0421" x2="405.0105" y2="696.0421">
	<stop  offset="0" style="stop-color:#F074AC"/>
	<stop  offset="0.5" style="stop-color:#EB008B"/>
	<stop  offset="1" style="stop-color:#CD118C"/>
</linearGradient>
<path class="st15" d="M405,696"/>
<image style="display:none;overflow:visible;" width="1920" height="1080" xlink:href="73E5BF02.jpg"  transform="matrix(1 0 0 1 -1317.8105 -178.1895)">
</image>
<rect x="132.9" y="247" transform="matrix(0.7454 -0.6667 0.6667 0.7454 -123.5867 212.4417)" class="st16" width="166.8" height="42.1"/>
<linearGradient id="SVGID_3_" gradientUnits="userSpaceOnUse" x1="32.5053" y1="-141.8105" x2="32.5053" y2="-141.8105">
	<stop  offset="0" style="stop-color:#D471AD"/>
	<stop  offset="0.5" style="stop-color:#C7158C"/>
	<stop  offset="1" style="stop-color:#9D248E"/>
</linearGradient>
<path class="st17" d="M32.5-141.8"/>
<path class="st18" d="M380.4,353.1"/>
<path class="st19" d="M280.3,167.4"/>
<linearGradient id="SVGID_4_" gradientUnits="userSpaceOnUse" x1="438.5219" y1="242.3752" x2="438.5219" y2="242.3752">
	<stop  offset="0" style="stop-color:#D1E4A5"/>
	<stop  offset="0.5" style="stop-color:#ACD479"/>
	<stop  offset="1" style="stop-color:#76B83F"/>
</linearGradient>
<path class="st20" d="M438.5,242.4"/>
<path class="st21" d="M260.9,389.9"/>
<path class="st21" d="M388.8,262"/>
<g>
	<g>
		<g>
			<g>
				<path class="st21" d="M175.1,341.5c1.2,1.7-0.3-0.8-1.3-2.9c-1.1-2.1-1.8-3.6,0.8-0.1c-0.7-1.4-1.7-3-3-4.8
					c-1.2-1.8-2.5-3.8-3.9-5.9c-1.3-2.1-2.7-4.2-3.9-6.2c-1.2-2.1-2.4-4-3.3-5.7c0.3-0.7,1.5,0.4,1.9,0c0.4-0.4-0.1-2.1-2.8-8.4
					c-0.9-2.1-1.7-3.7-2.3-4.9c-0.6-1.2-1-2.1-1.4-2.6c-0.7-1.1-1.1-1.2-1.5-1.2c-0.7,0-1.6,0.2-4.7-7.4l2,5.3
					c0.7,1.8,1.4,3.5,2.1,5.3c-3.2-4.8-7.2-13.6-10.3-23.9c-0.8-2.6-1.5-5.2-2.2-7.9c-0.7-2.7-1.3-5.4-1.9-8.1
					c-0.3-1.3-0.5-2.7-0.8-4c-0.2-1.3-0.5-2.7-0.7-4c-0.4-2.6-0.9-5.2-1.2-7.6c-0.2-7.4,0.4-14.5,1.4-22c1-7.5,2.3-15.4,4-24.7
					c-0.1,1.1-0.5,5.7,0.3,4.9c0.3-0.8,0.5-1.8,0.8-2.9c0.3-1.1,0.6-2.2,0.8-3.4c0.4-2.4,1-4.7,1.4-6.5c0.8-4.9,0.2-4.4-0.6-3.1
					c-0.9,1.3-1.8,3.4-1.8,1.4c0.5-2,0.9-4.1,1.5-6.1c0.6-2,1.2-4.1,2-6.3c0.8-2.1,1.7-4.4,2.8-6.6c1.1-2.3,2.4-4.7,4-7.2
					c3.1-3.9,6.4-7.5,9.9-10.9c1.6-4.8,5.5-9.9,11-15.2c5.5-5.2,12.5-10.6,20.6-16.3c0.5-0.1,1.2-0.4,2.1-0.8c0.9-0.4,1.9-0.9,3-1.5
					c1.1-0.6,2.3-1.3,3.6-2c1.3-0.6,2.7-1.3,4-2c0.7-0.3,1.4-0.7,2-1c0.7-0.3,1.3-0.7,2-0.9c1.3-0.6,2.6-1.1,3.8-1.5
					c0.6-0.2,1.2-0.4,1.7-0.6c0.5-0.2,1-0.3,1.5-0.4c0.9-0.2,1.7-0.3,2.2-0.2c2.2-0.7,3.5-0.8,4.3-0.6c0.8,0.2,1.1,0.8,1.4,1.4
					c0.5,1.2,0.9,2.5,4.5,2.3c6.2-0.7,4.1-0.1,2,0.5c-1,0.3-2,0.7-2,0.8c0,0.1,1,0,4.1-0.2c-3.2,0.7-5.1,1.1-6.5,1
					c-1.4,0-2.1-0.4-3.1-0.7c-0.9-0.3-2-0.5-4-0.3c-1,0.1-2.2,0.3-3.6,0.8c-1.5,0.5-3.2,1.1-5.3,2l1.1,0.2c-0.8,0.4-1.7,0.9-2.7,1.4
					c-1,0.5-2,1-3.1,1.5c-2.2,0.9-4.3,2.1-6.5,3.2c-2.2,1.1-4.1,2.4-5.8,3.6c-0.8,0.6-1.6,1.2-2.3,1.7c-0.6,0.6-1.1,1.2-1.5,1.7
					c-4,2.8-5.9,4.3-6.9,4.8c-1,0.5-0.9,0-0.6-0.7c0.6-1.4,2.1-3.8-2.1-1.1c-0.9,1.2-2.5,3.1-4.4,5.4c-1,1.1-1.9,2.4-3,3.6
					c-0.5,0.6-1,1.3-1.5,1.9c-0.5,0.7-1,1.3-1.4,2c-1.9,2.6-3.5,5.2-4.6,7.3c-1.1,2.1-1.6,3.6-1.3,4c2.8-4.2,6-8.1,9.4-12
					c-1.6,1.9,0,0.7-0.5,1.6c-1,0.8-2.1,2-3.2,3.3c-1,1.4-2.1,3-3.1,4.7c-2,3.4-3.8,7.2-5.2,10.5c-1.4,3.3-2.4,6.1-3.3,7.5
					c-0.8,1.4-1.5,1.4-2-1c0.6-2,3.3-6.6,3.6-8.2c-0.4,0-1,0.6-1.7,1.5c-0.7,1-1.6,2.4-2.4,4c-0.9,1.6-1.8,3.5-2.6,5.4
					c-0.8,1.9-1.7,3.9-2.5,5.7c-0.8,4-1.4,8.4-2,13.2c-0.7,4.8-1.4,10.1-2.6,16.2c-0.9,4.2-1.5,1.6-2.2,5.9c0,0.8-0.1,1.6-0.1,2.3
					c0,0.8,0,1.5,0,2.2c0,1.4,0,2.7,0,4c0.1,2.5,0,4.6,0,6.6c0,3.9,0,7.1,0,10.3c0,1.6,0.1,3.2,0.1,4.9c0.1,1.7,0.3,3.6,0.5,5.6
					c0.2,2.1,0.6,4.3,1.1,6.9c0.6,2.6,1.2,5.5,2.2,8.8c1.3,8.5,4.3,17.6,7.9,26.5c3.6,8.9,7.9,17.4,11.5,25.3
					c-0.1-1.4,1.4,0.9,3.3,4.1c0.9,1.6,2,3.3,2.9,4.8c0.4,0.8,0.9,1.5,1.2,2.1c0.4,0.6,0.7,1.1,0.9,1.5c0.9,2.4,5.6,10.7,10.2,15.9
					c-2.5-3.2-1.4-0.9-3.4-3c1.2,1.5,2.3,2.9,3.3,4.1c1,1.2,1.8,2.3,2.6,3.3c1.5,2,2.5,3.5,3.2,4.8c1.4,2.5,1.4,3.7,1.3,4.4
					c-2.1-2.2-3.9-3.8-5.4-5.2c-1.5-1.4-2.8-2.6-4.2-3.9c-1.4-1.2-2.6-2.7-4.2-4.5C178.7,346.9,177.1,344.6,175.1,341.5z"/>
				<path class="st21" d="M270.2,105.1c-1.7,1,4.9,2,10,3.5c2.6,0.7,4.8,1.4,5.4,1.9c0.3,0.2,0.3,0.4-0.3,0.5c-0.3,0-0.7,0-1.3,0
					c-0.6,0-1.3,0-2.2,0c2.3,0.6,4.2,1.3,6,1.8c0.9,0.3,1.7,0.5,2.5,0.7c0.8,0.3,1.5,0.5,2.2,0.7c1.4,0.4,2.7,0.8,4,1.1
					c1.2,0.4,2.5,0.7,3.8,1.1c-4.9-2.6-4.3-2.3-3-2c1.2,0.4,3.1,1,0.6-0.7c8.3,3,16.3,7,23.5,12c3.6,2.5,7.1,5.1,10.4,7.9
					c3.3,2.8,6.4,5.7,9.4,8.8c11.9,12.3,21.4,26.5,27.4,42c3.6,11.9,5.8,23.4,5.3,35.2c-0.2,5.8-1.2,11.7-2.9,17.4
					c-1.8,5.7-4.3,11.3-7.7,16.4c-2.4,2.9-4.1,4.4-5.1,5c-1,0.6-1.3,0.5-1.2-0.1c0.1-0.6,0.5-1.6,1-2.7c0.4-1.1,0.9-2.3,1.2-3.1
					c-3.8,4.7-8.1,9-12.8,12.6c4.4-4.2,8.3-8.8,11.6-13.8c-0.2-0.5-1.6,0.8-3.3,2.5c-0.9,0.8-1.9,1.8-2.9,2.6
					c-0.5,0.4-1,0.9-1.5,1.2c-0.5,0.4-1,0.7-1.5,1c-1.1,1.2-2.3,2.3-3.5,3.4c0.8-3.6,7.3-8.9,13-16.8c2.9-3.9,5.5-8.4,7.2-13
					c1.7-4.7,2.6-9.4,2.5-13.5c-0.3,4.8-0.7,7-0.7,7.8c0,0.8,0.4,0.1,0.8-0.9c0.2-0.5,0.5-1.1,0.6-1.7c0.2-0.6,0.4-1.1,0.6-1.4
					c0.3-0.6,0.6-0.5,0.5,1.7l0.5-3.1l0.3-3.1c-0.1,1.4-0.1,3.2-0.3,5.2c-0.1,1-0.2,2.2-0.4,3.3c-0.2,1.2-0.3,2.5-0.6,3.8
					c-0.5,2.6-1.3,5.5-2.5,8.5c-1.1,3-2.8,6.2-4.8,9.3c6-8.5,9.5-18.7,10.1-28.9c0.7-10.2-1.3-20.3-4.8-29.5
					c-3.4-9.2-8.2-17.5-13.6-24.9c-2.7-3.7-5.6-7.1-8.5-10.4c-3-3.2-6-6.2-9.1-9c0.9,0.5,2.9,2.1,1.1-0.3c-4.1-4.3-8.1-7.1-11.5-9
					c-3.4-1.9-6.3-3.1-8.6-4.3c1.5,0.7,3,1.6,4.5,2.5c-2.6-2.6-6.6-5.4-11-7.6c-2.2-1.1-4.5-2.3-6.7-3.2c-1.1-0.5-2.2-1-3.3-1.4
					c-1.1-0.4-2.2-0.8-3.2-1.2c-1-0.6-2-1.2-3-1.7c-1-0.5-2-1-3-1.5c-1-0.5-2-1-3-1.4c-1-0.4-2.1-0.9-3.2-1.3
					c-2.2-0.9-4.8-1.5-7.7-2.3c-1.5-0.3-3.1-0.6-4.8-0.8c-0.9-0.1-1.8-0.3-2.7-0.3c-0.9-0.1-1.9-0.1-2.9-0.2l0.7-0.9l-3.3-0.5
					c-1.1-0.1-2.2-0.2-3.3-0.3l-3.3-0.3l-3.3-0.1c3.3-0.2,2-0.6,1.3-0.8c1-0.3,1.7-0.1,4,0.1c0.2-0.3,0-0.8-0.7-1.2
					c-0.3-0.2-0.7-0.4-1.2-0.7c-0.5-0.2-1.1-0.4-1.7-0.6c-1.3-0.4-2.9-0.8-4.6-1.1c-1.7-0.3-3.6-0.5-5.6-0.6c2.4,0,4.9-0.1,6.6-0.2
					c-1.6-0.2-4.1-0.2-6.9-0.2c-1.4-0.1-2.8,0-4.3,0.1c-1.4,0-2.8,0.1-4,0.1c-5,0.3-7.9,0.3-2.5-1.5c2.3-0.5,4.4-0.6,6.2-0.7
					c0.9-0.1,1.8-0.1,2.6-0.1c0.8,0,1.6,0,2.3,0.1c2.9,0.1,5.2,0.3,7.4,0.8c2.2,0.4,4.3,0.7,7,1.1c1.3,0.2,2.8,0.4,4.4,0.5
					C266.2,104.7,268.1,104.9,270.2,105.1z"/>
				<path class="st21" d="M197.5,127.3c2.7-1.6,4-2,4.3-2c0.3,0-0.3,0.5-1.1,1.1c-1.7,1.3-4.2,3.4-2.8,3.1c-1.5,1-3.1,2-4.5,3.2
					c-1.4,1.1-3,2.2-4.3,3.4c-0.2-0.1,0.1-0.8,0.8-1.5c0.7-0.7,1.7-1.7,2.8-2.7c0.5-0.5,1.1-1,1.6-1.5c0.5-0.4,1.1-0.9,1.5-1.3
					C196.7,128.3,197.4,127.6,197.5,127.3z"/>
				<path class="st21" d="M289,286.4c-0.3-0.3-1-0.5-2.1-0.8c-0.5-0.1-1.1-0.3-1.8-0.4c-0.7-0.2-1.4-0.3-2.1-0.5
					c-1.5-0.3-3-0.8-4.6-1.3c-1.5-0.5-2.9-1-4.1-1.6c-4.8-1.6-7.7-2.8-11-4.5c-3.2-1.8-6.9-4.1-12-9.3c2.5,1.5,3.3,1.5,3.1,0.7
					c-0.2-0.8-1.6-2.5-3.2-4.7c-3.4-4.4-7.7-11.1-9.4-15.7c1.9,2.8,4.9,6.5,8.5,10.4c3.6,3.8,7.7,7.7,11.5,11.4
					c-0.7-0.1,0.7,1.4,2.9,3.2c2.2,1.8,5.3,3.7,7.5,4.9c3.7,0.9,2.7-0.6,4.3-0.9c0.4-0.1,0.9-0.1,1.7,0c0.8,0.1,1.9,0.3,3.3,0.5
					c2.9,0.5,7.4,1.4,14.4,1.6c2.6,0.3,7.1,0.1,10.9-0.4c0.9-0.1,1.8-0.2,2.6-0.3c0.8-0.1,1.5-0.2,2.1-0.3c1.2-0.1,1.9,0,1.8,0.4
					c0.9-0.1,1.8-0.3,2.7-0.6c0.8-0.3,1.7-0.7,2.5-1.1c0.8-0.4,1.7-0.8,2.6-1.1c0.9-0.3,1.8-0.5,2.9-0.6c0.7-0.1,1.4-0.1,2.1-0.2
					c-5.5,2.6-11.2,4.7-17.2,6c-0.7-0.1-2.1-0.2-3.8,0c0.9,0.2,0.1,0.5-1.4,0.9c-0.7,0.2-1.7,0.4-2.7,0.6c-1,0.2-2,0.4-3,0.5
					c-2,0.4-3.8,0.5-4.3,0.9c-0.5,0.3,0.3,0.8,3.4,1.3c8.8,0.1,17.6-1.6,25.8-4.5c1.6-0.4,2.2-0.5,2.2-0.3c0,0.2-0.7,0.7-1.9,1.3
					c-2.4,1.2-6.8,2.9-11.6,3.9c-7,0.8-10.4,0.6-13.1,0.7c-1.4,0-2.6,0.1-4,0.1c-0.7,0-1.5,0.1-2.4,0.1
					C291.2,286.4,290.2,286.4,289,286.4z"/>
				<path class="st21" d="M349,264l1.3-0.6c-2.8,2.6-5.8,4.9-8.9,7.1c-3.1,2.2-6.4,4.1-9.8,5.8c3.2-1.7,6.2-3.6,9.1-5.6
					C343.6,268.6,346.4,266.4,349,264z"/>
				<path class="st21" d="M228.8,228.3c1.4,4.5,2.2,8.5,4.5,12.7l-1.5,1.2C230.3,237.6,229.3,233,228.8,228.3z"/>
				<path class="st21" d="M361.2,187.4c-1.7-2.3-3.9-6.7-6.3-10.9c-2.4-4.2-5-8.1-6.9-9.6c2.1,3.2,1.7,1.9,2.4,2.5
					c-1.1-2.2-2.4-4.3-3.7-6.5c3.2,3.4,5.8,7.2,8.2,11.2C357.2,178.4,359.3,182.7,361.2,187.4z"/>
				<path class="st21" d="M243.6,183.6c0.8-0.6,1.6-1.2,2.4-1.8c0.8-0.6,1.5-1,2.3-1.5c1.4-1,2.8-1.7,4.1-2.4
					c1.3-0.8,2.5-1.3,3.7-1.9c1.2-0.6,2.4-1.1,3.6-1.5c0.6-0.2,1.2-0.5,1.9-0.7c0.6-0.2,1.3-0.4,2-0.6c0.7-0.2,1.4-0.4,2.1-0.6
					c0.7-0.2,1.5-0.3,2.3-0.4c0.8-0.1,1.6-0.3,2.5-0.4c0.9-0.1,1.8-0.2,2.7-0.2c1.9-0.2,4-0.1,6.4-0.1c2,0.3,0.8,0.5-0.2,0.7
					c-1,0.3-1.8,0.5,1.1,0.6c2.9,0.3,4.7,0.2,6.1,0.2c1.4-0.1,2.5-0.3,3.9-0.3c-0.7-0.3-1.4-0.6-2.2-0.8c2.2,0.7,6.7,1.9,9.7,3.2
					c1.5,0.6,2.5,1.2,2.7,1.6c0.3,0.4-0.3,0.8-2.1,0.9c-5.4-1.2-10.2-1.6-14.6-1.5c-2.2,0.1-4.2,0.2-6.2,0.5c-1,0.2-1.9,0.2-2.9,0.4
					c-0.9,0.2-1.9,0.4-2.8,0.6c-0.9,0.2-1.8,0.4-2.7,0.7c-0.9,0.2-1.8,0.4-2.6,0.7c-1.7,0.6-3.4,1-5.1,1.6c-3.5,1.1-6.9,2.4-10.9,4
					c-1.2-0.1-2.4-0.2-3.6-0.1c-2.9,2.1-5.4,4.6-7.7,7.3c-0.6,0.5-0.8-0.1-2.8,2.9c-1.7,3.4-0.7,2.3,0.7,0.6
					c0.7-0.8,1.7-1.8,2.4-2.4c0.4-0.3,0.7-0.6,1-0.7c0.3-0.1,0.4-0.2,0.5,0c-0.6,0.6-1,1.3-1.5,2c-0.4,0.7-1,1.3-1.3,2.1
					c-0.4,0.7-0.8,1.4-1.2,2.2l-1,2.2c-1.2,3-1.9,6.2-2.2,9.4c-0.5,2.3-0.2-2-0.5-1.4c-1.3,4.5-0.8,8.4-0.2,11.9
					c0.7,3.5,1.6,6.7,1.8,10.8c-1.4-3.7-2.6-7.7-3.2-11.7c0.4,7.4,2,13.7,4,19.3c2,5.6,4.3,10.5,7,15c-4.2-6.2-7.3-12.1-9.8-17.9
					c-1.2-2.9-2.3-5.8-3.1-8.7c-0.8-2.9-1.5-5.8-1.8-8.8c-0.2-1.5-0.3-3-0.3-4.5c0-0.8,0-1.5,0-2.3c0-0.8,0.1-1.5,0.1-2.3
					c0.3-3.1,1-6.3,2.1-9.4c0.5-1.6,1.3-3.1,2.1-4.6c0.5-0.7,0.9-1.5,1.4-2.2c0.5-0.8,1.1-1.4,1.6-2.1
					C237.7,188.1,240.5,185.6,243.6,183.6z"/>
			</g>
		</g>
	</g>
</g>
</svg>
