<?xml version="1.0" encoding="utf-8"?>
<!-- Generator: Adobe Illustrator 24.0.1, SVG Export Plug-In . SVG Version: 6.00 Build 0)  -->
<svg version="1.1" id="Layer_1" xmlns="http://www.w3.org/2000/svg" xmlns:xlink="http://www.w3.org/1999/xlink" x="0px" y="0px"
	 viewBox="0 0 512 512" style="enable-background:new 0 0 512 512;" xml:space="preserve">
<style type="text/css">
	.st0{display:none;}
	.st1{display:inline;fill:#200A7F;stroke:#18E5EA;stroke-width:20;stroke-miterlimit:10;}
	.st2{display:inline;fill:#EF0B79;}
	.st3{display:inline;fill:#18E5EA;}
	.st4{display:inline;}
	.st5{fill:#E9F21C;}
	.st6{display:inline;fill:none;}
	.st7{display:inline;fill:#EF3A24;}
	.st8{font-family:'MyriadPro-Regular';}
	.st9{font-size:250px;}
	.st10{display:inline;fill:#FFFFFF;}
	.st11{fill:#C4C6C8;}
	.st12{fill:#049900;}
	.st13{fill:none;stroke:#000000;stroke-width:9;stroke-miterlimit:10;}
	.st14{fill:url(#SVGID_1_);}
	.st15{display:none;fill:#FFFFFF;}
	.st16{fill:none;stroke:url(#SVGID_2_);stroke-miterlimit:10;}
	.st17{fill:#FFFFFF;}
	.st18{fill:#353535;}
	.st19{fill:#FFCE00;}
	.st20{fill:#FFCE00;stroke:#FFFFFF;stroke-width:10;stroke-miterlimit:10;}
</style>
<g id="Layer_3" class="st0">
	<path class="st1" d="M401.1,212.2c5.1,15.3,7.9,31.7,7.9,48.8c0,85.3-69.2,154.5-154.5,154.5S100,346.3,100,261
		s69.2-154.5,154.5-154.5c51.2,0,96.6,24.9,124.7,63.3"/>
	<path class="st2" d="M333.4,255.2c0,4.2-3.3,7.7-7.4,7.7H174.9c-4.1,0-7.4-3.4-7.4-7.7l0,0c0-4.2,3.3-7.7,7.4-7.7H326
		C330.1,247.5,333.4,250.9,333.4,255.2L333.4,255.2z"/>
	<path class="st2" d="M333.4,284.8c0,4.2-3.3,7.6-7.4,7.6H174.9c-4.1,0-7.4-3.4-7.4-7.6l0,0c0-4.2,3.3-7.6,7.4-7.6H326
		C330.1,277.1,333.4,280.6,333.4,284.8L333.4,284.8z"/>
	<path class="st2" d="M333.4,313c0,4.2-3.3,7.7-7.4,7.7H174.9c-4.1,0-7.4-3.4-7.4-7.7l0,0c0-4.2,3.3-7.6,7.4-7.6H326
		C330.1,305.4,333.4,308.8,333.4,313L333.4,313z"/>
	<path class="st2" d="M333.4,338.4c0,4.2-3.3,7.7-7.4,7.7H174.9c-4.1,0-7.4-3.4-7.4-7.7l0,0c0-4.2,3.3-7.6,7.4-7.6H326
		C330.1,330.7,333.4,334.1,333.4,338.4L333.4,338.4z"/>
	<polygon class="st3" points="395,191.5 320.2,165.2 380.4,113.5 	"/>
	<g class="st4">
		<g>
			<g>
				<path class="st5" d="M241.5,239.2c-2.3,0-4.4-1.1-5.8-2.9l-18.8-24.8c-2.4-3.2-1.8-7.8,1.4-10.3c3.2-2.4,7.8-1.8,10.3,1.4
					l12.3,16.3l31-49.8c2.1-3.4,6.6-4.5,10.1-2.3c3.4,2.1,4.5,6.6,2.3,10.1l-36.7,58.9c-1.3,2-3.5,3.3-5.9,3.4
					C241.7,239.2,241.6,239.2,241.5,239.2z"/>
			</g>
		</g>
	</g>
</g>
<g id="Layer_2_2_" class="st0">
	<rect x="121" y="171.5" class="st6" width="298" height="251"/>
	<text transform="matrix(1 0 0 1 121 348.9979)" class="st7 st8 st9">24</text>
	<circle class="st10" cx="138.3" cy="91.8" r="17.3"/>
	<circle class="st10" cx="185.3" cy="91.8" r="17.3"/>
	<circle class="st10" cx="232.3" cy="91.8" r="17.3"/>
	<circle class="st10" cx="278.3" cy="91.8" r="17.3"/>
	<circle class="st10" cx="323.3" cy="91.8" r="17.3"/>
	<circle class="st10" cx="368.3" cy="91.8" r="17.3"/>
</g>
<g>
	<path class="st11" d="M350.3,54.5H161.7c-17.9,0-34.5,9.6-43.4,25.1L24,242.9c-9,15.5-9,34.6,0,50.2l94.3,163.3
		c9,15.5,25.5,25.1,43.4,25.1h188.5c17.9,0,34.5-9.6,43.4-25.1L488,293.1c9-15.5,9-34.6,0-50.2L393.7,79.6
		C384.8,64.1,368.2,54.5,350.3,54.5z"/>
</g>
<g>
	<path class="st12" d="M495.6,255.8c-0.2,6.5-1.7,13-4.5,19c-0.3,0.5-0.5,1-0.8,1.5c-0.5,0.9-0.9,1.9-1.4,2.8L399,434.8l-4.4,7.6
		c-0.5,1-1.1,1.9-1.7,2.8c-8.3,12.4-21.7,20.5-36.5,22c-1.7,0.2-3.4,0.3-5.2,0.3H162.6c-8.8,0-17.3-2.3-24.7-6.5l0,0
		c-0.4-0.2-0.9-0.5-1.3-0.8c-7.1-4.3-13.2-10.4-17.5-17.8l-15.3-26.6l-70.4-122L24.9,279c-1.1-1.8-2-3.7-2.8-5.7
		c-3.5-8.2-4.6-17.1-3.5-25.7c0.8-6.5,3-12.9,6.4-18.8l6.5-11.3l22.3-38.6L70,150.8l37.6-65.1l11.7-20.2c9-15.5,25.5-25.1,43.5-25.1
		h188.5c9.4,0,18.5,2.7,26.3,7.4c7,4.3,13,10.3,17.2,17.7l20.7,35.9l6.3,10.9l2.2,3.9l23.1,39.9l2.4,4.2l5.5,9.6l7,12l27.1,47
		c1.2,2,2.2,4.1,3,6.2C494.6,241.7,495.8,248.8,495.6,255.8z"/>
	<path class="st12" d="M495.6,255.8c-0.2,6.5-1.7,13-4.5,19c-0.3,0.5-0.5,1-0.8,1.5c-0.5,0.9-0.9,1.9-1.4,2.8L399,434.8l-4.4,7.6
		c-0.5,1-1.1,1.9-1.7,2.8c-8.3,12.4-21.7,20.5-36.5,22c-1.7,0.2-3.4,0.3-5.2,0.3H162.6c-8.8,0-17.3-2.3-24.7-6.5l0,0
		c-0.4-0.2-0.9-0.5-1.3-0.8c-7.1-4.3-13.2-10.4-17.5-17.8l-15.3-26.6l-70.4-122L24.9,279c-1.1-1.8-2-3.7-2.8-5.7
		c-3.5-8.2-4.6-17.1-3.5-25.7c0.8-6.5,3-12.9,6.4-18.8l6.5-11.3l22.3-38.6L70,150.8l37.6-65.1l11.7-20.2c9-15.5,25.5-25.1,43.5-25.1
		h188.5c9.4,0,18.5,2.7,26.3,7.4c7,4.3,13,10.3,17.2,17.7l20.7,35.9l6.3,10.9l2.2,3.9l23.1,39.9l2.4,4.2l5.5,9.6l7,12l27.1,47
		c1.2,2,2.2,4.1,3,6.2C494.6,241.7,495.8,248.8,495.6,255.8z"/>
</g>
<path class="st13" d="M385.8,390.4"/>
<path class="st13" d="M130.7,162.6"/>
<path class="st13" d="M140.1,379.6"/>
<path class="st13" d="M364.7,143.2"/>
<linearGradient id="SVGID_1_" gradientUnits="userSpaceOnUse" x1="405" y1="364" x2="405" y2="364" gradientTransform="matrix(1 0 0 1 0 332)">
	<stop  offset="0" style="stop-color:#F074AC"/>
	<stop  offset="0.5" style="stop-color:#EB008B"/>
	<stop  offset="1" style="stop-color:#CD118C"/>
</linearGradient>
<path class="st14" d="M405,696"/>
<rect x="132.9" y="247" transform="matrix(0.7454 -0.6667 0.6667 0.7454 -123.6336 212.491)" class="st15" width="166.8" height="42.1"/>
<linearGradient id="SVGID_2_" gradientUnits="userSpaceOnUse" x1="32.5" y1="-473.8" x2="32.5" y2="-473.8" gradientTransform="matrix(1 0 0 1 0 332)">
	<stop  offset="0" style="stop-color:#D471AD"/>
	<stop  offset="0.5" style="stop-color:#C7158C"/>
	<stop  offset="1" style="stop-color:#9D248E"/>
</linearGradient>
<path class="st16" d="M32.5-141.8"/>
<path class="st17" d="M368.7,352.2"/>
<path class="st18" d="M268.6,166.5"/>
<image style="display:none;overflow:visible;" width="1920" height="1080" xlink:href="9336F655.jpg"  transform="matrix(1 0 0 1 -795 -345)">
</image>
<path class="st19" d="M168.1,170.4c-11.7-0.2-25.4-1.7-27.4-8.1c-3.3-10.7,27.2-31.4,53.7-41.6c40.8-15.6,77.4-8.1,86.1-6.1
	c39.6,9.1,63.8,31.7,73,40.5c11.5,11,37.9,37.1,45.6,80.1c1,5.8,6,35.5-6.1,70.9c-18.5,54.3-62.8,79.8-76,87.2
	c-12,6.7-31.3,17.2-58.8,19.3c-39.8,3-69.8-13.8-81.1-20.3c-7.1-4.1-40.1-20.1-37.5-30.4c1.4-5.3,11.6-6.9,19.3-8.1
	c23.7-3.6,37.7,3,56.8,6.1c24.5,3.9,43.8-0.1,62.8-4.1c32.6-6.8,25.6-13.2,60.8-21.3c7.7-1.8,17.7-3.7,24.3-12.2
	c6.7-8.6,8.2-21.8,4.1-24.3c-4.1-2.5-12,6.2-21.3,12.2c-27.3,17.6-60.8,9.5-66.9,8.1c-19.1-4.5-14.8-10.4-44.6-20.3
	c-14.8-4.9-23.3-5.9-31.4-14.2c-9.8-10-14-25.5-10.1-28.4c5.3-4.1,21,20.4,57.8,34.5c18.4,7.1,34.2,8.5,41.6,9.1
	c10.5,0.9,25.3,1.8,43.6-3c16.5-4.4,28.8-11.8,36.5-17.2c-1.9-15.6-7.2-41.2-24.3-66.9c-7.3-11-15.2-19.7-22.3-26.4
	c-50.7-13.2-101.4-26.4-152-39.5C172.2,154.2,170.1,162.3,168.1,170.4z"/>
<circle class="st20" cx="288.7" cy="236.3" r="35.5"/>
</svg>
