<?xml version="1.0" encoding="utf-8"?>
<!-- Generator: Adobe Illustrator 24.0.1, SVG Export Plug-In . SVG Version: 6.00 Build 0)  -->
<svg version="1.1" id="Layer_1" xmlns="http://www.w3.org/2000/svg" xmlns:xlink="http://www.w3.org/1999/xlink" x="0px" y="0px"
	 viewBox="0 0 512 512" style="enable-background:new 0 0 512 512;" xml:space="preserve">
<style type="text/css">
	.st0{display:none;}
	.st1{display:inline;fill:#200A7F;stroke:#18E5EA;stroke-width:20;stroke-miterlimit:10;}
	.st2{display:inline;fill:#EF0B79;}
	.st3{display:inline;fill:#18E5EA;}
	.st4{display:inline;}
	.st5{fill:#E9F21C;}
	.st6{display:inline;fill:none;}
	.st7{display:inline;fill:#EF3A24;}
	.st8{font-family:'MyriadPro-Regular';}
	.st9{font-size:250px;}
	.st10{display:inline;fill:#FFFFFF;}
	.st11{fill:#C4C6C8;}
	.st12{fill:url(#SVGID_1_);}
	.st13{fill:url(#SVGID_2_);}
	.st14{fill:none;stroke:#000000;stroke-width:9;stroke-miterlimit:10;}
	.st15{fill:url(#SVGID_3_);}
	.st16{display:none;fill:#FFFFFF;}
	.st17{fill:none;stroke:url(#SVGID_4_);stroke-miterlimit:10;}
	.st18{fill:#FFFFFF;}
	.st19{fill:#353535;}
</style>
<g id="Layer_3" class="st0">
	<path class="st1" d="M401.1,212.2c5.1,15.3,7.9,31.7,7.9,48.8c0,85.3-69.2,154.5-154.5,154.5S100,346.3,100,261
		s69.2-154.5,154.5-154.5c51.2,0,96.6,24.9,124.7,63.3"/>
	<path class="st2" d="M333.4,255.2c0,4.2-3.3,7.7-7.4,7.7H174.9c-4.1,0-7.4-3.4-7.4-7.7l0,0c0-4.2,3.3-7.7,7.4-7.7H326
		C330.1,247.5,333.4,250.9,333.4,255.2L333.4,255.2z"/>
	<path class="st2" d="M333.4,284.8c0,4.2-3.3,7.6-7.4,7.6H174.9c-4.1,0-7.4-3.4-7.4-7.6l0,0c0-4.2,3.3-7.6,7.4-7.6H326
		C330.1,277.1,333.4,280.6,333.4,284.8L333.4,284.8z"/>
	<path class="st2" d="M333.4,313c0,4.2-3.3,7.7-7.4,7.7H174.9c-4.1,0-7.4-3.4-7.4-7.7l0,0c0-4.2,3.3-7.6,7.4-7.6H326
		C330.1,305.4,333.4,308.8,333.4,313L333.4,313z"/>
	<path class="st2" d="M333.4,338.4c0,4.2-3.3,7.7-7.4,7.7H174.9c-4.1,0-7.4-3.4-7.4-7.7l0,0c0-4.2,3.3-7.6,7.4-7.6H326
		C330.1,330.7,333.4,334.1,333.4,338.4L333.4,338.4z"/>
	<polygon class="st3" points="395,191.5 320.2,165.2 380.4,113.5 	"/>
	<g class="st4">
		<g>
			<g>
				<path class="st5" d="M241.5,239.2c-2.3,0-4.4-1.1-5.8-2.9l-18.8-24.8c-2.4-3.2-1.8-7.8,1.4-10.3c3.2-2.4,7.8-1.8,10.3,1.4
					l12.3,16.3l31-49.8c2.1-3.4,6.6-4.5,10.1-2.3c3.4,2.1,4.5,6.6,2.3,10.1l-36.7,58.9c-1.3,2-3.5,3.3-5.9,3.4
					C241.7,239.2,241.6,239.2,241.5,239.2z"/>
			</g>
		</g>
	</g>
</g>
<g id="Layer_2_2_" class="st0">
	<rect x="121" y="171.5" class="st6" width="298" height="251"/>
	<text transform="matrix(1 0 0 1 121 348.9979)" class="st7 st8 st9">24</text>
	<circle class="st10" cx="138.3" cy="91.8" r="17.3"/>
	<circle class="st10" cx="185.3" cy="91.8" r="17.3"/>
	<circle class="st10" cx="232.3" cy="91.8" r="17.3"/>
	<circle class="st10" cx="278.3" cy="91.8" r="17.3"/>
	<circle class="st10" cx="323.3" cy="91.8" r="17.3"/>
	<circle class="st10" cx="368.3" cy="91.8" r="17.3"/>
</g>
<g>
	<path class="st11" d="M350.3,54.5H161.7c-17.9,0-34.5,9.6-43.4,25.1L24,242.9c-9,15.5-9,34.6,0,50.2l94.3,163.3
		c9,15.5,25.5,25.1,43.4,25.1h188.5c17.9,0,34.5-9.6,43.4-25.1L488,293.1c9-15.5,9-34.6,0-50.2L393.7,79.6
		C384.8,64.1,368.2,54.5,350.3,54.5z"/>
</g>
<g>
	
		<radialGradient id="SVGID_1_" cx="256.906" cy="258.05" r="226.4825" gradientTransform="matrix(1 0 0 -1 0 512)" gradientUnits="userSpaceOnUse">
		<stop  offset="0" style="stop-color:#F37E5F"/>
		<stop  offset="0.5" style="stop-color:#EC1C24"/>
		<stop  offset="1" style="stop-color:#CF232A"/>
	</radialGradient>
	<path class="st12" d="M495.6,255.8c-0.2,6.5-1.7,13-4.5,19c-0.3,0.5-0.5,1-0.8,1.5c-0.5,0.9-0.9,1.9-1.4,2.8L399,434.8l-4.4,7.6
		c-0.5,1-1.1,1.9-1.7,2.8c-8.3,12.4-21.7,20.5-36.5,22c-1.7,0.2-3.4,0.3-5.2,0.3H162.6c-8.8,0-17.3-2.3-24.7-6.5l0,0
		c-0.4-0.2-0.9-0.5-1.3-0.8c-7.1-4.3-13.2-10.4-17.5-17.8l-15.3-26.6l-70.4-122L24.9,279c-1.1-1.8-2-3.7-2.8-5.7
		c-3.5-8.2-4.6-17.1-3.5-25.7c0.8-6.5,3-12.9,6.4-18.8l6.5-11.3l22.3-38.6L70,150.8l37.6-65.1l11.7-20.2c9-15.5,25.5-25.1,43.5-25.1
		h188.5c9.4,0,18.5,2.7,26.3,7.4c7,4.3,13,10.3,17.2,17.7l20.7,35.9l6.3,10.9l2.2,3.9l23.1,39.9l2.4,4.2l5.5,9.6l7,12l27.1,47
		c1.2,2,2.2,4.1,3,6.2C494.6,241.7,495.8,248.8,495.6,255.8z"/>
	
		<radialGradient id="SVGID_2_" cx="256.906" cy="258.05" r="226.4825" gradientTransform="matrix(1 0 0 -1 0 512)" gradientUnits="userSpaceOnUse">
		<stop  offset="0" style="stop-color:#F37E5F"/>
		<stop  offset="0.5" style="stop-color:#EC1C24"/>
		<stop  offset="1" style="stop-color:#CF232A"/>
	</radialGradient>
	<path class="st13" d="M495.6,255.8c-0.2,6.5-1.7,13-4.5,19c-0.3,0.5-0.5,1-0.8,1.5c-0.5,0.9-0.9,1.9-1.4,2.8L399,434.8l-4.4,7.6
		c-0.5,1-1.1,1.9-1.7,2.8c-8.3,12.4-21.7,20.5-36.5,22c-1.7,0.2-3.4,0.3-5.2,0.3H162.6c-8.8,0-17.3-2.3-24.7-6.5l0,0
		c-0.4-0.2-0.9-0.5-1.3-0.8c-7.1-4.3-13.2-10.4-17.5-17.8l-15.3-26.6l-70.4-122L24.9,279c-1.1-1.8-2-3.7-2.8-5.7
		c-3.5-8.2-4.6-17.1-3.5-25.7c0.8-6.5,3-12.9,6.4-18.8l6.5-11.3l22.3-38.6L70,150.8l37.6-65.1l11.7-20.2c9-15.5,25.5-25.1,43.5-25.1
		h188.5c9.4,0,18.5,2.7,26.3,7.4c7,4.3,13,10.3,17.2,17.7l20.7,35.9l6.3,10.9l2.2,3.9l23.1,39.9l2.4,4.2l5.5,9.6l7,12l27.1,47
		c1.2,2,2.2,4.1,3,6.2C494.6,241.7,495.8,248.8,495.6,255.8z"/>
</g>
<path class="st14" d="M385.8,390.4"/>
<path class="st14" d="M130.7,162.6"/>
<path class="st14" d="M140.1,379.6"/>
<path class="st14" d="M376.4,144.1"/>
<linearGradient id="SVGID_3_" gradientUnits="userSpaceOnUse" x1="405" y1="-184" x2="405" y2="-184" gradientTransform="matrix(1 0 0 -1 0 512)">
	<stop  offset="0" style="stop-color:#F074AC"/>
	<stop  offset="0.5" style="stop-color:#EB008B"/>
	<stop  offset="1" style="stop-color:#CD118C"/>
</linearGradient>
<path class="st15" d="M405,696"/>
<rect x="132.9" y="247" transform="matrix(0.7454 -0.6667 0.6667 0.7454 -123.5996 212.4878)" class="st16" width="166.8" height="42.1"/>
<linearGradient id="SVGID_4_" gradientUnits="userSpaceOnUse" x1="32.5" y1="653.8" x2="32.5" y2="653.8" gradientTransform="matrix(1 0 0 -1 0 512)">
	<stop  offset="0" style="stop-color:#D471AD"/>
	<stop  offset="0.5" style="stop-color:#C7158C"/>
	<stop  offset="1" style="stop-color:#9D248E"/>
</linearGradient>
<path class="st17" d="M32.5-141.8"/>
<path class="st18" d="M380.4,353.1"/>
<path class="st19" d="M333.8,151.4c0,16.2-21.8,34.1-35.3,34.1s-13.6-18-13.6-34.1s22.7-50,36.2-50
	C334.6,101.3,333.8,135.2,333.8,151.4z"/>
<path class="st19" d="M271.2,151.3c0,16.2,13.4,38.8,0,40.6c-13.1,1.7-29.2-5.6-34.3-42c-2.2-16,10.9-39.2,24.4-39.2
	C274.9,110.7,271.2,135.1,271.2,151.3z"/>
<path class="st19" d="M230.6,152.9c0,16.2,5.3,42.5-8.2,42.5S198,166,198,149.8s2.9-29.3,16.4-29.3S230.6,136.8,230.6,152.9z"/>
<path class="st19" d="M189,174.7c0,16.2,7.2,29.7-6.3,29.7s-25.3-9-25.3-25.2S153,140,166.5,140S189,158.5,189,174.7z"/>
<path class="st19" d="M187.2,231.7c22.1-7.8,81.8-28.1,124.9-30.8c3.3-0.2,10.5-0.6,17.2,3.6c19.2,12,23.5,55,5.4,79.6
	c-15.4,21-36.7,14.4-47.1,35.3c-10.7,21.4,0.8,50.4,7.2,50.7c4.6,0.2,4.5-14.3,16.3-20.8c10.7-5.9,27.8-3.2,31.7,4.5
	c5.9,11.8-14.8,43.1-39.8,50.7c-54.9,16.6-153.7-73.3-138.5-137.6C168.2,251.5,177.9,239.9,187.2,231.7z"/>
<path class="st19" d="M280.3,167.4"/>
</svg>
