<?xml version="1.0" encoding="utf-8"?>
<!-- Generator: Adobe Illustrator 24.0.1, SVG Export Plug-In . SVG Version: 6.00 Build 0)  -->
<svg version="1.1" id="Layer_1" xmlns="http://www.w3.org/2000/svg" xmlns:xlink="http://www.w3.org/1999/xlink" x="0px" y="0px"
	 viewBox="0 0 512 512" style="enable-background:new 0 0 512 512;" xml:space="preserve">
<style type="text/css">
	.st0{display:none;}
	.st1{display:inline;fill:#200A7F;stroke:#18E5EA;stroke-width:20;stroke-miterlimit:10;}
	.st2{display:inline;fill:#EF0B79;}
	.st3{display:inline;fill:#18E5EA;}
	.st4{display:inline;}
	.st5{fill:#E9F21C;}
	.st6{display:inline;fill:none;}
	.st7{display:inline;fill:#EF3A24;}
	.st8{font-family:'MyriadPro-Regular';}
	.st9{font-size:250px;}
	.st10{display:inline;fill:#FFFFFF;}
	.st11{fill:#C4C6C8;}
	.st12{fill:#1B5E08;}
	.st13{fill:#B76CFF;stroke:#E8E8E8;stroke-width:3;stroke-miterlimit:10;}
	.st14{fill:none;}
	.st15{fill:#FFFFFF;}
	.st16{font-family:'MyriadPro-Bold';}
	.st17{font-size:100px;}
	.st18{fill:#F9F9F9;}
	.st19{fill:#002093;}
</style>
<g id="Layer_3" class="st0">
	<path class="st1" d="M401.1,212.2c5.1,15.3,7.9,31.7,7.9,48.8c0,85.3-69.2,154.5-154.5,154.5S100,346.3,100,261
		s69.2-154.5,154.5-154.5c51.2,0,96.6,24.9,124.7,63.3"/>
	<path class="st2" d="M333.4,255.2c0,4.2-3.3,7.7-7.4,7.7H174.9c-4.1,0-7.4-3.4-7.4-7.7l0,0c0-4.2,3.3-7.7,7.4-7.7H326
		C330.1,247.5,333.4,250.9,333.4,255.2L333.4,255.2z"/>
	<path class="st2" d="M333.4,284.8c0,4.2-3.3,7.6-7.4,7.6H174.9c-4.1,0-7.4-3.4-7.4-7.6l0,0c0-4.2,3.3-7.6,7.4-7.6H326
		C330.1,277.1,333.4,280.6,333.4,284.8L333.4,284.8z"/>
	<path class="st2" d="M333.4,313c0,4.2-3.3,7.7-7.4,7.7H174.9c-4.1,0-7.4-3.4-7.4-7.7l0,0c0-4.2,3.3-7.6,7.4-7.6H326
		C330.1,305.4,333.4,308.8,333.4,313L333.4,313z"/>
	<path class="st2" d="M333.4,338.4c0,4.2-3.3,7.7-7.4,7.7H174.9c-4.1,0-7.4-3.4-7.4-7.7l0,0c0-4.2,3.3-7.6,7.4-7.6H326
		C330.1,330.7,333.4,334.1,333.4,338.4L333.4,338.4z"/>
	<polygon class="st3" points="395,191.5 320.2,165.2 380.4,113.5 	"/>
	<g class="st4">
		<g>
			<g>
				<path class="st5" d="M241.5,239.2c-2.3,0-4.4-1.1-5.8-2.9l-18.8-24.8c-2.4-3.2-1.8-7.8,1.4-10.3c3.2-2.4,7.8-1.8,10.3,1.4
					l12.3,16.3l31-49.8c2.1-3.4,6.6-4.5,10.1-2.3c3.4,2.1,4.5,6.6,2.3,10.1l-36.7,58.9c-1.3,2-3.5,3.3-5.9,3.4
					C241.7,239.2,241.6,239.2,241.5,239.2z"/>
			</g>
		</g>
	</g>
</g>
<g id="Layer_2_2_" class="st0">
	<rect x="121" y="171.5" class="st6" width="298" height="251"/>
	<text transform="matrix(1 0 0 1 121 348.9979)" class="st7 st8 st9">24</text>
	<circle class="st10" cx="138.3" cy="91.8" r="17.3"/>
	<circle class="st10" cx="185.3" cy="91.8" r="17.3"/>
	<circle class="st10" cx="232.3" cy="91.8" r="17.3"/>
	<circle class="st10" cx="278.3" cy="91.8" r="17.3"/>
	<circle class="st10" cx="323.3" cy="91.8" r="17.3"/>
	<circle class="st10" cx="368.3" cy="91.8" r="17.3"/>
</g>
<g>
	<path class="st11" d="M350.3,54.5H161.7c-17.9,0-34.5,9.6-43.4,25.1L24,242.9c-9,15.5-9,34.6,0,50.2l94.3,163.3
		c9,15.5,25.5,25.1,43.4,25.1h188.5c17.9,0,34.5-9.6,43.4-25.1L488,293.1c9-15.5,9-34.6,0-50.2L393.7,79.6
		C384.8,64.1,368.2,54.5,350.3,54.5z"/>
</g>
<g>
	<path class="st12" d="M491.1,274.8c-0.7,1.4-1.4,2.9-2.2,4.3l-94.3,163.3c-0.5,1-1.1,1.9-1.7,2.8c-8.3,12.4-21.7,20.5-36.5,22
		c-1.7,0.2-3.4,0.3-5.2,0.3H162.6c-17.9,0-34.5-9.6-43.5-25.1l-15.3-26.6l-70.4-122L24.9,279c-9-15.5-9-34.6,0-50.2l6.5-11.3
		l22.3-38.6l65.5-113.4c9-15.5,25.5-25.1,43.5-25.1h188.5c17.9,0,34.5,9.6,43.5,25.1l20.7,35.9l6.3,10.9l25.3,43.8l2.4,4.2l5.5,9.6
		l7,12l27.1,47c1.2,2,2.2,4.1,3,6.2C497.1,247.9,496.8,262.3,491.1,274.8z"/>
	<path class="st13" d="M491.1,274.8c-0.7,1.4-1.4,2.9-2.2,4.3l-94.3,163.3c-0.5,1-1.1,1.9-1.7,2.8c-8.3,12.4-21.7,20.5-36.5,22
		c-1.7,0.2-3.4,0.3-5.2,0.3H162.6c-17.9,0-34.5-9.6-43.5-25.1l-15.3-26.6l-70.4-122L24.9,279c-9-15.5-9-34.6,0-50.2l6.5-11.3
		l22.3-38.6l65.5-113.4c9-15.5,25.5-25.1,43.5-25.1h188.5c17.9,0,34.5,9.6,43.5,25.1l20.7,35.9l6.3,10.9l25.3,43.8l2.4,4.2l5.5,9.6
		l7,12l27.1,47c1.2,2,2.2,4.1,3,6.2C497.1,247.9,496.8,262.3,491.1,274.8z"/>
</g>
<rect x="58.4" y="93.3" class="st14" width="411" height="295"/>
<text transform="matrix(14.7626 0 0 1 128.0681 283.5657)" class="st15 st16 st17"> </text>
<rect x="130.9" y="203.3" class="st14" width="334" height="91"/>
<g>
	<g>
		<path class="st18" d="M278.3,137.6c-40,31.1-40.9,84.4-41.8,131.4c-0.7,40.2-1.4,78.1-24.3,96c-23.8,18.6-57.5,5.5-71.2-12.1
			c-12.7-16.3-15.1-52.4,10.1-72c24.4-19,52.3-9.4,53.8-8.9c8.9,3.3,18.9-1.2,22.3-10.2c3.4-9-1.1-19-10.1-22.4
			c-1.9-0.7-47.1-17.3-87.3,14c-40.4,31.5-40.9,89-16.1,120.8c25.6,32.8,81.2,48.4,120,18.1c36-28.1,36.9-76.2,37.7-122.7
			c0.8-43,1.5-83.7,28.4-104.7c16-12.5,30.7-15.2,45-8.5c12.4,5.9,20.9,16.8,23.9,20.6c1.7,2.2,9.1,14,11.4,27.9
			c2.7,15.9-1.9,27.8-14.3,37.5c-25.1,19.5-51.3,13.8-61.2,11.6c-2.6-0.6-4.4-1-6.5-1.1c-9.6-0.4-17.7,7-18.2,16.6
			c-0.4,9.2,6.5,17.1,15.5,18.1c0.5,0.1,1.1,0.2,1.7,0.4c12.9,2.8,52,11.4,90-18.2c46.1-35.9,26-92.5,8.9-114.4
			c-10.9-14-23.1-24.2-36.3-30.5C341,116.3,311.9,111.4,278.3,137.6z"/>
	</g>
</g>
<path class="st19" d="M298.4,208.8l7.1,0.8c7,0.8,13.4-4.2,14.2-11.2l0.5-4.3c0.8-6.8-3.9-13-10.6-14.1c-4.8-0.8-10.5-1.7-16.7-2.4
	c-47.7-5.6-53.1,28.7-54.6,49.1c-0.5,7.3-7,12.6-14.2,11.8l-5.9-0.7c-7-0.8-13.4,4.2-14.2,11.2l-0.9,7.7c-0.9,7.6,3.2,16,10.9,16
	l8.8-0.2c7.3,0,13.5,4.5,13.2,11.8l-0.9,20.7c-0.1,3.2-2.3,23-4.5,25.6l-6.8,20.4c-0.2,1.2,0.5,2.5,1.7,2.9l16.2,5.9
	c7.5,2.7,19-1.5,20.4-9.3l7.8-43c1.4-8,9-27.9,16.5-24.8l2,0.8c7.6,3.1,16.2-1.7,17.4-9.9l1.2-7.6c1-6.2-2.7-12.2-8.7-14.1
	l-14.7-4.7c-5-1.6-8.5-6.1-8.9-11.4C273.6,218.8,276.7,206.2,298.4,208.8L298.4,208.8z"/>
</svg>
