<?xml version="1.0" encoding="utf-8"?>
<!-- Generator: Adobe Illustrator 24.0.1, SVG Export Plug-In . SVG Version: 6.00 Build 0)  -->
<svg version="1.1" id="Layer_1" xmlns="http://www.w3.org/2000/svg" xmlns:xlink="http://www.w3.org/1999/xlink" x="0px" y="0px"
	 viewBox="0 0 512 512" style="enable-background:new 0 0 512 512;" xml:space="preserve">
<style type="text/css">
	.st0{display:none;}
	.st1{display:inline;fill:#200A7F;stroke:#18E5EA;stroke-width:20;stroke-miterlimit:10;}
	.st2{display:inline;fill:#EF0B79;}
	.st3{display:inline;fill:#18E5EA;}
	.st4{display:inline;}
	.st5{fill:#E9F21C;}
	.st6{display:inline;fill:none;}
	.st7{display:inline;fill:#EF3A24;}
	.st8{font-family:'MyriadPro-Regular';}
	.st9{font-size:250px;}
	.st10{display:inline;fill:#FFFFFF;}
	.st11{fill:#C4C6C8;}
	.st12{fill:url(#SVGID_1_);}
	.st13{fill:url(#SVGID_2_);stroke:#E8E8E8;stroke-width:3;stroke-miterlimit:10;}
	.st14{fill:url(#SVGID_3_);stroke:#545454;stroke-miterlimit:10;}
	.st15{fill:#222020;}
</style>
<g id="Layer_3" class="st0">
	<path class="st1" d="M401.1,212.2c5.1,15.3,7.9,31.7,7.9,48.8c0,85.3-69.2,154.5-154.5,154.5S100,346.3,100,261
		s69.2-154.5,154.5-154.5c51.2,0,96.6,24.9,124.7,63.3"/>
	<path class="st2" d="M333.4,255.2c0,4.2-3.3,7.7-7.4,7.7H174.9c-4.1,0-7.4-3.4-7.4-7.7l0,0c0-4.2,3.3-7.7,7.4-7.7H326
		C330.1,247.5,333.4,250.9,333.4,255.2L333.4,255.2z"/>
	<path class="st2" d="M333.4,284.8c0,4.2-3.3,7.6-7.4,7.6H174.9c-4.1,0-7.4-3.4-7.4-7.6l0,0c0-4.2,3.3-7.6,7.4-7.6H326
		C330.1,277.1,333.4,280.6,333.4,284.8L333.4,284.8z"/>
	<path class="st2" d="M333.4,313c0,4.2-3.3,7.7-7.4,7.7H174.9c-4.1,0-7.4-3.4-7.4-7.7l0,0c0-4.2,3.3-7.6,7.4-7.6H326
		C330.1,305.4,333.4,308.8,333.4,313L333.4,313z"/>
	<path class="st2" d="M333.4,338.4c0,4.2-3.3,7.7-7.4,7.7H174.9c-4.1,0-7.4-3.4-7.4-7.7l0,0c0-4.2,3.3-7.6,7.4-7.6H326
		C330.1,330.7,333.4,334.1,333.4,338.4L333.4,338.4z"/>
	<polygon class="st3" points="395,191.5 320.2,165.2 380.4,113.5 	"/>
	<g class="st4">
		<g>
			<g>
				<path class="st5" d="M241.5,239.2c-2.3,0-4.4-1.1-5.8-2.9l-18.8-24.8c-2.4-3.2-1.8-7.8,1.4-10.3c3.2-2.4,7.8-1.8,10.3,1.4
					l12.3,16.3l31-49.8c2.1-3.4,6.6-4.5,10.1-2.3c3.4,2.1,4.5,6.6,2.3,10.1l-36.7,58.9c-1.3,2-3.5,3.3-5.9,3.4
					C241.7,239.2,241.6,239.2,241.5,239.2z"/>
			</g>
		</g>
	</g>
</g>
<g id="Layer_2_2_" class="st0">
	<rect x="121" y="171.5" class="st6" width="298" height="251"/>
	<text transform="matrix(1 0 0 1 121 348.9979)" class="st7 st8 st9">24</text>
	<circle class="st10" cx="138.3" cy="91.8" r="17.3"/>
	<circle class="st10" cx="185.3" cy="91.8" r="17.3"/>
	<circle class="st10" cx="232.3" cy="91.8" r="17.3"/>
	<circle class="st10" cx="278.3" cy="91.8" r="17.3"/>
	<circle class="st10" cx="323.3" cy="91.8" r="17.3"/>
	<circle class="st10" cx="368.3" cy="91.8" r="17.3"/>
</g>
<g>
	<path class="st11" d="M350.3,54.5H161.7c-17.9,0-34.5,9.6-43.4,25.1L24,242.9c-9,15.5-9,34.6,0,50.2l94.3,163.3
		c9,15.5,25.5,25.1,43.4,25.1h188.5c17.9,0,34.5-9.6,43.4-25.1L488,293.1c9-15.5,9-34.6,0-50.2L393.7,79.6
		C384.8,64.1,368.2,54.5,350.3,54.5z"/>
</g>
<g>
	<linearGradient id="SVGID_1_" gradientUnits="userSpaceOnUse" x1="18.15" y1="253.95" x2="495.6125" y2="253.95">
		<stop  offset="0" style="stop-color:#FFE7A3"/>
		<stop  offset="0.5" style="stop-color:#FFCA05"/>
		<stop  offset="1" style="stop-color:#FAAC18"/>
	</linearGradient>
	<path class="st12" d="M491.1,274.8c-0.7,1.4-1.4,2.9-2.2,4.3l-94.3,163.3c-0.5,1-1.1,1.9-1.7,2.8c-8.3,12.4-21.7,20.5-36.5,22
		c-1.7,0.2-3.4,0.3-5.2,0.3H162.6c-17.9,0-34.5-9.6-43.5-25.1l-15.3-26.6l-70.4-122L24.9,279c-9-15.5-9-34.6,0-50.2l6.5-11.3
		l22.3-38.6l65.5-113.4c9-15.5,25.5-25.1,43.5-25.1h188.5c17.9,0,34.5,9.6,43.5,25.1l20.7,35.9l6.3,10.9l25.3,43.8l2.4,4.2l5.5,9.6
		l7,12l27.1,47c1.2,2,2.2,4.1,3,6.2C497.1,247.9,496.8,262.3,491.1,274.8z"/>
	<linearGradient id="SVGID_2_" gradientUnits="userSpaceOnUse" x1="18.15" y1="253.95" x2="495.6125" y2="253.95">
		<stop  offset="0" style="stop-color:#FFE7A3"/>
		<stop  offset="0.5" style="stop-color:#FFCA05"/>
		<stop  offset="1" style="stop-color:#FAAC18"/>
	</linearGradient>
	<path class="st13" d="M491.1,274.8c-0.7,1.4-1.4,2.9-2.2,4.3l-94.3,163.3c-0.5,1-1.1,1.9-1.7,2.8c-8.3,12.4-21.7,20.5-36.5,22
		c-1.7,0.2-3.4,0.3-5.2,0.3H162.6c-17.9,0-34.5-9.6-43.5-25.1l-15.3-26.6l-70.4-122L24.9,279c-9-15.5-9-34.6,0-50.2l6.5-11.3
		l22.3-38.6l65.5-113.4c9-15.5,25.5-25.1,43.5-25.1h188.5c17.9,0,34.5,9.6,43.5,25.1l20.7,35.9l6.3,10.9l25.3,43.8l2.4,4.2l5.5,9.6
		l7,12l27.1,47c1.2,2,2.2,4.1,3,6.2C497.1,247.9,496.8,262.3,491.1,274.8z"/>
</g>
<path d="M426.3,234.8"/>
<radialGradient id="SVGID_3_" cx="262.8659" cy="248.0763" r="158.65" gradientUnits="userSpaceOnUse">
	<stop  offset="0" style="stop-color:#B07EB7"/>
	<stop  offset="0.5" style="stop-color:#8C3D96"/>
	<stop  offset="1" style="stop-color:#762A90"/>
</radialGradient>
<circle class="st14" cx="262.9" cy="248.1" r="158.7"/>
<g>
	<g>
		<g>
			<g>
				<g>
					<path class="st15" d="M418.5,213.7c0.6-0.2,0.2-0.5,0.3-0.6C417.8,213.6,418.5,213.8,418.5,213.7z"/>
					<polygon class="st15" points="409.3,218.2 409.4,218 408.1,218.9 					"/>
					<path class="st15" d="M400.4,221.5c1.1,0.4,3.2-1.2,4.9-1.6l0.3,0.1l0.5-0.8C404.2,219.9,401.8,221.2,400.4,221.5z"/>
					<path class="st15" d="M395.1,221.7c0.4,0.2-1,0.6,1.1-0.3c-0.1,0-0.2,0-0.2,0C395.8,221.5,395.5,221.5,395.1,221.7z"/>
					<path class="st15" d="M396,221.4C396.9,221,395.3,221.4,396,221.4L396,221.4z"/>
					<path class="st15" d="M391.7,223.1l1.2-0.7c-0.3-0.1-1.4,0.3-1.1,0C390.6,223,390.9,223.1,391.7,223.1z"/>
					<path class="st15" d="M390.7,224l0.6-0.3C391.2,223.6,391,223.7,390.7,224z"/>
					<path class="st15" d="M392.6,223l-1.3,0.7c0.2,0,0.3,0.3,0.6-0.3C391.9,223.6,392.1,223.3,392.6,223z"/>
					<path class="st15" d="M393.4,222.8c0.7-0.1,1.7-0.3,0.5,0.3C396.3,222.2,395.7,221.9,393.4,222.8z"/>
					<path class="st15" d="M400.2,222.3l1-0.1l0.7-0.5C401.5,221.9,400,222.1,400.2,222.3z"/>
					<path class="st15" d="M383.8,225.4c0,0.2,0.5,0.2,0.7,0.4l0.9-0.5C384.9,225.4,384,225.6,383.8,225.4z"/>
					<path class="st15" d="M384.5,225.8l-1.3,0.7C384.5,226.1,384.7,225.9,384.5,225.8z"/>
					<polygon class="st15" points="390.7,224.8 392.8,223.5 390.3,225 					"/>
					<polygon class="st15" points="378.5,227.1 379.2,226.5 378,227.5 					"/>
					<path class="st15" d="M375.1,228.3c0.5-0.5-0.9-0.2-0.4-0.6c-0.9,0.4-1.7,0.9-2.3,1.3C373.1,228.7,373.9,228.5,375.1,228.3z"/>
					<path class="st15" d="M371.2,229.8c0.4-0.2,0.7-0.4,1.1-0.7C372,229.3,371.6,229.5,371.2,229.8z"/>
					<path class="st15" d="M380.8,227.2c-0.1-0.1-0.4-0.2-1.2-0.1l0.7,0.2C380.5,227.3,380.7,227.3,380.8,227.2z"/>
					<path class="st15" d="M380.3,227.4L380.3,227.4c-0.6,0.2-1,0.3-1.2,0.4C379.3,227.7,379.6,227.6,380.3,227.4z"/>
					<path class="st15" d="M381,227.2c-0.1,0-0.1,0-0.1,0C380.9,227.2,381,227.2,381,227.2z"/>
					<path class="st15" d="M387,225.7c-0.7,0.5-2.3,1.3-0.6,1.1C386.9,226.3,385.9,226.4,387,225.7z"/>
					<path class="st15" d="M381.8,227.4l1.5-0.4c-0.1-0.1-0.4-0.2,0-0.4L381.8,227.4z"/>
					<polygon class="st15" points="381.2,227.8 381.8,227.4 381.3,227.6 					"/>
					<path class="st15" d="M373.9,229.3c-0.6,0.4-1.3,0.6-2,0.9c0.9-0.2,1.7-0.4,2.6-0.7C374.5,229.4,374.7,229,373.9,229.3z"/>
					<path class="st15" d="M377,228.4c0,0-0.1,0-0.1,0.1C377,228.5,377,228.5,377,228.4z"/>
					<path class="st15" d="M364,232.6l0.1,0c0,0,0-0.1,0-0.1L364,232.6z"/>
					<path class="st15" d="M374.6,229.6c0.7-0.1,1-0.4,1.3-0.6c-0.5,0.2-1,0.4-1.5,0.6C374.4,229.6,374.4,229.7,374.6,229.6z"/>
					<path class="st15" d="M369.1,230.6c0.4,0,0.8-0.1,1.2-0.1C369.9,230.5,369.2,230.5,369.1,230.6z"/>
					<path class="st15" d="M376.6,228.4C376.7,228.4,376.7,228.4,376.6,228.4C376.5,228.4,376.5,228.4,376.6,228.4z"/>
					<path class="st15" d="M376.6,228.4c-0.3,0.2-0.5,0.4-0.8,0.5c0.4-0.2,0.7-0.3,1-0.5C376.8,228.5,376.7,228.5,376.6,228.4z"/>
					<path class="st15" d="M362.5,236c0-0.4,1.6-1.3,3.1-1.3c1.3-0.7,0-1.7-1.4-2c0,0.2,0.1,0.3-1.3,1c0.6,0,3.4-0.5,2.3,0.2
						c-1.9,0.8-1.6,0.4-2.6,0.4c0.9,0.2-2.3,1.4-1.6,2l1.6-0.8C362.6,235.7,362,236,362.5,236z"/>
					<path class="st15" d="M367,231.9l0.6-0.2c-0.7,0.1-1.2,0.1-2.2,0.1c-0.9,0.5-1.1,0.7-1.1,0.8l3-0.9L367,231.9z"/>
					<path class="st15" d="M370.3,230.8c-0.3,0.6-1.7,1.2-0.7,1.3c1.8-0.6,1.1-0.7,2.1-1.2C368.9,231.9,372.4,230.4,370.3,230.8
						c0.6-0.2,1.1-0.4,1.5-0.5c-0.5,0.1-1,0.2-1.5,0.3c0,0,0,0,0.1,0l0,0l0,0c0.1,0,0.2,0,0,0c0,0,0,0-0.1,0
						C370.3,230.7,370.3,230.7,370.3,230.8c-0.9,0.2-0.2-0.1,0.1-0.2c0,0,0,0,0-0.1l0,0l-2.8,1.1
						C368.2,231.5,368.9,231.3,370.3,230.8z"/>
					<path class="st15" d="M385.2,228.2c-0.1,0-0.1,0-0.1-0.1C384.9,228.2,384.8,228.3,385.2,228.2z"/>
					<path class="st15" d="M383.9,228.3c0.2-0.1,0.3-0.3,1-0.5c0.6-0.1,0.1,0.2,0.1,0.3c0.4-0.2,1.3-0.8,0-0.5l-0.2,0.1
						c-1.2,0.2-2.8,0.2-2.6,0.1C382.7,228,383.1,228.2,383.9,228.3z"/>
					<path class="st15" d="M377.1,229.7l-2.3,1l1.3,0l-0.1-0.2C377.3,230.1,376.9,229.9,377.1,229.7z"/>
					<polygon class="st15" points="363.7,232.5 363.9,232 362.7,233 					"/>
					<polygon class="st15" points="360.6,233.5 360.6,233.1 359.9,233.6 					"/>
					<path class="st15" d="M182.1,270.3l-0.7,0.2C181.7,270.4,182,270.4,182.1,270.3z"/>
					<path class="st15" d="M187.4,270l0.1-0.2C187.3,269.9,187.2,270,187.4,270z"/>
					<path class="st15" d="M283.8,252.7c-1.1-0.2-2.4-0.5-2.2-0.1l0.4,0.4C282.7,252.7,283.3,252.7,283.8,252.7z"/>
					<path class="st15" d="M230.5,263.6c0.1,0,0.2,0.1,0.3,0.1c0.2-0.2,0.5-0.3,0.7-0.5C231.2,263.3,230.8,263.5,230.5,263.6z"/>
					<path class="st15" d="M229.9,265.5l-1.4-0.1C228.8,265.4,229.3,265.5,229.9,265.5z"/>
					<path class="st15" d="M153.1,272.2l-0.9,0.5C153.6,272.6,153,272.4,153.1,272.2z"/>
					<path class="st15" d="M328.9,242.6c-0.9,0.1-1.7,0.2-2.3,0.3C327.7,242.9,328.7,243.1,328.9,242.6z"/>
					<path class="st15" d="M183.9,265.6c-0.4,0.1-0.6,0.2-0.6,0.3C183.7,265.8,184,265.7,183.9,265.6z"/>
					<path class="st15" d="M324,243.6c0.2,0,0.3,0,0.5,0c0.6-0.2,1.3-0.5,2.1-0.6C325.8,243,324.8,243.1,324,243.6z"/>
					<path class="st15" d="M73.6,227.4c0-0.1,0.1-0.2,0.1-0.2C73.7,227.2,73.6,227.3,73.6,227.4z"/>
					<path class="st15" d="M93.7,203.8c-0.2,0.2-0.5,0.6-0.8,1C93.1,204.6,93.3,204.4,93.7,203.8z"/>
					<path class="st15" d="M348.1,237C348.8,236.8,348.2,236.9,348.1,237L348.1,237z"/>
					<path class="st15" d="M351.8,237.7c-0.1,0.1-0.2,0.2-0.2,0.3C351.6,237.9,351.7,237.8,351.8,237.7z"/>
					<path class="st15" d="M318,247.8C318,247.8,318,247.8,318,247.8C318.2,247.9,318.2,247.9,318,247.8z"/>
					<path class="st15" d="M349.2,236.9c-0.3,0-0.6,0.1-0.9,0.1C348.5,237,348.7,237,349.2,236.9z"/>
					<path class="st15" d="M349,236.8c0.2,0,0.4-0.1,0.6-0.1C349.6,236.5,349.6,236.5,349,236.8z"/>
					<path class="st15" d="M347.2,237.3c0.4-0.1,0.7-0.2,1.1-0.3c-0.1,0-0.2,0-0.2,0C347.9,237.1,347.7,237.2,347.2,237.3z"/>
					<path class="st15" d="M104.3,267.3c0,0-0.1,0-0.1-0.1C103.4,267.3,103.7,267.3,104.3,267.3z"/>
					<path class="st15" d="M267,260.3C267,260.3,267.1,260.3,267,260.3C267.1,260.3,267,260.3,267,260.3L267,260.3z"/>
					<path class="st15" d="M264.6,261c1-0.7,1.5-0.7,2.4-0.8l-1-1.1L264.6,261z"/>
					<path class="st15" d="M169.4,271.2l1.8,0.3c-2.1,0.8-3.6,0.6-1.9,1.1c0.2-1.4,6.8-0.5,6.9-1.9l1.2,0.2c-0.3,0-0.4,0.1-0.7,0.1
						c2.3,0.5,1.6-1.1,4.5-1.1c1,0,1.7,0.2,1,0.4l2.2-0.5c0.6,0,0.5,0.2-0.1,0.2l3.4-0.4l0,0c0.5-0.2,1.5-0.7,2.1-0.8
						c0.9,0.1-0.4,0.2-0.2,0.3l1.8-0.5c0.8,0.3-0.7,0.8-2,0.8c1.9,1.2,1.5-0.5,5.4,0l-1.8,0.3c1.2,0.7,2.6,0.3,4.6,0.6
						c-0.5-0.2-4.1-0.9-2.1-1.4c0.6,0.1,1.3,0,2.4-0.3c0.1,0.5,1.1,0.3,2.4,0.1l0,0.6c1.4-0.3,1.3-0.6,2.1-1c1.6-0.1,2,0.4,2.4,0.8
						c2.6-0.1-1.9-0.6,1.2-1c2.2,0,3.6-0.3,6.2-1c1.5,0.1-0.2,0.4,0.3,0.5l1.3-0.6c0.3,0,0.2,0.1,0.2,0.2c1.1-0.3,0-0.6,1.8-1
						c0.4-0.8,3.7,0.7,5.8-0.3c0.6,0.1-0.2,0.4,0,0.6c2.9-0.9,2.5-0.7,4.9-1.6l2.1,0.2c-1.6-0.3,0.3-1.1,2-1.7
						c-0.6-0.2-1.1-0.3-1.4-0.4l2.7-0.7c0.3,0.1,0.1,0.3-0.3,0.6c0.2-0.1,0.4-0.2,0.5-0.2c1,0.1,0.5,0.5-0.1,1
						c-0.3-0.1-0.7-0.2-1-0.3c-0.6,0.5-1.2,1-1,1.3c0.2-0.1,0.5-0.2,0.9-0.3c-0.2,0.1-0.3,0.2-0.2,0.3c0.1,0.1,0.4-0.1,0.8-0.3
						l0.7,0.6l0.1-0.3l3.6,0c2.5-1.1,4.6-2.3,8.6-3.2c-0.9,0.7-0.1,0.9-0.1,1.5c-1.2-0.5-3.1,0.7-5.2,0.8c1.1-0.1,0.9,0.3,0.6,0.4
						c1.2-0.4,2.5-0.7,3.7-1.1c0,0.5,0.8,0.3,1.9,0.3c-0.9-0.9,2.7-1.1,4.2-1.6c0.1,0.3-0.2,0.7-2.1,0.9c2.2,0.5,2.5-1.5,4.6-1.2
						c-0.5,0.1-0.7,0.1-0.9,0.3c1-0.4,3.7-0.6,3.1-0.2l-0.5,0.1c3-0.4,9.2-1.4,9.5-2.3c0,0.1-0.2,1.1-0.4,1.3
						c1.6-1.2,3.3-2.5,4.9-3.7c-0.4,0.8,1.8,2.2-0.7,3c0.7,0,1.6-0.1,3.1-0.6c-0.5,0-1.4-0.8-0.7-1c2,0.5,1.3,0.2,3.7,0.5
						c-0.8,0-0.1-1.3,1-1.5c-0.2,0.2,0.3,1.1-0.1,1.3l2.7-1.6c-0.7,0.3,0,1,0.7,1.2c-0.3-0.2,2.5-0.5,3.2-0.7l-1.3,0
						c3.3-0.5,2.9-2.2,6.1-2.7c-0.3,0.3-0.7,1.6,1,1.4c0.6-0.7,2.8-3.3,5.5-4.4l0.6,0.2l2.1-0.8c-1.2,1.1-4.6,3.7-6.6,4.8
						c1.3,0,0.4,0.3,2.2-0.1c0.7,0.2-0.9,0.7-1.4,0.8l4.3-0.7c-0.3-0.6,3.1-1.3,2.8-1.9l-4.4,1.6c-0.3-0.6,2.3-2.4,5.3-2.9
						c0.8,0.1-0.3,1.3-0.2,1.5c0.3-0.3,2.7-1,3.1-0.9l-1.2,0.6c1.7-0.1,2.5-1.4,4.7-1.2c0.7-0.1,2.2,0.4,2.3,0
						c-1.3-0.5-2-2.8-1.4-3.5c0.3,0,3.8-0.1,4.6,0.1c1.3,0.3-1.4,1.8-0.3,2.1c0-0.2,0.6-0.6,0.8-0.7c0.8,0-0.2,0.6,1.4,0.2
						c0.1-0.7,3.2-0.7,0.6-0.7c1.5-0.5,1.7-0.2,3.5-0.7c-0.7-0.3,1.3-1.8,2.7-2.4c0,0.2,0.3,0.3,0.5,0.4c3.1-0.7,4.9-0.8,7.8-1.5
						c0.3,0.1,1.8-0.1,1.2,0.4c0.4-0.2,0.7-0.5,1.6-0.8c1.9,0.1-2,0.6-0.5,0.9c0-0.4,2.2-1.1,3.4-1.7c-0.5-0.5-3,0.7-4.2,1.2
						c-0.2-0.8,1.8-2.2,4.7-3.4c2.4-0.8,1.2,0.2,1.6,0c4.6-1.1,3.5-2.5,7.4-2.9c1.6,0.1,0.4,1,0.8,1.3c-1.9,0.7-3.1,0.5-4.4,0.9
						l1.7-0.2c-0.6,0.3-1.9,0.8-2.6,0.9c1.4,0.1,7.7-1.9,11.3-2.5c0.6-0.4,1.6-0.8,1-0.9l-1.1,0.4c-1.1-0.1,1.9-1.2,0.5-1
						c1.4-0.7,2.9-1.7,5-2l0.6,0.5c-0.1-0.2-1.5,0-2,0.4c0.8-0.5,3.4-0.1,4.1-1.2l-1.6,0c1.4-0.7,3-1.9,4.9-2.3
						c-1-0.3-0.4,0.2-1.9-0.1c1.4,0.5-4.7,1.3-2.6,1.7c-1.6-0.4-2.4,0.3-4.4,0.2c0.1,0.2,0.7,0.2-0.8,0.5c-0.1,0.1-0.2,0.2-0.3,0.3
						c0,0-0.1,0-0.1,0c0,0,0.1,0,0.1,0c-0.1,0-0.1,0.1,0,0c0.4,0,0.7,0,0.9,0.1c-0.6,0.7-3.1,1.4-3.9,1.8c-0.9,0.2,0.3-0.3-0.2-0.4
						l-1.1,0.7c-0.2-0.4-2.6,0-0.5-0.9l-1.9,0.5c-1.2,0.1-2.8,0.4-3.7,0.8c-0.9,0.2-2.2,1.1-1.5,0.5l-3,1.1l-0.1-0.1
						c-3,0.8-6,2.4-9.7,2.4c-1,0.4-2,0.8-3.7,1.1l-0.4-0.3c-1.3,0.5-4,0.6-4.5,1.1c-1.6-0.7-6.4,1.2-8.8,1.6l0,0.5
						c-1.6,0.3-3.1,0.8-5,1.5l0.2,0.4c-1.6,0.7-4.5,0.6-7.2,1.2c0.1-0.2,0.8-0.3,1.4-0.3c-3.4-0.3-6.7,2.2-9.8,2
						c-0.7,0.3-1.2,0.3-1.8,0.3c0.1,0,0.1,0,0.2-0.1c-0.1,0-0.2,0-0.3,0.1c-0.3,0-0.7,0-1.1,0c0.3,0,0.6,0.1,0.9,0.1
						c-0.6,0.1-1.4,0.3-2.2,0.6l-0.4-0.4c-0.1,0-0.1,0-0.2,0.1c-0.9,0-0.6,0.4-0.1,0.6c-0.4,0.2-0.8,0.3-1.1,0.5
						c-0.8-0.6-2.2,0.7-3.2,0c-0.5,0.5-4.2,1.1-4.5,2c0-0.1-0.3-0.1,0.1-0.2c-1,0.1-1.9,0.1-2.7,0.5l-0.5-0.5l-1.9,1.2
						c-1.3-0.1-1.9-0.3-0.7-1c-2.9,1.2-2.4,0.7-4.8,1.8l0.1-0.4c-0.9,0.2-2.3,0.9-2.9,0.7c-1.1-0.2-3.6,0.2-6.5,0.6
						c-2.9,0.4-6.3,0.9-8.9,0.9c1.2,1-2.5-0.2-2.6,0.8c-0.3-0.2-1.1-0.3-0.3-0.6c-2.6,0.6-4.1,0.1-5.8,1.1c-0.3-0.2,0.5-0.5,0.2-0.6
						c-0.2,0.1-0.8,0.3-1.1,0.2c-0.3-0.1,0.4-0.3,0.8-0.5c-2.7,0.4-2.9,1.3-3,2.1c-1.4-0.2-2.1-0.1-3.1,0.6
						c-0.5-0.2-1.4-0.4,0.3-0.7c-1,0.1-5.9,0.3-5.9,0.9c-0.3-0.1-1.3,0.1-1.6,0.2c-2.2,0.2-2.4,0.2-4.5,0.4l0.6,0
						c-0.8,0.8-1.7,0.3-3.4,0.6l0-0.1c-4-0.2-1.7,0.4-5.6,0.2l0.3,0.5c-0.3,1.1-3.5-0.3-5.7,0.3l0.8,0.2c-1.2,0.5-3.6-1.1-4.8-1.1
						c-0.3-0.1,0.4-0.2,0.8-0.3c-3.3-0.3-0.4,0.7-2.8,1c-0.5-0.3,0.5-0.9-1.1-0.8c-0.8-0.2-4.6,1.5-6.9,1c0.5,0.2,1,0.4-0.1,0.7
						c-1.7,0.2-4.7-0.6-6.2,0.3c-0.2-0.1-0.3-0.1-0.3-0.2c-1.3,0.3-4.2,0.6-5,1.1c-1.3-1.6-8.1,1.3-8.1-0.2l-4,0.3l0.1-0.2
						c-2.6,0-3.5,0.4-4.4,0.8c-0.6-0.1-0.2-0.2-0.1-0.3c-3.8-0.2-4.1-0.1-7.3,0.7l-0.3-0.5c-0.9,0.3-5.4-0.7-9.1-0.1
						c0-0.1,0.1-0.2,0.4-0.2c-4.2,0.6-9.9-1.5-11.4,0.2l-2.8,0.3c3.5,0.3-0.6,0.8,0.9,1.1c-1.4,0.1-3.6-0.7-1.9-0.7l0.3,0.1
						c0.7-0.9-4.4-0.6-4.2-1.2c-6.9-0.4-13.6-1.7-19.9-3l0.6,0.9l-2.2-0.5c-0.5-0.3-0.7-0.7,0.9-0.4c-0.7-0.6-2.7-0.2-2.8-0.1
						c-3-1,1.4-0.5,0.5-0.8l-1.3-0.2l0.3,0.2c-1.1,0-1.3,0.3-3.1-0.2c-1.1-0.5-0.5-0.6-0.9-0.8c0-0.1-0.1-0.1-0.7-0.2
						c-0.9-0.3-1.8-0.6-2.6-0.9c0.3,0.3,0.6,0.6,0.9,0.9c-1.3-0.1-2.5-0.9-1.5,0.2c-0.7-0.8-3.2-1.8-5.4-2.9
						c-2.3-1.1-4.3-2.3-4.7-2.8c-1.6-0.6-3-1.7-4.4-3.2c0.3,0.4,0,1.2-1.2-0.3c0.7-0.2,0.3-0.9-0.3-1.8c-0.3-0.4-0.6-1-0.8-1.5
						c-0.2-0.5-0.3-1-0.3-1.4c0,0.7-0.6-0.4-1.1-1.4c-0.5-1-0.8-2-1-1c-0.3-1.5,0.5-0.2,0.5-1.4c-0.6-1.6-0.7-3.5-0.5-5.5
						c0.2-2,0.8-4.1,1.2-6.2c-0.1-0.1-0.6,0.5-0.6-0.5c0.5-0.7,1-1.3,1.5-2c0.2-0.8-0.7-1.1,0.5-2.4c-0.2,0.2-0.6,0.4-0.4-0.2
						c2.1-3.9,4.1-7.9,6.5-11.8c2.4-3.9,5.2-7.6,8.7-10.6c-1,0.7-0.6,0.1,0-0.7c-0.5,0.4-0.3-0.3-0.6-0.3c1-0.8,2-1.7,3-2.5
						c-0.1-1,2.7-3.1,2.5-3.8l-0.7,1c0.5-1.7-2.7,0.6-3.3-0.2c-0.6,1.9-4.1,2.9-5.1,6c-0.6,0.4,0.1-0.6-0.3-0.5
						c-0.2,0.9-0.7,1.6-1.8,2.9l0-0.2c-1.4,1.9-2.5,3.3-3.6,4.7c-1.1,1.4-2.3,2.9-3.8,5.2l0.6-0.1c-0.7,1-0.9,1.1-1.3,1.5
						c-0.1,1.5,1.7-2.8,1.8-1.3c-0.8,0.4-1.9,2.2-2.8,3.9c-1,1.8-1.8,3.5-2.5,3.8c-0.7,1.7,0.7-0.3,0,1.4l-0.5,0.3l0.2,0.6
						c-0.5,1.1-1.1,1.5-1.3,1.5c0.1-0.3,0.2-0.8,0.3-1.1c-0.9,1.3-1.3,4.3-1.5,4.8c0.2-0.6,0.4-1.1,0.7-1.7
						c-0.6,2.5-1.2,5.3-1.4,8.1c-0.1,2.9,0.2,5.8,1.3,8.2l0.1-0.4c0.3,0.9,0.7,1.5,0.8,2c0.2,0.5,0.3,0.9,0.5,1.3
						c0.3,0.8,0.6,1.6,1.8,3.3l-0.1-0.1c0.3,0.3,0.7,0.6,1.1,1c0.4,0.4,0.8,0.8,1.1,1.2c-0.9-0.6,1,1.8-0.2,1
						c1.6,1.3,2.1,1.5,2.5,1.6c0.3,0.1,0.6,0.1,1.9,0.5l0.3,0.7c0.9,0.2,1.1,0.1,2.8,1.1c-1.6-0.6,0.8,1.1-1,0.6
						c1.6,1.5,3.2,2,4.4,2.4c1.2,0.4,2.2,0.7,2.9,1.6c1.1-0.1,0.3-0.6-0.6-1c-0.9-0.4-2-0.8-1.4-0.7c-0.7-0.7,1.7-0.1,2.9,0.5
						c1.2,0.5,1.7,2.1,4.9,3c-0.3-0.1-0.4,0-0.7-0.1c1.1,0.6,2.5,0.3,3.9,1.1c1-0.4,1.9,0.5,2.4-0.2c-1-0.2-2-0.3-3-0.5
						c1.7,0.2,3.5-0.3,6.2,0.7c-0.2,0.1-1.1,0.2-1.7,0.2c0.8,0.4,1.6,0.2,2.4,0.6c-0.4,0.7-3.7-0.5-5.6-0.4c0.8,0.6,3.6,0.2,2.5,0.9
						c1.5-0.8,3.2,0.8,5.6,0.4l-0.2,0.4c0.4,0,1.1-0.1,1.8,0l-1.3,0.4c1.9-0.2,3.4,1,5.2,0.9c-3.7-0.5-0.7-0.7-2.2-1.2
						c4.6,0,2.4,1.6,7.5,1.9c-0.7,0-2.5-0.5-1.4-0.7c0.9,0.2,2.2,0.5,2.8,0.8c3.4,0.2-0.5-0.5,1-0.7c1.1,0.7,1.7-0.1,3.1-0.2l0,0.5
						c3.8,0.5,1.1-0.9,4.5-0.4l-1.5,0.6l1.8-0.1l-0.4,0.5c2-0.3,2.6-0.2,4.5,0c-0.4-0.4,0.3-0.9,2-0.8c1.1,0.3-0.7,0.4,1.7,0.4
						c-0.5,0.3-1.1,0.7-2.2,0.2c-0.1,0.2-0.5,0.3-0.7,0.4c1.2,0.4,3.1,0.2,4,0.2c-0.3,0-0.7-0.1-0.9-0.1l3.5-0.6
						c0.5,0.2,0.1,0.3-0.3,0.5c0.7,0,1.2-0.3,2.2-0.3c-0.3,0.4-0.2,0.8-1.7,1l3.3-0.4c0.2,0.2,1.7,0.5,1.3,0.6
						c1.8,0.2,4.5-0.8,6.9-0.5c0.1-0.1,0.4-0.2,0.9-0.2c2.3,0,4.3,0.5,7-0.2l1.6,0.6c2.1-0.2-2.1-0.8,1.4-1.2c2.5-0.3,1,0.6,1.8,0.7
						c1.2-0.4,3.3-1.2,5.6-0.8C170.7,271.2,170.1,271.1,169.4,271.2z M195.3,269.1c-0.5,0.1-1.5,0.5-1.9,0.3
						C194,268.8,194.4,269,195.3,269.1z M234.4,264.1c-0.4,0.2-0.9,0.2-1.6,0.1C233.2,264.1,233.8,264,234.4,264.1z M341,239.4
						C341,239.4,341,239.5,341,239.4C339.9,239.6,340.3,239.5,341,239.4z M343.3,239c0.2-0.1,0.2-0.2,0.1-0.2
						c-0.1,0.2-0.6,0.3-1.2,0.4C342.4,239.3,342.7,239.3,343.3,239z M98,262.4l0.4,0.2C97.4,262.5,97.7,262.4,98,262.4z"/>
					<path class="st15" d="M230,265.3c-0.2-0.1-0.2-0.1-0.2-0.2C229.6,265.1,229.6,265.2,230,265.3z"/>
					<path class="st15" d="M153.3,272.1L153.3,272.1c-0.1,0-0.1,0.1-0.2,0.1L153.3,272.1z"/>
					<path class="st15" d="M309.4,251.8c-0.5,0-0.8,0-1,0C308.5,251.9,308.7,251.9,309.4,251.8z"/>
					<path class="st15" d="M354.9,234.8l-1.4,0.5c0.7-0.2,1-0.2,1.3-0.2C354.8,235.1,354.4,235,354.9,234.8z"/>
					<path class="st15" d="M368.1,233.9c0.2-0.1,0.4-0.1,0.6-0.3l-0.1-0.2C367.7,233.8,367.1,234.1,368.1,233.9z"/>
					<path class="st15" d="M356.7,236c0.2,0.4,1.1,0,2.1-0.4c-0.1,0-0.1,0-0.2,0.1C358.7,235,357.7,235.5,356.7,236z"/>
					<path class="st15" d="M358.9,235.5c0.3-0.1,0.6-0.2,0.9-0.3C359.9,235,359.5,235.3,358.9,235.5z"/>
					<path class="st15" d="M346.1,238c0.5,0,0.2-0.6,0.5-0.5C346.9,236.8,343.5,239,346.1,238z"/>
					<polygon class="st15" points="357.8,237 357.3,236.7 356.9,237.2 					"/>
					<path class="st15" d="M349.8,239l1.6-0.3c0-0.1,0.1-0.2,0.4-0.3C350.9,238.6,349.8,238.8,349.8,239z"/>
					<path class="st15" d="M351.9,238.4c0.5-0.1,1-0.3,1.3-0.5C352.8,238,352.3,238.2,351.9,238.4z"/>
					<polygon class="st15" points="355.7,237.8 355.2,237.9 354.1,238.1 					"/>
					<path class="st15" d="M332.6,243.6l-1.7,0.6c-0.1,0.2,0.4,0.2,1-0.1C332.2,244,332.9,243.7,332.6,243.6z"/>
					<path class="st15" d="M338.2,243.5c-0.5,0-0.6-0.1-0.9-0.2l0.1,0.6L338.2,243.5z"/>
					<path class="st15" d="M333.1,245c-0.1,0.2-2.4,1.2-0.2,0.5C333.1,245.4,334.8,244.7,333.1,245z"/>
					<polygon class="st15" points="306.3,250.8 306.8,250.7 306.5,249.7 					"/>
					<path class="st15" d="M283.1,258.1c2.2-0.2,0.4-0.7,2.4-0.8c0.5-0.3-1.6,0.1-1.1-0.2C283.1,257.5,282.4,257.5,283.1,258.1z"/>
					<path class="st15" d="M284.4,257.1c0.2-0.1,0.4-0.2,0.6-0.3C284.6,256.9,284.5,257,284.4,257.1z"/>
					<polygon class="st15" points="97.4,200.4 98.4,199.5 97.6,199.9 					"/>
					<path class="st15" d="M98.6,197.9l0.7,0.2l0.1-1C99.2,197.3,98.8,197.8,98.6,197.9z"/>
					<path class="st15" d="M199.2,270.1l0.1-0.2c-0.2-0.1-0.6-0.1-1.2-0.1L199.2,270.1z"/>
					<polygon class="st15" points="180.4,271.1 180.7,271.1 180.1,270.5 					"/>
					<path class="st15" d="M164.6,272.7c0.6,0,1.4-0.2,2.1-0.2C165.3,272.7,164.4,272,164.6,272.7z"/>
				</g>
			</g>
		</g>
	</g>
</g>
<g>
	<g>
		<g>
			<g>
				<g>
					<path class="st15" d="M425,240.2c0.6-0.2,0.2-0.5,0.3-0.6C424.3,240,425,240.3,425,240.2z"/>
					<polygon class="st15" points="415.8,244.7 415.9,244.4 414.6,245.4 					"/>
					<path class="st15" d="M406.9,247.9c1.1,0.4,3.2-1.2,4.9-1.6l0.3,0.1l0.5-0.8C410.7,246.4,408.3,247.6,406.9,247.9z"/>
					<path class="st15" d="M401.6,248.2c0.4,0.2-1,0.6,1.1-0.3c-0.1,0-0.2,0-0.2,0C402.3,247.9,402,248,401.6,248.2z"/>
					<path class="st15" d="M402.5,247.9C403.4,247.5,401.8,247.9,402.5,247.9L402.5,247.9z"/>
					<path class="st15" d="M398.2,249.5l1.2-0.7c-0.3-0.1-1.4,0.3-1.1,0C397.1,249.5,397.4,249.5,398.2,249.5z"/>
					<path class="st15" d="M397.2,250.5l0.6-0.3C397.7,250.1,397.5,250.1,397.2,250.5z"/>
					<path class="st15" d="M399.1,249.4l-1.3,0.7c0.2,0,0.3,0.3,0.6-0.3C398.4,250.1,398.6,249.8,399.1,249.4z"/>
					<path class="st15" d="M399.9,249.3c0.7-0.1,1.7-0.3,0.5,0.3C402.8,248.7,402.2,248.3,399.9,249.3z"/>
					<path class="st15" d="M406.7,248.8l1-0.1l0.7-0.5C408,248.4,406.5,248.6,406.7,248.8z"/>
					<path class="st15" d="M390.3,251.9c0,0.2,0.5,0.2,0.7,0.4l0.9-0.5C391.4,251.8,390.5,252.1,390.3,251.9z"/>
					<path class="st15" d="M391,252.3l-1.3,0.7C391,252.6,391.2,252.4,391,252.3z"/>
					<polygon class="st15" points="397.2,251.3 399.3,250 396.8,251.4 					"/>
					<polygon class="st15" points="385,253.6 385.7,253 384.5,254 					"/>
					<path class="st15" d="M381.6,254.8c0.5-0.5-0.9-0.2-0.4-0.6c-0.9,0.4-1.7,0.9-2.3,1.3C379.6,255.2,380.4,254.9,381.6,254.8z"/>
					<path class="st15" d="M377.7,256.2c0.4-0.2,0.7-0.4,1.1-0.7C378.5,255.8,378.1,256,377.7,256.2z"/>
					<path class="st15" d="M387.3,253.7c-0.1-0.1-0.4-0.2-1.2-0.1l0.7,0.2C387,253.8,387.2,253.7,387.3,253.7z"/>
					<path class="st15" d="M386.8,253.8L386.8,253.8c-0.6,0.2-1,0.3-1.2,0.4C385.8,254.2,386.1,254.1,386.8,253.8z"/>
					<path class="st15" d="M387.5,253.6c-0.1,0-0.1,0-0.1,0C387.4,253.7,387.5,253.7,387.5,253.6z"/>
					<path class="st15" d="M393.5,252.2c-0.7,0.5-2.3,1.3-0.6,1.1C393.4,252.8,392.4,252.9,393.5,252.2z"/>
					<path class="st15" d="M388.3,253.9l1.5-0.4c-0.1-0.1-0.4-0.2,0-0.4L388.3,253.9z"/>
					<polygon class="st15" points="387.7,254.3 388.3,253.9 387.8,254.1 					"/>
					<path class="st15" d="M380.4,255.8c-0.6,0.4-1.3,0.6-2,0.9c0.9-0.2,1.7-0.4,2.6-0.7C381,255.9,381.2,255.5,380.4,255.8z"/>
					<path class="st15" d="M383.5,254.9c0,0-0.1,0-0.1,0.1C383.5,255,383.5,255,383.5,254.9z"/>
					<path class="st15" d="M370.5,259.1l0.1,0c0,0,0-0.1,0-0.1L370.5,259.1z"/>
					<path class="st15" d="M381.1,256c0.7-0.1,1-0.4,1.3-0.6c-0.5,0.2-1,0.4-1.5,0.6C380.9,256.1,380.9,256.1,381.1,256z"/>
					<path class="st15" d="M375.6,257.1c0.4,0,0.8-0.1,1.2-0.1C376.4,257,375.7,257,375.6,257.1z"/>
					<path class="st15" d="M383.1,254.9C383.2,254.9,383.2,254.9,383.1,254.9C383,254.9,383,254.9,383.1,254.9z"/>
					<path class="st15" d="M383.1,254.9c-0.3,0.2-0.5,0.4-0.8,0.5c0.4-0.2,0.7-0.3,1-0.5C383.3,255,383.2,254.9,383.1,254.9z"/>
					<path class="st15" d="M369,262.5c0-0.4,1.6-1.3,3.1-1.3c1.3-0.7,0-1.7-1.4-2c0,0.2,0.1,0.3-1.3,1c0.6,0,3.4-0.5,2.3,0.2
						c-1.9,0.8-1.6,0.4-2.6,0.4c0.9,0.2-2.3,1.4-1.6,2l1.6-0.8C369.1,262.2,368.5,262.5,369,262.5z"/>
					<path class="st15" d="M373.5,258.3l0.6-0.2c-0.7,0.1-1.2,0.1-2.2,0.1c-0.9,0.5-1.1,0.7-1.1,0.8l3-0.9L373.5,258.3z"/>
					<path class="st15" d="M376.8,257.3c-0.3,0.6-1.7,1.2-0.7,1.3c1.8-0.6,1.1-0.7,2.1-1.2C375.4,258.4,378.9,256.9,376.8,257.3
						c0.6-0.2,1.1-0.4,1.5-0.5c-0.5,0.1-1,0.2-1.5,0.3c0,0,0,0,0.1,0l0,0l0,0c0.1,0,0.2,0,0,0c0,0,0,0-0.1,0
						C376.8,257.1,376.8,257.2,376.8,257.3c-0.9,0.2-0.2-0.1,0.1-0.2c0,0,0,0,0-0.1l0,0l-2.8,1.1C374.7,258,375.4,257.7,376.8,257.3
						z"/>
					<path class="st15" d="M391.7,254.7c-0.1,0-0.1,0-0.1-0.1C391.4,254.7,391.3,254.8,391.7,254.7z"/>
					<path class="st15" d="M390.4,254.8c0.2-0.1,0.3-0.3,1-0.5c0.6-0.1,0.1,0.2,0.1,0.3c0.4-0.2,1.3-0.8,0-0.5l-0.2,0.1
						c-1.2,0.2-2.8,0.2-2.6,0.1C389.2,254.5,389.6,254.7,390.4,254.8z"/>
					<path class="st15" d="M383.6,256.2l-2.3,1l1.3,0l-0.1-0.2C383.8,256.6,383.4,256.4,383.6,256.2z"/>
					<polygon class="st15" points="370.2,259 370.4,258.5 369.2,259.5 					"/>
					<polygon class="st15" points="367.1,260 367.1,259.6 366.4,260.1 					"/>
					<path class="st15" d="M188.6,296.8l-0.7,0.2C188.2,296.9,188.5,296.8,188.6,296.8z"/>
					<path class="st15" d="M193.9,296.4l0.1-0.2C193.8,296.4,193.7,296.4,193.9,296.4z"/>
					<path class="st15" d="M290.3,279.1c-1.1-0.2-2.4-0.5-2.2-0.1l0.4,0.4C289.2,279.2,289.8,279.1,290.3,279.1z"/>
					<path class="st15" d="M237,290.1c0.1,0,0.2,0.1,0.3,0.1c0.2-0.2,0.5-0.3,0.7-0.5C237.7,289.8,237.3,289.9,237,290.1z"/>
					<path class="st15" d="M236.4,292l-1.4-0.1C235.3,291.9,235.8,291.9,236.4,292z"/>
					<path class="st15" d="M159.6,298.6l-0.9,0.5C160.1,299.1,159.5,298.9,159.6,298.6z"/>
					<path class="st15" d="M335.4,269.1c-0.9,0.1-1.7,0.2-2.3,0.3C334.2,269.4,335.2,269.5,335.4,269.1z"/>
					<path class="st15" d="M190.4,292.1c-0.4,0.1-0.6,0.2-0.6,0.3C190.2,292.3,190.5,292.2,190.4,292.1z"/>
					<path class="st15" d="M330.5,270c0.2,0,0.3,0,0.5,0c0.6-0.2,1.3-0.5,2.1-0.6C332.3,269.4,331.3,269.5,330.5,270z"/>
					<path class="st15" d="M80.1,253.9c0-0.1,0.1-0.2,0.1-0.2C80.2,253.6,80.1,253.7,80.1,253.9z"/>
					<path class="st15" d="M100.2,230.3c-0.2,0.2-0.5,0.6-0.8,1C99.6,231.1,99.8,230.8,100.2,230.3z"/>
					<path class="st15" d="M354.6,263.5C355.3,263.3,354.7,263.4,354.6,263.5L354.6,263.5z"/>
					<path class="st15" d="M358.3,264.2c-0.1,0.1-0.2,0.2-0.2,0.3C358.1,264.4,358.2,264.3,358.3,264.2z"/>
					<path class="st15" d="M324.5,274.3C324.5,274.3,324.5,274.3,324.5,274.3C324.7,274.4,324.7,274.4,324.5,274.3z"/>
					<path class="st15" d="M355.7,263.4c-0.3,0-0.6,0.1-0.9,0.1C354.9,263.5,355.2,263.5,355.7,263.4z"/>
					<path class="st15" d="M355.5,263.2c0.2,0,0.4-0.1,0.6-0.1C356.1,263,356.1,263,355.5,263.2z"/>
					<path class="st15" d="M353.7,263.8c0.4-0.1,0.7-0.2,1.1-0.3c-0.1,0-0.2,0-0.2,0C354.4,263.5,354.2,263.6,353.7,263.8z"/>
					<path class="st15" d="M110.8,293.8c0,0-0.1,0-0.1-0.1C109.9,293.7,110.2,293.8,110.8,293.8z"/>
					<path class="st15" d="M273.5,286.8C273.5,286.8,273.6,286.8,273.5,286.8C273.6,286.7,273.5,286.7,273.5,286.8L273.5,286.8z"/>
					<path class="st15" d="M271.1,287.5c1-0.7,1.5-0.7,2.4-0.8l-1-1.1L271.1,287.5z"/>
					<path class="st15" d="M175.9,297.7l1.8,0.3c-2.1,0.8-3.6,0.6-1.9,1.1c0.2-1.4,6.8-0.5,6.9-1.9l1.2,0.2c-0.3,0-0.4,0.1-0.7,0.1
						c2.3,0.5,1.6-1.1,4.5-1.1c1,0,1.7,0.2,1,0.4l2.2-0.5c0.6,0,0.5,0.2-0.1,0.2l3.4-0.4l0,0c0.5-0.2,1.5-0.7,2.1-0.8
						c0.9,0.1-0.4,0.2-0.2,0.3l1.8-0.5c0.8,0.3-0.7,0.8-2,0.8c1.9,1.2,1.5-0.5,5.4,0l-1.8,0.3c1.2,0.7,2.6,0.3,4.6,0.6
						c-0.5-0.2-4.1-0.9-2.1-1.4c0.6,0.1,1.3,0,2.4-0.3c0.1,0.5,1.1,0.3,2.4,0.1l0,0.6c1.4-0.3,1.3-0.6,2.1-1c1.6-0.1,2,0.4,2.4,0.8
						c2.6-0.1-1.9-0.6,1.2-1c2.2,0,3.7-0.3,6.2-1c1.5,0.1-0.2,0.4,0.3,0.5l1.3-0.6c0.3,0,0.2,0.1,0.2,0.2c1.1-0.3,0-0.6,1.8-1
						c0.4-0.8,3.7,0.7,5.8-0.3c0.6,0.1-0.2,0.4,0,0.6c2.9-0.9,2.5-0.7,4.9-1.6l2.1,0.2c-1.6-0.3,0.3-1.1,2-1.7
						c-0.6-0.2-1.1-0.3-1.4-0.4l2.7-0.7c0.3,0.1,0.1,0.3-0.3,0.6c0.2-0.1,0.4-0.2,0.5-0.2c1,0.1,0.5,0.5-0.1,1
						c-0.3-0.1-0.7-0.2-1-0.3c-0.6,0.5-1.2,1-1,1.3c0.2-0.1,0.5-0.2,0.9-0.3c-0.2,0.1-0.3,0.2-0.2,0.3c0.1,0.1,0.4-0.1,0.8-0.3
						l0.7,0.6l0.1-0.3l3.6,0c2.5-1.1,4.6-2.3,8.6-3.2c-0.9,0.7-0.1,0.9-0.1,1.5c-1.2-0.5-3.1,0.7-5.2,0.8c1.1-0.1,0.9,0.3,0.6,0.4
						c1.2-0.4,2.5-0.7,3.7-1.1c0,0.5,0.8,0.3,1.9,0.3c-0.9-0.9,2.7-1.1,4.2-1.6c0.1,0.3-0.2,0.7-2.1,0.9c2.2,0.5,2.5-1.5,4.6-1.2
						c-0.5,0.1-0.7,0.1-0.9,0.3c1-0.4,3.7-0.6,3.1-0.2l-0.5,0.1c3-0.4,9.2-1.4,9.5-2.3c0,0.1-0.2,1.1-0.4,1.3
						c1.6-1.2,3.3-2.5,4.9-3.7c-0.4,0.8,1.8,2.2-0.7,3c0.7,0,1.6-0.1,3.1-0.6c-0.5,0-1.4-0.8-0.7-1c2,0.5,1.3,0.2,3.7,0.5
						c-0.8,0-0.1-1.3,1-1.5c-0.2,0.2,0.3,1.1-0.1,1.3l2.7-1.6c-0.7,0.3,0,1,0.7,1.2c-0.3-0.2,2.5-0.5,3.2-0.7l-1.3,0
						c3.3-0.5,2.9-2.2,6.1-2.7c-0.3,0.3-0.7,1.6,1,1.4c0.6-0.7,2.8-3.3,5.5-4.4l0.6,0.2l2.1-0.8c-1.2,1.1-4.6,3.7-6.6,4.8
						c1.3,0,0.4,0.3,2.2-0.1c0.7,0.2-0.9,0.7-1.4,0.8l4.3-0.7c-0.3-0.6,3.1-1.3,2.8-1.9l-4.4,1.6c-0.3-0.6,2.3-2.4,5.3-2.9
						c0.8,0.1-0.3,1.3-0.2,1.5c0.3-0.3,2.7-1,3.1-0.9l-1.2,0.6c1.7-0.1,2.5-1.4,4.7-1.2c0.7-0.1,2.2,0.4,2.3,0
						c-1.3-0.5-2-2.8-1.4-3.5c0.3,0,3.8-0.1,4.6,0.1c1.3,0.3-1.4,1.8-0.3,2.1c0-0.2,0.6-0.6,0.8-0.7c0.8,0-0.2,0.6,1.4,0.2
						c0.1-0.7,3.2-0.7,0.6-0.7c1.5-0.5,1.7-0.2,3.5-0.7c-0.7-0.3,1.3-1.8,2.7-2.4c0,0.2,0.3,0.3,0.5,0.4c3.1-0.7,4.9-0.8,7.8-1.5
						c0.3,0.1,1.8-0.1,1.2,0.4c0.4-0.2,0.7-0.5,1.6-0.8c1.9,0.1-2,0.6-0.5,0.9c0-0.4,2.2-1.1,3.4-1.7c-0.5-0.5-3,0.7-4.2,1.2
						c-0.2-0.8,1.8-2.2,4.7-3.4c2.4-0.8,1.2,0.2,1.6,0c4.6-1.1,3.5-2.5,7.4-2.9c1.6,0.1,0.4,1,0.8,1.3c-1.9,0.7-3.1,0.5-4.4,0.9
						l1.7-0.2c-0.6,0.3-1.9,0.8-2.6,0.9c1.4,0.1,7.7-1.9,11.3-2.5c0.6-0.4,1.6-0.8,1-0.9l-1.1,0.4c-1.1-0.1,1.9-1.2,0.5-1
						c1.4-0.7,2.9-1.7,5-2l0.6,0.5c-0.1-0.2-1.5,0-2,0.4c0.8-0.5,3.4-0.1,4.1-1.2l-1.6,0c1.4-0.7,3-1.9,4.9-2.3
						c-1-0.3-0.4,0.2-1.9-0.1c1.4,0.5-4.7,1.3-2.6,1.7c-1.6-0.4-2.4,0.3-4.4,0.2c0.1,0.2,0.7,0.2-0.8,0.5c-0.1,0.1-0.2,0.2-0.3,0.3
						c0,0-0.1,0-0.1,0c0,0,0.1,0,0.1,0c-0.1,0-0.1,0.1,0,0c0.4,0,0.7,0,0.9,0.1c-0.6,0.7-3.1,1.4-3.9,1.8c-0.9,0.2,0.3-0.3-0.2-0.4
						l-1.1,0.7c-0.2-0.4-2.6,0-0.5-0.9l-1.9,0.5c-1.2,0.1-2.8,0.4-3.7,0.8c-0.9,0.2-2.2,1.1-1.5,0.5l-3,1.1l-0.1-0.1
						c-3,0.8-6,2.4-9.7,2.4c-1,0.4-2,0.8-3.7,1.1l-0.4-0.3c-1.3,0.5-4,0.6-4.5,1.1c-1.6-0.7-6.4,1.2-8.8,1.6l0,0.5
						c-1.6,0.3-3.1,0.8-5,1.5l0.2,0.4c-1.6,0.7-4.5,0.6-7.2,1.2c0.1-0.2,0.8-0.3,1.4-0.3c-3.4-0.3-6.7,2.2-9.8,2
						c-0.7,0.3-1.2,0.3-1.8,0.3c0.1,0,0.1,0,0.2-0.1c-0.1,0-0.2,0-0.3,0.1c-0.3,0-0.7,0-1.1,0c0.3,0,0.6,0.1,0.9,0.1
						c-0.6,0.1-1.4,0.3-2.2,0.6l-0.4-0.4c-0.1,0-0.1,0-0.2,0.1c-0.9,0-0.6,0.4-0.1,0.6c-0.4,0.2-0.8,0.3-1.1,0.5
						c-0.8-0.6-2.2,0.7-3.2,0c-0.5,0.5-4.2,1.1-4.5,2c0-0.1-0.3-0.1,0.1-0.2c-1,0.1-1.9,0.1-2.7,0.5l-0.5-0.5l-1.9,1.2
						c-1.3-0.1-1.9-0.3-0.7-1c-2.9,1.2-2.4,0.7-4.8,1.8l0.1-0.4c-0.9,0.2-2.3,0.9-2.9,0.7c-1.1-0.2-3.6,0.2-6.5,0.6
						c-2.9,0.4-6.3,0.9-8.9,0.9c1.2,1-2.5-0.2-2.6,0.8c-0.3-0.2-1.1-0.3-0.3-0.6c-2.6,0.6-4.1,0.1-5.8,1.1c-0.3-0.2,0.5-0.5,0.2-0.6
						c-0.2,0.1-0.8,0.3-1.1,0.2c-0.3-0.1,0.4-0.3,0.8-0.5c-2.7,0.4-2.9,1.3-3,2.1c-1.4-0.2-2.1-0.1-3.1,0.6
						c-0.5-0.2-1.4-0.4,0.3-0.7c-1,0.1-5.9,0.3-5.9,0.9c-0.3-0.1-1.3,0.1-1.6,0.2c-2.2,0.2-2.4,0.2-4.5,0.4l0.6,0
						c-0.8,0.8-1.7,0.3-3.4,0.6l0-0.1c-4-0.2-1.7,0.4-5.6,0.2l0.3,0.5c-0.3,1.1-3.5-0.3-5.7,0.3l0.8,0.2c-1.2,0.5-3.6-1.1-4.8-1.1
						c-0.3-0.1,0.4-0.2,0.8-0.3c-3.3-0.3-0.4,0.7-2.8,1c-0.5-0.3,0.5-0.9-1.1-0.8c-0.8-0.2-4.6,1.5-6.9,1c0.5,0.2,1,0.4-0.1,0.7
						c-1.7,0.2-4.7-0.6-6.2,0.3c-0.2-0.1-0.3-0.1-0.3-0.2c-1.3,0.3-4.2,0.6-5,1.1c-1.3-1.6-8.1,1.3-8.1-0.2l-4,0.3l0.1-0.2
						c-2.6,0-3.5,0.4-4.4,0.8c-0.6-0.1-0.2-0.2-0.1-0.3c-3.8-0.2-4.1-0.1-7.3,0.7l-0.3-0.5c-0.9,0.3-5.4-0.7-9.1-0.1
						c0-0.1,0.1-0.2,0.4-0.2c-4.2,0.6-9.9-1.5-11.4,0.2l-2.8,0.3c3.5,0.3-0.6,0.8,0.9,1.1c-1.4,0.1-3.6-0.7-1.9-0.7l0.3,0.1
						c0.7-0.9-4.4-0.6-4.2-1.2c-6.9-0.4-13.6-1.7-19.9-3l0.6,0.9l-2.2-0.5c-0.5-0.3-0.7-0.7,0.9-0.4c-0.7-0.6-2.7-0.2-2.8-0.1
						c-3-1,1.4-0.5,0.5-0.8l-1.3-0.2l0.3,0.2c-1.1,0-1.3,0.3-3.1-0.2c-1.1-0.5-0.5-0.6-0.9-0.8c0-0.1-0.1-0.1-0.7-0.2
						c-0.9-0.3-1.8-0.6-2.6-0.9c0.3,0.3,0.6,0.6,0.9,0.9c-1.3-0.1-2.5-0.9-1.5,0.2c-0.7-0.8-3.2-1.8-5.4-2.9
						c-2.3-1.1-4.3-2.3-4.7-2.8c-1.6-0.6-3-1.7-4.4-3.2c0.3,0.4,0,1.2-1.2-0.3c0.7-0.2,0.3-0.9-0.3-1.8c-0.3-0.4-0.6-1-0.8-1.5
						c-0.2-0.5-0.3-1-0.3-1.4c0,0.7-0.6-0.4-1.1-1.4c-0.5-1-0.8-2-1-1c-0.3-1.5,0.5-0.2,0.5-1.4c-0.6-1.6-0.7-3.5-0.5-5.5
						c0.2-2,0.8-4.1,1.2-6.2c-0.1-0.1-0.6,0.5-0.6-0.5c0.5-0.7,1-1.3,1.5-2c0.2-0.8-0.7-1.1,0.5-2.4c-0.2,0.2-0.6,0.4-0.4-0.2
						c2.1-3.9,4.1-7.9,6.5-11.8c2.4-3.9,5.2-7.6,8.7-10.6c-1,0.7-0.6,0.1,0-0.7c-0.5,0.4-0.3-0.3-0.6-0.3c1-0.8,2-1.7,3-2.5
						c-0.1-1,2.7-3.1,2.5-3.8l-0.7,1c0.5-1.7-2.7,0.6-3.3-0.2c-0.6,1.9-4.1,2.9-5.1,6c-0.6,0.4,0.1-0.6-0.3-0.5
						c-0.2,0.9-0.7,1.6-1.8,2.9l0-0.2c-1.4,1.9-2.5,3.3-3.6,4.7c-1.1,1.4-2.3,2.9-3.8,5.2l0.6-0.1c-0.7,1-0.9,1.1-1.3,1.5
						c-0.1,1.5,1.7-2.8,1.8-1.3c-0.8,0.4-1.9,2.2-2.8,3.9c-1,1.8-1.8,3.5-2.5,3.8c-0.7,1.7,0.7-0.3,0,1.4l-0.5,0.3l0.2,0.6
						c-0.5,1.1-1.1,1.5-1.3,1.5c0.1-0.3,0.2-0.8,0.3-1.1c-0.9,1.3-1.3,4.3-1.5,4.8c0.2-0.6,0.4-1.1,0.7-1.7
						c-0.6,2.5-1.2,5.3-1.4,8.1c-0.1,2.9,0.2,5.8,1.3,8.2l0.1-0.4c0.3,0.9,0.7,1.5,0.8,2c0.2,0.5,0.3,0.9,0.5,1.3
						c0.3,0.8,0.6,1.6,1.8,3.3l-0.1-0.1c0.3,0.3,0.7,0.6,1.1,1c0.4,0.4,0.8,0.8,1.1,1.2c-0.9-0.6,1,1.8-0.2,1
						c1.6,1.3,2.1,1.5,2.5,1.6c0.3,0.1,0.6,0.1,1.9,0.5l0.3,0.7c0.9,0.2,1.1,0.1,2.8,1.1c-1.6-0.6,0.8,1.1-1,0.6
						c1.6,1.5,3.2,2,4.4,2.4c1.2,0.4,2.2,0.7,2.9,1.6c1.1-0.1,0.3-0.6-0.6-1c-0.9-0.4-2-0.8-1.4-0.7c-0.7-0.7,1.7-0.1,2.9,0.5
						c1.2,0.5,1.7,2.1,4.9,3c-0.3-0.1-0.4,0-0.7-0.1c1.1,0.6,2.5,0.3,3.9,1.1c1-0.4,1.9,0.5,2.4-0.2c-1-0.2-2-0.3-3-0.5
						c1.7,0.2,3.5-0.3,6.2,0.7c-0.2,0.1-1.1,0.2-1.7,0.2c0.8,0.4,1.6,0.2,2.4,0.6c-0.4,0.7-3.7-0.5-5.6-0.4c0.8,0.6,3.6,0.2,2.5,0.9
						c1.5-0.8,3.2,0.8,5.6,0.4l-0.2,0.4c0.4,0,1.1-0.1,1.8,0l-1.3,0.4c1.9-0.2,3.4,1,5.2,0.9c-3.7-0.5-0.7-0.7-2.2-1.2
						c4.6,0,2.4,1.6,7.5,1.9c-0.7,0-2.5-0.5-1.4-0.7c0.9,0.2,2.2,0.5,2.8,0.8c3.4,0.2-0.5-0.5,1-0.7c1.1,0.7,1.7-0.1,3.1-0.2l0,0.5
						c3.8,0.5,1.1-0.9,4.5-0.4l-1.5,0.6l1.8-0.1l-0.4,0.5c2-0.3,2.6-0.2,4.5,0c-0.4-0.4,0.3-0.9,2-0.8c1.1,0.3-0.7,0.4,1.7,0.4
						c-0.5,0.3-1.1,0.7-2.2,0.2c-0.1,0.2-0.5,0.3-0.7,0.4c1.2,0.4,3.1,0.2,4,0.2c-0.3,0-0.7-0.1-0.9-0.1l3.5-0.6
						c0.5,0.2,0.1,0.3-0.3,0.5c0.7,0,1.2-0.3,2.2-0.3c-0.3,0.4-0.2,0.8-1.7,1l3.3-0.4c0.2,0.2,1.7,0.5,1.3,0.6
						c1.8,0.2,4.5-0.8,6.9-0.5c0.1-0.1,0.4-0.2,0.9-0.2c2.3,0,4.3,0.5,7-0.2l1.6,0.6c2.1-0.2-2.1-0.8,1.4-1.2c2.5-0.3,1,0.6,1.8,0.7
						c1.2-0.4,3.3-1.2,5.6-0.8C177.2,297.7,176.6,297.6,175.9,297.7z M201.8,295.6c-0.5,0.1-1.5,0.5-1.9,0.3
						C200.5,295.3,200.9,295.5,201.8,295.6z M240.9,290.5c-0.4,0.2-0.9,0.2-1.6,0.1C239.7,290.5,240.3,290.5,240.9,290.5z
						 M347.5,265.9C347.5,265.9,347.5,265.9,347.5,265.9C346.4,266,346.8,266,347.5,265.9z M349.8,265.5c0.2-0.1,0.2-0.2,0.1-0.2
						c-0.1,0.2-0.6,0.3-1.2,0.4C348.9,265.8,349.2,265.8,349.8,265.5z M104.5,288.9l0.4,0.2C103.9,289,104.2,288.9,104.5,288.9z"/>
					<path class="st15" d="M236.5,291.7c-0.2-0.1-0.2-0.1-0.2-0.2C236.1,291.6,236.1,291.7,236.5,291.7z"/>
					<path class="st15" d="M159.8,298.5L159.8,298.5c-0.1,0-0.1,0.1-0.2,0.1L159.8,298.5z"/>
					<path class="st15" d="M315.9,278.3c-0.5,0-0.8,0-1,0C315,278.4,315.2,278.4,315.9,278.3z"/>
					<path class="st15" d="M361.4,261.3l-1.4,0.5c0.7-0.2,1-0.2,1.3-0.2C361.3,261.5,360.9,261.5,361.4,261.3z"/>
					<path class="st15" d="M374.6,260.4c0.2-0.1,0.4-0.1,0.6-0.3l-0.1-0.2C374.2,260.2,373.6,260.6,374.6,260.4z"/>
					<path class="st15" d="M363.2,262.5c0.2,0.4,1.1,0,2.1-0.4c-0.1,0-0.1,0-0.2,0.1C365.2,261.5,364.2,262,363.2,262.5z"/>
					<path class="st15" d="M365.4,262c0.3-0.1,0.6-0.2,0.9-0.3C366.4,261.4,366,261.7,365.4,262z"/>
					<path class="st15" d="M352.6,264.4c0.5,0,0.2-0.6,0.5-0.5C353.4,263.3,350,265.4,352.6,264.4z"/>
					<polygon class="st15" points="364.3,263.5 363.8,263.1 363.4,263.7 					"/>
					<path class="st15" d="M356.3,265.4l1.6-0.3c0-0.1,0.1-0.2,0.4-0.3C357.4,265.1,356.3,265.3,356.3,265.4z"/>
					<path class="st15" d="M358.4,264.8c0.5-0.1,1-0.3,1.3-0.5C359.3,264.5,358.8,264.7,358.4,264.8z"/>
					<polygon class="st15" points="362.2,264.3 361.7,264.3 360.6,264.6 					"/>
					<path class="st15" d="M339.1,270.1l-1.7,0.6c-0.1,0.2,0.4,0.2,1-0.1C338.7,270.4,339.4,270.2,339.1,270.1z"/>
					<path class="st15" d="M344.7,270c-0.5,0-0.6-0.1-0.9-0.2l0.1,0.6L344.7,270z"/>
					<path class="st15" d="M339.6,271.5c-0.1,0.2-2.4,1.2-0.2,0.5C339.6,271.8,341.3,271.2,339.6,271.5z"/>
					<polygon class="st15" points="312.8,277.2 313.3,277.1 313,276.2 					"/>
					<path class="st15" d="M289.6,284.6c2.2-0.2,0.4-0.7,2.4-0.8c0.5-0.3-1.6,0.1-1.1-0.2C289.6,284,288.9,284,289.6,284.6z"/>
					<path class="st15" d="M290.9,283.5c0.2-0.1,0.4-0.2,0.6-0.3C291.1,283.4,291,283.5,290.9,283.5z"/>
					<polygon class="st15" points="103.9,226.8 104.9,226 104.1,226.4 					"/>
					<path class="st15" d="M105.1,224.4l0.7,0.2l0.1-1C105.7,223.8,105.3,224.3,105.1,224.4z"/>
					<path class="st15" d="M205.7,296.6l0.1-0.2c-0.2-0.1-0.6-0.1-1.2-0.1L205.7,296.6z"/>
					<polygon class="st15" points="186.9,297.6 187.2,297.5 186.6,297 					"/>
					<path class="st15" d="M171.1,299.2c0.6,0,1.4-0.2,2.1-0.2C171.8,299.2,170.9,298.5,171.1,299.2z"/>
				</g>
			</g>
		</g>
	</g>
</g>
<g>
	<g>
		<g>
			<g>
				<g>
					<path class="st15" d="M425,260.7c0.6-0.2,0.2-0.5,0.3-0.6C424.3,260.5,425,260.8,425,260.7z"/>
					<polygon class="st15" points="415.8,265.1 415.9,264.9 414.6,265.8 					"/>
					<path class="st15" d="M406.9,268.4c1.1,0.4,3.2-1.2,4.9-1.6l0.3,0.1l0.5-0.8C410.7,266.9,408.3,268.1,406.9,268.4z"/>
					<path class="st15" d="M401.6,268.7c0.4,0.2-1,0.6,1.1-0.3c-0.1,0-0.2,0-0.2,0C402.3,268.4,402,268.5,401.6,268.7z"/>
					<path class="st15" d="M402.5,268.4C403.4,268,401.8,268.4,402.5,268.4L402.5,268.4z"/>
					<path class="st15" d="M398.2,270l1.2-0.7c-0.3-0.1-1.4,0.3-1.1,0C397.1,270,397.4,270,398.2,270z"/>
					<path class="st15" d="M397.2,270.9l0.6-0.3C397.7,270.6,397.5,270.6,397.2,270.9z"/>
					<path class="st15" d="M399.1,269.9l-1.3,0.7c0.2,0,0.3,0.3,0.6-0.3C398.4,270.6,398.6,270.3,399.1,269.9z"/>
					<path class="st15" d="M399.9,269.8c0.7-0.1,1.7-0.3,0.5,0.3C402.8,269.2,402.2,268.8,399.9,269.8z"/>
					<path class="st15" d="M406.7,269.3l1-0.1l0.7-0.5C408,268.9,406.5,269.1,406.7,269.3z"/>
					<path class="st15" d="M390.3,272.4c0,0.2,0.5,0.2,0.7,0.4l0.9-0.5C391.4,272.3,390.5,272.5,390.3,272.4z"/>
					<path class="st15" d="M391,272.8l-1.3,0.7C391,273.1,391.2,272.9,391,272.8z"/>
					<polygon class="st15" points="397.2,271.8 399.3,270.5 396.8,271.9 					"/>
					<polygon class="st15" points="385,274.1 385.7,273.5 384.5,274.5 					"/>
					<path class="st15" d="M381.6,275.3c0.5-0.5-0.9-0.2-0.4-0.6c-0.9,0.4-1.7,0.9-2.3,1.3C379.6,275.7,380.4,275.4,381.6,275.3z"/>
					<path class="st15" d="M377.7,276.7c0.4-0.2,0.7-0.4,1.1-0.7C378.5,276.2,378.1,276.5,377.7,276.7z"/>
					<path class="st15" d="M387.3,274.2c-0.1-0.1-0.4-0.2-1.2-0.1l0.7,0.2C387,274.3,387.2,274.2,387.3,274.2z"/>
					<path class="st15" d="M386.8,274.3L386.8,274.3c-0.6,0.2-1,0.3-1.2,0.4C385.8,274.7,386.1,274.6,386.8,274.3z"/>
					<path class="st15" d="M387.5,274.1c-0.1,0-0.1,0-0.1,0C387.4,274.2,387.5,274.2,387.5,274.1z"/>
					<path class="st15" d="M393.5,272.7c-0.7,0.5-2.3,1.3-0.6,1.1C393.4,273.3,392.4,273.4,393.5,272.7z"/>
					<path class="st15" d="M388.3,274.4l1.5-0.4c-0.1-0.1-0.4-0.2,0-0.4L388.3,274.4z"/>
					<polygon class="st15" points="387.7,274.8 388.3,274.4 387.8,274.6 					"/>
					<path class="st15" d="M380.4,276.3c-0.6,0.4-1.3,0.6-2,0.9c0.9-0.2,1.7-0.4,2.6-0.7C381,276.3,381.2,276,380.4,276.3z"/>
					<path class="st15" d="M383.5,275.4c0,0-0.1,0-0.1,0.1C383.5,275.5,383.5,275.5,383.5,275.4z"/>
					<path class="st15" d="M370.5,279.6l0.1,0c0,0,0-0.1,0-0.1L370.5,279.6z"/>
					<path class="st15" d="M381.1,276.5c0.7-0.1,1-0.4,1.3-0.6c-0.5,0.2-1,0.4-1.5,0.6C380.9,276.6,380.9,276.6,381.1,276.5z"/>
					<path class="st15" d="M375.6,277.6c0.4,0,0.8-0.1,1.2-0.1C376.4,277.5,375.7,277.5,375.6,277.6z"/>
					<path class="st15" d="M383.1,275.4C383.2,275.4,383.2,275.4,383.1,275.4C383,275.4,383,275.4,383.1,275.4z"/>
					<path class="st15" d="M383.1,275.4c-0.3,0.2-0.5,0.4-0.8,0.5c0.4-0.2,0.7-0.3,1-0.5C383.3,275.5,383.2,275.4,383.1,275.4z"/>
					<path class="st15" d="M369,283c0-0.4,1.6-1.3,3.1-1.3c1.3-0.7,0-1.7-1.4-2c0,0.2,0.1,0.3-1.3,1c0.6,0,3.4-0.5,2.3,0.2
						c-1.9,0.8-1.6,0.4-2.6,0.4c0.9,0.2-2.3,1.4-1.6,2l1.6-0.8C369.1,282.7,368.5,283,369,283z"/>
					<path class="st15" d="M373.5,278.8l0.6-0.2c-0.7,0.1-1.2,0.1-2.2,0.1c-0.9,0.5-1.1,0.7-1.1,0.8l3-0.9L373.5,278.8z"/>
					<path class="st15" d="M376.8,277.8c-0.3,0.6-1.7,1.2-0.7,1.3c1.8-0.6,1.1-0.7,2.1-1.2C375.4,278.9,378.9,277.4,376.8,277.8
						c0.6-0.2,1.1-0.4,1.5-0.5c-0.5,0.1-1,0.2-1.5,0.3c0,0,0,0,0.1,0l0,0l0,0c0.1,0,0.2,0,0,0c0,0,0,0-0.1,0
						C376.8,277.6,376.8,277.7,376.8,277.8c-0.9,0.2-0.2-0.1,0.1-0.2c0,0,0,0,0-0.1l0,0l-2.8,1.1
						C374.7,278.5,375.4,278.2,376.8,277.8z"/>
					<path class="st15" d="M391.7,275.1c-0.1,0-0.1,0-0.1-0.1C391.4,275.2,391.3,275.3,391.7,275.1z"/>
					<path class="st15" d="M390.4,275.3c0.2-0.1,0.3-0.3,1-0.5c0.6-0.1,0.1,0.2,0.1,0.3c0.4-0.2,1.3-0.8,0-0.5l-0.2,0.1
						c-1.2,0.2-2.8,0.2-2.6,0.1C389.2,275,389.6,275.2,390.4,275.3z"/>
					<path class="st15" d="M383.6,276.7l-2.3,1l1.3,0l-0.1-0.2C383.8,277.1,383.4,276.9,383.6,276.7z"/>
					<polygon class="st15" points="370.2,279.5 370.4,279 369.2,280 					"/>
					<polygon class="st15" points="367.1,280.5 367.1,280.1 366.4,280.6 					"/>
					<path class="st15" d="M188.6,317.3l-0.7,0.2C188.2,317.4,188.5,317.3,188.6,317.3z"/>
					<path class="st15" d="M193.9,316.9l0.1-0.2C193.8,316.9,193.7,316.9,193.9,316.9z"/>
					<path class="st15" d="M290.3,299.6c-1.1-0.2-2.4-0.5-2.2-0.1l0.4,0.4C289.2,299.7,289.8,299.6,290.3,299.6z"/>
					<path class="st15" d="M237,310.6c0.1,0,0.2,0.1,0.3,0.1c0.2-0.2,0.5-0.3,0.7-0.5C237.7,310.3,237.3,310.4,237,310.6z"/>
					<path class="st15" d="M236.4,312.5l-1.4-0.1C235.3,312.4,235.8,312.4,236.4,312.5z"/>
					<path class="st15" d="M159.6,319.1l-0.9,0.5C160.1,319.6,159.5,319.3,159.6,319.1z"/>
					<path class="st15" d="M335.4,289.6c-0.9,0.1-1.7,0.2-2.3,0.3C334.2,289.9,335.2,290,335.4,289.6z"/>
					<path class="st15" d="M190.4,312.6c-0.4,0.1-0.6,0.2-0.6,0.3C190.2,312.8,190.5,312.7,190.4,312.6z"/>
					<path class="st15" d="M330.5,290.5c0.2,0,0.3,0,0.5,0c0.6-0.2,1.3-0.5,2.1-0.6C332.3,289.9,331.3,290,330.5,290.5z"/>
					<path class="st15" d="M80.1,274.4c0-0.1,0.1-0.2,0.1-0.2C80.2,274.1,80.1,274.2,80.1,274.4z"/>
					<path class="st15" d="M100.2,250.8c-0.2,0.2-0.5,0.6-0.8,1C99.6,251.6,99.8,251.3,100.2,250.8z"/>
					<path class="st15" d="M354.6,284C355.3,283.8,354.7,283.9,354.6,284L354.6,284z"/>
					<path class="st15" d="M358.3,284.7c-0.1,0.1-0.2,0.2-0.2,0.3C358.1,284.9,358.2,284.8,358.3,284.7z"/>
					<path class="st15" d="M324.5,294.8C324.5,294.8,324.5,294.8,324.5,294.8C324.7,294.9,324.7,294.8,324.5,294.8z"/>
					<path class="st15" d="M355.7,283.9c-0.3,0-0.6,0.1-0.9,0.1C354.9,284,355.2,284,355.7,283.9z"/>
					<path class="st15" d="M355.5,283.7c0.2,0,0.4-0.1,0.6-0.1C356.1,283.5,356.1,283.5,355.5,283.7z"/>
					<path class="st15" d="M353.7,284.3c0.4-0.1,0.7-0.2,1.1-0.3c-0.1,0-0.2,0-0.2,0C354.4,284,354.2,284.1,353.7,284.3z"/>
					<path class="st15" d="M110.8,314.3c0,0-0.1,0-0.1-0.1C109.9,314.2,110.2,314.3,110.8,314.3z"/>
					<path class="st15" d="M273.5,307.3C273.5,307.3,273.6,307.3,273.5,307.3C273.6,307.2,273.5,307.2,273.5,307.3L273.5,307.3z"/>
					<path class="st15" d="M271.1,308c1-0.7,1.5-0.7,2.4-0.8l-1-1.1L271.1,308z"/>
					<path class="st15" d="M175.9,318.2l1.8,0.3c-2.1,0.8-3.6,0.6-1.9,1.1c0.2-1.4,6.8-0.5,6.9-1.9l1.2,0.2c-0.3,0-0.4,0.1-0.7,0.1
						c2.3,0.5,1.6-1.1,4.5-1.1c1,0,1.7,0.2,1,0.4l2.2-0.5c0.6,0,0.5,0.2-0.1,0.2l3.4-0.4l0,0c0.5-0.2,1.5-0.7,2.1-0.8
						c0.9,0.1-0.4,0.2-0.2,0.3l1.8-0.5c0.8,0.3-0.7,0.8-2,0.8c1.9,1.2,1.5-0.5,5.4,0l-1.8,0.3c1.2,0.7,2.6,0.3,4.6,0.6
						c-0.5-0.2-4.1-0.9-2.1-1.4c0.6,0.1,1.3,0,2.4-0.3c0.1,0.5,1.1,0.3,2.4,0.1l0,0.6c1.4-0.3,1.3-0.6,2.1-1c1.6-0.1,2,0.4,2.4,0.8
						c2.6-0.1-1.9-0.6,1.2-1c2.2,0,3.7-0.3,6.2-1c1.5,0.1-0.2,0.4,0.3,0.5l1.3-0.6c0.3,0,0.2,0.1,0.2,0.2c1.1-0.3,0-0.6,1.8-1
						c0.4-0.8,3.7,0.7,5.8-0.3c0.6,0.1-0.2,0.4,0,0.6c2.9-0.9,2.5-0.7,4.9-1.6l2.1,0.2c-1.6-0.3,0.3-1.1,2-1.7
						c-0.6-0.2-1.1-0.3-1.4-0.4l2.7-0.7c0.3,0.1,0.1,0.3-0.3,0.6c0.2-0.1,0.4-0.2,0.5-0.2c1,0.1,0.5,0.5-0.1,1
						c-0.3-0.1-0.7-0.2-1-0.3c-0.6,0.5-1.2,1-1,1.3c0.2-0.1,0.5-0.2,0.9-0.3c-0.2,0.1-0.3,0.2-0.2,0.3c0.1,0.1,0.4-0.1,0.8-0.3
						l0.7,0.6l0.1-0.3l3.6,0c2.5-1.1,4.6-2.3,8.6-3.2c-0.9,0.7-0.1,0.9-0.1,1.5c-1.2-0.5-3.1,0.7-5.2,0.8c1.1-0.1,0.9,0.3,0.6,0.4
						c1.2-0.4,2.5-0.7,3.7-1.1c0,0.5,0.8,0.3,1.9,0.3c-0.9-0.9,2.7-1.1,4.2-1.6c0.1,0.3-0.2,0.7-2.1,0.9c2.2,0.5,2.5-1.5,4.6-1.2
						c-0.5,0.1-0.7,0.1-0.9,0.3c1-0.4,3.7-0.6,3.1-0.2l-0.5,0.1c3-0.4,9.2-1.4,9.5-2.3c0,0.1-0.2,1.1-0.4,1.3
						c1.6-1.2,3.3-2.5,4.9-3.7c-0.4,0.8,1.8,2.2-0.7,3c0.7,0,1.6-0.1,3.1-0.6c-0.5,0-1.4-0.8-0.7-1c2,0.5,1.3,0.2,3.7,0.5
						c-0.8,0-0.1-1.3,1-1.5c-0.2,0.2,0.3,1.1-0.1,1.3l2.7-1.6c-0.7,0.3,0,1,0.7,1.2c-0.3-0.2,2.5-0.5,3.2-0.7l-1.3,0
						c3.3-0.5,2.9-2.2,6.1-2.7c-0.3,0.3-0.7,1.6,1,1.4c0.6-0.7,2.8-3.3,5.5-4.4l0.6,0.2l2.1-0.8c-1.2,1.1-4.6,3.7-6.6,4.8
						c1.3,0,0.4,0.3,2.2-0.1c0.7,0.2-0.9,0.7-1.4,0.8l4.3-0.7c-0.3-0.6,3.1-1.3,2.8-1.9l-4.4,1.6c-0.3-0.6,2.3-2.4,5.3-2.9
						c0.8,0.1-0.3,1.3-0.2,1.5c0.3-0.3,2.7-1,3.1-0.9l-1.2,0.6c1.7-0.1,2.5-1.4,4.7-1.2c0.7-0.1,2.2,0.4,2.3,0
						c-1.3-0.5-2-2.8-1.4-3.5c0.3,0,3.8-0.1,4.6,0.1c1.3,0.3-1.4,1.8-0.3,2.1c0-0.2,0.6-0.6,0.8-0.7c0.8,0-0.2,0.6,1.4,0.2
						c0.1-0.7,3.2-0.7,0.6-0.7c1.5-0.5,1.7-0.2,3.5-0.7c-0.7-0.3,1.3-1.8,2.7-2.4c0,0.2,0.3,0.3,0.5,0.4c3.1-0.7,4.9-0.8,7.8-1.5
						c0.3,0.1,1.8-0.1,1.2,0.4c0.4-0.2,0.7-0.5,1.6-0.8c1.9,0.1-2,0.6-0.5,0.9c0-0.4,2.2-1.1,3.4-1.7c-0.5-0.5-3,0.7-4.2,1.2
						c-0.2-0.8,1.8-2.2,4.7-3.4c2.4-0.8,1.2,0.2,1.6,0c4.6-1.1,3.5-2.5,7.4-2.9c1.6,0.1,0.4,1,0.8,1.3c-1.9,0.7-3.1,0.5-4.4,0.9
						l1.7-0.2c-0.6,0.3-1.9,0.8-2.6,0.9c1.4,0.1,7.7-1.9,11.3-2.5c0.6-0.4,1.6-0.8,1-0.9l-1.1,0.4c-1.1-0.1,1.9-1.2,0.5-1
						c1.4-0.7,2.9-1.7,5-2l0.6,0.5c-0.1-0.2-1.5,0-2,0.4c0.8-0.5,3.4-0.1,4.1-1.2l-1.6,0c1.4-0.7,3-1.9,4.9-2.3
						c-1-0.3-0.4,0.2-1.9-0.1c1.4,0.5-4.7,1.3-2.6,1.7c-1.6-0.4-2.4,0.3-4.4,0.2c0.1,0.2,0.7,0.2-0.8,0.5c-0.1,0.1-0.2,0.2-0.3,0.3
						c0,0-0.1,0-0.1,0c0,0,0.1,0,0.1,0c-0.1,0-0.1,0.1,0,0c0.4,0,0.7,0,0.9,0.1c-0.6,0.7-3.1,1.4-3.9,1.8c-0.9,0.2,0.3-0.3-0.2-0.4
						l-1.1,0.7c-0.2-0.4-2.6,0-0.5-0.9l-1.9,0.5c-1.2,0.1-2.8,0.4-3.7,0.8c-0.9,0.2-2.2,1.1-1.5,0.5l-3,1.1l-0.1-0.1
						c-3,0.8-6,2.4-9.7,2.4c-1,0.4-2,0.8-3.7,1.1l-0.4-0.3c-1.3,0.5-4,0.6-4.5,1.1c-1.6-0.7-6.4,1.2-8.8,1.6l0,0.5
						c-1.6,0.3-3.1,0.8-5,1.5l0.2,0.4c-1.6,0.7-4.5,0.6-7.2,1.2c0.1-0.2,0.8-0.3,1.4-0.3c-3.4-0.3-6.7,2.2-9.8,2
						c-0.7,0.3-1.2,0.3-1.8,0.3c0.1,0,0.1,0,0.2-0.1c-0.1,0-0.2,0-0.3,0.1c-0.3,0-0.7,0-1.1,0c0.3,0,0.6,0.1,0.9,0.1
						c-0.6,0.1-1.4,0.3-2.2,0.6l-0.4-0.4c-0.1,0-0.1,0-0.2,0.1c-0.9,0-0.6,0.4-0.1,0.6c-0.4,0.2-0.8,0.3-1.1,0.5
						c-0.8-0.6-2.2,0.7-3.2,0c-0.5,0.5-4.2,1.1-4.5,2c0-0.1-0.3-0.1,0.1-0.2c-1,0.1-1.9,0.1-2.7,0.5l-0.5-0.5l-1.9,1.2
						c-1.3-0.1-1.9-0.3-0.7-1c-2.9,1.2-2.4,0.7-4.8,1.8l0.1-0.4c-0.9,0.2-2.3,0.9-2.9,0.7c-1.1-0.2-3.6,0.2-6.5,0.6
						c-2.9,0.4-6.3,0.9-8.9,0.9c1.2,1-2.5-0.2-2.6,0.8c-0.3-0.2-1.1-0.3-0.3-0.6c-2.6,0.6-4.1,0.1-5.8,1.1c-0.3-0.2,0.5-0.5,0.2-0.6
						c-0.2,0.1-0.8,0.3-1.1,0.2c-0.3-0.1,0.4-0.3,0.8-0.5c-2.7,0.4-2.9,1.3-3,2.1c-1.4-0.2-2.1-0.1-3.1,0.6
						c-0.5-0.2-1.4-0.4,0.3-0.7c-1,0.1-5.9,0.3-5.9,0.9c-0.3-0.1-1.3,0.1-1.6,0.2c-2.2,0.2-2.4,0.2-4.5,0.4l0.6,0
						c-0.8,0.8-1.7,0.3-3.4,0.6l0-0.1c-4-0.2-1.7,0.4-5.6,0.2l0.3,0.5c-0.3,1.1-3.5-0.3-5.7,0.3l0.8,0.2c-1.2,0.5-3.6-1.1-4.8-1.1
						c-0.3-0.1,0.4-0.2,0.8-0.3c-3.3-0.3-0.4,0.7-2.8,1c-0.5-0.3,0.5-0.9-1.1-0.8c-0.8-0.2-4.6,1.5-6.9,1c0.5,0.2,1,0.4-0.1,0.7
						c-1.7,0.2-4.7-0.6-6.2,0.3c-0.2-0.1-0.3-0.1-0.3-0.2c-1.3,0.3-4.2,0.6-5,1.1c-1.3-1.6-8.1,1.3-8.1-0.2l-4,0.3l0.1-0.2
						c-2.6,0-3.5,0.4-4.4,0.8c-0.6-0.1-0.2-0.2-0.1-0.3c-3.8-0.2-4.1-0.1-7.3,0.7l-0.3-0.5c-0.9,0.3-5.4-0.7-9.1-0.1
						c0-0.1,0.1-0.2,0.4-0.2c-4.2,0.6-9.9-1.5-11.4,0.2l-2.8,0.3c3.5,0.3-0.6,0.8,0.9,1.1c-1.4,0.1-3.6-0.7-1.9-0.7l0.3,0.1
						c0.7-0.9-4.4-0.6-4.2-1.2c-6.9-0.4-13.6-1.7-19.9-3l0.6,0.9l-2.2-0.5c-0.5-0.3-0.7-0.7,0.9-0.4c-0.7-0.6-2.7-0.2-2.8-0.1
						c-3-1,1.4-0.5,0.5-0.8l-1.3-0.2l0.3,0.2c-1.1,0-1.3,0.3-3.1-0.2c-1.1-0.5-0.5-0.6-0.9-0.8c0-0.1-0.1-0.1-0.7-0.2
						c-0.9-0.3-1.8-0.6-2.6-0.9c0.3,0.3,0.6,0.6,0.9,0.9c-1.3-0.1-2.5-0.9-1.5,0.2c-0.7-0.8-3.2-1.8-5.4-2.9
						c-2.3-1.1-4.3-2.3-4.7-2.8c-1.6-0.6-3-1.7-4.4-3.2c0.3,0.4,0,1.2-1.2-0.3c0.7-0.2,0.3-0.9-0.3-1.8c-0.3-0.4-0.6-1-0.8-1.5
						c-0.2-0.5-0.3-1-0.3-1.4c0,0.7-0.6-0.4-1.1-1.4c-0.5-1-0.8-2-1-1c-0.3-1.5,0.5-0.2,0.5-1.4c-0.6-1.6-0.7-3.5-0.5-5.5
						c0.2-2,0.8-4.1,1.2-6.2c-0.1-0.1-0.6,0.5-0.6-0.5c0.5-0.7,1-1.3,1.5-2c0.2-0.8-0.7-1.1,0.5-2.4c-0.2,0.2-0.6,0.4-0.4-0.2
						c2.1-3.9,4.1-7.9,6.5-11.8c2.4-3.9,5.2-7.6,8.7-10.6c-1,0.7-0.6,0.1,0-0.7c-0.5,0.4-0.3-0.3-0.6-0.3c1-0.8,2-1.7,3-2.5
						c-0.1-1,2.7-3.1,2.5-3.8l-0.7,1c0.5-1.7-2.7,0.6-3.3-0.2c-0.6,1.9-4.1,2.9-5.1,6c-0.6,0.4,0.1-0.6-0.3-0.5
						c-0.2,0.9-0.7,1.6-1.8,2.9l0-0.2c-1.4,1.9-2.5,3.3-3.6,4.7c-1.1,1.4-2.3,2.9-3.8,5.2l0.6-0.1c-0.7,1-0.9,1.1-1.3,1.5
						c-0.1,1.5,1.7-2.8,1.8-1.3c-0.8,0.4-1.9,2.2-2.8,3.9c-1,1.8-1.8,3.5-2.5,3.8c-0.7,1.7,0.7-0.3,0,1.4l-0.5,0.3l0.2,0.6
						c-0.5,1.1-1.1,1.5-1.3,1.5c0.1-0.3,0.2-0.8,0.3-1.1c-0.9,1.3-1.3,4.3-1.5,4.8c0.2-0.6,0.4-1.1,0.7-1.7
						c-0.6,2.5-1.2,5.3-1.4,8.1c-0.1,2.9,0.2,5.8,1.3,8.2l0.1-0.4c0.3,0.9,0.7,1.5,0.8,2c0.2,0.5,0.3,0.9,0.5,1.3
						c0.3,0.8,0.6,1.6,1.8,3.3l-0.1-0.1c0.3,0.3,0.7,0.6,1.1,1c0.4,0.4,0.8,0.8,1.1,1.2c-0.9-0.6,1,1.8-0.2,1
						c1.6,1.3,2.1,1.5,2.5,1.6c0.3,0.1,0.6,0.1,1.9,0.5l0.3,0.7c0.9,0.2,1.1,0.1,2.8,1.1c-1.6-0.6,0.8,1.1-1,0.6
						c1.6,1.5,3.2,2,4.4,2.4c1.2,0.4,2.2,0.7,2.9,1.6c1.1-0.1,0.3-0.6-0.6-1c-0.9-0.4-2-0.8-1.4-0.7c-0.7-0.7,1.7-0.1,2.9,0.5
						c1.2,0.5,1.7,2.1,4.9,3c-0.3-0.1-0.4,0-0.7-0.1c1.1,0.6,2.5,0.3,3.9,1.1c1-0.4,1.9,0.5,2.4-0.2c-1-0.2-2-0.3-3-0.5
						c1.7,0.2,3.5-0.3,6.2,0.7c-0.2,0.1-1.1,0.2-1.7,0.2c0.8,0.4,1.6,0.2,2.4,0.6c-0.4,0.7-3.7-0.5-5.6-0.4c0.8,0.6,3.6,0.2,2.5,0.9
						c1.5-0.8,3.2,0.8,5.6,0.4l-0.2,0.4c0.4,0,1.1-0.1,1.8,0l-1.3,0.4c1.9-0.2,3.4,1,5.2,0.9c-3.7-0.5-0.7-0.7-2.2-1.2
						c4.6,0,2.4,1.6,7.5,1.9c-0.7,0-2.5-0.5-1.4-0.7c0.9,0.2,2.2,0.5,2.8,0.8c3.4,0.2-0.5-0.5,1-0.7c1.1,0.7,1.7-0.1,3.1-0.2l0,0.5
						c3.8,0.5,1.1-0.9,4.5-0.4l-1.5,0.6l1.8-0.1l-0.4,0.5c2-0.3,2.6-0.2,4.5,0c-0.4-0.4,0.3-0.9,2-0.8c1.1,0.3-0.7,0.4,1.7,0.4
						c-0.5,0.3-1.1,0.7-2.2,0.2c-0.1,0.2-0.5,0.3-0.7,0.4c1.2,0.4,3.1,0.2,4,0.2c-0.3,0-0.7-0.1-0.9-0.1l3.5-0.6
						c0.5,0.2,0.1,0.3-0.3,0.5c0.7,0,1.2-0.3,2.2-0.3c-0.3,0.4-0.2,0.8-1.7,1l3.3-0.4c0.2,0.2,1.7,0.5,1.3,0.6
						c1.8,0.2,4.5-0.8,6.9-0.5c0.1-0.1,0.4-0.2,0.9-0.2c2.3,0,4.3,0.5,7-0.2l1.6,0.6c2.1-0.2-2.1-0.8,1.4-1.2c2.5-0.3,1,0.6,1.8,0.7
						c1.2-0.4,3.3-1.2,5.6-0.8C177.2,318.2,176.6,318.1,175.9,318.2z M201.8,316.1c-0.5,0.1-1.5,0.5-1.9,0.3
						C200.5,315.8,200.9,316,201.8,316.1z M240.9,311c-0.4,0.2-0.9,0.2-1.6,0.1C239.7,311,240.3,311,240.9,311z M347.5,286.4
						C347.5,286.4,347.5,286.4,347.5,286.4C346.4,286.5,346.8,286.5,347.5,286.4z M349.8,286c0.2-0.1,0.2-0.2,0.1-0.2
						c-0.1,0.2-0.6,0.3-1.2,0.4C348.9,286.3,349.2,286.3,349.8,286z M104.5,309.4l0.4,0.2C103.9,309.5,104.2,309.4,104.5,309.4z"/>
					<path class="st15" d="M236.5,312.2c-0.2-0.1-0.2-0.1-0.2-0.2C236.1,312.1,236.1,312.2,236.5,312.2z"/>
					<path class="st15" d="M159.8,319L159.8,319c-0.1,0-0.1,0.1-0.2,0.1L159.8,319z"/>
					<path class="st15" d="M315.9,298.8c-0.5,0-0.8,0-1,0C315,298.9,315.2,298.9,315.9,298.8z"/>
					<path class="st15" d="M361.4,281.8l-1.4,0.5c0.7-0.2,1-0.2,1.3-0.2C361.3,282,360.9,281.9,361.4,281.8z"/>
					<path class="st15" d="M374.6,280.9c0.2-0.1,0.4-0.1,0.6-0.3l-0.1-0.2C374.2,280.7,373.6,281.1,374.6,280.9z"/>
					<path class="st15" d="M363.2,283c0.2,0.4,1.1,0,2.1-0.4c-0.1,0-0.1,0-0.2,0.1C365.2,282,364.2,282.5,363.2,283z"/>
					<path class="st15" d="M365.4,282.5c0.3-0.1,0.6-0.2,0.9-0.3C366.4,281.9,366,282.2,365.4,282.5z"/>
					<path class="st15" d="M352.6,284.9c0.5,0,0.2-0.6,0.5-0.5C353.4,283.8,350,285.9,352.6,284.9z"/>
					<polygon class="st15" points="364.3,284 363.8,283.6 363.4,284.2 					"/>
					<path class="st15" d="M356.3,285.9l1.6-0.3c0-0.1,0.1-0.2,0.4-0.3C357.4,285.6,356.3,285.8,356.3,285.9z"/>
					<path class="st15" d="M358.4,285.3c0.5-0.1,1-0.3,1.3-0.5C359.3,285,358.8,285.1,358.4,285.3z"/>
					<polygon class="st15" points="362.2,284.8 361.7,284.8 360.6,285.1 					"/>
					<path class="st15" d="M339.1,290.6l-1.7,0.6c-0.1,0.2,0.4,0.2,1-0.1C338.7,290.9,339.4,290.7,339.1,290.6z"/>
					<path class="st15" d="M344.7,290.5c-0.5,0-0.6-0.1-0.9-0.2l0.1,0.6L344.7,290.5z"/>
					<path class="st15" d="M339.6,292c-0.1,0.2-2.4,1.2-0.2,0.5C339.6,292.3,341.3,291.7,339.6,292z"/>
					<polygon class="st15" points="312.8,297.7 313.3,297.6 313,296.6 					"/>
					<path class="st15" d="M289.6,305.1c2.2-0.2,0.4-0.7,2.4-0.8c0.5-0.3-1.6,0.1-1.1-0.2C289.6,304.5,288.9,304.5,289.6,305.1z"/>
					<path class="st15" d="M290.9,304c0.2-0.1,0.4-0.2,0.6-0.3C291.1,303.9,291,304,290.9,304z"/>
					<polygon class="st15" points="103.9,247.3 104.9,246.5 104.1,246.9 					"/>
					<path class="st15" d="M105.1,244.9l0.7,0.2l0.1-1C105.7,244.3,105.3,244.8,105.1,244.9z"/>
					<path class="st15" d="M205.7,317.1l0.1-0.2c-0.2-0.1-0.6-0.1-1.2-0.1L205.7,317.1z"/>
					<polygon class="st15" points="186.9,318 187.2,318 186.6,317.5 					"/>
					<path class="st15" d="M171.1,319.7c0.6,0,1.4-0.2,2.1-0.2C171.8,319.7,170.9,319,171.1,319.7z"/>
				</g>
			</g>
		</g>
	</g>
</g>
</svg>
