<?xml version="1.0" encoding="utf-8"?>
<!-- Generator: Adobe Illustrator 24.0.1, SVG Export Plug-In . SVG Version: 6.00 Build 0)  -->
<svg version="1.1" id="Layer_1" xmlns="http://www.w3.org/2000/svg" xmlns:xlink="http://www.w3.org/1999/xlink" x="0px" y="0px"
	 viewBox="0 0 512 512" style="enable-background:new 0 0 512 512;" xml:space="preserve">
<style type="text/css">
	.st0{display:none;}
	.st1{display:inline;fill:#200A7F;stroke:#18E5EA;stroke-width:20;stroke-miterlimit:10;}
	.st2{display:inline;fill:#EF0B79;}
	.st3{display:inline;fill:#18E5EA;}
	.st4{display:inline;}
	.st5{fill:#E9F21C;}
	.st6{display:inline;fill:none;}
	.st7{display:inline;fill:#EF3A24;}
	.st8{font-family:'MyriadPro-Regular';}
	.st9{font-size:250px;}
	.st10{display:inline;fill:#FFFFFF;}
	.st11{fill:#C4C6C8;}
	.st12{fill:url(#SVGID_1_);}
	.st13{fill:none;stroke:#E8E8E8;stroke-width:3;stroke-miterlimit:10;}
	.st14{fill:#83DCF2;}
	.st15{fill:#31C4E9;}
	.st16{fill:#FDC75B;}
</style>
<g id="Layer_3" class="st0">
	<path class="st1" d="M401.1,212.2c5.1,15.3,7.9,31.7,7.9,48.8c0,85.3-69.2,154.5-154.5,154.5S100,346.3,100,261
		s69.2-154.5,154.5-154.5c51.2,0,96.6,24.9,124.7,63.3"/>
	<path class="st2" d="M333.4,255.2c0,4.2-3.3,7.7-7.4,7.7H174.9c-4.1,0-7.4-3.4-7.4-7.7l0,0c0-4.2,3.3-7.7,7.4-7.7H326
		C330.1,247.5,333.4,250.9,333.4,255.2L333.4,255.2z"/>
	<path class="st2" d="M333.4,284.8c0,4.2-3.3,7.6-7.4,7.6H174.9c-4.1,0-7.4-3.4-7.4-7.6l0,0c0-4.2,3.3-7.6,7.4-7.6H326
		C330.1,277.1,333.4,280.6,333.4,284.8L333.4,284.8z"/>
	<path class="st2" d="M333.4,313c0,4.2-3.3,7.7-7.4,7.7H174.9c-4.1,0-7.4-3.4-7.4-7.7l0,0c0-4.2,3.3-7.6,7.4-7.6H326
		C330.1,305.4,333.4,308.8,333.4,313L333.4,313z"/>
	<path class="st2" d="M333.4,338.4c0,4.2-3.3,7.7-7.4,7.7H174.9c-4.1,0-7.4-3.4-7.4-7.7l0,0c0-4.2,3.3-7.6,7.4-7.6H326
		C330.1,330.7,333.4,334.1,333.4,338.4L333.4,338.4z"/>
	<polygon class="st3" points="395,191.5 320.2,165.2 380.4,113.5 	"/>
	<g class="st4">
		<g>
			<g>
				<path class="st5" d="M241.5,239.2c-2.3,0-4.4-1.1-5.8-2.9l-18.8-24.8c-2.4-3.2-1.8-7.8,1.4-10.3c3.2-2.4,7.8-1.8,10.3,1.4
					l12.3,16.3l31-49.8c2.1-3.4,6.6-4.5,10.1-2.3c3.4,2.1,4.5,6.6,2.3,10.1l-36.7,58.9c-1.3,2-3.5,3.3-5.9,3.4
					C241.7,239.2,241.6,239.2,241.5,239.2z"/>
			</g>
		</g>
	</g>
</g>
<g id="Layer_2_2_" class="st0">
	<rect x="121" y="171.5" class="st6" width="298" height="251"/>
	<text transform="matrix(1 0 0 1 121 348.9979)" class="st7 st8 st9">24</text>
	<circle class="st10" cx="138.3" cy="91.8" r="17.3"/>
	<circle class="st10" cx="185.3" cy="91.8" r="17.3"/>
	<circle class="st10" cx="232.3" cy="91.8" r="17.3"/>
	<circle class="st10" cx="278.3" cy="91.8" r="17.3"/>
	<circle class="st10" cx="323.3" cy="91.8" r="17.3"/>
	<circle class="st10" cx="368.3" cy="91.8" r="17.3"/>
</g>
<g>
	<path class="st11" d="M350.3,54.5H161.7c-17.9,0-34.5,9.6-43.4,25.1L24,242.9c-9,15.5-9,34.6,0,50.2l94.3,163.3
		c9,15.5,25.5,25.1,43.4,25.1h188.5c17.9,0,34.5-9.6,43.4-25.1L488,293.1c9-15.5,9-34.6,0-50.2L393.7,79.6
		C384.8,64.1,368.2,54.5,350.3,54.5z"/>
</g>
<g>
	
		<radialGradient id="SVGID_1_" cx="256.85" cy="258" r="226.4508" gradientTransform="matrix(1 0 0 -1 0 512)" gradientUnits="userSpaceOnUse">
		<stop  offset="0" style="stop-color:#F074AC"/>
		<stop  offset="0.5" style="stop-color:#EB008B"/>
		<stop  offset="1" style="stop-color:#CD118C"/>
	</radialGradient>
	<path class="st12" d="M351.2,40.5H162.6c-17.9,0-34.5,9.6-43.4,25.1L24.9,228.9c-9,15.5-9,34.6,0,50.2l94.3,163.3
		c9,15.5,25.5,25.1,43.4,25.1h188.5c17.9,0,34.5-9.6,43.4-25.1l94.3-163.3c9-15.5,9-34.6,0-50.2L394.6,65.6
		C385.6,50.1,369.1,40.5,351.2,40.5z"/>
	<path class="st13" d="M351.2,40.5H162.6c-17.9,0-34.5,9.6-43.4,25.1L24.9,228.9c-9,15.5-9,34.6,0,50.2l94.3,163.3
		c9,15.5,25.5,25.1,43.4,25.1h188.5c17.9,0,34.5-9.6,43.4-25.1l94.3-163.3c9-15.5,9-34.6,0-50.2L394.6,65.6
		C385.6,50.1,369.1,40.5,351.2,40.5z"/>
</g>
<g id="Layer_2_1_">
	<path class="st14" d="M348,240.9v94.4c0,12.9-10.5,23.5-23.5,23.5H191.1c-12.9,0-23.5-10.5-23.5-23.5v-94.4
		c0-12.9,10.5-23.5,23.5-23.5h2.1h23.4H299h23.4h2.1C337.6,217.4,348,228,348,240.9z M272.5,290.4c0-8.1-6.6-14.7-14.7-14.7
		s-14.7,6.6-14.7,14.7s6.6,14.7,14.7,14.7C265.9,305.1,272.5,298.5,272.5,290.4z"/>
	<path class="st15" d="M322.5,215v2.5H299V215v-45c0-11.4-4.4-22-12.4-30c-7.7-7.6-17.7-11.8-28.4-11.8c-0.1,0-0.2,0-0.3,0
		c-22.8,0-41.3,18.7-41.3,41.7v45v2.5h-23.5V215v-45c0-35.9,29-65.2,64.7-65.2c17-0.2,33.1,6.4,45.3,18.5
		c12.5,12.4,19.3,28.9,19.3,46.6V215H322.5z"/>
	<circle class="st16" cx="257.8" cy="287.4" r="14.7"/>
	<path d="M191.1,368.5h133.6c16,0,28.9-13.2,28.9-29.2v-94.4c0-14.8-10.7-27.1-25.3-28.8v-42c0-19.2-7.5-37.2-21-50.6
		c-13.1-13-30.3-20.2-48.4-20.2c-0.3,0-0.6,0-0.9,0c-38.8,0.1-70.3,31.8-70.3,70.8v42c-14.6,1.7-25.3,14-25.3,28.8v94.4
		C162.2,355.3,175.1,368.5,191.1,368.5z M257.8,114.3L257.8,114.3c15.5,0,30.1,5.9,41.3,17c11.4,11.3,17.7,26.5,17.7,42.7v42.1
		h-12.4V174c0-12.9-4.9-25-14-34c-8.7-8.6-20-13.3-32.2-13.3H258c-25.9,0-46.8,21.3-46.8,47.4v42.1h-12.4V174
		C198.8,141.2,225.3,114.3,257.8,114.3z M293.3,216.1h-70.9V174c0-19.9,15.9-36.1,35.5-36.1h0.3c9.2,0,17.8,3.6,24.4,10.1
		c6.9,6.9,10.7,16.1,10.7,26V216.1L293.3,216.1z M342.8,339.4c0,9.8-8,17.8-17.8,17.8H191.3c-9.8,0-17.8-8-17.8-17.8v-94.3
		c0-9.8,8-17.8,17.8-17.8h133.6c9.8,0,17.8,8,17.8,17.8L342.8,339.4L342.8,339.4z"/>
	<path d="M252.2,306.9v15.7c0,3.1,2.5,5.6,5.6,5.6c3.1,0,5.6-2.5,5.6-5.6v-15.7c8.4-2.4,14.7-10.2,14.7-19.5
		c0-11.2-9.1-20.3-20.3-20.3c-11.2,0-20.3,9.1-20.3,20.3C237.5,296.6,243.8,304.4,252.2,306.9z M257.8,278.4c5,0,9.1,4,9.1,9.1
		s-4,9.1-9.1,9.1c-5,0-9.1-4-9.1-9.1S252.8,278.4,257.8,278.4z"/>
</g>
</svg>
