<?xml version="1.0" encoding="utf-8"?>
<!-- Generator: Adobe Illustrator 24.0.1, SVG Export Plug-In . SVG Version: 6.00 Build 0)  -->
<svg version="1.1" id="Layer_1" xmlns="http://www.w3.org/2000/svg" xmlns:xlink="http://www.w3.org/1999/xlink" x="0px" y="0px"
	 viewBox="0 0 512 512" style="enable-background:new 0 0 512 512;" xml:space="preserve">
<style type="text/css">
	.st0{display:none;}
	.st1{display:inline;fill:#200A7F;stroke:#18E5EA;stroke-width:20;stroke-miterlimit:10;}
	.st2{display:inline;fill:#EF0B79;}
	.st3{display:inline;fill:#18E5EA;}
	.st4{display:inline;}
	.st5{fill:#E9F21C;}
	.st6{display:inline;fill:none;}
	.st7{display:inline;fill:#EF3A24;}
	.st8{font-family:'MyriadPro-Regular';}
	.st9{font-size:250px;}
	.st10{display:inline;fill:#FFFFFF;}
	.st11{fill:#C4C6C8;}
	.st12{fill:url(#SVGID_1_);}
	.st13{fill:url(#SVGID_2_);stroke:#E8E8E8;stroke-width:3;stroke-miterlimit:10;}
	.st14{fill:#EDF5E1;stroke:url(#SVGID_3_);stroke-width:4;stroke-miterlimit:10;}
	.st15{fill:#B4B4B3;}
	.st16{fill:#3A3E48;}
	.st17{fill:#FFBA00;}
	.st18{fill:#928170;}
	.st19{fill:#354A9F;}
	.st20{fill:#583EAB;}
	.st21{fill:#7B54BF;}
	.st22{fill:#FFFFFF;}
	.st23{fill:#AA44B9;}
	.st24{fill:#F9D842;}
	.st25{fill:#FFE749;}
</style>
<g id="Layer_3" class="st0">
	<path class="st1" d="M401.1,212.2c5.1,15.3,7.9,31.7,7.9,48.8c0,85.3-69.2,154.5-154.5,154.5S100,346.3,100,261
		s69.2-154.5,154.5-154.5c51.2,0,96.6,24.9,124.7,63.3"/>
	<path class="st2" d="M333.4,255.2c0,4.2-3.3,7.7-7.4,7.7H174.9c-4.1,0-7.4-3.4-7.4-7.7l0,0c0-4.2,3.3-7.7,7.4-7.7H326
		C330.1,247.5,333.4,250.9,333.4,255.2L333.4,255.2z"/>
	<path class="st2" d="M333.4,284.8c0,4.2-3.3,7.6-7.4,7.6H174.9c-4.1,0-7.4-3.4-7.4-7.6l0,0c0-4.2,3.3-7.6,7.4-7.6H326
		C330.1,277.1,333.4,280.6,333.4,284.8L333.4,284.8z"/>
	<path class="st2" d="M333.4,313c0,4.2-3.3,7.7-7.4,7.7H174.9c-4.1,0-7.4-3.4-7.4-7.7l0,0c0-4.2,3.3-7.6,7.4-7.6H326
		C330.1,305.4,333.4,308.8,333.4,313L333.4,313z"/>
	<path class="st2" d="M333.4,338.4c0,4.2-3.3,7.7-7.4,7.7H174.9c-4.1,0-7.4-3.4-7.4-7.7l0,0c0-4.2,3.3-7.6,7.4-7.6H326
		C330.1,330.7,333.4,334.1,333.4,338.4L333.4,338.4z"/>
	<polygon class="st3" points="395,191.5 320.2,165.2 380.4,113.5 	"/>
	<g class="st4">
		<g>
			<g>
				<path class="st5" d="M241.5,239.2c-2.3,0-4.4-1.1-5.8-2.9l-18.8-24.8c-2.4-3.2-1.8-7.8,1.4-10.3c3.2-2.4,7.8-1.8,10.3,1.4
					l12.3,16.3l31-49.8c2.1-3.4,6.6-4.5,10.1-2.3c3.4,2.1,4.5,6.6,2.3,10.1l-36.7,58.9c-1.3,2-3.5,3.3-5.9,3.4
					C241.7,239.2,241.6,239.2,241.5,239.2z"/>
			</g>
		</g>
	</g>
</g>
<g id="Layer_2_2_" class="st0">
	<rect x="121" y="171.5" class="st6" width="298" height="251"/>
	<text transform="matrix(1 0 0 1 121 348.9979)" class="st7 st8 st9">24</text>
	<circle class="st10" cx="138.3" cy="91.8" r="17.3"/>
	<circle class="st10" cx="185.3" cy="91.8" r="17.3"/>
	<circle class="st10" cx="232.3" cy="91.8" r="17.3"/>
	<circle class="st10" cx="278.3" cy="91.8" r="17.3"/>
	<circle class="st10" cx="323.3" cy="91.8" r="17.3"/>
	<circle class="st10" cx="368.3" cy="91.8" r="17.3"/>
</g>
<g>
	<path class="st11" d="M488,293.1l-94.4,163.3c-8.9,15.5-25.5,25.1-43.4,25.1H161.7c-17.9,0-34.4-9.6-43.4-25.1L24,293.1
		c-6.3-10.9-8.2-23.5-5.7-35.3c1.1-5.2,3-10.2,5.7-14.9l94.3-163.3c8.9-15.5,25.5-25.1,43.4-25.1h12.1c-10.6,12.1-16,22.7-18.8,29.5
		c-2.8,6.7-4.4,12.7-2,18c4.1,9.2,17.6,11.3,21,12c33.4,7,94.7,93.2,117,197c9.2,43,9.1,76.7,26,81c10.3,2.6,27.6-5.8,31-17
		c2.4-7.8-2.4-15.7,0-17c3.3-1.8,10.6,13.4,22,14c9.5,0.5,17.3-9.5,20-13c15.2-19.7,3.8-35,14-53c13.5-23.9,42.3-12.4,54-34
		c13.1-24.4-13.5-57.6,1-70c1.3-1.1,2.7-1.8,4-2.3l25,43.3c3.8,6.6,6,13.8,6.6,21.2C495.4,274,493.2,284.2,488,293.1z"/>
</g>
<g>
	<radialGradient id="SVGID_1_" cx="256.8844" cy="253.95" r="226.4871" gradientUnits="userSpaceOnUse">
		<stop  offset="0" style="stop-color:#F7977A"/>
		<stop  offset="7.105196e-02" style="stop-color:#F68D71"/>
		<stop  offset="0.5" style="stop-color:#F1563C"/>
		<stop  offset="0.745" style="stop-color:#DE3B34"/>
		<stop  offset="1" style="stop-color:#CE242C"/>
	</radialGradient>
	<path class="st12" d="M492,235.1c-0.8-2.1-1.8-4.2-3-6.2l-17.5-30.4c-1.8,0-5.1-0.1-8.4,1.2c-1.4,0.5-2.8,1.3-4,2.3
		c-14.5,12.4,12.1,45.6-1,70c-11.7,21.6-40.5,10.1-54,34c-10.2,18,1.2,33.3-14,53c-2.7,3.5-10.5,13.5-20,13
		c-11.4-0.6-18.7-15.8-22-14c-2.4,1.3,2.4,9.2,0,17c-3.4,11.3-20.7,19.6-31,17c-16.9-4.3-16.8-38-26-81
		c-22.3-103.8-83.6-190-117-197c-3.4-0.7-16.9-2.8-21-12c-2.4-5.3-0.8-11.3,2-18c2.9-6.8,8.3-17.4,18.8-29.5
		c3.9-4.5,8.6-9.3,14.2-14.1h-25.3c-18,0-34.5,9.6-43.5,25.1L53.7,178.9l-22.3,38.6l-6.5,11.3c-5.2,9-7.4,19-6.6,29
		c0.5,7.4,2.8,14.6,6.6,21.2l8.5,14.8l8.7,15.1l61.7,106.9l15.3,26.6c9,15.5,25.6,25.1,43.5,25.1h188.6c1.8,0,3.5-0.1,5.2-0.3
		c14.8-1.5,28.2-9.6,36.5-22c0.6-0.9,1.2-1.8,1.7-2.8l11.4-19.7l82.9-143.6c0.8-1.4,1.5-2.9,2.2-4.3c1.6-3.5,2.7-7.1,3.5-10.7
		C496.5,254.5,495.7,244.4,492,235.1z"/>
	<radialGradient id="SVGID_2_" cx="256.8844" cy="253.95" r="226.4871" gradientUnits="userSpaceOnUse">
		<stop  offset="0" style="stop-color:#F7977A"/>
		<stop  offset="7.105196e-02" style="stop-color:#F68D71"/>
		<stop  offset="0.5" style="stop-color:#F1563C"/>
		<stop  offset="0.745" style="stop-color:#DE3B34"/>
		<stop  offset="1" style="stop-color:#CE242C"/>
	</radialGradient>
	<path class="st13" d="M492,235.1c-0.8-2.1-1.8-4.2-3-6.2l-17.5-30.4c-1.8,0-5.1-0.1-8.4,1.2c-1.4,0.5-41.7,1.1-43,2.2
		c-14.5,12.4,51.1,45.8,38,70.2c-11.7,21.6-46.4,6.2-59.9,30.1c-10.2,18,7.1,37.3-8.1,56.9c-2.7,3.5-10.5,13.5-20,13
		c-11.4-0.6-21.3-21.4-24.6-19.6c-2.4,1.3,4.9,14.8,2.6,22.6c-3.4,11.3-20.7,19.6-31,17c-16.9-4.3-16.8-38-26-81
		c-22.3-103.8-83.6-190-117-197c-3.4-0.7-16.9-2.8-21-12c-2.4-5.3-0.8-11.3,2-18c2.9-6.8,8.3-17.4,18.8-29.5
		c3.9-4.5,8.6-9.3,14.2-14.1h-25.3c-18,0-34.5,9.6-43.5,25.1L53.7,178.9l-22.3,38.6l-6.5,11.3c-5.2,9-7.4,19-6.6,29
		c0.5,7.4,2.8,14.6,6.6,21.2l8.5,14.8l8.7,15.1l61.7,106.9l15.3,26.6c9,15.5,25.6,25.1,43.5,25.1h188.6c1.8,0,3.5-0.1,5.2-0.3
		c14.8-1.5,28.2-9.6,36.5-22c0.6-0.9,1.2-1.8,1.7-2.8l11.4-19.7l82.9-143.6c0.8-1.4,1.5-2.9,2.2-4.3c1.6-3.5,2.7-7.1,3.5-10.7
		C496.5,254.5,495.7,244.4,492,235.1z"/>
</g>
<linearGradient id="SVGID_3_" gradientUnits="userSpaceOnUse" x1="350.5309" y1="302.7636" x2="350.5309" y2="302.7636" gradientTransform="matrix(1 0 0 -1 0 512)">
	<stop  offset="0" style="stop-color:#FFFF25"/>
	<stop  offset="3.320000e-02" style="stop-color:#FAED31"/>
	<stop  offset="9.210000e-02" style="stop-color:#F4D242"/>
	<stop  offset="0.1523" style="stop-color:#EFBF4E"/>
	<stop  offset="0.2141" style="stop-color:#ECB456"/>
	<stop  offset="0.28" style="stop-color:#EBB058"/>
	<stop  offset="0.67" style="stop-color:#DB7971"/>
	<stop  offset="0.89" style="stop-color:#CD497E"/>
	<stop  offset="1" style="stop-color:#BB1284"/>
</linearGradient>
<path class="st14" d="M350.5,209.2"/>
<g transform="translate(-1)">
	<g>
		<g>
			<circle class="st15" cx="271.8" cy="221.7" r="144"/>
			<circle class="st15" cx="337.5" cy="161.6" r="26.2"/>
			<circle class="st15" cx="369.4" cy="218.2" r="16.4"/>
		</g>
		<path class="st16" d="M325.7,88.2l4.4-21.6c0.7-3.5-1.6-7-5.1-7.7l-38.5-7.8c-3.5-0.7-7,1.6-7.7,5.1l-4.4,21.6"/>
	</g>
	<path class="st17" d="M504.7,28.7c0,0-54.2,0.9-71.9,11c-8.1,4.6-13.2,13.2-13.3,22.6c-0.1,9.4,4.9,18,13,22.7s18.1,4.7,26.2,0
		C476.4,74.9,504.7,28.7,504.7,28.7z"/>
	<path id="SVGCleanerId_0" class="st18" d="M304.4,61.4c-1.7-0.3-3.2-1.4-4.2-2.8c-1-1.4-1.3-3.2-1-4.9l4.5-21.9
		C306,20,313.5,9.9,324.1,4.4c10.8-5.2,31.8-8.4,51.6,27.1c15.8,28.4,33.5,34,45.5,33.6c3.6-0.1,6.6,2.7,6.7,6.4
		c0.1,3.6-2.7,6.6-6.4,6.7c-15.7,0.4-38.4-6.2-57.3-40.3c-11.1-19.9-22.7-27.2-34.5-21.6c-7,3.7-11.8,10.4-13.2,18.2l-4.5,21.9
		c-0.3,1.7-1.4,3.2-2.8,4.2C307.9,61.4,306.1,61.7,304.4,61.4L304.4,61.4z"/>
	<g>
		<path class="st19" d="M325.5,89.1l4.5-22.3c0.8-3.6-1.5-7.1-5.1-7.9l-38.5-7.8c-3.6-0.7-7.1,1.7-7.8,5.3l-4.5,22.3"/>
		<path class="st20" d="M412.9,250.4C397,328.3,321,378.6,243.1,362.8c-77.9-15.8-128.2-91.8-112.4-169.8
			c15.8-77.9,91.8-128.2,169.8-112.4c37.4,7.6,70.3,29.7,91.4,61.6C413,174,420.5,213,412.9,250.4L412.9,250.4z"/>
		<path class="st21" d="M383.3,264.4c-7.9,38.8-31.4,72.7-65,93.5c-69.3,23.6-145.2-8.5-176.6-74.6s-8.1-145.2,54-183.9
			c48.8-16.6,102.8-5.9,141.5,28.2C376,161.7,393.6,213.9,383.3,264.4L383.3,264.4z"/>
		<circle class="st22" cx="337.5" cy="161.6" r="26.2"/>
		<circle class="st23" cx="369.4" cy="218.2" r="16.4"/>
	</g>
	<path class="st24" d="M504.7,28.7c0,0-28.3,46.3-46,56.4c-6,3.4-13.1,4.4-19.8,2.6c-6.7-1.8-12.4-6.2-15.8-12.2
		c-0.7-1.2-1.2-2.4-1.7-3.7c-4.6-12,0.2-25.6,11.4-32c9.1-5.2,27.7-7.9,43.7-9.4C491.8,28.9,504.7,28.7,504.7,28.7z"/>
	<path class="st25" d="M476.5,30.3c-9.8,14.2-24.2,33.1-34.7,39.1c-6.2,3.6-13.6,4.4-20.4,2.3c-4.6-12,0.2-25.6,11.4-32
		C441.9,34.5,460.5,31.8,476.5,30.3z"/>
	<g>
		<path id="SVGCleanerId_0_1_" class="st18" d="M304.4,61.4c-1.7-0.3-3.2-1.4-4.2-2.8c-1-1.4-1.3-3.2-1-4.9l4.5-21.9
			C306,20,313.5,9.9,324.1,4.4c10.8-5.2,31.8-8.4,51.6,27.1c15.8,28.4,33.5,34,45.5,33.6c3.6-0.1,6.6,2.7,6.7,6.4
			c0.1,3.6-2.7,6.6-6.4,6.7c-15.7,0.4-38.4-6.2-57.3-40.3c-11.1-19.9-22.7-27.2-34.5-21.6c-7,3.7-11.8,10.4-13.2,18.2l-4.5,21.9
			c-0.3,1.7-1.4,3.2-2.8,4.2C307.9,61.4,306.1,61.7,304.4,61.4L304.4,61.4z"/>
	</g>
	<g>
		<path d="M330.9,193.7c17.7,3.6,35-7.8,38.6-25.5s-7.8-35-25.5-38.6c-17.7-3.6-35,7.8-38.6,25.5C301.8,172.8,313.2,190,330.9,193.7
			L330.9,193.7z M341.4,142.4c10.6,2.2,17.5,12.5,15.3,23.1s-12.5,17.5-23.1,15.3c-10.6-2.2-17.5-12.5-15.3-23.1
			C320.4,147.1,330.7,140.2,341.4,142.4L341.4,142.4z"/>
		<path d="M346.9,213.6c-2.5,12.4,5.5,24.5,17.9,27c12.4,2.5,24.5-5.5,27-17.9c2.5-12.4-5.5-24.5-17.9-27
			C361.5,193.2,349.4,201.2,346.9,213.6z M371.3,208.6c5.3,1.1,8.7,6.3,7.7,11.6c-1.1,5.3-6.3,8.7-11.6,7.7
			c-5.3-1.1-8.7-6.3-7.7-11.6C360.8,210.9,366,207.5,371.3,208.6z"/>
		<path d="M375.7,31.5C355.9-4,334.9-0.7,324.1,4.4C313.5,9.9,306,20,303.8,31.8l-3.2,15.5l-12.8-2.6c-7.1-1.4-14,3.1-15.4,10.2
			L269,71.3c-76.7,1.4-140.1,60.4-147.1,136.8c-7,76.4,44.7,145.9,119.9,161.2c75.2,15.3,149.9-28.5,173.3-101.5
			c23.4-73.1-11.9-152.1-82-183.4l3.3-16.4c1.4-7.1-3.1-14-10.2-15.4l-12.8-2.6l3.2-15.5c1.4-7.8,6.2-14.5,13.2-18.2
			c11.7-5.6,23.3,1.7,34.5,21.6c17.3,31.1,37.6,39.3,53,40.2c0.1,0.2,0.1,0.4,0.2,0.5c4.3,7.5,11.4,13,19.8,15.3
			c0.7,0.2,1.4,0.4,2.1,0.5c7.7,1.6,15.8,0.3,22.7-3.7c18.6-10.6,45.3-53.8,48.3-58.6c1.2-2,1.3-4.6,0.1-6.7
			c-1.2-2.1-3.4-3.3-5.8-3.3c-5.7,0.1-56.4,1.3-75,11.9c-10.9,6.1-17.2,18-16.3,30.4C402.1,62.3,388.3,54.2,375.7,31.5z
			 M406.5,249.1c-15.1,74.4-87.7,122.4-162,107.3c-74.4-15.1-122.4-87.7-107.3-162C152.3,120,224.8,71.9,299.2,87
			C373.5,102.2,421.5,174.7,406.5,249.1L406.5,249.1z M320.8,79.4c-12.4-4.3-25.4-7-38.5-7.8l2.9-14.1l38.5,7.8L320.8,79.4z
			 M436.1,45.4c10.5-6,38-8.7,56.4-9.7c-10.2,15.3-26.5,37.7-37,43.7c-9.4,5.4-21.3,2.1-26.7-7.3C423.4,62.7,426.7,50.8,436.1,45.4z
			"/>
	</g>
</g>
</svg>
