<?xml version="1.0" encoding="utf-8"?>
<!-- Generator: Adobe Illustrator 24.0.1, SVG Export Plug-In . SVG Version: 6.00 Build 0)  -->
<svg version="1.1" id="Layer_1" xmlns="http://www.w3.org/2000/svg" xmlns:xlink="http://www.w3.org/1999/xlink" x="0px" y="0px"
	 viewBox="0 0 512 512" style="enable-background:new 0 0 512 512;" xml:space="preserve">
<style type="text/css">
	.st0{display:none;}
	.st1{display:inline;fill:#200A7F;stroke:#18E5EA;stroke-width:20;stroke-miterlimit:10;}
	.st2{display:inline;fill:#EF0B79;}
	.st3{display:inline;fill:#18E5EA;}
	.st4{display:inline;}
	.st5{fill:#E9F21C;}
	.st6{display:inline;fill:none;}
	.st7{display:inline;fill:#EF3A24;}
	.st8{font-family:'MyriadPro-Regular';}
	.st9{font-size:250px;}
	.st10{display:inline;fill:#FFFFFF;}
	.st11{fill:#C4C6C8;}
	.st12{fill:url(#SVGID_1_);}
	.st13{fill:url(#SVGID_2_);stroke:#E8E8E8;stroke-width:3;stroke-miterlimit:10;}
	.st14{fill:#FFFFFF;}
</style>
<g id="Layer_3" class="st0">
	<path class="st1" d="M401.1,212.2c5.1,15.3,7.9,31.7,7.9,48.8c0,85.3-69.2,154.5-154.5,154.5S100,346.3,100,261
		s69.2-154.5,154.5-154.5c51.2,0,96.6,24.9,124.7,63.3"/>
	<path class="st2" d="M333.4,255.2c0,4.2-3.3,7.7-7.4,7.7H174.9c-4.1,0-7.4-3.4-7.4-7.7l0,0c0-4.2,3.3-7.7,7.4-7.7H326
		C330.1,247.5,333.4,250.9,333.4,255.2L333.4,255.2z"/>
	<path class="st2" d="M333.4,284.8c0,4.2-3.3,7.6-7.4,7.6H174.9c-4.1,0-7.4-3.4-7.4-7.6l0,0c0-4.2,3.3-7.6,7.4-7.6H326
		C330.1,277.1,333.4,280.6,333.4,284.8L333.4,284.8z"/>
	<path class="st2" d="M333.4,313c0,4.2-3.3,7.7-7.4,7.7H174.9c-4.1,0-7.4-3.4-7.4-7.7l0,0c0-4.2,3.3-7.6,7.4-7.6H326
		C330.1,305.4,333.4,308.8,333.4,313L333.4,313z"/>
	<path class="st2" d="M333.4,338.4c0,4.2-3.3,7.7-7.4,7.7H174.9c-4.1,0-7.4-3.4-7.4-7.7l0,0c0-4.2,3.3-7.6,7.4-7.6H326
		C330.1,330.7,333.4,334.1,333.4,338.4L333.4,338.4z"/>
	<polygon class="st3" points="395,191.5 320.2,165.2 380.4,113.5 	"/>
	<g class="st4">
		<g>
			<g>
				<path class="st5" d="M241.5,239.2c-2.3,0-4.4-1.1-5.8-2.9l-18.8-24.8c-2.4-3.2-1.8-7.8,1.4-10.3c3.2-2.4,7.8-1.8,10.3,1.4
					l12.3,16.3l31-49.8c2.1-3.4,6.6-4.5,10.1-2.3c3.4,2.1,4.5,6.6,2.3,10.1l-36.7,58.9c-1.3,2-3.5,3.3-5.9,3.4
					C241.7,239.2,241.6,239.2,241.5,239.2z"/>
			</g>
		</g>
	</g>
</g>
<g id="Layer_2_2_" class="st0">
	<rect x="121" y="171.5" class="st6" width="298" height="251"/>
	<text transform="matrix(1 0 0 1 121 348.9979)" class="st7 st8 st9">24</text>
	<circle class="st10" cx="138.3" cy="91.8" r="17.3"/>
	<circle class="st10" cx="185.3" cy="91.8" r="17.3"/>
	<circle class="st10" cx="232.3" cy="91.8" r="17.3"/>
	<circle class="st10" cx="278.3" cy="91.8" r="17.3"/>
	<circle class="st10" cx="323.3" cy="91.8" r="17.3"/>
	<circle class="st10" cx="368.3" cy="91.8" r="17.3"/>
</g>
<g>
	<path class="st11" d="M350.3,54.5H161.7c-17.9,0-34.5,9.6-43.4,25.1L24,242.9c-9,15.5-9,34.6,0,50.2l94.3,163.3
		c9,15.5,25.5,25.1,43.4,25.1h188.5c17.9,0,34.5-9.6,43.4-25.1L488,293.1c9-15.5,9-34.6,0-50.2L393.7,79.6
		C384.8,64.1,368.2,54.5,350.3,54.5z"/>
</g>
<g>
	<linearGradient id="SVGID_1_" gradientUnits="userSpaceOnUse" x1="18.15" y1="253.95" x2="495.6125" y2="253.95">
		<stop  offset="0" style="stop-color:#F69453"/>
		<stop  offset="0.5" style="stop-color:#F37521"/>
		<stop  offset="1" style="stop-color:#D4622A"/>
	</linearGradient>
	<path class="st12" d="M491.1,274.8c-0.7,1.4-1.4,2.9-2.2,4.3l-94.3,163.3c-0.5,1-1.1,1.9-1.7,2.8c-8.3,12.4-21.7,20.5-36.5,22
		c-1.7,0.2-3.4,0.3-5.2,0.3H162.6c-17.9,0-34.5-9.6-43.5-25.1l-15.3-26.6l-70.4-122L24.9,279c-9-15.5-9-34.6,0-50.2l6.5-11.3
		l22.3-38.6l65.5-113.4c9-15.5,25.5-25.1,43.5-25.1h188.5c17.9,0,34.5,9.6,43.5,25.1l20.7,35.9l6.3,10.9l25.3,43.8l2.4,4.2l5.5,9.6
		l7,12l27.1,47c1.2,2,2.2,4.1,3,6.2C497.1,247.9,496.8,262.3,491.1,274.8z"/>
	<linearGradient id="SVGID_2_" gradientUnits="userSpaceOnUse" x1="18.15" y1="253.95" x2="495.6125" y2="253.95">
		<stop  offset="0" style="stop-color:#F69453"/>
		<stop  offset="0.5" style="stop-color:#F37521"/>
		<stop  offset="1" style="stop-color:#D4622A"/>
	</linearGradient>
	<path class="st13" d="M491.1,274.8c-0.7,1.4-1.4,2.9-2.2,4.3l-94.3,163.3c-0.5,1-1.1,1.9-1.7,2.8c-8.3,12.4-21.7,20.5-36.5,22
		c-1.7,0.2-3.4,0.3-5.2,0.3H162.6c-17.9,0-34.5-9.6-43.5-25.1l-15.3-26.6l-70.4-122L24.9,279c-9-15.5-9-34.6,0-50.2l6.5-11.3
		l22.3-38.6l65.5-113.4c9-15.5,25.5-25.1,43.5-25.1h188.5c17.9,0,34.5,9.6,43.5,25.1l20.7,35.9l6.3,10.9l25.3,43.8l2.4,4.2l5.5,9.6
		l7,12l27.1,47c1.2,2,2.2,4.1,3,6.2C497.1,247.9,496.8,262.3,491.1,274.8z"/>
</g>
<path id="rect2993" class="st14" d="M272.1,149.1c-0.5-0.5-128.5,22-129.4,22.7c-0.5,0.4-0.6,17.6-0.5,84.6l0.1,84.1l63.8,11.3
	c35.1,6.2,64.3,11.3,64.9,11.2l1.2-0.1l0.1-106.7C272.4,197.5,272.3,149.3,272.1,149.1z M279.9,179.5v3.8v3.8l41.8,0.2l41.8,0.2
	l0.1,48.9c0.1,26.9,0.2,49.2,0.4,49.6c0.2,0.4,1.2,0.6,3.9,0.5l3.7-0.1V233v-53.5h-45.8L279.9,179.5L279.9,179.5z M279.9,194.8
	l-0.1,8.1c-0.1,5.6,0,8.2,0.4,8.4c0.3,0.2,1.3,0.1,2.3-0.1c1-0.2,2.4-0.4,3.3-0.4l1.5,0l0.1,14.9l0.1,14.9l15,0.2l15,0.2l-0.2,2.6
	c-0.1,1.4-0.7,4.2-1.4,6.2c-3,9.2-10.3,16.4-19.5,19.4c-3.2,1.1-4.7,1.3-8.6,1.2c-2.6,0-5.5-0.1-6.4-0.2l-1.7-0.1v4.3v4.3l26.5,0.2
	l26.5,0.2v3.3v3.3l-26.5,0.2l-26.5,0.2v7.6v7.6l26.5,0.2l26.5,0.2v3.3v3.3l-26.5,0.2l-26.5,0.2l-0.1,11c-0.1,6,0,11.2,0.1,11.6
	c0.2,0.5,7.8,0.6,38.3,0.5l38.1-0.1v-68.8v-68.8h-38.2L279.9,194.8L279.9,194.8z M295.4,203.1h2c3,0,7.2,1.2,11.3,3.2
	c5.3,2.6,10.7,8.1,13.3,13.5c1.9,4.1,2.9,7.3,3.1,10.7l0.1,1.9l-14.6,0.1c-8,0.1-14.7,0-14.9-0.2s-0.3-6.8-0.3-14.8L295.4,203.1
	L295.4,203.1z M208.6,220.4c5.1,0,6.9,0.1,8.6,0.6c5.9,1.6,9.9,5.3,11.9,11.2c1,2.8,1.1,4.2,1.1,9.9c0,7.5-0.5,9.8-3,14.7
	c-3.7,7.3-11.5,11.4-21.4,11.4c-2.6,0-4.1,0.2-4.3,0.6c-0.2,0.3-0.5,5.6-0.7,11.8c-0.2,6.2-0.5,11.5-0.6,11.8
	c-0.2,0.6-1.7,0.7-7.4,0.2l-3.1-0.3l-0.1-35.3c-0.1-19.5,0.1-35.5,0.3-35.7c0.2-0.2,5.9-0.5,12.5-0.7
	C204.8,220.4,206.9,220.4,208.6,220.4z M201.1,232.5l0.1,10.6c0.1,12.9,0.1,13,4.4,13c1.9,0,3.5-0.4,5.2-1.1
	c4.6-2.1,6.7-6.1,6.3-12.1c-0.3-4.5-1.7-7.4-4.6-9.1c-2-1.2-2.7-1.3-6.8-1.3L201.1,232.5z"/>
</svg>
