<?xml version="1.0" encoding="utf-8"?>
<!-- Generator: Adobe Illustrator 24.0.1, SVG Export Plug-In . SVG Version: 6.00 Build 0)  -->
<svg version="1.1" id="Layer_1" xmlns="http://www.w3.org/2000/svg" xmlns:xlink="http://www.w3.org/1999/xlink" x="0px" y="0px"
	 viewBox="0 0 512 512" style="enable-background:new 0 0 512 512;" xml:space="preserve">
<style type="text/css">
	.st0{display:none;}
	.st1{display:inline;fill:#200A7F;stroke:#18E5EA;stroke-width:20;stroke-miterlimit:10;}
	.st2{display:inline;fill:#EF0B79;}
	.st3{display:inline;fill:#18E5EA;}
	.st4{display:inline;}
	.st5{fill:#E9F21C;}
	.st6{display:inline;fill:none;}
	.st7{display:inline;fill:#EF3A24;}
	.st8{font-family:'MyriadPro-Regular';}
	.st9{font-size:250px;}
	.st10{display:inline;fill:#FFFFFF;}
	.st11{fill:#C4C6C8;}
	.st12{fill:url(#SVGID_1_);}
	.st13{fill:url(#SVGID_2_);stroke:#E8E8E8;stroke-width:3;stroke-miterlimit:10;}
	.st14{fill:#FFFFFF;}
</style>
<g id="Layer_3" class="st0">
	<path class="st1" d="M401.1,212.2c5.1,15.3,7.9,31.7,7.9,48.8c0,85.3-69.2,154.5-154.5,154.5S100,346.3,100,261
		s69.2-154.5,154.5-154.5c51.2,0,96.6,24.9,124.7,63.3"/>
	<path class="st2" d="M333.4,255.2c0,4.2-3.3,7.7-7.4,7.7H174.9c-4.1,0-7.4-3.4-7.4-7.7l0,0c0-4.2,3.3-7.7,7.4-7.7H326
		C330.1,247.5,333.4,250.9,333.4,255.2L333.4,255.2z"/>
	<path class="st2" d="M333.4,284.8c0,4.2-3.3,7.6-7.4,7.6H174.9c-4.1,0-7.4-3.4-7.4-7.6l0,0c0-4.2,3.3-7.6,7.4-7.6H326
		C330.1,277.1,333.4,280.6,333.4,284.8L333.4,284.8z"/>
	<path class="st2" d="M333.4,313c0,4.2-3.3,7.7-7.4,7.7H174.9c-4.1,0-7.4-3.4-7.4-7.7l0,0c0-4.2,3.3-7.6,7.4-7.6H326
		C330.1,305.4,333.4,308.8,333.4,313L333.4,313z"/>
	<path class="st2" d="M333.4,338.4c0,4.2-3.3,7.7-7.4,7.7H174.9c-4.1,0-7.4-3.4-7.4-7.7l0,0c0-4.2,3.3-7.6,7.4-7.6H326
		C330.1,330.7,333.4,334.1,333.4,338.4L333.4,338.4z"/>
	<polygon class="st3" points="395,191.5 320.2,165.2 380.4,113.5 	"/>
	<g class="st4">
		<g>
			<g>
				<path class="st5" d="M241.5,239.2c-2.3,0-4.4-1.1-5.8-2.9l-18.8-24.8c-2.4-3.2-1.8-7.8,1.4-10.3c3.2-2.4,7.8-1.8,10.3,1.4
					l12.3,16.3l31-49.8c2.1-3.4,6.6-4.5,10.1-2.3c3.4,2.1,4.5,6.6,2.3,10.1l-36.7,58.9c-1.3,2-3.5,3.3-5.9,3.4
					C241.7,239.2,241.6,239.2,241.5,239.2z"/>
			</g>
		</g>
	</g>
</g>
<g id="Layer_2_2_" class="st0">
	<rect x="121" y="171.5" class="st6" width="298" height="251"/>
	<text transform="matrix(1 0 0 1 121 348.9979)" class="st7 st8 st9">24</text>
	<circle class="st10" cx="138.3" cy="91.8" r="17.3"/>
	<circle class="st10" cx="185.3" cy="91.8" r="17.3"/>
	<circle class="st10" cx="232.3" cy="91.8" r="17.3"/>
	<circle class="st10" cx="278.3" cy="91.8" r="17.3"/>
	<circle class="st10" cx="323.3" cy="91.8" r="17.3"/>
	<circle class="st10" cx="368.3" cy="91.8" r="17.3"/>
</g>
<g>
	<path class="st11" d="M350.3,54.5H161.7c-17.9,0-34.5,9.6-43.4,25.1L24,242.9c-9,15.5-9,34.6,0,50.2l94.3,163.3
		c9,15.5,25.5,25.1,43.4,25.1h188.5c17.9,0,34.5-9.6,43.4-25.1L488,293.1c9-15.5,9-34.6,0-50.2L393.7,79.6
		C384.8,64.1,368.2,54.5,350.3,54.5z"/>
</g>
<g>
	<linearGradient id="SVGID_1_" gradientUnits="userSpaceOnUse" x1="18.15" y1="253.95" x2="495.6125" y2="253.95">
		<stop  offset="0" style="stop-color:#64C08A"/>
		<stop  offset="0.5" style="stop-color:#00A550"/>
		<stop  offset="1" style="stop-color:#00914C"/>
	</linearGradient>
	<path class="st12" d="M491.1,274.8c-0.7,1.4-1.4,2.9-2.2,4.3l-94.3,163.3c-0.5,1-1.1,1.9-1.7,2.8c-8.3,12.4-21.7,20.5-36.5,22
		c-1.7,0.2-3.4,0.3-5.2,0.3H162.6c-17.9,0-34.5-9.6-43.5-25.1l-15.3-26.6l-70.4-122L24.9,279c-9-15.5-9-34.6,0-50.2l6.5-11.3
		l22.3-38.6l65.5-113.4c9-15.5,25.5-25.1,43.5-25.1h188.5c17.9,0,34.5,9.6,43.5,25.1l20.7,35.9l6.3,10.9l25.3,43.8l2.4,4.2l5.5,9.6
		l7,12l27.1,47c1.2,2,2.2,4.1,3,6.2C497.1,247.9,496.8,262.3,491.1,274.8z"/>
	<linearGradient id="SVGID_2_" gradientUnits="userSpaceOnUse" x1="18.15" y1="253.95" x2="495.6125" y2="253.95">
		<stop  offset="0" style="stop-color:#64C08A"/>
		<stop  offset="0.5" style="stop-color:#00A550"/>
		<stop  offset="1" style="stop-color:#00914C"/>
	</linearGradient>
	<path class="st13" d="M491.1,274.8c-0.7,1.4-1.4,2.9-2.2,4.3l-94.3,163.3c-0.5,1-1.1,1.9-1.7,2.8c-8.3,12.4-21.7,20.5-36.5,22
		c-1.7,0.2-3.4,0.3-5.2,0.3H162.6c-17.9,0-34.5-9.6-43.5-25.1l-15.3-26.6l-70.4-122L24.9,279c-9-15.5-9-34.6,0-50.2l6.5-11.3
		l22.3-38.6l65.5-113.4c9-15.5,25.5-25.1,43.5-25.1h188.5c17.9,0,34.5,9.6,43.5,25.1l20.7,35.9l6.3,10.9l25.3,43.8l2.4,4.2l5.5,9.6
		l7,12l27.1,47c1.2,2,2.2,4.1,3,6.2C497.1,247.9,496.8,262.3,491.1,274.8z"/>
</g>
<path id="path4168" class="st14" d="M277.8,150.8c-0.7,0-7,1-14,2.3s-21.9,3.8-33,5.8s-21.1,3.7-22.2,4c-1.1,0.3-10.9,2-21.9,3.9
	s-20.6,3.5-21.3,3.8s-4.7,1-8.9,1.6l-7.5,1.2v84c0,46.2,0.1,84,0.1,84s4,0.7,8.9,1.6s17.8,3.2,28.9,5.1s20.6,3.7,21.1,3.8
	s10.3,1.9,21.8,3.9s26.9,4.7,34.3,6c7.4,1.3,13.8,2.4,14.2,2.4c0.7,0,0.8-5.3,0.8-106.7V150.8H277.8z M286.2,165.6v7.8v7.8h15.2
	h15.2v11.2v11.2h-15.2h-15.2v4v4h15.2h15.2V223v11.2h-15.2h-15.2v4v4h15.2h15.2v11.2v11.2h-15.2h-15.2v4v4h15.2h15.2v11.2v11.2
	l-15.1,0.1l-15.1,0.1l-0.1,3.9l-0.1,3.9h15.3h15.3v11.2v11.2l-15.1,0.1l-15.1,0.1l-0.1,7.7l-0.1,7.7h46h46v-87.9v-87.9h-46H286.2z
	 M324.8,181.3h18.8h18.8v11.2v11.2h-18.8h-18.8v-11.2L324.8,181.3L324.8,181.3z M324.8,211.8h18.8h18.8V223v11.2h-18.8h-18.8V223
	L324.8,211.8L324.8,211.8z M240,217.2l-0.7,1.7c-0.4,0.9-1.1,2.7-1.6,4s-1.1,2.4-1.3,2.4c-0.2,0-0.5,0.5-0.7,1
	c-0.5,1.7-5.4,12.4-7.8,17.4c-2.5,5.1-5.4,11.6-5.4,12.3c0,0.6,5.1,11.8,7,15.3c0.8,1.5,1.9,3.7,2.4,5s2,4.7,3.5,7.6
	c3,6.3,4.8,10.6,4.4,10.9c-0.4,0.4-5.4,0.4-8.9,0c-1.9-0.2-4.1-0.7-4.8-1.1c-1.7-0.9-3.2-3.6-6.1-11.2c-3.2-8.3-5.8-13.7-6.6-13.7
	c-0.9,0-2.6,3.6-9.2,19.5l-1.7,4l-2,0.1c-1.9,0.1-11.6-0.7-12-1c-0.1-0.1,0.4-1.2,1-2.4s1.6-3.3,2.1-4.6c0.5-1.3,1.2-2.7,1.5-3
	c0.3-0.4,1.4-2.6,2.5-4.9s3.6-7.8,5.7-12.1l3.8-7.9l-1.6-3.9c-0.9-2.1-2.2-5.1-2.9-6.5c-0.7-1.4-2.6-5.8-4.2-9.8
	c-1.6-3.9-3.3-8-3.8-9c-1.6-3.2-2.4-6.1-1.9-6.7c0.3-0.3,3-0.5,7-0.5l6.5,0l1.1,2.9c0.6,1.6,2.1,5.5,3.2,8.7
	c3.4,9.2,4.2,11.2,4.9,11.2c0.9,0,4.1-6.1,6.6-12.8c1.2-3.1,2.7-6.8,3.4-8.3c0.7-1.5,1.3-2.9,1.3-3.2c0-0.4,1.6-0.6,4.8-0.8
	c2.7-0.1,6.1-0.4,7.6-0.5L240,217.2z M324.8,242.2h18.8h18.8v11.2v11.2h-18.8h-18.8v-11.2L324.8,242.2L324.8,242.2z M324.8,272.7
	h18.8h18.8V284v11.2h-18.8h-18.8V284L324.8,272.7L324.8,272.7z M324.8,303.2h18.8h18.8v11.2v11.2h-18.8h-18.8v-11.2L324.8,303.2
	L324.8,303.2z"/>
</svg>
