<?xml version="1.0" encoding="utf-8"?>
<!-- Generator: Adobe Illustrator 24.0.1, SVG Export Plug-In . SVG Version: 6.00 Build 0)  -->
<svg version="1.1" id="Layer_1" xmlns="http://www.w3.org/2000/svg" xmlns:xlink="http://www.w3.org/1999/xlink" x="0px" y="0px"
	 viewBox="0 0 512 512" style="enable-background:new 0 0 512 512;" xml:space="preserve">
<style type="text/css">
	.st0{display:none;}
	.st1{display:inline;fill:#200A7F;stroke:#18E5EA;stroke-width:20;stroke-miterlimit:10;}
	.st2{display:inline;fill:#EF0B79;}
	.st3{display:inline;fill:#18E5EA;}
	.st4{display:inline;}
	.st5{fill:#E9F21C;}
	.st6{display:inline;fill:none;}
	.st7{display:inline;fill:#EF3A24;}
	.st8{font-family:'MyriadPro-Regular';}
	.st9{font-size:250px;}
	.st10{display:inline;fill:#FFFFFF;}
	.st11{fill:#C4C6C8;}
	.st12{fill:url(#SVGID_1_);}
	.st13{fill:url(#SVGID_2_);stroke:#E8E8E8;stroke-width:3;stroke-miterlimit:10;}
	.st14{fill:none;}
	.st15{fill:url(#SVGID_3_);}
	.st16{fill:#231F20;}
	.st17{fill:url(#SVGID_4_);}
	.st18{fill:url(#SVGID_5_);}
	.st19{fill:url(#SVGID_6_);}
	.st20{fill:url(#SVGID_7_);}
	.st21{fill:url(#SVGID_8_);}
	.st22{fill:url(#SVGID_9_);}
	.st23{fill:url(#SVGID_10_);}
</style>
<g id="Layer_3" class="st0">
	<path class="st1" d="M401.1,212.2c5.1,15.3,7.9,31.7,7.9,48.8c0,85.3-69.2,154.5-154.5,154.5S100,346.3,100,261
		s69.2-154.5,154.5-154.5c51.2,0,96.6,24.9,124.7,63.3"/>
	<path class="st2" d="M333.4,255.2c0,4.2-3.3,7.7-7.4,7.7H174.9c-4.1,0-7.4-3.4-7.4-7.7l0,0c0-4.2,3.3-7.7,7.4-7.7H326
		C330.1,247.5,333.4,250.9,333.4,255.2L333.4,255.2z"/>
	<path class="st2" d="M333.4,284.8c0,4.2-3.3,7.6-7.4,7.6H174.9c-4.1,0-7.4-3.4-7.4-7.6l0,0c0-4.2,3.3-7.6,7.4-7.6H326
		C330.1,277.1,333.4,280.6,333.4,284.8L333.4,284.8z"/>
	<path class="st2" d="M333.4,313c0,4.2-3.3,7.7-7.4,7.7H174.9c-4.1,0-7.4-3.4-7.4-7.7l0,0c0-4.2,3.3-7.6,7.4-7.6H326
		C330.1,305.4,333.4,308.8,333.4,313L333.4,313z"/>
	<path class="st2" d="M333.4,338.4c0,4.2-3.3,7.7-7.4,7.7H174.9c-4.1,0-7.4-3.4-7.4-7.7l0,0c0-4.2,3.3-7.6,7.4-7.6H326
		C330.1,330.7,333.4,334.1,333.4,338.4L333.4,338.4z"/>
	<polygon class="st3" points="395,191.5 320.2,165.2 380.4,113.5 	"/>
	<g class="st4">
		<g>
			<g>
				<path class="st5" d="M241.5,239.2c-2.3,0-4.4-1.1-5.8-2.9l-18.8-24.8c-2.4-3.2-1.8-7.8,1.4-10.3c3.2-2.4,7.8-1.8,10.3,1.4
					l12.3,16.3l31-49.8c2.1-3.4,6.6-4.5,10.1-2.3c3.4,2.1,4.5,6.6,2.3,10.1l-36.7,58.9c-1.3,2-3.5,3.3-5.9,3.4
					C241.7,239.2,241.6,239.2,241.5,239.2z"/>
			</g>
		</g>
	</g>
</g>
<g id="Layer_2_2_" class="st0">
	<rect x="121" y="171.5" class="st6" width="298" height="251"/>
	<text transform="matrix(1 0 0 1 121 348.9979)" class="st7 st8 st9">24</text>
	<circle class="st10" cx="138.3" cy="91.8" r="17.3"/>
	<circle class="st10" cx="185.3" cy="91.8" r="17.3"/>
	<circle class="st10" cx="232.3" cy="91.8" r="17.3"/>
	<circle class="st10" cx="278.3" cy="91.8" r="17.3"/>
	<circle class="st10" cx="323.3" cy="91.8" r="17.3"/>
	<circle class="st10" cx="368.3" cy="91.8" r="17.3"/>
</g>
<g>
	<path class="st11" d="M350.3,54.5H161.7c-17.9,0-34.5,9.6-43.4,25.1L24,242.9c-9,15.5-9,34.6,0,50.2l94.3,163.3
		c9,15.5,25.5,25.1,43.4,25.1h188.5c17.9,0,34.5-9.6,43.4-25.1L488,293.1c9-15.5,9-34.6,0-50.2L393.7,79.6
		C384.8,64.1,368.2,54.5,350.3,54.5z"/>
</g>
<g>
	
		<radialGradient id="SVGID_1_" cx="256.8813" cy="5077.9507" r="226.4908" gradientTransform="matrix(1 0 0 1 0 -4824.0005)" gradientUnits="userSpaceOnUse">
		<stop  offset="0" style="stop-color:#282882"/>
		<stop  offset="9.601454e-02" style="stop-color:#2A2C85"/>
		<stop  offset="0.1966" style="stop-color:#2F398D"/>
		<stop  offset="0.2994" style="stop-color:#384E9A"/>
		<stop  offset="0.4029" style="stop-color:#446BAC"/>
		<stop  offset="0.4888" style="stop-color:#5189BF"/>
		<stop  offset="0.6047" style="stop-color:#3B5C99"/>
		<stop  offset="0.7245" style="stop-color:#273478"/>
		<stop  offset="0.8345" style="stop-color:#191860"/>
		<stop  offset="0.9299" style="stop-color:#100651"/>
		<stop  offset="1" style="stop-color:#0D004C"/>
	</radialGradient>
	<path class="st12" d="M491.1,274.8c-0.7,1.4-1.4,2.9-2.2,4.3l-94.3,163.3c-0.5,1-1.1,1.9-1.7,2.8c-8.3,12.4-21.7,20.5-36.5,22
		c-1.7,0.2-3.4,0.3-5.2,0.3H162.6c-17.9,0-34.5-9.6-43.5-25.1l-15.3-26.6l-70.4-122L24.9,279c-9-15.5-9-34.6,0-50.2l6.5-11.3
		l22.3-38.6l65.5-113.4c9-15.5,25.5-25.1,43.5-25.1h188.5c17.9,0,34.5,9.6,43.5,25.1l20.7,35.9l6.3,10.9l25.3,43.8l2.4,4.2l5.5,9.6
		l7,12l27.1,47c1.2,2,2.2,4.1,3,6.2C497.1,247.9,496.8,262.3,491.1,274.8z"/>
	
		<radialGradient id="SVGID_2_" cx="256.8813" cy="591.3412" r="226.4908" gradientTransform="matrix(1 0 0 -1 0 845.2912)" gradientUnits="userSpaceOnUse">
		<stop  offset="0" style="stop-color:#282882"/>
		<stop  offset="9.601454e-02" style="stop-color:#2A2C85"/>
		<stop  offset="0.1966" style="stop-color:#2F398D"/>
		<stop  offset="0.2994" style="stop-color:#384E9A"/>
		<stop  offset="0.4029" style="stop-color:#446BAC"/>
		<stop  offset="0.4888" style="stop-color:#5189BF"/>
		<stop  offset="0.6047" style="stop-color:#3B5C99"/>
		<stop  offset="0.7245" style="stop-color:#273478"/>
		<stop  offset="0.8345" style="stop-color:#191860"/>
		<stop  offset="0.9299" style="stop-color:#100651"/>
		<stop  offset="1" style="stop-color:#0D004C"/>
	</radialGradient>
	<path class="st13" d="M491.1,274.8c-0.7,1.4-1.4,2.9-2.2,4.3l-94.3,163.3c-0.5,1-1.1,1.9-1.7,2.8c-8.3,12.4-21.7,20.5-36.5,22
		c-1.7,0.2-3.4,0.3-5.2,0.3H162.6c-17.9,0-34.5-9.6-43.5-25.1l-15.3-26.6l-70.4-122L24.9,279c-9-15.5-9-34.6,0-50.2l6.5-11.3
		l22.3-38.6l65.5-113.4c9-15.5,25.5-25.1,43.5-25.1h188.5c17.9,0,34.5,9.6,43.5,25.1l20.7,35.9l6.3,10.9l25.3,43.8l2.4,4.2l5.5,9.6
		l7,12l27.1,47c1.2,2,2.2,4.1,3,6.2C497.1,247.9,496.8,262.3,491.1,274.8z"/>
</g>
<path d="M494.8,353.7"/>
<rect x="82.8" y="127.2" class="st14" width="373.3" height="284.7"/>
<g>
	<g>
		
			<radialGradient id="SVGID_3_" cx="276.3695" cy="254.4023" r="90.5015" gradientTransform="matrix(1.8675 0 0 1.9328 -254.9092 -240.1363)" gradientUnits="userSpaceOnUse">
			<stop  offset="0" style="stop-color:#D6AB72"/>
			<stop  offset="0.1305" style="stop-color:#D09F5D"/>
			<stop  offset="0.5" style="stop-color:#C18026"/>
			<stop  offset="0.6095" style="stop-color:#B97926"/>
			<stop  offset="1" style="stop-color:#A26526"/>
		</radialGradient>
		<path class="st15" d="M261.2,76.6c-93.3,0-169,78.3-169,174.9c0,96.6,75.7,174.9,169,174.9c93.3,0,169-78.3,169-174.9
			C430.2,155,354.5,76.6,261.2,76.6z M260.4,271.9c-11.4,0-20.7-9.6-20.7-21.4s9.3-21.4,20.7-21.4c11.4,0,20.7,9.6,20.7,21.4
			C281.1,262.3,271.8,271.9,260.4,271.9z"/>
	</g>
</g>
<path class="st16" d="M283.9,147.9c0,0-247.6,77.6-253.8,96s-15,24.9,12.5,33.6C70,286.1,283.9,147.9,283.9,147.9z"/>
<radialGradient id="SVGID_4_" cx="173.2769" cy="55.256" r="13.5" gradientTransform="matrix(0.7516 0 0 -0.7063 30.4635 484.5839)" gradientUnits="userSpaceOnUse">
	<stop  offset="0" style="stop-color:#FFE7A3"/>
	<stop  offset="0.5" style="stop-color:#FFCA05"/>
	<stop  offset="1" style="stop-color:#FAAC18"/>
</radialGradient>
<ellipse class="st17" cx="160.7" cy="445.6" rx="10.1" ry="9.5"/>
<radialGradient id="SVGID_5_" cx="219.7769" cy="55.256" r="13.5" gradientTransform="matrix(0.7516 0 0 -0.7063 30.4635 484.5839)" gradientUnits="userSpaceOnUse">
	<stop  offset="0" style="stop-color:#FFE7A3"/>
	<stop  offset="0.5" style="stop-color:#FFCA05"/>
	<stop  offset="1" style="stop-color:#FAAC18"/>
</radialGradient>
<ellipse class="st18" cx="195.6" cy="445.6" rx="10.1" ry="9.5"/>
<radialGradient id="SVGID_6_" cx="264.7769" cy="55.256" r="13.5" gradientTransform="matrix(0.7516 0 0 -0.7063 30.4635 484.5839)" gradientUnits="userSpaceOnUse">
	<stop  offset="0" style="stop-color:#FFE7A3"/>
	<stop  offset="0.5" style="stop-color:#FFCA05"/>
	<stop  offset="1" style="stop-color:#FAAC18"/>
</radialGradient>
<ellipse class="st19" cx="229.5" cy="445.6" rx="10.1" ry="9.5"/>
<radialGradient id="SVGID_7_" cx="309.2769" cy="55.256" r="13.5" gradientTransform="matrix(0.7516 0 0 -0.7063 30.4635 484.5839)" gradientUnits="userSpaceOnUse">
	<stop  offset="0" style="stop-color:#FFE7A3"/>
	<stop  offset="0.5" style="stop-color:#FFCA05"/>
	<stop  offset="1" style="stop-color:#FAAC18"/>
</radialGradient>
<ellipse class="st20" cx="262.9" cy="445.6" rx="10.1" ry="9.5"/>
<radialGradient id="SVGID_8_" cx="353.7769" cy="55.256" r="13.5" gradientTransform="matrix(0.7516 0 0 -0.7063 30.4635 484.5839)" gradientUnits="userSpaceOnUse">
	<stop  offset="0" style="stop-color:#FFE7A3"/>
	<stop  offset="0.5" style="stop-color:#FFCA05"/>
	<stop  offset="1" style="stop-color:#FAAC18"/>
</radialGradient>
<ellipse class="st21" cx="296.4" cy="445.6" rx="10.1" ry="9.5"/>
<radialGradient id="SVGID_9_" cx="398.3899" cy="55.256" r="13.5" gradientTransform="matrix(0.7516 0 0 -0.7063 30.4635 484.5839)" gradientUnits="userSpaceOnUse">
	<stop  offset="0" style="stop-color:#FFE7A3"/>
	<stop  offset="0.5" style="stop-color:#FFCA05"/>
	<stop  offset="1" style="stop-color:#FAAC18"/>
</radialGradient>
<ellipse class="st22" cx="329.9" cy="445.6" rx="10.1" ry="9.5"/>
<radialGradient id="SVGID_10_" cx="440.7769" cy="55.256" r="13.5" gradientTransform="matrix(0.7516 0 0 -0.7063 30.4635 484.5839)" gradientUnits="userSpaceOnUse">
	<stop  offset="0" style="stop-color:#FFE7A3"/>
	<stop  offset="0.5" style="stop-color:#FFCA05"/>
	<stop  offset="1" style="stop-color:#FAAC18"/>
</radialGradient>
<ellipse class="st23" cx="361.7" cy="445.6" rx="10.1" ry="9.5"/>
</svg>
