<?xml version="1.0" encoding="utf-8"?>
<!-- Generator: Adobe Illustrator 24.0.1, SVG Export Plug-In . SVG Version: 6.00 Build 0)  -->
<svg version="1.1" id="Layer_1" xmlns="http://www.w3.org/2000/svg" xmlns:xlink="http://www.w3.org/1999/xlink" x="0px" y="0px"
	 viewBox="0 0 512 512" style="enable-background:new 0 0 512 512;" xml:space="preserve">
<style type="text/css">
	.st0{display:none;}
	.st1{display:inline;fill:#200A7F;stroke:#18E5EA;stroke-width:20;stroke-miterlimit:10;}
	.st2{display:inline;fill:#EF0B79;}
	.st3{display:inline;fill:#18E5EA;}
	.st4{display:inline;}
	.st5{fill:#E9F21C;}
	.st6{display:inline;fill:none;}
	.st7{display:inline;fill:#EF3A24;}
	.st8{font-family:'MyriadPro-Regular';}
	.st9{font-size:250px;}
	.st10{display:inline;fill:#FFFFFF;}
	.st11{fill:#C4C6C8;}
	.st12{fill:#FFFFFF;}
	.st13{fill:#FFFFFF;stroke:#E8E8E8;stroke-width:3;stroke-miterlimit:10;}
	.st14{font-size:45px;}
	.st15{fill:none;stroke:#000000;stroke-miterlimit:10;}
	.st16{display:inline;fill:#9E5528;}
	.st17{display:inline;fill:#904D24;}
	.st18{display:inline;fill:#C86D36;}
	.st19{display:inline;fill:#AC5E2E;}
	.st20{display:none;fill:#D77F4A;}
	.st21{display:none;fill:#C86D36;}
	.st22{display:none;fill:#91DEB6;}
	.st23{display:none;fill:#6ED5A1;}
	.st24{fill:#54B582;}
</style>
<g id="Layer_3" class="st0">
	<path class="st1" d="M401.1,212.2c5.1,15.3,7.9,31.7,7.9,48.8c0,85.3-69.2,154.5-154.5,154.5S100,346.3,100,261
		s69.2-154.5,154.5-154.5c51.2,0,96.6,24.9,124.7,63.3"/>
	<path class="st2" d="M333.4,255.2c0,4.2-3.3,7.7-7.4,7.7H174.9c-4.1,0-7.4-3.4-7.4-7.7l0,0c0-4.2,3.3-7.7,7.4-7.7H326
		C330.1,247.5,333.4,250.9,333.4,255.2L333.4,255.2z"/>
	<path class="st2" d="M333.4,284.8c0,4.2-3.3,7.6-7.4,7.6H174.9c-4.1,0-7.4-3.4-7.4-7.6l0,0c0-4.2,3.3-7.6,7.4-7.6H326
		C330.1,277.1,333.4,280.6,333.4,284.8L333.4,284.8z"/>
	<path class="st2" d="M333.4,313c0,4.2-3.3,7.7-7.4,7.7H174.9c-4.1,0-7.4-3.4-7.4-7.7l0,0c0-4.2,3.3-7.6,7.4-7.6H326
		C330.1,305.4,333.4,308.8,333.4,313L333.4,313z"/>
	<path class="st2" d="M333.4,338.4c0,4.2-3.3,7.7-7.4,7.7H174.9c-4.1,0-7.4-3.4-7.4-7.7l0,0c0-4.2,3.3-7.6,7.4-7.6H326
		C330.1,330.7,333.4,334.1,333.4,338.4L333.4,338.4z"/>
	<polygon class="st3" points="395,191.5 320.2,165.2 380.4,113.5 	"/>
	<g class="st4">
		<g>
			<g>
				<path class="st5" d="M241.5,239.2c-2.3,0-4.4-1.1-5.8-2.9l-18.8-24.8c-2.4-3.2-1.8-7.8,1.4-10.3c3.2-2.4,7.8-1.8,10.3,1.4
					l12.3,16.3l31-49.8c2.1-3.4,6.6-4.5,10.1-2.3c3.4,2.1,4.5,6.6,2.3,10.1l-36.7,58.9c-1.3,2-3.5,3.3-5.9,3.4
					C241.7,239.2,241.6,239.2,241.5,239.2z"/>
			</g>
		</g>
	</g>
</g>
<g id="Layer_2_2_" class="st0">
	<rect x="121" y="171.5" class="st6" width="298" height="251"/>
	<text transform="matrix(1 0 0 1 121 348.9979)" class="st7 st8 st9">24</text>
	<circle class="st10" cx="138.3" cy="91.8" r="17.3"/>
	<circle class="st10" cx="185.3" cy="91.8" r="17.3"/>
	<circle class="st10" cx="232.3" cy="91.8" r="17.3"/>
	<circle class="st10" cx="278.3" cy="91.8" r="17.3"/>
	<circle class="st10" cx="323.3" cy="91.8" r="17.3"/>
	<circle class="st10" cx="368.3" cy="91.8" r="17.3"/>
</g>
<g>
	<path class="st11" d="M350.3,54.5H161.7c-17.9,0-34.5,9.6-43.4,25.1L24,242.9c-9,15.5-9,34.6,0,50.2l94.3,163.3
		c9,15.5,25.5,25.1,43.4,25.1h188.5c17.9,0,34.5-9.6,43.4-25.1L488,293.1c9-15.5,9-34.6,0-50.2L393.7,79.6
		C384.8,64.1,368.2,54.5,350.3,54.5z"/>
</g>
<g>
	<path class="st12" d="M491.1,274.8c-0.7,1.4-1.4,2.9-2.2,4.3l-94.3,163.3c-0.5,1-1.1,1.9-1.7,2.8c-8.3,12.4-21.7,20.5-36.5,22
		c-1.7,0.2-3.4,0.3-5.2,0.3H162.6c-17.9,0-34.5-9.6-43.5-25.1l-15.3-26.6l-70.4-122L24.9,279c-9-15.5-9-34.6,0-50.2l6.5-11.3
		l22.3-38.6L97,104l22.2-38.5c9-15.5,25.5-25.1,43.5-25.1h188.5c17.9,0,34.5,9.6,43.5,25.1l20.7,35.9l1.5,2.6l4.8,8.3l25.3,43.8
		l2.4,4.2l5.5,9.6l7,12l27.1,47c1.2,2,2.2,4.1,3,6.2C497.1,247.9,496.8,262.3,491.1,274.8z"/>
	<path class="st13" d="M491.1,274.8c-0.7,1.4-1.4,2.9-2.2,4.3l-94.3,163.3c-0.5,1-1.1,1.9-1.7,2.8c-8.3,12.4-21.7,20.5-36.5,22
		c-1.7,0.2-3.4,0.3-5.2,0.3H162.6c-17.9,0-34.5-9.6-43.5-25.1l-15.3-26.6l-70.4-122L24.9,279c-9-15.5-9-34.6,0-50.2l6.5-11.3
		l22.3-38.6L97,104l22.2-38.5c9-15.5,25.5-25.1,43.5-25.1h188.5c17.9,0,34.5,9.6,43.5,25.1l20.7,35.9l1.5,2.6l4.8,8.3l25.3,43.8
		l2.4,4.2l5.5,9.6l7,12l27.1,47c1.2,2,2.2,4.1,3,6.2C497.1,247.9,496.8,262.3,491.1,274.8z"/>
</g>
<path d="M443.8,329"/>
<text transform="matrix(1 0 0 1 85.0643 376.1465)" class="st8 st14">Lobre Office </text>
<text transform="matrix(1 0 0 1 85.0643 376.1465)" class="st15 st8 st14">Lobre Office </text>
<g>
	<g class="st0">
		<path class="st16" d="M155.6,398.5h232.1v28.1H155.6V398.5z"/>
		<path class="st17" d="M387.7,398.5v28.1h-26.3l-9.1-28.1H387.7z"/>
		<path class="st18" d="M128.7,477c-8.7-2.8-13.5-12.2-10.7-21l43.4-134c2.8-8.7,12.2-13.5,21-10.7c8.7,2.8,13.5,12.2,10.7,21
			l-43.4,134C146.9,475.1,137.5,479.9,128.7,477z"/>
		<path class="st19" d="M193.9,327.2c0,1.7-0.3,3.4-0.8,5.1l-43.4,134c-2.8,8.7-12.2,13.5-21,10.7c-2.8-0.9-5.2-2.5-7.1-4.6
			c5.7-1.2,10.6-5.3,12.5-11.2l43.4-134c0.6-1.7,0.8-3.4,0.8-5.1c0-4.2-1.6-8.2-4.4-11.3c2.7-0.6,5.6-0.4,8.5,0.5
			C189.5,313.7,193.9,320.2,193.9,327.2L193.9,327.2z"/>
		<path class="st18" d="M414.5,477c8.7-2.8,13.5-12.2,10.7-21l-43.4-134c-2.8-8.7-12.2-13.5-21-10.7c-8.7,2.8-13.5,12.2-10.7,21
			l43.4,134C396.4,475.1,405.7,479.9,414.5,477z"/>
		<path class="st19" d="M414.5,477c-4.8,1.6-9.8,0.8-13.9-1.7c6.4-3.9,9.5-11.9,7.1-19.3l-43.4-134c-1.3-3.9-3.9-7-7.1-9
			c1.1-0.7,2.3-1.2,3.6-1.7c8.7-2.8,18.1,2,21,10.7l43.4,134C428,464.8,423.2,474.2,414.5,477L414.5,477z"/>
	</g>
	<path class="st20" d="M454.9,352.7H88.3c-8.4,0-15.2-6.8-15.2-15.2V95.8c0-8.4,6.8-15.2,15.2-15.2h366.6c8.4,0,15.2,6.8,15.2,15.2
		v241.6C470.2,345.8,463.3,352.7,454.9,352.7z"/>
	<path class="st21" d="M470.2,95.8v241.6c0,8.4-6.8,15.2-15.2,15.2h-16c8.4,0,15.2-6.8,15.2-15.2V95.8c0-8.4-6.8-15.2-15.2-15.2h16
		C463.3,80.5,470.2,87.4,470.2,95.8z"/>
	<path class="st22" d="M440.2,327.3H103c-3,0-5.5-2.4-5.5-5.5V111.4c0-3,2.5-5.5,5.5-5.5h337.2c3,0,5.5,2.4,5.5,5.5v210.4
		C445.7,324.8,443.3,327.3,440.2,327.3z"/>
	<path class="st23" d="M445.7,111.4v210.4c0,3-2.5,5.5-5.5,5.5h-16c3,0,5.5-2.5,5.5-5.5V111.4c0-3-2.5-5.5-5.5-5.5h16
		C443.3,105.9,445.7,108.4,445.7,111.4L445.7,111.4z"/>
	<g>
		<path class="st24" d="M163.9,183.3c3.2,0,5.8-2.6,5.8-5.8c0-3.2-2.6-5.8-5.8-5.8h-32.6c-3.2,0-5.8,2.6-5.8,5.8v77.4
			c0,3.2,2.6,5.8,5.8,5.8h32.6c3.2,0,5.8-2.6,5.8-5.8c0-3.2-2.6-5.8-5.8-5.8h-26.8V222h24.4c3.2,0,5.8-2.6,5.8-5.8
			c0-3.2-2.6-5.8-5.8-5.8h-24.4v-27.1H163.9z"/>
		<path class="st24" d="M374.9,244.4c-2.5-2.1-6.1-1.7-8.2,0.7c-0.4,0.5-0.9,1-1.4,1.4c-2.5,2.2-5.7,3.4-9.5,3.4
			c-10.2,0-18.5-8.3-18.5-18.5c0-10.2,8.3-18.5,18.5-18.5c3.7,0,7.3,1.1,10.3,3.2c2.7,1.8,6.3,1.1,8.1-1.6c1.8-2.7,1.1-6.3-1.6-8.1
			c-5-3.4-10.8-5.1-16.9-5.1c-16.6,0-30.1,13.5-30.1,30.1c0,16.6,13.5,30.1,30.1,30.1c6.6,0,12.6-2.2,17.2-6.3
			c0.9-0.8,1.8-1.7,2.6-2.6C377.7,250.1,377.4,246.4,374.9,244.4L374.9,244.4z"/>
		<path class="st24" d="M291.7,201.6c-6.7,0-12.2,2.4-16.1,6.6c-3.4-4.6-8.5-6.9-15.3-6.9c-4.5,0-8.5,1.3-11.9,3.5
			c-0.7-2.5-2.9-4.3-5.6-4.3c-3.2,0-5.8,2.6-5.8,5.8v48.9c0,3.2,2.6,5.8,5.8,5.8c3.2,0,5.8-2.6,5.8-5.8v-25.2c0,0,0-0.1,0-0.1
			c0-10.3,4.6-17,11.7-17c3.4,0,8.5,0,8.9,14.7c0,0.4,0,3.4,0,3.4v24.2c0,3.2,2.6,5.8,5.8,5.8c3.2,0,5.8-2.6,5.8-5.8l0-28.6
			c0-11.1,5.9-13.5,10.8-13.5c4.7,0,6.1,1.5,6.6,2c2.2,2.3,3.1,7.3,2.8,14.9c0,0.1,0,0.2,0,0.3v24.9c0,3.2,2.6,5.8,5.8,5.8
			c3.2,0,5.8-2.6,5.8-5.8v-24.7c0.5-11.2-1.4-18.6-6-23.4C303.2,203.5,298.1,201.6,291.7,201.6L291.7,201.6z"/>
		<path class="st24" d="M214.2,214.4h-23.2c-3.2,0-5.8,2.6-5.8,5.8s2.6,5.8,5.8,5.8h23.2c3.2,0,5.8-2.6,5.8-5.8
			C220,217,217.4,214.4,214.2,214.4z"/>
		<path class="st24" d="M214.2,235.7h-23.2c-3.2,0-5.8,2.6-5.8,5.8c0,3.2,2.6,5.8,5.8,5.8h23.2c3.2,0,5.8-2.6,5.8-5.8
			C220,238.3,217.4,235.7,214.2,235.7z"/>
		<path class="st24" d="M412,209.8C412,209.8,411.9,209.8,412,209.8c-2.7,0-5.5,0.1-8.1,0.1c1.9-2.5,4.2-5.8,7.1-9.9
			c2.6-3.7,5.2-8.3,5.2-12.9c0-8.5-6.9-15.4-15.4-15.4c-7.4,0-13.7,5.2-15.1,12.4c-0.6,3.2,1.4,6.2,4.6,6.8c3.2,0.6,6.2-1.4,6.8-4.6
			c0.3-1.8,1.9-3,3.7-3c2,0,3.6,1.5,3.8,3.5c0.2,2.1-2,4.9-3.1,6.5c-5.9,8.5-9.5,13.1-11.3,15.6c-2.4,3.2-3.9,5.1-2.9,8.2
			c0.6,1.8,2,3.3,3.9,3.9c0.8,0.3,1.4,0.5,8.8,0.5c2.9,0,6.8,0,12.2-0.1c3.2,0,5.8-2.7,5.7-5.9C417.8,212.4,415.2,209.8,412,209.8
			L412,209.8z"/>
	</g>
</g>
</svg>
