<?xml version="1.0" encoding="utf-8"?>
<!-- Generator: Adobe Illustrator 24.0.1, SVG Export Plug-In . SVG Version: 6.00 Build 0)  -->
<svg version="1.1" id="Layer_1" xmlns="http://www.w3.org/2000/svg" xmlns:xlink="http://www.w3.org/1999/xlink" x="0px" y="0px"
	 viewBox="0 0 512 512" style="enable-background:new 0 0 512 512;" xml:space="preserve">
<style type="text/css">
	.st0{display:none;}
	.st1{display:inline;fill:#200A7F;stroke:#18E5EA;stroke-width:20;stroke-miterlimit:10;}
	.st2{display:inline;fill:#EF0B79;}
	.st3{display:inline;fill:#18E5EA;}
	.st4{display:inline;}
	.st5{fill:#E9F21C;}
	.st6{display:inline;fill:none;}
	.st7{display:inline;fill:#EF3A24;}
	.st8{font-family:'MyriadPro-Regular';}
	.st9{font-size:250px;}
	.st10{display:inline;fill:#FFFFFF;}
	.st11{fill:#C4C6C8;}
	.st12{fill:url(#SVGID_1_);}
	.st13{fill:none;stroke:#E8E8E8;stroke-width:3;stroke-miterlimit:10;}
	.st14{fill:none;}
	.st15{fill:#FFFFFF;}
	.st16{font-family:'ArialMT';}
	.st17{font-size:180px;}
	.st18{fill:none;stroke:#000000;stroke-miterlimit:10;}
	.st19{fill:url(#SVGID_2_);stroke:#000000;stroke-miterlimit:10;}
	.st20{fill:url(#SVGID_3_);stroke:#000000;stroke-miterlimit:10;}
	.st21{fill:url(#SVGID_4_);stroke:#000000;stroke-miterlimit:10;}
	.st22{fill:url(#SVGID_5_);stroke:#000000;stroke-miterlimit:10;}
	.st23{fill:url(#SVGID_6_);stroke:#000000;stroke-miterlimit:10;}
</style>
<g id="Layer_3" class="st0">
	<path class="st1" d="M401.1,212.2c5.1,15.3,7.9,31.7,7.9,48.8c0,85.3-69.2,154.5-154.5,154.5S100,346.3,100,261
		s69.2-154.5,154.5-154.5c51.2,0,96.6,24.9,124.7,63.3"/>
	<path class="st2" d="M333.4,255.2c0,4.2-3.3,7.7-7.4,7.7H174.9c-4.1,0-7.4-3.4-7.4-7.7l0,0c0-4.2,3.3-7.7,7.4-7.7H326
		C330.1,247.5,333.4,250.9,333.4,255.2L333.4,255.2z"/>
	<path class="st2" d="M333.4,284.8c0,4.2-3.3,7.6-7.4,7.6H174.9c-4.1,0-7.4-3.4-7.4-7.6l0,0c0-4.2,3.3-7.6,7.4-7.6H326
		C330.1,277.1,333.4,280.6,333.4,284.8L333.4,284.8z"/>
	<path class="st2" d="M333.4,313c0,4.2-3.3,7.7-7.4,7.7H174.9c-4.1,0-7.4-3.4-7.4-7.7l0,0c0-4.2,3.3-7.6,7.4-7.6H326
		C330.1,305.4,333.4,308.8,333.4,313L333.4,313z"/>
	<path class="st2" d="M333.4,338.4c0,4.2-3.3,7.7-7.4,7.7H174.9c-4.1,0-7.4-3.4-7.4-7.7l0,0c0-4.2,3.3-7.6,7.4-7.6H326
		C330.1,330.7,333.4,334.1,333.4,338.4L333.4,338.4z"/>
	<polygon class="st3" points="395,191.5 320.2,165.2 380.4,113.5 	"/>
	<g class="st4">
		<g>
			<g>
				<path class="st5" d="M241.5,239.2c-2.3,0-4.4-1.1-5.8-2.9l-18.8-24.8c-2.4-3.2-1.8-7.8,1.4-10.3c3.2-2.4,7.8-1.8,10.3,1.4
					l12.3,16.3l31-49.8c2.1-3.4,6.6-4.5,10.1-2.3c3.4,2.1,4.5,6.6,2.3,10.1l-36.7,58.9c-1.3,2-3.5,3.3-5.9,3.4
					C241.7,239.2,241.6,239.2,241.5,239.2z"/>
			</g>
		</g>
	</g>
</g>
<g id="Layer_2_2_" class="st0">
	<rect x="121" y="171.5" class="st6" width="298" height="251"/>
	<text transform="matrix(1 0 0 1 121 348.9979)" class="st7 st8 st9">24</text>
	<circle class="st10" cx="138.3" cy="91.8" r="17.3"/>
	<circle class="st10" cx="185.3" cy="91.8" r="17.3"/>
	<circle class="st10" cx="232.3" cy="91.8" r="17.3"/>
	<circle class="st10" cx="278.3" cy="91.8" r="17.3"/>
	<circle class="st10" cx="323.3" cy="91.8" r="17.3"/>
	<circle class="st10" cx="368.3" cy="91.8" r="17.3"/>
</g>
<g>
	<path class="st11" d="M350.3,54.5H161.7c-17.9,0-34.5,9.6-43.4,25.1L24,242.9c-9,15.5-9,34.6,0,50.2l94.3,163.3
		c9,15.5,25.5,25.1,43.4,25.1h188.5c17.9,0,34.5-9.6,43.4-25.1L488,293.1c9-15.5,9-34.6,0-50.2L393.7,79.6
		C384.8,64.1,368.2,54.5,350.3,54.5z"/>
</g>
<g>
	<radialGradient id="SVGID_1_" cx="256.891" cy="254" r="226.4345" gradientUnits="userSpaceOnUse">
		<stop  offset="0" style="stop-color:#C18F73"/>
		<stop  offset="0.5056" style="stop-color:#B57E5C"/>
		<stop  offset="1" style="stop-color:#78533B"/>
	</radialGradient>
	<path class="st12" d="M351.2,40.5H162.6c-17.9,0-34.5,9.6-43.4,25.1L24.9,228.9c-9,15.5-9,34.6,0,50.2l94.3,163.3
		c9,15.5,25.5,25.1,43.4,25.1h188.5c17.9,0,34.5-9.6,43.4-25.1l94.3-163.3c9-15.5,9-34.6,0-50.2L394.6,65.6
		C385.6,50.1,369.1,40.5,351.2,40.5z"/>
	<path class="st13" d="M351.2,40.5H162.6c-17.9,0-34.5,9.6-43.4,25.1L24.9,228.9c-9,15.5-9,34.6,0,50.2l94.3,163.3
		c9,15.5,25.5,25.1,43.4,25.1h188.5c17.9,0,34.5-9.6,43.4-25.1l94.3-163.3c9-15.5,9-34.6,0-50.2L394.6,65.6
		C385.6,50.1,369.1,40.5,351.2,40.5z"/>
</g>
<g id="Layer_2">
	<g id="Layer_3_1_">
		<g>
			<g>
				<rect x="195.5" y="188.7" class="st14" width="195" height="221.6"/>
				<text transform="matrix(1 0 0 1 195.4895 317.5704)" class="st15 st16 st17">A</text>
				<text transform="matrix(1 0 0 1 195.4895 317.5704)" class="st18 st16 st17">A</text>
			</g>
		</g>
	</g>
	
		<linearGradient id="SVGID_2_" gradientUnits="userSpaceOnUse" x1="171.877" y1="334.9403" x2="339.953" y2="334.9403" gradientTransform="matrix(1 0 0 -1 0 513.2912)">
		<stop  offset="0" style="stop-color:#FB6040"/>
		<stop  offset="0.2394" style="stop-color:#FB5D3E"/>
		<stop  offset="0.3924" style="stop-color:#FB5538"/>
		<stop  offset="0.5212" style="stop-color:#FC462F"/>
		<stop  offset="0.6365" style="stop-color:#FC3121"/>
		<stop  offset="0.742" style="stop-color:#FD160F"/>
		<stop  offset="0.8118" style="stop-color:#FE0000"/>
		<stop  offset="1" style="stop-color:#D50000"/>
	</linearGradient>
	<path class="st19" d="M177.8,182.5h156.3c3.3,0,5.9-1.9,5.9-4.1s-2.6-4.1-5.9-4.1H177.8c-3.3,0-5.9,1.9-5.9,4.1
		C171.9,180.6,174.5,182.5,177.8,182.5L177.8,182.5z"/>
	
		<linearGradient id="SVGID_3_" gradientUnits="userSpaceOnUse" x1="171.877" y1="280.3873" x2="339.953" y2="280.3873" gradientTransform="matrix(1 0 0 -1 0 513.2912)">
		<stop  offset="0" style="stop-color:#FB6040"/>
		<stop  offset="0.2394" style="stop-color:#FB5D3E"/>
		<stop  offset="0.3924" style="stop-color:#FB5538"/>
		<stop  offset="0.5212" style="stop-color:#FC462F"/>
		<stop  offset="0.6365" style="stop-color:#FC3121"/>
		<stop  offset="0.742" style="stop-color:#FD160F"/>
		<stop  offset="0.8118" style="stop-color:#FE0000"/>
		<stop  offset="1" style="stop-color:#D50000"/>
	</linearGradient>
	<path class="st20" d="M177.8,237h156.3c3.3,0,5.9-1.9,5.9-4.1s-2.6-4.1-5.9-4.1H177.8c-3.3,0-5.9,1.9-5.9,4.1
		C171.9,235.2,174.5,237,177.8,237L177.8,237z"/>
	
		<linearGradient id="SVGID_4_" gradientUnits="userSpaceOnUse" x1="171.877" y1="225.8333" x2="339.953" y2="225.8333" gradientTransform="matrix(1 0 0 -1 0 513.2912)">
		<stop  offset="0" style="stop-color:#FB6040"/>
		<stop  offset="0.2394" style="stop-color:#FB5D3E"/>
		<stop  offset="0.3924" style="stop-color:#FB5538"/>
		<stop  offset="0.5212" style="stop-color:#FC462F"/>
		<stop  offset="0.6365" style="stop-color:#FC3121"/>
		<stop  offset="0.742" style="stop-color:#FD160F"/>
		<stop  offset="0.8118" style="stop-color:#FE0000"/>
		<stop  offset="1" style="stop-color:#D50000"/>
	</linearGradient>
	<path class="st21" d="M177.8,291.6h156.3c3.3,0,5.9-1.9,5.9-4.1s-2.6-4.1-5.9-4.1H177.8c-3.3,0-5.9,1.9-5.9,4.1
		S174.5,291.6,177.8,291.6L177.8,291.6z"/>
	
		<linearGradient id="SVGID_5_" gradientUnits="userSpaceOnUse" x1="171.877" y1="171.2758" x2="339.953" y2="171.2758" gradientTransform="matrix(1 0 0 -1 0 513.2912)">
		<stop  offset="0" style="stop-color:#FB6040"/>
		<stop  offset="0.2394" style="stop-color:#FB5D3E"/>
		<stop  offset="0.3924" style="stop-color:#FB5538"/>
		<stop  offset="0.5212" style="stop-color:#FC462F"/>
		<stop  offset="0.6365" style="stop-color:#FC3121"/>
		<stop  offset="0.742" style="stop-color:#FD160F"/>
		<stop  offset="0.8118" style="stop-color:#FE0000"/>
		<stop  offset="1" style="stop-color:#D50000"/>
	</linearGradient>
	<path class="st22" d="M177.8,346.2h156.3c3.3,0,5.9-1.9,5.9-4.1c0-2.3-2.6-4.1-5.9-4.1H177.8c-3.3,0-5.9,1.9-5.9,4.1
		C171.9,344.3,174.5,346.2,177.8,346.2L177.8,346.2z"/>
	
		<linearGradient id="SVGID_6_" gradientUnits="userSpaceOnUse" x1="137.763" y1="254.5858" x2="376.019" y2="254.5858" gradientTransform="matrix(1 0 0 -1 0 513.2912)">
		<stop  offset="0" style="stop-color:#FB6040"/>
		<stop  offset="0.2394" style="stop-color:#FB5D3E"/>
		<stop  offset="0.3924" style="stop-color:#FB5538"/>
		<stop  offset="0.5212" style="stop-color:#FC462F"/>
		<stop  offset="0.6365" style="stop-color:#FC3121"/>
		<stop  offset="0.742" style="stop-color:#FD160F"/>
		<stop  offset="0.8118" style="stop-color:#FE0000"/>
		<stop  offset="1" style="stop-color:#D50000"/>
	</linearGradient>
	<path class="st23" d="M371.9,118.7h-230c-2.3,0-4.1,1.9-4.1,4.1v271.8c0,2.3,1.9,4.1,4.1,4.1h230c2.3,0,4.1-1.9,4.1-4.1V122.8
		C376,120.5,374.2,118.7,371.9,118.7C371.9,118.7,371.9,118.7,371.9,118.7z M367.7,390.5H146V126.9h221.7L367.7,390.5z"/>
</g>
</svg>
