<?xml version="1.0" encoding="utf-8"?>
<!-- Generator: Adobe Illustrator 24.0.1, SVG Export Plug-In . SVG Version: 6.00 Build 0)  -->
<svg version="1.1" id="Layer_1" xmlns="http://www.w3.org/2000/svg" xmlns:xlink="http://www.w3.org/1999/xlink" x="0px" y="0px"
	 viewBox="0 0 512 512" style="enable-background:new 0 0 512 512;" xml:space="preserve">
<style type="text/css">
	.st0{display:none;}
	.st1{display:inline;fill:#200A7F;stroke:#18E5EA;stroke-width:20;stroke-miterlimit:10;}
	.st2{display:inline;fill:#EF0B79;}
	.st3{display:inline;fill:#18E5EA;}
	.st4{display:inline;}
	.st5{fill:#E9F21C;}
	.st6{display:inline;fill:none;}
	.st7{display:inline;fill:#EF3A24;}
	.st8{font-family:'MyriadPro-Regular';}
	.st9{font-size:250px;}
	.st10{display:inline;fill:#FFFFFF;}
	.st11{fill:#C4C6C8;}
	.st12{fill:url(#SVGID_1_);}
	.st13{fill:url(#SVGID_2_);stroke:#E8E8E8;stroke-width:3;stroke-miterlimit:10;}
	.st14{fill:#51AE26;}
	.st15{fill:#25ADCE;}
	.st16{fill:url(#SVGID_3_);}
	.st17{fill:#F1248F;}
	.st18{fill:url(#SVGID_4_);}
	.st19{fill:url(#SVGID_5_);}
	.st20{fill:#A76D10;}
	.st21{fill:url(#SVGID_6_);}
	.st22{fill:url(#SVGID_7_);}
	.st23{fill:#FFFFFF;}
</style>
<g id="Layer_3" class="st0">
	<path class="st1" d="M401.1,212.2c5.1,15.3,7.9,31.7,7.9,48.8c0,85.3-69.2,154.5-154.5,154.5S100,346.3,100,261
		s69.2-154.5,154.5-154.5c51.2,0,96.6,24.9,124.7,63.3"/>
	<path class="st2" d="M333.4,255.2c0,4.2-3.3,7.7-7.4,7.7H174.9c-4.1,0-7.4-3.4-7.4-7.7l0,0c0-4.2,3.3-7.7,7.4-7.7H326
		C330.1,247.5,333.4,250.9,333.4,255.2L333.4,255.2z"/>
	<path class="st2" d="M333.4,284.8c0,4.2-3.3,7.6-7.4,7.6H174.9c-4.1,0-7.4-3.4-7.4-7.6l0,0c0-4.2,3.3-7.6,7.4-7.6H326
		C330.1,277.1,333.4,280.6,333.4,284.8L333.4,284.8z"/>
	<path class="st2" d="M333.4,313c0,4.2-3.3,7.7-7.4,7.7H174.9c-4.1,0-7.4-3.4-7.4-7.7l0,0c0-4.2,3.3-7.6,7.4-7.6H326
		C330.1,305.4,333.4,308.8,333.4,313L333.4,313z"/>
	<path class="st2" d="M333.4,338.4c0,4.2-3.3,7.7-7.4,7.7H174.9c-4.1,0-7.4-3.4-7.4-7.7l0,0c0-4.2,3.3-7.6,7.4-7.6H326
		C330.1,330.7,333.4,334.1,333.4,338.4L333.4,338.4z"/>
	<polygon class="st3" points="395,191.5 320.2,165.2 380.4,113.5 	"/>
	<g class="st4">
		<g>
			<g>
				<path class="st5" d="M241.5,239.2c-2.3,0-4.4-1.1-5.8-2.9l-18.8-24.8c-2.4-3.2-1.8-7.8,1.4-10.3c3.2-2.4,7.8-1.8,10.3,1.4
					l12.3,16.3l31-49.8c2.1-3.4,6.6-4.5,10.1-2.3c3.4,2.1,4.5,6.6,2.3,10.1l-36.7,58.9c-1.3,2-3.5,3.3-5.9,3.4
					C241.7,239.2,241.6,239.2,241.5,239.2z"/>
			</g>
		</g>
	</g>
</g>
<g id="Layer_2_2_" class="st0">
	<rect x="121" y="171.5" class="st6" width="298" height="251"/>
	<text transform="matrix(1 0 0 1 121 348.9979)" class="st7 st8 st9">24</text>
	<circle class="st10" cx="138.3" cy="91.8" r="17.3"/>
	<circle class="st10" cx="185.3" cy="91.8" r="17.3"/>
	<circle class="st10" cx="232.3" cy="91.8" r="17.3"/>
	<circle class="st10" cx="278.3" cy="91.8" r="17.3"/>
	<circle class="st10" cx="323.3" cy="91.8" r="17.3"/>
	<circle class="st10" cx="368.3" cy="91.8" r="17.3"/>
</g>
<g>
	<path class="st11" d="M350.3,54.5H161.7c-17.9,0-34.5,9.6-43.4,25.1L24,242.9c-9,15.5-9,34.6,0,50.2l94.3,163.3
		c9,15.5,25.5,25.1,43.4,25.1h188.5c17.9,0,34.5-9.6,43.4-25.1L488,293.1c9-15.5,9-34.6,0-50.2L393.7,79.6
		C384.8,64.1,368.2,54.5,350.3,54.5z"/>
</g>
<g>
	
		<radialGradient id="SVGID_1_" cx="256.8813" cy="5409.9502" r="226.4908" gradientTransform="matrix(1 0 0 1 0 -5156.0005)" gradientUnits="userSpaceOnUse">
		<stop  offset="0" style="stop-color:#F37F7B"/>
		<stop  offset="0.5" style="stop-color:#ED3D57"/>
		<stop  offset="1" style="stop-color:#DD1E47"/>
	</radialGradient>
	<path class="st12" d="M491.1,274.8c-0.7,1.4-1.4,2.9-2.2,4.3l-94.3,163.3c-0.5,1-1.1,1.9-1.7,2.8c-8.3,12.4-21.7,20.5-36.5,22
		c-1.7,0.2-3.4,0.3-5.2,0.3H162.6c-17.9,0-34.5-9.6-43.5-25.1l-15.3-26.6l-70.4-122L24.9,279c-9-15.5-9-34.6,0-50.2l6.5-11.3
		l22.3-38.6l65.5-113.4c9-15.5,25.5-25.1,43.5-25.1h188.5c17.9,0,34.5,9.6,43.5,25.1l20.7,35.9l6.3,10.9l25.3,43.8l2.4,4.2l5.5,9.6
		l7,12l27.1,47c1.2,2,2.2,4.1,3,6.2C497.1,247.9,496.8,262.3,491.1,274.8z"/>
	
		<radialGradient id="SVGID_2_" cx="256.8813" cy="259.3414" r="226.4908" gradientTransform="matrix(1 0 0 -1 0 513.2912)" gradientUnits="userSpaceOnUse">
		<stop  offset="0" style="stop-color:#F37F7B"/>
		<stop  offset="0.5" style="stop-color:#ED3D57"/>
		<stop  offset="1" style="stop-color:#DD1E47"/>
	</radialGradient>
	<path class="st13" d="M491.1,274.8c-0.7,1.4-1.4,2.9-2.2,4.3l-94.3,163.3c-0.5,1-1.1,1.9-1.7,2.8c-8.3,12.4-21.7,20.5-36.5,22
		c-1.7,0.2-3.4,0.3-5.2,0.3H162.6c-17.9,0-34.5-9.6-43.5-25.1l-15.3-26.6l-70.4-122L24.9,279c-9-15.5-9-34.6,0-50.2l6.5-11.3
		l22.3-38.6l65.5-113.4c9-15.5,25.5-25.1,43.5-25.1h188.5c17.9,0,34.5,9.6,43.5,25.1l20.7,35.9l6.3,10.9l25.3,43.8l2.4,4.2l5.5,9.6
		l7,12l27.1,47c1.2,2,2.2,4.1,3,6.2C497.1,247.9,496.8,262.3,491.1,274.8z"/>
</g>
<g id="Layer_3_1_">
	<rect x="126.7" y="128.9" class="st14" width="80.6" height="83.7"/>
	<rect x="214.5" y="128.9" class="st15" width="77.4" height="83.7"/>
	
		<linearGradient id="SVGID_3_" gradientUnits="userSpaceOnUse" x1="298.2273" y1="342.5532" x2="380.8733" y2="342.5532" gradientTransform="matrix(1 0 0 -1 0 513.2912)">
		<stop  offset="5.600000e-03" style="stop-color:#F6602B"/>
		<stop  offset="0.5891" style="stop-color:#F79A27"/>
		<stop  offset="1" style="stop-color:#F8C524"/>
	</linearGradient>
	<rect x="298.2" y="128.9" class="st16" width="82.6" height="83.7"/>
	<rect x="127.7" y="214.2" class="st17" width="80.6" height="83.7"/>
	
		<linearGradient id="SVGID_4_" gradientUnits="userSpaceOnUse" x1="215.5803" y1="257.2912" x2="292.9962" y2="257.2912" gradientTransform="matrix(1 0 0 -1 0 513.2912)">
		<stop  offset="0" style="stop-color:#71C7BC"/>
		<stop  offset="0.116" style="stop-color:#5FC0B6"/>
		<stop  offset="0.5" style="stop-color:#28A9A2"/>
		<stop  offset="0.6818" style="stop-color:#18A193"/>
		<stop  offset="1" style="stop-color:#01947C"/>
	</linearGradient>
	<rect x="215.6" y="214.2" class="st18" width="77.4" height="83.7"/>
	
		<linearGradient id="SVGID_5_" gradientUnits="userSpaceOnUse" x1="299.2733" y1="257.2912" x2="381.9193" y2="257.2912" gradientTransform="matrix(1 0 0 -1 0 513.2912)">
		<stop  offset="0" style="stop-color:#FCF7D9"/>
		<stop  offset="0" style="stop-color:#FDEEA5"/>
		<stop  offset="0" style="stop-color:#FEE56E"/>
		<stop  offset="0.5506" style="stop-color:#FFCF00"/>
		<stop  offset="0.7073" style="stop-color:#F3C002"/>
		<stop  offset="1" style="stop-color:#E0A905"/>
	</linearGradient>
	<rect x="299.3" y="214.2" class="st19" width="82.6" height="83.7"/>
	<rect x="126.1" y="303.1" class="st20" width="80.6" height="83.7"/>
	
		<linearGradient id="SVGID_6_" gradientUnits="userSpaceOnUse" x1="214.0113" y1="168.3682" x2="291.4273" y2="168.3682" gradientTransform="matrix(1 0 0 -1 0 513.2912)">
		<stop  offset="0" style="stop-color:#D0DDEC"/>
		<stop  offset="0.5" style="stop-color:#B1C8E1"/>
		<stop  offset="0.5583" style="stop-color:#ADC6E0"/>
		<stop  offset="1" style="stop-color:#96B5D6"/>
	</linearGradient>
	<rect x="214" y="303.1" class="st21" width="77.4" height="83.7"/>
	
		<linearGradient id="SVGID_7_" gradientUnits="userSpaceOnUse" x1="297.7032" y1="168.3682" x2="380.3503" y2="168.3682" gradientTransform="matrix(1 0 0 -1 0 513.2912)">
		<stop  offset="0" style="stop-color:#FB8160"/>
		<stop  offset="0.1564" style="stop-color:#FC664A"/>
		<stop  offset="0.5" style="stop-color:#FD2F1B"/>
		<stop  offset="0.7306" style="stop-color:#E81710"/>
		<stop  offset="1" style="stop-color:#D30006"/>
	</linearGradient>
	<rect x="297.7" y="303.1" class="st22" width="82.6" height="83.7"/>
</g>
<g>
	<g>
		<path class="st23" d="M120.9,120v272h272V120H120.9z M206.2,376.1h-69.4v-69.4h69.4V376.1z M206.2,290.7h-69.4v-69.4h69.4V290.7z
			 M206.2,205.4h-69.4v-69.4h69.4V205.4z M291.6,376.1h-69.4v-69.4h69.4V376.1z M291.6,290.7h-69.4v-69.4h69.4V290.7z M291.6,205.4
			h-69.4v-69.4h69.4V205.4z M376.9,376.1h-69.4v-69.4h69.4V376.1z M376.9,290.7h-69.4v-69.4h69.4V290.7z M376.9,205.4h-69.4v-69.4
			h69.4V205.4z"/>
	</g>
</g>
</svg>
