<?xml version="1.0" encoding="utf-8"?>
<!-- Generator: Adobe Illustrator 24.0.1, SVG Export Plug-In . SVG Version: 6.00 Build 0)  -->
<svg version="1.1" id="Layer_1" xmlns="http://www.w3.org/2000/svg" xmlns:xlink="http://www.w3.org/1999/xlink" x="0px" y="0px"
	 viewBox="0 0 512 512" style="enable-background:new 0 0 512 512;" xml:space="preserve">
<style type="text/css">
	.st0{display:none;}
	.st1{display:inline;fill:#200A7F;stroke:#18E5EA;stroke-width:20;stroke-miterlimit:10;}
	.st2{display:inline;fill:#EF0B79;}
	.st3{display:inline;fill:#18E5EA;}
	.st4{display:inline;}
	.st5{fill:#E9F21C;}
	.st6{display:inline;fill:none;}
	.st7{display:inline;fill:#EF3A24;}
	.st8{font-family:'MyriadPro-Regular';}
	.st9{font-size:250px;}
	.st10{display:inline;fill:#FFFFFF;}
	.st11{fill:#C4C6C8;}
	.st12{fill:url(#SVGID_1_);}
	.st13{fill:url(#SVGID_2_);stroke:#E8E8E8;stroke-width:3;stroke-miterlimit:10;}
	.st14{fill:url(#SVGID_3_);}
	.st15{fill:url(#SVGID_4_);}
	.st16{fill:url(#SVGID_5_);}
	.st17{fill:#FF5364;}
	.st18{fill:#E57E25;}
	.st19{fill:#285680;}
</style>
<g id="Layer_3" class="st0">
	<path class="st1" d="M401.1,212.2c5.1,15.3,7.9,31.7,7.9,48.8c0,85.3-69.2,154.5-154.5,154.5S100,346.3,100,261
		s69.2-154.5,154.5-154.5c51.2,0,96.6,24.9,124.7,63.3"/>
	<path class="st2" d="M333.4,255.2c0,4.2-3.3,7.7-7.4,7.7H174.9c-4.1,0-7.4-3.4-7.4-7.7l0,0c0-4.2,3.3-7.7,7.4-7.7H326
		C330.1,247.5,333.4,250.9,333.4,255.2L333.4,255.2z"/>
	<path class="st2" d="M333.4,284.8c0,4.2-3.3,7.6-7.4,7.6H174.9c-4.1,0-7.4-3.4-7.4-7.6l0,0c0-4.2,3.3-7.6,7.4-7.6H326
		C330.1,277.1,333.4,280.6,333.4,284.8L333.4,284.8z"/>
	<path class="st2" d="M333.4,313c0,4.2-3.3,7.7-7.4,7.7H174.9c-4.1,0-7.4-3.4-7.4-7.7l0,0c0-4.2,3.3-7.6,7.4-7.6H326
		C330.1,305.4,333.4,308.8,333.4,313L333.4,313z"/>
	<path class="st2" d="M333.4,338.4c0,4.2-3.3,7.7-7.4,7.7H174.9c-4.1,0-7.4-3.4-7.4-7.7l0,0c0-4.2,3.3-7.6,7.4-7.6H326
		C330.1,330.7,333.4,334.1,333.4,338.4L333.4,338.4z"/>
	<polygon class="st3" points="395,191.5 320.2,165.2 380.4,113.5 	"/>
	<g class="st4">
		<g>
			<g>
				<path class="st5" d="M241.5,239.2c-2.3,0-4.4-1.1-5.8-2.9l-18.8-24.8c-2.4-3.2-1.8-7.8,1.4-10.3c3.2-2.4,7.8-1.8,10.3,1.4
					l12.3,16.3l31-49.8c2.1-3.4,6.6-4.5,10.1-2.3c3.4,2.1,4.5,6.6,2.3,10.1l-36.7,58.9c-1.3,2-3.5,3.3-5.9,3.4
					C241.7,239.2,241.6,239.2,241.5,239.2z"/>
			</g>
		</g>
	</g>
</g>
<g id="Layer_2_2_" class="st0">
	<rect x="121" y="171.5" class="st6" width="298" height="251"/>
	<text transform="matrix(1 0 0 1 121 348.9979)" class="st7 st8 st9">24</text>
	<circle class="st10" cx="138.3" cy="91.8" r="17.3"/>
	<circle class="st10" cx="185.3" cy="91.8" r="17.3"/>
	<circle class="st10" cx="232.3" cy="91.8" r="17.3"/>
	<circle class="st10" cx="278.3" cy="91.8" r="17.3"/>
	<circle class="st10" cx="323.3" cy="91.8" r="17.3"/>
	<circle class="st10" cx="368.3" cy="91.8" r="17.3"/>
</g>
<g>
	<path class="st11" d="M350.3,54.5H161.7c-17.9,0-34.5,9.6-43.4,25.1L24,242.9c-9,15.5-9,34.6,0,50.2l94.3,163.3
		c9,15.5,25.5,25.1,43.4,25.1h188.5c17.9,0,34.5-9.6,43.4-25.1L488,293.1c9-15.5,9-34.6,0-50.2L393.7,79.6
		C384.8,64.1,368.2,54.5,350.3,54.5z"/>
</g>
<g>
	
		<linearGradient id="SVGID_1_" gradientUnits="userSpaceOnUse" x1="18.15" y1="-79.3412" x2="495.6125" y2="-79.3412" gradientTransform="matrix(1 0 0 1 0 333.2912)">
		<stop  offset="0" style="stop-color:#2BC4F3"/>
		<stop  offset="0.5" style="stop-color:#00AEEE"/>
		<stop  offset="1" style="stop-color:#0095DA"/>
	</linearGradient>
	<path class="st12" d="M491.1,274.8c-0.7,1.4-1.4,2.9-2.2,4.3l-94.3,163.3c-0.5,1-1.1,1.9-1.7,2.8c-8.3,12.4-21.7,20.5-36.5,22
		c-1.7,0.2-3.4,0.3-5.2,0.3H162.6c-17.9,0-34.5-9.6-43.5-25.1l-15.3-26.6l-70.4-122L24.9,279c-9-15.5-9-34.6,0-50.2l6.5-11.3
		l22.3-38.6l65.5-113.4c9-15.5,25.5-25.1,43.5-25.1h188.5c17.9,0,34.5,9.6,43.5,25.1l20.7,35.9l6.3,10.9l25.3,43.8l2.4,4.2l5.5,9.6
		l7,12l27.1,47c1.2,2,2.2,4.1,3,6.2C497.1,247.9,496.8,262.3,491.1,274.8z"/>
	
		<linearGradient id="SVGID_2_" gradientUnits="userSpaceOnUse" x1="18.15" y1="258.05" x2="495.6125" y2="258.05" gradientTransform="matrix(1 0 0 -1 0 512)">
		<stop  offset="0" style="stop-color:#2BC4F3"/>
		<stop  offset="0.5" style="stop-color:#00AEEE"/>
		<stop  offset="1" style="stop-color:#0095DA"/>
	</linearGradient>
	<path class="st13" d="M491.1,274.8c-0.7,1.4-1.4,2.9-2.2,4.3l-94.3,163.3c-0.5,1-1.1,1.9-1.7,2.8c-8.3,12.4-21.7,20.5-36.5,22
		c-1.7,0.2-3.4,0.3-5.2,0.3H162.6c-17.9,0-34.5-9.6-43.5-25.1l-15.3-26.6l-70.4-122L24.9,279c-9-15.5-9-34.6,0-50.2l6.5-11.3
		l22.3-38.6l65.5-113.4c9-15.5,25.5-25.1,43.5-25.1h188.5c17.9,0,34.5,9.6,43.5,25.1l20.7,35.9l6.3,10.9l25.3,43.8l2.4,4.2l5.5,9.6
		l7,12l27.1,47c1.2,2,2.2,4.1,3,6.2C497.1,247.9,496.8,262.3,491.1,274.8z"/>
</g>
<g>
	
		<radialGradient id="SVGID_3_" cx="255.05" cy="-79.1838" r="109.3262" gradientTransform="matrix(1 0 0 1 0 333.2912)" gradientUnits="userSpaceOnUse">
		<stop  offset="0" style="stop-color:#FEFE93"/>
		<stop  offset="0.5" style="stop-color:#FEFE00"/>
		<stop  offset="1" style="stop-color:#FEDD00"/>
	</radialGradient>
	<path class="st14" d="M194.5,382.4c-4.1,0.1-8.2-1-11.8-3c-13.1-7.5-17.1-28-11.4-57.6c7.5-33.2,20.2-65,37.8-94.2
		c16.5-29.8,37.7-56.7,62.7-79.8c22.8-19.8,42.5-26.5,55.6-19c13.1,7.6,17.1,28,11.4,57.6c-7.5,33.2-20.3,65-37.8,94.2
		c-16.5,29.8-37.7,56.7-62.7,79.8C221.6,374.9,206.5,382.4,194.5,382.4z M315.3,135.3c-9.4,0-22.4,6.8-37.2,19.7
		c-24.2,22.4-44.7,48.5-60.7,77.3c-17,28.3-29.4,59.1-36.6,91.2c-4.8,24.9-2.4,42.2,6.7,47.4s25.3-1.3,44.4-17.9
		c24.2-22.4,44.7-48.5,60.7-77.3c17-28.3,29.4-59.1,36.6-91.2c4.8-24.9,2.4-42.2-6.8-47.4C320.3,135.9,317.8,135.3,315.3,135.3z"/>
	
		<radialGradient id="SVGID_4_" cx="255.0255" cy="-79.1912" r="109.3122" gradientTransform="matrix(1 0 0 1 0 333.2912)" gradientUnits="userSpaceOnUse">
		<stop  offset="0" style="stop-color:#FEFE93"/>
		<stop  offset="0.5" style="stop-color:#FEFE00"/>
		<stop  offset="1" style="stop-color:#FEDD00"/>
	</radialGradient>
	<path class="st15" d="M335.9,370.6c-2,3.6-5,6.6-8.5,8.8c-13.1,7.5-32.8,0.8-55.6-19c-25-23.1-46.2-50-62.7-79.8
		c-17.5-29.2-30.3-61-37.8-94.2c-5.7-29.6-1.7-50.1,11.4-57.6s32.8-0.8,55.6,19c25,23.1,46.2,50,62.7,79.8
		c17.5,29.2,30.3,61,37.8,94.2C342.9,343.4,341.9,360.2,335.9,370.6z M182.3,142.5c-4.7,8.1-5.3,22.8-1.6,42
		c7.3,32.2,19.7,62.9,36.6,91.2c16,28.8,36.5,54.9,60.7,77.3c19.1,16.6,35.3,23.1,44.4,17.9s11.6-22.5,6.8-47.4
		c-7.3-32.2-19.7-62.9-36.6-91.2c-16-28.8-36.5-55-60.7-77.3c-19.1-16.6-35.3-23.1-44.4-17.9C185.3,138.4,183.5,140.3,182.3,142.5z
		 M213.2,278.2L213.2,278.2L213.2,278.2z"/>
	
		<radialGradient id="SVGID_5_" cx="255" cy="-79.1912" r="109.0021" gradientTransform="matrix(1 0 0 1 0 333.2912)" gradientUnits="userSpaceOnUse">
		<stop  offset="0" style="stop-color:#FEFE93"/>
		<stop  offset="0.5" style="stop-color:#FEFE00"/>
		<stop  offset="1" style="stop-color:#FEDD00"/>
	</radialGradient>
	<path class="st16" d="M396.4,242.3c2.1,3.6,3.3,7.6,3.3,11.8c0,15.1-15.7,28.8-44.2,38.7c-32.5,10.1-66.4,15-100.5,14.4
		c-34,0.6-67.9-4.3-100.5-14.4c-28.5-9.8-44.2-23.6-44.2-38.7c0-15.1,15.7-28.8,44.2-38.7c32.5-10.1,66.4-15,100.5-14.4
		c34-0.6,68,4.3,100.5,14.4C376.3,222.6,390.4,231.9,396.4,242.3z M122.1,261.2c4.7,8.1,17.1,16,35.6,22.4
		c31.5,9.8,64.3,14.4,97.3,13.9c33,0.6,65.8-4.1,97.3-13.9c24-8.3,37.7-19,37.7-29.5s-13.7-21.3-37.7-29.5
		c-31.5-9.8-64.3-14.4-97.3-13.9c-33-0.6-65.8,4.1-97.3,13.9c-24,8.3-37.7,19-37.7,29.5C120,256.6,120.7,259,122.1,261.2z
		 M255,302.3L255,302.3L255,302.3z"/>
	<circle class="st17" cx="173" cy="172.1" r="19.3"/>
	<circle class="st18" cx="365.9" cy="225.1" r="19.3"/>
	<circle class="st17" cx="283.9" cy="365" r="19.3"/>
	<circle class="st19" cx="255" cy="254.1" r="24.1"/>
</g>
</svg>
