<?xml version="1.0" encoding="utf-8"?>
<!-- Generator: Adobe Illustrator 24.0.1, SVG Export Plug-In . SVG Version: 6.00 Build 0)  -->
<svg version="1.1" id="Layer_1" xmlns="http://www.w3.org/2000/svg" xmlns:xlink="http://www.w3.org/1999/xlink" x="0px" y="0px"
	 viewBox="0 0 512 512" style="enable-background:new 0 0 512 512;" xml:space="preserve">
<style type="text/css">
	.st0{display:none;}
	.st1{display:inline;fill:#200A7F;stroke:#18E5EA;stroke-width:20;stroke-miterlimit:10;}
	.st2{display:inline;fill:#EF0B79;}
	.st3{display:inline;fill:#18E5EA;}
	.st4{display:inline;}
	.st5{fill:#E9F21C;}
	.st6{display:inline;fill:none;}
	.st7{display:inline;fill:#EF3A24;}
	.st8{font-family:'MyriadPro-Regular';}
	.st9{font-size:250px;}
	.st10{display:inline;fill:#FFFFFF;}
	.st11{fill:#C4C6C8;}
	.st12{fill:url(#SVGID_1_);}
	.st13{fill:url(#SVGID_2_);stroke:#E8E8E8;stroke-width:3;stroke-miterlimit:10;}
	.st14{fill:#2BBDC4;}
	.st15{fill:#495D85;}
	.st16{fill:#E9EEF0;}
</style>
<g id="Layer_3" class="st0">
	<path class="st1" d="M401.1,212.2c5.1,15.3,7.9,31.7,7.9,48.8c0,85.3-69.2,154.5-154.5,154.5S100,346.3,100,261
		s69.2-154.5,154.5-154.5c51.2,0,96.6,24.9,124.7,63.3"/>
	<path class="st2" d="M333.4,255.2c0,4.2-3.3,7.7-7.4,7.7H174.9c-4.1,0-7.4-3.4-7.4-7.7l0,0c0-4.2,3.3-7.7,7.4-7.7H326
		C330.1,247.5,333.4,250.9,333.4,255.2L333.4,255.2z"/>
	<path class="st2" d="M333.4,284.8c0,4.2-3.3,7.6-7.4,7.6H174.9c-4.1,0-7.4-3.4-7.4-7.6l0,0c0-4.2,3.3-7.6,7.4-7.6H326
		C330.1,277.1,333.4,280.6,333.4,284.8L333.4,284.8z"/>
	<path class="st2" d="M333.4,313c0,4.2-3.3,7.7-7.4,7.7H174.9c-4.1,0-7.4-3.4-7.4-7.7l0,0c0-4.2,3.3-7.6,7.4-7.6H326
		C330.1,305.4,333.4,308.8,333.4,313L333.4,313z"/>
	<path class="st2" d="M333.4,338.4c0,4.2-3.3,7.7-7.4,7.7H174.9c-4.1,0-7.4-3.4-7.4-7.7l0,0c0-4.2,3.3-7.6,7.4-7.6H326
		C330.1,330.7,333.4,334.1,333.4,338.4L333.4,338.4z"/>
	<polygon class="st3" points="395,191.5 320.2,165.2 380.4,113.5 	"/>
	<g class="st4">
		<g>
			<g>
				<path class="st5" d="M241.5,239.2c-2.3,0-4.4-1.1-5.8-2.9l-18.8-24.8c-2.4-3.2-1.8-7.8,1.4-10.3c3.2-2.4,7.8-1.8,10.3,1.4
					l12.3,16.3l31-49.8c2.1-3.4,6.6-4.5,10.1-2.3c3.4,2.1,4.5,6.6,2.3,10.1l-36.7,58.9c-1.3,2-3.5,3.3-5.9,3.4
					C241.7,239.2,241.6,239.2,241.5,239.2z"/>
			</g>
		</g>
	</g>
</g>
<g id="Layer_2_2_" class="st0">
	<rect x="121" y="171.5" class="st6" width="298" height="251"/>
	<text transform="matrix(1 0 0 1 121 348.9979)" class="st7 st8 st9">24</text>
	<circle class="st10" cx="138.3" cy="91.8" r="17.3"/>
	<circle class="st10" cx="185.3" cy="91.8" r="17.3"/>
	<circle class="st10" cx="232.3" cy="91.8" r="17.3"/>
	<circle class="st10" cx="278.3" cy="91.8" r="17.3"/>
	<circle class="st10" cx="323.3" cy="91.8" r="17.3"/>
	<circle class="st10" cx="368.3" cy="91.8" r="17.3"/>
</g>
<g>
	<path class="st11" d="M350.3,54.5H161.7c-17.9,0-34.5,9.6-43.4,25.1L24,242.9c-9,15.5-9,34.6,0,50.2l94.3,163.3
		c9,15.5,25.5,25.1,43.4,25.1h188.5c17.9,0,34.5-9.6,43.4-25.1L488,293.1c9-15.5,9-34.6,0-50.2L393.7,79.6
		C384.8,64.1,368.2,54.5,350.3,54.5z"/>
</g>
<g>
	
		<radialGradient id="SVGID_1_" cx="256.8813" cy="5409.9502" r="226.4908" gradientTransform="matrix(1 0 0 1 0 -5156.0005)" gradientUnits="userSpaceOnUse">
		<stop  offset="5.618000e-03" style="stop-color:#E2E5F4"/>
		<stop  offset="0.4494" style="stop-color:#C7CEE9"/>
		<stop  offset="1" style="stop-color:#A8B5DC"/>
	</radialGradient>
	<path class="st12" d="M491.1,274.8c-0.7,1.4-1.4,2.9-2.2,4.3l-94.3,163.3c-0.5,1-1.1,1.9-1.7,2.8c-8.3,12.4-21.7,20.5-36.5,22
		c-1.7,0.2-3.4,0.3-5.2,0.3H162.6c-17.9,0-34.5-9.6-43.5-25.1l-15.3-26.6l-70.4-122L24.9,279c-9-15.5-9-34.6,0-50.2l6.5-11.3
		l22.3-38.6l65.5-113.4c9-15.5,25.5-25.1,43.5-25.1h188.5c17.9,0,34.5,9.6,43.5,25.1l20.7,35.9l6.3,10.9l25.3,43.8l2.4,4.2l5.5,9.6
		l7,12l27.1,47c1.2,2,2.2,4.1,3,6.2C497.1,247.9,496.8,262.3,491.1,274.8z"/>
	
		<radialGradient id="SVGID_2_" cx="256.8813" cy="259.3414" r="226.4908" gradientTransform="matrix(1 0 0 -1 0 513.2912)" gradientUnits="userSpaceOnUse">
		<stop  offset="5.618000e-03" style="stop-color:#E2E5F4"/>
		<stop  offset="0.4494" style="stop-color:#C7CEE9"/>
		<stop  offset="1" style="stop-color:#A8B5DC"/>
	</radialGradient>
	<path class="st13" d="M491.1,274.8c-0.7,1.4-1.4,2.9-2.2,4.3l-94.3,163.3c-0.5,1-1.1,1.9-1.7,2.8c-8.3,12.4-21.7,20.5-36.5,22
		c-1.7,0.2-3.4,0.3-5.2,0.3H162.6c-17.9,0-34.5-9.6-43.5-25.1l-15.3-26.6l-70.4-122L24.9,279c-9-15.5-9-34.6,0-50.2l6.5-11.3
		l22.3-38.6l65.5-113.4c9-15.5,25.5-25.1,43.5-25.1h188.5c17.9,0,34.5,9.6,43.5,25.1l20.7,35.9l6.3,10.9l25.3,43.8l2.4,4.2l5.5,9.6
		l7,12l27.1,47c1.2,2,2.2,4.1,3,6.2C497.1,247.9,496.8,262.3,491.1,274.8z"/>
</g>
<path class="st14" d="M419.7,234.8h-27.2c-6.7,0-12.4-5-13.1-11.6c-5.9-60.2-60.8-107.5-122.6-107.5s-116.7,47.2-122.6,107.5
	c-0.6,6.7-6.4,11.6-13.1,11.6H94c0-87.7,75.1-158.9,162.8-158.9C344.6,75.9,419.7,147.1,419.7,234.8z"/>
<path class="st15" d="M393.2,234.8h26.5c0,17.5-3.5,34.4-8.7,50.1v0c-0.3-0.1-0.6-0.2-0.9-0.3l-24.7-6.6
	C390.2,264.5,393.2,249.9,393.2,234.8z"/>
<path class="st16" d="M419.4,300.9l-17.1,63.9c-1.9,7.1-9.1,11.3-16.2,9.4l-25.6-6.9c0,0,23.9-86.6,24.9-89.3l24.7,6.6
	C417.4,286.7,421.3,294,419.4,300.9z"/>
<path class="st15" d="M318.7,369.8c-7.1-1.9-11.3-9.1-9.4-16.2l24-89.5c1.9-7.1,9.2-11.3,16.2-9.4l25.6,6.8
	c7.1,1.9,11.3,9.1,9.4,16.2l-2.2,8.1l-21.8,81.4c-1.9,7.1-9.1,11.3-16.2,9.4C335.3,374.3,327.7,372.2,318.7,369.8z"/>
<path class="st15" d="M169.5,376.7c-7.1,1.9-14.3-2.3-16.2-9.4l-24-89.5c-1.9-7.1,2.3-14.3,9.4-16.2l25.6-6.8
	c7.1-1.9,14.3,2.3,16.2,9.4l24,89.5c1.9,7.1-2.3,14.3-9.4,16.2C186.1,372.2,178.4,374.3,169.5,376.7z"/>
<path class="st16" d="M153.3,367.3l-25.6,6.9c-7.1,1.9-14.3-2.3-16.2-9.4l-17.1-63.9c-1.8-6.8,1.9-13.7,8.4-15.9
	c0.3-0.1,0.6-0.2,0.9-0.3l24.7-6.6C129.3,280.7,153.3,367.3,153.3,367.3z"/>
<path class="st15" d="M128.4,278l-24.7,6.6c-0.3,0.1-0.6,0.2-0.9,0.3v0c-5.2-15.8-8.7-32.6-8.7-50.1h26.5
	C120.5,249.9,123.5,264.5,128.4,278z"/>
<path d="M353.8,290.1c-3.5-0.9-7.2,1.1-8.1,4.7c-0.9,3.5,1.1,7.2,4.7,8.1c3.5,0.9,7.2-1.2,8.1-4.7
	C359.4,294.7,357.3,291.1,353.8,290.1z"/>
<path d="M163.4,302.9c3.5-0.9,5.6-4.6,4.7-8.1c-0.9-3.5-4.6-5.6-8.1-4.7c-3.5,0.9-5.6,4.6-4.7,8.1
	C156.3,301.8,159.9,303.9,163.4,302.9z"/>
<path d="M418.9,281.8c5-16.4,7.4-31.9,7.4-47c0-44-17.9-85.6-50.5-117.1C344,87,301.5,69.3,256.9,69.3
	c-91.3,0-169.5,73.9-169.5,165.5c0,15.2,2.4,30.6,7.4,47c-6.1,4.8-9,12.9-6.9,20.7l17.1,63.9c2.8,10.5,13.7,16.9,24.3,14.1l20.3-5.4
	c4.6,6.8,13.2,10.2,21.5,7.9l25.6-6.9c10.6-2.8,16.9-13.7,14-24.3l-24-89.5c-2.8-10.6-13.8-16.9-24.3-14l-25.6,6.9
	c-2.7,0.7-5.1,2-7.2,3.6c-1.3-6.2-2.1-12.3-2.5-18.3c7.3-2.3,12.8-8.7,13.6-16.7c5.5-56,57.5-101.5,116-101.5s110.5,45.5,116,101.5
	c0.8,8,6.3,14.4,13.6,16.7c-0.3,6-1.1,12.1-2.5,18.3c-2.1-1.6-4.5-2.9-7.2-3.6l-25.6-6.9c-10.6-2.8-21.5,3.5-24.3,14l-24,89.5
	c-2.8,10.6,3.5,21.5,14,24.3l25.6,6.9c8.3,2.2,16.8-1.2,21.5-7.9l20.3,5.4c10.7,2.9,21.5-3.6,24.3-14l17.1-63.9
	C427.9,294.7,425,286.6,418.9,281.8z M140.4,268l25.6-6.9c3.5-0.9,7.2,1.2,8.1,4.7l24,89.5c0.9,3.5-1.2,7.2-4.7,8.1l-6.4,1.7
	l-12-44.8c-0.9-3.5-4.6-5.6-8.1-4.7c-3.5,0.9-5.6,4.6-4.7,8.1l12,44.8l-6.4,1.7c-3.5,0.9-7.2-1.2-8.1-4.7c0,0,0,0,0,0l-24-89.5
	C134.7,272.6,136.8,268.9,140.4,268z M145.2,362.6l-19.2,5.1c-3.5,0.9-7.2-1.1-8.1-4.7l-17.1-63.9c-0.9-3.3,1-6.8,4.3-8
	c0.2-0.1,0.3-0.1,0.4-0.1l18.9-5.1C126.3,290.8,122.7,279.8,145.2,362.6z M100.8,241.4h13.3c0.6,10.5,2.5,21.3,5.8,32l-12.7,3.4
	C103.5,264.5,101.4,252.8,100.8,241.4z M386,222.5C379.8,158.4,321.6,109,256.9,109c-64.7,0-122.9,49.4-129.1,113.5
	c-0.3,3.2-3.2,5.7-6.5,5.7h-20.4c3.7-79.6,73.7-145.6,156.1-145.6c82.4,0,152.4,66,156.1,145.6h-20.4
	C389.2,228.2,386.3,225.7,386,222.5z M412.9,241.4c-0.6,11.4-2.7,23.1-6.3,35.5l-12.7-3.4c3.3-10.8,5.2-21.5,5.8-32H412.9z
	 M354.1,365.6C354.1,365.6,354.1,365.6,354.1,365.6c-0.9,3.5-4.6,5.6-8.1,4.7l-6.4-1.7l12-44.8c0.9-3.5-1.1-7.2-4.7-8.1
	c-3.5-0.9-7.2,1.2-8.1,4.7l-12,44.8l-6.4-1.7c-3.5-0.9-5.6-4.6-4.7-8.1l24-89.5c0.8-3,3.5-4.9,6.4-4.9c0.6,0,1.1,0.1,1.7,0.2
	l25.6,6.9c3.5,0.9,5.6,4.6,4.7,8.1L354.1,365.6z M413,299.2l-17.1,63.9c-0.9,3.5-4.6,5.6-8.1,4.7l-19.2-5.1
	c22.4-82.9,18.9-71.8,20.8-76.7c20.1,5.4,19,5.1,19.4,5.2C412.1,292.3,413.9,295.8,413,299.2z"/>
</svg>
