<?xml version="1.0" encoding="utf-8"?>
<!-- Generator: Adobe Illustrator 24.0.1, SVG Export Plug-In . SVG Version: 6.00 Build 0)  -->
<svg version="1.1" id="Layer_1" xmlns="http://www.w3.org/2000/svg" xmlns:xlink="http://www.w3.org/1999/xlink" x="0px" y="0px"
	 viewBox="0 0 512 512" style="enable-background:new 0 0 512 512;" xml:space="preserve">
<style type="text/css">
	.st0{display:none;}
	.st1{display:inline;fill:#200A7F;stroke:#18E5EA;stroke-width:20;stroke-miterlimit:10;}
	.st2{display:inline;fill:#EF0B79;}
	.st3{display:inline;fill:#18E5EA;}
	.st4{display:inline;}
	.st5{fill:#E9F21C;}
	.st6{display:inline;fill:none;}
	.st7{display:inline;fill:#EF3A24;}
	.st8{font-family:'MyriadPro-Regular';}
	.st9{font-size:250px;}
	.st10{display:inline;fill:#FFFFFF;}
	.st11{fill:#C4C6C8;}
	.st12{fill:url(#SVGID_1_);}
	.st13{fill:url(#SVGID_2_);stroke:#E8E8E8;stroke-width:3;stroke-miterlimit:10;}
	.st14{fill:#FFFFFF;}
	.st15{fill:#F44336;}
</style>
<g id="Layer_3" class="st0">
	<path class="st1" d="M401.1,212.2c5.1,15.3,7.9,31.7,7.9,48.8c0,85.3-69.2,154.5-154.5,154.5S100,346.3,100,261
		s69.2-154.5,154.5-154.5c51.2,0,96.6,24.9,124.7,63.3"/>
	<path class="st2" d="M333.4,255.2c0,4.2-3.3,7.7-7.4,7.7H174.9c-4.1,0-7.4-3.4-7.4-7.7l0,0c0-4.2,3.3-7.7,7.4-7.7H326
		C330.1,247.5,333.4,250.9,333.4,255.2L333.4,255.2z"/>
	<path class="st2" d="M333.4,284.8c0,4.2-3.3,7.6-7.4,7.6H174.9c-4.1,0-7.4-3.4-7.4-7.6l0,0c0-4.2,3.3-7.6,7.4-7.6H326
		C330.1,277.1,333.4,280.6,333.4,284.8L333.4,284.8z"/>
	<path class="st2" d="M333.4,313c0,4.2-3.3,7.7-7.4,7.7H174.9c-4.1,0-7.4-3.4-7.4-7.7l0,0c0-4.2,3.3-7.6,7.4-7.6H326
		C330.1,305.4,333.4,308.8,333.4,313L333.4,313z"/>
	<path class="st2" d="M333.4,338.4c0,4.2-3.3,7.7-7.4,7.7H174.9c-4.1,0-7.4-3.4-7.4-7.7l0,0c0-4.2,3.3-7.6,7.4-7.6H326
		C330.1,330.7,333.4,334.1,333.4,338.4L333.4,338.4z"/>
	<polygon class="st3" points="395,191.5 320.2,165.2 380.4,113.5 	"/>
	<g class="st4">
		<g>
			<g>
				<path class="st5" d="M241.5,239.2c-2.3,0-4.4-1.1-5.8-2.9l-18.8-24.8c-2.4-3.2-1.8-7.8,1.4-10.3c3.2-2.4,7.8-1.8,10.3,1.4
					l12.3,16.3l31-49.8c2.1-3.4,6.6-4.5,10.1-2.3c3.4,2.1,4.5,6.6,2.3,10.1l-36.7,58.9c-1.3,2-3.5,3.3-5.9,3.4
					C241.7,239.2,241.6,239.2,241.5,239.2z"/>
			</g>
		</g>
	</g>
</g>
<g id="Layer_2_2_" class="st0">
	<rect x="121" y="171.5" class="st6" width="298" height="251"/>
	<text transform="matrix(1 0 0 1 121 348.9979)" class="st7 st8 st9">24</text>
	<circle class="st10" cx="138.3" cy="91.8" r="17.3"/>
	<circle class="st10" cx="185.3" cy="91.8" r="17.3"/>
	<circle class="st10" cx="232.3" cy="91.8" r="17.3"/>
	<circle class="st10" cx="278.3" cy="91.8" r="17.3"/>
	<circle class="st10" cx="323.3" cy="91.8" r="17.3"/>
	<circle class="st10" cx="368.3" cy="91.8" r="17.3"/>
</g>
<g>
	<path class="st11" d="M350.3,54.5H161.7c-17.9,0-34.5,9.6-43.4,25.1L24,242.9c-9,15.5-9,34.6,0,50.2l94.3,163.3
		c9,15.5,25.5,25.1,43.4,25.1h188.5c17.9,0,34.5-9.6,43.4-25.1L488,293.1c9-15.5,9-34.6,0-50.2L393.7,79.6
		C384.8,64.1,368.2,54.5,350.3,54.5z"/>
</g>
<g>
	
		<radialGradient id="SVGID_1_" cx="256.8813" cy="5409.9502" r="226.4908" gradientTransform="matrix(1 0 0 1 0 -5156.0005)" gradientUnits="userSpaceOnUse">
		<stop  offset="0" style="stop-color:#F7977A"/>
		<stop  offset="7.105196e-02" style="stop-color:#F68D71"/>
		<stop  offset="0.5" style="stop-color:#F1563C"/>
		<stop  offset="0.745" style="stop-color:#DE3B34"/>
		<stop  offset="1" style="stop-color:#CE242C"/>
	</radialGradient>
	<path class="st12" d="M491.1,274.8c-0.7,1.4-1.4,2.9-2.2,4.3l-94.3,163.3c-0.5,1-1.1,1.9-1.7,2.8c-8.3,12.4-21.7,20.5-36.5,22
		c-1.7,0.2-3.4,0.3-5.2,0.3H162.6c-17.9,0-34.5-9.6-43.5-25.1l-15.3-26.6l-70.4-122L24.9,279c-9-15.5-9-34.6,0-50.2l6.5-11.3
		l22.3-38.6l65.5-113.4c9-15.5,25.5-25.1,43.5-25.1h188.5c17.9,0,34.5,9.6,43.5,25.1l20.7,35.9l6.3,10.9l25.3,43.8l2.4,4.2l5.5,9.6
		l7,12l27.1,47c1.2,2,2.2,4.1,3,6.2C497.1,247.9,496.8,262.3,491.1,274.8z"/>
	
		<radialGradient id="SVGID_2_" cx="256.8813" cy="259.3414" r="226.4908" gradientTransform="matrix(1 0 0 -1 0 513.2912)" gradientUnits="userSpaceOnUse">
		<stop  offset="0" style="stop-color:#F7977A"/>
		<stop  offset="7.105196e-02" style="stop-color:#F68D71"/>
		<stop  offset="0.5" style="stop-color:#F1563C"/>
		<stop  offset="0.745" style="stop-color:#DE3B34"/>
		<stop  offset="1" style="stop-color:#CE242C"/>
	</radialGradient>
	<path class="st13" d="M491.1,274.8c-0.7,1.4-1.4,2.9-2.2,4.3l-94.3,163.3c-0.5,1-1.1,1.9-1.7,2.8c-8.3,12.4-21.7,20.5-36.5,22
		c-1.7,0.2-3.4,0.3-5.2,0.3H162.6c-17.9,0-34.5-9.6-43.5-25.1l-15.3-26.6l-70.4-122L24.9,279c-9-15.5-9-34.6,0-50.2l6.5-11.3
		l22.3-38.6l65.5-113.4c9-15.5,25.5-25.1,43.5-25.1h188.5c17.9,0,34.5,9.6,43.5,25.1l20.7,35.9l6.3,10.9l25.3,43.8l2.4,4.2l5.5,9.6
		l7,12l27.1,47c1.2,2,2.2,4.1,3,6.2C497.1,247.9,496.8,262.3,491.1,274.8z"/>
</g>
<path d="M494.2,421.5 M452.8,499.5 M411,502 M239.6,502 M197.8,499.5 M494.8,353.7"/>
<rect x="189.3" y="143.8" class="st14" width="148.3" height="230.7"/>
<path class="st15" d="M301,253.3l-52.7-26.4c-3.3-1.6-7.2-0.3-8.8,2.9c-0.5,0.9-0.7,1.9-0.7,3v52.7c0,3.6,2.9,6.6,6.6,6.6
	c1,0,2-0.2,3-0.7l52.7-26.4c3.3-1.6,4.6-5.6,3-8.8C303.3,255,302.3,253.9,301,253.3L301,253.3z"/>
<path d="M378.8,391.1H148.1c-9.1,0-16.5-7.4-16.5-16.5V143.8c0-9.1,7.4-16.5,16.5-16.5h230.7c9.1,0,16.5,7.4,16.5,16.5v230.7
	C395.3,383.7,387.9,391.1,378.8,391.1z M148.1,143.8v230.7h230.7V143.8H148.1z"/>
<path d="M189.3,391.1c-4.6,0-8.2-3.7-8.2-8.2V135.6c0-4.6,3.7-8.2,8.2-8.2c4.6,0,8.2,3.7,8.2,8.2v247.2
	C197.5,387.4,193.8,391.1,189.3,391.1z"/>
<path d="M337.6,391.1c-4.6,0-8.2-3.7-8.2-8.2V135.6c0-4.6,3.7-8.2,8.2-8.2c4.6,0,8.2,3.7,8.2,8.2v247.2
	C345.8,387.4,342.1,391.1,337.6,391.1z"/>
<path d="M189.3,193.3h-49.4c-4.6,0-8.2-3.7-8.2-8.2c0-4.6,3.7-8.2,8.2-8.2h49.4c4.6,0,8.2,3.7,8.2,8.2
	C197.5,189.6,193.8,193.3,189.3,193.3z"/>
<path d="M189.3,242.7h-49.4c-4.6,0-8.2-3.7-8.2-8.2c0-4.6,3.7-8.2,8.2-8.2h49.4c4.6,0,8.2,3.7,8.2,8.2
	C197.5,239,193.8,242.7,189.3,242.7z"/>
<path d="M189.3,292.2h-49.4c-4.6,0-8.2-3.7-8.2-8.2s3.7-8.2,8.2-8.2h49.4c4.6,0,8.2,3.7,8.2,8.2S193.8,292.2,189.3,292.2z"/>
<path d="M189.3,341.6h-49.4c-4.6,0-8.2-3.7-8.2-8.2c0-4.6,3.7-8.2,8.2-8.2h49.4c4.6,0,8.2,3.7,8.2,8.2
	C197.5,337.9,193.8,341.6,189.3,341.6z"/>
<path d="M387,193.3h-49.4c-4.6,0-8.2-3.7-8.2-8.2c0-4.6,3.7-8.2,8.2-8.2H387c4.6,0,8.2,3.7,8.2,8.2
	C395.3,189.6,391.6,193.3,387,193.3z"/>
<path d="M387,242.7h-49.4c-4.6,0-8.2-3.7-8.2-8.2c0-4.6,3.7-8.2,8.2-8.2H387c4.6,0,8.2,3.7,8.2,8.2C395.3,239,391.6,242.7,387,242.7
	z"/>
<path d="M387,292.2h-49.4c-4.6,0-8.2-3.7-8.2-8.2s3.7-8.2,8.2-8.2H387c4.6,0,8.2,3.7,8.2,8.2S391.6,292.2,387,292.2z"/>
<path d="M387,341.6h-49.4c-4.6,0-8.2-3.7-8.2-8.2c0-4.6,3.7-8.2,8.2-8.2H387c4.6,0,8.2,3.7,8.2,8.2
	C395.3,337.9,391.6,341.6,387,341.6z"/>
<path d="M238.7,300.4c-1.5,0-3-0.4-4.3-1.2c-2.4-1.5-3.9-4.1-3.9-7v-65.9c0-4.6,3.7-8.2,8.2-8.2c1.3,0,2.5,0.3,3.7,0.9l65.9,33
	c4.1,2,5.7,7,3.7,11.1c-0.8,1.6-2.1,2.9-3.7,3.7l-65.9,33C241.2,300.1,240,300.4,238.7,300.4z M246.9,239.6v39.3l39.3-19.6
	L246.9,239.6z"/>
</svg>
