<?xml version="1.0" encoding="utf-8"?>
<!-- Generator: Adobe Illustrator 24.0.1, SVG Export Plug-In . SVG Version: 6.00 Build 0)  -->
<svg version="1.1" id="Layer_1" xmlns="http://www.w3.org/2000/svg" xmlns:xlink="http://www.w3.org/1999/xlink" x="0px" y="0px"
	 viewBox="0 0 512 512" style="enable-background:new 0 0 512 512;" xml:space="preserve">
<style type="text/css">
	.st0{display:none;}
	.st1{display:inline;fill:#200A7F;stroke:#18E5EA;stroke-width:20;stroke-miterlimit:10;}
	.st2{display:inline;fill:#EF0B79;}
	.st3{display:inline;fill:#18E5EA;}
	.st4{display:inline;}
	.st5{fill:#E9F21C;}
	.st6{display:inline;fill:none;}
	.st7{display:inline;fill:#EF3A24;}
	.st8{font-family:'MyriadPro-Regular';}
	.st9{font-size:250px;}
	.st10{display:inline;fill:#FFFFFF;}
	.st11{fill:#C4C6C8;}
	.st12{fill:url(#SVGID_1_);}
	.st13{fill:url(#SVGID_2_);stroke:#E8E8E8;stroke-width:3;stroke-miterlimit:10;}
	.st14{fill:#C52828;}
	.st15{fill:#F44335;}
	.st16{fill:#FFEB3A;}
</style>
<g id="Layer_3" class="st0">
	<path class="st1" d="M401.1,212.2c5.1,15.3,7.9,31.7,7.9,48.8c0,85.3-69.2,154.5-154.5,154.5S100,346.3,100,261
		s69.2-154.5,154.5-154.5c51.2,0,96.6,24.9,124.7,63.3"/>
	<path class="st2" d="M333.4,255.2c0,4.2-3.3,7.7-7.4,7.7H174.9c-4.1,0-7.4-3.4-7.4-7.7l0,0c0-4.2,3.3-7.7,7.4-7.7H326
		C330.1,247.5,333.4,250.9,333.4,255.2L333.4,255.2z"/>
	<path class="st2" d="M333.4,284.8c0,4.2-3.3,7.6-7.4,7.6H174.9c-4.1,0-7.4-3.4-7.4-7.6l0,0c0-4.2,3.3-7.6,7.4-7.6H326
		C330.1,277.1,333.4,280.6,333.4,284.8L333.4,284.8z"/>
	<path class="st2" d="M333.4,313c0,4.2-3.3,7.7-7.4,7.7H174.9c-4.1,0-7.4-3.4-7.4-7.7l0,0c0-4.2,3.3-7.6,7.4-7.6H326
		C330.1,305.4,333.4,308.8,333.4,313L333.4,313z"/>
	<path class="st2" d="M333.4,338.4c0,4.2-3.3,7.7-7.4,7.7H174.9c-4.1,0-7.4-3.4-7.4-7.7l0,0c0-4.2,3.3-7.6,7.4-7.6H326
		C330.1,330.7,333.4,334.1,333.4,338.4L333.4,338.4z"/>
	<polygon class="st3" points="395,191.5 320.2,165.2 380.4,113.5 	"/>
	<g class="st4">
		<g>
			<g>
				<path class="st5" d="M241.5,239.2c-2.3,0-4.4-1.1-5.8-2.9l-18.8-24.8c-2.4-3.2-1.8-7.8,1.4-10.3c3.2-2.4,7.8-1.8,10.3,1.4
					l12.3,16.3l31-49.8c2.1-3.4,6.6-4.5,10.1-2.3c3.4,2.1,4.5,6.6,2.3,10.1l-36.7,58.9c-1.3,2-3.5,3.3-5.9,3.4
					C241.7,239.2,241.6,239.2,241.5,239.2z"/>
			</g>
		</g>
	</g>
</g>
<g id="Layer_2_2_" class="st0">
	<rect x="121" y="171.5" class="st6" width="298" height="251"/>
	<text transform="matrix(1 0 0 1 121 348.9979)" class="st7 st8 st9">24</text>
	<circle class="st10" cx="138.3" cy="91.8" r="17.3"/>
	<circle class="st10" cx="185.3" cy="91.8" r="17.3"/>
	<circle class="st10" cx="232.3" cy="91.8" r="17.3"/>
	<circle class="st10" cx="278.3" cy="91.8" r="17.3"/>
	<circle class="st10" cx="323.3" cy="91.8" r="17.3"/>
	<circle class="st10" cx="368.3" cy="91.8" r="17.3"/>
</g>
<g>
	<path class="st11" d="M350.3,54.5H161.7c-17.9,0-34.5,9.6-43.4,25.1L24,242.9c-9,15.5-9,34.6,0,50.2l94.3,163.3
		c9,15.5,25.5,25.1,43.4,25.1h188.5c17.9,0,34.5-9.6,43.4-25.1L488,293.1c9-15.5,9-34.6,0-50.2L393.7,79.6
		C384.8,64.1,368.2,54.5,350.3,54.5z"/>
</g>
<g>
	
		<radialGradient id="SVGID_1_" cx="256.8813" cy="5409.9502" r="226.4908" gradientTransform="matrix(1 0 0 1 0 -5156.0005)" gradientUnits="userSpaceOnUse">
		<stop  offset="1.123600e-02" style="stop-color:#ECC5B6"/>
		<stop  offset="0.5" style="stop-color:#E09978"/>
		<stop  offset="1" style="stop-color:#B56F5D"/>
	</radialGradient>
	<path class="st12" d="M491.1,274.8c-0.7,1.4-1.4,2.9-2.2,4.3l-94.3,163.3c-0.5,1-1.1,1.9-1.7,2.8c-8.3,12.4-21.7,20.5-36.5,22
		c-1.7,0.2-3.4,0.3-5.2,0.3H162.6c-17.9,0-34.5-9.6-43.5-25.1l-15.3-26.6l-70.4-122L24.9,279c-9-15.5-9-34.6,0-50.2l6.5-11.3
		l22.3-38.6l65.5-113.4c9-15.5,25.5-25.1,43.5-25.1h188.5c17.9,0,34.5,9.6,43.5,25.1l20.7,35.9l6.3,10.9l25.3,43.8l2.4,4.2l5.5,9.6
		l7,12l27.1,47c1.2,2,2.2,4.1,3,6.2C497.1,247.9,496.8,262.3,491.1,274.8z"/>
	
		<radialGradient id="SVGID_2_" cx="256.8813" cy="259.3414" r="226.4908" gradientTransform="matrix(1 0 0 -1 0 513.2912)" gradientUnits="userSpaceOnUse">
		<stop  offset="1.123600e-02" style="stop-color:#ECC5B6"/>
		<stop  offset="0.5" style="stop-color:#E09978"/>
		<stop  offset="1" style="stop-color:#B56F5D"/>
	</radialGradient>
	<path class="st13" d="M491.1,274.8c-0.7,1.4-1.4,2.9-2.2,4.3l-94.3,163.3c-0.5,1-1.1,1.9-1.7,2.8c-8.3,12.4-21.7,20.5-36.5,22
		c-1.7,0.2-3.4,0.3-5.2,0.3H162.6c-17.9,0-34.5-9.6-43.5-25.1l-15.3-26.6l-70.4-122L24.9,279c-9-15.5-9-34.6,0-50.2l6.5-11.3
		l22.3-38.6l65.5-113.4c9-15.5,25.5-25.1,43.5-25.1h188.5c17.9,0,34.5,9.6,43.5,25.1l20.7,35.9l6.3,10.9l25.3,43.8l2.4,4.2l5.5,9.6
		l7,12l27.1,47c1.2,2,2.2,4.1,3,6.2C497.1,247.9,496.8,262.3,491.1,274.8z"/>
</g>
<path d="M494.2,421.5 M452.8,499.5 M411,502 M239.6,502 M197.8,499.5 M494.8,353.7"/>
<g>
	<g transform="translate(1 1)">
		<path class="st14" d="M414.7,263.5c0,42.1-16.7,82.5-46.5,112.3s-70.2,46.5-112.3,46.5c-2.7,0-5.5-0.1-8.2-0.2h-0.1
			C163.2,417.8,97,348,97,263.5s66.2-154.2,150.6-158.6h0.1c2.7-0.2,5.4-0.2,8.2-0.2c42.1,0,82.5,16.7,112.3,46.5
			C398,181,414.7,221.4,414.7,263.5z"/>
		<path class="st15" d="M398.3,263.5c0,84.5-66.2,154.2-150.6,158.6h-0.1C163.2,417.8,97,348,97,263.5s66.2-154.2,150.6-158.6h0.1
			C332.1,109.3,398.3,179,398.3,263.5z"/>
		<path class="st16" d="M289.2,227.7c-11-5.9-20.2-14.6-26.8-25.2c-6.8-13.3-8.7-28.5-5.3-43.1c-18.1,11.8-31.6,29.5-38.1,50.1
			c-6.4,20.5-7.6,42.4-3.4,63.5c-10.7-5.6-18.2-15.9-20.2-27.8c-18.2,24.5-19.4,57.6-3.1,83.4c17.3,25.1,48.2,37.1,77.9,30
			c29.4-8.2,50.7-33.6,53.7-63.9C325.3,267.8,312.1,242.1,289.2,227.7z"/>
		<path class="st15" d="M270.4,296.5c-5.3-2.8-9.8-7-13-12.2c-3.3-6.4-4.2-13.8-2.6-20.8c-8.8,5.7-15.3,14.2-18.4,24.2
			c-3.1,9.9-3.7,20.5-1.6,30.7c-5.2-2.7-8.8-7.7-9.7-13.4c-9.1,11.7-9.7,27.9-1.5,40.3c8.2,12.4,23.3,18.2,37.6,14.5
			c13.5-3.5,23.6-14.7,25.7-28.6C288.8,317.4,282.4,303.7,270.4,296.5L270.4,296.5z"/>
	</g>
	<g>
		<path d="M256.9,100.2c-90.7,0-164.3,73.6-164.3,164.3s73.6,164.3,164.3,164.3c90.7,0,164.3-73.6,164.3-164.3
			C421.1,173.8,347.6,100.3,256.9,100.2z M256.9,417.9c-84.7,0-153.4-68.7-153.4-153.4s68.7-153.4,153.4-153.4
			s153.4,68.7,153.4,153.4C410.1,349.2,341.5,417.8,256.9,417.9z"/>
		<path d="M293.1,224.1c-10.2-5.4-18.7-13.4-24.9-23.1c-6.2-12.1-7.9-26-4.8-39.3c0.5-2.2-0.4-4.4-2.2-5.7c-1.8-1.3-4.2-1.3-6.1-0.2
			c-19.2,12.4-33.5,31.2-40.4,53c-5.4,17-7.3,34.8-5.5,52.6c-3.9-4.6-6.5-10.1-7.5-16c-0.3-2.2-1.9-3.9-4.1-4.4s-4.4,0.2-5.7,2
			c-19.6,26.3-20.9,62-3.4,89.8c13.8,20.1,36.1,32.7,60.4,34.3c1.7,0.2,3.4,0.3,5.1,0.3l0.1,0l0.1,0c6.1,0,12.2-0.8,18.2-2.3
			c31.6-8.8,54.6-36.1,57.8-68.8C331.9,267.2,317.7,239.5,293.1,224.1z M229.1,343.2c-4.7-7.5-5.9-16.6-3.3-25.1
			c2,2.5,4.6,4.6,7.5,6.1c1.9,1,4.1,0.8,5.8-0.5c1.7-1.2,2.5-3.3,2.1-5.4c-1.9-9.3-1.4-18.9,1.5-28c1.6-4.9,4.1-9.5,7.4-13.5
			c0.6,3.9,1.8,7.6,3.6,11c3.6,6,8.8,10.9,14.9,14.2c10.1,6,15.6,17.6,13.9,29.2s-10.2,21.1-21.6,24.1c-2.9,0.7-5.8,1-8.8,0.8
			l-0.2,0C242.6,355.6,234.3,350.8,229.1,343.2z M319.2,295.3c-2,20.6-13.2,39.2-30.5,50.5c2.7-4.8,4.3-10.1,4.8-15.5
			c0.9-15.1-6.5-29.4-19.3-37.5c-4.5-2.4-8.3-5.8-11-10.1c-2.6-5.3-3.4-11.3-2.1-17c0.5-2.2-0.4-4.4-2.2-5.7
			c-1.8-1.3-4.2-1.3-6.1-0.2c-9.9,6.4-17.2,15.9-20.7,27.1c-1.5,4.7-2.5,9.6-2.9,14.6c-2.4-1.8-5.8-1.4-7.6,1
			c-9.4,12.6-10.7,29.5-3.5,43.5c-8.2-4.9-15.2-11.6-20.5-19.5c-12.9-20.4-14.1-46.1-3.1-67.6c4.1,8.5,10.9,15.5,19.3,19.9
			c1.9,1,4.1,0.8,5.8-0.5c1.7-1.2,2.5-3.3,2.1-5.4c-3.2-16.5-3.1-33.5,0.3-49.9c0.4-0.7,0.6-1.5,0.6-2.3c0,0,0-0.1,0-0.1
			c0.7-2.8,1.4-5.6,2.3-8.4c4.9-15.3,13.9-29.1,25.9-39.8c-0.5,11.7,2.1,23.3,7.5,33.7c7,11.5,16.9,20.9,28.8,27.2
			C308.5,246.7,320.7,270.4,319.2,295.3z"/>
	</g>
</g>
</svg>
