<?xml version="1.0" encoding="utf-8"?>
<!-- Generator: Adobe Illustrator 24.0.1, SVG Export Plug-In . SVG Version: 6.00 Build 0)  -->
<svg version="1.1" id="Layer_1" xmlns="http://www.w3.org/2000/svg" xmlns:xlink="http://www.w3.org/1999/xlink" x="0px" y="0px"
	 viewBox="0 0 512 512" style="enable-background:new 0 0 512 512;" xml:space="preserve">
<style type="text/css">
	.st0{display:none;}
	.st1{display:inline;fill:#200A7F;stroke:#18E5EA;stroke-width:20;stroke-miterlimit:10;}
	.st2{display:inline;fill:#EF0B79;}
	.st3{display:inline;fill:#18E5EA;}
	.st4{display:inline;}
	.st5{fill:#E9F21C;}
	.st6{display:inline;fill:none;}
	.st7{display:inline;fill:#EF3A24;}
	.st8{font-family:'MyriadPro-Regular';}
	.st9{font-size:250px;}
	.st10{display:inline;fill:#FFFFFF;}
	.st11{fill:#C4C6C8;}
	.st12{fill:url(#SVGID_1_);}
	.st13{fill:url(#SVGID_2_);stroke:#E8E8E8;stroke-width:3;stroke-miterlimit:10;}
	.st14{fill:#FFFFFF;}
</style>
<g id="Layer_3" class="st0">
	<path class="st1" d="M401.1,212.2c5.1,15.3,7.9,31.7,7.9,48.8c0,85.3-69.2,154.5-154.5,154.5S100,346.3,100,261
		s69.2-154.5,154.5-154.5c51.2,0,96.6,24.9,124.7,63.3"/>
	<path class="st2" d="M333.4,255.2c0,4.2-3.3,7.7-7.4,7.7H174.9c-4.1,0-7.4-3.4-7.4-7.7l0,0c0-4.2,3.3-7.7,7.4-7.7H326
		C330.1,247.5,333.4,250.9,333.4,255.2L333.4,255.2z"/>
	<path class="st2" d="M333.4,284.8c0,4.2-3.3,7.6-7.4,7.6H174.9c-4.1,0-7.4-3.4-7.4-7.6l0,0c0-4.2,3.3-7.6,7.4-7.6H326
		C330.1,277.1,333.4,280.6,333.4,284.8L333.4,284.8z"/>
	<path class="st2" d="M333.4,313c0,4.2-3.3,7.7-7.4,7.7H174.9c-4.1,0-7.4-3.4-7.4-7.7l0,0c0-4.2,3.3-7.6,7.4-7.6H326
		C330.1,305.4,333.4,308.8,333.4,313L333.4,313z"/>
	<path class="st2" d="M333.4,338.4c0,4.2-3.3,7.7-7.4,7.7H174.9c-4.1,0-7.4-3.4-7.4-7.7l0,0c0-4.2,3.3-7.6,7.4-7.6H326
		C330.1,330.7,333.4,334.1,333.4,338.4L333.4,338.4z"/>
	<polygon class="st3" points="395,191.5 320.2,165.2 380.4,113.5 	"/>
	<g class="st4">
		<g>
			<g>
				<path class="st5" d="M241.5,239.2c-2.3,0-4.4-1.1-5.8-2.9l-18.8-24.8c-2.4-3.2-1.8-7.8,1.4-10.3c3.2-2.4,7.8-1.8,10.3,1.4
					l12.3,16.3l31-49.8c2.1-3.4,6.6-4.5,10.1-2.3c3.4,2.1,4.5,6.6,2.3,10.1l-36.7,58.9c-1.3,2-3.5,3.3-5.9,3.4
					C241.7,239.2,241.6,239.2,241.5,239.2z"/>
			</g>
		</g>
	</g>
</g>
<g id="Layer_2_2_" class="st0">
	<rect x="121" y="171.5" class="st6" width="298" height="251"/>
	<text transform="matrix(1 0 0 1 121 348.9979)" class="st7 st8 st9">24</text>
	<circle class="st10" cx="138.3" cy="91.8" r="17.3"/>
	<circle class="st10" cx="185.3" cy="91.8" r="17.3"/>
	<circle class="st10" cx="232.3" cy="91.8" r="17.3"/>
	<circle class="st10" cx="278.3" cy="91.8" r="17.3"/>
	<circle class="st10" cx="323.3" cy="91.8" r="17.3"/>
	<circle class="st10" cx="368.3" cy="91.8" r="17.3"/>
</g>
<g>
	<path class="st11" d="M350.3,54.5H161.7c-17.9,0-34.5,9.6-43.4,25.1L24,242.9c-9,15.5-9,34.6,0,50.2l94.3,163.3
		c9,15.5,25.5,25.1,43.4,25.1h188.5c17.9,0,34.5-9.6,43.4-25.1L488,293.1c9-15.5,9-34.6,0-50.2L393.7,79.6
		C384.8,64.1,368.2,54.5,350.3,54.5z"/>
</g>
<g>
	
		<linearGradient id="SVGID_1_" gradientUnits="userSpaceOnUse" x1="18.15" y1="-4897.9507" x2="495.6125" y2="-4897.9507" gradientTransform="matrix(1 0 0 -1 0 -4644.0005)">
		<stop  offset="0" style="stop-color:#B07EB7"/>
		<stop  offset="0.5" style="stop-color:#8C3D96"/>
		<stop  offset="1" style="stop-color:#762A90"/>
	</linearGradient>
	<path class="st12" d="M491.1,274.8c-0.7,1.4-1.4,2.9-2.2,4.3l-94.3,163.3c-0.5,1-1.1,1.9-1.7,2.8c-8.3,12.4-21.7,20.5-36.5,22
		c-1.7,0.2-3.4,0.3-5.2,0.3H162.6c-17.9,0-34.5-9.6-43.5-25.1l-15.3-26.6l-70.4-122L24.9,279c-9-15.5-9-34.6,0-50.2l6.5-11.3
		l22.3-38.6l65.5-113.4c9-15.5,25.5-25.1,43.5-25.1h188.5c17.9,0,34.5,9.6,43.5,25.1l20.7,35.9l6.3,10.9l25.3,43.8l2.4,4.2l5.5,9.6
		l7,12l27.1,47c1.2,2,2.2,4.1,3,6.2C497.1,247.9,496.8,262.3,491.1,274.8z"/>
	
		<linearGradient id="SVGID_2_" gradientUnits="userSpaceOnUse" x1="18.15" y1="-79.3412" x2="495.6125" y2="-79.3412" gradientTransform="matrix(1 0 0 1 0 333.2912)">
		<stop  offset="0" style="stop-color:#B07EB7"/>
		<stop  offset="0.5" style="stop-color:#8C3D96"/>
		<stop  offset="1" style="stop-color:#762A90"/>
	</linearGradient>
	<path class="st13" d="M491.1,274.8c-0.7,1.4-1.4,2.9-2.2,4.3l-94.3,163.3c-0.5,1-1.1,1.9-1.7,2.8c-8.3,12.4-21.7,20.5-36.5,22
		c-1.7,0.2-3.4,0.3-5.2,0.3H162.6c-17.9,0-34.5-9.6-43.5-25.1l-15.3-26.6l-70.4-122L24.9,279c-9-15.5-9-34.6,0-50.2l6.5-11.3
		l22.3-38.6l65.5-113.4c9-15.5,25.5-25.1,43.5-25.1h188.5c17.9,0,34.5,9.6,43.5,25.1l20.7,35.9l6.3,10.9l25.3,43.8l2.4,4.2l5.5,9.6
		l7,12l27.1,47c1.2,2,2.2,4.1,3,6.2C497.1,247.9,496.8,262.3,491.1,274.8z"/>
</g>
<g id="Page-1">
	<g id="_x30_40---Paw">
		<ellipse id="Oval" class="st14" cx="219.5" cy="184" rx="23.3" ry="42"/>
		<path id="Shape" class="st14" d="M192.5,355c3.4,4.3,9.1,6.4,17.7,6.4c7.5-0.4,14.8-2.6,21.3-6.5c7.7-4.6,16.5-7.1,25.4-7.5
			c9,0.3,17.7,2.9,25.4,7.5c6.4,3.9,13.7,6.1,21.3,6.5c8.5,0,14.3-2.1,17.7-6.4c4.9-6.3,5.3-17.9,1.1-34.5
			c-8.9-35.7-49.4-66.5-65.5-66.5s-56.6,30.8-65.5,66.5C187.2,337.1,187.6,348.7,192.5,355z"/>
		<path id="Shape_1_" class="st14" d="M154,375.7c0.1,2.5,2.2,4.4,4.6,4.4h196.6c2.5,0,4.5-1.9,4.6-4.4c1.4-27.1,8.5-51.5,15.5-75
			c6.3-21.5,12.3-41.8,12.3-60.6c0-35.3-11.3-44.7-16.1-47.1c-7.9-3.6-16.7-5-25.3-4.2c-1.5,0.2-3.1-0.4-4.1-1.5s-1.4-2.7-1-4.2
			c4.1-15.7,0.7-32.4-9.2-45.2c-9-11.7-22.8-18.7-37.6-19c-28.2,0-32.6,18.8-32.8,19.6c-0.4,2.2-2.4,3.7-4.6,3.7h0
			c-2.2,0-4.1-1.6-4.5-3.7c-0.2-0.8-4.6-19.6-32.8-19.6c-14.8,0.3-28.6,7.3-37.6,19c-9.9,12.8-13.3,29.5-9.2,45.2
			c0.4,1.5,0,3.1-1,4.2c-1,1.2-2.6,1.7-4.1,1.5c-1.5-0.2-3.1-0.2-4.6-0.2c-7.2-0.1-14.2,1.4-20.7,4.4c-4.8,2.4-16.1,11.9-16.1,47.2
			c0,18.8,6,39.1,12.3,60.6C145.4,324.2,152.6,348.5,154,375.7L154,375.7z M364.4,203.4c14.4,6.3,18.2,28.2,8.7,49.7
			c-3.9,9.3-10.3,17.4-18.6,23.4c-4.6,3.4-10.2,5.3-15.9,5.5c-2.8,0-5.6-0.6-8.1-1.7c-7.7-3.9-12.8-11.6-13.4-20.2
			c-1.2-10.1,0.5-20.3,4.7-29.5C331.3,209,350,197.1,364.4,203.4L364.4,203.4z M294.2,132.6c18.3,0,32.7,22.6,32.7,51.3
			s-14.4,51.3-32.7,51.3c-18.3,0-32.7-22.6-32.7-51.3S275.9,132.6,294.2,132.6z M256.9,244.7c21.2,0,64.7,34.4,74.5,73.5
			c4.9,19.8,4,33.7-2.8,42.5c-5.2,6.6-13.6,10-25,10c-9-0.3-17.7-2.9-25.4-7.5c-6.4-3.9-13.7-6.1-21.3-6.5
			c-7.5,0.4-14.8,2.6-21.3,6.5c-7.7,4.6-16.5,7.1-25.4,7.5c-11.4,0-19.9-3.4-25-10c-6.9-8.8-7.8-22.7-2.8-42.5
			C192.1,279,235.7,244.7,256.9,244.7L256.9,244.7z M219.5,132.6c18.3,0,32.7,22.6,32.7,51.3s-14.4,51.3-32.7,51.3
			s-32.7-22.6-32.7-51.3S201.2,132.6,219.5,132.6z M149.4,203.4c14.4-6.3,33.1,5.6,42.6,27.1c4.3,9.2,5.9,19.4,4.7,29.5
			c-0.6,8.7-5.7,16.4-13.4,20.3c-2.6,1.1-5.3,1.7-8.1,1.7c-5.7-0.2-11.2-2.1-15.9-5.5c-8.2-5.9-14.6-14-18.6-23.4
			C131.2,231.6,135,209.8,149.4,203.4L149.4,203.4z"/>
		<path id="Shape_2_" class="st14" d="M334.3,271.8c5.2,1.7,10.8,0.6,15-2.9c6.8-5,12-11.7,15.3-19.4c7.1-16.2,5.4-33.3-3.9-37.4
			s-23.1,6.2-30.3,22.4c-3.6,7.6-5,16-4,24.4C326.5,264.2,329.5,269.1,334.3,271.8L334.3,271.8z"/>
		<path id="Shape_3_" class="st14" d="M164.5,268.8c4.2,3.5,9.8,4.6,15,2.9c4.7-2.7,7.7-7.6,7.9-13.1c0.9-8.3-0.5-16.8-4-24.4
			c-6.1-13.8-17-23.3-25.9-23.3c-1.5,0-3,0.3-4.4,0.9c-9.3,4.1-11,21.2-3.9,37.4C152.5,257.2,157.7,263.9,164.5,268.8L164.5,268.8z"
			/>
		<ellipse id="Oval_1_" class="st14" cx="294.2" cy="184" rx="23.3" ry="42"/>
	</g>
</g>
</svg>
