<?xml version="1.0" encoding="utf-8"?>
<!-- Generator: Adobe Illustrator 24.0.1, SVG Export Plug-In . SVG Version: 6.00 Build 0)  -->
<svg version="1.1" id="Layer_1" xmlns="http://www.w3.org/2000/svg" xmlns:xlink="http://www.w3.org/1999/xlink" x="0px" y="0px"
	 viewBox="0 0 512 512" style="enable-background:new 0 0 512 512;" xml:space="preserve">
<style type="text/css">
	.st0{display:none;}
	.st1{display:inline;fill:#200A7F;stroke:#18E5EA;stroke-width:20;stroke-miterlimit:10;}
	.st2{display:inline;fill:#EF0B79;}
	.st3{display:inline;fill:#18E5EA;}
	.st4{display:inline;}
	.st5{fill:#E9F21C;}
	.st6{display:inline;fill:none;}
	.st7{display:inline;fill:#EF3A24;}
	.st8{font-family:'MyriadPro-Regular';}
	.st9{font-size:250px;}
	.st10{display:inline;fill:#FFFFFF;}
	.st11{fill:#C4C6C8;}
	.st12{fill:url(#SVGID_1_);stroke:#E8E8E8;stroke-width:3;stroke-miterlimit:10;}
	.st13{fill:url(#SVGID_2_);}
	.st14{fill:url(#SVGID_3_);}
	.st15{fill:url(#SVGID_4_);}
	.st16{fill:url(#SVGID_5_);}
</style>
<g id="Layer_3" class="st0">
	<path class="st1" d="M401.1,212.2c5.1,15.3,7.9,31.7,7.9,48.8c0,85.3-69.2,154.5-154.5,154.5S100,346.3,100,261
		s69.2-154.5,154.5-154.5c51.2,0,96.6,24.9,124.7,63.3"/>
	<path class="st2" d="M333.4,255.2c0,4.2-3.3,7.7-7.4,7.7H174.9c-4.1,0-7.4-3.4-7.4-7.7l0,0c0-4.2,3.3-7.7,7.4-7.7H326
		C330.1,247.5,333.4,250.9,333.4,255.2L333.4,255.2z"/>
	<path class="st2" d="M333.4,284.8c0,4.2-3.3,7.6-7.4,7.6H174.9c-4.1,0-7.4-3.4-7.4-7.6l0,0c0-4.2,3.3-7.6,7.4-7.6H326
		C330.1,277.1,333.4,280.6,333.4,284.8L333.4,284.8z"/>
	<path class="st2" d="M333.4,313c0,4.2-3.3,7.7-7.4,7.7H174.9c-4.1,0-7.4-3.4-7.4-7.7l0,0c0-4.2,3.3-7.6,7.4-7.6H326
		C330.1,305.4,333.4,308.8,333.4,313L333.4,313z"/>
	<path class="st2" d="M333.4,338.4c0,4.2-3.3,7.7-7.4,7.7H174.9c-4.1,0-7.4-3.4-7.4-7.7l0,0c0-4.2,3.3-7.6,7.4-7.6H326
		C330.1,330.7,333.4,334.1,333.4,338.4L333.4,338.4z"/>
	<polygon class="st3" points="395,191.5 320.2,165.2 380.4,113.5 	"/>
	<g class="st4">
		<g>
			<g>
				<path class="st5" d="M241.5,239.2c-2.3,0-4.4-1.1-5.8-2.9l-18.8-24.8c-2.4-3.2-1.8-7.8,1.4-10.3c3.2-2.4,7.8-1.8,10.3,1.4
					l12.3,16.3l31-49.8c2.1-3.4,6.6-4.5,10.1-2.3c3.4,2.1,4.5,6.6,2.3,10.1l-36.7,58.9c-1.3,2-3.5,3.3-5.9,3.4
					C241.7,239.2,241.6,239.2,241.5,239.2z"/>
			</g>
		</g>
	</g>
</g>
<g id="Layer_2_2_" class="st0">
	<rect x="121" y="171.5" class="st6" width="298" height="251"/>
	<text transform="matrix(1 0 0 1 121 348.9979)" class="st7 st8 st9">24</text>
	<circle class="st10" cx="138.3" cy="91.8" r="17.3"/>
	<circle class="st10" cx="185.3" cy="91.8" r="17.3"/>
	<circle class="st10" cx="232.3" cy="91.8" r="17.3"/>
	<circle class="st10" cx="278.3" cy="91.8" r="17.3"/>
	<circle class="st10" cx="323.3" cy="91.8" r="17.3"/>
	<circle class="st10" cx="368.3" cy="91.8" r="17.3"/>
</g>
<g>
	<path class="st11" d="M350.3,54.5H161.7c-17.9,0-34.5,9.6-43.4,25.1L24,242.9c-9,15.5-9,34.6,0,50.2l94.3,163.3
		c9,15.5,25.5,25.1,43.4,25.1h188.5c17.9,0,34.5-9.6,43.4-25.1L488,293.1c9-15.5,9-34.6,0-50.2L393.7,79.6
		C384.8,64.1,368.2,54.5,350.3,54.5z"/>
</g>
<g>
	<linearGradient id="SVGID_1_" gradientUnits="userSpaceOnUse" x1="18.15" y1="253.95" x2="495.61" y2="253.95">
		<stop  offset="0" style="stop-color:#FFE7A3"/>
		<stop  offset="0.5" style="stop-color:#FFCA05"/>
		<stop  offset="1" style="stop-color:#FAAC18"/>
	</linearGradient>
	<path class="st12" d="M494.8,263c-0.7,4.1-2,8-3.7,11.8c-0.7,1.4-1.4,2.9-2.2,4.3L417,403.6h0l-22.4,38.8c-0.5,1-1.1,1.9-1.7,2.8
		c-8.3,12.4-21.7,20.5-36.5,22c-1.7,0.2-3.4,0.3-5.2,0.3H162.6c-17.9,0-34.5-9.6-43.5-25.1l-15.3-26.6l-70.4-122L24.9,279
		c-9-15.5-9-34.6,0-50.2l6.5-11.3l22.3-38.6L97,104l22.2-38.5c0.8-1.4,1.7-2.7,2.6-4c9.4-13.1,24.5-21.1,40.9-21.1h188.5
		c17.9,0,34.5,9.6,43.5,25.1l20.7,35.9l1.5,2.6l4.8,8.3l25.3,43.8l2.4,4.2l1.7,3l3.8,6.6l7,12l27.1,47c1.2,2,2.2,4.1,3,6.2
		c1.3,3.2,2.2,6.5,2.8,9.8C495.9,250.9,495.9,257,494.8,263z"/>
</g>
<path d="M494.8,353.7"/>
<linearGradient id="SVGID_2_" gradientUnits="userSpaceOnUse" x1="247.24" y1="360.195" x2="417" y2="360.195">
	<stop  offset="0" style="stop-color:#F37E5F"/>
	<stop  offset="0.5" style="stop-color:#EC1C24"/>
	<stop  offset="1" style="stop-color:#CF232A"/>
</linearGradient>
<path class="st13" d="M417,403.6l-22.4,38.8c-0.5,1-1.1,1.9-1.7,2.8c-8.3,12.4-21.7,20.5-36.5,22c-1.7,0.2-3.4,0.3-5.2,0.3h-104
	V252.9L417,403.6z"/>
<linearGradient id="SVGID_3_" gradientUnits="userSpaceOnUse" x1="247.24" y1="283.44" x2="494.8" y2="283.44">
	<stop  offset="0" style="stop-color:#FFF7A9"/>
	<stop  offset="0.5" style="stop-color:#FFF100"/>
	<stop  offset="1" style="stop-color:#FFD700"/>
</linearGradient>
<path class="st14" d="M494.8,244.9V263c-0.7,4.1-2,8-3.7,11.8c-0.7,1.4-1.4,2.9-2.2,4.3L417,403.6h0L247.2,252.9l203.9-89.6l3.8,6.6
	l7,12l27.1,47c1.2,2,2.2,4.1,3,6.2C493.3,238.3,494.2,241.6,494.8,244.9z"/>
<linearGradient id="SVGID_4_" gradientUnits="userSpaceOnUse" x1="121.78" y1="146.645" x2="451.11" y2="146.645">
	<stop  offset="0" style="stop-color:#2BC4F3"/>
	<stop  offset="0.5" style="stop-color:#00AEEE"/>
	<stop  offset="1" style="stop-color:#0095DA"/>
</linearGradient>
<path class="st15" d="M451.1,163.3l-203.9,89.6L121.8,61.5c9.4-13.1,24.5-21.1,40.9-21.1h188.5c17.9,0,34.5,9.6,43.5,25.1l20.7,35.9
	l1.5,2.6l4.8,8.3l25.3,43.8l2.4,4.2L451.1,163.3z"/>
<linearGradient id="SVGID_5_" gradientUnits="userSpaceOnUse" x1="18.15" y1="264.505" x2="247.24" y2="264.505">
	<stop  offset="0" style="stop-color:#B07EB7"/>
	<stop  offset="0.5" style="stop-color:#8C3D96"/>
	<stop  offset="1" style="stop-color:#762A90"/>
</linearGradient>
<path class="st16" d="M247.2,252.9v214.6h-84.6c-17.9,0-34.5-9.6-43.5-25.1l-15.3-26.6l-70.4-122L24.9,279c-9-15.5-9-34.6,0-50.2
	l6.5-11.3l22.3-38.6L97,104l22.2-38.5c0.8-1.4,1.7-2.7,2.6-4L247.2,252.9z"/>
</svg>
