<?xml version="1.0" encoding="utf-8"?>
<!-- Generator: Adobe Illustrator 24.0.1, SVG Export Plug-In . SVG Version: 6.00 Build 0)  -->
<svg version="1.1" id="Layer_1" xmlns="http://www.w3.org/2000/svg" xmlns:xlink="http://www.w3.org/1999/xlink" x="0px" y="0px"
	 viewBox="0 0 512 512" style="enable-background:new 0 0 512 512;" xml:space="preserve">
<style type="text/css">
	.st0{display:none;}
	.st1{display:inline;fill:#200A7F;stroke:#18E5EA;stroke-width:20;stroke-miterlimit:10;}
	.st2{display:inline;fill:#EF0B79;}
	.st3{display:inline;fill:#18E5EA;}
	.st4{display:inline;}
	.st5{fill:#E9F21C;}
	.st6{display:inline;fill:none;}
	.st7{display:inline;fill:#EF3A24;}
	.st8{font-family:'MyriadPro-Regular';}
	.st9{font-size:250px;}
	.st10{display:inline;fill:#FFFFFF;}
	.st11{fill:#C4C6C8;}
	.st12{fill:url(#SVGID_1_);}
	.st13{fill:url(#SVGID_2_);stroke:#E8E8E8;stroke-width:3;stroke-miterlimit:10;}
	.st14{fill:#FFFFFF;}
</style>
<g id="Layer_3" class="st0">
	<path class="st1" d="M401.1,212.2c5.1,15.3,7.9,31.7,7.9,48.8c0,85.3-69.2,154.5-154.5,154.5S100,346.3,100,261
		s69.2-154.5,154.5-154.5c51.2,0,96.6,24.9,124.7,63.3"/>
	<path class="st2" d="M333.4,255.2c0,4.2-3.3,7.7-7.4,7.7H174.9c-4.1,0-7.4-3.4-7.4-7.7l0,0c0-4.2,3.3-7.7,7.4-7.7H326
		C330.1,247.5,333.4,250.9,333.4,255.2L333.4,255.2z"/>
	<path class="st2" d="M333.4,284.8c0,4.2-3.3,7.6-7.4,7.6H174.9c-4.1,0-7.4-3.4-7.4-7.6l0,0c0-4.2,3.3-7.6,7.4-7.6H326
		C330.1,277.1,333.4,280.6,333.4,284.8L333.4,284.8z"/>
	<path class="st2" d="M333.4,313c0,4.2-3.3,7.7-7.4,7.7H174.9c-4.1,0-7.4-3.4-7.4-7.7l0,0c0-4.2,3.3-7.6,7.4-7.6H326
		C330.1,305.4,333.4,308.8,333.4,313L333.4,313z"/>
	<path class="st2" d="M333.4,338.4c0,4.2-3.3,7.7-7.4,7.7H174.9c-4.1,0-7.4-3.4-7.4-7.7l0,0c0-4.2,3.3-7.6,7.4-7.6H326
		C330.1,330.7,333.4,334.1,333.4,338.4L333.4,338.4z"/>
	<polygon class="st3" points="395,191.5 320.2,165.2 380.4,113.5 	"/>
	<g class="st4">
		<g>
			<g>
				<path class="st5" d="M241.5,239.2c-2.3,0-4.4-1.1-5.8-2.9l-18.8-24.8c-2.4-3.2-1.8-7.8,1.4-10.3c3.2-2.4,7.8-1.8,10.3,1.4
					l12.3,16.3l31-49.8c2.1-3.4,6.6-4.5,10.1-2.3c3.4,2.1,4.5,6.6,2.3,10.1l-36.7,58.9c-1.3,2-3.5,3.3-5.9,3.4
					C241.7,239.2,241.6,239.2,241.5,239.2z"/>
			</g>
		</g>
	</g>
</g>
<g id="Layer_2_2_" class="st0">
	<rect x="121" y="171.5" class="st6" width="298" height="251"/>
	<text transform="matrix(1 0 0 1 121 348.9979)" class="st7 st8 st9">24</text>
	<circle class="st10" cx="138.3" cy="91.8" r="17.3"/>
	<circle class="st10" cx="185.3" cy="91.8" r="17.3"/>
	<circle class="st10" cx="232.3" cy="91.8" r="17.3"/>
	<circle class="st10" cx="278.3" cy="91.8" r="17.3"/>
	<circle class="st10" cx="323.3" cy="91.8" r="17.3"/>
	<circle class="st10" cx="368.3" cy="91.8" r="17.3"/>
</g>
<g>
	<path class="st11" d="M350.3,54.5H161.7c-17.9,0-34.5,9.6-43.4,25.1L24,242.9c-9,15.5-9,34.6,0,50.2l94.3,163.3
		c9,15.5,25.5,25.1,43.4,25.1h188.5c17.9,0,34.5-9.6,43.4-25.1L488,293.1c9-15.5,9-34.6,0-50.2L393.7,79.6
		C384.8,64.1,368.2,54.5,350.3,54.5z"/>
</g>
<g>
	
		<linearGradient id="SVGID_1_" gradientUnits="userSpaceOnUse" x1="18.15" y1="-4897.9507" x2="495.6125" y2="-4897.9507" gradientTransform="matrix(1 0 0 -1 0 -4644.0005)">
		<stop  offset="0" style="stop-color:#7C76B7"/>
		<stop  offset="0.5" style="stop-color:#6561AB"/>
		<stop  offset="1" style="stop-color:#483F99"/>
	</linearGradient>
	<path class="st12" d="M491.1,274.8c-0.7,1.4-1.4,2.9-2.2,4.3l-94.3,163.3c-0.5,1-1.1,1.9-1.7,2.8c-8.3,12.4-21.7,20.5-36.5,22
		c-1.7,0.2-3.4,0.3-5.2,0.3H162.6c-17.9,0-34.5-9.6-43.5-25.1l-15.3-26.6l-70.4-122L24.9,279c-9-15.5-9-34.6,0-50.2l6.5-11.3
		l22.3-38.6l65.5-113.4c9-15.5,25.5-25.1,43.5-25.1h188.5c17.9,0,34.5,9.6,43.5,25.1l20.7,35.9l6.3,10.9l25.3,43.8l2.4,4.2l5.5,9.6
		l7,12l27.1,47c1.2,2,2.2,4.1,3,6.2C497.1,247.9,496.8,262.3,491.1,274.8z"/>
	
		<linearGradient id="SVGID_2_" gradientUnits="userSpaceOnUse" x1="18.15" y1="-79.3412" x2="495.6125" y2="-79.3412" gradientTransform="matrix(1 0 0 1 0 333.2912)">
		<stop  offset="0" style="stop-color:#7C76B7"/>
		<stop  offset="0.5" style="stop-color:#6561AB"/>
		<stop  offset="1" style="stop-color:#483F99"/>
	</linearGradient>
	<path class="st13" d="M491.1,274.8c-0.7,1.4-1.4,2.9-2.2,4.3l-94.3,163.3c-0.5,1-1.1,1.9-1.7,2.8c-8.3,12.4-21.7,20.5-36.5,22
		c-1.7,0.2-3.4,0.3-5.2,0.3H162.6c-17.9,0-34.5-9.6-43.5-25.1l-15.3-26.6l-70.4-122L24.9,279c-9-15.5-9-34.6,0-50.2l6.5-11.3
		l22.3-38.6l65.5-113.4c9-15.5,25.5-25.1,43.5-25.1h188.5c17.9,0,34.5,9.6,43.5,25.1l20.7,35.9l6.3,10.9l25.3,43.8l2.4,4.2l5.5,9.6
		l7,12l27.1,47c1.2,2,2.2,4.1,3,6.2C497.1,247.9,496.8,262.3,491.1,274.8z"/>
</g>
<path d="M494.8,353.7"/>
<g>
	<g transform="translate(0.000000,227.000000) scale(0.100000,-0.100000)">
		<path class="st14" d="M2135.9,1140.9c-400.9-83.7-716.6-277.6-1011.8-625.6C922.9,278.8,765.7-80.9,717.3-417.2
			c-66.1-467,44-909,336.3-1346.6c82.2-123.3,99.8-141,186.5-185c167.4-88.1,326-138,569.8-177.7c25-4.4,47-5.9,47-2.9
			c0,2.9-36.7,33.8-83.7,67.5c-132.1,99.9-345.1,324.6-440.5,465.5c-236.4,345.1-309.9,600.6-293.7,1017.7
			c5.9,168.9,16.2,237.9,45.5,333.4C1279.7,393.4,1809.9,831,2394.3,836.9l120.4,1.5l8.8,95.5c5.9,52.9,13.2,126.3,19.1,165.9
			l8.8,69l-145.4-1.5C2325.3,1167.3,2204.9,1154,2135.9,1140.9z"/>
		<path class="st14" d="M2319.4,729.7c-461.1-74.9-856.1-373-1057.3-797.4c-183.6-384.7-165.9-881.1,45.5-1296.7
			c152.7-299.6,414.1-558,723.9-713.7l116-57.3h514c553.6,0,649.1,8.8,869.3,82.2c105.7,33.8,199.7,79.3,118.9,57.3
			c-70.5-20.5-650.5-10.3-815,13.2c-851.7,124.8-1364.2,629.9-1364.2,1345.1c0,165.9,4.4,196.8,44.1,311.3
			c82.2,239.4,232,436.2,427.3,561c192.4,123.3,377.4,176.2,612.3,173.3c171.8,0,309.9-27.9,461.1-89.6
			c60.2-25,111.6-42.6,113.1-41.1c2.9,1.5,35.3,66.1,72,141c77.8,157.1,77.8,157.1-51.4,207.1c-190.9,74.9-337.7,104.3-550.7,110.1
			C2485.4,738.5,2360.5,735.5,2319.4,729.7z"/>
		<path class="st14" d="M2370.8,293.5c-129.2-25-345.1-126.3-440.5-205.6c-230.6-190.9-343.6-446.4-343.6-769.5
			c0-201.2,23.5-308.4,110.1-480.2C1865.7-1498,2221-1727.1,2760-1843.1c129.2-29.4,204.1-33.8,634.4-39.7l489-5.9l69,41.1
			c66.1,38.2,368.6,323.1,355.3,334.8c-2.9,1.5-58.7,0-123.4-7.3c-64.6-5.9-267.3-19.1-449.4-27.9
			c-696.1-32.3-1111.6,35.3-1447.9,237.9c-98.4,60.2-252.6,218.8-295.2,306.9c-151.3,314.3-64.6,684.3,202.6,863.5
			c315.7,210,747.4,129.2,951.6-179.1l36.7-54.3l141,74.9c77.8,42.6,143.9,77.8,146.8,80.8c17.6,14.7-63.1,127.8-167.4,233.5
			c-96.9,99.8-141,132.1-257,189.4C2827.5,312.6,2616.1,340.5,2370.8,293.5z"/>
	</g>
</g>
</svg>
