<?xml version="1.0" encoding="utf-8"?>
<!-- Generator: Adobe Illustrator 24.0.1, SVG Export Plug-In . SVG Version: 6.00 Build 0)  -->
<svg version="1.1" id="Layer_1" xmlns="http://www.w3.org/2000/svg" xmlns:xlink="http://www.w3.org/1999/xlink" x="0px" y="0px"
	 viewBox="0 0 512 512" style="enable-background:new 0 0 512 512;" xml:space="preserve">
<style type="text/css">
	.st0{display:none;}
	.st1{display:inline;fill:#200A7F;stroke:#18E5EA;stroke-width:20;stroke-miterlimit:10;}
	.st2{display:inline;fill:#EF0B79;}
	.st3{display:inline;fill:#18E5EA;}
	.st4{display:inline;}
	.st5{fill:#E9F21C;}
	.st6{display:inline;fill:none;}
	.st7{display:inline;fill:#EF3A24;}
	.st8{font-family:'MyriadPro-Regular';}
	.st9{font-size:250px;}
	.st10{display:inline;fill:#FFFFFF;}
	.st11{fill:#C4C6C8;}
	.st12{fill:url(#SVGID_1_);}
	.st13{fill:url(#SVGID_2_);stroke:#E8E8E8;stroke-width:3;stroke-miterlimit:10;}
	.st14{fill:#FFD517;}
	.st15{fill:#E5E5E5;}
	.st16{fill:#210B20;}
</style>
<g id="Layer_3" class="st0">
	<path class="st1" d="M401.1,212.2c5.1,15.3,7.9,31.7,7.9,48.8c0,85.3-69.2,154.5-154.5,154.5S100,346.3,100,261
		s69.2-154.5,154.5-154.5c51.2,0,96.6,24.9,124.7,63.3"/>
	<path class="st2" d="M333.4,255.2c0,4.2-3.3,7.7-7.4,7.7H174.9c-4.1,0-7.4-3.4-7.4-7.7l0,0c0-4.2,3.3-7.7,7.4-7.7H326
		C330.1,247.5,333.4,250.9,333.4,255.2L333.4,255.2z"/>
	<path class="st2" d="M333.4,284.8c0,4.2-3.3,7.6-7.4,7.6H174.9c-4.1,0-7.4-3.4-7.4-7.6l0,0c0-4.2,3.3-7.6,7.4-7.6H326
		C330.1,277.1,333.4,280.6,333.4,284.8L333.4,284.8z"/>
	<path class="st2" d="M333.4,313c0,4.2-3.3,7.7-7.4,7.7H174.9c-4.1,0-7.4-3.4-7.4-7.7l0,0c0-4.2,3.3-7.6,7.4-7.6H326
		C330.1,305.4,333.4,308.8,333.4,313L333.4,313z"/>
	<path class="st2" d="M333.4,338.4c0,4.2-3.3,7.7-7.4,7.7H174.9c-4.1,0-7.4-3.4-7.4-7.7l0,0c0-4.2,3.3-7.6,7.4-7.6H326
		C330.1,330.7,333.4,334.1,333.4,338.4L333.4,338.4z"/>
	<polygon class="st3" points="395,191.5 320.2,165.2 380.4,113.5 	"/>
	<g class="st4">
		<g>
			<g>
				<path class="st5" d="M241.5,239.2c-2.3,0-4.4-1.1-5.8-2.9l-18.8-24.8c-2.4-3.2-1.8-7.8,1.4-10.3c3.2-2.4,7.8-1.8,10.3,1.4
					l12.3,16.3l31-49.8c2.1-3.4,6.6-4.5,10.1-2.3c3.4,2.1,4.5,6.6,2.3,10.1l-36.7,58.9c-1.3,2-3.5,3.3-5.9,3.4
					C241.7,239.2,241.6,239.2,241.5,239.2z"/>
			</g>
		</g>
	</g>
</g>
<g id="Layer_2_2_" class="st0">
	<rect x="121" y="171.5" class="st6" width="298" height="251"/>
	<text transform="matrix(1 0 0 1 121 348.9979)" class="st7 st8 st9">24</text>
	<circle class="st10" cx="138.3" cy="91.8" r="17.3"/>
	<circle class="st10" cx="185.3" cy="91.8" r="17.3"/>
	<circle class="st10" cx="232.3" cy="91.8" r="17.3"/>
	<circle class="st10" cx="278.3" cy="91.8" r="17.3"/>
	<circle class="st10" cx="323.3" cy="91.8" r="17.3"/>
	<circle class="st10" cx="368.3" cy="91.8" r="17.3"/>
</g>
<g>
	<path class="st11" d="M350.3,54.5H161.7c-17.9,0-34.5,9.6-43.4,25.1L24,242.9c-9,15.5-9,34.6,0,50.2l94.3,163.3
		c9,15.5,25.5,25.1,43.4,25.1h188.5c17.9,0,34.5-9.6,43.4-25.1L488,293.1c9-15.5,9-34.6,0-50.2L393.7,79.6
		C384.8,64.1,368.2,54.5,350.3,54.5z"/>
</g>
<g>
	<radialGradient id="SVGID_1_" cx="256.8813" cy="253.95" r="226.4908" gradientUnits="userSpaceOnUse">
		<stop  offset="0" style="stop-color:#FFF7A9"/>
		<stop  offset="0.5" style="stop-color:#FFF100"/>
		<stop  offset="1" style="stop-color:#FFD700"/>
	</radialGradient>
	<path class="st12" d="M491.1,274.8c-0.7,1.4-1.4,2.9-2.2,4.3l-94.3,163.3c-0.5,1-1.1,1.9-1.7,2.8c-8.3,12.4-21.7,20.5-36.5,22
		c-1.7,0.2-3.4,0.3-5.2,0.3H162.6c-17.9,0-34.5-9.6-43.5-25.1l-15.3-26.6l-70.4-122L24.9,279c-9-15.5-9-34.6,0-50.2l6.5-11.3
		l22.3-38.6l65.5-113.4c9-15.5,25.5-25.1,43.5-25.1h188.5c17.9,0,34.5,9.6,43.5,25.1l20.7,35.9l6.3,10.9l25.3,43.8l2.4,4.2l5.5,9.6
		l7,12l27.1,47c1.2,2,2.2,4.1,3,6.2C497.1,247.9,496.8,262.3,491.1,274.8z"/>
	<radialGradient id="SVGID_2_" cx="256.8813" cy="253.95" r="226.4908" gradientUnits="userSpaceOnUse">
		<stop  offset="0" style="stop-color:#FFF7A9"/>
		<stop  offset="0.5" style="stop-color:#FFF100"/>
		<stop  offset="1" style="stop-color:#FFD700"/>
	</radialGradient>
	<path class="st13" d="M491.1,274.8c-0.7,1.4-1.4,2.9-2.2,4.3l-94.3,163.3c-0.5,1-1.1,1.9-1.7,2.8c-8.3,12.4-21.7,20.5-36.5,22
		c-1.7,0.2-3.4,0.3-5.2,0.3H162.6c-17.9,0-34.5-9.6-43.5-25.1l-15.3-26.6l-70.4-122L24.9,279c-9-15.5-9-34.6,0-50.2l6.5-11.3
		l22.3-38.6l65.5-113.4c9-15.5,25.5-25.1,43.5-25.1h188.5c17.9,0,34.5,9.6,43.5,25.1l20.7,35.9l6.3,10.9l25.3,43.8l2.4,4.2l5.5,9.6
		l7,12l27.1,47c1.2,2,2.2,4.1,3,6.2C497.1,247.9,496.8,262.3,491.1,274.8z"/>
</g>
<path class="st14" d="M291.8,289.3c-12,12-10.5,36.2-10.5,36.2h-60.8c0,0,1.3-24.2-10.5-36.2c-13.1-11.6-21.4-28.3-21.4-46.9
	c0-34.3,27.8-62.1,62.1-62.1s62.1,27.8,62.1,62.1C312.8,261,304.7,277.8,291.8,289.3L291.8,289.3z"/>
<g>
	<path class="st15" d="M283.1,344.6c0,3.2-2.6,5.8-5.8,5.8h-52.9c-3.2,0-5.8-2.6-5.8-5.8l0,0c0-3.2,2.6-5.8,5.8-5.8h52.7
		C280.3,338.8,283.1,341.4,283.1,344.6L283.1,344.6z"/>
	<path class="st15" d="M275.1,368.5c0,3.2-2.6,5.8-5.8,5.8h-37c-3.2,0-5.8-2.6-5.8-5.8l0,0c0-3.2,2.6-5.8,5.8-5.8h37
		C272.6,362.8,275.1,365.3,275.1,368.5L275.1,368.5z"/>
</g>
<g>
	<path class="st16" d="M295.1,291.5c13.9-12.6,21.8-30.4,21.8-49c0-36.4-29.8-66.2-66.2-66.2s-66.2,29.8-66.2,66.2
		c0,19.1,8.4,37.3,22.5,49.7c10.5,10.5,9.4,32.8,9.4,33c0,1.1,0.4,2.1,1.1,3c0.9,0.9,1.9,1.3,3,1.3h60.6c1.1,0,2.1-0.4,3-1.3
		c0.9-0.9,1.1-1.9,1.1-3c0-0.2-1.1-22.5,9.4-33C294.8,291.9,295.1,291.7,295.1,291.5z M289.1,286.1c-0.4,0.2-0.6,0.6-0.9,1.1
		c-9.4,10.1-10.9,26.6-11.1,34.3h-52.5c-0.2-7.9-1.9-25.1-12-35.1c-12.6-11.1-19.9-27-19.9-43.7c0-32.1,26.1-58,58-58
		c32.1,0,58,26.1,58,58C308.8,259.1,301.7,275.2,289.1,286.1z"/>
	<path class="st16" d="M250.7,193.4c-2.1,0-4.1,1.7-4.1,4.1c0,2.1,1.7,4.1,4.1,4.1c24,0,43.5,19.5,43.5,43.5c0,2.1,1.7,4.1,4.1,4.1
		c2.1,0,4.1-1.7,4.1-4.1C302.3,216.5,279.2,193.4,250.7,193.4z"/>
	<path class="st16" d="M287.1,344.6c0-5.6-4.5-9.9-9.9-9.9h-52.9c-5.6,0-9.9,4.5-9.9,9.9c0,5.6,4.5,9.9,9.9,9.9h52.7
		C282.6,354.4,287.1,350.1,287.1,344.6z M277.1,346.3h-52.7c-1.1,0-1.7-0.9-1.7-1.7c0-1.1,0.9-1.7,1.7-1.7h52.7
		c1.1,0,1.7,0.9,1.7,1.7C279,345.6,278.1,346.3,277.1,346.3z"/>
	<path class="st16" d="M269.4,358.7h-37c-5.6,0-9.9,4.5-9.9,9.9c0,5.6,4.5,9.9,9.9,9.9h37c5.6,0,9.9-4.5,9.9-9.9
		S274.7,358.7,269.4,358.7z M269.4,370.3h-37c-1.1,0-1.7-0.9-1.7-1.7c0-1.1,0.9-1.7,1.7-1.7h37c1.1,0,1.7,0.9,1.7,1.7
		C271.1,369.6,270.4,370.3,269.4,370.3z"/>
	<path class="st16" d="M254.8,152.5v-27.4c0-2.1-1.7-4.1-4.1-4.1c-2.1,0-4.1,1.7-4.1,4.1v27.6c0,2.1,1.7,4.1,4.1,4.1
		C253.1,156.5,254.8,154.8,254.8,152.5z"/>
	<path class="st16" d="M318.2,141.3c-1.9-1.3-4.3-0.6-5.6,1.1l-15.2,22.9c-1.3,1.9-0.6,4.3,1.1,5.6c0.6,0.4,1.5,0.6,2.1,0.6
		c1.3,0,2.6-0.6,3.4-1.7l15.2-22.9C320.5,145.2,319.9,142.6,318.2,141.3z"/>
	<path class="st16" d="M202.3,170.7c0.6,0,1.5-0.2,2.1-0.6c1.9-1.3,2.4-3.6,1.3-5.6L191,141.3c-1.3-1.9-3.6-2.4-5.6-1.3
		c-1.9,1.3-2.4,3.6-1.3,5.6l14.8,23.1C199.8,170,201.1,170.7,202.3,170.7z"/>
	<path class="st16" d="M145.6,190l24.2,13.1c0.6,0.4,1.3,0.4,1.9,0.4c1.5,0,2.8-0.9,3.6-2.1c1.1-1.9,0.4-4.5-1.7-5.6l-24.2-13.1
		c-1.9-1.1-4.5-0.4-5.6,1.7C143,186.5,143.7,188.9,145.6,190z"/>
	<path class="st16" d="M329.8,203.7c0.6,0,1.3-0.2,1.9-0.4l24.2-13.1c1.9-1.1,2.8-3.4,1.7-5.6c-1.1-1.9-3.4-2.8-5.6-1.7L327.8,196
		c-1.9,1.1-2.8,3.4-1.7,5.6C326.8,202.8,328.3,203.7,329.8,203.7z"/>
</g>
</svg>
