<?xml version="1.0" encoding="utf-8"?>
<!-- Generator: Adobe Illustrator 24.0.1, SVG Export Plug-In . SVG Version: 6.00 Build 0)  -->
<svg version="1.1" id="Layer_1" xmlns="http://www.w3.org/2000/svg" xmlns:xlink="http://www.w3.org/1999/xlink" x="0px" y="0px"
	 viewBox="0 0 512 512" style="enable-background:new 0 0 512 512;" xml:space="preserve">
<style type="text/css">
	.st0{display:none;}
	.st1{display:inline;fill:#200A7F;stroke:#18E5EA;stroke-width:20;stroke-miterlimit:10;}
	.st2{display:inline;fill:#EF0B79;}
	.st3{display:inline;fill:#18E5EA;}
	.st4{display:inline;}
	.st5{fill:#E9F21C;}
	.st6{display:inline;fill:none;}
	.st7{display:inline;fill:#EF3A24;}
	.st8{font-family:'MyriadPro-Regular';}
	.st9{font-size:250px;}
	.st10{display:inline;fill:#FFFFFF;}
	.st11{fill:#C4C6C8;}
	.st12{fill:url(#SVGID_1_);}
	.st13{fill:url(#SVGID_2_);stroke:#E8E8E8;stroke-width:3;stroke-miterlimit:10;}
	.st14{fill:#656D88;}
	.st15{fill:#ED5575;}
</style>
<g id="Layer_3" class="st0">
	<path class="st1" d="M401.1,212.2c5.1,15.3,7.9,31.7,7.9,48.8c0,85.3-69.2,154.5-154.5,154.5S100,346.3,100,261
		s69.2-154.5,154.5-154.5c51.2,0,96.6,24.9,124.7,63.3"/>
	<path class="st2" d="M333.4,255.2c0,4.2-3.3,7.7-7.4,7.7H174.9c-4.1,0-7.4-3.4-7.4-7.7l0,0c0-4.2,3.3-7.7,7.4-7.7H326
		C330.1,247.5,333.4,250.9,333.4,255.2L333.4,255.2z"/>
	<path class="st2" d="M333.4,284.8c0,4.2-3.3,7.6-7.4,7.6H174.9c-4.1,0-7.4-3.4-7.4-7.6l0,0c0-4.2,3.3-7.6,7.4-7.6H326
		C330.1,277.1,333.4,280.6,333.4,284.8L333.4,284.8z"/>
	<path class="st2" d="M333.4,313c0,4.2-3.3,7.7-7.4,7.7H174.9c-4.1,0-7.4-3.4-7.4-7.7l0,0c0-4.2,3.3-7.6,7.4-7.6H326
		C330.1,305.4,333.4,308.8,333.4,313L333.4,313z"/>
	<path class="st2" d="M333.4,338.4c0,4.2-3.3,7.7-7.4,7.7H174.9c-4.1,0-7.4-3.4-7.4-7.7l0,0c0-4.2,3.3-7.6,7.4-7.6H326
		C330.1,330.7,333.4,334.1,333.4,338.4L333.4,338.4z"/>
	<polygon class="st3" points="395,191.5 320.2,165.2 380.4,113.5 	"/>
	<g class="st4">
		<g>
			<g>
				<path class="st5" d="M241.5,239.2c-2.3,0-4.4-1.1-5.8-2.9l-18.8-24.8c-2.4-3.2-1.8-7.8,1.4-10.3c3.2-2.4,7.8-1.8,10.3,1.4
					l12.3,16.3l31-49.8c2.1-3.4,6.6-4.5,10.1-2.3c3.4,2.1,4.5,6.6,2.3,10.1l-36.7,58.9c-1.3,2-3.5,3.3-5.9,3.4
					C241.7,239.2,241.6,239.2,241.5,239.2z"/>
			</g>
		</g>
	</g>
</g>
<g id="Layer_2_2_" class="st0">
	<rect x="121" y="171.5" class="st6" width="298" height="251"/>
	<text transform="matrix(1 0 0 1 121 348.9979)" class="st7 st8 st9">24</text>
	<circle class="st10" cx="138.3" cy="91.8" r="17.3"/>
	<circle class="st10" cx="185.3" cy="91.8" r="17.3"/>
	<circle class="st10" cx="232.3" cy="91.8" r="17.3"/>
	<circle class="st10" cx="278.3" cy="91.8" r="17.3"/>
	<circle class="st10" cx="323.3" cy="91.8" r="17.3"/>
	<circle class="st10" cx="368.3" cy="91.8" r="17.3"/>
</g>
<g>
	<path class="st11" d="M350.3,54.5H161.7c-17.9,0-34.5,9.6-43.4,25.1L24,242.9c-9,15.5-9,34.6,0,50.2l94.3,163.3
		c9,15.5,25.5,25.1,43.4,25.1h188.5c17.9,0,34.5-9.6,43.4-25.1L488,293.1c9-15.5,9-34.6,0-50.2L393.7,79.6
		C384.8,64.1,368.2,54.5,350.3,54.5z"/>
</g>
<g>
	<radialGradient id="SVGID_1_" cx="256.8813" cy="253.95" r="226.4908" gradientUnits="userSpaceOnUse">
		<stop  offset="0" style="stop-color:#FFE7A3"/>
		<stop  offset="0.5" style="stop-color:#FFCA05"/>
		<stop  offset="1" style="stop-color:#FAAC18"/>
	</radialGradient>
	<path class="st12" d="M491.1,274.8c-0.7,1.4-1.4,2.9-2.2,4.3l-94.3,163.3c-0.5,1-1.1,1.9-1.7,2.8c-8.3,12.4-21.7,20.5-36.5,22
		c-1.7,0.2-3.4,0.3-5.2,0.3H162.6c-17.9,0-34.5-9.6-43.5-25.1l-15.3-26.6l-70.4-122L24.9,279c-9-15.5-9-34.6,0-50.2l6.5-11.3
		l22.3-38.6l65.5-113.4c9-15.5,25.5-25.1,43.5-25.1h188.5c17.9,0,34.5,9.6,43.5,25.1l20.7,35.9l6.3,10.9l25.3,43.8l2.4,4.2l5.5,9.6
		l7,12l27.1,47c1.2,2,2.2,4.1,3,6.2C497.1,247.9,496.8,262.3,491.1,274.8z"/>
	<radialGradient id="SVGID_2_" cx="256.8813" cy="253.95" r="226.4908" gradientUnits="userSpaceOnUse">
		<stop  offset="0" style="stop-color:#FFE7A3"/>
		<stop  offset="0.5" style="stop-color:#FFCA05"/>
		<stop  offset="1" style="stop-color:#FAAC18"/>
	</radialGradient>
	<path class="st13" d="M491.1,274.8c-0.7,1.4-1.4,2.9-2.2,4.3l-94.3,163.3c-0.5,1-1.1,1.9-1.7,2.8c-8.3,12.4-21.7,20.5-36.5,22
		c-1.7,0.2-3.4,0.3-5.2,0.3H162.6c-17.9,0-34.5-9.6-43.5-25.1l-15.3-26.6l-70.4-122L24.9,279c-9-15.5-9-34.6,0-50.2l6.5-11.3
		l22.3-38.6l65.5-113.4c9-15.5,25.5-25.1,43.5-25.1h188.5c17.9,0,34.5,9.6,43.5,25.1l20.7,35.9l6.3,10.9l25.3,43.8l2.4,4.2l5.5,9.6
		l7,12l27.1,47c1.2,2,2.2,4.1,3,6.2C497.1,247.9,496.8,262.3,491.1,274.8z"/>
</g>
<path d="M494.8,353.7"/>
<path class="st14" d="M182.9,362.7c-0.1-28.7-0.1-25.8-0.1-26c0-6.1,5-11.1,11.1-11.1h122c6.1,0,11.1,5,11.1,11.1
	c0,0.2,0-2.7-0.1,26c15.8,2.6,27.8,16.3,27.8,32.8H155.1C155.1,379,167.1,365.3,182.9,362.7z"/>
<path class="st14" d="M352,200.6c-11.2-44.8-54.5-77.9-90.6-77.9H250l16.5,37c28,4.8,48.8,26.3,54.5,48.9c9,35.9,1.2,56.6-6.5,81.1
	l0,0h33.5C355.3,266.7,361.8,240,352,200.6z"/>
<path class="st15" d="M255,236.1c-0.6-0.3-1.3-0.6-2-0.9c-23.7-11.9-39,10.5-41,11.6c-6.5,6.5-17,6.5-23.4,0L175,233.3
	c-4.3-4.3-4.3-11.4,0-15.7l25.3-25.3c0-18.3,14.7-33.1,33-33.1v-36.5H250c9.2,0,16.5,7.4,16.5,16.6v20.4c28,4.8,48.8,26.3,54.5,48.9
	c9,35.9,1.2,56.6-6.5,81.1c-2.4,7.5-6.7,19.9-1.8,36.1H198.6v-2.4c2.3-22.6,13.9-44.6,32.3-58.3C241.2,257.2,249.4,247.3,255,236.1z
	"/>
<path d="M260.5,362.3c0,3.1-2.5,5.5-5.5,5.5s-5.5-2.5-5.5-5.5s2.5-5.5,5.5-5.5S260.5,359.2,260.5,362.3z"/>
<path d="M227.6,260.5c-18.5,13.8-31.1,36-34.2,59.6c-8.9,0.3-16.1,7.6-16.1,16.6v21.6c-16.3,4.8-27.7,19.8-27.7,37.2
	c0,3.1,2.5,5.5,5.5,5.5h199.7c3.1,0,5.5-2.5,5.5-5.5c0-17.4-11.4-32.4-27.7-37.2v-21.6c0-8.8-6.9-16-15.5-16.6
	c-1.8-8.8-1-16.7,1.6-25h29.5c2.4,0,4.6-1.6,5.3-3.9c7.2-23.2,14.1-51.4,3.9-92c-11.8-47.4-57.5-82.1-95.9-82.1
	c-8.9,0-19.3,0-28.1,0c-3.1,0-5.5,2.5-5.5,5.5V154c-17.9,2.6-31.8,17.5-32.9,35.9l-23.7,23.7c-6.5,6.5-6.5,17,0,23.5l13.6,13.6
	c8.6,8.6,22.4,8.6,31,0.3c3.5-2.8,14.3-18.5,31.6-12.3C242.1,247.2,235.4,254.6,227.6,260.5z M321.5,336.8v20h-44.4
	c-3.1,0-5.5,2.5-5.5,5.5s2.5,5.5,5.5,5.5h44.4c13.2,0,24.6,9.2,27.2,22.2H161.2c2.6-13,14-22.2,27.2-22.2h44.4
	c3.1,0,5.5-2.5,5.5-5.5s-2.5-5.5-5.5-5.5h-44.4v-20c0-3.1,2.5-5.5,5.5-5.5h122C319,331.2,321.5,333.7,321.5,336.8z M346.6,201.9
	c8.9,35.7,4,60.3-2.6,82.1h-21.9c6.9-21.8,12.7-43.1,4.3-76.9c-5.8-23.4-26.4-45.5-54.3-52.1v-15.9c0-3.8-1-7.3-2.6-10.4
	C301.4,133.3,336.9,163.2,346.6,201.9z M257.6,242.9c11.2,3,20.7-0.5,28-4.1c2.7-1.4,3.9-4.7,2.5-7.4c-1.4-2.7-4.7-3.9-7.4-2.5
	c-8.8,4.3-16.3,5.8-25.2,1.4c-10.2-5.1-20.7-5.4-30.4-0.8c-8.2,3.9-13.1,9.6-17,13.4c-4.3,4.3-11.3,4.3-15.6,0l-13.6-13.6
	c-2.2-2.2-2.2-5.7,0-7.8l25.3-25.3c1-1,1.6-2.5,1.6-3.9c0-15.2,12.3-27.6,27.4-27.6c3.1,0,5.5-2.5,5.5-5.5v-30.9H250
	c6.1,0,11,4.9,11,11v20.4c0,2.7,1.9,5,4.6,5.5c25.7,4.4,44.9,24.2,50,44.8c8.3,33.2,1.9,51.8-6.4,78.1c-3.3,10.3-5.6,19.4-3.5,32.2
	H204.6c3-20.2,13.9-39,29.6-50.7C243.7,262.3,251.7,253.2,257.6,242.9z"/>
<path d="M238.3,192.5h-11.1c-3.1,0-5.5,2.5-5.5,5.5s2.5,5.5,5.5,5.5h11.1c3.1,0,5.5-2.5,5.5-5.5S241.3,192.5,238.3,192.5z"/>
</svg>
