<?xml version="1.0" encoding="utf-8"?>
<!-- Generator: Adobe Illustrator 24.0.1, SVG Export Plug-In . SVG Version: 6.00 Build 0)  -->
<svg version="1.1" id="Layer_1" xmlns="http://www.w3.org/2000/svg" xmlns:xlink="http://www.w3.org/1999/xlink" x="0px" y="0px"
	 viewBox="0 0 512 512" style="enable-background:new 0 0 512 512;" xml:space="preserve">
<style type="text/css">
	.st0{display:none;}
	.st1{display:inline;fill:#200A7F;stroke:#18E5EA;stroke-width:20;stroke-miterlimit:10;}
	.st2{display:inline;fill:#EF0B79;}
	.st3{display:inline;fill:#18E5EA;}
	.st4{display:inline;}
	.st5{fill:#E9F21C;}
	.st6{display:inline;fill:none;}
	.st7{display:inline;fill:#EF3A24;}
	.st8{font-family:'MyriadPro-Regular';}
	.st9{font-size:250px;}
	.st10{display:inline;fill:#FFFFFF;}
	.st11{fill:#C4C6C8;}
	.st12{fill:url(#SVGID_1_);}
	.st13{fill:url(#SVGID_2_);stroke:#E8E8E8;stroke-width:3;stroke-miterlimit:10;}
	.st14{fill:#FFFFFF;}
</style>
<g id="Layer_3" class="st0">
	<path class="st1" d="M401.1,212.2c5.1,15.3,7.9,31.7,7.9,48.8c0,85.3-69.2,154.5-154.5,154.5S100,346.3,100,261
		s69.2-154.5,154.5-154.5c51.2,0,96.6,24.9,124.7,63.3"/>
	<path class="st2" d="M333.4,255.2c0,4.2-3.3,7.7-7.4,7.7H174.9c-4.1,0-7.4-3.4-7.4-7.7l0,0c0-4.2,3.3-7.7,7.4-7.7H326
		C330.1,247.5,333.4,250.9,333.4,255.2L333.4,255.2z"/>
	<path class="st2" d="M333.4,284.8c0,4.2-3.3,7.6-7.4,7.6H174.9c-4.1,0-7.4-3.4-7.4-7.6l0,0c0-4.2,3.3-7.6,7.4-7.6H326
		C330.1,277.1,333.4,280.6,333.4,284.8L333.4,284.8z"/>
	<path class="st2" d="M333.4,313c0,4.2-3.3,7.7-7.4,7.7H174.9c-4.1,0-7.4-3.4-7.4-7.7l0,0c0-4.2,3.3-7.6,7.4-7.6H326
		C330.1,305.4,333.4,308.8,333.4,313L333.4,313z"/>
	<path class="st2" d="M333.4,338.4c0,4.2-3.3,7.7-7.4,7.7H174.9c-4.1,0-7.4-3.4-7.4-7.7l0,0c0-4.2,3.3-7.6,7.4-7.6H326
		C330.1,330.7,333.4,334.1,333.4,338.4L333.4,338.4z"/>
	<polygon class="st3" points="395,191.5 320.2,165.2 380.4,113.5 	"/>
	<g class="st4">
		<g>
			<g>
				<path class="st5" d="M241.5,239.2c-2.3,0-4.4-1.1-5.8-2.9l-18.8-24.8c-2.4-3.2-1.8-7.8,1.4-10.3c3.2-2.4,7.8-1.8,10.3,1.4
					l12.3,16.3l31-49.8c2.1-3.4,6.6-4.5,10.1-2.3c3.4,2.1,4.5,6.6,2.3,10.1l-36.7,58.9c-1.3,2-3.5,3.3-5.9,3.4
					C241.7,239.2,241.6,239.2,241.5,239.2z"/>
			</g>
		</g>
	</g>
</g>
<g id="Layer_2_2_" class="st0">
	<rect x="121" y="171.5" class="st6" width="298" height="251"/>
	<text transform="matrix(1 0 0 1 121 348.9979)" class="st7 st8 st9">24</text>
	<circle class="st10" cx="138.3" cy="91.8" r="17.3"/>
	<circle class="st10" cx="185.3" cy="91.8" r="17.3"/>
	<circle class="st10" cx="232.3" cy="91.8" r="17.3"/>
	<circle class="st10" cx="278.3" cy="91.8" r="17.3"/>
	<circle class="st10" cx="323.3" cy="91.8" r="17.3"/>
	<circle class="st10" cx="368.3" cy="91.8" r="17.3"/>
</g>
<g>
	<path class="st11" d="M350.3,54.5H161.7c-17.9,0-34.5,9.6-43.4,25.1L24,242.9c-9,15.5-9,34.6,0,50.2l94.3,163.3
		c9,15.5,25.5,25.1,43.4,25.1h188.5c17.9,0,34.5-9.6,43.4-25.1L488,293.1c9-15.5,9-34.6,0-50.2L393.7,79.6
		C384.8,64.1,368.2,54.5,350.3,54.5z"/>
</g>
<g>
	
		<radialGradient id="SVGID_1_" cx="256.8813" cy="-78.05" r="226.4908" gradientTransform="matrix(1 0 0 1 0 332)" gradientUnits="userSpaceOnUse">
		<stop  offset="5.618000e-03" style="stop-color:#FCE6F0"/>
		<stop  offset="0.4494" style="stop-color:#F9C9DE"/>
		<stop  offset="1" style="stop-color:#F7B2D0"/>
	</radialGradient>
	<path class="st12" d="M491.1,274.8c-0.7,1.4-1.4,2.9-2.2,4.3l-94.3,163.3c-0.5,1-1.1,1.9-1.7,2.8c-8.3,12.4-21.7,20.5-36.5,22
		c-1.7,0.2-3.4,0.3-5.2,0.3H162.6c-17.9,0-34.5-9.6-43.5-25.1l-15.3-26.6l-70.4-122L24.9,279c-9-15.5-9-34.6,0-50.2l6.5-11.3
		l22.3-38.6l65.5-113.4c9-15.5,25.5-25.1,43.5-25.1h188.5c17.9,0,34.5,9.6,43.5,25.1l20.7,35.9l6.3,10.9l25.3,43.8l2.4,4.2l5.5,9.6
		l7,12l27.1,47c1.2,2,2.2,4.1,3,6.2C497.1,247.9,496.8,262.3,491.1,274.8z"/>
	<radialGradient id="SVGID_2_" cx="256.8813" cy="253.95" r="226.4908" gradientUnits="userSpaceOnUse">
		<stop  offset="5.618000e-03" style="stop-color:#FCE6F0"/>
		<stop  offset="0.4494" style="stop-color:#F9C9DE"/>
		<stop  offset="1" style="stop-color:#F7B2D0"/>
	</radialGradient>
	<path class="st13" d="M491.1,274.8c-0.7,1.4-1.4,2.9-2.2,4.3l-94.3,163.3c-0.5,1-1.1,1.9-1.7,2.8c-8.3,12.4-21.7,20.5-36.5,22
		c-1.7,0.2-3.4,0.3-5.2,0.3H162.6c-17.9,0-34.5-9.6-43.5-25.1l-15.3-26.6l-70.4-122L24.9,279c-9-15.5-9-34.6,0-50.2l6.5-11.3
		l22.3-38.6l65.5-113.4c9-15.5,25.5-25.1,43.5-25.1h188.5c17.9,0,34.5,9.6,43.5,25.1l20.7,35.9l6.3,10.9l25.3,43.8l2.4,4.2l5.5,9.6
		l7,12l27.1,47c1.2,2,2.2,4.1,3,6.2C497.1,247.9,496.8,262.3,491.1,274.8z"/>
</g>
<g>
	<g>
		<path class="st14" d="M333.8,201.4H152.7c-10.7,0-19.4,8.7-19.4,19.4v12.9c0,46.2,25.5,88,66.6,109.3c3.2,1.6,7.1,0.4,8.7-2.8
			c1.6-3.2,0.4-7.1-2.8-8.7c-36.7-19-59.6-56.5-59.6-97.8v-12.9c0-3.6,2.9-6.5,6.5-6.5h181.2c3.6,0,6.5,2.9,6.5,6.5v12.9
			c0,41.3-22.8,78.8-59.6,97.8c-3.2,1.6-4.4,5.6-2.8,8.7c1.2,2.2,3.4,3.5,5.8,3.5c1,0,2-0.2,3-0.7c41.1-21.2,66.6-63.1,66.6-109.3
			v-12.9C353.2,210.2,344.5,201.4,333.8,201.4z"/>
	</g>
</g>
<g>
	<g>
		<path class="st14" d="M391.6,334.8c-1-2.4-3.4-4-6-4H100.9c-2.6,0-5,1.6-6,4s-0.5,5.2,1.4,7.1l14.5,14.5
			c8.6,8.6,19.9,13.3,32,13.3h200.8c12.1,0,23.5-4.7,32.1-13.3l14.5-14.5C392,340,392.6,337.3,391.6,334.8z M366.5,347.3
			c-6.1,6.1-14.2,9.5-22.9,9.5H142.9c-8.6,0-16.8-3.4-22.9-9.5l-3.5-3.5H370L366.5,347.3z"/>
	</g>
</g>
<g>
	<g>
		<path class="st14" d="M392.5,232c-17.4-11.2-45.3,1-48.4,2.4c-3.2,1.5-4.7,5.3-3.2,8.6s5.3,4.7,8.6,3.2c6.2-2.8,26.2-9.6,36-3.2
			c4.4,2.8,6.6,8.3,6.6,16.8c0,25.9-52.3,41.6-72.4,45.4L315,306c-3.5,0.7-5.8,4.1-5.1,7.6c0.6,3.1,3.3,5.2,6.3,5.2
			c0.4,0,0.8,0,1.3-0.1l4.5-0.9c3.4-0.6,82.9-16.2,82.9-58.1C405,246.7,400.8,237.4,392.5,232z"/>
	</g>
</g>
<g>
	<g>
		<path class="st14" d="M293.6,147.2c10.5-13.1,10.5-33.7,0-46.9c-2.2-2.8-6.3-3.3-9.1-1c-2.8,2.2-3.2,6.3-1,9.1
			c6.7,8.3,6.7,22.4,0,30.7c-10.5,13.1-10.5,33.7,0,46.9c1.3,1.6,3.2,2.4,5.1,2.4c1.4,0,2.8-0.5,4-1.4c2.8-2.2,3.2-6.3,1-9.1
			C286.9,169.7,286.9,155.6,293.6,147.2z"/>
	</g>
</g>
<g>
	<g>
		<path class="st14" d="M254.7,147.2c10.5-13.1,10.5-33.7,0-46.9c-2.2-2.8-6.3-3.2-9.1-1c-2.8,2.2-3.2,6.3-1,9.1
			c6.7,8.3,6.7,22.4,0,30.7c-10.5,13.1-10.5,33.7,0,46.9c1.3,1.6,3.2,2.4,5.1,2.4c1.4,0,2.8-0.5,4-1.4c2.8-2.2,3.2-6.3,1-9.1
			C248.1,169.7,248.1,155.6,254.7,147.2z"/>
	</g>
</g>
<g>
	<g>
		<path class="st14" d="M216,147.3c10.5-13.1,10.5-33.7,0-46.9c-2.2-2.8-6.3-3.3-9.1-1c-2.8,2.2-3.2,6.3-1,9.1
			c6.7,8.3,6.7,22.4,0,30.7c-10.5,13.1-10.5,33.7,0,46.9c1.3,1.6,3.2,2.4,5.1,2.4c1.4,0,2.8-0.5,4-1.4c2.8-2.2,3.2-6.3,1-9.1
			C209.3,169.7,209.3,155.6,216,147.3z"/>
	</g>
</g>
</svg>
