<?xml version="1.0" encoding="utf-8"?>
<!-- Generator: Adobe Illustrator 24.0.1, SVG Export Plug-In . SVG Version: 6.00 Build 0)  -->
<svg version="1.1" id="Layer_1" xmlns="http://www.w3.org/2000/svg" xmlns:xlink="http://www.w3.org/1999/xlink" x="0px" y="0px"
	 viewBox="0 0 512 512" style="enable-background:new 0 0 512 512;" xml:space="preserve">
<style type="text/css">
	.st0{display:none;}
	.st1{display:inline;fill:#200A7F;stroke:#18E5EA;stroke-width:20;stroke-miterlimit:10;}
	.st2{display:inline;fill:#EF0B79;}
	.st3{display:inline;fill:#18E5EA;}
	.st4{display:inline;}
	.st5{fill:#E9F21C;}
	.st6{display:inline;fill:none;}
	.st7{display:inline;fill:#EF3A24;}
	.st8{font-family:'MyriadPro-Regular';}
	.st9{font-size:250px;}
	.st10{display:inline;fill:#FFFFFF;}
	.st11{fill:#C4C6C8;}
	.st12{fill:url(#SVGID_1_);}
	.st13{fill:url(#SVGID_2_);stroke:#E8E8E8;stroke-width:3;stroke-miterlimit:10;}
	.st14{fill:#231F20;}
	.st15{fill:#ECEFF1;}
	.st16{fill:#388E3C;}
	.st17{fill:#2E7D32;}
	.st18{fill:#FAFAFA;}
	.st19{fill:#E3E4D8;}
	.st20{fill:#D0CEBD;}
	.st21{fill:#B53438;}
	.st22{fill:#FFFFFF;}
	.st23{fill:#FFE100;}
	.st24{fill:#FDCC00;}
	.st25{fill:#FFA800;}
	.st26{fill:#3B5999;stroke:#FAFDFF;stroke-width:2;stroke-miterlimit:10;}
</style>
<g id="Layer_3" class="st0">
	<path class="st1" d="M401.1,212.2c5.1,15.3,7.9,31.7,7.9,48.8c0,85.3-69.2,154.5-154.5,154.5S100,346.3,100,261
		s69.2-154.5,154.5-154.5c51.2,0,96.6,24.9,124.7,63.3"/>
	<path class="st2" d="M333.4,255.2c0,4.2-3.3,7.7-7.4,7.7H174.9c-4.1,0-7.4-3.4-7.4-7.7l0,0c0-4.2,3.3-7.7,7.4-7.7H326
		C330.1,247.5,333.4,250.9,333.4,255.2L333.4,255.2z"/>
	<path class="st2" d="M333.4,284.8c0,4.2-3.3,7.6-7.4,7.6H174.9c-4.1,0-7.4-3.4-7.4-7.6l0,0c0-4.2,3.3-7.6,7.4-7.6H326
		C330.1,277.1,333.4,280.6,333.4,284.8L333.4,284.8z"/>
	<path class="st2" d="M333.4,313c0,4.2-3.3,7.7-7.4,7.7H174.9c-4.1,0-7.4-3.4-7.4-7.7l0,0c0-4.2,3.3-7.6,7.4-7.6H326
		C330.1,305.4,333.4,308.8,333.4,313L333.4,313z"/>
	<path class="st2" d="M333.4,338.4c0,4.2-3.3,7.7-7.4,7.7H174.9c-4.1,0-7.4-3.4-7.4-7.7l0,0c0-4.2,3.3-7.6,7.4-7.6H326
		C330.1,330.7,333.4,334.1,333.4,338.4L333.4,338.4z"/>
	<polygon class="st3" points="395,191.5 320.2,165.2 380.4,113.5 	"/>
	<g class="st4">
		<g>
			<g>
				<path class="st5" d="M241.5,239.2c-2.3,0-4.4-1.1-5.8-2.9l-18.8-24.8c-2.4-3.2-1.8-7.8,1.4-10.3c3.2-2.4,7.8-1.8,10.3,1.4
					l12.3,16.3l31-49.8c2.1-3.4,6.6-4.5,10.1-2.3c3.4,2.1,4.5,6.6,2.3,10.1l-36.7,58.9c-1.3,2-3.5,3.3-5.9,3.4
					C241.7,239.2,241.6,239.2,241.5,239.2z"/>
			</g>
		</g>
	</g>
</g>
<g id="Layer_2_2_" class="st0">
	<rect x="121" y="171.5" class="st6" width="298" height="251"/>
	<text transform="matrix(1 0 0 1 121 348.9979)" class="st7 st8 st9">24</text>
	<circle class="st10" cx="138.3" cy="91.8" r="17.3"/>
	<circle class="st10" cx="185.3" cy="91.8" r="17.3"/>
	<circle class="st10" cx="232.3" cy="91.8" r="17.3"/>
	<circle class="st10" cx="278.3" cy="91.8" r="17.3"/>
	<circle class="st10" cx="323.3" cy="91.8" r="17.3"/>
	<circle class="st10" cx="368.3" cy="91.8" r="17.3"/>
</g>
<g>
	<path class="st11" d="M350.3,54.5H161.7c-17.9,0-34.5,9.6-43.4,25.1L24,242.9c-9,15.5-9,34.6,0,50.2l94.3,163.3
		c9,15.5,25.5,25.1,43.4,25.1h188.5c17.9,0,34.5-9.6,43.4-25.1L488,293.1c9-15.5,9-34.6,0-50.2L393.7,79.6
		C384.8,64.1,368.2,54.5,350.3,54.5z"/>
</g>
<g>
	<linearGradient id="SVGID_1_" gradientUnits="userSpaceOnUse" x1="18.15" y1="253.95" x2="495.6125" y2="253.95">
		<stop  offset="0" style="stop-color:#2BC4F3"/>
		<stop  offset="0.5" style="stop-color:#00AEEE"/>
		<stop  offset="1" style="stop-color:#0095DA"/>
	</linearGradient>
	<path class="st12" d="M491.1,274.8c-0.7,1.4-1.4,2.9-2.2,4.3l-94.3,163.3c-0.5,1-1.1,1.9-1.7,2.8c-8.3,12.4-21.7,20.5-36.5,22
		c-1.7,0.2-3.4,0.3-5.2,0.3H162.6c-17.9,0-34.5-9.6-43.5-25.1l-15.3-26.6l-70.4-122L24.9,279c-9-15.5-9-34.6,0-50.2l6.5-11.3
		l22.3-38.6l65.5-113.4c9-15.5,25.5-25.1,43.5-25.1h188.5c17.9,0,34.5,9.6,43.5,25.1l20.7,35.9l6.3,10.9l25.3,43.8l2.4,4.2l5.5,9.6
		l7,12l27.1,47c1.2,2,2.2,4.1,3,6.2C497.1,247.9,496.8,262.3,491.1,274.8z"/>
	<linearGradient id="SVGID_2_" gradientUnits="userSpaceOnUse" x1="18.15" y1="253.95" x2="495.6125" y2="253.95">
		<stop  offset="0" style="stop-color:#2BC4F3"/>
		<stop  offset="0.5" style="stop-color:#00AEEE"/>
		<stop  offset="1" style="stop-color:#0095DA"/>
	</linearGradient>
	<path class="st13" d="M491.1,274.8c-0.7,1.4-1.4,2.9-2.2,4.3l-94.3,163.3c-0.5,1-1.1,1.9-1.7,2.8c-8.3,12.4-21.7,20.5-36.5,22
		c-1.7,0.2-3.4,0.3-5.2,0.3H162.6c-17.9,0-34.5-9.6-43.5-25.1l-15.3-26.6l-70.4-122L24.9,279c-9-15.5-9-34.6,0-50.2l6.5-11.3
		l22.3-38.6l65.5-113.4c9-15.5,25.5-25.1,43.5-25.1h188.5c17.9,0,34.5,9.6,43.5,25.1l20.7,35.9l6.3,10.9l25.3,43.8l2.4,4.2l5.5,9.6
		l7,12l27.1,47c1.2,2,2.2,4.1,3,6.2C497.1,247.9,496.8,262.3,491.1,274.8z"/>
</g>
<path d="M494.8,353.7"/>
<path class="st14" d="M395.2,424.5c0,6.3-4,11.5-8.9,11.5H136.9c-4.9,0-8.9-5.1-8.9-11.5v-17.2c0-6.3,4-11.5,8.9-11.5h249.4
	c4.9,0,8.9,5.1,8.9,11.5L395.2,424.5L395.2,424.5z"/>
<path class="st15" d="M188.6,413.4h-19.3c-0.8,0-1.4-0.6-1.4-1.4c0-0.8,0-26.8,0-27.6c0-0.8,0.6-1.4,1.4-1.4h19.3
	c0.8,0,1.4,0.6,1.4,1.4V412C190,412.8,189.3,413.4,188.6,413.4z"/>
<g>
	<path class="st16" d="M174.8,391.3h-5.5c-0.8,0-1.4-0.6-1.4-1.4c0-0.8,0.6-1.4,1.4-1.4h5.5c0.8,0,1.4,0.6,1.4,1.4
		C176.2,390.7,175.5,391.3,174.8,391.3z"/>
	<path class="st16" d="M174.8,396.8h-5.5c-0.8,0-1.4-0.6-1.4-1.4s0.6-1.4,1.4-1.4h5.5c0.8,0,1.4,0.6,1.4,1.4
		C176.2,396.2,175.5,396.8,174.8,396.8z"/>
	<path class="st16" d="M174.8,402.4h-5.5c-0.8,0-1.4-0.6-1.4-1.4c0-0.8,0.6-1.4,1.4-1.4h5.5c0.8,0,1.4,0.6,1.4,1.4
		C176.2,401.7,175.5,402.4,174.8,402.4z"/>
	<path class="st16" d="M174.8,407.9h-5.5c-0.8,0-1.4-0.6-1.4-1.4c0-0.8,0.6-1.4,1.4-1.4h5.5c0.8,0,1.4,0.6,1.4,1.4
		C176.2,407.3,175.5,407.9,174.8,407.9z"/>
	<path class="st16" d="M183.1,391.3h-2.8c-0.8,0-1.4-0.6-1.4-1.4c0-0.8,0.6-1.4,1.4-1.4h2.8c0.8,0,1.4,0.6,1.4,1.4
		C184.4,390.7,183.8,391.3,183.1,391.3z"/>
	<path class="st16" d="M183.1,396.8h-2.8c-0.8,0-1.4-0.6-1.4-1.4s0.6-1.4,1.4-1.4h2.8c0.8,0,1.4,0.6,1.4,1.4
		C184.4,396.2,183.8,396.8,183.1,396.8z"/>
	<path class="st16" d="M183.1,402.4h-2.8c-0.8,0-1.4-0.6-1.4-1.4c0-0.8,0.6-1.4,1.4-1.4h2.8c0.8,0,1.4,0.6,1.4,1.4
		C184.4,401.7,183.8,402.4,183.1,402.4z"/>
	<path class="st16" d="M183.1,407.9h-2.8c-0.8,0-1.4-0.6-1.4-1.4c0-0.8,0.6-1.4,1.4-1.4h2.8c0.8,0,1.4,0.6,1.4,1.4
		C184.4,407.3,183.8,407.9,183.1,407.9z"/>
</g>
<path class="st17" d="M170.1,377.8c-0.3-0.3-0.7-0.4-1.1-0.3l-22.1,4.1c-0.7,0.1-1.1,0.7-1.1,1.4v30.3c0,0.7,0.5,1.2,1.1,1.4
	l22.1,4.1c0.1,0,0.2,0,0.3,0c0.3,0,0.6-0.1,0.9-0.3c0.3-0.3,0.5-0.7,0.5-1.1v-38.6C170.6,378.5,170.5,378.1,170.1,377.8z"/>
<path class="st18" d="M164.8,402.8l-4.4-5l4.4-5.7c0.5-0.6,0.4-1.5-0.2-1.9c-0.6-0.5-1.5-0.4-1.9,0.2l-4.1,5.3l-3.4-3.9
	c-0.5-0.6-1.4-0.6-1.9-0.1c-0.6,0.5-0.6,1.4-0.1,1.9l3.8,4.3l-3.8,4.9c-0.5,0.6-0.4,1.5,0.2,1.9c0.3,0.2,0.6,0.3,0.9,0.3
	c0.4,0,0.8-0.2,1.1-0.5l3.5-4.5l4,4.6c0.3,0.3,0.7,0.5,1,0.5c0.3,0,0.6-0.1,0.9-0.3C165.2,404.3,165.3,403.4,164.8,402.8z"/>
<path class="st19" d="M254.8,413.9H220v-47.8h27l7.8,7.8V413.9z"/>
<path class="st20" d="M247,366.1v7.8h7.8L247,366.1z"/>
<path class="st21" d="M220,400.9h34.8v15.7H220V400.9z"/>
<g>
	<path class="st22" d="M225.3,413.9c-0.5,0-0.9-0.4-0.9-0.9v-8.7c0-0.5,0.4-0.9,0.9-0.9c0.5,0,0.9,0.4,0.9,0.9v8.7
		C226.1,413.5,225.7,413.9,225.3,413.9z"/>
	<path class="st22" d="M249.6,405.2h-5.2c-0.5,0-0.9-0.4-0.9-0.9c0-0.5,0.4-0.9,0.9-0.9h5.2c0.5,0,0.9,0.4,0.9,0.9
		C250.5,404.8,250.1,405.2,249.6,405.2z"/>
	<path class="st22" d="M249.6,409.6h-5.2c-0.5,0-0.9-0.4-0.9-0.9s0.4-0.9,0.9-0.9h5.2c0.5,0,0.9,0.4,0.9,0.9
		S250.1,409.6,249.6,409.6z"/>
	<path class="st22" d="M244.4,413.9c-0.5,0-0.9-0.4-0.9-0.9v-8.7c0-0.5,0.4-0.9,0.9-0.9c0.5,0,0.9,0.4,0.9,0.9v8.7
		C245.3,413.5,244.9,413.9,244.4,413.9z"/>
</g>
<path class="st21" d="M236.8,375.5c-0.1,0-1.2,1.5,0.1,2.8C237.7,376.4,236.9,375.5,236.8,375.5 M237.3,382.7
	c-0.6,2.1-1.4,4.4-2.3,6.5c1.8-0.7,3.8-1.3,5.6-1.7C239.5,386.1,238.3,384.4,237.3,382.7 M243.8,388.3c0.7,0.5,0.9,0.8,1.3,0.8
	c0.2,0,0.8,0,1-0.4c0.1-0.2,0.2-0.3,0.2-0.4c-0.1-0.1-0.2-0.2-1-0.2C244.9,388.3,244.4,388.3,243.8,388.3 M232,392.2
	c-1.9,1-2.6,1.9-2.7,2.3c0,0.1,0,0.3,0.4,0.6C229.8,395.1,230.6,394.7,232,392.2 M229.7,396.5c-0.3,0-0.6-0.1-0.8-0.3
	c-0.9-0.7-1-1.4-1-1.9c0.2-1.4,1.9-2.9,5.2-4.3c1.3-2.8,2.5-6.3,3.3-9.2c-0.9-1.9-1.7-4.3-1.1-5.7c0.2-0.5,0.5-0.9,1-1
	c0.2-0.1,0.7-0.1,0.9-0.1c0.5,0,0.9,0.5,1.1,0.9c0.4,0.7,0.4,1.4,0.3,2.2c-0.1,0.7-0.2,1.4-0.3,2.1c-0.1,0.5-0.2,1-0.3,1.5
	c1.2,2.4,2.8,4.8,4.4,6.5c1.1-0.2,2.1-0.3,2.9-0.3c1.4,0,2.2,0.3,2.5,1c0.3,0.5,0.2,1.2-0.3,1.8c-0.5,0.7-1.1,1-1.9,1
	c-1.1,0-2.3-0.7-3.7-2c-2.5,0.5-5.3,1.4-7.6,2.4c-0.7,1.5-1.4,2.7-2.1,3.6C231.2,396,230.4,396.5,229.7,396.5"/>
<path class="st22" d="M227.9,410.5h-2.6c-0.5,0-0.9-0.4-0.9-0.9v-5.2c0-0.5,0.4-0.9,0.9-0.9h2.6c1.9,0,3.5,1.6,3.5,3.5
	S229.8,410.5,227.9,410.5z M226.1,408.7h1.7c1,0,1.7-0.8,1.7-1.7c0-1-0.8-1.7-1.7-1.7h-1.7V408.7z"/>
<path class="st22" d="M235.7,413.9h-0.9c-0.5,0-0.9-0.4-0.9-0.9v-8.7c0-0.5,0.4-0.9,0.9-0.9h0.9c2.9,0,5.2,2.3,5.2,5.2
	S238.6,413.9,235.7,413.9z M235.7,412.2L235.7,412.2L235.7,412.2z M235.7,405.2v7c1.9,0,3.5-1.6,3.5-3.5S237.6,405.2,235.7,405.2z"
	/>
<g>
	<g>
		<path class="st23" d="M322.7,410.9c-0.4,1.7-1.9,2.8-3.6,2.8h-34c-1.4,0-2.2-0.8-2.2-2.3l6.1-14.5c0.3-0.8,0.9-1.4,1.8-1.4h11.2
			c1.9,0,3.7-0.8,4.9-2.3c1.2-1.4,3-2.3,4.9-2.3h13.5c1.2,0,2,1,1.8,2.2L322.7,410.9z"/>
		<path class="st23" d="M289.7,386.3h31.9v-2.3c0-1.3-1-2.3-2.3-2.3h-20.9c-0.3,0-0.5-0.1-0.6-0.3l-2.9-3.7
			c-0.3-0.4-0.7-0.6-1.2-0.6h-8.5c-1.3,0-2.3,1-2.3,2.3v31.9l5.1-23.7C288.1,386.9,288.8,386.3,289.7,386.3"/>
	</g>
	<path class="st22" d="M285.1,379.5c0-1.3,1-2.3,2.3-2.3h-2.3c-1.3,0-2.3,1-2.3,2.3v31.9l2.3-10.7V379.5z"/>
	<path class="st24" d="M290.7,395.5h11.2c1.9,0,3.7-0.8,4.9-2.3c1.2-1.4,3-2.3,4.9-2.3h12.7l0.3-2.4c0.2-1.1-0.6-2.2-1.8-2.2h-33.2
		c-0.9,0-1.6,0.6-1.8,1.4l-5.1,23.7l6.1-14.5C289.3,396.1,289.9,395.5,290.7,395.5"/>
	<g>
		<path class="st25" d="M325.1,390.9h-2.3c1.2,0,2,1,1.8,2.2l-4.2,17.8c-0.4,1.7-1.9,2.8-3.6,2.8h2.3c1.7,0,3.2-1.2,3.6-2.8
			l4.2-17.8C327.2,391.9,326.3,390.9,325.1,390.9"/>
		<path class="st25" d="M319.4,381.8h-2.3c1.3,0,2.3,1,2.3,2.3v2.3h2.3v-2.3C321.6,382.8,320.6,381.8,319.4,381.8"/>
		<path class="st25" d="M322.9,386.3h-2.3c1.2,0,2,1,1.8,2.2l-0.3,2.4h2.3l0.3-2.4C324.9,387.4,324,386.3,322.9,386.3"/>
	</g>
	<g>
		<path d="M322.4,396.2h-12.2c-0.4,0-0.8-0.3-0.8-0.8c0-0.4,0.3-0.8,0.8-0.8h12.2c0.4,0,0.8,0.3,0.8,0.8
			C323.2,395.9,322.8,396.2,322.4,396.2"/>
		<path d="M322.4,399.3h-6.1c-0.4,0-0.8-0.3-0.8-0.8c0-0.4,0.3-0.8,0.8-0.8h6.1c0.4,0,0.8,0.3,0.8,0.8
			C323.2,398.9,322.8,399.3,322.4,399.3"/>
		<path d="M283.6,411.6c0,1,0.5,1.4,1.4,1.4h34c1.4,0,2.5-0.9,2.8-2.2l4.2-17.8c0.1-0.3,0-0.6-0.2-0.8c-0.2-0.2-0.5-0.4-0.8-0.4
			h-13.5c-1.7,0-3.2,0.7-4.3,2c-1.4,1.6-3.3,2.6-5.5,2.6h-11.2c-0.4,0-0.8,0.3-1.1,1L283.6,411.6z M319.1,414.5h-34
			c-1.9,0-3-1.1-3-3c0-0.1,0-0.2,0.1-0.3l6.1-14.5c0.5-1.2,1.4-1.9,2.5-1.9h11.2c1.7,0,3.2-0.7,4.3-2c1.4-1.6,3.3-2.6,5.5-2.6h13.5
			c0.8,0,1.5,0.3,2,1c0.5,0.6,0.7,1.4,0.5,2.1l-4.3,17.8C322.9,413.1,321.2,414.5,319.1,414.5L319.1,414.5z"/>
		<path d="M289.7,387.1c-0.5,0-0.9,0.4-1,0.8l-3.4,15.7l2.9-7c0.5-1.2,1.4-1.9,2.5-1.9h11.2c1.7,0,3.2-0.7,4.3-2
			c1.4-1.6,3.3-2.6,5.5-2.6h12l0.2-1.7c0,0,0,0,0-0.1c0.1-0.3,0-0.6-0.2-0.9c-0.2-0.2-0.5-0.4-0.8-0.4L289.7,387.1L289.7,387.1z
			 M282.9,412.2c-0.1,0-0.2,0-0.2,0c-0.4-0.1-0.6-0.5-0.5-0.9l5.1-23.7c0.2-1.2,1.3-2,2.5-2h33.2c0.8,0,1.5,0.3,2,1
			c0.5,0.6,0.7,1.3,0.5,2.1l-0.2,2.4c0,0.4-0.4,0.7-0.8,0.7h-12.7c-1.7,0-3.2,0.7-4.3,2c-1.4,1.6-3.3,2.6-5.5,2.6h-11.2
			c-0.4,0-0.8,0.3-1.1,1l-6.1,14.5C283.4,412,283.2,412.2,282.9,412.2L282.9,412.2z"/>
		<path d="M282.9,412.2C282.8,412.2,282.8,412.2,282.9,412.2c-0.5,0-0.8-0.4-0.8-0.8v-19c0-0.4,0.3-0.8,0.8-0.8
			c0.4,0,0.8,0.3,0.8,0.8v11.8l3.6-16.6c0.2-1.2,1.3-2,2.5-2h31.2v-1.5c0-0.8-0.7-1.5-1.5-1.5h-20.9c-0.5,0-0.9-0.2-1.2-0.6
			l-2.9-3.7c-0.1-0.2-0.4-0.3-0.6-0.3h-8.5c-0.8,0-1.5,0.7-1.5,1.5v6.8c0,0.4-0.3,0.8-0.8,0.8c-0.4,0-0.8-0.3-0.8-0.8v-6.8
			c0-1.7,1.4-3,3-3h8.5c0.7,0,1.3,0.3,1.8,0.9l2.9,3.7l20.9,0c1.7,0,3,1.4,3,3v2.3c0,0.4-0.3,0.8-0.8,0.8h-31.9
			c-0.5,0-0.9,0.4-1,0.8l-5.1,23.7C283.5,411.9,283.2,412.2,282.9,412.2"/>
		<path d="M283.6,389.4c0,0.4-0.3,0.8-0.8,0.8c-0.4,0-0.8-0.3-0.8-0.8c0-0.4,0.3-0.8,0.8-0.8C283.3,388.6,283.6,389,283.6,389.4"/>
	</g>
</g>
<path class="st26" d="M366,372.1h4.5v-7.8c-0.8-0.1-3.4-0.3-6.6-0.3c-14.3,0-10.4,16.1-10.9,18.5h-7.2v8.8h7.2v22.1h8.8v-22.1h6.9
	l1.1-8.8h-8C362.1,376.6,360.2,372.1,366,372.1L366,372.1z"/>
</svg>
