<?xml version="1.0" encoding="utf-8"?>
<!-- Generator: Adobe Illustrator 24.0.1, SVG Export Plug-In . SVG Version: 6.00 Build 0)  -->
<svg version="1.1" id="Layer_1" xmlns="http://www.w3.org/2000/svg" xmlns:xlink="http://www.w3.org/1999/xlink" x="0px" y="0px"
	 viewBox="0 0 512 512" style="enable-background:new 0 0 512 512;" xml:space="preserve">
<style type="text/css">
	.st0{display:none;}
	.st1{display:inline;fill:#200A7F;stroke:#18E5EA;stroke-width:20;stroke-miterlimit:10;}
	.st2{display:inline;fill:#EF0B79;}
	.st3{display:inline;fill:#18E5EA;}
	.st4{display:inline;}
	.st5{fill:#E9F21C;}
	.st6{display:inline;fill:none;}
	.st7{display:inline;fill:#EF3A24;}
	.st8{font-family:'MyriadPro-Regular';}
	.st9{font-size:250px;}
	.st10{display:inline;fill:#FFFFFF;}
	.st11{fill:#C4C6C8;}
	.st12{fill:url(#SVGID_1_);}
	.st13{fill:url(#SVGID_2_);stroke:#E8E8E8;stroke-width:3;stroke-miterlimit:10;}
	.st14{fill:#F0BC5E;}
</style>
<g id="Layer_3" class="st0">
	<path class="st1" d="M401.1,212.2c5.1,15.3,7.9,31.7,7.9,48.8c0,85.3-69.2,154.5-154.5,154.5S100,346.3,100,261
		s69.2-154.5,154.5-154.5c51.2,0,96.6,24.9,124.7,63.3"/>
	<path class="st2" d="M333.4,255.2c0,4.2-3.3,7.7-7.4,7.7H174.9c-4.1,0-7.4-3.4-7.4-7.7l0,0c0-4.2,3.3-7.7,7.4-7.7H326
		C330.1,247.5,333.4,250.9,333.4,255.2L333.4,255.2z"/>
	<path class="st2" d="M333.4,284.8c0,4.2-3.3,7.6-7.4,7.6H174.9c-4.1,0-7.4-3.4-7.4-7.6l0,0c0-4.2,3.3-7.6,7.4-7.6H326
		C330.1,277.1,333.4,280.6,333.4,284.8L333.4,284.8z"/>
	<path class="st2" d="M333.4,313c0,4.2-3.3,7.7-7.4,7.7H174.9c-4.1,0-7.4-3.4-7.4-7.7l0,0c0-4.2,3.3-7.6,7.4-7.6H326
		C330.1,305.4,333.4,308.8,333.4,313L333.4,313z"/>
	<path class="st2" d="M333.4,338.4c0,4.2-3.3,7.7-7.4,7.7H174.9c-4.1,0-7.4-3.4-7.4-7.7l0,0c0-4.2,3.3-7.6,7.4-7.6H326
		C330.1,330.7,333.4,334.1,333.4,338.4L333.4,338.4z"/>
	<polygon class="st3" points="395,191.5 320.2,165.2 380.4,113.5 	"/>
	<g class="st4">
		<g>
			<g>
				<path class="st5" d="M241.5,239.2c-2.3,0-4.4-1.1-5.8-2.9l-18.8-24.8c-2.4-3.2-1.8-7.8,1.4-10.3c3.2-2.4,7.8-1.8,10.3,1.4
					l12.3,16.3l31-49.8c2.1-3.4,6.6-4.5,10.1-2.3c3.4,2.1,4.5,6.6,2.3,10.1l-36.7,58.9c-1.3,2-3.5,3.3-5.9,3.4
					C241.7,239.2,241.6,239.2,241.5,239.2z"/>
			</g>
		</g>
	</g>
</g>
<g id="Layer_2_2_" class="st0">
	<rect x="121" y="171.5" class="st6" width="298" height="251"/>
	<text transform="matrix(1 0 0 1 121 348.9979)" class="st7 st8 st9">24</text>
	<circle class="st10" cx="138.3" cy="91.8" r="17.3"/>
	<circle class="st10" cx="185.3" cy="91.8" r="17.3"/>
	<circle class="st10" cx="232.3" cy="91.8" r="17.3"/>
	<circle class="st10" cx="278.3" cy="91.8" r="17.3"/>
	<circle class="st10" cx="323.3" cy="91.8" r="17.3"/>
	<circle class="st10" cx="368.3" cy="91.8" r="17.3"/>
</g>
<g>
	<path class="st11" d="M350.3,54.5H161.7c-17.9,0-34.5,9.6-43.4,25.1L24,242.9c-9,15.5-9,34.6,0,50.2l94.3,163.3
		c9,15.5,25.5,25.1,43.4,25.1h188.5c17.9,0,34.5-9.6,43.4-25.1L488,293.1c9-15.5,9-34.6,0-50.2L393.7,79.6
		C384.8,64.1,368.2,54.5,350.3,54.5z"/>
</g>
<g>
	<linearGradient id="SVGID_1_" gradientUnits="userSpaceOnUse" x1="18.15" y1="253.95" x2="495.6125" y2="253.95">
		<stop  offset="0" style="stop-color:#FFF7A9"/>
		<stop  offset="0.5" style="stop-color:#FFF100"/>
		<stop  offset="1" style="stop-color:#FFD700"/>
	</linearGradient>
	<path class="st12" d="M491.1,274.8c-0.7,1.4-1.4,2.9-2.2,4.3l-94.3,163.3c-0.5,1-1.1,1.9-1.7,2.8c-8.3,12.4-21.7,20.5-36.5,22
		c-1.7,0.2-3.4,0.3-5.2,0.3H162.6c-17.9,0-34.5-9.6-43.5-25.1l-15.3-26.6l-70.4-122L24.9,279c-9-15.5-9-34.6,0-50.2l6.5-11.3
		l22.3-38.6l65.5-113.4c9-15.5,25.5-25.1,43.5-25.1h188.5c17.9,0,34.5,9.6,43.5,25.1l20.7,35.9l6.3,10.9l25.3,43.8l2.4,4.2l5.5,9.6
		l7,12l27.1,47c1.2,2,2.2,4.1,3,6.2C497.1,247.9,496.8,262.3,491.1,274.8z"/>
	<linearGradient id="SVGID_2_" gradientUnits="userSpaceOnUse" x1="18.15" y1="253.95" x2="495.6125" y2="253.95">
		<stop  offset="0" style="stop-color:#FFF7A9"/>
		<stop  offset="0.5" style="stop-color:#FFF100"/>
		<stop  offset="1" style="stop-color:#FFD700"/>
	</linearGradient>
	<path class="st13" d="M491.1,274.8c-0.7,1.4-1.4,2.9-2.2,4.3l-94.3,163.3c-0.5,1-1.1,1.9-1.7,2.8c-8.3,12.4-21.7,20.5-36.5,22
		c-1.7,0.2-3.4,0.3-5.2,0.3H162.6c-17.9,0-34.5-9.6-43.5-25.1l-15.3-26.6l-70.4-122L24.9,279c-9-15.5-9-34.6,0-50.2l6.5-11.3
		l22.3-38.6l65.5-113.4c9-15.5,25.5-25.1,43.5-25.1h188.5c17.9,0,34.5,9.6,43.5,25.1l20.7,35.9l6.3,10.9l25.3,43.8l2.4,4.2l5.5,9.6
		l7,12l27.1,47c1.2,2,2.2,4.1,3,6.2C497.1,247.9,496.8,262.3,491.1,274.8z"/>
</g>
<g>
	<path class="st14" d="M241.6,194.8c4-4,8.3-7.6,12.7-11l1.5-2.1c-4.3,0-38.3,4.3-80.9,55.4s-29.8,55.4-21.3,55.4
		c15.4,0,30.7-10.4,33.6-12.4C202.7,248.9,222.7,213.6,241.6,194.8z"/>
	<path class="st14" d="M289,267.6c-18.9,16.7-47,34.7-71.6,48.1v10.8c0,4.5,2.3,8,6.1,10.5c4.1,2.7,9.4,3,13.8,0.8
		c7-3.4,13.4-7.9,18.9-13.4c13.6-13.7,25-28.6,33.6-57.6l-0.1,0.1C289.5,267.2,289.3,267.4,289,267.6L289,267.6z"/>
	<path class="st14" d="M306.9,220c-8.5,0-8.5-12.8-8.5-12.8V207c-2.7-0.4-5.2-1.5-7.3-3.1c-12,4.9-43.8,19.1-43.8,33
		c0,11.1,10.5,19.1,20.5,21.1c1.4,0.3,2.8,0.4,4.1,0.4c22.2,0,38.2-35.1,38.9-36.7l1-2.2C310.3,219.8,308.7,220,306.9,220L306.9,220
		z"/>
</g>
<circle cx="319.7" cy="168.9" r="4.3"/>
<path d="M361.2,151.4l23-3.8l-1.4-8.4l-16.7,2.8l12.6-22l-7.4-4.2l-10.9,19c-0.4-3.2-1.4-6.3-3.1-9.1c-4.4-7.5-12.2-12-20.9-12
	h-12.5v8.5h12.5c5.6,0,10.7,2.9,13.5,7.8c1.8,3.2,2.5,6.8,1.9,10.2c-2.8-5.6-8.5-9.5-15.2-9.5h-29.8v8.5h29.8c3.4,0,6.3,2,7.7,4.9
	c-14,2-55,9.7-88.6,33.5c-1,0-37.7,1.2-84.1,56.9c-31.9,38.3-32.8,50.2-29.9,56.3c1.9,4,5.9,6,11.9,6c8.6,0,17-2.9,23.6-6
	c-4.1,8.7-7.9,16.9-11.2,24.2l-21.8,6.5c-12.2,3.7-20.4,14.7-20.4,27.5c0,15.8,12.9,28.7,28.7,28.7c12.8,0,23.8-8.2,27.5-20.4
	l6.4-21.4c7.5-3.1,16.8-7.6,26.9-12.9v3.7c0,5.7,2.9,10.7,8.1,14.1c3,1.9,6.5,2.9,10,2.9c2.7,0,5.5-0.6,8-1.8
	c6.1-2.9,11.6-6.6,16.5-10.9h0.1v-0.1c1.2-1.1,2.4-2.1,3.5-3.2c14.4-14.5,25.8-30,34.3-58.2c4.6-4.1,9.3-8.5,14-13.2l-0.6,2.4
	l-0.1,1c0,4.3,2.3,8.2,6,10.3c1.8,1,3.7,1.5,5.6,1.5c2,0,3.9-0.5,5.6-1.6l8.7-4.6l-4.5-31.6c19-23.3,33.9-50.2,33.9-77.2
	C362.3,154.5,361.9,152.9,361.2,151.4L361.2,151.4z M238.6,191.7c-1.1,1.1-2.2,2.3-3.2,3.5l-10.5,2.6c5.9-3.6,11.1-6.1,15.5-7.8
	C239.9,190.6,239.2,191.2,238.6,191.7L238.6,191.7z M206.3,211.2l19.7-4.9c-2.5,3.2-5,6.6-7.4,10.2l-26.6,8
	C197,219.5,201.8,215.1,206.3,211.2z M193.2,259l-36.8,10c2-3.1,4.4-6.8,7.5-11l35.1-9.6C197,252,195.1,255.5,193.2,259z M205,238
	l-32.6,8.9c1.8-2.2,3.7-4.6,5.8-7.1c0.9-1,1.7-2,2.6-3l30.5-9.2C209.2,231,207,234.5,205,238L205,238z M153.6,288.2
	c-2.3,0-3.8-0.4-4.2-1.1c-0.3-0.6-0.7-2.6,1.4-7.6l37-10.1c-1.3,2.6-2.7,5.2-4,7.8C179.7,279.9,166.5,288.2,153.6,288.2z
	 M151.2,368.9c-3.5-0.2-6.8-1.3-9.6-3.1l25.5-25.5L151.2,368.9z M135.6,359.8c-1.8-2.8-2.9-6.1-3.1-9.6l28.6-15.9L135.6,359.8z
	 M146.7,329.6l11.6-3.5l-23.4,13C137.3,334.6,141.5,331.2,146.7,329.6z M171.8,354.7c-1.6,5.2-5,9.4-9.5,11.8l13-23.4L171.8,354.7z
	 M221.7,326.5v-8.3c2.8-1.6,5.6-3.2,8.5-4.8v21.5c-1.5-0.2-3-0.6-4.3-1.5C223.2,331.6,221.7,329.3,221.7,326.5z M238.8,332.3v-23.9
	c2.8-1.7,5.7-3.4,8.5-5.2v23.5C244.6,328.7,241.8,330.6,238.8,332.3L238.8,332.3z M255.8,318.9v-21.1c2.9-1.9,5.7-3.8,8.5-5.7v17.2
	C261.7,312.5,258.8,315.7,255.8,318.9z M281,279.7c-2.5,6.4-5.2,12-8.2,17v-10.8C275.7,283.9,278.4,281.8,281,279.7z M286.2,264.4
	c-30.7,27.1-86.4,57.7-109.7,66.1c-2.5,0.9-4.2-0.6-4.7-1.1c-0.4-0.5-1.8-2.2-0.8-4.6c12.5-28.6,44.6-98.1,73.6-126.9
	c36.8-36.5,96.3-44.9,103.9-45.8l-6.9,10.3l7.1,4.7l4.8-7.2c-1,19-10,38.1-22.4,55.8c-6.5-0.6-11.7-5.2-14.3-8.1
	c-2.6-2.9-6.3-4.5-10.2-4.5h-5.9c-3.2,0-6.2-1.2-8.4-3.5l-12.3-12.3l-6,6l12.3,12.3c2.3,2.3,5,3.8,8,4.8c0.8,6,4,13.9,12.5,13.9
	c6.2,0,10.5-1.9,13.1-3.5c1.7,1,3.6,1.8,5.6,2.4C313.6,238.7,299.4,252.8,286.2,264.4L286.2,264.4z M312.2,215
	c-1.4,0.4-3.2,0.8-5.3,0.8c-2,0-3.1-2.1-3.6-4.3h3.4c1.4,0,2.8,0.6,3.8,1.7C311,213.8,311.6,214.4,312.2,215z M323.6,260.2l-3.7,1.9
	c-1.2,0.8-2.3,0.4-2.9,0.1c-0.4-0.2-1.4-0.9-1.6-2.4l3.9-16.1c0.5-0.6,1.1-1.2,1.6-1.8L323.6,260.2z"/>
<path d="M252.8,204.2l8.5-8.5l6,6l-8.5,8.5L252.8,204.2z"/>
<path d="M192.3,303.4l7.7,3.6c18.7-40.6,35.3-69.5,50.6-88.5l-6.6-5.3C228.2,232.7,211.4,262.2,192.3,303.4z"/>
</svg>
