<?xml version="1.0" encoding="utf-8"?>
<!-- Generator: Adobe Illustrator 24.0.1, SVG Export Plug-In . SVG Version: 6.00 Build 0)  -->
<svg version="1.1" id="Layer_1" xmlns="http://www.w3.org/2000/svg" xmlns:xlink="http://www.w3.org/1999/xlink" x="0px" y="0px"
	 viewBox="0 0 512 512" style="enable-background:new 0 0 512 512;" xml:space="preserve">
<style type="text/css">
	.st0{display:none;}
	.st1{display:inline;fill:#200A7F;stroke:#18E5EA;stroke-width:20;stroke-miterlimit:10;}
	.st2{display:inline;fill:#EF0B79;}
	.st3{display:inline;fill:#18E5EA;}
	.st4{display:inline;}
	.st5{fill:#E9F21C;}
	.st6{display:inline;fill:none;}
	.st7{display:inline;fill:#EF3A24;}
	.st8{font-family:'MyriadPro-Regular';}
	.st9{font-size:250px;}
	.st10{display:inline;fill:#FFFFFF;}
	.st11{fill:#C4C6C8;}
	.st12{fill:#FFFFFF;stroke:#E8E8E8;stroke-width:3;stroke-miterlimit:10;}
	.st13{fill:#323C3C;}
	.st14{fill:#495959;}
	.st15{fill:#607882;}
</style>
<g id="Layer_3" class="st0">
	<path class="st1" d="M401.1,212.2c5.1,15.3,7.9,31.7,7.9,48.8c0,85.3-69.2,154.5-154.5,154.5S100,346.3,100,261
		s69.2-154.5,154.5-154.5c51.2,0,96.6,24.9,124.7,63.3"/>
	<path class="st2" d="M333.4,255.2c0,4.2-3.3,7.7-7.4,7.7H174.9c-4.1,0-7.4-3.4-7.4-7.7l0,0c0-4.2,3.3-7.7,7.4-7.7H326
		C330.1,247.5,333.4,250.9,333.4,255.2L333.4,255.2z"/>
	<path class="st2" d="M333.4,284.8c0,4.2-3.3,7.6-7.4,7.6H174.9c-4.1,0-7.4-3.4-7.4-7.6l0,0c0-4.2,3.3-7.6,7.4-7.6H326
		C330.1,277.1,333.4,280.6,333.4,284.8L333.4,284.8z"/>
	<path class="st2" d="M333.4,313c0,4.2-3.3,7.7-7.4,7.7H174.9c-4.1,0-7.4-3.4-7.4-7.7l0,0c0-4.2,3.3-7.6,7.4-7.6H326
		C330.1,305.4,333.4,308.8,333.4,313L333.4,313z"/>
	<path class="st2" d="M333.4,338.4c0,4.2-3.3,7.7-7.4,7.7H174.9c-4.1,0-7.4-3.4-7.4-7.7l0,0c0-4.2,3.3-7.6,7.4-7.6H326
		C330.1,330.7,333.4,334.1,333.4,338.4L333.4,338.4z"/>
	<polygon class="st3" points="395,191.5 320.2,165.2 380.4,113.5 	"/>
	<g class="st4">
		<g>
			<g>
				<path class="st5" d="M241.5,239.2c-2.3,0-4.4-1.1-5.8-2.9l-18.8-24.8c-2.4-3.2-1.8-7.8,1.4-10.3c3.2-2.4,7.8-1.8,10.3,1.4
					l12.3,16.3l31-49.8c2.1-3.4,6.6-4.5,10.1-2.3c3.4,2.1,4.5,6.6,2.3,10.1l-36.7,58.9c-1.3,2-3.5,3.3-5.9,3.4
					C241.7,239.2,241.6,239.2,241.5,239.2z"/>
			</g>
		</g>
	</g>
</g>
<g id="Layer_2_2_" class="st0">
	<rect x="121" y="171.5" class="st6" width="298" height="251"/>
	<text transform="matrix(1 0 0 1 121 348.9979)" class="st7 st8 st9">24</text>
	<circle class="st10" cx="138.3" cy="91.8" r="17.3"/>
	<circle class="st10" cx="185.3" cy="91.8" r="17.3"/>
	<circle class="st10" cx="232.3" cy="91.8" r="17.3"/>
	<circle class="st10" cx="278.3" cy="91.8" r="17.3"/>
	<circle class="st10" cx="323.3" cy="91.8" r="17.3"/>
	<circle class="st10" cx="368.3" cy="91.8" r="17.3"/>
</g>
<g>
	<path class="st11" d="M350.3,54.5H161.7c-17.9,0-34.5,9.6-43.4,25.1L24,242.9c-9,15.5-9,34.6,0,50.2l94.3,163.3
		c9,15.5,25.5,25.1,43.4,25.1h188.5c17.9,0,34.5-9.6,43.4-25.1L488,293.1c9-15.5,9-34.6,0-50.2L393.7,79.6
		C384.8,64.1,368.2,54.5,350.3,54.5z"/>
</g>
<g>
	<path class="st12" d="M494.8,263c-0.7,4.1-2,8-3.7,11.8c-0.7,1.4-1.4,2.9-2.2,4.3L417,403.6l0,0l-22.4,38.8c-0.5,1-1.1,1.9-1.7,2.8
		c-8.3,12.4-21.7,20.5-36.5,22c-1.7,0.2-3.4,0.3-5.2,0.3H162.6c-17.9,0-34.5-9.6-43.5-25.1l-15.3-26.6l-70.4-122L24.9,279
		c-9-15.5-9-34.6,0-50.2l6.5-11.3l22.3-38.6L97,104l22.2-38.5c0.8-1.4,1.7-2.7,2.6-4c9.4-13.1,24.5-21.1,40.9-21.1h188.5
		c17.9,0,34.5,9.6,43.5,25.1l20.7,35.9l1.5,2.6l4.8,8.3l25.3,43.8l2.4,4.2l1.7,3l3.8,6.6l7,12l27.1,47c1.2,2,2.2,4.1,3,6.2
		c1.3,3.2,2.2,6.5,2.8,9.8C495.9,250.9,495.9,257,494.8,263z"/>
</g>
<path d="M494.8,353.7"/>
<g>
	<path class="st13" d="M299.7,244.3l-47.6-10.3l10.3,108.6l69.1-10.3C310.7,311.5,302.7,271.5,299.7,244.3L299.7,244.3z"/>
	<path class="st14" d="M225.1,244.3c-0.7,6-1.6,12.6-2.8,19.4c-4,22.3-12.2,51.8-29,68.6l69.1,10.3V234.1L225.1,244.3z"/>
	<path class="st13" d="M285.5,139.1c0-12.7-10.4-23.1-23.1-23.1c0,0,0,0,0,0l-10.3,23.1l10.3,23.1h0
		C275.1,162.2,285.5,151.9,285.5,139.1z"/>
	<path class="st14" d="M239.3,139.1c0,12.7,10.4,23.1,23.1,23.1v-46.2C249.7,116.1,239.3,126.4,239.3,139.1L239.3,139.1z"/>
	<path class="st14" d="M262.4,146.8C262.4,146.8,262.4,146.8,262.4,146.8l-10.3,38.5l10.3,38.5h0c21.2,0,38.5-17.3,38.5-38.5
		C300.9,164.1,283.6,146.8,262.4,146.8z"/>
	<path class="st15" d="M223.9,185.3c0,21.2,17.3,38.5,38.5,38.5v-77C241.2,146.8,223.9,164.1,223.9,185.3L223.9,185.3z"/>
	<path class="st14" d="M351.5,332.4h-89.1l-10.3,41l99.4-10.3V332.4L351.5,332.4z"/>
	<path class="st15" d="M173.3,332.4v30.8l89.1,10.3v-41H173.3z"/>
	<path class="st14" d="M298.1,223.8l-45.9-10.3l10.3,30.8h37.3C298.8,236,298.3,228.8,298.1,223.8L298.1,223.8z"/>
	<path class="st15" d="M226.7,223.8c-0.2,5-0.7,12.2-1.6,20.5h37.3v-30.8L226.7,223.8z"/>
	<path class="st13" d="M313.2,208.4h-50.8l-5.1,7.7l5.1,7.7h50.8V208.4z"/>
	<path class="st14" d="M211.6,208.4h50.8v15.4h-50.8V208.4z"/>
	<path class="st13" d="M366.9,363.2H262.4l-5.1,7.7l5.1,7.7h104.5V363.2z"/>
	<path class="st14" d="M157.9,363.2h104.5v15.4H157.9V363.2z"/>
</g>
</svg>
