<?xml version="1.0" encoding="utf-8"?>
<!-- Generator: Adobe Illustrator 24.0.1, SVG Export Plug-In . SVG Version: 6.00 Build 0)  -->
<svg version="1.1" id="Layer_1" xmlns="http://www.w3.org/2000/svg" xmlns:xlink="http://www.w3.org/1999/xlink" x="0px" y="0px"
	 viewBox="0 0 512 512" style="enable-background:new 0 0 512 512;" xml:space="preserve">
<style type="text/css">
	.st0{display:none;}
	.st1{display:inline;fill:#200A7F;stroke:#18E5EA;stroke-width:20;stroke-miterlimit:10;}
	.st2{display:inline;fill:#EF0B79;}
	.st3{display:inline;fill:#18E5EA;}
	.st4{display:inline;}
	.st5{fill:#E9F21C;}
	.st6{display:inline;fill:none;}
	.st7{display:inline;fill:#EF3A24;}
	.st8{font-family:'MyriadPro-Regular';}
	.st9{font-size:250px;}
	.st10{display:inline;fill:#FFFFFF;}
	.st11{fill:#C4C6C8;}
	.st12{fill:url(#SVGID_1_);}
	.st13{fill:url(#SVGID_2_);stroke:#E8E8E8;stroke-width:3;stroke-miterlimit:10;}
	.st14{fill:none;}
	.st15{fill:#EAF5E9;}
</style>
<g id="Layer_3" class="st0">
	<path class="st1" d="M401.1,212.2c5.1,15.3,7.9,31.7,7.9,48.8c0,85.3-69.2,154.5-154.5,154.5S100,346.3,100,261
		s69.2-154.5,154.5-154.5c51.2,0,96.6,24.9,124.7,63.3"/>
	<path class="st2" d="M333.4,255.2c0,4.2-3.3,7.7-7.4,7.7H174.9c-4.1,0-7.4-3.4-7.4-7.7l0,0c0-4.2,3.3-7.7,7.4-7.7H326
		C330.1,247.5,333.4,250.9,333.4,255.2L333.4,255.2z"/>
	<path class="st2" d="M333.4,284.8c0,4.2-3.3,7.6-7.4,7.6H174.9c-4.1,0-7.4-3.4-7.4-7.6l0,0c0-4.2,3.3-7.6,7.4-7.6H326
		C330.1,277.1,333.4,280.6,333.4,284.8L333.4,284.8z"/>
	<path class="st2" d="M333.4,313c0,4.2-3.3,7.7-7.4,7.7H174.9c-4.1,0-7.4-3.4-7.4-7.7l0,0c0-4.2,3.3-7.6,7.4-7.6H326
		C330.1,305.4,333.4,308.8,333.4,313L333.4,313z"/>
	<path class="st2" d="M333.4,338.4c0,4.2-3.3,7.7-7.4,7.7H174.9c-4.1,0-7.4-3.4-7.4-7.7l0,0c0-4.2,3.3-7.6,7.4-7.6H326
		C330.1,330.7,333.4,334.1,333.4,338.4L333.4,338.4z"/>
	<polygon class="st3" points="395,191.5 320.2,165.2 380.4,113.5 	"/>
	<g class="st4">
		<g>
			<g>
				<path class="st5" d="M241.5,239.2c-2.3,0-4.4-1.1-5.8-2.9l-18.8-24.8c-2.4-3.2-1.8-7.8,1.4-10.3c3.2-2.4,7.8-1.8,10.3,1.4
					l12.3,16.3l31-49.8c2.1-3.4,6.6-4.5,10.1-2.3c3.4,2.1,4.5,6.6,2.3,10.1l-36.7,58.9c-1.3,2-3.5,3.3-5.9,3.4
					C241.7,239.2,241.6,239.2,241.5,239.2z"/>
			</g>
		</g>
	</g>
</g>
<g id="Layer_2_2_" class="st0">
	<rect x="121" y="171.5" class="st6" width="298" height="251"/>
	<text transform="matrix(1 0 0 1 121 348.9979)" class="st7 st8 st9">24</text>
	<circle class="st10" cx="138.3" cy="91.8" r="17.3"/>
	<circle class="st10" cx="185.3" cy="91.8" r="17.3"/>
	<circle class="st10" cx="232.3" cy="91.8" r="17.3"/>
	<circle class="st10" cx="278.3" cy="91.8" r="17.3"/>
	<circle class="st10" cx="323.3" cy="91.8" r="17.3"/>
	<circle class="st10" cx="368.3" cy="91.8" r="17.3"/>
</g>
<g>
	<path class="st11" d="M350.3,54.5H161.7c-17.9,0-34.5,9.6-43.4,25.1L24,242.9c-9,15.5-9,34.6,0,50.2l94.3,163.3
		c9,15.5,25.5,25.1,43.4,25.1h188.5c17.9,0,34.5-9.6,43.4-25.1L488,293.1c9-15.5,9-34.6,0-50.2L393.7,79.6
		C384.8,64.1,368.2,54.5,350.3,54.5z"/>
</g>
<g>
	
		<linearGradient id="SVGID_1_" gradientUnits="userSpaceOnUse" x1="18.15" y1="-4564.6597" x2="495.6125" y2="-4564.6597" gradientTransform="matrix(1 0 0 -1 0 -4310.7095)">
		<stop  offset="1.685400e-02" style="stop-color:#52835F"/>
		<stop  offset="0.5" style="stop-color:#006D4F"/>
		<stop  offset="1" style="stop-color:#004A33"/>
	</linearGradient>
	<path class="st12" d="M491.1,274.8c-0.7,1.4-1.4,2.9-2.2,4.3l-94.3,163.3c-0.5,1-1.1,1.9-1.7,2.8c-8.3,12.4-21.7,20.5-36.5,22
		c-1.7,0.2-3.4,0.3-5.2,0.3H162.6c-17.9,0-34.5-9.6-43.5-25.1l-15.3-26.6l-70.4-122L24.9,279c-9-15.5-9-34.6,0-50.2l6.5-11.3
		l22.3-38.6l65.5-113.4c9-15.5,25.5-25.1,43.5-25.1h188.5c17.9,0,34.5,9.6,43.5,25.1l20.7,35.9l6.3,10.9l25.3,43.8l2.4,4.2l5.5,9.6
		l7,12l27.1,47c1.2,2,2.2,4.1,3,6.2C497.1,247.9,496.8,262.3,491.1,274.8z"/>
	
		<linearGradient id="SVGID_2_" gradientUnits="userSpaceOnUse" x1="18.15" y1="5077.9507" x2="495.6125" y2="5077.9507" gradientTransform="matrix(1 0 0 1 0 -4824.0005)">
		<stop  offset="1.685400e-02" style="stop-color:#52835F"/>
		<stop  offset="0.5" style="stop-color:#006D4F"/>
		<stop  offset="1" style="stop-color:#004A33"/>
	</linearGradient>
	<path class="st13" d="M491.1,274.8c-0.7,1.4-1.4,2.9-2.2,4.3l-94.3,163.3c-0.5,1-1.1,1.9-1.7,2.8c-8.3,12.4-21.7,20.5-36.5,22
		c-1.7,0.2-3.4,0.3-5.2,0.3H162.6c-17.9,0-34.5-9.6-43.5-25.1l-15.3-26.6l-70.4-122L24.9,279c-9-15.5-9-34.6,0-50.2l6.5-11.3
		l22.3-38.6l65.5-113.4c9-15.5,25.5-25.1,43.5-25.1h188.5c17.9,0,34.5,9.6,43.5,25.1l20.7,35.9l6.3,10.9l25.3,43.8l2.4,4.2l5.5,9.6
		l7,12l27.1,47c1.2,2,2.2,4.1,3,6.2C497.1,247.9,496.8,262.3,491.1,274.8z"/>
</g>
<rect x="165.9" y="84.2" class="st14" width="132.6" height="129.8"/>
<g>
	<path class="st15" d="M374,117.7c-5,0-9-4-9-9V76.9h-29c-5,0-9-4-9-9s4-9,9-9h38c5,0,9,4,9,9v40.8C383,113.7,378.9,117.7,374,117.7
		z"/>
	<path class="st15" d="M147,113.6c-5,0-9-4-9-9V63.8c0-5,4-9,9-9h37.9c5,0,9,4,9,9s-4,9-9,9H156v31.8
		C156,109.6,151.9,113.6,147,113.6z"/>
	<path class="st15" d="M82.4,287.4c-3.2,3.8-8.9,4.3-12.7,1.1l-31.3-26.2c-3.8-3.2-4.3-8.9-1.1-12.7l24.4-29.1
		c3.2-3.8,8.9-4.3,12.7-1.1c3.8,3.2,4.3,8.9,1.1,12.7l-18.6,22.2l24.4,20.5C85.1,277.9,85.6,283.6,82.4,287.4z"/>
	<path class="st15" d="M431.6,269.8l24.4-20.5l-18.6-22.2c-3.2-3.8-2.7-9.5,1.1-12.7c3.8-3.2,9.5-2.7,12.7,1.1l24.4,29.1
		c3.2,3.8,2.7,9.5-1.1,12.7l-31.3,26.2c-3.8,3.2-9.5,2.7-12.7-1.1C427.3,278.7,427.8,273,431.6,269.8z"/>
	<path class="st15" d="M184.8,447h-37.9c-5,0-9-4-9-9v-40.8c0-5,4-9,9-9s9,4,9,9V429h28.9c5,0,9,4,9,9S189.8,447,184.8,447z"/>
	<path class="st15" d="M371.2,445l-37.6-4.8c-4.9-0.6-8.4-5.1-7.8-10s5.1-8.4,10-7.8l28.7,3.7l4-31.6c0.6-4.9,5.1-8.4,10-7.8
		s8.4,5.1,7.8,10l-5.2,40.5C380.6,442.1,376.1,445.6,371.2,445z"/>
	<path class="st15" d="M278.8,245H265v-13.8c0-5-4-9-9-9s-9,4-9,9V245h-13.8c-5,0-9,4-9,9s4,9,9,9H247v13.8c0,5,4,9,9,9s9-4,9-9V263
		h13.8c5,0,9-4,9-9S283.7,245,278.8,245z"/>
</g>
</svg>
