<?xml version="1.0" encoding="utf-8"?>
<!-- Generator: Adobe Illustrator 24.0.1, SVG Export Plug-In . SVG Version: 6.00 Build 0)  -->
<svg version="1.1" id="Layer_1" xmlns="http://www.w3.org/2000/svg" xmlns:xlink="http://www.w3.org/1999/xlink" x="0px" y="0px"
	 viewBox="0 0 512 512" style="enable-background:new 0 0 512 512;" xml:space="preserve">
<style type="text/css">
	.st0{display:none;}
	.st1{display:inline;fill:#200A7F;stroke:#18E5EA;stroke-width:20;stroke-miterlimit:10;}
	.st2{display:inline;fill:#EF0B79;}
	.st3{display:inline;fill:#18E5EA;}
	.st4{display:inline;}
	.st5{fill:#E9F21C;}
	.st6{display:inline;fill:none;}
	.st7{display:inline;fill:#EF3A24;}
	.st8{font-family:'MyriadPro-Regular';}
	.st9{font-size:250px;}
	.st10{display:inline;fill:#FFFFFF;}
	.st11{fill:#C4C6C8;}
	.st12{fill:url(#SVGID_1_);}
	.st13{fill:url(#SVGID_2_);stroke:#E8E8E8;stroke-width:3;stroke-miterlimit:10;}
	.st14{fill:#5E6664;}
	.st15{fill:#FFC114;}
	.st16{fill:#FCA12A;}
	.st17{fill:#EAEAEA;}
	.st18{fill:#C4C4C4;}
	.st19{fill:#FCFAC3;}
	.st20{fill:#8672DE;}
	.st21{fill:#5E52B5;}
	.st22{fill:#3CC676;}
	.st23{fill:#0AA06E;}
	.st24{fill:#F15249;}
	.st25{fill:#C93131;}
</style>
<g id="Layer_3" class="st0">
	<path class="st1" d="M401.1,212.2c5.1,15.3,7.9,31.7,7.9,48.8c0,85.3-69.2,154.5-154.5,154.5S100,346.3,100,261
		s69.2-154.5,154.5-154.5c51.2,0,96.6,24.9,124.7,63.3"/>
	<path class="st2" d="M333.4,255.2c0,4.2-3.3,7.7-7.4,7.7H174.9c-4.1,0-7.4-3.4-7.4-7.7l0,0c0-4.2,3.3-7.7,7.4-7.7H326
		C330.1,247.5,333.4,250.9,333.4,255.2L333.4,255.2z"/>
	<path class="st2" d="M333.4,284.8c0,4.2-3.3,7.6-7.4,7.6H174.9c-4.1,0-7.4-3.4-7.4-7.6l0,0c0-4.2,3.3-7.6,7.4-7.6H326
		C330.1,277.1,333.4,280.6,333.4,284.8L333.4,284.8z"/>
	<path class="st2" d="M333.4,313c0,4.2-3.3,7.7-7.4,7.7H174.9c-4.1,0-7.4-3.4-7.4-7.7l0,0c0-4.2,3.3-7.6,7.4-7.6H326
		C330.1,305.4,333.4,308.8,333.4,313L333.4,313z"/>
	<path class="st2" d="M333.4,338.4c0,4.2-3.3,7.7-7.4,7.7H174.9c-4.1,0-7.4-3.4-7.4-7.7l0,0c0-4.2,3.3-7.6,7.4-7.6H326
		C330.1,330.7,333.4,334.1,333.4,338.4L333.4,338.4z"/>
	<polygon class="st3" points="395,191.5 320.2,165.2 380.4,113.5 	"/>
	<g class="st4">
		<g>
			<g>
				<path class="st5" d="M241.5,239.2c-2.3,0-4.4-1.1-5.8-2.9l-18.8-24.8c-2.4-3.2-1.8-7.8,1.4-10.3c3.2-2.4,7.8-1.8,10.3,1.4
					l12.3,16.3l31-49.8c2.1-3.4,6.6-4.5,10.1-2.3c3.4,2.1,4.5,6.6,2.3,10.1l-36.7,58.9c-1.3,2-3.5,3.3-5.9,3.4
					C241.7,239.2,241.6,239.2,241.5,239.2z"/>
			</g>
		</g>
	</g>
</g>
<g id="Layer_2_2_" class="st0">
	<rect x="121" y="171.5" class="st6" width="298" height="251"/>
	<text transform="matrix(1 0 0 1 121 348.9979)" class="st7 st8 st9">24</text>
	<circle class="st10" cx="138.3" cy="91.8" r="17.3"/>
	<circle class="st10" cx="185.3" cy="91.8" r="17.3"/>
	<circle class="st10" cx="232.3" cy="91.8" r="17.3"/>
	<circle class="st10" cx="278.3" cy="91.8" r="17.3"/>
	<circle class="st10" cx="323.3" cy="91.8" r="17.3"/>
	<circle class="st10" cx="368.3" cy="91.8" r="17.3"/>
</g>
<g>
	<path class="st11" d="M350.3,54.5H161.7c-17.9,0-34.5,9.6-43.4,25.1L24,242.9c-9,15.5-9,34.6,0,50.2l94.3,163.3
		c9,15.5,25.5,25.1,43.4,25.1h188.5c17.9,0,34.5-9.6,43.4-25.1L488,293.1c9-15.5,9-34.6,0-50.2L393.7,79.6
		C384.8,64.1,368.2,54.5,350.3,54.5z"/>
</g>
<g>
	
		<linearGradient id="SVGID_1_" gradientUnits="userSpaceOnUse" x1="18.15" y1="-78.05" x2="495.6125" y2="-78.05" gradientTransform="matrix(1 0 0 1 0 332)">
		<stop  offset="0" style="stop-color:#64C8D3"/>
		<stop  offset="0.2157" style="stop-color:#37BFCB"/>
		<stop  offset="0.5" style="stop-color:#00B3C1"/>
		<stop  offset="0.6818" style="stop-color:#00AFB1"/>
		<stop  offset="1" style="stop-color:#00A99A"/>
	</linearGradient>
	<path class="st12" d="M491.1,274.8c-0.7,1.4-1.4,2.9-2.2,4.3l-94.3,163.3c-0.5,1-1.1,1.9-1.7,2.8c-8.3,12.4-21.7,20.5-36.5,22
		c-1.7,0.2-3.4,0.3-5.2,0.3H162.6c-17.9,0-34.5-9.6-43.5-25.1l-15.3-26.6l-70.4-122L24.9,279c-9-15.5-9-34.6,0-50.2l6.5-11.3
		l22.3-38.6l65.5-113.4c9-15.5,25.5-25.1,43.5-25.1h188.5c17.9,0,34.5,9.6,43.5,25.1l20.7,35.9l6.3,10.9l25.3,43.8l2.4,4.2l5.5,9.6
		l7,12l27.1,47c1.2,2,2.2,4.1,3,6.2C497.1,247.9,496.8,262.3,491.1,274.8z"/>
	<linearGradient id="SVGID_2_" gradientUnits="userSpaceOnUse" x1="18.15" y1="253.95" x2="495.6125" y2="253.95">
		<stop  offset="0" style="stop-color:#64C8D3"/>
		<stop  offset="0.2157" style="stop-color:#37BFCB"/>
		<stop  offset="0.5" style="stop-color:#00B3C1"/>
		<stop  offset="0.6818" style="stop-color:#00AFB1"/>
		<stop  offset="1" style="stop-color:#00A99A"/>
	</linearGradient>
	<path class="st13" d="M491.1,274.8c-0.7,1.4-1.4,2.9-2.2,4.3l-94.3,163.3c-0.5,1-1.1,1.9-1.7,2.8c-8.3,12.4-21.7,20.5-36.5,22
		c-1.7,0.2-3.4,0.3-5.2,0.3H162.6c-17.9,0-34.5-9.6-43.5-25.1l-15.3-26.6l-70.4-122L24.9,279c-9-15.5-9-34.6,0-50.2l6.5-11.3
		l22.3-38.6l65.5-113.4c9-15.5,25.5-25.1,43.5-25.1h188.5c17.9,0,34.5,9.6,43.5,25.1l20.7,35.9l6.3,10.9l25.3,43.8l2.4,4.2l5.5,9.6
		l7,12l27.1,47c1.2,2,2.2,4.1,3,6.2C497.1,247.9,496.8,262.3,491.1,274.8z"/>
</g>
<path class="st14" d="M153.6,132.2l140.9-4.2c25.6,0,47.8,21,47.8,47v166.5c0,25.6-22.2,46.5-47.8,46.5l-140.9-4.2"/>
<path class="st15" d="M183,128h141.7c26,0,47,21,47,47v166.5c0,25.6-21,46.5-47,46.5H183"/>
<g>
	<path class="st16" d="M183,128h141.7c26,0,47,21,47,47v166.9"/>
</g>
<path class="st17" d="M183,157.4h-26c-8,0-14.7-6.7-14.7-14.7l0,0c0-8,6.7-14.7,14.7-14.7h26"/>
<polyline class="st18" points="157.8,128 183,128 183,157.4 "/>
<path class="st17" d="M183,203.5h-26c-8,0-14.7-6.7-14.7-14.7l0,0c0-8,6.7-14.7,14.7-14.7h26"/>
<polyline class="st18" points="157.8,174.1 183,174.1 183,203.5 "/>
<path class="st17" d="M183,249.6h-26c-8,0-14.7-6.7-14.7-14.7l0,0c0-8,6.7-14.7,14.7-14.7h26"/>
<polyline class="st18" points="157.8,220.3 183,220.3 183,249.6 "/>
<path class="st17" d="M183,295.7h-26c-8,0-14.7-6.7-14.7-14.7l0,0c0-8,6.7-14.7,14.7-14.7h26"/>
<polyline class="st18" points="157.8,266.4 183,266.4 183,295.7 "/>
<path class="st17" d="M183,341.9h-26c-8,0-14.7-6.7-14.7-14.7l0,0c0-8,6.7-14.7,14.7-14.7h26"/>
<polyline class="st18" points="157.8,312.5 183,312.5 183,341.9 "/>
<path class="st17" d="M183,388h-26c-8,0-14.7-6.7-14.7-14.7l0,0c0-8,6.7-14.7,14.7-14.7h26"/>
<polyline class="st18" points="157.8,358.6 183,358.6 183,388 "/>
<rect x="224.9" y="174.1" class="st19" width="104.8" height="67.1"/>
<rect x="375.9" y="174.1" class="st20" width="25.2" height="50.3"/>
<polyline class="st21" points="401,224.5 375.9,224.5 375.9,174.1 "/>
<rect x="375.9" y="232.8" class="st22" width="25.2" height="50.3"/>
<polyline class="st23" points="401,283.2 375.9,283.2 375.9,232.8 "/>
<rect x="375.9" y="291.5" class="st24" width="25.2" height="50.3"/>
<polyline class="st25" points="401,341.9 375.9,341.9 375.9,291.5 "/>
</svg>
