<?xml version="1.0" encoding="utf-8"?>
<!-- Generator: Adobe Illustrator 24.0.1, SVG Export Plug-In . SVG Version: 6.00 Build 0)  -->
<svg version="1.1" id="Layer_1" xmlns="http://www.w3.org/2000/svg" xmlns:xlink="http://www.w3.org/1999/xlink" x="0px" y="0px"
	 viewBox="0 0 512 512" style="enable-background:new 0 0 512 512;" xml:space="preserve">
<style type="text/css">
	.st0{display:none;}
	.st1{display:inline;fill:#200A7F;stroke:#18E5EA;stroke-width:20;stroke-miterlimit:10;}
	.st2{display:inline;fill:#EF0B79;}
	.st3{display:inline;fill:#18E5EA;}
	.st4{display:inline;}
	.st5{fill:#E9F21C;}
	.st6{display:inline;fill:none;}
	.st7{display:inline;fill:#EF3A24;}
	.st8{font-family:'MyriadPro-Regular';}
	.st9{font-size:250px;}
	.st10{display:inline;fill:#FFFFFF;}
	.st11{fill:#C4C6C8;}
	.st12{fill:url(#SVGID_1_);stroke:url(#SVGID_2_);stroke-miterlimit:10;}
	.st13{fill:url(#SVGID_3_);stroke:url(#SVGID_4_);stroke-miterlimit:10;}
	.st14{fill:none;stroke:#000000;stroke-width:9;stroke-miterlimit:10;}
	.st15{fill:url(#SVGID_5_);}
	.st16{fill:#FFFFFF;}
</style>
<g id="Layer_3" class="st0">
	<path class="st1" d="M401.1,212.2c5.1,15.3,7.9,31.7,7.9,48.8c0,85.3-69.2,154.5-154.5,154.5S100,346.3,100,261
		s69.2-154.5,154.5-154.5c51.2,0,96.6,24.9,124.7,63.3"/>
	<path class="st2" d="M333.4,255.2c0,4.2-3.3,7.7-7.4,7.7H174.9c-4.1,0-7.4-3.4-7.4-7.7l0,0c0-4.2,3.3-7.7,7.4-7.7H326
		C330.1,247.5,333.4,250.9,333.4,255.2L333.4,255.2z"/>
	<path class="st2" d="M333.4,284.8c0,4.2-3.3,7.6-7.4,7.6H174.9c-4.1,0-7.4-3.4-7.4-7.6l0,0c0-4.2,3.3-7.6,7.4-7.6H326
		C330.1,277.1,333.4,280.6,333.4,284.8L333.4,284.8z"/>
	<path class="st2" d="M333.4,313c0,4.2-3.3,7.7-7.4,7.7H174.9c-4.1,0-7.4-3.4-7.4-7.7l0,0c0-4.2,3.3-7.6,7.4-7.6H326
		C330.1,305.4,333.4,308.8,333.4,313L333.4,313z"/>
	<path class="st2" d="M333.4,338.4c0,4.2-3.3,7.7-7.4,7.7H174.9c-4.1,0-7.4-3.4-7.4-7.7l0,0c0-4.2,3.3-7.6,7.4-7.6H326
		C330.1,330.7,333.4,334.1,333.4,338.4L333.4,338.4z"/>
	<polygon class="st3" points="395,191.5 320.2,165.2 380.4,113.5 	"/>
	<g class="st4">
		<g>
			<g>
				<path class="st5" d="M241.5,239.2c-2.3,0-4.4-1.1-5.8-2.9l-18.8-24.8c-2.4-3.2-1.8-7.8,1.4-10.3c3.2-2.4,7.8-1.8,10.3,1.4
					l12.3,16.3l31-49.8c2.1-3.4,6.6-4.5,10.1-2.3c3.4,2.1,4.5,6.6,2.3,10.1l-36.7,58.9c-1.3,2-3.5,3.3-5.9,3.4
					C241.7,239.2,241.6,239.2,241.5,239.2z"/>
			</g>
		</g>
	</g>
</g>
<g id="Layer_2_2_" class="st0">
	<rect x="121" y="171.5" class="st6" width="298" height="251"/>
	<text transform="matrix(1 0 0 1 121 348.9979)" class="st7 st8 st9">24</text>
	<circle class="st10" cx="138.3" cy="91.8" r="17.3"/>
	<circle class="st10" cx="185.3" cy="91.8" r="17.3"/>
	<circle class="st10" cx="232.3" cy="91.8" r="17.3"/>
	<circle class="st10" cx="278.3" cy="91.8" r="17.3"/>
	<circle class="st10" cx="323.3" cy="91.8" r="17.3"/>
	<circle class="st10" cx="368.3" cy="91.8" r="17.3"/>
</g>
<g>
	<path class="st11" d="M350.3,54.5H161.7c-17.9,0-34.5,9.6-43.4,25.1L24,242.9c-9,15.5-9,34.6,0,50.2l94.3,163.3
		c9,15.5,25.5,25.1,43.4,25.1h188.5c17.9,0,34.5-9.6,43.4-25.1L488,293.1c9-15.5,9-34.6,0-50.2L393.7,79.6
		C384.8,64.1,368.2,54.5,350.3,54.5z"/>
</g>
<g>
	
		<linearGradient id="SVGID_1_" gradientUnits="userSpaceOnUse" x1="18.15" y1="590.05" x2="495.6125" y2="590.05" gradientTransform="matrix(1 0 0 -1 0 844)">
		<stop  offset="0" style="stop-color:#F074AC"/>
		<stop  offset="0.5" style="stop-color:#EB008B"/>
		<stop  offset="1" style="stop-color:#CD118C"/>
	</linearGradient>
	<linearGradient id="SVGID_2_" gradientUnits="userSpaceOnUse" x1="17.65" y1="253.95" x2="496.1125" y2="253.95">
		<stop  offset="0" style="stop-color:#D471AD"/>
		<stop  offset="0.5" style="stop-color:#C7158C"/>
		<stop  offset="1" style="stop-color:#9D248E"/>
	</linearGradient>
	<path class="st12" d="M491.1,274.8c-0.7,1.4-1.4,2.9-2.2,4.3l-94.3,163.3c-0.5,1-1.1,1.9-1.7,2.8c-8.3,12.4-21.7,20.5-36.5,22
		c-1.7,0.2-3.4,0.3-5.2,0.3H162.6c-17.9,0-34.5-9.6-43.5-25.1l-15.3-26.6l-70.4-122L24.9,279c-9-15.5-9-34.6,0-50.2l6.5-11.3
		l22.3-38.6l65.5-113.4c9-15.5,25.5-25.1,43.5-25.1h188.5c17.9,0,34.5,9.6,43.5,25.1l20.7,35.9l6.3,10.9l25.3,43.8l2.4,4.2l5.5,9.6
		l7,12l27.1,47c1.2,2,2.2,4.1,3,6.2C497.1,247.9,496.8,262.3,491.1,274.8z"/>
	
		<linearGradient id="SVGID_3_" gradientUnits="userSpaceOnUse" x1="18.15" y1="258.05" x2="495.6125" y2="258.05" gradientTransform="matrix(1 0 0 -1 0 512)">
		<stop  offset="0" style="stop-color:#F074AC"/>
		<stop  offset="0.5" style="stop-color:#EB008B"/>
		<stop  offset="1" style="stop-color:#CD118C"/>
	</linearGradient>
	<linearGradient id="SVGID_4_" gradientUnits="userSpaceOnUse" x1="17.65" y1="253.95" x2="496.1125" y2="253.95">
		<stop  offset="0" style="stop-color:#D471AD"/>
		<stop  offset="0.5" style="stop-color:#C7158C"/>
		<stop  offset="1" style="stop-color:#9D248E"/>
	</linearGradient>
	<path class="st13" d="M491.1,274.8c-0.7,1.4-1.4,2.9-2.2,4.3l-94.3,163.3c-0.5,1-1.1,1.9-1.7,2.8c-8.3,12.4-21.7,20.5-36.5,22
		c-1.7,0.2-3.4,0.3-5.2,0.3H162.6c-17.9,0-34.5-9.6-43.5-25.1l-15.3-26.6l-70.4-122L24.9,279c-9-15.5-9-34.6,0-50.2l6.5-11.3
		l22.3-38.6l65.5-113.4c9-15.5,25.5-25.1,43.5-25.1h188.5c17.9,0,34.5,9.6,43.5,25.1l20.7,35.9l6.3,10.9l25.3,43.8l2.4,4.2l5.5,9.6
		l7,12l27.1,47c1.2,2,2.2,4.1,3,6.2C497.1,247.9,496.8,262.3,491.1,274.8z"/>
</g>
<path class="st14" d="M385.8,390.4"/>
<path class="st14" d="M130.7,162.6"/>
<path class="st14" d="M140.1,379.6"/>
<path class="st14" d="M376.4,144.1"/>
<linearGradient id="SVGID_5_" gradientUnits="userSpaceOnUse" x1="405.0105" y1="696.0421" x2="405.0105" y2="696.0421">
	<stop  offset="0" style="stop-color:#F074AC"/>
	<stop  offset="0.5" style="stop-color:#EB008B"/>
	<stop  offset="1" style="stop-color:#CD118C"/>
</linearGradient>
<path class="st15" d="M405,696"/>
<image style="display:none;overflow:visible;" width="1920" height="1080" xlink:href="8AD98EB1.jpg"  transform="matrix(1 0 0 1 -1317.8105 -178.1895)">
</image>
<path class="st16" d="M241.3,126.5c2.9-2.1,12.8-9,20.8-5.7c6.3,2.6,6.6,8.8,11.1,19.3c10.8,25.7,39.2,35.6,38.7,36.4
	c-0.5,0.8-0.8,1.2-55.7-34.1c-10.4,11.4-35.3,38.9-35.3,38.9c0,0,0,0,0,0c0,0,0,0,0,0c0,0-1-0.2-1-0.2
	C219.1,180.7,217.1,143.5,241.3,126.5z"/>
<path class="st16" d="M229.9,189L229.9,189c10.8-0.7,46.6-1.6,80.7,22.7c42.7,30.4,50,77,51.2,85.3c13.6,17.4,27.3,34.9,40.9,52.3
	c-25-18.9-50-37.9-75-56.8c-9.1,1.5-36.7,4.8-63.7-11.4c-29.7-17.8-46.9-52.4-45.5-89.8"/>
<path class="st16" d="M261.4,283.1c0.4,4.3,5.7,64.3,2,74.8c-0.9,2.6-2.5,4.5-2.5,4.5c-4.6,5.6-13,6.5-13.1,6.1
	c-0.2-0.7,13.4-8.3,19.2-4c3.2,2.3,2.8,7.6,3,7.6c0.3-0.1-0.5-7.2-2.8-16.4c-0.4-1.8-0.8-3.3-1.1-4.4c0.6-9.4,0.8-19.9,0.1-31.3
	C265.4,306.1,263.6,293.7,261.4,283.1z"/>
<path class="st16" d="M288.9,287c0.4,4.3,5.7,64.3,2,74.8c-0.9,2.6-2.5,4.5-2.5,4.5c-4.6,5.6-13,6.5-13.1,6.1
	c-0.2-0.7,13.4-8.3,19.2-4c3.2,2.3,2.8,7.6,3,7.6c0.3-0.1-0.5-7.2-2.8-16.4c-0.4-1.8-0.8-3.3-1.1-4.4c0.6-9.4,0.8-19.9,0.1-31.3
	C292.9,310,291.1,297.6,288.9,287z"/>
</svg>
