<?xml version="1.0" encoding="utf-8"?>
<!-- Generator: Adobe Illustrator 24.0.1, SVG Export Plug-In . SVG Version: 6.00 Build 0)  -->
<svg version="1.1" id="Layer_1" xmlns="http://www.w3.org/2000/svg" xmlns:xlink="http://www.w3.org/1999/xlink" x="0px" y="0px"
	 viewBox="0 0 512 512" style="enable-background:new 0 0 512 512;" xml:space="preserve">
<style type="text/css">
	.st0{display:none;}
	.st1{display:inline;fill:#200A7F;stroke:#18E5EA;stroke-width:20;stroke-miterlimit:10;}
	.st2{display:inline;fill:#EF0B79;}
	.st3{display:inline;fill:#18E5EA;}
	.st4{display:inline;}
	.st5{fill:#E9F21C;}
	.st6{display:inline;fill:none;}
	.st7{display:inline;fill:#EF3A24;}
	.st8{font-family:'MyriadPro-Regular';}
	.st9{font-size:250px;}
	.st10{display:inline;fill:#FFFFFF;}
	.st11{fill:#C4C6C8;}
	.st12{fill:#FFFFFF;}
	.st13{fill:#FFFFFF;stroke:#E8E8E8;stroke-width:3;stroke-miterlimit:10;}
	.st14{fill:#EDF5E1;stroke:url(#SVGID_1_);stroke-width:4;stroke-miterlimit:10;}
</style>
<g id="Layer_3" class="st0">
	<path class="st1" d="M401.1,212.2c5.1,15.3,7.9,31.7,7.9,48.8c0,85.3-69.2,154.5-154.5,154.5S100,346.3,100,261
		s69.2-154.5,154.5-154.5c51.2,0,96.6,24.9,124.7,63.3"/>
	<path class="st2" d="M333.4,255.2c0,4.2-3.3,7.7-7.4,7.7H174.9c-4.1,0-7.4-3.4-7.4-7.7l0,0c0-4.2,3.3-7.7,7.4-7.7H326
		C330.1,247.5,333.4,250.9,333.4,255.2L333.4,255.2z"/>
	<path class="st2" d="M333.4,284.8c0,4.2-3.3,7.6-7.4,7.6H174.9c-4.1,0-7.4-3.4-7.4-7.6l0,0c0-4.2,3.3-7.6,7.4-7.6H326
		C330.1,277.1,333.4,280.6,333.4,284.8L333.4,284.8z"/>
	<path class="st2" d="M333.4,313c0,4.2-3.3,7.7-7.4,7.7H174.9c-4.1,0-7.4-3.4-7.4-7.7l0,0c0-4.2,3.3-7.6,7.4-7.6H326
		C330.1,305.4,333.4,308.8,333.4,313L333.4,313z"/>
	<path class="st2" d="M333.4,338.4c0,4.2-3.3,7.7-7.4,7.7H174.9c-4.1,0-7.4-3.4-7.4-7.7l0,0c0-4.2,3.3-7.6,7.4-7.6H326
		C330.1,330.7,333.4,334.1,333.4,338.4L333.4,338.4z"/>
	<polygon class="st3" points="395,191.5 320.2,165.2 380.4,113.5 	"/>
	<g class="st4">
		<g>
			<g>
				<path class="st5" d="M241.5,239.2c-2.3,0-4.4-1.1-5.8-2.9l-18.8-24.8c-2.4-3.2-1.8-7.8,1.4-10.3c3.2-2.4,7.8-1.8,10.3,1.4
					l12.3,16.3l31-49.8c2.1-3.4,6.6-4.5,10.1-2.3c3.4,2.1,4.5,6.6,2.3,10.1l-36.7,58.9c-1.3,2-3.5,3.3-5.9,3.4
					C241.7,239.2,241.6,239.2,241.5,239.2z"/>
			</g>
		</g>
	</g>
</g>
<g id="Layer_2_2_" class="st0">
	<rect x="121" y="171.5" class="st6" width="298" height="251"/>
	<text transform="matrix(1 0 0 1 121 348.9979)" class="st7 st8 st9">24</text>
	<circle class="st10" cx="138.3" cy="91.8" r="17.3"/>
	<circle class="st10" cx="185.3" cy="91.8" r="17.3"/>
	<circle class="st10" cx="232.3" cy="91.8" r="17.3"/>
	<circle class="st10" cx="278.3" cy="91.8" r="17.3"/>
	<circle class="st10" cx="323.3" cy="91.8" r="17.3"/>
	<circle class="st10" cx="368.3" cy="91.8" r="17.3"/>
</g>
<g>
	<path class="st11" d="M350.3,54.5H161.7c-17.9,0-34.5,9.6-43.4,25.1L24,242.9c-9,15.5-9,34.6,0,50.2l94.3,163.3
		c9,15.5,25.5,25.1,43.4,25.1h188.5c17.9,0,34.5-9.6,43.4-25.1L488,293.1c9-15.5,9-34.6,0-50.2L393.7,79.6
		C384.8,64.1,368.2,54.5,350.3,54.5z"/>
</g>
<g>
	<path class="st12" d="M491.1,274.8c-0.7,1.4-1.4,2.9-2.2,4.3l-94.3,163.3c-0.5,1-1.1,1.9-1.7,2.8c-8.3,12.4-21.7,20.5-36.5,22
		c-1.7,0.2-3.4,0.3-5.2,0.3H162.6c-17.9,0-34.5-9.6-43.5-25.1l-15.3-26.6l-70.4-122L24.9,279c-9-15.5-9-34.6,0-50.2l6.5-11.3
		l22.3-38.6l65.5-113.4c9-15.5,25.5-25.1,43.5-25.1h188.5c17.9,0,34.5,9.6,43.5,25.1l20.7,35.9l6.3,10.9l25.3,43.8l2.4,4.2l5.5,9.6
		l7,12l27.1,47c1.2,2,2.2,4.1,3,6.2C497.1,247.9,496.8,262.3,491.1,274.8z"/>
	<path class="st13" d="M491.1,274.8c-0.7,1.4-1.4,2.9-2.2,4.3l-94.3,163.3c-0.5,1-1.1,1.9-1.7,2.8c-8.3,12.4-21.7,20.5-36.5,22
		c-1.7,0.2-3.4,0.3-5.2,0.3H162.6c-17.9,0-34.5-9.6-43.5-25.1l-15.3-26.6l-70.4-122L24.9,279c-9-15.5-9-34.6,0-50.2l6.5-11.3
		l22.3-38.6l65.5-113.4c9-15.5,25.5-25.1,43.5-25.1h188.5c17.9,0,34.5,9.6,43.5,25.1l20.7,35.9l6.3,10.9l25.3,43.8l2.4,4.2l5.5,9.6
		l7,12l27.1,47c1.2,2,2.2,4.1,3,6.2C497.1,247.9,496.8,262.3,491.1,274.8z"/>
</g>
<linearGradient id="SVGID_1_" gradientUnits="userSpaceOnUse" x1="274.5482" y1="344" x2="274.5482" y2="344" gradientTransform="matrix(1 0 0 -1 0 512)">
	<stop  offset="0" style="stop-color:#FFFF25"/>
	<stop  offset="3.320000e-02" style="stop-color:#FAED31"/>
	<stop  offset="9.210000e-02" style="stop-color:#F4D242"/>
	<stop  offset="0.1523" style="stop-color:#EFBF4E"/>
	<stop  offset="0.2141" style="stop-color:#ECB456"/>
	<stop  offset="0.28" style="stop-color:#EBB058"/>
	<stop  offset="0.67" style="stop-color:#DB7971"/>
	<stop  offset="0.89" style="stop-color:#CD497E"/>
	<stop  offset="1" style="stop-color:#BB1284"/>
</linearGradient>
<path class="st14" d="M274.5,168"/>
<g>
	<g>
		<path d="M430.5,249.5c0-0.7-0.1-1.4-0.1-2.1c-0.1-1.3-0.1-2.7-0.2-4c0,0,0-0.1,0-0.1c-3-41.7-20.6-80.6-50.4-110.5
			c-26.5-26.7-60.1-43.7-96.6-49.4c-1.3-0.2-2.6-0.4-3.9-0.6c0,0,0,0,0,0c-0.6-0.1-1.2-0.2-1.8-0.2c-0.7-0.1-1.5-0.2-2.2-0.3
			c-1.4-0.2-2.8-0.3-4.3-0.4c-0.7-0.1-1.4-0.1-2.1-0.2c-0.7,0-1.4-0.1-2.1-0.1c-1.7-0.1-3.5-0.2-5.2-0.2h-11.2c0,0-0.1,0-0.1,0
			c-0.3,0-0.6,0-0.9,0c-0.1,0-0.2,0-0.4,0c-0.3,0-0.5,0-0.8,0c-0.1,0-0.2,0-0.2,0c-0.5,0-1,0-1.5,0.1c-1.5,0.1-3,0.2-4.5,0.3
			c-0.7,0.1-1.3,0.1-2,0.2c-0.1,0-0.3,0-0.4,0c-0.9,0.1-1.8,0.2-2.6,0.3c-0.1,0-0.3,0-0.4,0c-0.2,0-0.4,0-0.6,0.1
			c-0.3,0-0.7,0.1-1,0.1c-0.3,0-0.6,0.1-1,0.1c0,0-0.1,0-0.1,0c-0.1,0-0.1,0-0.2,0c-0.5,0.1-1.1,0.1-1.6,0.2
			c-1.2,0.2-2.4,0.3-3.6,0.5c-0.6,0.1-1.2,0.2-1.9,0.3c-0.6,0.1-1.2,0.2-1.8,0.3c-0.1,0-0.3,0.1-0.4,0.1c-0.5,0.1-1,0.2-1.5,0.3
			c-0.5,0.1-1,0.2-1.5,0.3c-0.5,0.1-1,0.2-1.5,0.3c-0.4,0.1-0.8,0.2-1.3,0.3c-1,0.2-2.1,0.4-3.1,0.7c-0.3,0.1-0.7,0.2-1,0.2
			l-0.2,0.1c-0.5,0.1-1,0.2-1.4,0.3c-0.2,0.1-0.4,0.1-0.7,0.2c-0.7,0.2-1.4,0.4-2.1,0.6c-0.2,0.1-0.4,0.1-0.6,0.2
			c-0.5,0.1-1.1,0.3-1.6,0.4c-21.1,6-40.9,16-58.5,29.6c-0.8,0.6-1.6,1.2-2.4,1.8c-0.6,0.5-1.2,1-1.9,1.5c-0.6,0.5-1.2,1-1.8,1.5
			c-0.6,0.5-1.3,1.1-1.9,1.6c-0.1,0-0.1,0.1-0.2,0.1c-0.8,0.7-1.5,1.4-2.3,2c-0.8,0.7-1.6,1.4-2.3,2.2c0,0,0,0,0,0
			c-0.6,0.6-1.3,1.2-1.9,1.8c-0.3,0.2-0.5,0.5-0.8,0.8c-0.5,0.5-1,1-1.6,1.5c-0.1,0.1-0.2,0.2-0.4,0.4c-0.7,0.6-1.3,1.3-1.9,2
			c-0.2,0.2-0.3,0.3-0.5,0.5c-0.6,0.6-1.2,1.3-1.8,1.9c-0.1,0.1-0.2,0.2-0.3,0.3c-0.7,0.8-1.4,1.5-2.1,2.3c-0.5,0.6-1.1,1.2-1.6,1.8
			c-0.4,0.5-0.8,0.9-1.2,1.4c-0.4,0.5-0.8,0.9-1.2,1.4c-21.6,26-35.1,57.3-39,90.7c0,0.1,0,0.3,0,0.4c-0.1,1-0.2,2-0.3,3.1
			c0,0.5-0.1,1-0.1,1.5c-0.2,2.1-0.3,4.2-0.4,6.3c0,0.4,0,0.9-0.1,1.3c0,0.8-0.1,1.6-0.1,2.4c0,0,0,0,0,0.1V262
			c0,0.8,0.1,1.5,0.1,2.3c0,0.6,0.1,1.1,0.1,1.7c0,0.6,0.1,1.1,0.1,1.7c0,0.6,0.1,1.1,0.1,1.7c0,0.3,0,0.5,0.1,0.8
			c0,0.2,0,0.4,0.1,0.6c0,0.2,0,0.4,0.1,0.7c0,0.4,0.1,0.9,0.1,1.3c0,0.3,0.1,0.6,0.1,0.9c0.1,0.8,0.2,1.5,0.2,2.3
			c0,0.2,0,0.4,0.1,0.5c0.1,0.5,0.1,1.1,0.2,1.6l0,0.1c0,0.1,0,0.1,0,0.2c0.1,0.7,0.2,1.3,0.3,2c0.2,1.4,0.4,2.9,0.6,4.3
			c0.2,1.4,0.5,2.7,0.7,4.1c0.1,0.4,0.1,0.7,0.2,1.1c0.2,1.1,0.4,2.2,0.7,3.2c0.2,0.8,0.4,1.7,0.6,2.5c0,0.1,0,0.2,0.1,0.3l0.1,0.5
			c0,0.2,0.1,0.3,0.1,0.5c4.4,18.4,11.7,35.8,21.7,51.8c0.3,0.5,0.7,1.1,1,1.6c0.4,0.7,0.9,1.4,1.4,2.1c0.7,1.1,1.4,2.1,2.1,3.2
			c0.1,0.1,0.1,0.2,0.2,0.3l0.1,0.2c0.3,0.4,0.6,0.8,0.8,1.2c0.2,0.3,0.5,0.7,0.7,1c0.5,0.8,1.1,1.5,1.7,2.3c0,0,0,0.1,0.1,0.1l0,0
			c0.4,0.5,0.8,1.1,1.2,1.6c0.5,0.6,0.9,1.2,1.4,1.8c0,0,0.1,0.1,0.1,0.1c0.3,0.4,0.6,0.7,0.9,1.1c0.3,0.4,0.6,0.8,0.9,1.2
			c0.3,0.4,0.6,0.8,1,1.2c0.3,0.4,0.6,0.8,1,1.2c0.4,0.5,0.8,0.9,1.2,1.4c2,2.3,4.1,4.6,6.2,6.8c0.2,0.2,0.5,0.5,0.7,0.7
			c0.5,0.5,1,1,1.5,1.6c0.6,0.6,1.1,1.1,1.7,1.7c0.4,0.4,0.9,0.9,1.3,1.3c0.2,0.2,0.4,0.4,0.6,0.6c0.4,0.4,0.8,0.7,1.2,1.1l0.3,0.3
			c1.8,1.7,3.7,3.4,5.6,5c0.2,0.1,0.3,0.3,0.5,0.4c0.6,0.5,1.2,1,1.8,1.5c0.3,0.3,0.6,0.5,1,0.8c0.7,0.6,1.5,1.2,2.2,1.8
			c0.3,0.2,0.6,0.4,0.8,0.6c0.2,0.2,0.5,0.4,0.7,0.5c0.2,0.1,0.3,0.2,0.5,0.4c0.9,0.7,1.8,1.4,2.7,2l0.1,0.1c0.1,0,0.1,0.1,0.2,0.1
			c2.4,1.8,4.8,3.5,7.3,5.1v0.1l1.6,1c0,0,0.1,0.1,0.1,0.1c1.7,1.1,3.5,2.2,5.3,3.2c0.1,0.1,0.2,0.1,0.3,0.1
			c12.9,7.6,26.7,13.4,41.1,17.4c0,0,0.1,0,0.1,0c0.1,0,0.1,0,0.2,0.1c0.4,0.1,0.8,0.2,1.2,0.3c0.6,0.2,1.3,0.3,1.9,0.5
			c0.5,0.1,1,0.3,1.5,0.4c0.2,0.1,0.4,0.1,0.6,0.1c1.1,0.3,2.1,0.5,3.2,0.8c0,0,0,0,0.1,0c0,0,0,0,0,0c0.6,0.1,1.2,0.3,1.8,0.4
			c0.1,0,0.2,0,0.2,0.1c0.7,0.1,1.4,0.3,2.1,0.4c0.2,0,0.4,0.1,0.7,0.1c0.2,0,0.4,0.1,0.7,0.1c0.3,0.1,0.6,0.1,0.9,0.2
			c0.1,0,0.2,0,0.3,0.1c0.5,0.1,1,0.2,1.5,0.3l0.6,0.1c0.5,0.1,0.9,0.2,1.4,0.2c0.1,0,0.3,0,0.4,0.1l0.2,0c0,0,0.1,0,0.1,0
			c0.6,0.1,1.2,0.2,1.8,0.3c0,0,0.1,0,0.1,0c0.6,0.1,1.3,0.2,1.9,0.3l0.1,0c0.1,0,0.3,0,0.4,0c0.3,0,0.6,0.1,1,0.1
			c0.8,0.1,1.7,0.2,2.5,0.3c0.6,0.1,1.2,0.1,1.9,0.2c0.3,0,0.6,0.1,1,0.1c0.6,0.1,1.3,0.1,1.9,0.2c0.3,0,0.6,0.1,1,0.1
			c0.4,0,0.7,0.1,1.1,0.1c0.2,0,0.3,0,0.5,0c0.6,0,1.2,0.1,1.8,0.1c1.1,0.1,2.2,0.1,3.3,0.2c0.4,0,0.7,0,1.1,0c0,0,0,0,0,0H262
			c44.4-1.5,85.9-19.5,117.5-51.1c33-33,51.2-76.9,51.2-123.6C430.6,253.8,430.6,251.7,430.5,249.5z M255.9,143.3L255.9,143.3
			c16.7,0,30.3,13.6,30.3,30.3c0,16.7-13.6,30.3-30.3,30.3h0c-16.7,0-30.3-13.6-30.3-30.3C225.6,156.9,239.2,143.3,255.9,143.3z
			 M256,410.3h-0.6c-0.2,0-0.3,0-0.5,0l-2-0.1l-0.3,0c-37.4-1.9-67.8-35.3-67.8-74.4c0-17.2,6.2-33.8,17.5-46.8l0.3-0.3
			c13.5-15.3,33-24.1,53.4-24.1h2.9c24.7,0,47.9-9.7,65.3-27.3l0,0l1.1-1.2l0.2-0.3c14.2-16.6,22-37.7,22-59.6
			c0-20.5-6.6-39.8-17.8-55.6c37.5,20.6,65.7,56.4,76.1,98.9c0.3,1.4,0.6,2.8,0.9,4.1c0.1,0.7,0.3,1.4,0.4,2.1
			c0.4,2.2,0.8,4.5,1.2,6.7c0,0.1,0,0.1,0,0.2c0.1,0.5,0.1,1,0.2,1.6c0,0.1,0,0.2,0.1,0.4c0.1,0.6,0.2,1.2,0.2,1.8
			c0.1,0.6,0.2,1.3,0.2,1.9c0.1,0.6,0.1,1.2,0.2,1.9c0,0,0,0.1,0,0.1c0.1,0.6,0.1,1.3,0.2,1.9c0.1,0.6,0.1,1.3,0.2,1.9
			c0.1,0.6,0.1,1.3,0.1,1.9c0,0.5,0.1,1,0.1,1.5c0,0.2,0,0.5,0,0.7c0,1,0.1,1.9,0.1,2.9c0,0.3,0,0.6,0,0.9c0,1.3,0,2.5,0,3.8
			C410.2,341,341,410.2,256,410.3z"/>
	</g>
</g>
<g>
	<g>
		<path d="M256,307.8L256,307.8c-16.8,0-30.4,13.6-30.4,30.3c0,16.7,13.6,30.3,30.3,30.3h0c16.7,0,30.3-13.6,30.3-30.3
			C286.3,321.5,272.7,307.9,256,307.8z"/>
	</g>
</g>
</svg>
