<?xml version="1.0" encoding="utf-8"?>
<!-- Generator: Adobe Illustrator 24.0.1, SVG Export Plug-In . SVG Version: 6.00 Build 0)  -->
<svg version="1.1" id="Layer_1" xmlns="http://www.w3.org/2000/svg" xmlns:xlink="http://www.w3.org/1999/xlink" x="0px" y="0px"
	 viewBox="0 0 512 512" style="enable-background:new 0 0 512 512;" xml:space="preserve">
<style type="text/css">
	.st0{display:none;}
	.st1{display:inline;fill:#200A7F;stroke:#18E5EA;stroke-width:20;stroke-miterlimit:10;}
	.st2{display:inline;fill:#EF0B79;}
	.st3{display:inline;fill:#18E5EA;}
	.st4{display:inline;}
	.st5{fill:#E9F21C;}
	.st6{display:inline;fill:none;}
	.st7{display:inline;fill:#EF3A24;}
	.st8{font-family:'MyriadPro-Regular';}
	.st9{font-size:250px;}
	.st10{display:inline;fill:#FFFFFF;}
	.st11{fill:#C4C6C8;}
	.st12{fill:url(#SVGID_1_);}
	.st13{fill:url(#SVGID_2_);stroke:#E8E8E8;stroke-width:3;stroke-miterlimit:10;}
	.st14{fill:#0000CD;}
	.st15{fill:#FFFFFF;}
	.st16{fill:#3B3C3B;}
</style>
<g id="Layer_3" class="st0">
	<path class="st1" d="M401.1,212.2c5.1,15.3,7.9,31.7,7.9,48.8c0,85.3-69.2,154.5-154.5,154.5S100,346.3,100,261
		s69.2-154.5,154.5-154.5c51.2,0,96.6,24.9,124.7,63.3"/>
	<path class="st2" d="M333.4,255.2c0,4.2-3.3,7.7-7.4,7.7H174.9c-4.1,0-7.4-3.4-7.4-7.7l0,0c0-4.2,3.3-7.7,7.4-7.7H326
		C330.1,247.5,333.4,250.9,333.4,255.2L333.4,255.2z"/>
	<path class="st2" d="M333.4,284.8c0,4.2-3.3,7.6-7.4,7.6H174.9c-4.1,0-7.4-3.4-7.4-7.6l0,0c0-4.2,3.3-7.6,7.4-7.6H326
		C330.1,277.1,333.4,280.6,333.4,284.8L333.4,284.8z"/>
	<path class="st2" d="M333.4,313c0,4.2-3.3,7.7-7.4,7.7H174.9c-4.1,0-7.4-3.4-7.4-7.7l0,0c0-4.2,3.3-7.6,7.4-7.6H326
		C330.1,305.4,333.4,308.8,333.4,313L333.4,313z"/>
	<path class="st2" d="M333.4,338.4c0,4.2-3.3,7.7-7.4,7.7H174.9c-4.1,0-7.4-3.4-7.4-7.7l0,0c0-4.2,3.3-7.6,7.4-7.6H326
		C330.1,330.7,333.4,334.1,333.4,338.4L333.4,338.4z"/>
	<polygon class="st3" points="395,191.5 320.2,165.2 380.4,113.5 	"/>
	<g class="st4">
		<g>
			<g>
				<path class="st5" d="M241.5,239.2c-2.3,0-4.4-1.1-5.8-2.9l-18.8-24.8c-2.4-3.2-1.8-7.8,1.4-10.3c3.2-2.4,7.8-1.8,10.3,1.4
					l12.3,16.3l31-49.8c2.1-3.4,6.6-4.5,10.1-2.3c3.4,2.1,4.5,6.6,2.3,10.1l-36.7,58.9c-1.3,2-3.5,3.3-5.9,3.4
					C241.7,239.2,241.6,239.2,241.5,239.2z"/>
			</g>
		</g>
	</g>
</g>
<g id="Layer_2_2_" class="st0">
	<rect x="121" y="171.5" class="st6" width="298" height="251"/>
	<text transform="matrix(1 0 0 1 121 348.9979)" class="st7 st8 st9">24</text>
	<circle class="st10" cx="138.3" cy="91.8" r="17.3"/>
	<circle class="st10" cx="185.3" cy="91.8" r="17.3"/>
	<circle class="st10" cx="232.3" cy="91.8" r="17.3"/>
	<circle class="st10" cx="278.3" cy="91.8" r="17.3"/>
	<circle class="st10" cx="323.3" cy="91.8" r="17.3"/>
	<circle class="st10" cx="368.3" cy="91.8" r="17.3"/>
</g>
<g>
	<path class="st11" d="M350.3,54.5H161.7c-17.9,0-34.5,9.6-43.4,25.1L24,242.9c-9,15.5-9,34.6,0,50.2l94.3,163.3
		c9,15.5,25.5,25.1,43.4,25.1h188.5c17.9,0,34.5-9.6,43.4-25.1L488,293.1c9-15.5,9-34.6,0-50.2L393.7,79.6
		C384.8,64.1,368.2,54.5,350.3,54.5z"/>
</g>
<g>
	<linearGradient id="SVGID_1_" gradientUnits="userSpaceOnUse" x1="18.15" y1="253.95" x2="495.6135" y2="253.95">
		<stop  offset="0" style="stop-color:#FFE7A3"/>
		<stop  offset="0.5" style="stop-color:#FFCA05"/>
		<stop  offset="1" style="stop-color:#FAAC18"/>
	</linearGradient>
	<path class="st12" d="M495.1,261c-0.7,4.7-2,9.4-4,13.8c-0.7,1.4-1.4,2.9-2.2,4.3l-94.3,163.3c-0.5,1-1.1,1.9-1.7,2.8
		c-8.3,12.4-21.7,20.5-36.5,22c-1.7,0.2-3.4,0.3-5.2,0.3H162.6c-17.9,0-34.5-9.6-43.5-25.1l-15.3-26.6l-70.4-122L24.9,279
		c-9-15.5-9-34.6,0-50.2l6.5-11.3l22.3-38.6l34-58.9l31.5-54.5c9-15.5,25.5-25.1,43.5-25.1h188.5c17.9,0,34.5,9.6,43.5,25.1
		l20.7,35.9l6.3,10.9l4.5,7.9l20.8,35.9l2.4,4.2l5.5,9.6l7,12l27.1,47c1.2,2,2.2,4.1,3,6.2c0.2,0.5,0.4,0.9,0.5,1.4c0,0,0,0,0,0
		C495.4,244.4,496.3,252.8,495.1,261z"/>
	<linearGradient id="SVGID_2_" gradientUnits="userSpaceOnUse" x1="18.15" y1="253.95" x2="495.6135" y2="253.95">
		<stop  offset="0" style="stop-color:#F69453"/>
		<stop  offset="0.5" style="stop-color:#F37521"/>
		<stop  offset="1" style="stop-color:#D4622A"/>
	</linearGradient>
	<path class="st13" d="M495.1,261c-0.7,4.7-2,9.4-4,13.8c-0.7,1.4-1.4,2.9-2.2,4.3l-94.3,163.3c-0.5,1-1.1,1.9-1.7,2.8
		c-8.3,12.4-21.7,20.5-36.5,22c-1.7,0.2-3.4,0.3-5.2,0.3H162.6c-17.9,0-34.5-9.6-43.5-25.1l-15.3-26.6l-70.4-122L24.9,279
		c-9-15.5-9-34.6,0-50.2l6.5-11.3l22.3-38.6l34-58.9l31.5-54.5c9-15.5,25.5-25.1,43.5-25.1h188.5c17.9,0,34.5,9.6,43.5,25.1
		l20.7,35.9l6.3,10.9l4.5,7.9l20.8,35.9l2.4,4.2l5.5,9.6l7,12l27.1,47c1.2,2,2.2,4.1,3,6.2c0.2,0.5,0.4,0.9,0.5,1.4c0,0,0,0,0,0
		C495.4,244.4,496.3,252.8,495.1,261z"/>
</g>
<path d="M426.3,234.8"/>
<path class="st14" d="M492.5,236.5c-0.2-0.5-0.4-0.9-0.5-1.4c-0.8-2.1-1.8-4.2-3-6.2l-27.1-47l-7-12l-5.5-9.6l-2.4-4.2l-20.8-35.9
	c-3.5-7.6-7.1-14.6-10.7-20.4l-3-4.8l4.4,3.5"/>
<path class="st14" d="M495.1,261c-0.7,4.7-2,9.4-4,13.8c-0.7,1.4-1.4,2.9-2.2,4.3l-94.3,163.3c-0.5,1-1.1,1.9-1.7,2.8
	c-8.3,12.4-21.7,20.5-36.5,22c-1.7,0.2-3.4,0.3-5.2,0.3H162.6c-17.9,0-34.5-9.6-43.5-25.1l-15.3-26.6l-70.4-122L24.9,279
	c-9-15.5-9-34.6,0-50.2l6.5-11.3l22.3-38.6l34-58.9l2.1,5.8l3.2-0.4c1.7-0.2,11.3-0.4,21.2-0.5c15.9-0.1,18.9,0.1,24.8,2.2
	c3.7,1.3,7.4,2,8.2,1.7c0.8-0.3,6.5-8.4,12.7-18c6.2-9.6,11.6-17.5,12.1-17.5c0.4,0,2.8,14,5.2,31.1c2.5,17.8,5,31.7,5.8,32.4
	c1.7,1.6,49.9,11.1,51,10c0.9-0.9,23.7,3.4,24.9,4.7c0.4,0.4-0.3,1.5-1.5,2.5c-1.3,1-5.7,4.6-9.9,8.1c-8.5,7-8.6,7-10.7-1.8
	c-0.8-3.2-1.8-5.1-2.7-5.1c-3.1,0-34.8,7.5-35.8,8.5c-0.6,0.6-0.5,4.1,0.3,9.2c0.7,4.5,1.3,12.9,1.3,18.7l-0.1,10.5l11.6,9.9
	c6.4,5.4,11.6,10.2,11.6,10.5c0,0.4-9.9,6.3-21.9,13.2c-26.4,15-31.7,18.9-36.3,26c-12,18.8-9.3,43.7,6.5,59.6
	c19.3,19.3,51.1,18.5,69-1.8c6.7-7.6,9.1-13,12-27l0.6-2.9h39.5l-0.8,7c-4.2,39.3-34.2,71.2-73,77.6c-5,0.8-5.3,3.3-0.5,5.3
	c6,2.5,23,4.9,34.8,4.9c34.5,0,65-12.8,89.8-37.7c25-25.1,37.6-55.4,37.8-91.2c0.1-16.8-4.7-38.1-11.8-52c-1.3-2.6-2.1-4.9-1.9-5.1
	c0.7-0.7,11.5,12.2,16.5,19.7c5.2,7.6,10.8,18.9,14,27.9c3.1,8.9,4.1,10.2,6,8.3c0.9-0.9,1.9-6.7,2.7-16.5
	c4.5-56-16.9-116.5-55.8-157.7c-4-4.3-6.7-7.7-5.9-7.7c1.8,0,13.2,6.4,24.4,13.6c29.9,19.4,54.8,47.4,71,79.8
	c8.7,17.5,10.9,14,6-9.6c-3.5-16.8-10.9-38.1-19.2-56l20.8,35.9l2.4,4.2l5.5,9.6l7,12l27.1,47c1.2,2,2.2,4.1,3,6.2
	c0.2,0.5,0.4,0.9,0.5,1.4c0,0,0,0,0,0C493.8,244.4,494.6,252.5,495.1,261z"/>
<path id="path2999" class="st15" d="M225.4,199.1c19-15.2,19.2-15.4,18.5-19.5c-1.6-8.1-3-10.4-6.1-9.6c-1.6,0.4-10,2.2-18.8,4
	c-8.8,1.8-16.4,3.7-17,4.2s-0.4,4.4,0.4,8.6c0.8,4.2,1.5,12.4,1.5,18.1s0.5,10.2,1.1,10C205.6,214.6,214.8,207.5,225.4,199.1
	L225.4,199.1z"/>
<path id="path3227" class="st15" d="M293.6,300.9c0-4.1-3.4-12.4-6.7-16.2C281,278,273.4,277,266,282c-5.1,3.5-8.9,10-10.3,18
	l-0.6,3.6h19.3C293.1,303.6,293.6,303.5,293.6,300.9L293.6,300.9z"/>
<path id="path2989" class="st16" d="M239.9,175.7c-2.6-8.7-3.1-11.1-2.1-12.1c0.7-0.7,22.8,3.8,23.8,4.8c0.4,0.4-0.3,1.5-1.5,2.4
	s-5.4,4.4-9.3,7.6c-3.9,3.2-7.4,5.9-7.7,5.9C242.8,184.3,241.3,180.4,239.9,175.7z"/>
</svg>
