<?xml version="1.0" encoding="utf-8"?>
<!-- Generator: Adobe Illustrator 24.0.1, SVG Export Plug-In . SVG Version: 6.00 Build 0)  -->
<svg version="1.1" id="Layer_1" xmlns="http://www.w3.org/2000/svg" xmlns:xlink="http://www.w3.org/1999/xlink" x="0px" y="0px"
	 viewBox="0 0 512 512" style="enable-background:new 0 0 512 512;" xml:space="preserve">
<style type="text/css">
	.st0{display:none;}
	.st1{display:inline;fill:#200A7F;stroke:#18E5EA;stroke-width:20;stroke-miterlimit:10;}
	.st2{display:inline;fill:#EF0B79;}
	.st3{display:inline;fill:#18E5EA;}
	.st4{display:inline;}
	.st5{fill:#E9F21C;}
	.st6{display:inline;fill:none;}
	.st7{display:inline;fill:#EF3A24;}
	.st8{font-family:'MyriadPro-Regular';}
	.st9{font-size:250px;}
	.st10{display:inline;fill:#FFFFFF;}
	.st11{fill:#C4C6C8;}
	.st12{fill:url(#SVGID_1_);}
	.st13{fill:url(#SVGID_2_);stroke:#E8E8E8;stroke-width:3;stroke-miterlimit:10;}
	.st14{fill:#0000CD;}
	.st15{fill:#FFFFFF;stroke:#000000;stroke-width:9;stroke-miterlimit:10;}
	.st16{fill:#FFFFFF;}
</style>
<g id="Layer_3" class="st0">
	<path class="st1" d="M401.1,212.2c5.1,15.3,7.9,31.7,7.9,48.8c0,85.3-69.2,154.5-154.5,154.5S100,346.3,100,261
		s69.2-154.5,154.5-154.5c51.2,0,96.6,24.9,124.7,63.3"/>
	<path class="st2" d="M333.4,255.2c0,4.2-3.3,7.7-7.4,7.7H174.9c-4.1,0-7.4-3.4-7.4-7.7l0,0c0-4.2,3.3-7.7,7.4-7.7H326
		C330.1,247.5,333.4,250.9,333.4,255.2L333.4,255.2z"/>
	<path class="st2" d="M333.4,284.8c0,4.2-3.3,7.6-7.4,7.6H174.9c-4.1,0-7.4-3.4-7.4-7.6l0,0c0-4.2,3.3-7.6,7.4-7.6H326
		C330.1,277.1,333.4,280.6,333.4,284.8L333.4,284.8z"/>
	<path class="st2" d="M333.4,313c0,4.2-3.3,7.7-7.4,7.7H174.9c-4.1,0-7.4-3.4-7.4-7.7l0,0c0-4.2,3.3-7.6,7.4-7.6H326
		C330.1,305.4,333.4,308.8,333.4,313L333.4,313z"/>
	<path class="st2" d="M333.4,338.4c0,4.2-3.3,7.7-7.4,7.7H174.9c-4.1,0-7.4-3.4-7.4-7.7l0,0c0-4.2,3.3-7.6,7.4-7.6H326
		C330.1,330.7,333.4,334.1,333.4,338.4L333.4,338.4z"/>
	<polygon class="st3" points="395,191.5 320.2,165.2 380.4,113.5 	"/>
	<g class="st4">
		<g>
			<g>
				<path class="st5" d="M241.5,239.2c-2.3,0-4.4-1.1-5.8-2.9l-18.8-24.8c-2.4-3.2-1.8-7.8,1.4-10.3c3.2-2.4,7.8-1.8,10.3,1.4
					l12.3,16.3l31-49.8c2.1-3.4,6.6-4.5,10.1-2.3c3.4,2.1,4.5,6.6,2.3,10.1l-36.7,58.9c-1.3,2-3.5,3.3-5.9,3.4
					C241.7,239.2,241.6,239.2,241.5,239.2z"/>
			</g>
		</g>
	</g>
</g>
<g id="Layer_2_2_" class="st0">
	<rect x="121" y="171.5" class="st6" width="298" height="251"/>
	<text transform="matrix(1 0 0 1 121 348.9979)" class="st7 st8 st9">24</text>
	<circle class="st10" cx="138.3" cy="91.8" r="17.3"/>
	<circle class="st10" cx="185.3" cy="91.8" r="17.3"/>
	<circle class="st10" cx="232.3" cy="91.8" r="17.3"/>
	<circle class="st10" cx="278.3" cy="91.8" r="17.3"/>
	<circle class="st10" cx="323.3" cy="91.8" r="17.3"/>
	<circle class="st10" cx="368.3" cy="91.8" r="17.3"/>
</g>
<g>
	<path class="st11" d="M350.3,54.5H161.7c-17.9,0-34.5,9.6-43.4,25.1L24,242.9c-9,15.5-9,34.6,0,50.2l94.3,163.3
		c9,15.5,25.5,25.1,43.4,25.1h188.5c17.9,0,34.5-9.6,43.4-25.1L488,293.1c9-15.5,9-34.6,0-50.2L393.7,79.6
		C384.8,64.1,368.2,54.5,350.3,54.5z"/>
</g>
<g>
	<linearGradient id="SVGID_1_" gradientUnits="userSpaceOnUse" x1="18.15" y1="253.95" x2="495.6135" y2="253.95">
		<stop  offset="0" style="stop-color:#FFE7A3"/>
		<stop  offset="0.5" style="stop-color:#FFCA05"/>
		<stop  offset="1" style="stop-color:#FAAC18"/>
	</linearGradient>
	<path class="st12" d="M495.1,261c-0.7,4.7-2,9.4-4,13.8c-0.7,1.4-1.4,2.9-2.2,4.3l-94.3,163.3c-0.5,1-1.1,1.9-1.7,2.8
		c-8.3,12.4-21.7,20.5-36.5,22c-1.7,0.2-3.4,0.3-5.2,0.3H162.6c-17.9,0-34.5-9.6-43.5-25.1l-15.3-26.6l-70.4-122L24.9,279
		c-9-15.5-9-34.6,0-50.2l6.5-11.3l22.3-38.6l34-58.9l31.5-54.5c9-15.5,25.5-25.1,43.5-25.1h188.5c17.9,0,34.5,9.6,43.5,25.1
		l20.7,35.9l6.3,10.9l4.5,7.9l20.8,35.9l2.4,4.2l5.5,9.6l7,12l27.1,47c1.2,2,2.2,4.1,3,6.2c0.2,0.5,0.4,0.9,0.5,1.4c0,0,0,0,0,0
		C495.4,244.4,496.3,252.8,495.1,261z"/>
	<radialGradient id="SVGID_2_" cx="256.8817" cy="253.95" r="226.4911" gradientUnits="userSpaceOnUse">
		<stop  offset="0" style="stop-color:#F37E5F"/>
		<stop  offset="0.5" style="stop-color:#EC1C24"/>
		<stop  offset="1" style="stop-color:#CF232A"/>
	</radialGradient>
	<path class="st13" d="M495.1,261c-0.7,4.7-2,9.4-4,13.8c-0.7,1.4-1.4,2.9-2.2,4.3l-94.3,163.3c-0.5,1-1.1,1.9-1.7,2.8
		c-8.3,12.4-21.7,20.5-36.5,22c-1.7,0.2-3.4,0.3-5.2,0.3H162.6c-17.9,0-34.5-9.6-43.5-25.1l-15.3-26.6l-70.4-122L24.9,279
		c-9-15.5-9-34.6,0-50.2l6.5-11.3l22.3-38.6l34-58.9l31.5-54.5c9-15.5,25.5-25.1,43.5-25.1h188.5c17.9,0,34.5,9.6,43.5,25.1
		l20.7,35.9l6.3,10.9l4.5,7.9l20.8,35.9l2.4,4.2l5.5,9.6l7,12l27.1,47c1.2,2,2.2,4.1,3,6.2c0.2,0.5,0.4,0.9,0.5,1.4c0,0,0,0,0,0
		C495.4,244.4,496.3,252.8,495.1,261z"/>
</g>
<path d="M426.3,234.8"/>
<path class="st14" d="M415.5,99.8l-3-4.8l4.4,3.5"/>
<path class="st14" d="M492.5,236.5c-0.2-0.5-0.4-0.9-0.5-1.4c-0.8-2.1-1.8-4.2-3-6.2l-27.1-47l-7-12l-5.5-9.6l-2.4-4.2"/>
<path class="st15" d="M387,396"/>
<path class="st15" d="M131.9,168.2"/>
<path class="st15" d="M141.3,385.2"/>
<path class="st15" d="M365.9,148.8"/>
<path class="st16" d="M369.9,357.8"/>
<path class="st16" d="M269.8,172.1"/>
<path class="st16" d="M256,144.7c-64.9,0-117.5,52.6-117.5,117.5S191.1,379.7,256,379.7s117.5-52.6,117.5-117.5
	S320.8,144.7,256,144.7z M257.6,357.8c-52,0-94.1-42.1-94.1-94.1s42.1-94.1,94.1-94.1s94.1,42.1,94.1,94.1
	C351.7,315.6,309.5,357.8,257.6,357.8z"/>
<rect x="187.3" y="131.8" transform="matrix(0.9112 -0.4119 0.4119 0.9112 -45.1269 98.3001)" class="st16" width="36.4" height="44"/>
<rect x="137.2" y="173.3" transform="matrix(0.469 -0.8832 0.8832 0.469 -89.9781 240.9963)" class="st16" width="36.4" height="44"/>
<rect x="119.4" y="237.1" transform="matrix(9.813572e-02 -0.9952 0.9952 9.813572e-02 -133.7459 370.6588)" class="st16" width="36.4" height="44"/>
<rect x="133.4" y="304" transform="matrix(0.9112 -0.4119 0.4119 0.9112 -118.9289 92.6132)" class="st16" width="44" height="36.4"/>
<rect x="177.3" y="348.1" transform="matrix(0.5912 -0.8065 0.8065 0.5912 -213.9352 310.4679)" class="st16" width="44" height="36.4"/>
<rect x="251.6" y="362.2" transform="matrix(0.989 -0.1481 0.1481 0.989 -53.9184 44.1893)" class="st16" width="36.4" height="44"/>
<rect x="312.7" y="330.8" transform="matrix(0.8027 -0.5963 0.5963 0.8027 -145.0761 266.9374)" class="st16" width="36.4" height="44"/>
<rect x="355.3" y="275.6" transform="matrix(0.2487 -0.9686 0.9686 0.2487 -7.6639 585.3953)" class="st16" width="36.4" height="44"/>
<rect x="353.3" y="204.6" transform="matrix(0.9362 -0.3516 0.3516 0.9362 -54.37 146.1828)" class="st16" width="44" height="36.4"/>
<rect x="321.6" y="153.9" transform="matrix(0.637 -0.7708 0.7708 0.637 -7.9463 327.3531)" class="st16" width="44" height="36.4"/>
<rect x="255.8" y="126.5" transform="matrix(0.1742 -0.9847 0.9847 0.1742 86.8783 393.004)" class="st16" width="44" height="36.4"/>
</svg>
