<?xml version="1.0" encoding="utf-8"?>
<!-- Generator: Adobe Illustrator 24.0.1, SVG Export Plug-In . SVG Version: 6.00 Build 0)  -->
<svg version="1.1" id="Layer_1" xmlns="http://www.w3.org/2000/svg" xmlns:xlink="http://www.w3.org/1999/xlink" x="0px" y="0px"
	 viewBox="0 0 512 512" style="enable-background:new 0 0 512 512;" xml:space="preserve">
<style type="text/css">
	.st0{display:none;}
	.st1{display:inline;fill:#200A7F;stroke:#18E5EA;stroke-width:20;stroke-miterlimit:10;}
	.st2{display:inline;fill:#EF0B79;}
	.st3{display:inline;fill:#18E5EA;}
	.st4{display:inline;}
	.st5{fill:#E9F21C;}
	.st6{display:inline;fill:none;}
	.st7{display:inline;fill:#EF3A24;}
	.st8{font-family:'MyriadPro-Regular';}
	.st9{font-size:250px;}
	.st10{display:inline;fill:#FFFFFF;}
	.st11{fill:#C4C6C8;}
	.st12{fill:url(#SVGID_1_);}
	.st13{fill:url(#SVGID_2_);stroke:#E8E8E8;stroke-width:3;stroke-miterlimit:10;}
	.st14{fill:url(#SVGID_3_);stroke:#E2E2E2;stroke-width:7;stroke-miterlimit:10;}
	.st15{fill:#231F20;stroke:url(#SVGID_4_);stroke-width:7;stroke-miterlimit:10;}
	.st16{fill:none;stroke:#E2E2E2;stroke-width:7;stroke-miterlimit:10;}
	.st17{opacity:0.5;fill:none;stroke:#E2E2E2;stroke-width:7;stroke-miterlimit:10;enable-background:new    ;}
	.st18{fill:none;}
	.st19{font-size:56.3038px;}
	.st20{fill:#FFFFFF;}
</style>
<g id="Layer_3" class="st0">
	<path class="st1" d="M401.1,212.2c5.1,15.3,7.9,31.7,7.9,48.8c0,85.3-69.2,154.5-154.5,154.5S100,346.3,100,261
		s69.2-154.5,154.5-154.5c51.2,0,96.6,24.9,124.7,63.3"/>
	<path class="st2" d="M333.4,255.2c0,4.2-3.3,7.7-7.4,7.7H174.9c-4.1,0-7.4-3.4-7.4-7.7l0,0c0-4.2,3.3-7.7,7.4-7.7H326
		C330.1,247.5,333.4,250.9,333.4,255.2L333.4,255.2z"/>
	<path class="st2" d="M333.4,284.8c0,4.2-3.3,7.6-7.4,7.6H174.9c-4.1,0-7.4-3.4-7.4-7.6l0,0c0-4.2,3.3-7.6,7.4-7.6H326
		C330.1,277.1,333.4,280.6,333.4,284.8L333.4,284.8z"/>
	<path class="st2" d="M333.4,313c0,4.2-3.3,7.7-7.4,7.7H174.9c-4.1,0-7.4-3.4-7.4-7.7l0,0c0-4.2,3.3-7.6,7.4-7.6H326
		C330.1,305.4,333.4,308.8,333.4,313L333.4,313z"/>
	<path class="st2" d="M333.4,338.4c0,4.2-3.3,7.7-7.4,7.7H174.9c-4.1,0-7.4-3.4-7.4-7.7l0,0c0-4.2,3.3-7.6,7.4-7.6H326
		C330.1,330.7,333.4,334.1,333.4,338.4L333.4,338.4z"/>
	<polygon class="st3" points="395,191.5 320.2,165.2 380.4,113.5 	"/>
	<g class="st4">
		<g>
			<g>
				<path class="st5" d="M241.5,239.2c-2.3,0-4.4-1.1-5.8-2.9l-18.8-24.8c-2.4-3.2-1.8-7.8,1.4-10.3c3.2-2.4,7.8-1.8,10.3,1.4
					l12.3,16.3l31-49.8c2.1-3.4,6.6-4.5,10.1-2.3c3.4,2.1,4.5,6.6,2.3,10.1l-36.7,58.9c-1.3,2-3.5,3.3-5.9,3.4
					C241.7,239.2,241.6,239.2,241.5,239.2z"/>
			</g>
		</g>
	</g>
</g>
<g id="Layer_2_2_" class="st0">
	<rect x="121" y="171.5" class="st6" width="298" height="251"/>
	<text transform="matrix(1 0 0 1 121 348.9979)" class="st7 st8 st9">24</text>
	<circle class="st10" cx="138.3" cy="91.8" r="17.3"/>
	<circle class="st10" cx="185.3" cy="91.8" r="17.3"/>
	<circle class="st10" cx="232.3" cy="91.8" r="17.3"/>
	<circle class="st10" cx="278.3" cy="91.8" r="17.3"/>
	<circle class="st10" cx="323.3" cy="91.8" r="17.3"/>
	<circle class="st10" cx="368.3" cy="91.8" r="17.3"/>
</g>
<g>
	<path class="st11" d="M350.3,54.5H161.7c-17.9,0-34.5,9.6-43.4,25.1L24,242.9c-9,15.5-9,34.6,0,50.2l94.3,163.3
		c9,15.5,25.5,25.1,43.4,25.1h188.5c17.9,0,34.5-9.6,43.4-25.1L488,293.1c9-15.5,9-34.6,0-50.2L393.7,79.6
		C384.8,64.1,368.2,54.5,350.3,54.5z"/>
</g>
<g>
	<linearGradient id="SVGID_1_" gradientUnits="userSpaceOnUse" x1="18.1498" y1="253.95" x2="495.6111" y2="253.95">
		<stop  offset="0" style="stop-color:#2BC4F3"/>
		<stop  offset="0.5" style="stop-color:#00AEEE"/>
		<stop  offset="1" style="stop-color:#0095DA"/>
	</linearGradient>
	<path class="st12" d="M494.6,263.9c-0.8,3.7-1.9,7.4-3.5,10.9c-0.7,1.4-1.4,2.9-2.2,4.3l-43.2,74.8L430,381.1l-6.4,11l-29,50.3
		c-0.5,1-1.1,1.9-1.7,2.8c-8.3,12.4-21.7,20.5-36.5,22c-1.7,0.2-3.4,0.3-5.2,0.3H162.6c-17.1,0-33-8.8-42.3-23.1
		c-0.4-0.7-0.8-1.3-1.2-2l-15.3-26.6l-13.7-23.7L78.5,372l-45.1-78.2L24.9,279c-2.8-4.8-4.7-9.9-5.8-15.1
		c-2.4-11.8-0.5-24.3,5.8-35.1l6.5-11.3l13.9-24l8.4-14.6l6.5-11.2l12.2-21.1l46.8-81.1c0.4-0.6,0.7-1.2,1.1-1.8
		c9.2-14.4,25.1-23.3,42.4-23.3h188.5c17.9,0,34.5,9.6,43.5,25.1l20.7,35.9l6.3,10.9l8.3,14.4l11.5,19.9l5.5,9.5l2.4,4.2l5.5,9.6
		l7,12l27.1,47c1.2,2,2.2,4.1,3,6.2C495.7,244.3,496.5,254.3,494.6,263.9z"/>
	<linearGradient id="SVGID_2_" gradientUnits="userSpaceOnUse" x1="18.1498" y1="253.95" x2="495.6111" y2="253.95">
		<stop  offset="0" style="stop-color:#2BC4F3"/>
		<stop  offset="0.5" style="stop-color:#00AEEE"/>
		<stop  offset="1" style="stop-color:#0095DA"/>
	</linearGradient>
	<path class="st13" d="M494.6,263.9c-0.8,3.7-1.9,7.4-3.5,10.9c-0.7,1.4-1.4,2.9-2.2,4.3l-43.2,74.8L430,381.1l-6.4,11l-29,50.3
		c-0.5,1-1.1,1.9-1.7,2.8c-8.3,12.4-21.7,20.5-36.5,22c-1.7,0.2-3.4,0.3-5.2,0.3H162.6c-17.1,0-33-8.8-42.3-23.1
		c-0.4-0.7-0.8-1.3-1.2-2l-15.3-26.6l-13.7-23.7L78.5,372l-45.1-78.2L24.9,279c-2.8-4.8-4.7-9.9-5.8-15.1
		c-2.4-11.8-0.5-24.3,5.8-35.1l6.5-11.3l13.9-24l8.4-14.6l6.5-11.2l12.2-21.1l46.8-81.1c0.4-0.6,0.7-1.2,1.1-1.8
		c9.2-14.4,25.1-23.3,42.4-23.3h188.5c17.9,0,34.5,9.6,43.5,25.1l20.7,35.9l6.3,10.9l8.3,14.4l11.5,19.9l5.5,9.5l2.4,4.2l5.5,9.6
		l7,12l27.1,47c1.2,2,2.2,4.1,3,6.2C495.7,244.3,496.5,254.3,494.6,263.9z"/>
</g>
<radialGradient id="SVGID_3_" cx="-35.0886" cy="278.6423" r="1.1056" gradientTransform="matrix(1 0 0 -1 0 512)" gradientUnits="userSpaceOnUse">
	<stop  offset="0" style="stop-color:#6D583F"/>
	<stop  offset="0.5" style="stop-color:#483318"/>
	<stop  offset="1" style="stop-color:#282913"/>
</radialGradient>
<path class="st14" d="M-35.1,231.8c0,0,0,0.7,0,1.6c0,0.9,0,1.6,0,1.6s0-0.7,0-1.6C-35.1,232.5-35.1,231.8-35.1,231.8z"/>
<linearGradient id="SVGID_4_" gradientUnits="userSpaceOnUse" x1="-42.3213" y1="146.4845" x2="-42.3213" y2="146.4845" gradientTransform="matrix(1 0 0 -1 0 512)">
	<stop  offset="0" style="stop-color:#5B57A5"/>
	<stop  offset="0.5" style="stop-color:#2E3092"/>
	<stop  offset="1" style="stop-color:#474374"/>
</linearGradient>
<path class="st15" d="M-42.3,365.5"/>
<path class="st16" d="M441.5,146.6H72.4l46.8-81.1c0.4-0.6,0.7-1.2,1.1-1.8c9.2-14.4,25.1-23.3,42.4-23.3h188.5
	c17.9,0,34.5,9.6,43.5,25.1l20.7,35.9l6.3,10.9l8.3,14.4L441.5,146.6z"/>
<path class="st16" d="M492,235.1c3.7,9.2,4.5,19.2,2.6,28.8H19.2c-2.4-11.8-0.5-24.3,5.8-35.1l6.5-11.3l13.9-24v-25.8h14.9
	l12.2-21.1h369.1l5.5,9.5l2.4,4.2l5.5,9.6l7,12l27.1,47C490.2,230.9,491.2,233,492,235.1z"/>
<path class="st16" d="M494.6,263.9c-0.8,3.7-1.9,7.4-3.5,10.9c-0.7,1.4-1.4,2.9-2.2,4.3l-43.2,74.8L430,381.1v11H90.1L78.5,372
	l-45.1-78.2L24.9,279c-2.8-4.8-4.7-9.9-5.8-15.1H494.6z"/>
<path class="st16" d="M423.6,392.1l-29,50.3c-0.5,1-1.1,1.9-1.7,2.8c-8.3,12.4-21.7,20.5-36.5,22c-1.7,0.2-3.4,0.3-5.2,0.3H162.6
	c-17.1,0-33-8.8-42.3-23.1c-0.4-0.7-0.8-1.3-1.2-2l-15.3-26.6l-13.7-23.7H423.6z"/>
<path class="st16" d="M427.6,499.1c-0.2,0-0.4,0.1-0.5,0.1c-0.2,0-0.5,0.1-0.7,0.1C426.7,499.2,427.2,499.2,427.6,499.1z"/>
<path class="st16" d="M510.3,409.3c0.1-0.5,0.1-1.1,0.2-1.6c0,0.3-0.1,0.7-0.1,1C510.3,408.9,510.3,409.1,510.3,409.3z"/>
<path class="st16" d="M510.7,404.7c0-0.3,0-0.6,0.1-0.9c0,0.2,0,0.4,0,0.6C510.7,404.5,510.7,404.6,510.7,404.7z"/>
<path class="st16" d="M510.8,401.9c0,0.2,0,0.4,0,0.6c0,0.2,0,0.5,0,0.7C510.8,402.8,510.8,402.4,510.8,401.9z"/>
<path class="st17" d="M120.3,63.7v380.7c-0.4-0.7-0.8-1.3-1.2-2l-15.3-26.6l-13.7-23.7L78.5,372l-45.1-78.2L24.9,279
	c-2.8-4.8-4.7-9.9-5.8-15.1c-2.4-11.8-0.5-24.3,5.8-35.1l6.5-11.3l13.9-24v-25.8h14.9l12.2-21.1l46.8-81.1
	C119.6,64.9,119.9,64.3,120.3,63.7z"/>
<path class="st17" d="M228.3,40.4v427.1h-65.7c-17.1,0-33-8.8-42.3-23.1V63.7c9.2-14.4,25.1-23.3,42.4-23.3H228.3z"/>
<rect x="228.3" y="40.4" class="st17" width="102.4" height="427.1"/>
<path class="st17" d="M430,126.7v265.4h-6.4l-29,50.3c-0.5,1-1.1,1.9-1.7,2.8c-8.3,12.4-21.7,20.5-36.5,22c-1.7,0.2-3.4,0.3-5.2,0.3
	h-20.5V40.4h20.5c17.9,0,34.5,9.6,43.5,25.1l20.7,35.9l6.3,10.9L430,126.7z"/>
<path class="st17" d="M456.6,52.7c-1.3-0.7-2.6-1.3-3.9-2C454,51.3,455.3,52,456.6,52.7z"/>
<path class="st17" d="M445.7,353.9L430,381.1V126.7l11.5,19.9l5.5,9.5l2.4,4.2l5.5,9.6l7,12l27.1,47c1.2,2,2.2,4.1,3,6.2
	c3.7,9.2,4.5,19.2,2.6,28.8c-0.8,3.7-1.9,7.4-3.5,10.9c-0.7,1.4-1.4,2.9-2.2,4.3L445.7,353.9z"/>
<path class="st17" d="M452.7,490.7c1.3-0.6,2.6-1.3,3.9-2C455.3,489.4,454,490.1,452.7,490.7z"/>
<rect x="45.3" y="167.7" class="st18" width="61" height="70.4"/>
<text transform="matrix(1 0 0 1 45.2617 207.6445)" class="st8 st19">3</text>
<rect x="155.5" y="165.3" class="st18" width="61" height="70.4"/>
<text transform="matrix(1 0 0 1 155.5225 205.2988)" class="st8 st19">8</text>
<rect x="360.6" y="165.3" class="st18" width="61" height="70.4"/>
<text transform="matrix(1 0 0 1 360.5977 205.2988)" class="st8 st19">5</text>
<rect x="361" y="305.3" class="st18" width="61" height="70.4"/>
<text transform="matrix(1 0 0 1 360.9844 345.2764)" class="st8 st19">3</text>
<rect x="152.2" y="313.9" class="st18" width="61" height="70.4"/>
<text transform="matrix(1 0 0 1 152.1924 353.8799)" class="st8 st19">2</text>
<rect x="262.1" y="410.9" class="st18" width="61" height="56.6"/>
<text transform="matrix(1 0 0 1 262.0605 450.8457)" class="st8 st19">5</text>
<rect x="158.6" y="73.9" class="st18" width="61" height="70.4"/>
<text transform="matrix(1 0 0 1 158.6416 113.9033)" class="st8 st19">2</text>
<text transform="matrix(1 0 0 1 446.417 123.9717)" class="st20 st8 st19">9</text>
</svg>
