<?xml version="1.0" encoding="utf-8"?>
<!-- Generator: Adobe Illustrator 16.0.0, SVG Export Plug-In . SVG Version: 6.00 Build 0)  -->
<!DOCTYPE svg PUBLIC "-//W3C//DTD SVG 1.1//EN" "http://www.w3.org/Graphics/SVG/1.1/DTD/svg11.dtd">
<svg version="1.1" id="Layer_1" xmlns="http://www.w3.org/2000/svg" xmlns:xlink="http://www.w3.org/1999/xlink" x="0px" y="0px"
	 width="2000px" height="2000px" viewBox="0 0 2000 2000" enable-background="new 0 0 2000 2000" xml:space="preserve">
<g id="Layer_3" display="none">
	<path display="inline" fill="#200A7F" stroke="#18E5EA" stroke-width="20" stroke-miterlimit="10" d="M1566.797,828.906
		c19.922,59.766,30.859,123.828,30.859,190.625c0,333.203-270.313,603.516-603.516,603.516s-603.516-270.313-603.516-603.516
		s270.313-603.516,603.516-603.516c200,0,377.344,97.266,487.109,247.266"/>
	<path display="inline" fill="#EF0B79" d="M1302.344,996.875c0,16.406-12.891,30.078-28.906,30.078H683.203
		c-16.016,0-28.906-13.281-28.906-30.078l0,0c0-16.406,12.891-30.078,28.906-30.078h590.234
		C1289.453,966.797,1302.344,980.078,1302.344,996.875L1302.344,996.875z"/>
	<path display="inline" fill="#EF0B79" d="M1302.344,1112.5c0,16.406-12.891,29.688-28.906,29.688H683.203
		c-16.016,0-28.906-13.281-28.906-29.688l0,0c0-16.406,12.891-29.688,28.906-29.688h590.234
		C1289.453,1082.422,1302.344,1096.094,1302.344,1112.5L1302.344,1112.5z"/>
	<path display="inline" fill="#EF0B79" d="M1302.344,1222.656c0,16.406-12.891,30.078-28.906,30.078H683.203
		c-16.016,0-28.906-13.281-28.906-30.078l0,0c0-16.406,12.891-29.688,28.906-29.688h590.234
		C1289.453,1192.969,1302.344,1206.25,1302.344,1222.656L1302.344,1222.656z"/>
	<path display="inline" fill="#EF0B79" d="M1302.344,1321.875c0,16.406-12.891,30.078-28.906,30.078H683.203
		c-16.016,0-28.906-13.281-28.906-30.078l0,0c0-16.406,12.891-29.688,28.906-29.688h590.234
		C1289.453,1291.797,1302.344,1305.078,1302.344,1321.875L1302.344,1321.875z"/>
	<polygon display="inline" fill="#18E5EA" points="1542.969,748.047 1250.781,645.313 1485.938,443.359 	"/>
	<g display="inline">
		<g>
			<g>
				<path fill="#E9F21C" d="M943.359,934.375c-8.984,0-17.188-4.297-22.656-11.328l-73.438-96.875
					c-9.375-12.5-7.031-30.469,5.469-40.234c12.5-9.375,30.469-7.031,40.234,5.469l48.047,63.672l121.094-194.531
					c8.203-13.281,25.781-17.578,39.453-8.984c13.281,8.203,17.578,25.781,8.984,39.453L967.188,921.094
					c-5.078,7.813-13.672,12.891-23.047,13.281C944.141,934.375,943.75,934.375,943.359,934.375z"/>
			</g>
		</g>
	</g>
</g>
<g id="Layer_2_2_" display="none">
	<rect x="472.656" y="669.922" display="inline" fill="none" width="1164.063" height="980.469"/>
	
		<text transform="matrix(1 0 0 1 472.6543 1363.2715)" display="inline" fill="#EF3A24" font-family="'MyriadPro-Regular'" font-size="976.5625">24</text>
	<circle display="inline" fill="#FFFFFF" cx="540.234" cy="358.594" r="67.578"/>
	<circle display="inline" fill="#FFFFFF" cx="723.828" cy="358.594" r="67.578"/>
	<circle display="inline" fill="#FFFFFF" cx="907.422" cy="358.594" r="67.578"/>
	<circle display="inline" fill="#FFFFFF" cx="1087.109" cy="358.594" r="67.578"/>
	<circle display="inline" fill="#FFFFFF" cx="1262.891" cy="358.594" r="67.578"/>
	<circle display="inline" fill="#FFFFFF" cx="1438.672" cy="358.594" r="67.578"/>
</g>
<g>
	<path fill="#C4C6C8" d="M1368.359,212.891H631.641c-69.922,0-134.766,37.5-169.531,98.047L93.75,948.828
		c-35.156,60.547-35.156,135.156,0,196.094l368.359,637.891c35.156,60.547,99.609,98.047,169.531,98.047h736.328
		c69.922,0,134.766-37.5,169.531-98.047l368.75-637.891c35.156-60.547,35.156-135.156,0-196.094l-368.359-637.891
		C1503.125,250.391,1438.281,212.891,1368.359,212.891z"/>
</g>
<g>
	
		<linearGradient id="SVGID_1_" gradientUnits="userSpaceOnUse" x1="-159.1416" y1="6743.6992" x2="318.3208" y2="6743.6992" gradientTransform="matrix(3.9063 0 0 3.9063 692.5469 -25350.5781)">
		<stop  offset="0" style="stop-color:#A4ACC3"/>
		<stop  offset="0.6854" style="stop-color:#627091"/>
		<stop  offset="1" style="stop-color:#4F5F82"/>
	</linearGradient>
	<path fill="url(#SVGID_1_)" d="M1918.359,1073.438c-2.734,5.469-5.469,11.328-8.594,16.797l-368.359,637.891
		c-1.953,3.906-4.297,7.422-6.641,10.938c-32.422,48.438-84.766,80.078-142.578,85.938c-6.641,0.781-13.281,1.172-20.313,1.172
		H635.156c-69.922,0-134.766-37.5-169.922-98.047l-59.766-103.906l-275-476.563l-33.203-57.813
		c-35.156-60.547-35.156-135.156,0-196.094l25.391-44.141l87.109-150.781l255.859-442.969
		c35.156-60.547,99.609-98.047,169.922-98.047h736.328c69.922,0,134.766,37.5,169.922,98.047l80.859,140.234l24.609,42.578
		l98.828,171.094l9.375,16.406l21.484,37.5l27.344,46.875l105.859,183.594c4.688,7.813,8.594,16.016,11.719,24.219
		C1941.797,968.359,1940.625,1024.609,1918.359,1073.438z"/>
	
		<linearGradient id="SVGID_2_" gradientUnits="userSpaceOnUse" x1="-159.1416" y1="2234.5938" x2="318.3208" y2="2234.5938" gradientTransform="matrix(3.9063 0 0 -3.9063 692.5469 9720.8711)">
		<stop  offset="0" style="stop-color:#A4ACC3"/>
		<stop  offset="0.6854" style="stop-color:#627091"/>
		<stop  offset="1" style="stop-color:#4F5F82"/>
	</linearGradient>
	<path fill="url(#SVGID_2_)" stroke="#E8E8E8" stroke-width="3" stroke-miterlimit="10" d="M1918.359,1073.438
		c-2.734,5.469-5.469,11.328-8.594,16.797l-368.359,637.891c-1.953,3.906-4.297,7.422-6.641,10.938
		c-32.422,48.438-84.766,80.078-142.578,85.938c-6.641,0.781-13.281,1.172-20.313,1.172H635.156
		c-69.922,0-134.766-37.5-169.922-98.047l-59.766-103.906l-275-476.563l-33.203-57.813c-35.156-60.547-35.156-135.156,0-196.094
		l25.391-44.141l87.109-150.781l255.859-442.969c35.156-60.547,99.609-98.047,169.922-98.047h736.328
		c69.922,0,134.766,37.5,169.922,98.047l80.859,140.234l24.609,42.578l98.828,171.094l9.375,16.406l21.484,37.5l27.344,46.875
		l105.859,183.594c4.688,7.813,8.594,16.016,11.719,24.219C1941.797,968.359,1940.625,1024.609,1918.359,1073.438z"/>
</g>
<path fill="#FFFFFF" d="M698.047,706.641l98.047,39.453c21.484,8.594,45.703-1.953,54.297-23.438s-1.953-45.703-23.438-54.688
	l-15.234-6.25c62.891-39.063,135.156-59.766,209.375-59.766c67.578,0,133.594,16.797,192.188,49.609
	c20.313,11.328,45.703,3.906,57.031-16.406s3.906-45.703-16.406-57.031c-71.484-39.453-151.563-60.156-232.813-60.156
	c-89.844,0-177.734,25-254.297,72.656l-2.344,1.563l4.688-24.219c4.688-22.656-10.156-44.531-32.813-49.219
	s-44.531,10.156-49.219,32.813l-19.531,97.656C662.891,672.656,676.563,698.047,698.047,706.641z"/>
<path fill="#FFFFFF" d="M1303.125,1292.969l-75-37.5c-20.703-10.156-45.703-1.953-55.859,18.75s-1.953,45.703,18.75,56.25
	l28.906,14.453l-14.063,7.422c-57.031,30.078-120.313,45.313-184.375,45.313c-62.109,0-123.047-14.453-178.516-42.188
	c-20.703-10.547-46.094-1.953-56.25,18.75c-10.547,20.703-1.953,45.703,18.75,56.25c66.797,33.594,141.016,51.172,216.016,51.172
	c72.656,0,144.531-16.406,209.766-48.047c-3.516,21.875,10.938,42.969,33.203,47.266c22.656,4.688,44.531-10.156,49.219-32.813
	l19.141-94.922C1337.109,1330.078,1323.828,1303.125,1303.125,1292.969z"/>
</svg>
