<?xml version="1.0" encoding="utf-8"?>
<!-- Generator: Adobe Illustrator 24.0.1, SVG Export Plug-In . SVG Version: 6.00 Build 0)  -->
<svg version="1.1" id="Layer_1" xmlns="http://www.w3.org/2000/svg" xmlns:xlink="http://www.w3.org/1999/xlink" x="0px" y="0px"
	 viewBox="0 0 512 512" style="enable-background:new 0 0 512 512;" xml:space="preserve">
<style type="text/css">
	.st0{display:none;}
	.st1{display:inline;fill:#200A7F;stroke:#18E5EA;stroke-width:20;stroke-miterlimit:10;}
	.st2{display:inline;fill:#EF0B79;}
	.st3{display:inline;fill:#18E5EA;}
	.st4{display:inline;}
	.st5{fill:#E9F21C;}
	.st6{display:inline;fill:none;}
	.st7{display:inline;fill:#EF3A24;}
	.st8{font-family:'MyriadPro-Regular';}
	.st9{font-size:250px;}
	.st10{display:inline;fill:#FFFFFF;}
	.st11{opacity:0.37;}
	.st12{fill:#C4C6C8;}
	.st13{fill:url(#SVGID_1_);}
	.st14{fill:none;stroke:#E8E8E8;stroke-width:3;stroke-miterlimit:10;}
	.st15{fill:url(#SVGID_2_);}
	.st16{fill:none;stroke:#E2E2E2;stroke-width:10;stroke-miterlimit:10;}
	.st17{fill:url(#SVGID_3_);}
	.st18{fill:url(#SVGID_4_);}
</style>
<g id="Layer_3" class="st0">
	<path class="st1" d="M401.1,212.2c5.1,15.3,7.9,31.7,7.9,48.8c0,85.3-69.2,154.5-154.5,154.5S100,346.3,100,261
		s69.2-154.5,154.5-154.5c51.2,0,96.6,24.9,124.7,63.3"/>
	<path class="st2" d="M333.4,255.2c0,4.2-3.3,7.7-7.4,7.7H174.9c-4.1,0-7.4-3.4-7.4-7.7l0,0c0-4.2,3.3-7.7,7.4-7.7H326
		C330.1,247.5,333.4,250.9,333.4,255.2L333.4,255.2z"/>
	<path class="st2" d="M333.4,284.8c0,4.2-3.3,7.6-7.4,7.6H174.9c-4.1,0-7.4-3.4-7.4-7.6l0,0c0-4.2,3.3-7.6,7.4-7.6H326
		C330.1,277.1,333.4,280.6,333.4,284.8L333.4,284.8z"/>
	<path class="st2" d="M333.4,313c0,4.2-3.3,7.7-7.4,7.7H174.9c-4.1,0-7.4-3.4-7.4-7.7l0,0c0-4.2,3.3-7.6,7.4-7.6H326
		C330.1,305.4,333.4,308.8,333.4,313L333.4,313z"/>
	<path class="st2" d="M333.4,338.4c0,4.2-3.3,7.7-7.4,7.7H174.9c-4.1,0-7.4-3.4-7.4-7.7l0,0c0-4.2,3.3-7.6,7.4-7.6H326
		C330.1,330.7,333.4,334.1,333.4,338.4L333.4,338.4z"/>
	<polygon class="st3" points="395,191.5 320.2,165.2 380.4,113.5 	"/>
	<g class="st4">
		<g>
			<g>
				<path class="st5" d="M241.5,239.2c-2.3,0-4.4-1.1-5.8-2.9l-18.8-24.8c-2.4-3.2-1.8-7.8,1.4-10.3c3.2-2.4,7.8-1.8,10.3,1.4
					l12.3,16.3l31-49.8c2.1-3.4,6.6-4.5,10.1-2.3c3.4,2.1,4.5,6.6,2.3,10.1l-36.7,58.9c-1.3,2-3.5,3.3-5.9,3.4
					C241.7,239.2,241.6,239.2,241.5,239.2z"/>
			</g>
		</g>
	</g>
</g>
<g id="Layer_2_2_" class="st0">
	<rect x="121" y="171.5" class="st6" width="298" height="251"/>
	<text transform="matrix(1 0 0 1 121 348.9979)" class="st7 st8 st9">24</text>
	<circle class="st10" cx="138.3" cy="91.8" r="17.3"/>
	<circle class="st10" cx="185.3" cy="91.8" r="17.3"/>
	<circle class="st10" cx="232.3" cy="91.8" r="17.3"/>
	<circle class="st10" cx="278.3" cy="91.8" r="17.3"/>
	<circle class="st10" cx="323.3" cy="91.8" r="17.3"/>
	<circle class="st10" cx="368.3" cy="91.8" r="17.3"/>
</g>
<g class="st11">
	<path class="st12" d="M350.3,54.5H161.7c-17.9,0-34.5,9.6-43.4,25.1L24,242.9c-9,15.5-9,34.6,0,50.2l94.3,163.3
		c9,15.5,25.5,25.1,43.4,25.1h188.5c17.9,0,34.5-9.6,43.4-25.1L488,293.1c9-15.5,9-34.6,0-50.2L393.7,79.6
		C384.8,64.1,368.2,54.5,350.3,54.5z"/>
</g>
<g class="st11">
	
		<radialGradient id="SVGID_1_" cx="256.8813" cy="583.8397" r="226.4908" gradientTransform="matrix(1 0 0 1 0 -329.8898)" gradientUnits="userSpaceOnUse">
		<stop  offset="0" style="stop-color:#96CBC7"/>
		<stop  offset="0.5" style="stop-color:#68B8B2"/>
		<stop  offset="0.6404" style="stop-color:#5DB3AD"/>
		<stop  offset="1" style="stop-color:#46A8A1"/>
	</radialGradient>
	<path class="st13" d="M491.1,274.8c-0.7,1.4-1.4,2.9-2.2,4.3l-94.3,163.3c-0.5,1-1.1,1.9-1.7,2.8c-8.3,12.4-21.7,20.5-36.5,22
		c-1.7,0.2-3.4,0.3-5.2,0.3H162.6c-17.9,0-34.5-9.6-43.5-25.1l-15.3-26.6l-70.4-122L24.9,279c-9-15.5-9-34.6,0-50.2l6.5-11.3
		l22.3-38.6l65.5-113.4c9-15.5,25.5-25.1,43.5-25.1h188.5c17.9,0,34.5,9.6,43.5,25.1l20.7,35.9l6.3,10.9l25.3,43.8l2.4,4.2l5.5,9.6
		l7,12l27.1,47c1.2,2,2.2,4.1,3,6.2C497.1,247.9,496.8,262.3,491.1,274.8z"/>
	<path class="st14" d="M491.1,274.8c-0.7,1.4-1.4,2.9-2.2,4.3l-94.3,163.3c-0.5,1-1.1,1.9-1.7,2.8c-8.3,12.4-21.7,20.5-36.5,22
		c-1.7,0.2-3.4,0.3-5.2,0.3H162.6c-17.9,0-34.5-9.6-43.5-25.1l-15.3-26.6l-70.4-122L24.9,279c-9-15.5-9-34.6,0-50.2l6.5-11.3
		l22.3-38.6l65.5-113.4c9-15.5,25.5-25.1,43.5-25.1h188.5c17.9,0,34.5,9.6,43.5,25.1l20.7,35.9l6.3,10.9l25.3,43.8l2.4,4.2l5.5,9.6
		l7,12l27.1,47c1.2,2,2.2,4.1,3,6.2C497.1,247.9,496.8,262.3,491.1,274.8z"/>
</g>
<g id="Layer_2_1_">
	<g>
		<g>
			
				<radialGradient id="SVGID_2_" cx="193.2" cy="672.2809" r="71" gradientTransform="matrix(1 0 0 -1 0 845.181)" gradientUnits="userSpaceOnUse">
				<stop  offset="0" style="stop-color:#10006B"/>
				<stop  offset="8.600000e-02" style="stop-color:#12046D"/>
				<stop  offset="0.1761" style="stop-color:#191174"/>
				<stop  offset="0.2681" style="stop-color:#25267F"/>
				<stop  offset="0.3615" style="stop-color:#35438F"/>
				<stop  offset="0.455" style="stop-color:#4A69A3"/>
				<stop  offset="0.4888" style="stop-color:#5378AB"/>
				<stop  offset="0.5719" style="stop-color:#415B8E"/>
				<stop  offset="0.7018" style="stop-color:#283466"/>
				<stop  offset="0.8208" style="stop-color:#17174A"/>
				<stop  offset="0.9241" style="stop-color:#0C0638"/>
				<stop  offset="1" style="stop-color:#080032"/>
			</radialGradient>
			<circle class="st15" cx="193.2" cy="172.9" r="71"/>
			<circle class="st16" cx="193.2" cy="172.9" r="71"/>
		</g>
	</g>
	<g>
		<g>
			
				<radialGradient id="SVGID_3_" cx="193.2" cy="491.581" r="71" gradientTransform="matrix(1 0 0 -1 0 845.181)" gradientUnits="userSpaceOnUse">
				<stop  offset="0" style="stop-color:#10006B"/>
				<stop  offset="8.600000e-02" style="stop-color:#12046D"/>
				<stop  offset="0.1761" style="stop-color:#191174"/>
				<stop  offset="0.2681" style="stop-color:#25267F"/>
				<stop  offset="0.3615" style="stop-color:#35438F"/>
				<stop  offset="0.455" style="stop-color:#4A69A3"/>
				<stop  offset="0.4888" style="stop-color:#5378AB"/>
				<stop  offset="0.5719" style="stop-color:#415B8E"/>
				<stop  offset="0.7018" style="stop-color:#283466"/>
				<stop  offset="0.8208" style="stop-color:#17174A"/>
				<stop  offset="0.9241" style="stop-color:#0C0638"/>
				<stop  offset="1" style="stop-color:#080032"/>
			</radialGradient>
			<circle class="st17" cx="193.2" cy="353.6" r="71"/>
			<circle class="st16" cx="193.2" cy="353.6" r="71"/>
		</g>
	</g>
	<g>
		<g>
			
				<radialGradient id="SVGID_4_" cx="363.7" cy="581.481" r="71" gradientTransform="matrix(1 0 0 -1 0 845.181)" gradientUnits="userSpaceOnUse">
				<stop  offset="0" style="stop-color:#10006B"/>
				<stop  offset="8.600000e-02" style="stop-color:#12046D"/>
				<stop  offset="0.1761" style="stop-color:#191174"/>
				<stop  offset="0.2681" style="stop-color:#25267F"/>
				<stop  offset="0.3615" style="stop-color:#35438F"/>
				<stop  offset="0.455" style="stop-color:#4A69A3"/>
				<stop  offset="0.4888" style="stop-color:#5378AB"/>
				<stop  offset="0.5719" style="stop-color:#415B8E"/>
				<stop  offset="0.7018" style="stop-color:#283466"/>
				<stop  offset="0.8208" style="stop-color:#17174A"/>
				<stop  offset="0.9241" style="stop-color:#0C0638"/>
				<stop  offset="1" style="stop-color:#080032"/>
			</radialGradient>
			<circle class="st18" cx="363.7" cy="263.7" r="71"/>
			<circle class="st16" cx="363.7" cy="263.7" r="71"/>
		</g>
	</g>
</g>
</svg>
