<?xml version="1.0" encoding="utf-8"?>
<!-- Generator: Adobe Illustrator 24.0.1, SVG Export Plug-In . SVG Version: 6.00 Build 0)  -->
<svg version="1.1" id="Layer_1" xmlns="http://www.w3.org/2000/svg" xmlns:xlink="http://www.w3.org/1999/xlink" x="0px" y="0px"
	 viewBox="0 0 512 512" style="enable-background:new 0 0 512 512;" xml:space="preserve">
<style type="text/css">
	.st0{display:none;}
	.st1{display:inline;fill:#200A7F;stroke:#18E5EA;stroke-width:20;stroke-miterlimit:10;}
	.st2{display:inline;fill:#EF0B79;}
	.st3{display:inline;fill:#18E5EA;}
	.st4{display:inline;}
	.st5{fill:#E9F21C;}
	.st6{display:inline;fill:none;}
	.st7{display:inline;fill:#EF3A24;}
	.st8{font-family:'MyriadPro-Regular';}
	.st9{font-size:250px;}
	.st10{display:inline;fill:#FFFFFF;}
	.st11{fill:#C4C6C8;}
	.st12{fill:url(#SVGID_1_);}
	.st13{fill:url(#SVGID_2_);stroke:#E8E8E8;stroke-width:3;stroke-miterlimit:10;}
	.st14{fill:#231F20;}
	.st15{fill:url(#SVGID_3_);}
	.st16{fill:url(#SVGID_4_);}
</style>
<g id="Layer_3" class="st0">
	<path class="st1" d="M401.1,212.2c5.1,15.3,7.9,31.7,7.9,48.8c0,85.3-69.2,154.5-154.5,154.5S100,346.3,100,261
		s69.2-154.5,154.5-154.5c51.2,0,96.6,24.9,124.7,63.3"/>
	<path class="st2" d="M333.4,255.2c0,4.2-3.3,7.7-7.4,7.7H174.9c-4.1,0-7.4-3.4-7.4-7.7l0,0c0-4.2,3.3-7.7,7.4-7.7H326
		C330.1,247.5,333.4,250.9,333.4,255.2L333.4,255.2z"/>
	<path class="st2" d="M333.4,284.8c0,4.2-3.3,7.6-7.4,7.6H174.9c-4.1,0-7.4-3.4-7.4-7.6l0,0c0-4.2,3.3-7.6,7.4-7.6H326
		C330.1,277.1,333.4,280.6,333.4,284.8L333.4,284.8z"/>
	<path class="st2" d="M333.4,313c0,4.2-3.3,7.7-7.4,7.7H174.9c-4.1,0-7.4-3.4-7.4-7.7l0,0c0-4.2,3.3-7.6,7.4-7.6H326
		C330.1,305.4,333.4,308.8,333.4,313L333.4,313z"/>
	<path class="st2" d="M333.4,338.4c0,4.2-3.3,7.7-7.4,7.7H174.9c-4.1,0-7.4-3.4-7.4-7.7l0,0c0-4.2,3.3-7.6,7.4-7.6H326
		C330.1,330.7,333.4,334.1,333.4,338.4L333.4,338.4z"/>
	<polygon class="st3" points="395,191.5 320.2,165.2 380.4,113.5 	"/>
	<g class="st4">
		<g>
			<g>
				<path class="st5" d="M241.5,239.2c-2.3,0-4.4-1.1-5.8-2.9l-18.8-24.8c-2.4-3.2-1.8-7.8,1.4-10.3c3.2-2.4,7.8-1.8,10.3,1.4
					l12.3,16.3l31-49.8c2.1-3.4,6.6-4.5,10.1-2.3c3.4,2.1,4.5,6.6,2.3,10.1l-36.7,58.9c-1.3,2-3.5,3.3-5.9,3.4
					C241.7,239.2,241.6,239.2,241.5,239.2z"/>
			</g>
		</g>
	</g>
</g>
<g id="Layer_2_2_" class="st0">
	<rect x="121" y="171.5" class="st6" width="298" height="251"/>
	<text transform="matrix(1 0 0 1 121 348.9979)" class="st7 st8 st9">24</text>
	<circle class="st10" cx="138.3" cy="91.8" r="17.3"/>
	<circle class="st10" cx="185.3" cy="91.8" r="17.3"/>
	<circle class="st10" cx="232.3" cy="91.8" r="17.3"/>
	<circle class="st10" cx="278.3" cy="91.8" r="17.3"/>
	<circle class="st10" cx="323.3" cy="91.8" r="17.3"/>
	<circle class="st10" cx="368.3" cy="91.8" r="17.3"/>
</g>
<g>
	<path class="st11" d="M350.3,54.5H161.7c-17.9,0-34.5,9.6-43.4,25.1L24,242.9c-9,15.5-9,34.6,0,50.2l94.3,163.3
		c9,15.5,25.5,25.1,43.4,25.1h188.5c17.9,0,34.5-9.6,43.4-25.1L488,293.1c9-15.5,9-34.6,0-50.2L393.7,79.6
		C384.8,64.1,368.2,54.5,350.3,54.5z"/>
</g>
<g>
	
		<linearGradient id="SVGID_1_" gradientUnits="userSpaceOnUse" x1="18.15" y1="-4897.9507" x2="495.6125" y2="-4897.9507" gradientTransform="matrix(1 0 0 -1 0 -4644.0005)">
		<stop  offset="5.618000e-03" style="stop-color:#EC7D4C"/>
		<stop  offset="0.8017" style="stop-color:#F6B744"/>
		<stop  offset="1" style="stop-color:#F8C642"/>
	</linearGradient>
	<path class="st12" d="M491.1,274.8c-0.7,1.4-1.4,2.9-2.2,4.3l-94.3,163.3c-0.5,1-1.1,1.9-1.7,2.8c-8.3,12.4-21.7,20.5-36.5,22
		c-1.7,0.2-3.4,0.3-5.2,0.3H162.6c-17.9,0-34.5-9.6-43.5-25.1l-15.3-26.6l-70.4-122L24.9,279c-9-15.5-9-34.6,0-50.2l6.5-11.3
		l22.3-38.6l65.5-113.4c9-15.5,25.5-25.1,43.5-25.1h188.5c17.9,0,34.5,9.6,43.5,25.1l20.7,35.9l6.3,10.9l25.3,43.8l2.4,4.2l5.5,9.6
		l7,12l27.1,47c1.2,2,2.2,4.1,3,6.2C497.1,247.9,496.8,262.3,491.1,274.8z"/>
	
		<linearGradient id="SVGID_2_" gradientUnits="userSpaceOnUse" x1="18.15" y1="-79.3412" x2="495.6125" y2="-79.3412" gradientTransform="matrix(1 0 0 1 0 333.2912)">
		<stop  offset="5.618000e-03" style="stop-color:#EC7D4C"/>
		<stop  offset="0.8017" style="stop-color:#F6B744"/>
		<stop  offset="1" style="stop-color:#F8C642"/>
	</linearGradient>
	<path class="st13" d="M491.1,274.8c-0.7,1.4-1.4,2.9-2.2,4.3l-94.3,163.3c-0.5,1-1.1,1.9-1.7,2.8c-8.3,12.4-21.7,20.5-36.5,22
		c-1.7,0.2-3.4,0.3-5.2,0.3H162.6c-17.9,0-34.5-9.6-43.5-25.1l-15.3-26.6l-70.4-122L24.9,279c-9-15.5-9-34.6,0-50.2l6.5-11.3
		l22.3-38.6l65.5-113.4c9-15.5,25.5-25.1,43.5-25.1h188.5c17.9,0,34.5,9.6,43.5,25.1l20.7,35.9l6.3,10.9l25.3,43.8l2.4,4.2l5.5,9.6
		l7,12l27.1,47c1.2,2,2.2,4.1,3,6.2C497.1,247.9,496.8,262.3,491.1,274.8z"/>
</g>
<g>
	<g>
		<path class="st14" d="M294.7,294.4h-75.6c-7,0-12.6,5.6-12.6,12.6v110.6l0.4,1.5c1.4,5.6,6.4,9.6,12.2,9.6h75.6
			c5.8,0,10.9-4,12.2-9.6l0.4-1.5V307C307.3,300,301.7,294.4,294.7,294.4z"/>
	</g>
</g>
<g id="Admin_1_">
	<g>
		<g>
			
				<radialGradient id="SVGID_3_" cx="256.8803" cy="294.845" r="111.6317" gradientTransform="matrix(1 0 0 -1 0 512)" gradientUnits="userSpaceOnUse">
				<stop  offset="0" style="stop-color:#7D3825"/>
				<stop  offset="0.5393" style="stop-color:#4F0000"/>
				<stop  offset="1" style="stop-color:#2D0000"/>
			</radialGradient>
			<path class="st15" d="M256.9,326.9c-62.6,0-113.5-50.9-113.5-113.5c0-23,6.9-45.2,19.9-64.1c12.7-18.5,30.3-32.7,51-41.1
				c3.9-1.6,8.3-1.1,11.8,1.2c3.5,2.3,5.6,6.3,5.6,10.5v86.7l25.2,16.8l25.2-16.8V120c0-4.2,2.1-8.1,5.6-10.5
				c3.5-2.3,7.9-2.8,11.8-1.2c20.7,8.4,38.3,22.6,51,41.1c13,18.9,19.9,41.1,19.9,64.1C370.3,276,319.4,326.9,256.9,326.9
				L256.9,326.9z M294.7,213.5L294.7,213.5L294.7,213.5z"/>
		</g>
	</g>
</g>
<linearGradient id="SVGID_4_" gradientUnits="userSpaceOnUse" x1="256.8817" y1="294.8445" x2="370.3377" y2="294.8445" gradientTransform="matrix(1 0 0 -1 0 512)">
	<stop  offset="0" style="stop-color:#7D3825"/>
	<stop  offset="0.5393" style="stop-color:#4F0000"/>
	<stop  offset="1" style="stop-color:#2D0000"/>
</linearGradient>
<path class="st16" d="M370.3,213.5c0-23-6.9-45.2-19.9-64.1c-12.7-18.5-30.3-32.7-51-41.1c-3.9-1.6-8.3-1.1-11.8,1.2
	c-3.5,2.3-5.6,6.3-5.6,10.5v86.7l-25.2,16.8v103.4C319.4,326.9,370.3,276,370.3,213.5L370.3,213.5z"/>
</svg>
