<?xml version="1.0" encoding="utf-8"?>
<!-- Generator: Adobe Illustrator 24.0.1, SVG Export Plug-In . SVG Version: 6.00 Build 0)  -->
<svg version="1.1" id="Layer_1" xmlns="http://www.w3.org/2000/svg" xmlns:xlink="http://www.w3.org/1999/xlink" x="0px" y="0px"
	 viewBox="0 0 512 512" style="enable-background:new 0 0 512 512;" xml:space="preserve">
<style type="text/css">
	.st0{display:none;}
	.st1{display:inline;fill:#200A7F;stroke:#18E5EA;stroke-width:20;stroke-miterlimit:10;}
	.st2{display:inline;fill:#EF0B79;}
	.st3{display:inline;fill:#18E5EA;}
	.st4{display:inline;}
	.st5{fill:#E9F21C;}
	.st6{display:inline;fill:none;}
	.st7{display:inline;fill:#EF3A24;}
	.st8{font-family:'MyriadPro-Regular';}
	.st9{font-size:250px;}
	.st10{display:inline;fill:#FFFFFF;}
	.st11{fill:#C4C6C8;}
	.st12{fill:#FFFFFF;}
	.st13{fill:#FFFFFF;stroke:#E8E8E8;stroke-width:3;stroke-miterlimit:10;}
	.st14{fill:none;}
	.st15{fill:#E2DFE2;}
	.st16{fill:#A2F4C1;}
	.st17{fill:#F9F6F9;}
	.st18{fill:#EFECEF;}
	.st19{fill:#86F1A7;}
	.st20{fill:#80E29D;}
	.st21{fill:#78D090;}
	.st22{fill:#070504;}
	.st23{font-size:45px;}
	.st24{fill:none;stroke:#000000;stroke-miterlimit:10;}
</style>
<g id="Layer_3" class="st0">
	<path class="st1" d="M401.1,212.2c5.1,15.3,7.9,31.7,7.9,48.8c0,85.3-69.2,154.5-154.5,154.5S100,346.3,100,261
		s69.2-154.5,154.5-154.5c51.2,0,96.6,24.9,124.7,63.3"/>
	<path class="st2" d="M333.4,255.2c0,4.2-3.3,7.7-7.4,7.7H174.9c-4.1,0-7.4-3.4-7.4-7.7l0,0c0-4.2,3.3-7.7,7.4-7.7H326
		C330.1,247.5,333.4,250.9,333.4,255.2L333.4,255.2z"/>
	<path class="st2" d="M333.4,284.8c0,4.2-3.3,7.6-7.4,7.6H174.9c-4.1,0-7.4-3.4-7.4-7.6l0,0c0-4.2,3.3-7.6,7.4-7.6H326
		C330.1,277.1,333.4,280.6,333.4,284.8L333.4,284.8z"/>
	<path class="st2" d="M333.4,313c0,4.2-3.3,7.7-7.4,7.7H174.9c-4.1,0-7.4-3.4-7.4-7.7l0,0c0-4.2,3.3-7.6,7.4-7.6H326
		C330.1,305.4,333.4,308.8,333.4,313L333.4,313z"/>
	<path class="st2" d="M333.4,338.4c0,4.2-3.3,7.7-7.4,7.7H174.9c-4.1,0-7.4-3.4-7.4-7.7l0,0c0-4.2,3.3-7.6,7.4-7.6H326
		C330.1,330.7,333.4,334.1,333.4,338.4L333.4,338.4z"/>
	<polygon class="st3" points="395,191.5 320.2,165.2 380.4,113.5 	"/>
	<g class="st4">
		<g>
			<g>
				<path class="st5" d="M241.5,239.2c-2.3,0-4.4-1.1-5.8-2.9l-18.8-24.8c-2.4-3.2-1.8-7.8,1.4-10.3c3.2-2.4,7.8-1.8,10.3,1.4
					l12.3,16.3l31-49.8c2.1-3.4,6.6-4.5,10.1-2.3c3.4,2.1,4.5,6.6,2.3,10.1l-36.7,58.9c-1.3,2-3.5,3.3-5.9,3.4
					C241.7,239.2,241.6,239.2,241.5,239.2z"/>
			</g>
		</g>
	</g>
</g>
<g id="Layer_2_2_" class="st0">
	<rect x="121" y="171.5" class="st6" width="298" height="251"/>
	<text transform="matrix(1 0 0 1 121 348.9979)" class="st7 st8 st9">24</text>
	<circle class="st10" cx="138.3" cy="91.8" r="17.3"/>
	<circle class="st10" cx="185.3" cy="91.8" r="17.3"/>
	<circle class="st10" cx="232.3" cy="91.8" r="17.3"/>
	<circle class="st10" cx="278.3" cy="91.8" r="17.3"/>
	<circle class="st10" cx="323.3" cy="91.8" r="17.3"/>
	<circle class="st10" cx="368.3" cy="91.8" r="17.3"/>
</g>
<g>
	<path class="st11" d="M350.3,54.5H161.7c-17.9,0-34.5,9.6-43.4,25.1L24,242.9c-9,15.5-9,34.6,0,50.2l94.3,163.3
		c9,15.5,25.5,25.1,43.4,25.1h188.5c17.9,0,34.5-9.6,43.4-25.1L488,293.1c9-15.5,9-34.6,0-50.2L393.7,79.6
		C384.8,64.1,368.2,54.5,350.3,54.5z"/>
</g>
<g>
	<path class="st12" d="M491.1,274.8c-0.7,1.4-1.4,2.9-2.2,4.3l-94.3,163.3c-0.5,1-1.1,1.9-1.7,2.8c-8.3,12.4-21.7,20.5-36.5,22
		c-1.7,0.2-3.4,0.3-5.2,0.3H162.6c-17.9,0-34.5-9.6-43.5-25.1l-15.3-26.6l-70.4-122L24.9,279c-9-15.5-9-34.6,0-50.2l6.5-11.3
		l22.3-38.6L97,104l22.2-38.5c9-15.5,25.5-25.1,43.5-25.1h188.5c17.9,0,34.5,9.6,43.5,25.1l20.7,35.9l1.5,2.6l4.8,8.3l25.3,43.8
		l2.4,4.2l5.5,9.6l7,12l27.1,47c1.2,2,2.2,4.1,3,6.2C497.1,247.9,496.8,262.3,491.1,274.8z"/>
	<path class="st13" d="M491.1,274.8c-0.7,1.4-1.4,2.9-2.2,4.3l-94.3,163.3c-0.5,1-1.1,1.9-1.7,2.8c-8.3,12.4-21.7,20.5-36.5,22
		c-1.7,0.2-3.4,0.3-5.2,0.3H162.6c-17.9,0-34.5-9.6-43.5-25.1l-15.3-26.6l-70.4-122L24.9,279c-9-15.5-9-34.6,0-50.2l6.5-11.3
		l22.3-38.6L97,104l22.2-38.5c9-15.5,25.5-25.1,43.5-25.1h188.5c17.9,0,34.5,9.6,43.5,25.1l20.7,35.9l1.5,2.6l4.8,8.3l25.3,43.8
		l2.4,4.2l5.5,9.6l7,12l27.1,47c1.2,2,2.2,4.1,3,6.2C497.1,247.9,496.8,262.3,491.1,274.8z"/>
</g>
<path d="M443.8,329"/>
<rect x="141.3" y="120.2" class="st14" width="256.8" height="249.7"/>
<path class="st15" d="M365.5,149.1c0-33.7-27.3-60.9-60.9-60.9h-3.4c14.7,0,26.7,11.9,26.7,26.7v4c0,3.9,3.1,7,7,7h4
	c14.7,0,26.7,11.9,26.7,26.7L365.5,149.1L365.5,149.1z"/>
<path class="st16" d="M232.2,117h-61.5c-5.9,0-10.6,4.8-10.6,10.6V167c0-5.9,4.8-10.6,10.6-10.6h61.5c5.9,0,10.6-4.8,10.6-10.6
	v-18.1C242.8,121.7,238,117,232.2,117z"/>
<path class="st17" d="M338.9,125.8h-4c-3.9,0-7-3.2-7-7v-4c0-14.7-11.9-26.7-26.7-26.7H185.1c-3.9,0-7,3.2-7,7V117h54.1
	c5.9,0,10.6,4.8,10.6,10.6v18.1c0,5.9-4.8,10.6-10.6,10.6h-54.1v185.4c0,3.9,3.2,7,7,7h173.4c3.9,0,7-3.1,7-7V152.5
	C365.5,137.8,353.6,125.8,338.9,125.8z"/>
<path class="st18" d="M339.1,125.8c3.4,4.5,5.5,10.1,5.5,16.2v144c0,28.9-23.5,52.4-52.4,52.4H178.1v3.4c0,3.9,3.2,7,7,7h173.4
	c3.9,0,7-3.1,7-7V152.5C365.5,137.8,353.7,125.9,339.1,125.8z"/>
<path class="st19" d="M178.1,177.7h-7.4c-5.9,0-10.6-4.8-10.6-10.6s4.8-10.6,10.6-10.6h7.4V177.7z"/>
<path class="st20" d="M344.5,208.2v-20.6c0-2.9-2.3-5.2-5.2-5.2H224.9v25.9L344.5,208.2L344.5,208.2z"/>
<path class="st21" d="M224.9,182.3h-20.6c-2.9,0-5.2,2.3-5.2,5.2v20.6h25.9V182.3z"/>
<path class="st20" d="M199,208.2v114.4c0,2.9,2.3,5.2,5.2,5.2h20.6V208.2H199z"/>
<path class="st16" d="M224.9,208.2v119.6h114.4c2.9,0,5.2-2.3,5.2-5.2V208.2H224.9z"/>
<path class="st19" d="M339.3,327.8c2.9,0,5.2-2.4,5.2-5.2V286c0,17.1-8.2,32.3-20.9,41.9L339.3,327.8L339.3,327.8z"/>
<path d="M304.6,84.2H185.1c-6.1,0-11,4.9-11,11V113h-3.5c-8,0-14.6,6.5-14.6,14.6V167c0,8,6.5,14.6,14.6,14.6h3.5v160.2
	c0,6.1,4.9,11,11,11h173.4c6.1,0,11-4.9,11-11v-45.2c0-2.2-1.8-3.9-3.9-3.9c-2.2,0-3.9,1.8-3.9,3.9v45.2c0,1.7-1.4,3.1-3.1,3.1
	H185.1c-1.7,0-3.1-1.4-3.1-3.1V160.3h17c2.2,0,3.9-1.8,3.9-3.9s-1.8-3.9-3.9-3.9h-28.4c-2.4,0-4.7,0.6-6.7,1.6v-26.5
	c0-3.7,3-6.7,6.7-6.7h61.5c3.7,0,6.7,3,6.7,6.7v18.1c0,3.7-3,6.7-6.7,6.7h-14.8c-2.2,0-3.9,1.8-3.9,3.9c0,2.2,1.8,3.9,3.9,3.9h14.8
	c8,0,14.6-6.5,14.6-14.6v-18.1c0-8-6.5-14.6-14.6-14.6H182V95.2c0-1.7,1.4-3.1,3.1-3.1h116.1c12.5,0,22.7,10.2,22.7,22.7v4
	c0,6.1,4.9,11,11,11h4c12.5,0,22.7,10.2,22.7,22.7v125.7c0,2.2,1.8,3.9,3.9,3.9c2.2,0,3.9-1.8,3.9-3.9V149.1
	C369.5,113.3,340.4,84.2,304.6,84.2L304.6,84.2z M170.6,160.3h3.5v13.4h-3.5c-3.7,0-6.7-3-6.7-6.7
	C163.9,163.3,166.9,160.3,170.6,160.3z M338.9,121.9h-4c-1.7,0-3.1-1.4-3.1-3.1v-4c0-7.1-2.4-13.6-6.5-18.8
	c14.8,5.8,26.7,17.6,32.5,32.5C352.5,124.3,346,121.9,338.9,121.9L338.9,121.9z"/>
<path d="M204.3,178.4c-5.1,0-9.2,4.1-9.2,9.2v135c0,5.1,4.1,9.2,9.2,9.2h135c5.1,0,9.2-4.1,9.2-9.2v-135c0-5.1-4.1-9.2-9.2-9.2
	L204.3,178.4L204.3,178.4z M289.7,212.2h11v16.1h-32v-16.1h2.6c2.2,0,3.9-1.8,3.9-3.9c0-2.2-1.8-3.9-3.9-3.9h-2.6v-18h32v18h-11
	c-2.2,0-3.9,1.8-3.9,3.9C285.8,210.4,287.6,212.2,289.7,212.2L289.7,212.2z M268.7,300v-16.1h32V300H268.7z M300.7,307.8v16.1h-32
	v-16.1H300.7z M221,260v16.1h-18V260H221z M203,252.1v-16.1h18v16.1H203z M228.9,260h32v16.1h-32V260z M268.7,260h32v16.1h-32V260z
	 M308.6,260h32v16.1h-32V260z M308.6,252.1v-16.1h32v16.1H308.6z M300.7,252.1h-32v-16.1h32V252.1z M260.9,252.1h-32v-16.1h32V252.1
	z M228.9,228.2v-16.1h32v16.1H228.9z M228.9,204.3v-18h32v18L228.9,204.3L228.9,204.3z M221,228.2h-18v-16.1h18V228.2z M203,283.9
	h18V300h-18V283.9z M228.9,283.9h32V300h-32V283.9z M308.6,283.9h32V300h-32V283.9z M340.6,228.2h-32v-16.1h32V228.2L340.6,228.2z
	 M203,187.6c0-0.7,0.6-1.3,1.3-1.3H221v18h-18V187.6z M203,322.6v-14.7h18v16.1h-16.7C203.6,323.9,203,323.3,203,322.6L203,322.6z
	 M228.9,307.8h32v16.1h-32V307.8z M339.3,323.9h-30.7v-16.1h32v14.7C340.6,323.3,340,323.9,339.3,323.9z M340.6,187.6v16.7h-32v-18
	h30.7C340,186.3,340.6,186.9,340.6,187.6z"/>
<text transform="matrix(1 0 0 1 97.4808 404.7745)" class="st22 st8 st23">Lobre Office</text>
<text transform="matrix(1 0 0 1 97.4808 404.7745)" class="st24 st8 st23">Lobre Office</text>
<text transform="matrix(1 0 0 1 318.6391 149.9174)" class="st24 st8 st23"> </text>
</svg>
