<?xml version="1.0" encoding="utf-8"?>
<!-- Generator: Adobe Illustrator 24.0.1, SVG Export Plug-In . SVG Version: 6.00 Build 0)  -->
<svg version="1.1" id="Layer_1" xmlns="http://www.w3.org/2000/svg" xmlns:xlink="http://www.w3.org/1999/xlink" x="0px" y="0px"
	 viewBox="0 0 512 512" style="enable-background:new 0 0 512 512;" xml:space="preserve">
<style type="text/css">
	.st0{display:none;}
	.st1{display:inline;fill:#200A7F;stroke:#18E5EA;stroke-width:20;stroke-miterlimit:10;}
	.st2{display:inline;fill:#EF0B79;}
	.st3{display:inline;fill:#18E5EA;}
	.st4{display:inline;}
	.st5{fill:#E9F21C;}
	.st6{display:inline;fill:none;}
	.st7{display:inline;fill:#EF3A24;}
	.st8{font-family:'MyriadPro-Regular';}
	.st9{font-size:250px;}
	.st10{display:inline;fill:#FFFFFF;}
	.st11{fill:#C4C6C8;}
	.st12{fill:url(#SVGID_1_);}
	.st13{fill:none;stroke:#E8E8E8;stroke-width:3;stroke-miterlimit:10;}
	.st14{fill:#FFCC80;}
	.st15{fill:#FFB74D;}
	.st16{fill:#E5E5E5;}
	.st17{fill:#616161;}
	.st18{fill:#FFFFFF;}
	.st19{fill:#CFCFCF;}
	.st20{fill:#424242;}
	.st21{fill:#FFE4C0;}
	.st22{fill:#231F20;}
</style>
<g id="Layer_3" class="st0">
	<path class="st1" d="M401.1,212.2c5.1,15.3,7.9,31.7,7.9,48.8c0,85.3-69.2,154.5-154.5,154.5S100,346.3,100,261
		s69.2-154.5,154.5-154.5c51.2,0,96.6,24.9,124.7,63.3"/>
	<path class="st2" d="M333.4,255.2c0,4.2-3.3,7.7-7.4,7.7H174.9c-4.1,0-7.4-3.4-7.4-7.7l0,0c0-4.2,3.3-7.7,7.4-7.7H326
		C330.1,247.5,333.4,250.9,333.4,255.2L333.4,255.2z"/>
	<path class="st2" d="M333.4,284.8c0,4.2-3.3,7.6-7.4,7.6H174.9c-4.1,0-7.4-3.4-7.4-7.6l0,0c0-4.2,3.3-7.6,7.4-7.6H326
		C330.1,277.1,333.4,280.6,333.4,284.8L333.4,284.8z"/>
	<path class="st2" d="M333.4,313c0,4.2-3.3,7.7-7.4,7.7H174.9c-4.1,0-7.4-3.4-7.4-7.7l0,0c0-4.2,3.3-7.6,7.4-7.6H326
		C330.1,305.4,333.4,308.8,333.4,313L333.4,313z"/>
	<path class="st2" d="M333.4,338.4c0,4.2-3.3,7.7-7.4,7.7H174.9c-4.1,0-7.4-3.4-7.4-7.7l0,0c0-4.2,3.3-7.6,7.4-7.6H326
		C330.1,330.7,333.4,334.1,333.4,338.4L333.4,338.4z"/>
	<polygon class="st3" points="395,191.5 320.2,165.2 380.4,113.5 	"/>
	<g class="st4">
		<g>
			<g>
				<path class="st5" d="M241.5,239.2c-2.3,0-4.4-1.1-5.8-2.9l-18.8-24.8c-2.4-3.2-1.8-7.8,1.4-10.3c3.2-2.4,7.8-1.8,10.3,1.4
					l12.3,16.3l31-49.8c2.1-3.4,6.6-4.5,10.1-2.3c3.4,2.1,4.5,6.6,2.3,10.1l-36.7,58.9c-1.3,2-3.5,3.3-5.9,3.4
					C241.7,239.2,241.6,239.2,241.5,239.2z"/>
			</g>
		</g>
	</g>
</g>
<g id="Layer_2_2_" class="st0">
	<rect x="121" y="171.5" class="st6" width="298" height="251"/>
	<text transform="matrix(1 0 0 1 121 348.9979)" class="st7 st8 st9">24</text>
	<circle class="st10" cx="138.3" cy="91.8" r="17.3"/>
	<circle class="st10" cx="185.3" cy="91.8" r="17.3"/>
	<circle class="st10" cx="232.3" cy="91.8" r="17.3"/>
	<circle class="st10" cx="278.3" cy="91.8" r="17.3"/>
	<circle class="st10" cx="323.3" cy="91.8" r="17.3"/>
	<circle class="st10" cx="368.3" cy="91.8" r="17.3"/>
</g>
<g>
	<path class="st11" d="M350.3,54.5H161.7c-17.9,0-34.5,9.6-43.4,25.1L24,242.9c-9,15.5-9,34.6,0,50.2l94.3,163.3
		c9,15.5,25.5,25.1,43.4,25.1h188.5c17.9,0,34.5-9.6,43.4-25.1L488,293.1c9-15.5,9-34.6,0-50.2L393.7,79.6
		C384.8,64.1,368.2,54.5,350.3,54.5z"/>
</g>
<g>
	<radialGradient id="SVGID_1_" cx="256.891" cy="254" r="226.4345" gradientUnits="userSpaceOnUse">
		<stop  offset="0" style="stop-color:#F69453"/>
		<stop  offset="0.5" style="stop-color:#F37521"/>
		<stop  offset="1" style="stop-color:#D4622A"/>
	</radialGradient>
	<path class="st12" d="M351.2,40.5H162.6c-17.9,0-34.5,9.6-43.4,25.1L24.9,228.9c-9,15.5-9,34.6,0,50.2l94.3,163.3
		c9,15.5,25.5,25.1,43.4,25.1h188.5c17.9,0,34.5-9.6,43.4-25.1l94.3-163.3c9-15.5,9-34.6,0-50.2L394.6,65.6
		C385.6,50.1,369.1,40.5,351.2,40.5z"/>
	<path class="st13" d="M351.2,40.5H162.6c-17.9,0-34.5,9.6-43.4,25.1L24.9,228.9c-9,15.5-9,34.6,0,50.2l94.3,163.3
		c9,15.5,25.5,25.1,43.4,25.1h188.5c17.9,0,34.5-9.6,43.4-25.1l94.3-163.3c9-15.5,9-34.6,0-50.2L394.6,65.6
		C385.6,50.1,369.1,40.5,351.2,40.5z"/>
</g>
<g id="Zipper-Mouth_Face">
	<g id="Filled">
		<path class="st14" d="M394.3,306.4c0,19,66.7,95.2-138.1,95.2c-200,0-138.1-76.2-138.1-95.2c0-42.9-57.1-200,138.1-200
			C456.2,106.4,394.3,263.5,394.3,306.4z"/>
		<path class="st15" d="M394.3,306.4c0-21,14.8-69.3,6.5-113.2c-24,83.6-101,144.7-192.2,144.7c-32.2,0-64-7.7-92.5-22.7
			c-8.9,27-36.3,86.4,140.1,86.4C461,401.6,394.3,325.4,394.3,306.4z"/>
		<path class="st16" d="M346.7,296.9h19v23.8h-19V296.9z"/>
		<path class="st17" d="M356.5,368.3c-10.5,0-18.4-9-16.3-18.7l4.2-19.6c1.2-5.4,6.2-9.3,12.2-9.3c5.9,0,11,3.9,12.2,9.3l4.2,19.6
			C374.9,359.3,367,368.3,356.5,368.3L356.5,368.3z"/>
		<circle class="st18" cx="303.9" cy="220.7" r="9.5"/>
		<circle class="st18" cx="208.6" cy="220.7" r="9.5"/>
		<path class="st19" d="M365.8,302.7c-5.2,5-11.9,8-19,8.5v9.4h19V302.7z"/>
		<path class="st20" d="M339.9,353.9c0.7,7.9,7.7,14.4,16.6,14.4c10.5,0,18.4-9,16.3-18.7l-2.4-11.4
			C362.9,347.5,351.8,353.2,339.9,353.9L339.9,353.9z"/>
		<g>
			
				<ellipse transform="matrix(9.853770e-02 -0.9951 0.9951 9.853770e-02 -115.325 361.6466)" class="st21" cx="142" cy="244.5" rx="14.3" ry="14.3"/>
			<circle class="st21" cx="370.5" cy="244.5" r="14.3"/>
		</g>
	</g>
	<g id="Outline">
		<path class="st22" d="M142,306.4c0,2.6,2.1,4.8,4.8,4.8H161v9.5c0,2.6,2.1,4.8,4.8,4.8s4.8-2.1,4.8-4.8v-9.5h9.5v9.5
			c0,2.6,2.1,4.8,4.8,4.8c2.6,0,4.8-2.1,4.8-4.8v-9.5h9.5v9.5c0,2.6,2.1,4.8,4.8,4.8s4.8-2.1,4.8-4.8v-9.5h9.5v9.5
			c0,2.6,2.1,4.8,4.8,4.8c2.6,0,4.8-2.1,4.8-4.8v-9.5h9.5v9.5c0,2.6,2.1,4.8,4.8,4.8c2.6,0,4.8-2.1,4.8-4.8v-9.5h9.5v9.5
			c0,2.6,2.1,4.8,4.8,4.8c2.6,0,4.8-2.1,4.8-4.8v-9.5h9.5v9.5c0,2.6,2.1,4.8,4.8,4.8c2.6,0,4.8-2.1,4.8-4.8v-9.5h9.5v9.5
			c0,2.6,2.1,4.8,4.8,4.8c2.6,0,4.8-2.1,4.8-4.8v-9.5h9.5v9.5c0,2.6,2.1,4.8,4.8,4.8s4.8-2.1,4.8-4.8v-9.5h19v9.5
			c0,0.8,0.2,1.5,0.5,2.2c-1.4,1.8-2.3,3.9-2.8,6.1l-4.2,19.6c-1.2,5.8,0.2,11.9,4,16.5c7.8,9.4,21.8,10.6,31.1,2.8
			c1-0.9,2-1.8,2.8-2.8c3.8-4.6,5.2-10.7,4-16.5l-4.2-19.6c-0.5-2.4-1.6-4.7-3.1-6.6c0.2-0.6,0.3-1.1,0.3-1.7v-28.6h-28.6v9.5h-9.5
			v-9.5c0-2.6-2.1-4.8-4.8-4.8c-2.6,0-4.8,2.1-4.8,4.8v9.5h-9.5v-9.5c0-2.6-2.1-4.8-4.8-4.8c-2.6,0-4.8,2.1-4.8,4.8v9.5h-9.5v-9.5
			c0-2.6-2.1-4.8-4.8-4.8s-4.8,2.1-4.8,4.8v9.5h-9.5v-9.5c0-2.6-2.1-4.8-4.8-4.8c-2.6,0-4.8,2.1-4.8,4.8v9.5h-9.5v-9.5
			c0-2.6-2.1-4.8-4.8-4.8c-2.6,0-4.8,2.1-4.8,4.8v9.5h-9.5v-9.5c0-2.6-2.1-4.8-4.8-4.8s-4.8,2.1-4.8,4.8v9.5h-9.5v-9.5
			c0-2.6-2.1-4.8-4.8-4.8c-2.6,0-4.8,2.1-4.8,4.8v9.5h-9.5v-9.5c0-2.6-2.1-4.8-4.8-4.8c-2.6,0-4.8,2.1-4.8,4.8v9.5H180v-9.5
			c0-2.6-2.1-4.8-4.8-4.8s-4.8,2.1-4.8,4.8v9.5H161v-9.5c0-2.6-2.1-4.8-4.8-4.8c-2.6,0-4.8,2.1-4.8,4.8v9.5h-4.8
			C144.1,301.6,142,303.8,142,306.4z M351.5,301.6h9.5v14.9c-3.1-0.8-6.4-0.8-9.5,0.2V301.6z M344.8,350.6L349,331
			c0.7-3.2,3.8-5.6,7.5-5.6s6.8,2.3,7.5,5.6l4.2,19.6c0.6,3-0.1,6.1-2.1,8.5c-4.5,5.3-12.5,5.9-17.8,1.4c-0.5-0.4-1-0.9-1.4-1.4
			C345,356.7,344.2,353.6,344.8,350.6L344.8,350.6z"/>
		<path class="st22" d="M404,321.7c-0.5-1.5-1.1-2.9-1.6-4.3c-0.7-1.9-1.4-3.8-1.9-5.4c-1-2.8-1.4-4.9-1.4-5.6
			c0-6.2,1.5-16,3.3-27.3c0.4-2.3,0.7-4.7,1.1-7.2c2.4-15.4,4.6-32.1,4.6-49.6c0-16.2-1.9-30.3-5.8-43.1
			c-7.2-23.7-21.6-42.1-42.8-54.9c-6.2-3.7-12.6-6.9-19.4-9.5c-7.6-2.9-15.5-5.3-23.4-7.1c-9.2-2.1-18.5-3.5-27.9-4.5
			c-10.9-1.1-21.7-1.6-32.6-1.6c-20.6,0-39.3,1.8-55.6,5.2c-7.5,1.6-14.9,3.6-22.1,6.2c-6.4,2.3-12.6,5-18.6,8.3
			c-2.3,1.2-3.2,4.1-2,6.4c1.2,2.3,4.1,3.2,6.4,2c0,0,0.1-0.1,0.1-0.1c22.5-12.3,53.4-18.5,91.7-18.5h0c28.8,0,53.6,3.4,73.6,10
			c26,8.7,44.1,22.5,55.4,42.2c9,15.8,13.4,35,13.4,58.9c0,17-2.3,33.9-4.5,48.2c-0.4,2.9-0.9,5.7-1.3,8.4
			c-1.7,10.9-3.2,20.3-3.2,27.5c0,2.9,0.8,5.6,1.9,8.7c0.6,1.8,1.3,3.7,2.1,5.7c1.1,3,2.3,6.2,3.4,9.5c2.1,6.5,3.1,12.1,3.1,17.1
			c0,6.5-1.6,11.9-5,16.9c-6.4,9.5-19.3,17.1-38.6,22.5c-23.8,6.7-57.4,10.1-100.1,10.1h-0.5c-54.8,0-94.3-5.8-117.4-17.4
			c-9.2-4.6-15.7-9.9-19.7-16.2c-3.3-5.1-4.9-10.8-4.9-17.4c0-7.7,2.3-15.6,4.3-21.7c0.4-1.3,0.9-2.7,1.3-3.9
			c0.7-1.9,1.3-3.8,1.8-5.5c0.9-2.9,1.6-5.5,1.6-8.3c0-6.9-1.3-15.9-2.8-26.4c-0.4-2.6-0.7-5.2-1.1-8c-1.9-13.7-3.9-29.9-3.9-46.2
			c0-31.3,7.1-55.3,21.6-73.4c1.6-2.1,1.3-5-0.7-6.7c-2.1-1.6-5-1.3-6.7,0.7l0,0c-4.6,5.7-8.4,11.9-11.6,18.4
			c-3.1,6.4-5.5,13-7.3,19.8c-3.3,12.3-4.9,25.7-4.9,41.1c0,16.8,1.9,32.8,3.9,47.5c0.3,2.4,0.7,4.7,1,6.9
			c1.5,10.8,2.9,20.2,2.9,26.2c0,0.8-0.3,2.8-1.2,5.5c-0.5,1.5-1.1,3.3-1.7,5.1c-1,2.9-2.1,6.2-3.1,9.7c-2.1,7.3-3,13.4-3,19.1
			c-0.1,8,2.1,15.8,6.4,22.5c3.7,5.7,9,10.9,15.8,15.2c6.1,3.8,12.6,6.9,19.4,9.3c8.9,3.1,18,5.5,27.2,7.2c12,2.2,24.1,3.7,36.3,4.6
			c14,1.1,29.7,1.6,46.8,1.7c15.2,0,29.5-0.4,42.3-1.3c12.3-0.8,23.8-2,33.9-3.6c8.9-1.3,17.8-3.2,26.5-5.6c6.9-1.9,13.6-4.3,20-7.3
			c5.1-2.4,10-5.3,14.4-8.9c3.7-2.9,6.9-6.3,9.5-10.2c4.4-6.6,6.7-14.3,6.6-22.2C409.4,338.1,406.8,329.5,404,321.7L404,321.7z"/>
		<path class="st22" d="M146.4,140.8c2.4,0,4.5-1.8,4.7-4.3c0.3-2.6-1.6-5-4.3-5.2c-2.6-0.3-5,1.6-5.2,4.3c-0.3,2.6,1.6,5,4.3,5.2
			C146.1,140.8,146.3,140.8,146.4,140.8z"/>
		<path class="st22" d="M303.9,235c7.9,0,14.3-6.4,14.3-14.3s-6.4-14.3-14.3-14.3s-14.3,6.4-14.3,14.3
			C289.6,228.6,296,234.9,303.9,235z M303.9,215.9c2.6,0,4.8,2.1,4.8,4.8c0,2.6-2.1,4.8-4.8,4.8c-2.6,0-4.8-2.1-4.8-4.8
			C299.1,218,301.2,215.9,303.9,215.9z"/>
		<path class="st22" d="M208.6,235c7.9,0,14.3-6.4,14.3-14.3s-6.4-14.3-14.3-14.3s-14.3,6.4-14.3,14.3
			C194.3,228.6,200.7,234.9,208.6,235z M208.6,215.9c2.6,0,4.8,2.1,4.8,4.8c0,2.6-2.1,4.8-4.8,4.8c-2.6,0-4.8-2.1-4.8-4.8
			C203.9,218,206,215.9,208.6,215.9z"/>
		<path class="st22" d="M351.5,187.3c0,2.6,2.1,4.8,4.8,4.8c2.6,0,4.8-2.1,4.8-4.8c0-21-17.1-38.1-38.1-38.1c-2.6,0-4.8,2.1-4.8,4.8
			c0,2.6,2.1,4.8,4.8,4.8C338.7,158.8,351.5,171.6,351.5,187.3z"/>
		<path class="st22" d="M189.6,149.2c-21,0-38.1,17.1-38.1,38.1c0,2.6,2.1,4.8,4.8,4.8c2.6,0,4.8-2.1,4.8-4.8
			c0-15.8,12.8-28.6,28.6-28.6c2.6,0,4.8-2.1,4.8-4.8C194.3,151.4,192.2,149.2,189.6,149.2z"/>
	</g>
</g>
</svg>
