<?xml version="1.0" encoding="utf-8"?>
<!-- Generator: Adobe Illustrator 24.0.1, SVG Export Plug-In . SVG Version: 6.00 Build 0)  -->
<svg version="1.1" id="Layer_1" xmlns="http://www.w3.org/2000/svg" xmlns:xlink="http://www.w3.org/1999/xlink" x="0px" y="0px"
	 viewBox="0 0 512 512" style="enable-background:new 0 0 512 512;" xml:space="preserve">
<style type="text/css">
	.st0{display:none;}
	.st1{display:inline;fill:#200A7F;stroke:#18E5EA;stroke-width:20;stroke-miterlimit:10;}
	.st2{display:inline;fill:#EF0B79;}
	.st3{display:inline;fill:#18E5EA;}
	.st4{display:inline;}
	.st5{fill:#E9F21C;}
	.st6{display:inline;fill:none;}
	.st7{display:inline;fill:#EF3A24;}
	.st8{font-family:'MyriadPro-Regular';}
	.st9{font-size:250px;}
	.st10{display:inline;fill:#FFFFFF;}
	.st11{fill:#C4C6C8;}
	.st12{fill:url(#SVGID_1_);}
	.st13{fill:url(#SVGID_2_);stroke:#E8E8E8;stroke-width:3;stroke-miterlimit:10;}
	.st14{fill:#F69D23;}
	.st15{fill:#F0DF9E;}
	.st16{fill:#666666;}
	.st17{fill:url(#SVGID_3_);}
	.st18{fill:url(#SVGID_4_);}
</style>
<g id="Layer_3" class="st0">
	<path class="st1" d="M401.1,212.2c5.1,15.3,7.9,31.7,7.9,48.8c0,85.3-69.2,154.5-154.5,154.5S100,346.3,100,261
		s69.2-154.5,154.5-154.5c51.2,0,96.6,24.9,124.7,63.3"/>
	<path class="st2" d="M333.4,255.2c0,4.2-3.3,7.7-7.4,7.7H174.9c-4.1,0-7.4-3.4-7.4-7.7l0,0c0-4.2,3.3-7.7,7.4-7.7H326
		C330.1,247.5,333.4,250.9,333.4,255.2L333.4,255.2z"/>
	<path class="st2" d="M333.4,284.8c0,4.2-3.3,7.6-7.4,7.6H174.9c-4.1,0-7.4-3.4-7.4-7.6l0,0c0-4.2,3.3-7.6,7.4-7.6H326
		C330.1,277.1,333.4,280.6,333.4,284.8L333.4,284.8z"/>
	<path class="st2" d="M333.4,313c0,4.2-3.3,7.7-7.4,7.7H174.9c-4.1,0-7.4-3.4-7.4-7.7l0,0c0-4.2,3.3-7.6,7.4-7.6H326
		C330.1,305.4,333.4,308.8,333.4,313L333.4,313z"/>
	<path class="st2" d="M333.4,338.4c0,4.2-3.3,7.7-7.4,7.7H174.9c-4.1,0-7.4-3.4-7.4-7.7l0,0c0-4.2,3.3-7.6,7.4-7.6H326
		C330.1,330.7,333.4,334.1,333.4,338.4L333.4,338.4z"/>
	<polygon class="st3" points="395,191.5 320.2,165.2 380.4,113.5 	"/>
	<g class="st4">
		<g>
			<g>
				<path class="st5" d="M241.5,239.2c-2.3,0-4.4-1.1-5.8-2.9l-18.8-24.8c-2.4-3.2-1.8-7.8,1.4-10.3c3.2-2.4,7.8-1.8,10.3,1.4
					l12.3,16.3l31-49.8c2.1-3.4,6.6-4.5,10.1-2.3c3.4,2.1,4.5,6.6,2.3,10.1l-36.7,58.9c-1.3,2-3.5,3.3-5.9,3.4
					C241.7,239.2,241.6,239.2,241.5,239.2z"/>
			</g>
		</g>
	</g>
</g>
<g id="Layer_2_2_" class="st0">
	<rect x="121" y="171.5" class="st6" width="298" height="251"/>
	<text transform="matrix(1 0 0 1 121 348.9979)" class="st7 st8 st9">24</text>
	<circle class="st10" cx="138.3" cy="91.8" r="17.3"/>
	<circle class="st10" cx="185.3" cy="91.8" r="17.3"/>
	<circle class="st10" cx="232.3" cy="91.8" r="17.3"/>
	<circle class="st10" cx="278.3" cy="91.8" r="17.3"/>
	<circle class="st10" cx="323.3" cy="91.8" r="17.3"/>
	<circle class="st10" cx="368.3" cy="91.8" r="17.3"/>
</g>
<g>
	<path class="st11" d="M350.3,54.5H161.7c-17.9,0-34.5,9.6-43.4,25.1L24,242.9c-9,15.5-9,34.6,0,50.2l94.3,163.3
		c9,15.5,25.5,25.1,43.4,25.1h188.5c17.9,0,34.5-9.6,43.4-25.1L488,293.1c9-15.5,9-34.6,0-50.2L393.7,79.6
		C384.8,64.1,368.2,54.5,350.3,54.5z"/>
</g>
<g>
	<radialGradient id="SVGID_1_" cx="256.8813" cy="253.9514" r="226.4908" gradientUnits="userSpaceOnUse">
		<stop  offset="0" style="stop-color:#89744C"/>
		<stop  offset="0.5" style="stop-color:#574109"/>
		<stop  offset="1" style="stop-color:#3A2600"/>
	</radialGradient>
	<path class="st12" d="M491.1,274.8c-0.7,1.4-1.4,2.9-2.2,4.3l-46.2,80l-48.1,83.3c-0.5,0.9-1,1.8-1.6,2.7c0,0-0.1,0.1-0.1,0.1
		c-8.3,12.4-21.7,20.5-36.5,22c-1.7,0.2-3.4,0.3-5.2,0.3H162.6c-17.9,0-34.5-9.6-43.5-25.1l-15.3-26.6l-70.4-122L24.9,279
		c-9-15.5-9-34.6,0-50.2l6.5-11.3l22.3-38.6l65.5-113.4c9-15.5,25.5-25.1,43.5-25.1h188.5c17.9,0,34.5,9.6,43.5,25.1l20.7,35.9
		l6.3,10.9l25.3,43.8l2.4,4.2l5.5,9.6l7,12l27.1,47c1.2,2,2.2,4.1,3,6.2C497.1,247.9,496.8,262.3,491.1,274.8z"/>
	<radialGradient id="SVGID_2_" cx="256.8813" cy="253.9514" r="226.4908" gradientUnits="userSpaceOnUse">
		<stop  offset="0" style="stop-color:#89744C"/>
		<stop  offset="0.5" style="stop-color:#574109"/>
		<stop  offset="1" style="stop-color:#3A2600"/>
	</radialGradient>
	<path class="st13" d="M491.1,274.8c-0.7,1.4-1.4,2.9-2.2,4.3l-46.2,80l-48.1,83.3c-0.5,0.9-1,1.8-1.6,2.7c0,0-0.1,0.1-0.1,0.1
		c-8.3,12.4-21.7,20.5-36.5,22c-1.7,0.2-3.4,0.3-5.2,0.3H162.6c-17.9,0-34.5-9.6-43.5-25.1l-15.3-26.6l-70.4-122L24.9,279
		c-9-15.5-9-34.6,0-50.2l6.5-11.3l22.3-38.6l65.5-113.4c9-15.5,25.5-25.1,43.5-25.1h188.5c17.9,0,34.5,9.6,43.5,25.1l20.7,35.9
		l6.3,10.9l25.3,43.8l2.4,4.2l5.5,9.6l7,12l27.1,47c1.2,2,2.2,4.1,3,6.2C497.1,247.9,496.8,262.3,491.1,274.8z"/>
</g>
<path class="st14" d="M336,345.5c1.8-2.6,39.3-59.1,14-92.8c-25.9-34.5-58.1-8.6-35.4,5.7C334.4,270.9,358.9,308.8,336,345.5z
	 M214,358.2c-6.5-2.7-12.6-6-18.4-9.8l-0.1,0.7c-87.8-7.4-94.8-59.1-94.8-59.1c17.4,7.4,26.5,0,26.5,0c-19.8-9.1-21-33.9-21-33.9
	c13.7,7.4,29.3,0,29.3,0c-16.5-2.5-19.8-31.6-19.8-31.6s32.6,23.9,41.1-9.2c0.2-0.7,0.3-1.5,0.5-2.2c1-4.3,2.3-8.3,3.7-12.3
	c2.7-7.4,6-14.2,9.9-20.4c5-8,11.1-14.9,18.1-20.8c5.6-4.7,11.9-8.7,18.8-11.9c14.1-6.7,30.7-10.1,49.4-10.1
	c18.7,0,35.3,3.5,49.4,10.1c5.6,2.7,10.8,5.8,15.7,9.5c1,0.8,2.1,1.6,3.1,2.4c7,5.8,13.1,12.8,18.1,20.8c3.9,6.2,7.2,13,9.9,20.4
	c1.4,3.9,2.6,8,3.7,12.3c0.2,0.7,0.4,1.4,0.5,2.2c8.5,33.1,41.1,9.2,41.1,9.2s-3.3,29.1-19.8,31.6c0,0,15.5,7.4,29.3,0
	c0,0-1.2,24.8-21,33.9c0,0,9.1,7.4,26.5,0c0,0-7,51.7-94.8,59.1l-0.1-0.7c-5.8,3.8-12,7.1-18.4,9.8c-12.8,5.3-26.7,8.3-41.4,8.5
	c-0.5,0-1,0-1.5,0s-1,0-1.5,0C240.8,366.5,226.8,363.5,214,358.2z M177.8,345.5c-22.9-36.7,1.7-74.6,21.3-87.1
	c22.7-14.3-9.5-40.2-35.4-5.7C138.4,286.4,176,342.9,177.8,345.5z M295.3,227c8.3-11,23.1-33,4.5-28.4c-10.6,2.6-17.8,8.3-22.6,14.1
	c-5.5,6.6-2,16.8,6.4,18.6C287.9,232.3,292.5,230.6,295.3,227z M230.3,231.3c8.4-1.9,11.9-12,6.4-18.6c-4.8-5.7-12.1-11.5-22.6-14.1
	c-18.7-4.6-3.8,17.5,4.5,28.4C221.2,230.6,225.8,232.3,230.3,231.3z"/>
<path class="st15" d="M258.3,366.7c16.3,0,31-2.8,41.4-8.5c9.9-5.5,16-13.6,16-24.6c0-22.6-28.6-48.6-60.4-48.6
	c-31.7,0-57.4,26-57.4,48.6c0,11,6.1,19.1,16,24.6C224.5,364,242.1,366.7,258.3,366.7"/>
<path class="st16" d="M255.4,312c-9.5,0-17.2,3.2-17.2,9.9c0,6.8,7.7,14.5,17.2,14.5h2.9c9.5,0,17.2-7.8,17.2-14.5
	c0-6.8-7.7-9.9-17.2-9.9H255.4z"/>
<radialGradient id="SVGID_3_" cx="347.8645" cy="356.3659" r="42.8127" gradientTransform="matrix(1 0 0 -1 0 513.2912)" gradientUnits="userSpaceOnUse">
	<stop  offset="0" style="stop-color:#FCF7D9"/>
	<stop  offset="0" style="stop-color:#FDEEA5"/>
	<stop  offset="0" style="stop-color:#FEE56E"/>
	<stop  offset="0.5506" style="stop-color:#FFCF00"/>
	<stop  offset="0.7073" style="stop-color:#F3C002"/>
	<stop  offset="1" style="stop-color:#E0A905"/>
</radialGradient>
<path class="st17" d="M382.7,118c15.7,14.1,1.4,55.4-13.4,71.8c-4.7,5.2-10.3,8.9-16.3,11.1c-2.7-7.4-5.9-14.2-9.9-20.4l0,0
	c4.2-0.5,8.2-2.5,11.3-5.9c6.6-7.3,12.9-25.6,5.9-31.9c-7-6.3-24.6,1.8-31.2,9.1c-2.1,2.4-3.5,5.1-4.2,8c-1-0.8-2-1.7-3.1-2.4
	c-4.8-3.7-10.1-6.8-15.7-9.5c1.6-3.3,3.8-6.4,6.4-9.3C327.4,122.2,367,103.9,382.7,118z"/>
<g>
	<path class="st15" d="M360.4,142.7c7,6.3,0.6,24.6-5.9,31.9c-3.1,3.4-7.1,5.4-11.3,5.9l0,0c-5-8-11.1-14.9-18.1-20.8
		c0.7-2.8,2.1-5.6,4.2-8C335.8,144.5,353.4,136.4,360.4,142.7z"/>
	<path class="st15" d="M350,252.7c25.3,33.7-12.2,90.2-14,92.8c22.9-36.7-1.6-74.6-21.3-87.1C292,244.1,324.1,218.3,350,252.7z"/>
	<path class="st15" d="M299.7,198.5c18.7-4.6,3.8,17.5-4.5,28.4c-2.7,3.6-7.3,5.3-11.8,4.3c-8.4-1.9-11.9-12-6.4-18.6
		C281.9,206.9,289.2,201.1,299.7,198.5z"/>
	<path class="st15" d="M236.7,212.6c5.5,6.6,2,16.8-6.4,18.6c-4.4,1-9-0.7-11.8-4.3c-8.3-11-23.1-33-4.5-28.4
		C224.6,201.1,231.8,206.9,236.7,212.6z"/>
</g>
<radialGradient id="SVGID_4_" cx="165.8959" cy="356.3666" r="42.8125" gradientTransform="matrix(1 0 0 -1 0 513.2912)" gradientUnits="userSpaceOnUse">
	<stop  offset="0" style="stop-color:#FCF7D9"/>
	<stop  offset="0" style="stop-color:#FDEEA5"/>
	<stop  offset="0" style="stop-color:#FEE56E"/>
	<stop  offset="0.5506" style="stop-color:#FFCF00"/>
	<stop  offset="0.7073" style="stop-color:#F3C002"/>
	<stop  offset="1" style="stop-color:#E0A905"/>
</radialGradient>
<path class="st18" d="M201.2,138.5c2.6,2.9,4.7,6,6.4,9.3c-6.8,3.2-13.1,7.2-18.8,11.9c-0.7-2.9-2.1-5.6-4.2-8
	c-6.6-7.3-24.2-15.4-31.2-9.1c-7,6.3-0.6,24.6,5.9,31.9c3.1,3.4,7.2,5.4,11.3,5.9c-3.9,6.2-7.2,13-9.9,20.4h0
	c-6-2.2-11.7-5.9-16.3-11.1c-14.8-16.4-29-57.6-13.4-71.8C146.8,103.9,186.4,122.2,201.2,138.5z"/>
<g>
	<path class="st15" d="M163.7,252.7c25.9-34.5,58.1-8.6,35.4,5.7c-19.7,12.4-44.3,50.3-21.3,87.1C176,342.9,138.4,286.4,163.7,252.7
		z"/>
	<path class="st15" d="M184.5,151.8c2.1,2.4,3.5,5.1,4.2,8c-7,5.8-13.1,12.8-18.1,20.8c-4.2-0.5-8.2-2.5-11.3-5.9
		c-6.6-7.3-12.9-25.6-5.9-31.9C160.3,136.4,177.9,144.5,184.5,151.8z"/>
</g>
<path d="M93.9,290.9c0.1,0.6,2.2,15.2,16.2,30.4c18,19.6,46.4,31.2,84.4,34.5c5.3,3.3,10.8,6.1,16.5,8.5c8.2,4.4,20.4,7.4,34.2,8.6
	c3.3,0.3,6.6,0.5,10,0.6c0.5,0,1.1,0,1.6,0c0.4,0,0.8,0,1.1,0c0.1,0,0.2,0,0.3,0c17.9,0,33.2-3.2,44.3-9.2
	c5.7-2.4,11.3-5.3,16.6-8.5c38-3.3,66.4-14.9,84.4-34.5c14-15.2,16.1-29.8,16.2-30.4c0.3-2.4-0.7-4.8-2.6-6.3s-4.5-1.8-6.8-0.8
	c-2.9,1.2-5.4,2-7.7,2.4c10.7-12.5,11.6-28.8,11.6-29.7c0.1-2.4-1.1-4.8-3.2-6.1c-2.1-1.3-4.7-1.4-6.8-0.2c-3,1.6-6.2,2.3-9.2,2.5
	c7.6-10.3,9.5-24.9,9.8-27.3c0.3-2.7-1-5.3-3.3-6.6c-2.3-1.4-5.2-1.2-7.4,0.4c-3.5,2.5-15,9.1-22.3,6.4c-3.7-1.3-6.4-5.3-8.1-11.7
	c-0.2-0.7-0.3-1.5-0.5-2.2c-0.6-2.4-1.2-4.7-1.9-7c4.9-2.6,9.3-6.1,13-10.2c8.3-9.2,16-24.8,19.7-39.7c4.6-18.8,2.2-33.6-6.8-41.7
	c-9-8.1-23.9-9-42.2-2.6c-14.5,5.1-29.2,14.4-37.5,23.6c-1.5,1.7-2.9,3.4-4.1,5.2c-1.3-0.5-2.5-1-3.8-1.4c-3.5-1.3-7.4,0.6-8.7,4.1
	c-1.3,3.5,0.6,7.4,4.1,8.7c2.8,1,5.6,2.1,8.2,3.4c5.2,2.4,10,5.4,14.5,8.8c0.9,0.7,1.9,1.5,2.8,2.2c6.5,5.4,12.1,11.8,16.7,19.2
	c3.6,5.8,6.7,12.2,9.2,19c1.3,3.7,2.5,7.6,3.5,11.6c0.2,0.7,0.3,1.4,0.5,2c0,0.1,0,0.2,0.1,0.2c2.9,11.1,8.5,18.3,16.7,21.2
	c7,2.5,14.5,1.3,20.7-0.8c-2.3,5.8-5.7,11.2-10.6,12c-2.9,0.4-5.3,2.8-5.7,5.7c-0.4,2.9,1.1,5.8,3.8,7.1c0.6,0.3,11.1,5.2,23.3,3.7
	c-2.1,6.3-6.4,14-14.9,17.9c-2.1,1-3.6,3-3.9,5.3c-0.3,2.3,0.6,4.6,2.4,6.1c0.9,0.8,7.8,6,20,4.6c-2,3.8-5,8.4-9.4,13
	c-10.3,10.9-25.3,19.1-44,24.1c3.4-6.3,7.4-14.7,10.6-24c9.1-26.4,7.7-48.6-4.1-64.3c-11.5-15.3-26.3-22.4-39.8-19.1
	c-8.3,2-14.1,7.8-15.3,15.1c-1.2,7.4,2.7,14.5,10.7,19.5c16.7,10.6,39.4,43.7,19.9,76.5c-3.1,0.5-6.2,0.9-9.4,1.2
	c0.7-2.7,1-5.4,1-8.3c0-13.1-7.5-26.9-20.7-37.9c-13.2-11.1-30.1-17.4-46.4-17.4c-36.2,0-64.2,29.8-64.2,55.4c0,2.9,0.3,5.7,1,8.3
	c-3.2-0.3-6.4-0.7-9.4-1.2c-19.5-32.9,3.2-66,19.9-76.5c8-5,11.9-12.2,10.7-19.5c-1.2-7.3-7-13-15.3-15.1
	c-13.4-3.3-28.3,3.8-39.8,19.1c-11.8,15.7-13.2,38-4.1,64.3c3.2,9.3,7.2,17.7,10.6,24c-18.7-5.1-33.7-13.2-44-24.2
	c-4.4-4.6-7.4-9.1-9.4-13c12.2,1.3,19-3.9,20-4.6c1.8-1.5,2.7-3.8,2.4-6.1c-0.3-2.3-1.8-4.3-3.9-5.3c-8.4-3.9-12.7-11.6-14.9-17.9
	c12.2,1.5,22.7-3.4,23.2-3.7c2.7-1.3,4.2-4.2,3.8-7.1c-0.4-2.9-2.8-5.3-5.7-5.7c-4.9-0.7-8.3-6.1-10.6-12c6.2,2.2,13.7,3.4,20.7,0.8
	c8.3-3,13.9-10.1,16.7-21.2c0-0.1,0-0.2,0.1-0.2c0.1-0.7,0.3-1.4,0.5-2c1-4,2.1-7.9,3.5-11.6c2.5-6.9,5.6-13.3,9.2-19.1
	c4.6-7.3,10.3-13.8,16.7-19.2c5.2-4.3,11-8,17.3-11c13.3-6.3,28.9-9.5,46.5-9.5c3.7,0,6.8-3,6.8-6.8s-3-6.8-6.8-6.8
	c-17.1,0-32.8,2.8-46.6,8.3c-1.2-1.8-2.6-3.6-4.1-5.2c-8.3-9.2-23-18.4-37.5-23.6c-18.2-6.5-33.2-5.5-42.2,2.6
	c-9,8.1-11.4,22.9-6.8,41.7c3.6,14.9,11.4,30.5,19.7,39.7c3.7,4.1,8.2,7.6,13,10.2c-0.7,2.3-1.3,4.6-1.9,7c-0.2,0.7-0.4,1.5-0.5,2.2
	c-1.7,6.4-4.4,10.4-8.1,11.7c-7.4,2.7-18.9-3.9-22.3-6.4c-2.2-1.6-5.1-1.8-7.4-0.4s-3.6,4-3.3,6.6c0.3,2.3,2.2,16.9,9.8,27.3
	c-3-0.1-6.2-0.8-9.2-2.4c-2.2-1.2-4.8-1.1-6.8,0.2c-2.1,1.3-3.3,3.6-3.2,6.1c0,0.9,1,17.2,11.6,29.7c-2.2-0.4-4.8-1.1-7.7-2.4
	c-2.2-1-4.8-0.6-6.8,0.8C94.6,286,93.6,288.4,93.9,290.9z M315.9,145.2c0.6-0.7,1.1-1.4,1.8-2.1c6.8-7.5,19.6-15.5,31.9-19.9
	c12.9-4.6,23.6-4.6,28.5-0.2s6,15.1,2.7,28.4c-3.1,12.7-9.7,26.3-16.6,33.8c-2.3,2.5-4.9,4.6-7.7,6.4c-1.1-2.5-2.3-5-3.5-7.4
	c2.4-1.3,4.5-3.1,6.4-5.1c4.1-4.6,7.8-12,9.6-19.3c2.4-9.8,0.9-17.7-4.1-22.2c-5.1-4.6-13.1-5.2-22.5-1.9
	c-7.1,2.5-14.1,6.9-18.2,11.5c-0.6,0.7-1.2,1.4-1.7,2.1C320.4,147.9,318.2,146.5,315.9,145.2z M333.1,157.9c0.3-0.5,0.7-1.1,1.2-1.5
	c2.6-2.9,7.8-6.1,12.7-7.8c5.3-1.9,8.3-1.4,8.9-0.8c0.6,0.5,1.4,3.4,0.1,9c-1.2,5-3.9,10.5-6.5,13.4c-1,1.1-2.2,2-3.4,2.6
	C342.2,167.2,337.9,162.3,333.1,157.9z M318.3,252.7c-3.1-1.9-4.8-4.2-4.5-5.9c0.2-1.4,1.9-3.3,5.2-4.1c1-0.2,2-0.4,3.2-0.4
	c6.1,0,14.5,3.7,22.5,14.4c8.6,11.5,8.6,26.6,5.3,40.8c-0.6-2.5-1.4-4.9-2.2-7.1C340.9,272.1,328,258.9,318.3,252.7z M255.4,291.8
	c28.4,0,53.6,23.4,53.6,41.8c0,7.8-4,13.9-12.2,18.5c-12.2,5-25.2,7.7-38.5,7.8c-4,0-8-0.2-11.8-0.5c-10.2-1-20.1-3.4-29.5-7.3
	c-8.2-4.6-12.2-10.7-12.2-18.5C204.8,314.7,227.4,291.8,255.4,291.8z M169.1,256.8c8-10.7,16.4-14.4,22.5-14.4
	c1.1,0,2.2,0.1,3.2,0.4c3.2,0.8,4.9,2.7,5.2,4.1c0.3,1.7-1.5,4-4.5,5.9c-9.8,6.2-22.6,19.3-29.4,37.8c-0.8,2.2-1.6,4.6-2.2,7.1
	C160.5,283.4,160.5,268.3,169.1,256.8z M167.8,172.6c-1.3-0.6-2.4-1.5-3.4-2.6c-2.6-2.9-5.3-8.4-6.5-13.4c-1.3-5.5-0.5-8.4,0.1-9
	c0.6-0.5,3.6-1.1,8.9,0.8c4.9,1.7,10.1,4.9,12.7,7.8c0.4,0.5,0.8,1,1.2,1.5C175.9,162.3,171.6,167.2,167.8,172.6z M149.5,185.3
	c-6.8-7.5-13.5-21.1-16.6-33.8c-3.3-13.3-2.2-23.9,2.7-28.4c4.9-4.5,15.6-4.4,28.5,0.2c12.3,4.4,25.1,12.3,31.9,19.9
	c0.6,0.7,1.2,1.4,1.8,2.1c-2.3,1.3-4.5,2.7-6.6,4.1c-0.5-0.7-1.1-1.4-1.7-2.1c-4.1-4.6-11.1-9-18.2-11.5c-9.5-3.4-17.5-2.7-22.5,1.9
	c-5.1,4.6-6.5,12.5-4.2,22.2c1.8,7.3,5.5,14.7,9.6,19.3c1.9,2.1,4,3.8,6.4,5.1c-1.2,2.4-2.4,4.9-3.5,7.4
	C154.4,189.9,151.7,187.7,149.5,185.3z"/>
<path d="M281.4,133c-0.9-0.2-1.8-0.3-2.6-0.4c-3.7-0.6-7.2,1.9-7.8,5.6c-0.6,3.7,1.9,7.2,5.6,7.8c0.8,0.1,1.6,0.3,2.4,0.4
	c0.4,0.1,0.8,0.1,1.2,0.1c3.2,0,6.1-2.3,6.7-5.6C287.6,137.2,285.1,133.7,281.4,133z"/>
<path d="M230.6,352.9h1.5c9,0,17.8-3.1,24.8-8.7c7,5.6,15.8,8.7,24.8,8.7h1.5c3.7,0,6.8-3,6.8-6.8c0-3.7-3-6.8-6.8-6.8h-1.5
	c-2.8,0-5.5-0.5-8.2-1.3c5.3-4,8.8-9.9,8.8-16.1c0-10.1-9.4-16.7-24-16.7h-2.9c-14.6,0-24,6.6-24,16.7c0,6.2,3.5,12.1,8.8,16.1
	c-2.6,0.9-5.4,1.3-8.1,1.3h-1.5c-3.7,0-6.8,3-6.8,6.8C223.8,349.8,226.8,352.9,230.6,352.9z M255.4,318.8h2.9
	c6.7,0,10.4,1.9,10.4,3.1c0,2.7-4.4,7.8-10.4,7.8h-2.9c-6,0-10.4-5.1-10.4-7.8C245,320.6,248.7,318.8,255.4,318.8z"/>
<path d="M226.8,254.7c-8.6,0-15.5,7-15.5,15.5c0,3.7,3,6.8,6.8,6.8s6.8-3,6.8-6.8c0-1.1,0.9-2,2-2c1.1,0,2,0.9,2,2
	c0,3.7,3,6.8,6.8,6.8s6.8-3,6.8-6.8C242.3,261.7,235.3,254.7,226.8,254.7z"/>
<path d="M241.9,208.3c-6.9-8.3-15.8-13.8-26.2-16.3c-9.3-2.3-13.7,0.9-15.7,3.9c-3.1,4.7-4,12.6,13.1,35.2c3.5,4.6,9,7.3,14.6,7.3
	c1.3,0,2.7-0.1,4-0.4c6.3-1.4,11.3-5.9,13.4-12.1C247.2,219.7,246,213.2,241.9,208.3z M232.3,221.5c-0.3,0.8-1.1,2.6-3.5,3.2
	c0,0,0,0,0,0c-1.8,0.4-3.7-0.3-4.9-1.8c-6.5-8.6-9.7-14.3-11.2-17.7c7.5,1.9,13.8,5.9,18.7,11.8C233,218.8,232.5,220.7,232.3,221.5z
	"/>
<path d="M271.5,270.2c0,3.7,3,6.8,6.8,6.8c3.7,0,6.8-3,6.8-6.8c0-1.1,0.9-2,2-2s2,0.9,2,2c0,3.7,3,6.8,6.8,6.8c3.7,0,6.8-3,6.8-6.8
	c0-8.6-7-15.5-15.5-15.5C278.4,254.7,271.5,261.7,271.5,270.2z"/>
<path d="M313.8,195.8c-2-3-6.3-6.2-15.7-3.9c-10.5,2.6-19.3,8-26.2,16.3c-4.1,4.9-5.3,11.5-3.3,17.5c2.1,6.1,7.1,10.6,13.4,12.1
	c1.3,0.3,2.7,0.4,4,0.4c5.7,0,11.1-2.6,14.6-7.3C317.8,208.5,316.9,200.6,313.8,195.8z M289.9,222.9c-1.1,1.5-3,2.2-4.9,1.8
	c0,0,0,0,0,0c-2.4-0.5-3.3-2.4-3.5-3.2c-0.3-0.8-0.7-2.7,0.8-4.5c5-5.9,11.3-9.9,18.7-11.8C299.6,208.5,296.3,214.3,289.9,222.9z"/>
</svg>
