<?xml version="1.0" encoding="utf-8"?>
<!-- Generator: Adobe Illustrator 24.0.1, SVG Export Plug-In . SVG Version: 6.00 Build 0)  -->
<svg version="1.1" id="Layer_1" xmlns="http://www.w3.org/2000/svg" xmlns:xlink="http://www.w3.org/1999/xlink" x="0px" y="0px"
	 viewBox="0 0 512 512" style="enable-background:new 0 0 512 512;" xml:space="preserve">
<style type="text/css">
	.st0{display:none;}
	.st1{display:inline;fill:#200A7F;stroke:#18E5EA;stroke-width:20;stroke-miterlimit:10;}
	.st2{display:inline;fill:#EF0B79;}
	.st3{display:inline;fill:#18E5EA;}
	.st4{display:inline;}
	.st5{fill:#E9F21C;}
	.st6{display:inline;fill:none;}
	.st7{display:inline;fill:#EF3A24;}
	.st8{font-family:'MyriadPro-Regular';}
	.st9{font-size:250px;}
	.st10{display:inline;fill:#FFFFFF;}
	.st11{fill:#C4C6C8;}
	.st12{fill:url(#SVGID_1_);}
	.st13{fill:url(#SVGID_2_);stroke:#E8E8E8;stroke-width:3;stroke-miterlimit:10;}
	.st14{fill:#4C0C80;stroke:#FFFFFF;stroke-width:6;stroke-miterlimit:10;}
	.st15{fill:none;stroke:#FFFFFF;stroke-width:6;stroke-miterlimit:10;}
</style>
<g id="Layer_3" class="st0">
	<path class="st1" d="M401.1,212.2c5.1,15.3,7.9,31.7,7.9,48.8c0,85.3-69.2,154.5-154.5,154.5S100,346.3,100,261
		s69.2-154.5,154.5-154.5c51.2,0,96.6,24.9,124.7,63.3"/>
	<path class="st2" d="M333.4,255.2c0,4.2-3.3,7.7-7.4,7.7H174.9c-4.1,0-7.4-3.4-7.4-7.7l0,0c0-4.2,3.3-7.7,7.4-7.7H326
		C330.1,247.5,333.4,250.9,333.4,255.2L333.4,255.2z"/>
	<path class="st2" d="M333.4,284.8c0,4.2-3.3,7.6-7.4,7.6H174.9c-4.1,0-7.4-3.4-7.4-7.6l0,0c0-4.2,3.3-7.6,7.4-7.6H326
		C330.1,277.1,333.4,280.6,333.4,284.8L333.4,284.8z"/>
	<path class="st2" d="M333.4,313c0,4.2-3.3,7.7-7.4,7.7H174.9c-4.1,0-7.4-3.4-7.4-7.7l0,0c0-4.2,3.3-7.6,7.4-7.6H326
		C330.1,305.4,333.4,308.8,333.4,313L333.4,313z"/>
	<path class="st2" d="M333.4,338.4c0,4.2-3.3,7.7-7.4,7.7H174.9c-4.1,0-7.4-3.4-7.4-7.7l0,0c0-4.2,3.3-7.6,7.4-7.6H326
		C330.1,330.7,333.4,334.1,333.4,338.4L333.4,338.4z"/>
	<polygon class="st3" points="395,191.5 320.2,165.2 380.4,113.5 	"/>
	<g class="st4">
		<g>
			<g>
				<path class="st5" d="M241.5,239.2c-2.3,0-4.4-1.1-5.8-2.9l-18.8-24.8c-2.4-3.2-1.8-7.8,1.4-10.3c3.2-2.4,7.8-1.8,10.3,1.4
					l12.3,16.3l31-49.8c2.1-3.4,6.6-4.5,10.1-2.3c3.4,2.1,4.5,6.6,2.3,10.1l-36.7,58.9c-1.3,2-3.5,3.3-5.9,3.4
					C241.7,239.2,241.6,239.2,241.5,239.2z"/>
			</g>
		</g>
	</g>
</g>
<g id="Layer_2_2_" class="st0">
	<rect x="121" y="171.5" class="st6" width="298" height="251"/>
	<text transform="matrix(1 0 0 1 121 348.9979)" class="st7 st8 st9">24</text>
	<circle class="st10" cx="138.3" cy="91.8" r="17.3"/>
	<circle class="st10" cx="185.3" cy="91.8" r="17.3"/>
	<circle class="st10" cx="232.3" cy="91.8" r="17.3"/>
	<circle class="st10" cx="278.3" cy="91.8" r="17.3"/>
	<circle class="st10" cx="323.3" cy="91.8" r="17.3"/>
	<circle class="st10" cx="368.3" cy="91.8" r="17.3"/>
</g>
<g>
	<path class="st11" d="M350.3,54.5H161.7c-17.9,0-34.5,9.6-43.4,25.1L24,242.9c-9,15.5-9,34.6,0,50.2l94.3,163.3
		c9,15.5,25.5,25.1,43.4,25.1h188.5c17.9,0,34.5-9.6,43.4-25.1L488,293.1c9-15.5,9-34.6,0-50.2L393.7,79.6
		C384.8,64.1,368.2,54.5,350.3,54.5z"/>
</g>
<g>
	<radialGradient id="SVGID_1_" cx="256.8813" cy="253.9514" r="226.4908" gradientUnits="userSpaceOnUse">
		<stop  offset="0" style="stop-color:#B3C6D0"/>
		<stop  offset="0.5393" style="stop-color:#7895A4"/>
		<stop  offset="1" style="stop-color:#436676"/>
	</radialGradient>
	<path class="st12" d="M491.1,274.8c-0.7,1.4-1.4,2.9-2.2,4.3l-46.2,80l-48.1,83.3c-0.5,0.9-1,1.8-1.6,2.7c0,0-0.1,0.1-0.1,0.1
		c-8.3,12.4-21.7,20.5-36.5,22c-1.7,0.2-3.4,0.3-5.2,0.3H162.6c-17.9,0-34.5-9.6-43.5-25.1l-15.3-26.6l-70.4-122L24.9,279
		c-9-15.5-9-34.6,0-50.2l6.5-11.3l22.3-38.6l65.5-113.4c9-15.5,25.5-25.1,43.5-25.1h188.5c17.9,0,34.5,9.6,43.5,25.1l20.7,35.9
		l6.3,10.9l25.3,43.8l2.4,4.2l5.5,9.6l7,12l27.1,47c1.2,2,2.2,4.1,3,6.2C497.1,247.9,496.8,262.3,491.1,274.8z"/>
	<radialGradient id="SVGID_2_" cx="256.8813" cy="253.9514" r="226.4908" gradientUnits="userSpaceOnUse">
		<stop  offset="0" style="stop-color:#B3C6D0"/>
		<stop  offset="0.5393" style="stop-color:#7895A4"/>
		<stop  offset="1" style="stop-color:#436676"/>
	</radialGradient>
	<path class="st13" d="M491.1,274.8c-0.7,1.4-1.4,2.9-2.2,4.3l-46.2,80l-48.1,83.3c-0.5,0.9-1,1.8-1.6,2.7c0,0-0.1,0.1-0.1,0.1
		c-8.3,12.4-21.7,20.5-36.5,22c-1.7,0.2-3.4,0.3-5.2,0.3H162.6c-17.9,0-34.5-9.6-43.5-25.1l-15.3-26.6l-70.4-122L24.9,279
		c-9-15.5-9-34.6,0-50.2l6.5-11.3l22.3-38.6l65.5-113.4c9-15.5,25.5-25.1,43.5-25.1h188.5c17.9,0,34.5,9.6,43.5,25.1l20.7,35.9
		l6.3,10.9l25.3,43.8l2.4,4.2l5.5,9.6l7,12l27.1,47c1.2,2,2.2,4.1,3,6.2C497.1,247.9,496.8,262.3,491.1,274.8z"/>
</g>
<g>
	<path class="st14" d="M110.9,469.5c0.3,0.6,0.5,1.2,0.8,1.7c1.6,0.6,3.3,1.2,4.9,1.8C114.7,471.8,112.8,470.6,110.9,469.5
		C110.9,469.4,110.9,469.4,110.9,469.5z"/>
	<path class="st14" d="M82.5,450.5c1.3,0.2,2.6,0.4,3.9,0.6c-3.8-3.2-7.6-6.6-11.2-10C77.8,444.2,80.2,447.3,82.5,450.5z"/>
	<path class="st14" d="M377.8,26.2c-5.1-1.5-10.1-2.9-15.2-4.2c5.6,2.7,11.2,5.6,16.6,8.7C378.6,29.2,378.1,27.7,377.8,26.2z"/>
	<path class="st14" d="M506.6,209.8c-0.5-1.5-1.1-3-1.7-4.5c-0.5-1-0.9-1.9-1.4-2.9c0.7,3.4,1.3,6.8,1.8,10.2
		C505.7,211.7,506.1,210.7,506.6,209.8z"/>
	<path class="st14" d="M510.2,287.5c0.6-0.6,1.2-1.1,1.9-1.7c-0.3-6.3-0.7-12.6-1.4-18.8c-0.6-3.6-1.2-7.2-2-10.8
		c-0.1,12.2-1.1,24.2-2.8,36C507.2,290.6,508.7,289,510.2,287.5z"/>
	<path class="st14" d="M404.8,467.1c8.1-9.5,18-17.2,26.2-26.6c1.6-2.3,3.1-4.6,4.6-7c-30,30.8-67.6,54.1-109.7,66.8
		c3.6,0.1,7.2,0.3,10.7,0.4c5.9-3.9,12.7-6.3,19.7-6.6c5.5-6.8,13.3-11.8,21.7-14C384.9,472.7,394.6,467.7,404.8,467.1z"/>
	<path class="st14" d="M49.5,415.6c5,5.7,10.5,10.9,16.1,16.1c-8.2-8.6-15.8-17.7-22.8-27.4C44.9,408.2,47.1,412,49.5,415.6z"/>
	<path class="st14" d="M271,139.9c-4-7-11.5-11.3-19.6-11.3c-8.1,0-15.5,4.3-19.6,11.3L120.6,332.6c-6.2,10.8-2.5,24.6,8.3,30.9
		c10.8,6.2,24.6,2.5,30.9-8.3l36.3-62.9h110.8l36.3,62.9c4.2,7.2,11.8,11.3,19.6,11.3c3.8,0,7.7-1,11.3-3c10.8-6.2,14.5-20,8.3-30.9
		L271,139.9z M222.1,247.2l29.3-50.8l29.3,50.8H222.1z"/>
</g>
<path class="st15" d="M248.7,16c0.3,31,0.3,62,0,93.2"/>
<path class="st15" d="M251.4,401.4c-0.4,31.6-0.4,63.6,0,95.4"/>
<path class="st15" d="M13.7,260.2c30.3-0.2,59.3-0.2,88.9,0"/>
<path class="st15" d="M394.7,257.4c37.3-0.4,74.3-0.4,111.8,0"/>
</svg>
