<?xml version="1.0" encoding="utf-8"?>
<!-- Generator: Adobe Illustrator 24.0.1, SVG Export Plug-In . SVG Version: 6.00 Build 0)  -->
<svg version="1.1" id="Layer_1" xmlns="http://www.w3.org/2000/svg" xmlns:xlink="http://www.w3.org/1999/xlink" x="0px" y="0px"
	 viewBox="0 0 512 512" style="enable-background:new 0 0 512 512;" xml:space="preserve">
<style type="text/css">
	.st0{display:none;}
	.st1{display:inline;fill:#200A7F;stroke:#18E5EA;stroke-width:20;stroke-miterlimit:10;}
	.st2{display:inline;fill:#EF0B79;}
	.st3{display:inline;fill:#18E5EA;}
	.st4{display:inline;}
	.st5{fill:#E9F21C;}
	.st6{display:inline;fill:none;}
	.st7{display:inline;fill:#EF3A24;}
	.st8{font-family:'MyriadPro-Regular';}
	.st9{font-size:250px;}
	.st10{display:inline;fill:#FFFFFF;}
	.st11{fill:#C4C6C8;}
	.st12{fill:url(#SVGID_1_);}
	.st13{fill:url(#SVGID_2_);stroke:#E8E8E8;stroke-width:3;stroke-miterlimit:10;}
	.st14{fill:#303C42;}
	.st15{fill:#FFFFFF;}
	.st16{fill:#FDD835;}
	.st17{opacity:0.2;fill:#FFFFFF;enable-background:new    ;}
	.st18{opacity:0.1;enable-background:new    ;}
	.st19{fill:#E53935;}
	.st20{fill:url(#SVGID_3_);}
	.st21{fill:url(#SVGID_4_);}
</style>
<g id="Layer_3" class="st0">
	<path class="st1" d="M401.1,212.2c5.1,15.3,7.9,31.7,7.9,48.8c0,85.3-69.2,154.5-154.5,154.5S100,346.3,100,261
		s69.2-154.5,154.5-154.5c51.2,0,96.6,24.9,124.7,63.3"/>
	<path class="st2" d="M333.4,255.2c0,4.2-3.3,7.7-7.4,7.7H174.9c-4.1,0-7.4-3.4-7.4-7.7l0,0c0-4.2,3.3-7.7,7.4-7.7H326
		C330.1,247.5,333.4,250.9,333.4,255.2L333.4,255.2z"/>
	<path class="st2" d="M333.4,284.8c0,4.2-3.3,7.6-7.4,7.6H174.9c-4.1,0-7.4-3.4-7.4-7.6l0,0c0-4.2,3.3-7.6,7.4-7.6H326
		C330.1,277.1,333.4,280.6,333.4,284.8L333.4,284.8z"/>
	<path class="st2" d="M333.4,313c0,4.2-3.3,7.7-7.4,7.7H174.9c-4.1,0-7.4-3.4-7.4-7.7l0,0c0-4.2,3.3-7.6,7.4-7.6H326
		C330.1,305.4,333.4,308.8,333.4,313L333.4,313z"/>
	<path class="st2" d="M333.4,338.4c0,4.2-3.3,7.7-7.4,7.7H174.9c-4.1,0-7.4-3.4-7.4-7.7l0,0c0-4.2,3.3-7.6,7.4-7.6H326
		C330.1,330.7,333.4,334.1,333.4,338.4L333.4,338.4z"/>
	<polygon class="st3" points="395,191.5 320.2,165.2 380.4,113.5 	"/>
	<g class="st4">
		<g>
			<g>
				<path class="st5" d="M241.5,239.2c-2.3,0-4.4-1.1-5.8-2.9l-18.8-24.8c-2.4-3.2-1.8-7.8,1.4-10.3c3.2-2.4,7.8-1.8,10.3,1.4
					l12.3,16.3l31-49.8c2.1-3.4,6.6-4.5,10.1-2.3c3.4,2.1,4.5,6.6,2.3,10.1l-36.7,58.9c-1.3,2-3.5,3.3-5.9,3.4
					C241.7,239.2,241.6,239.2,241.5,239.2z"/>
			</g>
		</g>
	</g>
</g>
<g id="Layer_2_2_" class="st0">
	<rect x="121" y="171.5" class="st6" width="298" height="251"/>
	<text transform="matrix(1 0 0 1 121 348.9979)" class="st7 st8 st9">24</text>
	<circle class="st10" cx="138.3" cy="91.8" r="17.3"/>
	<circle class="st10" cx="185.3" cy="91.8" r="17.3"/>
	<circle class="st10" cx="232.3" cy="91.8" r="17.3"/>
	<circle class="st10" cx="278.3" cy="91.8" r="17.3"/>
	<circle class="st10" cx="323.3" cy="91.8" r="17.3"/>
	<circle class="st10" cx="368.3" cy="91.8" r="17.3"/>
</g>
<g>
	<path class="st11" d="M350.3,54.5H161.7c-17.9,0-34.5,9.6-43.4,25.1L24,242.9c-9,15.5-9,34.6,0,50.2l94.3,163.3
		c9,15.5,25.5,25.1,43.4,25.1h188.5c17.9,0,34.5-9.6,43.4-25.1L488,293.1c9-15.5,9-34.6,0-50.2L393.7,79.6
		C384.8,64.1,368.2,54.5,350.3,54.5z"/>
</g>
<g>
	
		<linearGradient id="SVGID_1_" gradientUnits="userSpaceOnUse" x1="18.15" y1="5409.9502" x2="495.6125" y2="5409.9502" gradientTransform="matrix(1 0 0 1 0 -5156.0005)">
		<stop  offset="0" style="stop-color:#F37E5F"/>
		<stop  offset="0.5" style="stop-color:#EC1C24"/>
		<stop  offset="1" style="stop-color:#CF232A"/>
	</linearGradient>
	<path class="st12" d="M491.1,274.8c-0.7,1.4-1.4,2.9-2.2,4.3l-94.3,163.3c-0.5,1-1.1,1.9-1.7,2.8c-8.3,12.4-21.7,20.5-36.5,22
		c-1.7,0.2-3.4,0.3-5.2,0.3H162.6c-17.9,0-34.5-9.6-43.5-25.1l-15.3-26.6l-70.4-122L24.9,279c-9-15.5-9-34.6,0-50.2l6.5-11.3
		l22.3-38.6l65.5-113.4c9-15.5,25.5-25.1,43.5-25.1h188.5c17.9,0,34.5,9.6,43.5,25.1l20.7,35.9l6.3,10.9l25.3,43.8l2.4,4.2l5.5,9.6
		l7,12l27.1,47c1.2,2,2.2,4.1,3,6.2C497.1,247.9,496.8,262.3,491.1,274.8z"/>
	
		<linearGradient id="SVGID_2_" gradientUnits="userSpaceOnUse" x1="18.15" y1="259.3414" x2="495.6125" y2="259.3414" gradientTransform="matrix(1 0 0 -1 0 513.2912)">
		<stop  offset="0" style="stop-color:#F37E5F"/>
		<stop  offset="0.5" style="stop-color:#EC1C24"/>
		<stop  offset="1" style="stop-color:#CF232A"/>
	</linearGradient>
	<path class="st13" d="M491.1,274.8c-0.7,1.4-1.4,2.9-2.2,4.3l-94.3,163.3c-0.5,1-1.1,1.9-1.7,2.8c-8.3,12.4-21.7,20.5-36.5,22
		c-1.7,0.2-3.4,0.3-5.2,0.3H162.6c-17.9,0-34.5-9.6-43.5-25.1l-15.3-26.6l-70.4-122L24.9,279c-9-15.5-9-34.6,0-50.2l6.5-11.3
		l22.3-38.6l65.5-113.4c9-15.5,25.5-25.1,43.5-25.1h188.5c17.9,0,34.5,9.6,43.5,25.1l20.7,35.9l6.3,10.9l25.3,43.8l2.4,4.2l5.5,9.6
		l7,12l27.1,47c1.2,2,2.2,4.1,3,6.2C497.1,247.9,496.8,262.3,491.1,274.8z"/>
</g>
<g id="Layer_2_1_">
	<path class="st14" d="M307.3,160c-9.5-27.4-43.5-55.7-61.9-55.7c-7.1,0-17.6,4.7-17.6,17.6c0,2,0.3,4,0.8,6
		c-27.6,0.5-47.8,3-47.8,17.5c0,8,7.5,14.1,23.8,19c-28,14.2-47.1,38.5-58.4,65.7l-0.7-3.6c-0.4-2.1-2-3.8-4.1-4.5
		c-2-0.6-4.3-0.1-5.9,1.5l-5.9,5.9c-1.8,1.8-2.2,4.5-1.1,6.8l4.8,9.7l-15-6c-1.8-0.7-3.9-0.5-5.5,0.6c-1.6,1.1-2.6,2.9-2.6,4.9V257
		c0,3.2,2.6,5.9,5.9,5.9h11.8l-9.4,7.1c-1.4,1-2.2,2.6-2.3,4.3c-0.1,1.7,0.5,3.4,1.7,4.6l5.9,5.9c1.1,1.1,2.6,1.7,4.2,1.7
		c0.1,0,0.3,0,0.4,0c1.7-0.1,3.3-1,4.3-2.3l1.5-2c-0.2,3.4-0.4,6.9-0.4,10.3c0,57.1,53,94,135.1,94c77.3,0,123.4-41.7,123.4-111.6
		C392.3,227.3,356.7,179.5,307.3,160z"/>
	<path class="st15" d="M351.2,268.8c0,2.8-0.5,5.6-1.6,8.2c-7.4-1.6-14.8-2.2-22-2c0-0.1,0.1-0.2,0.1-0.3c0-3.2-2.6-5.9-5.9-5.9
		c-3.2,0-5.9,2.6-5.9,5.9c0,0,0,0,0,0c-0.9,0-1.8,0.2-2.6,0.6c-1.4,0.7-5.5,2.8-10.8,5.9c-10.3-1-21.1-0.6-32,1.7
		c-1-2.7-1.6-5.4-1.6-8.2c0-8.2,4.4-15.4,11.3-19.7l33.5,13.4c0.7,0.3,1.4,0.4,2.2,0.4c0.6,0,1.3-0.1,1.9-0.3l30.5-10.2
		C350,261.6,351.2,265.1,351.2,268.8z"/>
	<path class="st16" d="M277.8,315.2c5.7-7.5,19.2-18.3,38.3-28.2c7.1,3.6,28,15.4,37.2,35c-1.6-0.6-6.1-2-6.7-2
		C323.6,314.1,293,314.5,277.8,315.2z"/>
	<path class="st17" d="M316,293c6.2,3.1,22.7,12.5,33,27.7c1.5,0.5,3.3,1,4.2,1.3c-9.2-19.5-30.1-31.4-37.2-35
		c-19,9.8-32.6,20.6-38.3,28.2c1.7-0.1,3.6-0.1,5.7-0.2C290.5,308.3,301.7,300.4,316,293z"/>
	<path class="st16" d="M335.6,329.6c-6.5,6.7-17.5,14.8-25.7,20.4c-13.5-8-25.7-17-31.5-23.1C293.6,326.2,316.9,326.3,335.6,329.6z"
		/>
	<path class="st18" d="M330.1,334.7c2-1.7,3.9-3.4,5.4-5c-18.7-3.3-42-3.4-57.2-2.7c1.6,1.7,3.8,3.6,6.3,5.6
		C297.9,332.2,315.1,332.5,330.1,334.7z"/>
	<g>
		<path class="st19" d="M268.9,374.5c-56.9,0-123.4-21.5-123.4-82.3c0-48.9,24.7-106.1,79.9-123.7c2.8-0.9,5-3.6,4.5-6.4
			c-0.4-2.9-2.4-4.9-5.3-4.9c-29.8-5.8-32.1-11.8-32.1-11.8c0-1.6,4.2-5.3,41.4-5.8c7.2,11.1,19.8,21.2,32,28.2
			c2.8,1.6,6.4,0.7,8-2.1c1.6-2.8,0.7-6.4-2.1-8c-19-11-32.3-25.7-32.3-35.8c0-4.7,3.2-5.8,5.9-5.9c13,0,44.6,25.7,51.6,50
			c0.5,1.9,2,3,3.7,3.6l-0.1,0.3c27.1,10,50.2,30,64.5,53.6L316,250.3l-50-27.8c-1.4-0.8-3.1-0.9-4.6-0.5c-1.5,0.5-2.8,1.5-3.5,3
			l-5.9,11.8c-0.7,1.5-0.8,3.2-0.2,4.7c0.6,1.5,1.8,2.8,3.3,3.4l12.5,5c-6.5,6.5-10.4,15.3-10.4,24.8c0,6.2,1.8,12.4,5.1,18
			c1.1,1.8,3,2.9,5,2.9c0.5,0,1-0.1,1.4-0.2c5.4-1.4,10.8-2.2,16.2-2.6c-11.4,8.5-21.8,19-21.8,28.9c0,13.7,30.8,32.8,44.1,40.4
			c0.9,0.5,1.9,0.8,2.9,0.8c1.1,0,2.2-0.3,3.2-0.9c2.9-1.8,25.7-16.8,35.1-29.1c4.4,1.5,8.2,3.2,11,5.4c0.3,0.3,0.8,0.2,1.1,0.4
			C341.9,361.8,310.7,374.5,268.9,374.5z"/>
		<path class="st19" d="M367.7,328c-4.7-18.7-17.9-32.3-29.6-41c4.4,0.5,8.8,1.3,13.3,2.5c0.5,0.1,1,0.2,1.4,0.2c2,0,4-1.1,5-2.9
			c3.3-5.5,5.1-11.8,5.1-18c0-5-1.2-9.8-3.2-14.3l16.8-5.6c2.6,8.5,4,17.2,4,25.8C380.6,295.5,376.1,313.3,367.7,328z"/>
	</g>
	<g>
		<path class="st17" d="M263.1,255.4c1.3-2,2.8-3.8,4.5-5.5l-4.5-1.8l4.1,1.8C265.6,251.6,264.3,253.4,263.1,255.4z"/>
		<path class="st17" d="M263.6,221.8c-0.2,0-0.4,0.1-0.6,0.1C263.2,221.9,263.4,221.8,263.6,221.8z"/>
		<path class="st17" d="M265.7,167.9c0.7,0.5,1.6,0.7,2.4,0.7c-0.7-0.1-1.5-0.3-2.1-0.7c-1-0.6-1.9-1.3-2.9-1.9
			C263.9,166.6,264.8,167.3,265.7,167.9z"/>
		<path class="st17" d="M266.9,295.5c0.1,0,0.2,0,0.2,0c-1.6,0-3-0.8-4.1-2C264.1,294.7,265.4,295.5,266.9,295.5z"/>
		<path class="st17" d="M284.9,292.7c-0.7,0.1-1.4,0.2-2.1,0.2c-10.4,8.5-19.8,18.9-19.8,28.7C263.1,311.7,273.5,301.2,284.9,292.7z
			"/>
	</g>
	<circle class="st14" cx="292.4" cy="274.7" r="5.9"/>
	
		<linearGradient id="SVGID_3_" gradientUnits="userSpaceOnUse" x1="-2255.7427" y1="3079.2068" x2="-2251.9976" y2="3075.4604" gradientTransform="matrix(10.8333 0 0 -10.8333 24735.7852 33677.8867)">
		<stop  offset="0" style="stop-color:#000000;stop-opacity:0.1"/>
		<stop  offset="1" style="stop-color:#000000;stop-opacity:0"/>
	</linearGradient>
	<path class="st20" d="M348.4,332.8c-9.4,12.3-32.3,27.3-35.1,29.1c-1,0.6-2.1,0.9-3.2,0.9c-1,0-2-0.3-2.9-0.8
		c-7.4-4.2-20.2-12-30.1-20.5l28.9,28.9c23.5-5.4,42-16.2,54.6-32c-0.4-0.2-0.8-0.2-1.1-0.4C356.6,336,352.8,334.2,348.4,332.8z"/>
	<path class="st18" d="M146.5,304.2c8.2,51.6,69.4,70.3,122.4,70.3c41.8,0,72.9-12.7,91.6-36c-0.4-0.2-0.8-0.2-1.1-0.4
		c-2.9-2.1-6.6-3.9-11-5.4c-9.4,12.3-32.3,27.3-35.1,29.1c-1,0.6-2.1,0.9-3.2,0.9c-1,0-2-0.3-2.9-0.8c-8.4-4.8-23.9-14.3-34.1-24.1
		c-6.9,0.8-14.1,1.3-21.7,1.3C203.9,339.3,167.2,326.4,146.5,304.2z"/>
	<path class="st18" d="M362.9,268.8c0,6.2-1.8,12.4-5.1,18c-1.1,1.8-3,2.9-5,2.9c-0.3,0-0.6-0.1-0.9-0.1c-1.1,2.1-2.3,4.2-3.6,6.2
		c8.4,8.2,16.1,18.9,19.4,32.3c8.4-14.7,12.9-32.5,12.9-53.3c0-8.6-1.4-17.2-4-25.8l-14.4,4.8c-0.2,1.9-0.4,3.8-0.7,5.6
		C362.3,262.4,362.9,265.5,362.9,268.8z"/>
	
		<linearGradient id="SVGID_4_" gradientUnits="userSpaceOnUse" x1="-2271.0952" y1="3090.5752" x2="-2247.5952" y2="3079.6174" gradientTransform="matrix(10.8333 0 0 -10.8333 24735.7852 33677.8867)">
		<stop  offset="0" style="stop-color:#FFFFFF;stop-opacity:0.2"/>
		<stop  offset="1" style="stop-color:#FFFFFF;stop-opacity:0"/>
	</linearGradient>
	<path class="st21" d="M307.3,160c-9.5-27.4-43.5-55.7-61.9-55.7c-7.1,0-17.6,4.7-17.6,17.6c0,2,0.3,4,0.8,6
		c-27.6,0.5-47.8,3-47.8,17.5c0,8,7.5,14.1,23.8,19c-28,14.2-47.1,38.5-58.4,65.7l-0.7-3.6c-0.4-2.1-2-3.8-4.1-4.5
		c-2-0.6-4.3-0.1-5.9,1.5l-5.9,5.9c-1.8,1.8-2.2,4.5-1.1,6.8l4.8,9.7l-15-6c-1.8-0.7-3.9-0.5-5.5,0.6c-1.6,1.1-2.6,2.9-2.6,4.9V257
		c0,3.2,2.6,5.9,5.9,5.9h11.8l-9.4,7.1c-1.4,1-2.2,2.6-2.3,4.3c-0.1,1.7,0.5,3.4,1.7,4.6l5.9,5.9c1.1,1.1,2.6,1.7,4.2,1.7
		c0.1,0,0.3,0,0.4,0c1.7-0.1,3.3-1,4.3-2.3l1.5-2c-0.2,3.4-0.4,6.9-0.4,10.3c0,57.1,53,94,135.1,94c77.3,0,123.4-41.7,123.4-111.6
		C392.3,227.3,356.7,179.5,307.3,160z"/>
</g>
</svg>
