<?xml version="1.0" encoding="utf-8"?>
<!-- Generator: Adobe Illustrator 24.0.1, SVG Export Plug-In . SVG Version: 6.00 Build 0)  -->
<svg version="1.1" id="Layer_1" xmlns="http://www.w3.org/2000/svg" xmlns:xlink="http://www.w3.org/1999/xlink" x="0px" y="0px"
	 viewBox="0 0 512 512" style="enable-background:new 0 0 512 512;" xml:space="preserve">
<style type="text/css">
	.st0{display:none;}
	.st1{display:inline;fill:#200A7F;stroke:#18E5EA;stroke-width:20;stroke-miterlimit:10;}
	.st2{display:inline;fill:#EF0B79;}
	.st3{display:inline;fill:#18E5EA;}
	.st4{display:inline;}
	.st5{fill:#E9F21C;}
	.st6{display:inline;fill:none;}
	.st7{display:inline;fill:#EF3A24;}
	.st8{font-family:'MyriadPro-Regular';}
	.st9{font-size:250px;}
	.st10{display:inline;fill:#FFFFFF;}
	.st11{fill:#C4C6C8;}
	.st12{fill:url(#SVGID_1_);}
	.st13{fill:url(#SVGID_3_);stroke:#E8E8E8;stroke-width:3;stroke-miterlimit:10;}
	.st14{fill:#F7F9E1;stroke:#421A0D;stroke-miterlimit:10;}
	.st15{filter:url(#Adobe_OpacityMaskFilter);}
	.st16{mask:url(#SVGID_2_);}
	.st17{stroke:#421A0D;stroke-miterlimit:10;}
</style>
<g id="Layer_3" class="st0">
	<path class="st1" d="M401.1,212.2c5.1,15.3,7.9,31.7,7.9,48.8c0,85.3-69.2,154.5-154.5,154.5S100,346.3,100,261
		s69.2-154.5,154.5-154.5c51.2,0,96.6,24.9,124.7,63.3"/>
	<path class="st2" d="M333.4,255.2c0,4.2-3.3,7.7-7.4,7.7H174.9c-4.1,0-7.4-3.4-7.4-7.7l0,0c0-4.2,3.3-7.7,7.4-7.7H326
		C330.1,247.5,333.4,250.9,333.4,255.2L333.4,255.2z"/>
	<path class="st2" d="M333.4,284.8c0,4.2-3.3,7.6-7.4,7.6H174.9c-4.1,0-7.4-3.4-7.4-7.6l0,0c0-4.2,3.3-7.6,7.4-7.6H326
		C330.1,277.1,333.4,280.6,333.4,284.8L333.4,284.8z"/>
	<path class="st2" d="M333.4,313c0,4.2-3.3,7.7-7.4,7.7H174.9c-4.1,0-7.4-3.4-7.4-7.7l0,0c0-4.2,3.3-7.6,7.4-7.6H326
		C330.1,305.4,333.4,308.8,333.4,313L333.4,313z"/>
	<path class="st2" d="M333.4,338.4c0,4.2-3.3,7.7-7.4,7.7H174.9c-4.1,0-7.4-3.4-7.4-7.7l0,0c0-4.2,3.3-7.6,7.4-7.6H326
		C330.1,330.7,333.4,334.1,333.4,338.4L333.4,338.4z"/>
	<polygon class="st3" points="395,191.5 320.2,165.2 380.4,113.5 	"/>
	<g class="st4">
		<g>
			<g>
				<path class="st5" d="M241.5,239.2c-2.3,0-4.4-1.1-5.8-2.9l-18.8-24.8c-2.4-3.2-1.8-7.8,1.4-10.3c3.2-2.4,7.8-1.8,10.3,1.4
					l12.3,16.3l31-49.8c2.1-3.4,6.6-4.5,10.1-2.3c3.4,2.1,4.5,6.6,2.3,10.1l-36.7,58.9c-1.3,2-3.5,3.3-5.9,3.4
					C241.7,239.2,241.6,239.2,241.5,239.2z"/>
			</g>
		</g>
	</g>
</g>
<g id="Layer_2_2_" class="st0">
	<rect x="121" y="171.5" class="st6" width="298" height="251"/>
	<text transform="matrix(1 0 0 1 121 348.9979)" class="st7 st8 st9">24</text>
	<circle class="st10" cx="138.3" cy="91.8" r="17.3"/>
	<circle class="st10" cx="185.3" cy="91.8" r="17.3"/>
	<circle class="st10" cx="232.3" cy="91.8" r="17.3"/>
	<circle class="st10" cx="278.3" cy="91.8" r="17.3"/>
	<circle class="st10" cx="323.3" cy="91.8" r="17.3"/>
	<circle class="st10" cx="368.3" cy="91.8" r="17.3"/>
</g>
<g>
	<path class="st11" d="M350.3,54.5H161.7c-17.9,0-34.5,9.6-43.4,25.1L24,242.9c-9,15.5-9,34.6,0,50.2l94.3,163.3
		c9,15.5,25.5,25.1,43.4,25.1h188.5c17.9,0,34.5-9.6,43.4-25.1L488,293.1c9-15.5,9-34.6,0-50.2L393.7,79.6
		C384.8,64.1,368.2,54.5,350.3,54.5z"/>
</g>
<g>
	
		<linearGradient id="SVGID_1_" gradientUnits="userSpaceOnUse" x1="18.15" y1="5409.9502" x2="495.6125" y2="5409.9502" gradientTransform="matrix(1 0 0 1 0 -5156.0005)">
		<stop  offset="3.932600e-02" style="stop-color:#7C9CBD"/>
		<stop  offset="5.673847e-02" style="stop-color:#7498BA"/>
		<stop  offset="0.257" style="stop-color:#21719F"/>
		<stop  offset="0.3483" style="stop-color:#006194"/>
		<stop  offset="0.4534" style="stop-color:#16639A"/>
		<stop  offset="0.5843" style="stop-color:#3666A2"/>
		<stop  offset="0.7027" style="stop-color:#4C75A8"/>
		<stop  offset="0.7753" style="stop-color:#5B7FAD"/>
		<stop  offset="0.8609" style="stop-color:#3F6696"/>
		<stop  offset="0.9719" style="stop-color:#1E497B"/>
	</linearGradient>
	<path class="st12" d="M491.1,274.8c-0.7,1.4-1.4,2.9-2.2,4.3l-94.3,163.3c-0.5,1-1.1,1.9-1.7,2.8c-8.3,12.4-21.7,20.5-36.5,22
		c-1.7,0.2-3.4,0.3-5.2,0.3H162.6c-17.9,0-34.5-9.6-43.5-25.1l-15.3-26.6l-70.4-122L24.9,279c-9-15.5-9-34.6,0-50.2l6.5-11.3
		l22.3-38.6l65.5-113.4c9-15.5,25.5-25.1,43.5-25.1h188.5c17.9,0,34.5,9.6,43.5,25.1l20.7,35.9l6.3,10.9l25.3,43.8l2.4,4.2l5.5,9.6
		l7,12l27.1,47c1.2,2,2.2,4.1,3,6.2C497.1,247.9,496.8,262.3,491.1,274.8z"/>
	
		<linearGradient id="SVGID_3_" gradientUnits="userSpaceOnUse" x1="18.15" y1="259.3414" x2="495.6125" y2="259.3414" gradientTransform="matrix(1 0 0 -1 0 513.2912)">
		<stop  offset="3.932600e-02" style="stop-color:#7C9CBD"/>
		<stop  offset="5.673847e-02" style="stop-color:#7498BA"/>
		<stop  offset="0.257" style="stop-color:#21719F"/>
		<stop  offset="0.3483" style="stop-color:#006194"/>
		<stop  offset="0.4534" style="stop-color:#16639A"/>
		<stop  offset="0.5843" style="stop-color:#3666A2"/>
		<stop  offset="0.7027" style="stop-color:#4C75A8"/>
		<stop  offset="0.7753" style="stop-color:#5B7FAD"/>
		<stop  offset="0.8609" style="stop-color:#3F6696"/>
		<stop  offset="0.9719" style="stop-color:#1E497B"/>
	</linearGradient>
	<path class="st13" d="M491.1,274.8c-0.7,1.4-1.4,2.9-2.2,4.3l-94.3,163.3c-0.5,1-1.1,1.9-1.7,2.8c-8.3,12.4-21.7,20.5-36.5,22
		c-1.7,0.2-3.4,0.3-5.2,0.3H162.6c-17.9,0-34.5-9.6-43.5-25.1l-15.3-26.6l-70.4-122L24.9,279c-9-15.5-9-34.6,0-50.2l6.5-11.3
		l22.3-38.6l65.5-113.4c9-15.5,25.5-25.1,43.5-25.1h188.5c17.9,0,34.5,9.6,43.5,25.1l20.7,35.9l6.3,10.9l25.3,43.8l2.4,4.2l5.5,9.6
		l7,12l27.1,47c1.2,2,2.2,4.1,3,6.2C497.1,247.9,496.8,262.3,491.1,274.8z"/>
</g>
<g>
	<g>
		<g>
			<path class="st14" d="M496.3,272.6c-41.8,22.5-45.8-18.5-45.8-18.5c-34.6-4-60.3-42.7-60.3-42.7c-46.7,24.1-20.7,92.2-0.5,118.4
				c25.9,33.5,6.9,87.7,6.9,87.7S291,409,237.1,341.3c-40.4-50.8-30-98.8-18.5-130.5c13.9-38.1,32.6-59,59.9-81.2
				c40.6-33.1,115.6-37.2,115.6-37.2c0.5-2.8,2.8-6.1,5.7-9.5c-9,0.2-20.1,1-32.6,2.6c-8.6,1.7-18,2.6-27.6,5.4
				c-9.8,2.1-19.8,5.5-29.9,9.4c-10.2,3.8-20.2,9.2-30,14.8c-9.4,6.5-19.3,12.6-27.2,21.2c-9,7.4-15.6,16.9-22.4,26.1
				c-7.1,9-10.5,20-15.8,29.4c-3.9,10.1-6.1,20.5-9.1,30c-2.7,9.6-2.6,19.2-4,27.8c-1.1,8.7-2,16.6-1.4,23.7
				c0.2,7.1,0.4,13.3,0.5,18.4c0.3,10.2,0.5,16,0.5,16l-1.4,0.1c0,0-1.2-5.7-2.8-16c-0.8-5.1-1.7-11.4-2.7-18.6
				c-1.5-7.2-1.6-15.4-0.9-24.4c0.5-6.5,0.6-13.5,1.2-20.8l-16.9-0.4l17.3-21.2l-18.2-2.6l26-19.9l-19.1-6.1l26.9-14.7l-20.4-6.1
				l35.1-11.3l-24.3-6.9l39.4-10.8l-21.6-9.9l39.8-5.2l-19.5-11.3l48.6-5.1c0.2-0.1,0.5-0.2,0.7-0.3l-22.5-10.2l51.1-4.3l-23.4-12.1
				l96.7,7.7c5.2,0.2,9.8,0.6,13.9,1.1c12.4-11.9,31.9-24,31.9-24c-4,4-5.6,25.8-5.6,25.8c4-7.3,16.9-14.5,16.9-14.5
				c-7.2,16.9,0,53.1,0,53.1c20.9,21,44.3,93.4,44.3,93.4l8.9,12.9C511.6,241.2,507.5,266.6,496.3,272.6z"/>
		</g>
	</g>
	<defs>
		<filter id="Adobe_OpacityMaskFilter" filterUnits="userSpaceOnUse" x="175.2" y="51.8" width="332.3" height="366.3">
			<feColorMatrix  type="matrix" values="1 0 0 0 0  0 1 0 0 0  0 0 1 0 0  0 0 0 1 0"/>
		</filter>
	</defs>
	<mask maskUnits="userSpaceOnUse" x="175.2" y="51.8" width="332.3" height="366.3" id="SVGID_2_">
		<g class="st15">
		</g>
	</mask>
	<g class="st16">
		<g>
			<path class="st17" d="M496.3,272.6c-41.8,22.5-45.8-18.5-45.8-18.5c-34.6-4-60.3-42.7-60.3-42.7c-46.7,24.1-20.7,92.2-0.5,118.4
				c25.9,33.5,6.9,87.7,6.9,87.7S291,409,237.1,341.3c-40.4-50.8-30-98.8-18.5-130.5c13.9-38.1,32.6-59,59.9-81.2
				c40.6-33.1,115.6-37.2,115.6-37.2c0.5-2.8,2.8-6.1,5.7-9.5c-9,0.2-20.1,1-32.6,2.6c-8.6,1.7-18,2.6-27.6,5.4
				c-9.8,2.1-19.8,5.5-29.9,9.4c-10.2,3.8-20.2,9.2-30,14.8c-9.4,6.5-19.3,12.6-27.2,21.2c-9,7.4-15.6,16.9-22.4,26.1
				c-7.1,9-10.5,20-15.8,29.4c-3.9,10.1-6.1,20.5-9.1,30c-2.7,9.6-2.6,19.2-4,27.8c-1.1,8.7-2,16.6-1.4,23.7
				c0.2,7.1,0.4,13.3,0.5,18.4c0.3,10.2,0.5,16,0.5,16l-1.4,0.1c0,0-1.2-5.7-2.8-16c-0.8-5.1-1.7-11.4-2.7-18.6
				c-1.5-7.2-1.6-15.4-0.9-24.4c0.5-6.5,0.6-13.5,1.2-20.8l-16.9-0.4l17.3-21.2l-18.2-2.6l26-19.9l-19.1-6.1l26.9-14.7l-20.4-6.1
				l35.1-11.3l-24.3-6.9l39.4-10.8l-21.6-9.9l39.8-5.2l-19.5-11.3l48.6-5.1c0.2-0.1,0.5-0.2,0.7-0.3l-22.5-10.2l51.1-4.3l-23.4-12.1
				l96.7,7.7c5.2,0.2,9.8,0.6,13.9,1.1c12.4-11.9,31.9-24,31.9-24c-4,4-5.6,25.8-5.6,25.8c4-7.3,16.9-14.5,16.9-14.5
				c-7.2,16.9,0,53.1,0,53.1c20.9,21,44.3,93.4,44.3,93.4l8.9,12.9C511.6,241.2,507.5,266.6,496.3,272.6z"/>
		</g>
	</g>
</g>
</svg>
