<?xml version="1.0" encoding="utf-8"?>
<!-- Generator: Adobe Illustrator 24.0.1, SVG Export Plug-In . SVG Version: 6.00 Build 0)  -->
<svg version="1.1" id="Layer_1" xmlns="http://www.w3.org/2000/svg" xmlns:xlink="http://www.w3.org/1999/xlink" x="0px" y="0px"
	 viewBox="0 0 512 512" style="enable-background:new 0 0 512 512;" xml:space="preserve">
<style type="text/css">
	.st0{display:none;}
	.st1{display:inline;fill:#200A7F;stroke:#18E5EA;stroke-width:20;stroke-miterlimit:10;}
	.st2{display:inline;fill:#EF0B79;}
	.st3{display:inline;fill:#18E5EA;}
	.st4{display:inline;}
	.st5{fill:#E9F21C;}
	.st6{display:inline;fill:none;}
	.st7{display:inline;fill:#EF3A24;}
	.st8{font-family:'MyriadPro-Regular';}
	.st9{font-size:250px;}
	.st10{display:inline;fill:#FFFFFF;}
	.st11{fill:#C4C6C8;}
	.st12{fill:url(#SVGID_1_);}
	.st13{fill:url(#SVGID_2_);stroke:#E8E8E8;stroke-width:3;stroke-miterlimit:10;}
	.st14{fill:#00D8E0;}
	.st15{fill:#00ACB3;}
	.st16{fill:#FEF4F5;}
	.st17{fill:#54E360;}
	.st18{fill:#00AB5E;}
	.st19{fill:#D5EDED;}
</style>
<g id="Layer_3" class="st0">
	<path class="st1" d="M401.1,212.2c5.1,15.3,7.9,31.7,7.9,48.8c0,85.3-69.2,154.5-154.5,154.5S100,346.3,100,261
		s69.2-154.5,154.5-154.5c51.2,0,96.6,24.9,124.7,63.3"/>
	<path class="st2" d="M333.4,255.2c0,4.2-3.3,7.7-7.4,7.7H174.9c-4.1,0-7.4-3.4-7.4-7.7l0,0c0-4.2,3.3-7.7,7.4-7.7H326
		C330.1,247.5,333.4,250.9,333.4,255.2L333.4,255.2z"/>
	<path class="st2" d="M333.4,284.8c0,4.2-3.3,7.6-7.4,7.6H174.9c-4.1,0-7.4-3.4-7.4-7.6l0,0c0-4.2,3.3-7.6,7.4-7.6H326
		C330.1,277.1,333.4,280.6,333.4,284.8L333.4,284.8z"/>
	<path class="st2" d="M333.4,313c0,4.2-3.3,7.7-7.4,7.7H174.9c-4.1,0-7.4-3.4-7.4-7.7l0,0c0-4.2,3.3-7.6,7.4-7.6H326
		C330.1,305.4,333.4,308.8,333.4,313L333.4,313z"/>
	<path class="st2" d="M333.4,338.4c0,4.2-3.3,7.7-7.4,7.7H174.9c-4.1,0-7.4-3.4-7.4-7.7l0,0c0-4.2,3.3-7.6,7.4-7.6H326
		C330.1,330.7,333.4,334.1,333.4,338.4L333.4,338.4z"/>
	<polygon class="st3" points="395,191.5 320.2,165.2 380.4,113.5 	"/>
	<g class="st4">
		<g>
			<g>
				<path class="st5" d="M241.5,239.2c-2.3,0-4.4-1.1-5.8-2.9l-18.8-24.8c-2.4-3.2-1.8-7.8,1.4-10.3c3.2-2.4,7.8-1.8,10.3,1.4
					l12.3,16.3l31-49.8c2.1-3.4,6.6-4.5,10.1-2.3c3.4,2.1,4.5,6.6,2.3,10.1l-36.7,58.9c-1.3,2-3.5,3.3-5.9,3.4
					C241.7,239.2,241.6,239.2,241.5,239.2z"/>
			</g>
		</g>
	</g>
</g>
<g id="Layer_2_2_" class="st0">
	<rect x="121" y="171.5" class="st6" width="298" height="251"/>
	<text transform="matrix(1 0 0 1 121 348.9979)" class="st7 st8 st9">24</text>
	<circle class="st10" cx="138.3" cy="91.8" r="17.3"/>
	<circle class="st10" cx="185.3" cy="91.8" r="17.3"/>
	<circle class="st10" cx="232.3" cy="91.8" r="17.3"/>
	<circle class="st10" cx="278.3" cy="91.8" r="17.3"/>
	<circle class="st10" cx="323.3" cy="91.8" r="17.3"/>
	<circle class="st10" cx="368.3" cy="91.8" r="17.3"/>
</g>
<g>
	<path class="st11" d="M350.3,54.5H161.7c-17.9,0-34.5,9.6-43.4,25.1L24,242.9c-9,15.5-9,34.6,0,50.2l94.3,163.3
		c9,15.5,25.5,25.1,43.4,25.1h188.5c17.9,0,34.5-9.6,43.4-25.1L488,293.1c9-15.5,9-34.6,0-50.2L393.7,79.6
		C384.8,64.1,368.2,54.5,350.3,54.5z"/>
</g>
<g>
	<linearGradient id="SVGID_1_" gradientUnits="userSpaceOnUse" x1="18.15" y1="253.95" x2="495.6125" y2="253.95">
		<stop  offset="0" style="stop-color:#F074AC"/>
		<stop  offset="0.5" style="stop-color:#EB008B"/>
		<stop  offset="1" style="stop-color:#CD118C"/>
	</linearGradient>
	<path class="st12" d="M491.1,274.8c-0.7,1.4-1.4,2.9-2.2,4.3l-75.8,131.3l0,0l-3.6,6.2c0,0,0,0,0,0l-14.9,25.8
		c-0.5,1-1.1,1.9-1.7,2.8c-6,8.9-14.6,15.6-24.5,19.3c-3.8,1.4-7.8,2.3-12,2.8c-1.7,0.2-3.4,0.3-5.2,0.3H162.6
		c-17.9,0-34.5-9.6-43.5-25.1l-15.3-26.6L34,294.8l-0.6-1L24.9,279c-9-15.5-9-34.6,0-50.2l6.5-11.3l22.3-38.6l65.5-113.4
		c8.6-14.9,24.2-24.3,41.4-25c0.7,0,1.4,0,2.1,0h188.5c17.9,0,34.5,9.6,43.5,25.1l20.7,35.9l6.3,10.9l25.3,43.8l2.4,4.2l5.5,9.6
		l7,12l16.5,28.7l10.6,18.3c1.2,2,2.2,4.1,3,6.2C497.1,247.9,496.8,262.3,491.1,274.8z"/>
	<linearGradient id="SVGID_2_" gradientUnits="userSpaceOnUse" x1="18.15" y1="253.95" x2="495.6125" y2="253.95">
		<stop  offset="0" style="stop-color:#F074AC"/>
		<stop  offset="0.5" style="stop-color:#EB008B"/>
		<stop  offset="1" style="stop-color:#CD118C"/>
	</linearGradient>
	<path class="st13" d="M491.1,274.8c-0.7,1.4-1.4,2.9-2.2,4.3l-75.8,131.3l0,0l-3.6,6.2c0,0,0,0,0,0l-14.9,25.8
		c-0.5,1-1.1,1.9-1.7,2.8c-6,8.9-14.6,15.6-24.5,19.3c-3.8,1.4-7.8,2.3-12,2.8c-1.7,0.2-3.4,0.3-5.2,0.3H162.6
		c-17.9,0-34.5-9.6-43.5-25.1l-15.3-26.6L34,294.8l-0.6-1L24.9,279c-9-15.5-9-34.6,0-50.2l6.5-11.3l22.3-38.6l65.5-113.4
		c8.6-14.9,24.2-24.3,41.4-25c0.7,0,1.4,0,2.1,0h188.5c17.9,0,34.5,9.6,43.5,25.1l20.7,35.9l6.3,10.9l25.3,43.8l2.4,4.2l5.5,9.6
		l7,12l16.5,28.7l10.6,18.3c1.2,2,2.2,4.1,3,6.2C497.1,247.9,496.8,262.3,491.1,274.8z"/>
</g>
<path class="st14" d="M367.3,95.3c0,4.8-2.3,9.4-6.3,12.2l-50,35.7v80.7c0,8.3-6.7,15-15,15c-4.1,0-7.9-1.7-10.6-4.4l-43,43.1
	c2.7,2.7,4.4,6.5,4.4,10.6c0,8.3-6.7,15-15,15H63.1c-10.7,0-20.7-3.1-29.1-8.3l-0.6-1L24.9,279c-9-15.5-9-34.6,0-50.2l6.5-11.3
	l22.3-38.6l65.5-113.4c8.6-14.9,24.2-24.3,41.4-25c0.7,0,1.4,0,2.1,0h146.4c0.6,2.2,1.1,4.4,1.4,6.6L361,83.1
	C365,85.9,367.3,90.5,367.3,95.3z"/>
<path class="st15" d="M367.3,95.3c0,4.8-2.3,9.4-6.3,12.2l-50,35.7v80.7c0,8.3-6.7,15-15,15c-4.1,0-7.9-1.7-10.6-4.4l-43,43.1
	c2.7,2.7,4.4,6.5,4.4,10.6c0,8.3-6.7,15-15,15h-71.2V40.5c0.7,0,1.4,0,2.1,0h146.4c0.6,2.2,1.1,4.4,1.4,6.6L361,83.1
	C365,85.9,367.3,90.5,367.3,95.3z"/>
<path class="st16" d="M205.6,193.9c-12,0-23.2-3.3-32.8-9.1c11.6-12.5,19.3-28.6,21.2-46.5h11.7c4.7,0,8.5-3.8,8.5-8.5
	s-3.8-8.5-8.5-8.5H168v-20.5c0-4.7-3.8-8.5-8.5-8.5c-4.7,0-8.5,3.8-8.5,8.5v20.5h-37.6c-4.7,0-8.5,3.8-8.5,8.5s3.8,8.5,8.5,8.5h11.7
	c1.9,17.9,9.6,34,21.1,46.5c-9.6,5.8-20.8,9.1-32.8,9.1c-4.7,0-8.5,3.8-8.5,8.5s3.8,8.5,8.5,8.5c17.1,0,33-5.4,46.1-14.5
	c13.1,9.1,29,14.5,46.1,14.5c4.7,0,8.5-3.8,8.5-8.5S210.3,193.9,205.6,193.9z M176.9,138.3c-1.8,13.9-8.1,26.3-17.4,35.9
	c-9.3-9.6-15.5-22.1-17.4-35.9H176.9z"/>
<path class="st17" d="M491.1,274.8c-0.7,1.4-1.4,2.9-2.2,4.3l-75.8,131.3c0,0.1,0,0.1,0,0.2c0,0.1,0,0.3,0,0.4
	c0,2.2-1.5,4.2-3.6,5.7c0,0,0,0,0,0l-14.9,25.8c-0.5,1-1.1,1.9-1.7,2.8c-6,8.9-14.6,15.6-24.5,19.3c-3.8,1.4-7.8,2.3-12,2.8
	c-1.7,0.2-3.4,0.3-5.2,0.3H217.9c-0.2-0.8-0.3-1.7-0.4-2.5l-50.6-36.1c-3.9-2.8-6.3-7.4-6.3-12.2c0-4.8,2.3-9.4,6.3-12.2l50-35.7
	V264c0-30.4,24.7-55.2,55.2-55.2h192.8c4.7,0,9.3,0.6,13.7,1.7l10.6,18.3c1.2,2,2.2,4.1,3,6.2C497.1,247.9,496.8,262.3,491.1,274.8z
	"/>
<path class="st18" d="M491.1,274.8c-0.7,1.4-1.4,2.9-2.2,4.3l-75.8,131.3c0,0.1,0,0.1,0,0.2c0,0.1,0,0.3,0,0.4
	c0,2.2-1.5,4.2-3.6,5.7c0,0,0,0,0,0l-14.9,25.8c-0.5,1-1.1,1.9-1.7,2.8c-6,8.9-14.6,15.6-24.5,19.3V208.9h96.4
	c4.7,0,9.3,0.6,13.7,1.7l10.6,18.3c1.2,2,2.2,4.1,3,6.2C497.1,247.9,496.8,262.3,491.1,274.8z"/>
<path class="st16" d="M413.1,410.6c0,0,0-0.1,0-0.2c0-0.2-0.1-0.4-0.1-0.6c0-0.1-0.1-0.3-0.1-0.5l-31-101.1
	c-0.4-1.3-1.2-2.5-2.2-3.5c-0.2-0.2-0.5-0.4-0.7-0.6c0,0,0,0,0,0c-0.3-0.2-0.5-0.4-0.8-0.5c-1-0.6-2-1.1-3.2-1.5
	c-0.3-0.1-0.7-0.2-1-0.3c-0.3-0.1-0.6-0.1-0.9-0.2c-0.1,0-0.1,0-0.2,0c-0.7-0.1-1.4-0.3-2.1-0.3c-0.4,0-0.8-0.1-1.1-0.1
	c-0.4,0-0.8,0-1.1,0h-0.1c-6,0-11.9,2.3-13.3,7.1l-31,101.1c-0.2,0.6-0.3,1.3-0.3,1.6c0,5.1,7.5,8.7,13.2,8.7c3.5,0,6.3-1.1,7.1-4.2
	l6.1-21.4h36.8l6.1,21.4c0.8,3.1,3.5,4.2,7.1,4.2c3.1,0,6.8-1.1,9.5-3c0,0,0,0,0,0c2.2-1.5,3.6-3.5,3.6-5.7
	C413.1,410.8,413.1,410.7,413.1,410.6z M354.3,377.7l14-49.3l0.1,0.3l13.9,49H354.3z"/>
<g>
	<path class="st19" d="M205.6,138.3c4.7,0,8.5-3.8,8.5-8.5s-3.8-8.5-8.5-8.5H168v-20.5c0-4.3-3.2-7.9-7.4-8.4v45.8h16.3
		c-1.8,13.3-7.6,25.3-16.3,34.8v24c12.9,8.7,28.4,13.7,45,13.7c4.7,0,8.5-3.8,8.5-8.5s-3.8-8.5-8.5-8.5c-12,0-23.2-3.3-32.8-9.1
		c11.6-12.5,19.3-28.6,21.2-46.5H205.6z"/>
	<path class="st19" d="M413.1,411c0,2.2-1.5,4.2-3.6,5.7c0,0,0,0,0,0c-2.7,1.9-6.4,3-9.5,3c-3.5,0-6.3-1.1-7.1-4.2l-6.1-21.4h-18.4
		v-16.4h13.9l-13.9-49v-27.4c0.4,0,0.8,0,1.1,0c0.4,0,0.8,0,1.1,0.1c0.7,0.1,1.5,0.2,2.1,0.3c0.1,0,0.1,0,0.2,0
		c0.3,0.1,0.6,0.1,0.9,0.2c0.3,0.1,0.7,0.2,1,0.3c1.2,0.4,2.3,0.9,3.2,1.5c0.3,0.2,0.5,0.3,0.8,0.5c0,0,0,0,0,0
		c0.3,0.2,0.5,0.4,0.7,0.6c1,1,1.8,2.1,2.2,3.5l31,101.1c0,0.2,0.1,0.3,0.1,0.5c0.1,0.2,0.1,0.4,0.2,0.6c0,0.1,0,0.1,0,0.2
		C413.1,410.7,413.1,410.8,413.1,411z"/>
</g>
</svg>
