<?xml version="1.0" encoding="utf-8"?>
<!-- Generator: Adobe Illustrator 24.0.1, SVG Export Plug-In . SVG Version: 6.00 Build 0)  -->
<svg version="1.1" id="Layer_1" xmlns="http://www.w3.org/2000/svg" xmlns:xlink="http://www.w3.org/1999/xlink" x="0px" y="0px"
	 viewBox="0 0 512 512" style="enable-background:new 0 0 512 512;" xml:space="preserve">
<style type="text/css">
	.st0{display:none;}
	.st1{display:inline;fill:#200A7F;stroke:#18E5EA;stroke-width:20;stroke-miterlimit:10;}
	.st2{display:inline;fill:#EF0B79;}
	.st3{display:inline;fill:#18E5EA;}
	.st4{display:inline;}
	.st5{fill:#E9F21C;}
	.st6{display:inline;fill:none;}
	.st7{display:inline;fill:#EF3A24;}
	.st8{font-family:'MyriadPro-Regular';}
	.st9{font-size:250px;}
	.st10{display:inline;fill:#FFFFFF;}
	.st11{fill:#C4C6C8;}
	.st12{fill:url(#SVGID_1_);}
	.st13{fill:url(#SVGID_2_);stroke:#E8E8E8;stroke-width:3;stroke-miterlimit:10;}
	.st14{fill:#787780;}
	.st15{fill:#57555C;}
	.st16{fill:#3C3A41;}
	.st17{fill:#FD3018;}
	.st18{fill:#C1001F;}
</style>
<g id="Layer_3" class="st0">
	<path class="st1" d="M401.1,212.2c5.1,15.3,7.9,31.7,7.9,48.8c0,85.3-69.2,154.5-154.5,154.5S100,346.3,100,261
		s69.2-154.5,154.5-154.5c51.2,0,96.6,24.9,124.7,63.3"/>
	<path class="st2" d="M333.4,255.2c0,4.2-3.3,7.7-7.4,7.7H174.9c-4.1,0-7.4-3.4-7.4-7.7l0,0c0-4.2,3.3-7.7,7.4-7.7H326
		C330.1,247.5,333.4,250.9,333.4,255.2L333.4,255.2z"/>
	<path class="st2" d="M333.4,284.8c0,4.2-3.3,7.6-7.4,7.6H174.9c-4.1,0-7.4-3.4-7.4-7.6l0,0c0-4.2,3.3-7.6,7.4-7.6H326
		C330.1,277.1,333.4,280.6,333.4,284.8L333.4,284.8z"/>
	<path class="st2" d="M333.4,313c0,4.2-3.3,7.7-7.4,7.7H174.9c-4.1,0-7.4-3.4-7.4-7.7l0,0c0-4.2,3.3-7.6,7.4-7.6H326
		C330.1,305.4,333.4,308.8,333.4,313L333.4,313z"/>
	<path class="st2" d="M333.4,338.4c0,4.2-3.3,7.7-7.4,7.7H174.9c-4.1,0-7.4-3.4-7.4-7.7l0,0c0-4.2,3.3-7.6,7.4-7.6H326
		C330.1,330.7,333.4,334.1,333.4,338.4L333.4,338.4z"/>
	<polygon class="st3" points="395,191.5 320.2,165.2 380.4,113.5 	"/>
	<g class="st4">
		<g>
			<g>
				<path class="st5" d="M241.5,239.2c-2.3,0-4.4-1.1-5.8-2.9l-18.8-24.8c-2.4-3.2-1.8-7.8,1.4-10.3c3.2-2.4,7.8-1.8,10.3,1.4
					l12.3,16.3l31-49.8c2.1-3.4,6.6-4.5,10.1-2.3c3.4,2.1,4.5,6.6,2.3,10.1l-36.7,58.9c-1.3,2-3.5,3.3-5.9,3.4
					C241.7,239.2,241.6,239.2,241.5,239.2z"/>
			</g>
		</g>
	</g>
</g>
<g id="Layer_2_2_" class="st0">
	<rect x="121" y="171.5" class="st6" width="298" height="251"/>
	<text transform="matrix(1 0 0 1 121 348.9979)" class="st7 st8 st9">24</text>
	<circle class="st10" cx="138.3" cy="91.8" r="17.3"/>
	<circle class="st10" cx="185.3" cy="91.8" r="17.3"/>
	<circle class="st10" cx="232.3" cy="91.8" r="17.3"/>
	<circle class="st10" cx="278.3" cy="91.8" r="17.3"/>
	<circle class="st10" cx="323.3" cy="91.8" r="17.3"/>
	<circle class="st10" cx="368.3" cy="91.8" r="17.3"/>
</g>
<g>
	<path class="st11" d="M350.3,54.5H161.7c-17.9,0-34.5,9.6-43.4,25.1L24,242.9c-9,15.5-9,34.6,0,50.2l94.3,163.3
		c9,15.5,25.5,25.1,43.4,25.1h188.5c17.9,0,34.5-9.6,43.4-25.1L488,293.1c9-15.5,9-34.6,0-50.2L393.7,79.6
		C384.8,64.1,368.2,54.5,350.3,54.5z"/>
</g>
<g>
	<linearGradient id="SVGID_1_" gradientUnits="userSpaceOnUse" x1="18.15" y1="253.95" x2="495.6125" y2="253.95">
		<stop  offset="0" style="stop-color:#89A3B1"/>
		<stop  offset="0.5393" style="stop-color:#507282"/>
		<stop  offset="1" style="stop-color:#1E4554"/>
	</linearGradient>
	<path class="st12" d="M491.1,274.8c-0.7,1.4-1.4,2.9-2.2,4.3l-76.1,131.7l-18.2,31.6c-0.5,1-1.1,1.9-1.7,2.8
		c-8.3,12.4-21.7,20.5-36.5,22c-1.7,0.2-3.4,0.3-5.2,0.3H162.6c-17.9,0-34.5-9.6-43.5-25.1l-2.2-3.8l-13.1-22.8l-4-6.9L33.4,293.8
		l-2.4-4.3L24.9,279c-9-15.5-9-34.6,0-50.2l6.5-11.3l22.3-38.6l65.5-113.4c2-3.4,4.3-6.5,6.9-9.2c9.4-10,22.5-15.9,36.6-15.9h188.5
		c17.9,0,34.5,9.6,43.5,25.1l20.7,35.9l6.3,10.9l25.3,43.8l2.4,4.2l5.5,9.6l7,12l13.2,22.8l13.9,24.2c1.2,2,2.2,4.1,3,6.2
		C497.1,247.9,496.8,262.3,491.1,274.8z"/>
	<linearGradient id="SVGID_2_" gradientUnits="userSpaceOnUse" x1="18.15" y1="253.95" x2="495.6125" y2="253.95">
		<stop  offset="0" style="stop-color:#89A3B1"/>
		<stop  offset="0.5393" style="stop-color:#507282"/>
		<stop  offset="1" style="stop-color:#1E4554"/>
	</linearGradient>
	<path class="st13" d="M491.1,274.8c-0.7,1.4-1.4,2.9-2.2,4.3l-76.1,131.7l-18.2,31.6c-0.5,1-1.1,1.9-1.7,2.8
		c-8.3,12.4-21.7,20.5-36.5,22c-1.7,0.2-3.4,0.3-5.2,0.3H162.6c-17.9,0-34.5-9.6-43.5-25.1l-2.2-3.8l-13.1-22.8l-4-6.9L33.4,293.8
		l-2.4-4.3L24.9,279c-9-15.5-9-34.6,0-50.2l6.5-11.3l22.3-38.6l65.5-113.4c2-3.4,4.3-6.5,6.9-9.2c9.4-10,22.5-15.9,36.6-15.9h188.5
		c17.9,0,34.5,9.6,43.5,25.1l20.7,35.9l6.3,10.9l25.3,43.8l2.4,4.2l5.5,9.6l7,12l13.2,22.8l13.9,24.2c1.2,2,2.2,4.1,3,6.2
		C497.1,247.9,496.8,262.3,491.1,274.8z"/>
</g>
<path class="st14" d="M292.4,122c0,21-17.1,38.1-38.1,38.1s-38.1-17.1-38.1-38.1c0-4.3,3.4-7.6,7.6-7.6s7.6,3.4,7.6,7.6
	c0,12.6,10.2,22.9,22.9,22.9c12.6,0,22.9-10.2,22.9-22.9c0-4.3,3.4-7.6,7.6-7.6C289.1,114.4,292.4,117.8,292.4,122z"/>
<g>
	<path class="st15" d="M292.4,122c0,21-17.1,38.1-38.1,38.1v-15.2c12.6,0,22.9-10.2,22.9-22.9c0-4.3,3.4-7.6,7.6-7.6
		C289.1,114.4,292.4,117.8,292.4,122z"/>
	<path class="st15" d="M291.9,189.2c-0.6,3.8-4,6.4-7.6,6.4h-58.8c-4.1,0.6-8.1-2.1-8.8-6.4c-3.8-23.3,14.2-44.3,37.6-44.3
		C277.8,144.9,295.8,165.9,291.9,189.2z"/>
	<path class="st15" d="M174,232.2l-29.6-11.7c-1.8-0.7-3.2-2-4-3.7l-15.2-30.5c-1.9-3.8-0.4-8.3,3.4-10.2c3.8-1.9,8.3-0.4,10.2,3.4
		l13.9,27.9l26.9,10.6c3.9,1.5,5.8,6,4.3,9.9C182.3,231.9,177.8,233.8,174,232.2z"/>
</g>
<g>
	<path class="st16" d="M324.8,228c-1.5-3.9,0.4-8.3,4.3-9.9l26.9-10.6l13.9-27.9c1.9-3.8,6.5-5.3,10.2-3.4c3.8,1.9,5.3,6.5,3.4,10.2
		l-15.2,30.5c-0.8,1.7-2.3,3-4,3.7l-29.6,11.7C330.8,233.8,326.4,231.9,324.8,228z"/>
	<path class="st16" d="M291.9,189.2c-0.6,3.8-4,6.4-7.6,6.4h-30v-50.7C277.8,144.9,295.8,165.9,291.9,189.2z"/>
</g>
<g>
	<path class="st15" d="M288.1,345.2L261.8,227c-0.8-3.5-4-5.9-7.5-5.9c-3.5,0-6.7,2.4-7.5,5.9l-26.4,118c-0.8,3.7,1.2,7.5,4.7,8.8
		c9.1,3.5,19,5.3,29.1,5.3c9.9,0,19.7-1.7,28.9-5.2C286.9,352.6,288.9,348.8,288.1,345.2z"/>
	<path class="st15" d="M162.4,283h-30.5c-4.2,0-7.6-3.4-7.6-7.6c0-4.2,3.4-7.6,7.6-7.6h30.5c4.2,0,7.6,3.4,7.6,7.6
		C170,279.6,166.6,283,162.4,283z"/>
</g>
<path class="st16" d="M376.7,283h-30.5c-4.2,0-7.6-3.4-7.6-7.6c0-4.2,3.4-7.6,7.6-7.6h30.5c4.2,0,7.6,3.4,7.6,7.6
	C384.3,279.6,380.9,283,376.7,283z"/>
<path class="st15" d="M128.5,373.6c-3.8-1.9-5.3-6.5-3.4-10.2l15.2-30.5c0.8-1.7,2.3-3,4-3.7l29.6-11.7c3.9-1.5,8.3,0.4,9.9,4.3
	c1.5,3.9-0.4,8.3-4.3,9.9l-26.9,10.6l-13.9,27.9C136.9,373.9,132.4,375.5,128.5,373.6z"/>
<path class="st16" d="M369.9,370.2L356,342.4l-26.9-10.6c-3.9-1.5-5.8-6-4.3-9.9c1.6-3.9,6-5.8,9.9-4.3l29.6,11.7
	c1.8,0.7,3.2,2,4,3.7l15.2,30.5c1.9,3.8,0.4,8.3-3.4,10.2C376.3,375.5,371.7,373.9,369.9,370.2z"/>
<path class="st17" d="M353.3,275.4c0,42.4-26.8,80-66.9,93.7c-4.3,1.5-8.8-1.1-9.9-5.5l-22.2-99.2l-22.2,99.2
	c-1.1,4.6-5.8,7-9.9,5.5c-40.1-13.7-66.9-51.3-66.9-93.7c0-30.8,14.3-60,37.2-78.3h123.7C339,215.3,353.3,244.3,353.3,275.4z"/>
<path class="st16" d="M283.3,354c-9.3,3.5-19,5.2-28.9,5.2V221.1c3.5,0,6.7,2.4,7.5,5.9l26.4,118.2
	C288.9,348.8,286.9,352.6,283.3,354z"/>
<path class="st18" d="M353.3,275.4c0,42.4-26.8,80-66.9,93.7c-4.3,1.5-8.8-1.1-9.9-5.5l-22.2-99.2v-67.3h61.9
	C339,215.3,353.3,244.3,353.3,275.4z"/>
<path class="st14" d="M286.8,180.9c-10.7-3.7-21.5-5.5-32.4-5.5c-11,0-21.8,1.8-32.4,5.5c-10.8,3.7-21.8,9.8-29.4,16.3
	c11.1,23.5,35,39.2,61.9,39.2c27.3,0,50.9-15.8,61.9-39.2C307.6,190.3,297.3,184.4,286.8,180.9z"/>
<path class="st15" d="M316.2,197.2c-11,23.3-34.6,39.2-61.9,39.2v-60.9c11,0,21.8,1.8,32.4,5.5C297.3,184.4,307.6,190.3,316.2,197.2
	z"/>
<circle class="st16" cx="300" cy="260.2" r="7.6"/>
<circle class="st15" cx="208.6" cy="260.2" r="7.6"/>
<path class="st16" d="M307.6,313.5c-8.4,0-15.2-6.8-15.2-15.2s6.8-15.2,15.2-15.2c8.4,0,15.2,6.8,15.2,15.2S316,313.5,307.6,313.5z"
	/>
<path class="st15" d="M201,313.5c-8.4,0-15.2-6.8-15.2-15.2S192.6,283,201,283s15.2,6.8,15.2,15.2S209.4,313.5,201,313.5z"/>
</svg>
