<?xml version="1.0" encoding="utf-8"?>
<!-- Generator: Adobe Illustrator 24.0.1, SVG Export Plug-In . SVG Version: 6.00 Build 0)  -->
<svg version="1.1" id="Layer_1" xmlns="http://www.w3.org/2000/svg" xmlns:xlink="http://www.w3.org/1999/xlink" x="0px" y="0px"
	 viewBox="0 0 512 512" style="enable-background:new 0 0 512 512;" xml:space="preserve">
<style type="text/css">
	.st0{display:none;}
	.st1{display:inline;fill:#200A7F;stroke:#18E5EA;stroke-width:20;stroke-miterlimit:10;}
	.st2{display:inline;fill:#EF0B79;}
	.st3{display:inline;fill:#18E5EA;}
	.st4{display:inline;}
	.st5{fill:#E9F21C;}
	.st6{display:inline;fill:none;}
	.st7{display:inline;fill:#EF3A24;}
	.st8{font-family:'MyriadPro-Regular';}
	.st9{font-size:250px;}
	.st10{display:inline;fill:#FFFFFF;}
	.st11{fill:#C4C6C8;}
	.st12{fill:url(#SVGID_1_);}
	.st13{fill:url(#SVGID_2_);stroke:#E8E8E8;stroke-width:3;stroke-miterlimit:10;}
	.st14{fill:#EEFAFF;}
	.st15{fill:#DFF1F7;}
	.st16{fill:#C9EBFA;}
	.st17{fill:#A0DDF3;}
	.st18{fill:#548EB5;}
	.st19{fill:#447D99;}
	.st20{fill:#F37C7B;}
	.st21{fill:#EE6261;}
</style>
<g id="Layer_3" class="st0">
	<path class="st1" d="M401.1,212.2c5.1,15.3,7.9,31.7,7.9,48.8c0,85.3-69.2,154.5-154.5,154.5S100,346.3,100,261
		s69.2-154.5,154.5-154.5c51.2,0,96.6,24.9,124.7,63.3"/>
	<path class="st2" d="M333.4,255.2c0,4.2-3.3,7.7-7.4,7.7H174.9c-4.1,0-7.4-3.4-7.4-7.7l0,0c0-4.2,3.3-7.7,7.4-7.7H326
		C330.1,247.5,333.4,250.9,333.4,255.2L333.4,255.2z"/>
	<path class="st2" d="M333.4,284.8c0,4.2-3.3,7.6-7.4,7.6H174.9c-4.1,0-7.4-3.4-7.4-7.6l0,0c0-4.2,3.3-7.6,7.4-7.6H326
		C330.1,277.1,333.4,280.6,333.4,284.8L333.4,284.8z"/>
	<path class="st2" d="M333.4,313c0,4.2-3.3,7.7-7.4,7.7H174.9c-4.1,0-7.4-3.4-7.4-7.7l0,0c0-4.2,3.3-7.6,7.4-7.6H326
		C330.1,305.4,333.4,308.8,333.4,313L333.4,313z"/>
	<path class="st2" d="M333.4,338.4c0,4.2-3.3,7.7-7.4,7.7H174.9c-4.1,0-7.4-3.4-7.4-7.7l0,0c0-4.2,3.3-7.6,7.4-7.6H326
		C330.1,330.7,333.4,334.1,333.4,338.4L333.4,338.4z"/>
	<polygon class="st3" points="395,191.5 320.2,165.2 380.4,113.5 	"/>
	<g class="st4">
		<g>
			<g>
				<path class="st5" d="M241.5,239.2c-2.3,0-4.4-1.1-5.8-2.9l-18.8-24.8c-2.4-3.2-1.8-7.8,1.4-10.3c3.2-2.4,7.8-1.8,10.3,1.4
					l12.3,16.3l31-49.8c2.1-3.4,6.6-4.5,10.1-2.3c3.4,2.1,4.5,6.6,2.3,10.1l-36.7,58.9c-1.3,2-3.5,3.3-5.9,3.4
					C241.7,239.2,241.6,239.2,241.5,239.2z"/>
			</g>
		</g>
	</g>
</g>
<g id="Layer_2_2_" class="st0">
	<rect x="121" y="171.5" class="st6" width="298" height="251"/>
	<text transform="matrix(1 0 0 1 121 348.9979)" class="st7 st8 st9">24</text>
	<circle class="st10" cx="138.3" cy="91.8" r="17.3"/>
	<circle class="st10" cx="185.3" cy="91.8" r="17.3"/>
	<circle class="st10" cx="232.3" cy="91.8" r="17.3"/>
	<circle class="st10" cx="278.3" cy="91.8" r="17.3"/>
	<circle class="st10" cx="323.3" cy="91.8" r="17.3"/>
	<circle class="st10" cx="368.3" cy="91.8" r="17.3"/>
</g>
<g>
	<path class="st11" d="M350.3,54.5H161.7c-17.9,0-34.5,9.6-43.4,25.1L24,242.9c-9,15.5-9,34.6,0,50.2l94.3,163.3
		c9,15.5,25.5,25.1,43.4,25.1h188.5c17.9,0,34.5-9.6,43.4-25.1L488,293.1c9-15.5,9-34.6,0-50.2L393.7,79.6
		C384.8,64.1,368.2,54.5,350.3,54.5z"/>
</g>
<g>
	
		<radialGradient id="SVGID_1_" cx="256.8813" cy="-78.05" r="226.4908" gradientTransform="matrix(1 0 0 1 0 332)" gradientUnits="userSpaceOnUse">
		<stop  offset="5.618000e-03" style="stop-color:#D7F0FC"/>
		<stop  offset="0.4494" style="stop-color:#ABE1FA"/>
		<stop  offset="1" style="stop-color:#96CFF1"/>
	</radialGradient>
	<path class="st12" d="M491.1,274.8c-0.7,1.4-1.4,2.9-2.2,4.3l-94.3,163.3c-0.5,1-1.1,1.9-1.7,2.8c-8.3,12.4-21.7,20.5-36.5,22
		c-1.7,0.2-3.4,0.3-5.2,0.3H162.6c-17.9,0-34.5-9.6-43.5-25.1l-15.3-26.6l-70.4-122L24.9,279c-9-15.5-9-34.6,0-50.2l6.5-11.3
		l22.3-38.6l65.5-113.4c9-15.5,25.5-25.1,43.5-25.1h188.5c17.9,0,34.5,9.6,43.5,25.1l20.7,35.9l6.3,10.9l25.3,43.8l2.4,4.2l5.5,9.6
		l7,12l27.1,47c1.2,2,2.2,4.1,3,6.2C497.1,247.9,496.8,262.3,491.1,274.8z"/>
	<radialGradient id="SVGID_2_" cx="256.8813" cy="253.95" r="226.4908" gradientUnits="userSpaceOnUse">
		<stop  offset="5.618000e-03" style="stop-color:#D7F0FC"/>
		<stop  offset="0.4494" style="stop-color:#ABE1FA"/>
		<stop  offset="1" style="stop-color:#96CFF1"/>
	</radialGradient>
	<path class="st13" d="M491.1,274.8c-0.7,1.4-1.4,2.9-2.2,4.3l-94.3,163.3c-0.5,1-1.1,1.9-1.7,2.8c-8.3,12.4-21.7,20.5-36.5,22
		c-1.7,0.2-3.4,0.3-5.2,0.3H162.6c-17.9,0-34.5-9.6-43.5-25.1l-15.3-26.6l-70.4-122L24.9,279c-9-15.5-9-34.6,0-50.2l6.5-11.3
		l22.3-38.6l65.5-113.4c9-15.5,25.5-25.1,43.5-25.1h188.5c17.9,0,34.5,9.6,43.5,25.1l20.7,35.9l6.3,10.9l25.3,43.8l2.4,4.2l5.5,9.6
		l7,12l27.1,47c1.2,2,2.2,4.1,3,6.2C497.1,247.9,496.8,262.3,491.1,274.8z"/>
</g>
<g>
	<g>
		<path class="st14" d="M341.1,265.1h-37.4v-27.8h37.4c15.4,0,27.8-12.5,27.8-27.8v-40.1c0-3.8-3.1-7-7-7h-51.6v-27.8H362
			c19.2,0,34.8,15.6,34.8,34.8v40.1C396.8,240.2,371.8,265.1,341.1,265.1L341.1,265.1z"/>
	</g>
	<path class="st14" d="M307.8,299.7H206c-10.6,0-19.6,8-20.8,18.6L173.4,425h167.1l-11.9-106.7C327.4,307.7,318.5,299.7,307.8,299.7
		z"/>
	<path class="st15" d="M327.5,313.6h-86.7c-10.6,0-19.6,8-20.8,18.6L209.7,425h-36.3l11.9-106.7c1.2-10.6,10.1-18.6,20.8-18.6h101.8
		C316.8,299.7,324.6,305.4,327.5,313.6L327.5,313.6z"/>
	<path class="st14" d="M288.2,106.4h-62.6V92.5c0-7.7,6.2-13.9,13.9-13.9h34.8c7.7,0,13.9,6.2,13.9,13.9V106.4z"/>
	<path class="st16" d="M338.8,129.1l-4.9,68.3l-6,82.8c-0.8,10.9-9.9,19.4-20.8,19.4H206.7c-10.9,0-20-8.5-20.8-19.4l-6-82.8
		l-4.9-68.3c-0.9-12.1,8.7-22.4,20.8-22.4H318C330.1,106.7,339.7,117,338.8,129.1L338.8,129.1z"/>
	<path class="st17" d="M241.5,299.7h-34.8c-10.9,0-20-8.5-20.8-19.4l-6-82.8l-4.5-62.9l-0.4-5.5c-0.9-12.1,8.7-22.4,20.8-22.4h34.8
		c-12.1,0-21.7,10.3-20.8,22.4l0.4,5.5l4.5,62.9l0.6,8.9l5.3,73.9C221.5,291.2,230.6,299.7,241.5,299.7z"/>
	<path class="st18" d="M338.8,129.1l-0.4,5.2l-0.3,0.3H175.4l-0.4-5.5c-0.9-12.1,8.7-22.4,20.8-22.4H318
		C330.1,106.7,339.7,117,338.8,129.1z"/>
	<path class="st19" d="M209.8,129.1l0.4,5.5h-34.8l-0.4-5.5c-0.9-12.1,8.7-22.4,20.8-22.4h34.8C218.5,106.7,208.9,117,209.8,129.1z"
		/>
	<path class="st20" d="M333.9,197.5l-6,82.8c-0.8,10.9-9.9,19.4-20.8,19.4H206.7c-10.9,0-20-8.5-20.8-19.4l-6-82.8
		C230.8,225.3,256.9,177.5,333.9,197.5z"/>
	<path class="st21" d="M241.5,299.7h-34.8c-10.9,0-20-8.5-20.8-19.4l-6-82.8c13,7.1,24.4,9.3,35.4,8.9l5.3,73.9
		C221.5,291.2,230.6,299.7,241.5,299.7z"/>
	
		<ellipse transform="matrix(0.1602 -0.9871 0.9871 0.1602 -155.6498 569.5624)" class="st20" cx="256.9" cy="376.3" rx="20.9" ry="20.9"/>
	<g>
		<path d="M256.9,344.6c2.9,0,5.2-2.3,5.2-5.2v-10.4c0-2.9-2.3-5.2-5.2-5.2c-2.9,0-5.2,2.3-5.2,5.2v10.4
			C251.7,342.2,254,344.6,256.9,344.6z"/>
		<path d="M234.5,353.9c2-2,2-5.4,0-7.4l-7.4-7.4c-2-2-5.4-2-7.4,0c-2,2-2,5.4,0,7.4l7.4,7.4C229.6,355.9,232,355.9,234.5,353.9z"/>
		<path d="M220,371h-10.4c-2.9,0-5.2,2.3-5.2,5.2c0,2.9,2.3,5.2,5.2,5.2H220c2.9,0,5.2-2.3,5.2-5.2C225.2,373.4,222.9,371,220,371z"
			/>
		<path d="M304.2,371h-10.4c-2.9,0-5.2,2.3-5.2,5.2c0,2.9,2.3,5.2,5.2,5.2h10.4c2.9,0,5.2-2.3,5.2-5.2
			C309.5,373.4,307.1,371,304.2,371z"/>
		<path d="M294.1,339.1c-2-2-5.4-2-7.4,0l-7.4,7.4c-2,2-2,5.4,0,7.4c2.5,2,4.9,2,7.4,0l7.4-7.4C296.1,344.4,296.1,341.1,294.1,339.1
			z"/>
		<path d="M256.9,350.1c-14.4,0-26.1,11.7-26.1,26.1c0,14.4,11.7,26.1,26.1,26.1c14.4,0,26.1-11.7,26.1-26.1
			C283,361.9,271.3,350.1,256.9,350.1L256.9,350.1z M256.9,391.9c-8.6,0-15.7-7-15.7-15.7c0-6.8,4.4-12.6,10.4-14.8v4.3
			c0,2.9,2.3,5.2,5.2,5.2c2.9,0,5.2-2.3,5.2-5.2v-4.3c6.1,2.2,10.4,8,10.4,14.8C272.5,384.9,265.5,391.9,256.9,391.9L256.9,391.9z"
			/>
	</g>
	<path class="st14" d="M178.7,180.1l-43.1-45.6h39.9L178.7,180.1z"/>
	<path d="M396.8,182.2c2.9,0,5.2-2.3,5.2-5.2v-7.6c0-22.1-18-40-40-40H344c1-14.9-11.1-27.8-26-27.8h-24.5v-9
		c0-10.6-8.6-19.1-19.1-19.1h-34.8c-10.6,0-19.1,8.6-19.1,19.1v9h-24.5c-14.9,0-27,13-26,27.8h-34.2c-6.1,0-7.2,4.5-3.8,8.8
		l41.8,44.2l7.1,98.3c0.5,7.6,4.4,14.3,10,18.7c-5.8,4.2-9.8,10.7-10.7,18.3l-11.9,106.7c0,3.5,1.7,5.4,5.2,5.8h167.1
		c3.5-0.4,5.2-2.3,5.2-5.8l-11.9-106.7c-0.8-7.6-4.9-14.1-10.7-18.3c8.5-6.6,11.5-18.7,10.8-29c35.5,1.8,68.1-23.7,68.1-60.9v-9.8
		c0-2.9-2.3-5.2-5.2-5.2s-5.2,2.3-5.2,5.2v9.8c0,30.9-27.5,52-56.9,50.5l1.3-17.4c19.5,1.9,38.3-12.6,38.3-33.1v-40.1
		c0-6.7-5.5-12.2-12.2-12.2H342l1.3-17.4H362c16.3,0,29.6,13.3,29.6,29.6v7.6C391.5,179.8,393.9,182.2,396.8,182.2L396.8,182.2z
		 M230.8,92.5c0-4.8,3.9-8.7,8.7-8.7h34.8c4.8,0,8.7,3.9,8.7,8.7v8.7h-52.2L230.8,92.5L230.8,92.5z M195.8,112H318
		c10.1,0,15,8.9,15.6,17.4h-96.6c-2.9,0-5.2,2.3-5.2,5.2c0,2.9,2.3,5.2,5.2,5.2h95.9l-3.7,51.1c-36.2-8.1-61-1.5-82.9,4.3
		c-21.6,5.7-38.7,10.3-61.3-1.1l-3.9-54.4h33.2c2.9,0,5.2-2.3,5.2-5.2c0-2.9-2.3-5.2-5.2-5.2h-34C179.1,120.7,185.9,112,195.8,112z
		 M172.1,165.6l-24.4-25.8h22.9l0,0.3L172.1,165.6z M307.8,304.9c8,0,14.7,6,15.6,13.9l11.2,100.9H179.2l11.2-100.9
		c0.9-7.9,7.6-13.9,15.6-13.9h39.5c2.9,0,5.2-2.3,5.2-5.2s-2.3-5.2-5.2-5.2h-38.8c-8.2,0-15-6.4-15.6-14.5l-5.3-73.9
		c21,8.8,41.8,5,63.1-0.7c21.1-5.6,44.9-11.9,79.5-3.9l-5.7,78.4c-0.6,8.1-7.4,14.5-15.6,14.5h-38.8c-2.9,0-5.2,2.3-5.2,5.2
		s2.3,5.2,5.2,5.2L307.8,304.9L307.8,304.9z M362,167.7c1,0,1.7,0.8,1.7,1.7v40.1c0,14.6-13.7,23.4-27.1,22.6l4.6-64.4L362,167.7z"
		/>
</g>
</svg>
