<?xml version="1.0" encoding="utf-8"?>
<!-- Generator: Adobe Illustrator 24.0.1, SVG Export Plug-In . SVG Version: 6.00 Build 0)  -->
<svg version="1.1" id="Layer_1" xmlns="http://www.w3.org/2000/svg" xmlns:xlink="http://www.w3.org/1999/xlink" x="0px" y="0px"
	 viewBox="0 0 512 512" style="enable-background:new 0 0 512 512;" xml:space="preserve">
<style type="text/css">
	.st0{display:none;}
	.st1{display:inline;fill:#200A7F;stroke:#18E5EA;stroke-width:20;stroke-miterlimit:10;}
	.st2{display:inline;fill:#EF0B79;}
	.st3{display:inline;fill:#18E5EA;}
	.st4{display:inline;}
	.st5{fill:#E9F21C;}
	.st6{display:inline;fill:none;}
	.st7{display:inline;fill:#EF3A24;}
	.st8{font-family:'MyriadPro-Regular';}
	.st9{font-size:250px;}
	.st10{display:inline;fill:#FFFFFF;}
	.st11{fill:#C4C6C8;}
	.st12{fill:url(#SVGID_1_);}
	.st13{fill:url(#SVGID_2_);stroke:#E8E8E8;stroke-width:3;stroke-miterlimit:10;}
	.st14{fill:none;}
	.st15{fill:#FDB0A0;}
	.st16{fill:#F69583;}
	.st17{fill:#FFCEC0;}
</style>
<g id="Layer_3" class="st0">
	<path class="st1" d="M401.1,212.2c5.1,15.3,7.9,31.7,7.9,48.8c0,85.3-69.2,154.5-154.5,154.5S100,346.3,100,261
		s69.2-154.5,154.5-154.5c51.2,0,96.6,24.9,124.7,63.3"/>
	<path class="st2" d="M333.4,255.2c0,4.2-3.3,7.7-7.4,7.7H174.9c-4.1,0-7.4-3.4-7.4-7.7l0,0c0-4.2,3.3-7.7,7.4-7.7H326
		C330.1,247.5,333.4,250.9,333.4,255.2L333.4,255.2z"/>
	<path class="st2" d="M333.4,284.8c0,4.2-3.3,7.6-7.4,7.6H174.9c-4.1,0-7.4-3.4-7.4-7.6l0,0c0-4.2,3.3-7.6,7.4-7.6H326
		C330.1,277.1,333.4,280.6,333.4,284.8L333.4,284.8z"/>
	<path class="st2" d="M333.4,313c0,4.2-3.3,7.7-7.4,7.7H174.9c-4.1,0-7.4-3.4-7.4-7.7l0,0c0-4.2,3.3-7.6,7.4-7.6H326
		C330.1,305.4,333.4,308.8,333.4,313L333.4,313z"/>
	<path class="st2" d="M333.4,338.4c0,4.2-3.3,7.7-7.4,7.7H174.9c-4.1,0-7.4-3.4-7.4-7.7l0,0c0-4.2,3.3-7.6,7.4-7.6H326
		C330.1,330.7,333.4,334.1,333.4,338.4L333.4,338.4z"/>
	<polygon class="st3" points="395,191.5 320.2,165.2 380.4,113.5 	"/>
	<g class="st4">
		<g>
			<g>
				<path class="st5" d="M241.5,239.2c-2.3,0-4.4-1.1-5.8-2.9l-18.8-24.8c-2.4-3.2-1.8-7.8,1.4-10.3c3.2-2.4,7.8-1.8,10.3,1.4
					l12.3,16.3l31-49.8c2.1-3.4,6.6-4.5,10.1-2.3c3.4,2.1,4.5,6.6,2.3,10.1l-36.7,58.9c-1.3,2-3.5,3.3-5.9,3.4
					C241.7,239.2,241.6,239.2,241.5,239.2z"/>
			</g>
		</g>
	</g>
</g>
<g id="Layer_2_2_" class="st0">
	<rect x="121" y="171.5" class="st6" width="298" height="251"/>
	<text transform="matrix(1 0 0 1 121 348.9979)" class="st7 st8 st9">24</text>
	<circle class="st10" cx="138.3" cy="91.8" r="17.3"/>
	<circle class="st10" cx="185.3" cy="91.8" r="17.3"/>
	<circle class="st10" cx="232.3" cy="91.8" r="17.3"/>
	<circle class="st10" cx="278.3" cy="91.8" r="17.3"/>
	<circle class="st10" cx="323.3" cy="91.8" r="17.3"/>
	<circle class="st10" cx="368.3" cy="91.8" r="17.3"/>
</g>
<g>
	<path class="st11" d="M350.3,54.5H161.7c-17.9,0-34.5,9.6-43.4,25.1L24,242.9c-9,15.5-9,34.6,0,50.2l94.3,163.3
		c9,15.5,25.5,25.1,43.4,25.1h188.5c17.9,0,34.5-9.6,43.4-25.1L488,293.1c9-15.5,9-34.6,0-50.2L393.7,79.6
		C384.8,64.1,368.2,54.5,350.3,54.5z"/>
</g>
<g>
	<linearGradient id="SVGID_1_" gradientUnits="userSpaceOnUse" x1="18.15" y1="253.95" x2="495.6125" y2="253.95">
		<stop  offset="0" style="stop-color:#F074AC"/>
		<stop  offset="0.5" style="stop-color:#EB008B"/>
		<stop  offset="1" style="stop-color:#CD118C"/>
	</linearGradient>
	<path class="st12" d="M491.1,274.8c-0.7,1.4-1.4,2.9-2.2,4.3L466,318.7l-32.1,55.7l-8.7,15.1l-10.1,17.5l-4.4,7.5l-0.9,1.6
		l-3.4,5.9l-10.1,17.5l-0.3,0.5l-1.5,2.5c-0.5,1-1.1,1.9-1.7,2.8c-0.4,0.5-0.7,1.1-1.1,1.6c-0.7,0.9-1.4,1.8-2.1,2.7h0v0
		c-1.1,1.3-2.2,2.5-3.4,3.7c-7,6.9-16,11.6-25.7,13.4h0c-1.4,0.3-2.8,0.5-4.2,0.6c-1.7,0.2-3.4,0.3-5.2,0.3H162.6
		c-4.1,0-8.2-0.5-12.1-1.5l0,0c-9.5-2.4-18.1-7.4-24.7-14.6c-1.5-1.6-2.9-3.3-4.1-5.1c0,0,0,0,0,0c-0.4-0.5-0.8-1.1-1.1-1.6v0
		c-0.5-0.8-1-1.5-1.5-2.3l-1.5-2.7l-1.5-2.5L106,419.6l-2.2-3.8l-1.8-3c0,0,0,0,0,0l-0.4-0.8l-4.4-7.6l-10.1-17.6l-8.8-15.2
		L46,315.6l-12.6-21.8L24.9,279c-9-15.5-9-34.6,0-50.2l6.5-11.3l22.3-38.6l17.1-29.6l48.4-83.8c1.1-2,2.4-3.8,3.8-5.6
		c9.4-12.2,24-19.5,39.7-19.5h188.5c13,0,25.2,5,34.5,13.7c3.5,3.3,6.6,7.1,9,11.4l20.7,35.9l6.3,10.9l17.7,30.6l7.6,13.2l2.4,4.2
		l5.5,9.6l7,12l27.1,47c1.2,2,2.2,4.1,3,6.2C497.1,247.9,496.8,262.3,491.1,274.8z"/>
	<linearGradient id="SVGID_2_" gradientUnits="userSpaceOnUse" x1="18.15" y1="253.95" x2="495.6125" y2="253.95">
		<stop  offset="0" style="stop-color:#F074AC"/>
		<stop  offset="0.5" style="stop-color:#EB008B"/>
		<stop  offset="1" style="stop-color:#CD118C"/>
	</linearGradient>
	<path class="st13" d="M491.1,274.8c-0.7,1.4-1.4,2.9-2.2,4.3L466,318.7l-32.1,55.7l-8.7,15.1l-10.1,17.5l-4.4,7.5l-0.9,1.6
		l-3.4,5.9l-10.1,17.5l-0.3,0.5l-1.5,2.5c-0.5,1-1.1,1.9-1.7,2.8c-0.4,0.5-0.7,1.1-1.1,1.6c-0.7,0.9-1.4,1.8-2.1,2.7h0v0
		c-1.1,1.3-2.2,2.5-3.4,3.7c-7,6.9-16,11.6-25.7,13.4h0c-1.4,0.3-2.8,0.5-4.2,0.6c-1.7,0.2-3.4,0.3-5.2,0.3H162.6
		c-4.1,0-8.2-0.5-12.1-1.5l0,0c-9.5-2.4-18.1-7.4-24.7-14.6c-1.5-1.6-2.9-3.3-4.1-5.1c0,0,0,0,0,0c-0.4-0.5-0.8-1.1-1.1-1.6v0
		c-0.5-0.8-1-1.5-1.5-2.3l-1.5-2.7l-1.5-2.5L106,419.6l-2.2-3.8l-1.8-3c0,0,0,0,0,0l-0.4-0.8l-4.4-7.6l-10.1-17.6l-8.8-15.2
		L46,315.6l-12.6-21.8L24.9,279c-9-15.5-9-34.6,0-50.2l6.5-11.3l22.3-38.6l17.1-29.6l48.4-83.8c1.1-2,2.4-3.8,3.8-5.6
		c9.4-12.2,24-19.5,39.7-19.5h188.5c13,0,25.2,5,34.5,13.7c3.5,3.3,6.6,7.1,9,11.4l20.7,35.9l6.3,10.9l17.7,30.6l7.6,13.2l2.4,4.2
		l5.5,9.6l7,12l27.1,47c1.2,2,2.2,4.1,3,6.2C497.1,247.9,496.8,262.3,491.1,274.8z"/>
</g>
<path d="M494.8,353.7"/>
<rect x="117.3" y="98" class="st14" width="477.8" height="425.3"/>
<g>
	<g>
		<g>
			<g>
				<g>
					<polygon class="st15" points="403.7,35.6 400.5,38.9 403.7,35.6 					"/>
					<path class="st15" d="M421.7,112.3l17.7,30.6L323.6,261.5l-69.7,71.4l-1.6,1.7l-15.1,15.5c-0.7,0.7-1.4,1.5-2.1,2.2
						c-0.4,0.5-0.8,0.9-1.2,1.4c-0.3,0.3-0.6,0.7-0.8,1c-0.2,0.2-0.4,0.5-0.6,0.7c-0.3,0.4-0.7,0.8-1,1.2c-0.2,0.2-0.4,0.5-0.5,0.7
						c-0.4,0.5-0.8,1-1.1,1.5c-0.4,0.5-0.8,1.1-1.2,1.7c-0.4,0.6-0.8,1.2-1.2,1.8c-0.2,0.3-0.4,0.7-0.6,1c-0.3,0.4-0.5,0.8-0.8,1.3
						c-0.4,0.7-0.8,1.3-1.1,2c-0.4,0.7-0.7,1.3-1.1,2c-1,1.8-1.8,3.7-2.6,5.6c-0.2,0.5-0.5,1-0.7,1.6c-0.1,0.1-0.1,0.3-0.2,0.4
						c-0.2,0.5-0.4,1-0.6,1.5c-0.5,1.2-0.9,2.5-1.3,3.7c-0.3,0.8-0.5,1.6-0.8,2.4c-0.3,0.8-0.5,1.5-0.8,2.2
						c-0.1,0.2-0.1,0.3-0.2,0.5c-0.2,0.6-0.4,1.1-0.6,1.7c-0.3,0.8-0.6,1.6-1,2.4c0,0.1-0.1,0.2-0.1,0.3c-0.2,0.4-0.3,0.8-0.5,1.2
						c-0.2,0.5-0.4,1-0.7,1.5c0,0,0,0,0,0c-5.5,12.3-13.2,23.6-22.8,33.2L177.2,440l-16.7,16.2l-8.5,8.3l-0.3,0.3
						c-0.2,0.2-0.5,0.5-0.7,0.7c-0.1,0.2-0.3,0.3-0.5,0.4c-0.1,0.1-0.2,0.1-0.3,0.2c-0.5,0.4-1,0.8-1.5,1.1
						c-0.3,0.2-0.5,0.3-0.8,0.5c-0.3,0.2-0.5,0.3-0.8,0.5c-0.3,0.1-0.5,0.3-0.8,0.4c-0.2,0.1-0.4,0.2-0.6,0.3
						c-0.2,0.1-0.5,0.2-0.7,0.3c0,0-0.1,0-0.1,0c-0.2,0.1-0.4,0.1-0.5,0.2c-0.2,0.1-0.3,0.1-0.5,0.2c-0.3,0.1-0.6,0.2-0.9,0.2
						c-0.3,0.1-0.6,0.1-0.9,0.2c-0.9,0.2-1.8,0.3-2.7,0.3c-0.3,0-0.6,0-0.9,0c-0.3,0-0.5,0-0.8,0c-0.2,0-0.4,0-0.6,0
						c-0.2,0-0.4,0-0.6-0.1c-0.4,0-0.8-0.1-1.2-0.2c-0.3,0-0.5-0.1-0.8-0.2c-0.2,0-0.4-0.1-0.5-0.1c-0.6-0.2-1.2-0.3-1.8-0.6
						c-0.3-0.1-0.5-0.2-0.8-0.3h0c-0.1-0.1-0.3-0.1-0.4-0.2c-0.3-0.2-0.7-0.3-1-0.5c-0.3-0.2-0.6-0.3-0.9-0.5
						c-0.2-0.1-0.4-0.3-0.7-0.5c-0.2-0.1-0.4-0.3-0.6-0.4c0,0-0.1,0-0.1-0.1c-0.2-0.2-0.4-0.3-0.6-0.5c0,0-0.1-0.1-0.1-0.1
						c-0.2-0.2-0.4-0.3-0.6-0.5v0c-3.2-3.1-5-7-5.6-11.1c0,0,0,0,0,0c-0.1-1-0.2-2.1-0.1-3.1c0-0.1,0-0.2,0-0.3c0-0.5,0.1-1,0.1-1.5
						c0-0.2,0-0.3,0.1-0.5c0-0.2,0.1-0.4,0.1-0.6c0.1-0.4,0.2-0.7,0.2-1.1c0.1-0.4,0.2-0.8,0.4-1.2c0,0,0,0,0,0c0-0.1,0-0.2,0.1-0.2
						c0.3-0.8,0.6-1.7,1-2.5c0.1-0.2,0.2-0.4,0.3-0.6c0-0.1,0.1-0.1,0.1-0.2c0-0.1,0-0.1,0.1-0.1c0.1-0.2,0.3-0.4,0.4-0.6
						c0,0,0,0,0,0c0.2-0.3,0.3-0.5,0.5-0.8c0.5-0.8,1.1-1.5,1.8-2.1l-5.4,5.6v0l-8.2,8.4c-0.2,0.2-0.4,0.4-0.7,0.7
						c-0.5,0.4-0.9,0.8-1.4,1.2c0,0,0,0,0,0c-1,0.7-2,1.3-3,1.8c-0.3,0.1-0.5,0.3-0.8,0.4c-0.1,0-0.2,0.1-0.2,0.1
						c-0.1,0-0.1,0.1-0.2,0.1c-0.1,0-0.2,0.1-0.4,0.1c0,0,0,0,0,0c-0.2,0.1-0.4,0.1-0.6,0.2c-0.1,0-0.1,0-0.2,0.1
						c-0.3,0.1-0.5,0.2-0.8,0.2c-0.3,0.1-0.6,0.1-0.8,0.2c-1.2,0.2-2.3,0.3-3.5,0.3c-0.3,0-0.6,0-0.9,0c0,0,0,0,0,0
						c-0.3,0-0.7,0-1-0.1c0,0,0,0,0,0h0c-0.2,0-0.4,0-0.6-0.1c-0.1,0-0.2,0-0.3,0c-0.1,0-0.2,0-0.3-0.1c-0.2,0-0.3-0.1-0.5-0.1
						c-0.1,0-0.1,0-0.2,0c-0.1,0-0.3-0.1-0.4-0.1c-0.2,0-0.4-0.1-0.6-0.2c-0.6-0.2-1.2-0.4-1.8-0.6c-0.3-0.1-0.5-0.2-0.8-0.4
						c-0.3-0.1-0.5-0.3-0.8-0.4c-0.2-0.1-0.4-0.2-0.6-0.3c-0.1,0-0.2-0.1-0.2-0.1c-0.2-0.1-0.5-0.3-0.7-0.4
						c-0.2-0.1-0.4-0.3-0.6-0.4c-0.3-0.2-0.7-0.5-1-0.8c-0.4-0.4-0.8-0.7-1.2-1.1v0c-0.5-0.5-0.9-0.9-1.3-1.4
						c-0.2-0.2-0.3-0.4-0.5-0.7c-0.2-0.2-0.3-0.4-0.4-0.6c-0.2-0.3-0.4-0.6-0.6-1c-0.3-0.5-0.6-1-0.8-1.6c0,0,0,0,0,0c0,0,0,0,0,0
						c-0.3-0.5-0.5-1.1-0.7-1.7c-0.2-0.5-0.3-1-0.5-1.6c0-0.2-0.1-0.3-0.1-0.5c0,0,0,0,0,0c0,0,0,0,0,0c0,0,0-0.1,0-0.1
						c0-0.2-0.1-0.4-0.1-0.6c0-0.1,0-0.2,0-0.3c0-0.2-0.1-0.5-0.1-0.7c0,0,0,0,0-0.1c0-0.1,0-0.3,0-0.4c0-0.1,0-0.3,0-0.4
						c0-0.2,0-0.3,0-0.5c0-0.3,0-0.6,0-0.9c0-0.3,0-0.6,0-0.9c0,0,0,0,0,0c0-0.1,0-0.2,0-0.2c0,0,0-0.1,0-0.1c0-0.1,0-0.2,0-0.3
						c0-0.2,0-0.5,0.1-0.7c0-0.1,0-0.1,0-0.2c0,0,0,0,0-0.1c0,0,0-0.1,0-0.2c0-0.1,0-0.2,0-0.3c0-0.1,0-0.2,0.1-0.3
						c0-0.1,0-0.2,0-0.3c0,0,0,0,0,0c0-0.1,0-0.2,0.1-0.3c0-0.1,0-0.1,0-0.2c0-0.3,0.1-0.5,0.2-0.8c0,0,0,0,0,0
						c0.1-0.4,0.2-0.8,0.3-1.1c0.1-0.3,0.2-0.6,0.3-1c0,0,0,0,0-0.1s0,0,0-0.1c0-0.1,0.1-0.2,0.1-0.3c0,0,0,0,0-0.1
						c0.1-0.3,0.2-0.5,0.3-0.8c0-0.1,0-0.1,0.1-0.2c0.2-0.3,0.3-0.7,0.5-1c0.2-0.3,0.3-0.5,0.5-0.8c0,0,0,0,0,0
						c0.1-0.1,0.1-0.2,0.2-0.3c0.4-0.7,0.9-1.3,1.4-1.9c0.1-0.1,0.1-0.2,0.2-0.2l0.1-0.1l0.2-0.2c0,0,0,0,0,0c0,0,0,0,0,0l-0.3,0.3
						l-6.1,6.2c0,0,0,0,0,0c-0.2,0.2-0.5,0.4-0.7,0.7h0c-0.5,0.4-0.9,0.8-1.4,1.2c0,0,0,0,0,0c-0.3,0.2-0.5,0.4-0.8,0.5c0,0,0,0,0,0
						c-0.1,0.1-0.3,0.2-0.4,0.3c-0.4,0.3-0.8,0.5-1.2,0.7c0,0-0.1,0-0.1,0.1c-0.2,0.1-0.4,0.2-0.7,0.3c0,0,0,0,0,0
						c-0.2,0.1-0.5,0.2-0.7,0.3c0,0-0.1,0-0.1,0c-0.3,0.1-0.5,0.2-0.8,0.3c0,0,0,0,0,0c0,0,0,0,0,0c-0.1,0-0.1,0-0.2,0.1
						c-0.1,0-0.3,0.1-0.4,0.1c-0.3,0.1-0.5,0.2-0.8,0.2c-0.1,0-0.3,0.1-0.4,0.1c0,0-0.1,0-0.1,0c-0.1,0-0.2,0-0.3,0.1
						c-0.2,0-0.4,0.1-0.6,0.1c0,0-0.1,0-0.1,0c-0.1,0-0.3,0-0.4,0.1c-0.2,0-0.3,0.1-0.5,0.1c0,0,0,0,0,0c-0.1,0-0.2,0-0.3,0
						c0,0,0,0,0,0c-0.1,0-0.1,0-0.2,0c-0.1,0-0.2,0-0.3,0c-0.2,0-0.3,0-0.5,0c-0.6,0-1.2,0-1.8,0c-0.1,0-0.2,0-0.3,0
						c-0.1,0-0.2,0-0.3,0c0,0,0,0,0,0c-0.1,0-0.2,0-0.3,0c-0.1,0-0.1,0-0.2,0c-0.1,0-0.2,0-0.3,0c-0.2,0-0.4,0-0.5-0.1
						c0,0,0,0-0.1,0c-0.2,0-0.3,0-0.5-0.1c-0.1,0-0.2,0-0.3-0.1c-0.1,0-0.1,0-0.2,0c-0.1,0-0.2,0-0.3-0.1c-0.3-0.1-0.5-0.1-0.8-0.2
						c-0.2-0.1-0.4-0.1-0.6-0.2c-0.3-0.1-0.7-0.2-1-0.3c-0.1,0-0.1,0-0.2-0.1c-0.2-0.1-0.4-0.2-0.5-0.2c-0.2-0.1-0.3-0.2-0.5-0.2
						c-0.1,0-0.1-0.1-0.2-0.1c0,0-0.1,0-0.1,0c-0.2-0.1-0.4-0.2-0.7-0.4c-0.2-0.1-0.5-0.3-0.7-0.4c0,0,0,0-0.1,0
						c-0.2-0.1-0.5-0.3-0.7-0.5c-0.2-0.2-0.5-0.3-0.7-0.5c-0.2-0.2-0.5-0.4-0.7-0.5c-0.2-0.2-0.4-0.4-0.6-0.6h0
						c-0.5-0.5-0.9-0.9-1.3-1.4c0,0,0,0,0,0c-0.2-0.2-0.4-0.5-0.6-0.7c-0.2-0.3-0.4-0.6-0.6-0.8c-0.2-0.2-0.3-0.5-0.5-0.8
						c0,0,0,0,0,0c-0.2-0.3-0.3-0.5-0.5-0.8c-0.1-0.3-0.3-0.5-0.4-0.8c-0.3-0.6-0.5-1.2-0.7-1.8c-0.1-0.3-0.2-0.6-0.3-0.8
						c0,0,0,0,0-0.1c-0.1-0.2-0.1-0.4-0.2-0.6c-0.1-0.2-0.1-0.5-0.2-0.7c0,0,0,0,0-0.1c0,0,0,0,0,0c-0.1-0.3-0.1-0.7-0.2-1
						c0,0,0,0,0,0c0-0.3-0.1-0.7-0.1-1c0-0.1,0-0.2,0-0.3c0-0.1,0-0.1,0-0.2c0-0.2,0-0.4,0-0.6c0-0.2,0-0.4,0-0.7c0,0,0,0,0,0
						c0-0.1,0-0.2,0-0.3c0-0.6,0-1.2,0.1-1.8c0-0.2,0-0.4,0.1-0.6c0-0.3,0.1-0.5,0.1-0.8c0-0.1,0-0.3,0.1-0.4c0,0,0,0,0,0
						c0.1-0.3,0.1-0.6,0.2-0.8v0c0,0,0,0,0,0c0.1-0.3,0.1-0.6,0.2-0.9c0-0.1,0.1-0.3,0.1-0.5c0-0.1,0.1-0.3,0.1-0.4
						c0-0.1,0-0.1,0.1-0.2c0.1-0.3,0.3-0.7,0.4-1c0.2-0.4,0.4-0.8,0.6-1.2l0,0c0.1-0.1,0.1-0.3,0.2-0.4l0.2-0.4h0c0,0,0,0,0,0
						c0.2-0.3,0.3-0.5,0.5-0.8c0,0,0,0,0,0c0.2-0.3,0.3-0.5,0.5-0.8c0,0,0,0,0,0c0.1-0.1,0.2-0.2,0.3-0.4c0.1-0.1,0.2-0.2,0.3-0.4
						c0,0,0,0,0,0c0.4-0.4,0.7-0.9,1.1-1.3l-6.4,6.6c-0.2,0.2-0.5,0.5-0.7,0.7c-0.7,0.7-1.5,1.3-2.2,1.8c-0.3,0.2-0.5,0.3-0.8,0.5
						c-0.5,0.3-1.1,0.6-1.6,0.9c-0.3,0.1-0.6,0.3-0.8,0.4c-0.3,0.1-0.6,0.2-0.8,0.3v0c0,0,0,0,0,0c-0.4,0.1-0.8,0.3-1.2,0.4
						c-0.2,0-0.3,0.1-0.5,0.1c0,0,0,0,0,0c0,0,0,0,0,0c-0.3,0.1-0.6,0.1-0.9,0.2l0,0c-0.2,0-0.3,0.1-0.5,0.1
						c-1.3,0.2-2.6,0.3-3.9,0.3c-0.1,0-0.3,0-0.4,0c-0.1,0-0.2,0-0.3,0c-0.1,0-0.2,0-0.3,0c-0.2,0-0.5,0-0.7-0.1c-0.1,0-0.1,0-0.2,0
						c-0.1,0-0.3,0-0.4-0.1c-0.1,0-0.2,0-0.4-0.1c-0.1,0-0.1,0-0.2,0h0c-1.1-0.2-2.3-0.6-3.3-1.1c0,0-0.1,0-0.1,0
						c-0.3-0.2-0.6-0.3-1-0.5c-0.4-0.2-0.7-0.4-1-0.6c0,0,0,0,0,0c-0.3-0.2-0.7-0.4-1-0.7c-0.3-0.2-0.6-0.4-0.9-0.7l-0.2-0.2
						c-0.3-0.2-0.5-0.5-0.8-0.7c-0.2-0.2-0.3-0.3-0.5-0.5c-0.2-0.2-0.3-0.3-0.5-0.5c-0.3-0.3-0.6-0.7-0.9-1
						c-0.1-0.1-0.2-0.3-0.3-0.4c-0.6-0.8-1-1.5-1.5-2.3c-0.2-0.4-0.4-0.8-0.6-1.2c-0.1-0.2-0.2-0.4-0.3-0.6
						c-0.1-0.2-0.2-0.4-0.3-0.7c-0.1-0.3-0.2-0.6-0.3-0.9c-0.1-0.3-0.2-0.6-0.3-0.9c-0.1-0.6-0.2-1.2-0.3-1.8c0-0.1,0-0.1,0-0.2
						c0-0.4-0.1-0.7-0.1-1.1c0-0.1,0-0.2,0-0.2c-0.1-0.8-0.1-1.5,0-2.3c0,0,0,0,0,0c0-0.1,0-0.2,0-0.3c0-0.2,0-0.5,0.1-0.7
						c0-0.3,0.1-0.5,0.1-0.7c0,0,0-0.1,0-0.1c0-0.2,0.1-0.4,0.1-0.6c0,0,0-0.1,0-0.1l0,0c0-0.1,0-0.1,0-0.2c0-0.2,0.1-0.3,0.1-0.5
						c0-0.1,0-0.1,0-0.2c0,0,0,0,0-0.1c0,0,0-0.1,0-0.1c0-0.1,0-0.2,0.1-0.3c0-0.2,0.1-0.3,0.1-0.5c0.1-0.3,0.1-0.5,0.2-0.8
						c0-0.1,0.1-0.3,0.1-0.4c0-0.2,0.1-0.3,0.2-0.5v0c0.1-0.3,0.2-0.5,0.3-0.8v0c0.1-0.3,0.3-0.5,0.4-0.8c0.1-0.3,0.3-0.5,0.4-0.8
						c0,0,0,0,0,0c0.1-0.2,0.2-0.4,0.4-0.6c0.4-0.6,0.8-1.1,1.2-1.7c0,0,0,0,0,0c0.2-0.2,0.3-0.4,0.5-0.6c0,0,0.1-0.1,0.1-0.1
						c0.2-0.2,0.4-0.5,0.6-0.7c0,0,0,0,0,0l0.4-0.4l13.8-14.1h0c-0.3-0.1-0.7-0.1-1-0.2c-0.2,0-0.3-0.1-0.5-0.1c-0.1,0-0.1,0-0.2,0
						c0,0-0.1,0-0.1,0c-0.1,0-0.3-0.1-0.4-0.1c-0.2,0-0.4-0.1-0.6-0.2c-0.2-0.1-0.4-0.1-0.5-0.2c-0.1,0-0.3-0.1-0.4-0.1
						c-0.1-0.1-0.3-0.1-0.4-0.2c-0.1,0-0.2-0.1-0.3-0.1c-0.1,0-0.2-0.1-0.2-0.1c-0.2-0.1-0.4-0.1-0.5-0.2c-0.1,0-0.2-0.1-0.3-0.1
						c-0.1,0-0.2-0.1-0.3-0.1c-0.1,0-0.2-0.1-0.3-0.1c-0.2-0.1-0.3-0.1-0.4-0.2c-0.3-0.1-0.5-0.3-0.8-0.4c-0.1,0-0.1-0.1-0.2-0.1
						c-0.2-0.1-0.3-0.2-0.5-0.3c-0.2-0.1-0.4-0.2-0.5-0.4c-0.3-0.2-0.7-0.5-1-0.7c-0.2-0.2-0.5-0.4-0.7-0.5
						c-0.3-0.2-0.5-0.5-0.8-0.7c-0.3-0.2-0.5-0.5-0.8-0.8h0c-0.2-0.2-0.4-0.4-0.5-0.6c-0.2-0.2-0.4-0.4-0.5-0.6
						c-0.2-0.3-0.4-0.5-0.6-0.8c-0.2-0.2-0.3-0.4-0.4-0.6c-0.9-1.2-1.6-2.5-2.2-3.8c-0.1-0.2-0.2-0.5-0.3-0.7c0-0.1-0.1-0.2-0.1-0.3
						c-0.2-0.5-0.4-0.9-0.5-1.4c-0.1-0.3-0.2-0.5-0.2-0.8c0,0,0,0,0-0.1c-0.1-0.5-0.3-1-0.4-1.6c0,0,0,0,0-0.1
						c0-0.3-0.1-0.5-0.1-0.8c-0.1-0.5-0.1-1-0.2-1.5c0-0.1,0-0.2,0-0.2c0-0.3,0-0.5,0-0.8c0-1,0-2,0.1-3c0-0.3,0.1-0.5,0.1-0.8
						c0-0.1,0-0.3,0-0.4c0.1-0.3,0.1-0.6,0.2-0.9c0,0,0-0.1,0-0.1c0.1-0.3,0.1-0.5,0.2-0.8c0-0.2,0.1-0.4,0.1-0.6
						c0-0.1,0.1-0.3,0.1-0.4c0.1-0.3,0.2-0.6,0.3-0.9c0-0.1,0-0.1,0.1-0.2c0.1-0.3,0.2-0.6,0.3-0.9c0.4-1.1,1-2.3,1.6-3.3
						c0.2-0.3,0.4-0.6,0.6-1c0.4-0.6,0.8-1.2,1.3-1.8c0.2-0.3,0.5-0.6,0.7-0.9c0.2-0.3,0.5-0.6,0.8-0.8L30,332l5.7-5.8l7.7-7.9
						c0.1-0.1,0.2-0.2,0.3-0.3l0.1-0.1l2.3-2.3l10.1-10.4c16.8-17.2,39.4-24.8,61.4-22.6c1.1,0.1,2.1,0.2,3.2,0.4
						c0.5,0.1,1.1,0.2,1.6,0.2c0.5,0.1,1.1,0.2,1.6,0.3c0.5,0.1,1,0.2,1.6,0.3c0.5,0.1,1,0.2,1.6,0.3c1.1,0.2,2.1,0.5,3.1,0.8
						c0.5,0.1,0.9,0.2,1.4,0.4c3.2,0.8,6.5,1.2,9.7,1.2c0.4,0,0.8,0,1.3,0c0.5,0,1.1,0,1.6-0.1c0.3,0,0.6,0,0.9-0.1
						c0.5,0,1.1-0.1,1.6-0.2c0.4-0.1,0.8-0.1,1.2-0.2c0.3,0,0.6-0.1,0.9-0.2c0.2,0,0.5-0.1,0.7-0.1c0.4-0.1,0.8-0.2,1.1-0.2
						c0.5-0.1,0.9-0.2,1.3-0.3c1.8-0.5,3.7-1.1,5.4-1.8c0.5-0.2,0.9-0.4,1.4-0.6c0.2-0.1,0.4-0.2,0.5-0.3c0.4-0.2,0.8-0.4,1.2-0.6
						c0.4-0.2,0.8-0.4,1.2-0.6c0.4-0.2,0.7-0.4,1-0.6c0.7-0.4,1.4-0.8,2.1-1.3c0.6-0.4,1.2-0.8,1.8-1.2c0.8-0.6,1.6-1.2,2.3-1.8
						c0.3-0.2,0.5-0.4,0.8-0.6c0.5-0.4,1-0.9,1.4-1.3c0.5-0.4,0.9-0.9,1.4-1.4l10.7-11l0,0l69.7-71.5L385.7,54.1
						c3.5,3.3,6.6,7.1,9,11.4l20.7,35.9L421.7,112.3z"/>
				</g>
			</g>
		</g>
		<path class="st16" d="M252.2,334.6l-15.1,15.5c-8.5,8.7-14.8,19.3-18.5,31c-1.3,4.1-2.9,8.2-4.7,12.1c-0.6-1.7-1.2-3.3-1.7-5
			c-2.7-8.3-7.2-16-13.1-22l-81.6-83.6c4.3,0.4,8.5,1.2,12.7,2.4c15.1,4.2,31.3-0.6,42.4-12l9.9-10.1
			C205.7,286.8,229,310.7,252.2,334.6z"/>
		<g>
			<g>
				<g>
					<path class="st16" d="M48.2,414.7l6.5-6.7c-7.2,7.4-7,19.4,0.5,26.6c7.1,6.8,18.3,6.3,25.2-0.8l6.5-6.7
						c-3.5,3.6-5.3,8.3-5.3,13c0,4.7,1.7,9.4,5.3,13c7,7.2,18.4,7.2,25.4,0l13.6-14c-7.2,7.4-7,19.4,0.5,26.6
						c7.1,6.8,18.3,6.3,25.2-0.8l15.2-15.3c-6.9,4.1-16,3-22.1-2.8c-7.5-7.1-7.6-19.2-0.5-26.5l-13.7,14c-7,7.2-18.4,7.2-25.4,0
						c-3.5-3.6-5.3-8.3-5.3-13c0-4.7,1.7-9.4,5.3-13l-6.5,6.7c-6.9,7.1-18.1,7.6-25.2,0.8c-7.5-7.2-7.6-19.2-0.5-26.5l-6.5,6.7
						c-6.9,7.1-18.1,7.6-25.2,0.8c-7.5-7.2-7.6-19.2-0.5-26.5l-18.4,18.9c-7.2,7.4-7,19.4,0.5,26.5
						C30.1,422.3,41.3,421.8,48.2,414.7L48.2,414.7z"/>
					<path class="st16" d="M36.7,374.4L55,355.5c-5.3-0.9-10.3-3.8-13.8-8.7c-6.3-8.8-5.1-21.1,2.4-28.9l-18.4,18.9
						c-7.5,7.7-8.8,20.1-2.4,28.9C26.4,370.6,31.4,373.5,36.7,374.4z"/>
				</g>
			</g>
		</g>
		<g>
			<path class="st16" d="M60.9,361.6L17.7,406c-1.3-6,0.3-12.4,4.8-17.1l14.2-14.5c-3-0.5-5.9-1.6-8.5-3.4l20.9-21.5
				c3.3-3.3,8.5-3.3,11.8,0C64.2,352.8,64.2,358.2,60.9,361.6L60.9,361.6z"/>
		</g>
		<g>
			<path class="st16" d="M143.6,433.1l-22.5,23.1c-1.3-5.9,0.3-12.4,4.8-17l-13.7,14c-4.5,4.6-10.8,6.3-16.6,5l36.1-37.1
				c3.3-3.3,8.5-3.3,11.8,0C146.9,424.4,146.9,429.8,143.6,433.1z"/>
		</g>
		<g>
			<path class="st16" d="M118.2,407.1l-36.1,37.1c-0.3-1.3-0.4-2.7-0.4-4c0-4.7,1.8-9.4,5.3-13l-6.5,6.7c-4.5,4.7-11,6.5-16.9,5.2
				l42.9-44c3.3-3.3,8.5-3.3,11.8,0C121.5,398.3,121.5,403.7,118.2,407.1L118.2,407.1z"/>
		</g>
		<g>
			<path class="st16" d="M92.8,381l-42.9,44.1c-1.3-5.9,0.3-12.4,4.8-17l-6.5,6.7c-4.5,4.7-11,6.5-16.9,5.2l49.7-51
				c3.3-3.3,8.5-3.3,11.8,0C96.1,372.2,96.1,377.6,92.8,381L92.8,381z"/>
		</g>
	</g>
</g>
<g>
	<g>
		<g>
			<g>
				<g>
					<g>
						<path class="st17" d="M494.1,402.9c0,0.3,0,0.7,0,1c0,0.1,0,0.2,0,0.3c0,0.1,0,0.3,0,0.4c0,0.1,0,0.2,0,0.3
							c0,0.2,0,0.3-0.1,0.5c0,0.1,0,0.2,0,0.4c0,0,0,0.1,0,0.1c0,0.1,0,0.1,0,0.2c0,0.1,0,0.3-0.1,0.4c0,0.1,0,0.2-0.1,0.3
							c0,0,0,0.1,0,0.1c-0.1,0.5-0.2,1-0.4,1.5c-0.1,0.3-0.2,0.5-0.3,0.8c-0.2,0.5-0.4,1-0.7,1.6c-0.1,0.2-0.2,0.4-0.3,0.6
							c-0.1,0.2-0.2,0.4-0.3,0.6c0,0,0,0,0,0.1c-0.1,0.2-0.2,0.4-0.4,0.6c-0.2,0.3-0.4,0.6-0.6,0.9c-0.1,0.2-0.3,0.4-0.5,0.6
							c0,0,0,0.1,0,0.1c-0.2,0.2-0.4,0.5-0.6,0.7c-0.2,0.2-0.3,0.4-0.5,0.6c-0.3,0.3-0.5,0.5-0.8,0.8c-0.3,0.3-0.6,0.5-0.9,0.8
							c0,0,0,0-0.1,0.1c-0.2,0.2-0.5,0.4-0.7,0.6c-0.1,0.1-0.2,0.2-0.3,0.2c-0.3,0.2-0.7,0.5-1,0.7c-0.2,0.1-0.5,0.3-0.7,0.4
							c-0.1,0.1-0.3,0.1-0.4,0.2c-0.3,0.2-0.6,0.3-0.9,0.4c-0.4,0.2-0.7,0.3-1.1,0.4c-0.4,0.1-0.7,0.3-1.1,0.4c0,0,0,0,0,0
							c-0.4,0.1-0.8,0.2-1.1,0.3c-0.3,0-0.5,0.1-0.8,0.1c-0.1,0-0.2,0-0.3,0c-0.1,0-0.1,0-0.2,0c-0.2,0-0.4,0.1-0.6,0.1
							c0,0-0.1,0-0.1,0c-0.1,0-0.2,0-0.4,0c-0.2,0-0.4,0-0.6,0c-0.9,0-1.8,0-2.7-0.1c-0.3,0-0.6-0.1-0.9-0.1c-0.3,0-0.6-0.1-0.9-0.1
							v0h0c-0.3,0-0.6-0.1-0.9-0.2v0c0,0,0,0,0,0c-0.6-0.1-1.1-0.3-1.7-0.5v0c0,0,0,0,0,0c-0.2-0.1-0.4-0.2-0.6-0.3
							c-0.1,0-0.1,0-0.2-0.1c-0.6-0.2-1.1-0.5-1.7-0.8c-0.5-0.3-1.1-0.6-1.6-1c-0.8-0.5-1.5-1.1-2.2-1.7c-0.2-0.2-0.5-0.4-0.7-0.7
							l-6.4-6.4h0c0.4,0.4,0.7,0.8,1.1,1.2c0.2,0.2,0.3,0.4,0.5,0.7c0,0,0,0,0.1,0.1c0.1,0.1,0.2,0.3,0.3,0.4
							c0.1,0.2,0.2,0.3,0.3,0.5c0.3,0.4,0.5,0.8,0.7,1.2c0.1,0.2,0.2,0.3,0.2,0.5c0.1,0.1,0.1,0.2,0.1,0.3c0,0.1,0.1,0.1,0.1,0.2
							c0,0.1,0.1,0.1,0.1,0.2c0.2,0.4,0.4,0.8,0.5,1.3c0,0.1,0,0.1,0.1,0.2v0c0.1,0.3,0.2,0.5,0.2,0.7c0,0,0,0.1,0,0.1
							c0.1,0.2,0.1,0.4,0.2,0.7c0,0,0,0.1,0,0.1c0,0,0,0.1,0,0.1c0,0.2,0.1,0.4,0.1,0.5c0,0,0,0,0,0c0.1,0.3,0.1,0.5,0.1,0.7
							c0,0.1,0,0.3,0.1,0.4c0,0.1,0,0.1,0,0.2c0,0.1,0,0.3,0,0.4c0,0.1,0,0.1,0,0.2c0,0,0,0.1,0,0.2c0,0.1,0,0.3,0,0.4
							c0,0,0,0.1,0,0.1c0,0.2,0,0.3,0,0.5c0,0.3,0,0.5,0,0.8c0,0.2,0,0.3,0,0.5c0,0.2,0,0.3,0,0.4c0,0.1,0,0.2,0,0.3
							c0,0.2,0,0.5-0.1,0.7c0,0.2,0,0.3-0.1,0.5c0,0.2,0,0.3-0.1,0.5c0,0.3-0.1,0.7-0.2,1c-0.1,0.6-0.3,1.3-0.5,1.9
							c-0.2,0.6-0.5,1.3-0.8,1.9c-0.2,0.4-0.4,0.8-0.6,1.2c-0.1,0.2-0.2,0.4-0.3,0.6c-0.1,0.2-0.2,0.4-0.4,0.6
							c-0.1,0.2-0.2,0.3-0.3,0.5c-0.4,0.6-0.9,1.2-1.4,1.7c-0.1,0.2-0.3,0.3-0.5,0.5c-0.2,0.2-0.3,0.3-0.5,0.5h0
							c-0.3,0.3-0.6,0.6-0.9,0.8c-0.3,0.2-0.6,0.5-0.9,0.7c-0.4,0.3-0.8,0.6-1.2,0.8c-0.2,0.2-0.5,0.3-0.7,0.4
							c-0.1,0.1-0.3,0.1-0.4,0.2c-0.3,0.1-0.5,0.3-0.8,0.4c-0.2,0.1-0.3,0.2-0.5,0.2c-0.1,0.1-0.3,0.1-0.4,0.2
							c-0.1,0.1-0.3,0.1-0.4,0.2c-0.3,0.1-0.6,0.2-1,0.3c-0.4,0.1-0.8,0.2-1.1,0.3c0,0,0,0-0.1,0c-0.1,0-0.3,0.1-0.4,0.1
							c-0.1,0-0.3,0-0.4,0.1c-0.1,0-0.3,0-0.4,0c0,0-0.1,0-0.1,0c0,0,0,0,0,0c-0.2,0-0.4,0-0.6,0.1c0,0-0.1,0-0.1,0
							c-0.2,0-0.5,0-0.7,0h-0.1c-1.5,0.1-3,0-4.4-0.3c-0.3,0-0.5-0.1-0.8-0.2c-0.2,0-0.4-0.1-0.6-0.1c-0.1,0-0.3-0.1-0.4-0.1
							c0,0-0.1,0-0.1,0c-0.1,0-0.1,0-0.2-0.1c-0.2,0-0.3-0.1-0.4-0.1c-0.2-0.1-0.4-0.1-0.6-0.2c-0.1,0-0.3-0.1-0.4-0.2
							c0,0-0.1,0-0.1,0c-0.3-0.1-0.6-0.2-0.8-0.4c-0.3-0.1-0.6-0.3-0.8-0.4c-0.3-0.1-0.5-0.3-0.8-0.5c-0.3-0.2-0.5-0.3-0.8-0.5v0
							c0,0,0,0,0,0c0,0-0.1-0.1-0.1-0.1c-0.2-0.1-0.4-0.3-0.7-0.4c-0.2-0.1-0.3-0.3-0.5-0.4c-0.1-0.1-0.2-0.1-0.3-0.2
							c-0.1-0.1-0.2-0.2-0.4-0.3c-0.1-0.1-0.2-0.2-0.4-0.3v0c0,0,0,0,0,0c0,0,0,0,0,0c-0.2-0.2-0.4-0.4-0.7-0.6v0l-5.2-5.2l-1-1
							c0.6,0.6,1.1,1.3,1.6,2c0.1,0.2,0.2,0.3,0.3,0.4c0,0,0.1,0.1,0.1,0.1c0,0,0,0,0,0c0.1,0.1,0.1,0.2,0.2,0.3
							c0.1,0.2,0.2,0.3,0.3,0.5c0,0,0,0,0,0c0,0,0,0.1,0.1,0.1c0,0,0,0.1,0.1,0.1c0.1,0.2,0.2,0.3,0.3,0.5c0,0,0,0,0,0
							c0.1,0.1,0.1,0.3,0.2,0.4c0.1,0.1,0.1,0.3,0.2,0.4c0.2,0.4,0.3,0.7,0.4,1.1c0.1,0.2,0.2,0.4,0.2,0.6c0,0.1,0.1,0.3,0.1,0.4
							c0,0.1,0.1,0.3,0.1,0.4c0,0,0,0,0,0c0.1,0.2,0.1,0.4,0.2,0.6c0,0.1,0,0.1,0,0.2c0,0,0,0,0,0c0.1,0.3,0.1,0.6,0.2,0.9
							c0,0.2,0.1,0.5,0.1,0.7c0,0,0,0.1,0,0.1c0,0.2,0.1,0.4,0.1,0.7c0,0.2,0.1,0.4,0.1,0.7c0,0.2,0,0.4,0,0.7c0,0.2,0,0.5,0,0.7v0
							c0,0.3,0,0.6,0,1c0,0.3,0,0.5-0.1,0.8c0,0.1,0,0.1,0,0.2c0,0.1,0,0.2,0,0.3c0,0,0,0.1,0,0.1c0,0.1,0,0.2,0,0.3
							c0,0,0,0.1,0,0.1c0,0.1,0,0.1,0,0.2c0,0.1,0,0.1,0,0.2c0,0.2-0.1,0.4-0.1,0.6c0,0.1,0,0.1,0,0.2c-0.1,0.4-0.2,0.9-0.3,1.3
							c0,0.1-0.1,0.3-0.1,0.4c-0.1,0.3-0.2,0.6-0.3,0.9c0,0,0,0.1,0,0.1c-0.1,0.3-0.3,0.7-0.4,1c0,0,0,0,0,0.1
							c-0.2,0.4-0.4,0.7-0.6,1.1c-0.2,0.3-0.4,0.7-0.6,1c0,0-0.1,0.1-0.1,0.2c-0.2,0.3-0.4,0.6-0.6,0.9c-0.2,0.3-0.4,0.6-0.7,0.8
							c-0.1,0.1-0.1,0.2-0.2,0.2c-0.2,0.3-0.5,0.6-0.8,0.8c-0.2,0.2-0.4,0.4-0.7,0.6c-1.1,1-2.3,1.8-3.5,2.5
							c-1.5,0.8-3.1,1.4-4.7,1.8h0c-0.3,0.1-0.6,0.1-1,0.2c0,0,0,0,0,0c-1.4,0.2-2.8,0.3-4.2,0.2c-0.2,0-0.5,0-0.7-0.1
							c-0.3,0-0.7-0.1-1-0.2c-0.2,0-0.4-0.1-0.6-0.1c-0.2,0-0.4-0.1-0.6-0.1c-0.1,0-0.3-0.1-0.4-0.1c0,0,0,0,0,0
							c-0.4-0.1-0.8-0.2-1.2-0.4c-0.1,0-0.3-0.1-0.4-0.1c-0.4-0.1-0.8-0.3-1.2-0.5c-0.1,0-0.2-0.1-0.3-0.1h0c-0.5-0.2-1-0.5-1.5-0.8
							c-0.5-0.3-1-0.6-1.5-1c-0.1-0.1-0.2-0.2-0.4-0.3c-0.1-0.1-0.2-0.2-0.4-0.3c0,0-0.1,0-0.1-0.1c0,0-0.1,0-0.1-0.1
							c-0.4-0.4-0.8-0.7-1.2-1.1h0l-6.6-6.6l-6.9-7c0,0,0.1,0.1,0.1,0.1c0,0,0.1,0.1,0.1,0.1c0.1,0.1,0.2,0.2,0.3,0.3
							c0.2,0.3,0.5,0.6,0.7,0.8c0.1,0.1,0.1,0.2,0.2,0.3c0,0,0.1,0.1,0.1,0.1c0.2,0.2,0.4,0.5,0.5,0.7c0,0,0,0,0,0
							c0.2,0.3,0.4,0.6,0.6,0.9c0,0.1,0.1,0.2,0.1,0.3c0.2,0.3,0.3,0.5,0.4,0.8c0,0,0,0.1,0,0.1c0,0.1,0.1,0.1,0.1,0.2
							c0.1,0.2,0.1,0.3,0.2,0.5c0.1,0.2,0.2,0.4,0.2,0.6c0,0,0,0.1,0,0.1c0.1,0.2,0.2,0.4,0.2,0.7c0.1,0.3,0.2,0.6,0.3,0.9
							c0.1,0.2,0.1,0.4,0.2,0.6c0,0,0,0.1,0,0.1c0.1,0.5,0.2,1,0.3,1.5v0c0,0.2,0.1,0.5,0.1,0.7c0,0,0,0,0,0
							c0.1,0.8,0.1,1.5,0.1,2.3c0,0.3,0,0.7,0,1c0,0.2,0,0.3,0,0.5c0,0,0,0,0,0c0,0.2,0,0.3,0,0.5c0,0.1,0,0.2,0,0.3
							c0,0.1,0,0.2,0,0.2c0,0.1,0,0.3-0.1,0.4c-0.1,0.4-0.1,0.8-0.2,1.1c-0.1,0.4-0.2,0.8-0.3,1.3c-0.1,0.2-0.1,0.4-0.2,0.6
							c-0.1,0.2-0.1,0.4-0.2,0.6c-0.1,0.4-0.3,0.8-0.5,1.2c-0.1,0.2-0.2,0.4-0.3,0.6c-0.1,0.2-0.2,0.4-0.3,0.6
							c-0.1,0.2-0.2,0.3-0.3,0.5c-0.2,0.3-0.4,0.6-0.6,0.9c-0.1,0.1-0.2,0.3-0.3,0.4c-0.4,0.6-0.9,1.2-1.4,1.7
							c-0.1,0.1-0.2,0.2-0.3,0.4c-0.2,0.2-0.5,0.5-0.7,0.7c-0.3,0.3-0.6,0.6-0.9,0.8c-0.2,0.2-0.4,0.3-0.7,0.5
							c-0.1,0.1-0.1,0.1-0.2,0.1c-0.2,0.2-0.4,0.3-0.6,0.4c-0.7,0.4-1.4,0.8-2.1,1.2c-0.2,0.1-0.4,0.2-0.5,0.2v0c0,0,0,0,0,0
							c-0.3,0.1-0.6,0.2-0.9,0.4c-0.3,0.1-0.6,0.2-0.9,0.3c-0.3,0.1-0.6,0.2-0.9,0.3c-0.3,0.1-0.5,0.1-0.8,0.2c-0.1,0-0.2,0-0.2,0
							c-0.2,0-0.4,0.1-0.6,0.1c-0.2,0-0.3,0.1-0.5,0.1c-0.4,0-0.7,0.1-1.1,0.1c-0.2,0-0.4,0-0.5,0c-1.2,0-2.3,0-3.5-0.2
							c-0.3,0-0.6-0.1-0.9-0.2c0,0,0,0,0,0c-0.4-0.1-0.7-0.2-1.1-0.3c-0.3-0.1-0.5-0.1-0.8-0.2c-0.2-0.1-0.4-0.1-0.6-0.2
							c-0.1-0.1-0.3-0.1-0.4-0.2c-0.2-0.1-0.4-0.1-0.5-0.2c0,0,0,0,0,0c-0.3-0.1-0.6-0.2-0.8-0.4c-0.2-0.1-0.4-0.2-0.6-0.3
							c-0.2-0.1-0.4-0.2-0.6-0.3c-0.1-0.1-0.3-0.2-0.4-0.2c-0.3-0.1-0.5-0.3-0.8-0.5c-0.1-0.1-0.2-0.1-0.3-0.2
							c-0.3-0.2-0.5-0.4-0.8-0.6c-0.1-0.1-0.3-0.2-0.4-0.3c-0.3-0.2-0.5-0.4-0.7-0.6c0,0,0,0,0,0c-0.2-0.2-0.5-0.4-0.7-0.7h0
							l-8.9-8.5L332.6,440l-13.6-13c-12.7-12.5-22.2-27.9-27.7-44.7c-3.8-11.5-10.1-22-18.7-30.6l-18.8-18.9L183.2,262L70.8,149.3
							l48.4-83.8c1.1-2,2.4-3.8,3.8-5.6l129.9,130.6l70.7,71.1l14.2,14.3c11.2,11.2,27.4,16,42.7,11.8c25.7-7,54.4-0.3,74.6,20
							l11,11.1l1.5,1.5l9,9l9.5,9.6c0.3,0.3,0.5,0.5,0.8,0.8c0.2,0.3,0.5,0.5,0.7,0.8c0,0,0.1,0.1,0.1,0.1c0.2,0.3,0.4,0.6,0.7,0.9
							c0.2,0.3,0.4,0.6,0.6,0.9c0.2,0.3,0.4,0.6,0.6,0.9c0.2,0.3,0.4,0.6,0.5,1c0.4,0.7,0.7,1.5,1,2.3c0.1,0.2,0.2,0.5,0.3,0.7
							c0.1,0.2,0.2,0.5,0.2,0.7c0.1,0.3,0.2,0.7,0.3,1c0,0.1,0,0.1,0.1,0.2c0.1,0.3,0.2,0.6,0.2,0.9c0.5,2.6,0.6,5.3,0.2,7.9
							c-0.1,0.5-0.2,1.1-0.3,1.6c-0.3,1.1-0.6,2.2-1,3.2c-0.2,0.5-0.5,1-0.7,1.5c0,0,0,0,0,0c-0.3,0.5-0.5,1-0.8,1.5
							c-0.2,0.3-0.3,0.5-0.5,0.7c-0.2,0.2-0.3,0.5-0.5,0.7c-0.2,0.2-0.3,0.5-0.5,0.7c-0.2,0.2-0.3,0.4-0.5,0.6
							c-0.2,0.2-0.4,0.4-0.5,0.6c-0.2,0.2-0.4,0.4-0.6,0.6c-0.5,0.5-1,1-1.6,1.4c0,0,0,0,0,0c-0.5,0.4-1.1,0.9-1.7,1.2h0
							c-0.1,0.1-0.3,0.2-0.4,0.3c-0.4,0.3-0.9,0.6-1.4,0.8c0,0,0,0,0,0c0,0-0.1,0-0.1,0.1c0,0-0.1,0-0.1,0.1c-0.1,0-0.2,0.1-0.3,0.1
							c-0.1,0.1-0.3,0.2-0.4,0.2c-0.1,0-0.1,0.1-0.2,0.1c-0.1,0-0.1,0.1-0.2,0.1c-0.1,0-0.2,0.1-0.3,0.1c-0.2,0.1-0.3,0.1-0.5,0.2
							c-0.2,0.1-0.4,0.2-0.5,0.2c-0.2,0.1-0.4,0.1-0.5,0.2c-0.1,0-0.2,0.1-0.3,0.1c0,0-0.1,0-0.1,0c0,0,0,0,0,0
							c-0.1,0-0.2,0.1-0.2,0.1c-0.1,0-0.2,0-0.3,0.1c-0.1,0-0.3,0.1-0.5,0.1c-0.1,0-0.1,0-0.2,0c-0.3,0.1-0.5,0.1-0.8,0.2
							c0,0-0.1,0-0.1,0c-0.1,0-0.1,0-0.1,0c-0.3,0.1-0.7,0.1-1,0.2h0l0,0l14.2,14.3l0,0c0.1,0.1,0.2,0.2,0.3,0.3
							c0.1,0,0.1,0.1,0.2,0.2c0.1,0.1,0.1,0.1,0.2,0.2c0,0,0,0,0,0c0.3,0.3,0.5,0.5,0.7,0.8c0.1,0.1,0.1,0.1,0.2,0.2
							c0.2,0.2,0.4,0.5,0.5,0.7c0.1,0,0.1,0.1,0.1,0.2c0.1,0.2,0.3,0.4,0.4,0.5c0,0,0.1,0.1,0.1,0.1c0.1,0.1,0.2,0.3,0.2,0.4
							c0,0,0,0,0,0c0.2,0.3,0.3,0.5,0.4,0.8c0,0.1,0.1,0.2,0.1,0.3c0.1,0.2,0.2,0.4,0.3,0.5c0,0.1,0.1,0.1,0.1,0.2
							c0,0.1,0.1,0.2,0.1,0.2c0.1,0.1,0.1,0.3,0.2,0.4c0.1,0.3,0.2,0.6,0.3,0.8l0,0c0.2,0.5,0.4,1.1,0.5,1.7
							c0.1,0.3,0.1,0.5,0.2,0.8c0,0,0,0.1,0,0.1c0,0.3,0.1,0.5,0.1,0.8c0,0.2,0.1,0.5,0.1,0.7c0,0.2,0,0.4,0.1,0.7
							c0,0.2,0,0.3,0,0.5C494.1,402.4,494.1,402.7,494.1,402.9z"/>
					</g>
				</g>
			</g>
			<g>
				<g>
					<g>
						<path class="st15" d="M463,415.5l-6.5-6.6c7.2,7.3,7.1,19.1-0.5,26.2c-7.2,6.7-18.5,6.2-25.4-0.8l-6.6-6.6
							c3.5,3.5,5.3,8.2,5.3,12.9c0,4.7-1.8,9.3-5.3,12.9c-7.1,7.1-18.5,7.1-25.6,0l-13.7-13.8c7.2,7.3,7.1,19.1-0.5,26.2
							c-7.2,6.7-18.5,6.2-25.4-0.8l-15.3-15.1c6.9,4,16.2,2.9,22.2-2.7c7.5-7,7.7-18.9,0.5-26.2l13.7,13.8c7.1,7.1,18.5,7.1,25.6,0
							c3.5-3.5,5.3-8.2,5.3-12.9c0-4.7-1.8-9.3-5.3-12.9l6.6,6.6c6.9,7,18.2,7.5,25.4,0.8c7.5-7.1,7.7-18.9,0.5-26.2l6.5,6.6
							c6.9,7,18.2,7.5,25.4,0.8c7.5-7.1,7.7-18.9,0.5-26.2l18.5,18.6c7.2,7.3,7.1,19.1-0.5,26.2C481.2,423,469.9,422.5,463,415.5
							L463,415.5z"/>
						<path class="st15" d="M474.6,375.8l-18.5-18.6c5.3-0.9,10.4-3.7,13.9-8.5c6.4-8.7,5.2-20.8-2.4-28.5l18.5,18.6
							c7.6,7.6,8.8,19.8,2.4,28.5C485,372,479.9,374.9,474.6,375.8z"/>
					</g>
				</g>
			</g>
			<g>
				<path class="st15" d="M493.7,406.9l-43.5-43.8c-3.3-3.3-3.3-8.6,0-11.9c3.3-3.3,8.6-3.3,11.9,0l21.1,21.2
					c-2.6,1.8-5.5,2.9-8.5,3.3l14.3,14.3C493.4,394.6,495,401,493.7,406.9L493.7,406.9z"/>
			</g>
			<g>
				<path class="st15" d="M415.1,458.3c-5.8,1.3-12.2-0.3-16.7-4.9l-13.8-13.8c4.5,4.6,6.2,11,4.9,16.8l-22.6-22.7
					c-3.3-3.3-3.3-8.6,0-11.9c3.3-3.3,8.6-3.3,11.9,0L415.1,458.3z"/>
			</g>
			<g>
				<path class="st15" d="M447.5,439.5c-5.9,1.2-12.4-0.6-17-5.1l-6.6-6.6c3.5,3.5,5.3,8.2,5.3,12.8c0,1.3-0.1,2.7-0.4,4L392.5,408
					c-3.3-3.3-3.3-8.6,0-11.9c3.3-3.3,8.6-3.3,11.9,0L447.5,439.5z"/>
			</g>
			<g>
				<path class="st15" d="M479.9,420.6c-5.9,1.2-12.4-0.6-17-5.1l-6.5-6.6c4.5,4.6,6.2,10.9,4.9,16.8l-43.2-43.4
					c-3.3-3.3-3.3-8.6,0-11.9c3.3-3.3,8.6-3.3,11.9,0L479.9,420.6z"/>
			</g>
		</g>
	</g>
</g>
</svg>
