<?xml version="1.0" encoding="utf-8"?>
<!-- Generator: Adobe Illustrator 24.0.1, SVG Export Plug-In . SVG Version: 6.00 Build 0)  -->
<svg version="1.1" id="Layer_1" xmlns="http://www.w3.org/2000/svg" xmlns:xlink="http://www.w3.org/1999/xlink" x="0px" y="0px"
	 viewBox="0 0 512 512" style="enable-background:new 0 0 512 512;" xml:space="preserve">
<style type="text/css">
	.st0{display:none;}
	.st1{display:inline;fill:#200A7F;stroke:#18E5EA;stroke-width:20;stroke-miterlimit:10;}
	.st2{display:inline;fill:#EF0B79;}
	.st3{display:inline;fill:#18E5EA;}
	.st4{display:inline;}
	.st5{fill:#E9F21C;}
	.st6{display:inline;fill:none;}
	.st7{display:inline;fill:#EF3A24;}
	.st8{font-family:'MyriadPro-Regular';}
	.st9{font-size:250px;}
	.st10{display:inline;fill:#FFFFFF;}
	.st11{fill:#C4C6C8;}
	.st12{fill:url(#SVGID_1_);}
	.st13{fill:url(#SVGID_2_);stroke:#E8E8E8;stroke-width:3;stroke-miterlimit:10;}
	.st14{fill:#969FAA;}
	.st15{fill:#AAB2BD;}
	.st16{fill:#CCD1D9;}
	.st17{fill:#FFC729;}
	.st18{fill:#838F9B;}
	.st19{fill:#FCD770;}
</style>
<g id="Layer_3" class="st0">
	<path class="st1" d="M401.1,212.2c5.1,15.3,7.9,31.7,7.9,48.8c0,85.3-69.2,154.5-154.5,154.5S100,346.3,100,261
		s69.2-154.5,154.5-154.5c51.2,0,96.6,24.9,124.7,63.3"/>
	<path class="st2" d="M333.4,255.2c0,4.2-3.3,7.7-7.4,7.7H174.9c-4.1,0-7.4-3.4-7.4-7.7l0,0c0-4.2,3.3-7.7,7.4-7.7H326
		C330.1,247.5,333.4,250.9,333.4,255.2L333.4,255.2z"/>
	<path class="st2" d="M333.4,284.8c0,4.2-3.3,7.6-7.4,7.6H174.9c-4.1,0-7.4-3.4-7.4-7.6l0,0c0-4.2,3.3-7.6,7.4-7.6H326
		C330.1,277.1,333.4,280.6,333.4,284.8L333.4,284.8z"/>
	<path class="st2" d="M333.4,313c0,4.2-3.3,7.7-7.4,7.7H174.9c-4.1,0-7.4-3.4-7.4-7.7l0,0c0-4.2,3.3-7.6,7.4-7.6H326
		C330.1,305.4,333.4,308.8,333.4,313L333.4,313z"/>
	<path class="st2" d="M333.4,338.4c0,4.2-3.3,7.7-7.4,7.7H174.9c-4.1,0-7.4-3.4-7.4-7.7l0,0c0-4.2,3.3-7.6,7.4-7.6H326
		C330.1,330.7,333.4,334.1,333.4,338.4L333.4,338.4z"/>
	<polygon class="st3" points="395,191.5 320.2,165.2 380.4,113.5 	"/>
	<g class="st4">
		<g>
			<g>
				<path class="st5" d="M241.5,239.2c-2.3,0-4.4-1.1-5.8-2.9l-18.8-24.8c-2.4-3.2-1.8-7.8,1.4-10.3c3.2-2.4,7.8-1.8,10.3,1.4
					l12.3,16.3l31-49.8c2.1-3.4,6.6-4.5,10.1-2.3c3.4,2.1,4.5,6.6,2.3,10.1l-36.7,58.9c-1.3,2-3.5,3.3-5.9,3.4
					C241.7,239.2,241.6,239.2,241.5,239.2z"/>
			</g>
		</g>
	</g>
</g>
<g id="Layer_2_2_" class="st0">
	<rect x="121" y="171.5" class="st6" width="298" height="251"/>
	<text transform="matrix(1 0 0 1 121 348.9979)" class="st7 st8 st9">24</text>
	<circle class="st10" cx="138.3" cy="91.8" r="17.3"/>
	<circle class="st10" cx="185.3" cy="91.8" r="17.3"/>
	<circle class="st10" cx="232.3" cy="91.8" r="17.3"/>
	<circle class="st10" cx="278.3" cy="91.8" r="17.3"/>
	<circle class="st10" cx="323.3" cy="91.8" r="17.3"/>
	<circle class="st10" cx="368.3" cy="91.8" r="17.3"/>
</g>
<g>
	<path class="st11" d="M350.3,54.5H161.7c-17.9,0-34.5,9.6-43.4,25.1L24,242.9c-9,15.5-9,34.6,0,50.2l94.3,163.3
		c9,15.5,25.5,25.1,43.4,25.1h188.5c17.9,0,34.5-9.6,43.4-25.1L488,293.1c9-15.5,9-34.6,0-50.2L393.7,79.6
		C384.8,64.1,368.2,54.5,350.3,54.5z"/>
</g>
<g>
	<linearGradient id="SVGID_1_" gradientUnits="userSpaceOnUse" x1="18.15" y1="253.95" x2="495.6125" y2="253.95">
		<stop  offset="5.618000e-03" style="stop-color:#8AD0C3"/>
		<stop  offset="0.5" style="stop-color:#00B6A9"/>
		<stop  offset="1" style="stop-color:#00A185"/>
	</linearGradient>
	<path class="st12" d="M491.1,274.8c-0.7,1.4-1.4,2.9-2.2,4.3l-94.3,163.3c-0.5,1-1.1,1.9-1.7,2.8c-8.3,12.4-21.7,20.5-36.5,22
		c-1.7,0.2-3.4,0.3-5.2,0.3H162.6c-17.9,0-34.5-9.6-43.5-25.1l-15.3-26.6l-70.4-122L24.9,279c-9-15.5-9-34.6,0-50.2l6.5-11.3
		l22.3-38.6l65.5-113.4c9-15.5,25.5-25.1,43.5-25.1h188.5c17.9,0,34.5,9.6,43.5,25.1l20.7,35.9l6.3,10.9l25.3,43.8l2.4,4.2l5.5,9.6
		l7,12l27.1,47c1.2,2,2.2,4.1,3,6.2C497.1,247.9,496.8,262.3,491.1,274.8z"/>
	<linearGradient id="SVGID_2_" gradientUnits="userSpaceOnUse" x1="18.15" y1="253.95" x2="495.6125" y2="253.95">
		<stop  offset="5.618000e-03" style="stop-color:#8AD0C3"/>
		<stop  offset="0.5" style="stop-color:#00B6A9"/>
		<stop  offset="1" style="stop-color:#00A185"/>
	</linearGradient>
	<path class="st13" d="M491.1,274.8c-0.7,1.4-1.4,2.9-2.2,4.3l-94.3,163.3c-0.5,1-1.1,1.9-1.7,2.8c-8.3,12.4-21.7,20.5-36.5,22
		c-1.7,0.2-3.4,0.3-5.2,0.3H162.6c-17.9,0-34.5-9.6-43.5-25.1l-15.3-26.6l-70.4-122L24.9,279c-9-15.5-9-34.6,0-50.2l6.5-11.3
		l22.3-38.6l65.5-113.4c9-15.5,25.5-25.1,43.5-25.1h188.5c17.9,0,34.5,9.6,43.5,25.1l20.7,35.9l6.3,10.9l25.3,43.8l2.4,4.2l5.5,9.6
		l7,12l27.1,47c1.2,2,2.2,4.1,3,6.2C497.1,247.9,496.8,262.3,491.1,274.8z"/>
</g>
<g>
	<g>
		<g>
			<path class="st14" d="M325,260.7h-5.5h0l-3,0.6l-15.6,3.3l-6.1,34.4h21.7h8.5c4.7,0,8.5-3.8,8.5-8.5v-21.3
				C333.6,264.5,329.7,260.7,325,260.7L325,260.7z"/>
		</g>
		<g>
			<path class="st15" d="M376,160.9c1,4.6-2,9.1-6.6,10.1l-18.9,4l-4.1-16.6l19.5-4.2c0.6-0.1,1.2-0.2,1.8-0.2
				C371.6,154.2,375.1,157.1,376,160.9L376,160.9z"/>
		</g>
		<g>
			<path class="st16" d="M346.4,158.5l4.1,16.6l-26.7,5.7c-5.1,1.1-9,5.1-9.9,10.3l-7,39.8l-5.9,33.8l-6.1,34.4l-2.1,12.1
				c-5.2-2.1-10.8-3.3-16.7-3.5v0l5.2-29.9l15.8-89.6c2.1-12,11.2-21.4,23.1-24L346.4,158.5z"/>
		</g>
		<g>
			<path class="st17" d="M146.1,192.5v4.3V299v4.3c0,2.3-1.9,4.3-4.3,4.3h-8.5c-2.3,0-4.3-1.9-4.3-4.3V192.5c0-2.3,1.9-4.3,4.3-4.3
				h8.5C144.2,188.3,146.1,190.2,146.1,192.5z"/>
		</g>
		<g>
			<path class="st15" d="M167.4,341.6h58.3c-1.9,5.3-2.9,11.1-2.9,17c0,6,1,11.7,2.9,17h-58.3c-4.7,0-8.9-1.9-12.1-5
				c-3.1-3.1-5-7.4-5-12.1C150.4,349.3,158,341.6,167.4,341.6z"/>
		</g>
		<g>
			<path class="st15" d="M350.6,341.6c9.4,0,17,7.6,17,17c0,4.7-1.9,8.9-5,12.1c-3.1,3.1-7.4,5-12.1,5h-28.5
				c1.9-5.3,2.9-11.1,2.9-17c0-6-1-11.7-2.9-17H350.6z"/>
		</g>
		<g>
			<path class="st18" d="M322.1,341.6c1.9,5.3,2.9,11.1,2.9,17c0,6-1,11.7-2.9,17c-7,19.9-25.9,34.1-48.2,34.1s-41.2-14.2-48.2-34.1
				c-1.9-5.3-2.9-11.1-2.9-17c0-6,1-11.7,2.9-17c2.5-7.1,6.5-13.4,11.6-18.7h0c7.1-7.2,16.3-12.4,26.6-14.4c3.2-0.6,6.6-1,10-1
				c0.7,0,1.4,0,2.1,0.1c5.9,0.2,11.5,1.4,16.7,3.5C306.4,316.5,317.2,327.7,322.1,341.6z M299.5,358.7c0-14.1-11.5-25.6-25.6-25.6
				s-25.6,11.5-25.6,25.6s11.5,25.6,25.6,25.6S299.5,372.8,299.5,358.7z"/>
		</g>
		<g>
			<path class="st16" d="M273.9,333.1c14.1,0,25.6,11.5,25.6,25.6s-11.5,25.6-25.6,25.6s-25.6-11.5-25.6-25.6
				S259.8,333.1,273.9,333.1z M282.4,358.7c0-4.7-3.8-8.5-8.5-8.5c-4.7,0-8.5,3.8-8.5,8.5c0,4.7,3.8,8.5,8.5,8.5
				C278.6,367.2,282.4,363.4,282.4,358.7z"/>
		</g>
		<g>
			<path class="st19" d="M188.7,176.4v143c-7.8-2.3-15.3-5.5-22.5-9.4L146.1,299V196.8l20.1-10.9
				C173.4,181.9,180.9,178.8,188.7,176.4L188.7,176.4z"/>
		</g>
		<g>
			<path class="st19" d="M282.4,230.2v35.5c0,4.1-0.4,8.1-1.2,12.1c-2.5,11.8-8.5,22.5-17.3,30.8c-10.3,2-19.5,7.2-26.6,14.4h0
				c-4.5,1.1-9.1,1.7-13.8,1.7c-3.1,0-6.2-0.1-9.2-0.4V171.6c3.1-0.3,6.2-0.4,9.2-0.4c10.7,0,21.2,2.9,30.3,8.4
				C271.6,190.3,282.4,209.5,282.4,230.2z"/>
		</g>
		<g>
			<path class="st17" d="M214.3,171.6v152.6c-8.7-0.6-17.3-2.3-25.6-4.8v-143c1.7-0.6,3.5-1,5.2-1.5
				C200.6,173.3,207.4,172.1,214.3,171.6L214.3,171.6z"/>
		</g>
	</g>
	<g>
		<path d="M261.1,358.7c0,7,5.7,12.8,12.8,12.8s12.8-5.7,12.8-12.8c0-7-5.7-12.8-12.8-12.8S261.1,351.6,261.1,358.7z M278.2,358.7
			c0,2.3-1.9,4.3-4.3,4.3s-4.3-1.9-4.3-4.3c0-2.3,1.9-4.3,4.3-4.3S278.2,356.3,278.2,358.7z"/>
		<path d="M244.1,358.7c0,16.4,13.4,29.8,29.8,29.8s29.8-13.4,29.8-29.8s-13.4-29.8-29.8-29.8S244.1,342.2,244.1,358.7z
			 M295.2,358.7c0,11.7-9.6,21.3-21.3,21.3s-21.3-9.6-21.3-21.3c0-11.7,9.6-21.3,21.3-21.3S295.2,346.9,295.2,358.7z"/>
		<path d="M342.1,328.9h46.9v-8.5h-46.9c-7,0-12.8-5.7-12.8-12.8v-5c4.9-1.8,8.5-6.4,8.5-12v-21.3c0-2.8-0.9-5.4-2.5-7.5l18.1-3.9
			c5.8-1.3,9.9-6.5,9.9-12.5v-6c0-7-5.7-12.8-12.8-12.8H312l6.1-34.8c0.6-3.4,3.2-6.1,6.6-6.8l45.6-9.8c6.9-1.5,11.3-8.3,9.8-15.2
			c-1.4-6.7-8.3-11.3-15.2-9.8l-45.6,9.8c-13.6,2.9-24,13.7-26.4,27.4l-6.5,37c-1.9-19.9-13.1-38-30.4-48.4c-9.8-5.9-21.1-9-32.5-9
			c-20.7,0-41.2,5.2-59.4,15.1l-14.2,7.8c-1.1-3.4-4.3-5.9-8.1-5.9h-8.5c-4.7,0-8.5,3.8-8.5,8.5v110.8c0,4.7,3.8,8.5,8.5,8.5h8.5
			c3.8,0,6.9-2.5,8.1-5.9l14.2,7.8c18.2,9.9,38.7,15.1,59.4,15.1c1.3,0,2.6-0.2,3.9-0.2c-1.8,2.8-3.4,5.7-4.7,8.8h-55.4
			c-11.7,0-21.3,9.6-21.3,21.3c0,11.7,9.6,21.3,21.3,21.3h55.4c8.4,20,28.1,34.1,51.1,34.1c23,0,42.7-14.1,51.1-34.1h25.6
			c11.7,0,21.3-9.6,21.3-21.3c0-11.7-9.6-21.3-21.3-21.3H325c-5.3-12.7-15.2-22.9-27.5-28.7l0.9-5.3h22.4v4.3
			C320.8,319.3,330.3,328.9,342.1,328.9L342.1,328.9z M329.3,290.5c0,2.3-1.9,4.3-4.3,4.3h-4.3V265h4.3c2.3,0,4.3,1.9,4.3,4.3V290.5
			z M304.6,268.2l7.6-1.6v11.1h-9.3L304.6,268.2z M350.6,235.1c2.3,0,4.3,1.9,4.3,4.3v6c0,2-1.4,3.7-3.2,4.1l-45.4,9.6l4.2-24H350.6
			z M366.7,158.6c2.3-0.5,4.6,1,5.1,3.3c0.5,2.3-1,4.6-3.3,5.1l-14.9,3.2l-2.1-8.3L366.7,158.6z M210,176.3v143.2
			c-5.8-0.7-11.5-1.8-17-3.3V179.7C198.6,178.1,204.3,177,210,176.3z M133.3,303.3V192.5h8.5l0,110.8H133.3z M150.4,296.5v-97.2
			l17.8-9.7c5.2-2.8,10.7-5.2,16.2-7.2v131.1c-5.6-2-11-4.4-16.2-7.2L150.4,296.5z M218.5,320.2V175.7c1.7-0.1,3.3-0.2,5-0.2
			c9.9,0,19.6,2.7,28.1,7.8c16.4,9.8,26.5,27.8,26.5,46.9v35.5c0,14.6-6,28.8-16.4,39c-10.1,2.3-19.2,7.3-26.4,14.3
			c-3.9,0.9-7.9,1.4-11.9,1.4C221.9,320.3,220.2,320.3,218.5,320.2L218.5,320.2z M167.4,371.5c-7,0-12.8-5.7-12.8-12.8
			s5.7-12.8,12.8-12.8h52.7c-1,4.1-1.5,8.4-1.5,12.8s0.6,8.7,1.5,12.8H167.4z M350.6,345.9c7,0,12.8,5.7,12.8,12.8
			s-5.7,12.8-12.8,12.8h-22.8c1-4.1,1.5-8.4,1.5-12.8s-0.6-8.7-1.5-12.8H350.6z M320.8,358.7c0,25.8-21,46.9-46.9,46.9
			s-46.9-21-46.9-46.9s21-46.9,46.9-46.9S320.8,332.8,320.8,358.7z M281,303.8l20.3-114.9c1.8-10.3,9.6-18.4,19.8-20.5l22.1-4.7
			l2.1,8.3l-22.4,4.8c-6.8,1.5-12,6.8-13.2,13.7l-20.3,115.2C286.7,304.7,283.9,304.2,281,303.8z M301.4,286.3h10.8v8.5h-12.3
			L301.4,286.3z"/>
	</g>
</g>
</svg>
