<?xml version="1.0" encoding="utf-8"?>
<!-- Generator: Adobe Illustrator 24.0.1, SVG Export Plug-In . SVG Version: 6.00 Build 0)  -->
<svg version="1.1" id="Layer_1" xmlns="http://www.w3.org/2000/svg" xmlns:xlink="http://www.w3.org/1999/xlink" x="0px" y="0px"
	 viewBox="0 0 512 512" style="enable-background:new 0 0 512 512;" xml:space="preserve">
<style type="text/css">
	.st0{display:none;}
	.st1{display:inline;fill:#200A7F;stroke:#18E5EA;stroke-width:20;stroke-miterlimit:10;}
	.st2{display:inline;fill:#EF0B79;}
	.st3{display:inline;fill:#18E5EA;}
	.st4{display:inline;}
	.st5{fill:#E9F21C;}
	.st6{display:inline;fill:none;}
	.st7{display:inline;fill:#EF3A24;}
	.st8{font-family:'MyriadPro-Regular';}
	.st9{font-size:250px;}
	.st10{display:inline;fill:#FFFFFF;}
	.st11{fill:#C4C6C8;}
	.st12{fill:url(#SVGID_1_);}
	.st13{fill:url(#SVGID_2_);stroke:#E8E8E8;stroke-width:3;stroke-miterlimit:10;}
	.st14{fill:#35495E;}
	.st15{fill:#2C3E50;}
	.st16{fill:#F9EAB0;}
	.st17{fill:#E64C3C;}
	.st18{fill:#3F5C6C;}
	.st19{fill:#ECF0F1;}
	.st20{fill:#C03A2B;}
	.st21{fill:#802F34;}
</style>
<g id="Layer_3" class="st0">
	<path class="st1" d="M401.1,212.2c5.1,15.3,7.9,31.7,7.9,48.8c0,85.3-69.2,154.5-154.5,154.5S100,346.3,100,261
		s69.2-154.5,154.5-154.5c51.2,0,96.6,24.9,124.7,63.3"/>
	<path class="st2" d="M333.4,255.2c0,4.2-3.3,7.7-7.4,7.7H174.9c-4.1,0-7.4-3.4-7.4-7.7l0,0c0-4.2,3.3-7.7,7.4-7.7H326
		C330.1,247.5,333.4,250.9,333.4,255.2L333.4,255.2z"/>
	<path class="st2" d="M333.4,284.8c0,4.2-3.3,7.6-7.4,7.6H174.9c-4.1,0-7.4-3.4-7.4-7.6l0,0c0-4.2,3.3-7.6,7.4-7.6H326
		C330.1,277.1,333.4,280.6,333.4,284.8L333.4,284.8z"/>
	<path class="st2" d="M333.4,313c0,4.2-3.3,7.7-7.4,7.7H174.9c-4.1,0-7.4-3.4-7.4-7.7l0,0c0-4.2,3.3-7.6,7.4-7.6H326
		C330.1,305.4,333.4,308.8,333.4,313L333.4,313z"/>
	<path class="st2" d="M333.4,338.4c0,4.2-3.3,7.7-7.4,7.7H174.9c-4.1,0-7.4-3.4-7.4-7.7l0,0c0-4.2,3.3-7.6,7.4-7.6H326
		C330.1,330.7,333.4,334.1,333.4,338.4L333.4,338.4z"/>
	<polygon class="st3" points="395,191.5 320.2,165.2 380.4,113.5 	"/>
	<g class="st4">
		<g>
			<g>
				<path class="st5" d="M241.5,239.2c-2.3,0-4.4-1.1-5.8-2.9l-18.8-24.8c-2.4-3.2-1.8-7.8,1.4-10.3c3.2-2.4,7.8-1.8,10.3,1.4
					l12.3,16.3l31-49.8c2.1-3.4,6.6-4.5,10.1-2.3c3.4,2.1,4.5,6.6,2.3,10.1l-36.7,58.9c-1.3,2-3.5,3.3-5.9,3.4
					C241.7,239.2,241.6,239.2,241.5,239.2z"/>
			</g>
		</g>
	</g>
</g>
<g id="Layer_2_2_" class="st0">
	<rect x="121" y="171.5" class="st6" width="298" height="251"/>
	<text transform="matrix(1 0 0 1 121 348.9979)" class="st7 st8 st9">24</text>
	<circle class="st10" cx="138.3" cy="91.8" r="17.3"/>
	<circle class="st10" cx="185.3" cy="91.8" r="17.3"/>
	<circle class="st10" cx="232.3" cy="91.8" r="17.3"/>
	<circle class="st10" cx="278.3" cy="91.8" r="17.3"/>
	<circle class="st10" cx="323.3" cy="91.8" r="17.3"/>
	<circle class="st10" cx="368.3" cy="91.8" r="17.3"/>
</g>
<g>
	<path class="st11" d="M350.3,54.5H161.7c-17.9,0-34.5,9.6-43.4,25.1L24,242.9c-9,15.5-9,34.6,0,50.2l94.3,163.3
		c9,15.5,25.5,25.1,43.4,25.1h188.5c17.9,0,34.5-9.6,43.4-25.1L488,293.1c9-15.5,9-34.6,0-50.2L393.7,79.6
		C384.8,64.1,368.2,54.5,350.3,54.5z"/>
</g>
<g>
	
		<radialGradient id="SVGID_1_" cx="256.8813" cy="-78.05" r="226.4908" gradientTransform="matrix(1 0 0 1 0 332)" gradientUnits="userSpaceOnUse">
		<stop  offset="0" style="stop-color:#76723E"/>
		<stop  offset="2.488233e-02" style="stop-color:#837241"/>
		<stop  offset="0.1235" style="stop-color:#B3734B"/>
		<stop  offset="0.1989" style="stop-color:#D17352"/>
		<stop  offset="0.2416" style="stop-color:#DC7354"/>
		<stop  offset="0.3063" style="stop-color:#E38444"/>
		<stop  offset="0.4722" style="stop-color:#F2AC21"/>
		<stop  offset="0.6043" style="stop-color:#FCC40B"/>
		<stop  offset="0.6854" style="stop-color:#FFCD03"/>
		<stop  offset="0.8146" style="stop-color:#DC7354"/>
		<stop  offset="1" style="stop-color:#942E40"/>
	</radialGradient>
	<path class="st12" d="M491.1,274.8c-0.7,1.4-1.4,2.9-2.2,4.3l-94.3,163.3c-0.5,1-1.1,1.9-1.7,2.8c-8.3,12.4-21.7,20.5-36.5,22
		c-1.7,0.2-3.4,0.3-5.2,0.3H162.6c-17.9,0-34.5-9.6-43.5-25.1l-15.3-26.6l-70.4-122L24.9,279c-9-15.5-9-34.6,0-50.2l6.5-11.3
		l22.3-38.6l65.5-113.4c9-15.5,25.5-25.1,43.5-25.1h188.5c17.9,0,34.5,9.6,43.5,25.1l20.7,35.9l6.3,10.9l25.3,43.8l2.4,4.2l5.5,9.6
		l7,12l27.1,47c1.2,2,2.2,4.1,3,6.2C497.1,247.9,496.8,262.3,491.1,274.8z"/>
	<radialGradient id="SVGID_2_" cx="256.8813" cy="253.95" r="226.4908" gradientUnits="userSpaceOnUse">
		<stop  offset="0" style="stop-color:#76723E"/>
		<stop  offset="2.488233e-02" style="stop-color:#837241"/>
		<stop  offset="0.1235" style="stop-color:#B3734B"/>
		<stop  offset="0.1989" style="stop-color:#D17352"/>
		<stop  offset="0.2416" style="stop-color:#DC7354"/>
		<stop  offset="0.3063" style="stop-color:#E38444"/>
		<stop  offset="0.4722" style="stop-color:#F2AC21"/>
		<stop  offset="0.6043" style="stop-color:#FCC40B"/>
		<stop  offset="0.6854" style="stop-color:#FFCD03"/>
		<stop  offset="0.8146" style="stop-color:#DC7354"/>
		<stop  offset="1" style="stop-color:#942E40"/>
	</radialGradient>
	<path class="st13" d="M491.1,274.8c-0.7,1.4-1.4,2.9-2.2,4.3l-94.3,163.3c-0.5,1-1.1,1.9-1.7,2.8c-8.3,12.4-21.7,20.5-36.5,22
		c-1.7,0.2-3.4,0.3-5.2,0.3H162.6c-17.9,0-34.5-9.6-43.5-25.1l-15.3-26.6l-70.4-122L24.9,279c-9-15.5-9-34.6,0-50.2l6.5-11.3
		l22.3-38.6l65.5-113.4c9-15.5,25.5-25.1,43.5-25.1h188.5c17.9,0,34.5,9.6,43.5,25.1l20.7,35.9l6.3,10.9l25.3,43.8l2.4,4.2l5.5,9.6
		l7,12l27.1,47c1.2,2,2.2,4.1,3,6.2C497.1,247.9,496.8,262.3,491.1,274.8z"/>
</g>
<g id="Page-1">
	<g id="_x30_30---Messy-Books">
		<path id="Shape" class="st14" d="M166.1,341.2l-21.4-121.5c-0.2-1.2-0.3-2.4-0.4-3.5c-0.3-13.8,9.6-25.7,23.2-27.9l41.3-7.3
			l-1.1,160.2H166.1z"/>
		<path id="Shape_1_" class="st15" d="M325,335.9c-0.7,3-3.1,5.2-6.1,5.8l-121.5,21.4c-7.7,1.3-15.5-0.7-21.6-5.6
			s-9.7-12.1-10.1-19.9c-0.3-13.2,8.8-24.7,21.6-27.5l34,9.6h0l-30.6,5.4c-3.4,0.6-6.4,2.7-8.1,5.7s-2,6.7-0.7,9.9
			c2.2,5.2,7.7,8.2,13.3,7.1l92.9-16.4L325,335.9z"/>
		<path id="Shape_2_" class="st16" d="M221.4,319.7l-30.6,5.4c-3.4,0.6-6.4,2.7-8.1,5.7s-2,6.7-0.7,9.9c2.2,5.2,7.7,8.2,13.3,7.1
			l92.9-16.4L221.4,319.7z"/>
		<path id="Shape_3_" class="st17" d="M193.5,267.8l21.4-121.5c0.8-4.2,4.7-7,8.9-6.3l120.6,21.3c13.6,2.2,23.5,14.1,23.2,27.9
			c-0.1,1.2-0.2,2.4-0.4,3.5l-21.4,121.5L193.5,267.8z"/>
		<path id="Shape_4_" class="st18" d="M319.3,180.3c-0.2,0-0.5,0-0.7-0.1l-87.3-15.4c-2-0.5-3.2-2.4-2.9-4.4c0.4-2,2.2-3.4,4.2-3.2
			l87.3,15.4c2,0.3,3.3,2.1,3.2,4.1C322.9,178.8,321.3,180.3,319.3,180.3L319.3,180.3z"/>
		<path id="Shape_5_" class="st18" d="M300.7,196.6c-0.2,0-0.5,0-0.7-0.1l-57-10c-2-0.4-3.4-2.4-3-4.4c0.4-2.1,2.3-3.5,4.4-3.1
			l57,10c2,0.3,3.4,2.1,3.2,4.1C304.4,195.1,302.7,196.6,300.7,196.6z"/>
		<path id="Rectangle-path" class="st19" d="M229,199.7l79.7,14.1c2.1,0.4,3.5,2.4,3.1,4.5l-6.7,38c-0.4,2.1-2.4,3.5-4.5,3.1
			L221,245.3c-2.1-0.4-3.5-2.4-3.1-4.5l6.7-38C224.9,200.7,226.9,199.3,229,199.7z"/>
		<path id="Shape_6_" class="st20" d="M367.6,189.2c0,1.2-0.2,2.4-0.4,3.5l-21.4,121.5l-29.7-9.1l17.2-97.7l4.1-23.1l4.2-23.6
			l2.9,0.5C358.1,163.5,368,175.4,367.6,189.2L367.6,189.2z"/>
		<path id="Shape_7_" class="st21" d="M323,282.8l-120.6-21.2c-0.4-0.1-0.9-0.1-1.3-0.1c-4,0-7.3,3.1-7.7,7.1
			c-0.3,4,2.4,7.6,6.4,8.3l121.5,21.4c3.4,0.6,6.4,2.7,8.1,5.8s1.9,6.7,0.7,9.9c-2.2,5.2-7.7,8.1-13.2,7.1l-121-21.3
			c-0.4-0.1-0.9-0.1-1.3-0.1c-4,0-7.3,3-7.7,7c-0.4,4,2.4,7.6,6.4,8.3l121.5,21.4c7.7,1.3,15.5-0.7,21.6-5.5
			c6.1-4.9,9.7-12.1,10.1-19.9C346.6,296.9,336.7,285,323,282.8L323,282.8z"/>
		<path id="Shape_8_" class="st16" d="M330,313.8c-2.2,5.2-7.7,8.1-13.2,7.1l-121-21.3l4-22.8l121.5,21.4c3.4,0.6,6.4,2.7,8.1,5.8
			S331.3,310.6,330,313.8L330,313.8z"/>
	</g>
</g>
</svg>
