<?xml version="1.0" encoding="utf-8"?>
<!-- Generator: Adobe Illustrator 24.0.1, SVG Export Plug-In . SVG Version: 6.00 Build 0)  -->
<svg version="1.1" id="Layer_1" xmlns="http://www.w3.org/2000/svg" xmlns:xlink="http://www.w3.org/1999/xlink" x="0px" y="0px"
	 viewBox="0 0 512 512" style="enable-background:new 0 0 512 512;" xml:space="preserve">
<style type="text/css">
	.st0{display:none;}
	.st1{display:inline;fill:#200A7F;stroke:#18E5EA;stroke-width:20;stroke-miterlimit:10;}
	.st2{display:inline;fill:#EF0B79;}
	.st3{display:inline;fill:#18E5EA;}
	.st4{display:inline;}
	.st5{fill:#E9F21C;}
	.st6{display:inline;fill:none;}
	.st7{display:inline;fill:#EF3A24;}
	.st8{font-family:'MyriadPro-Regular';}
	.st9{font-size:250px;}
	.st10{display:inline;fill:#FFFFFF;}
	.st11{fill:#C4C6C8;}
	.st12{fill:url(#SVGID_1_);}
	.st13{fill:url(#SVGID_2_);stroke:#E8E8E8;stroke-width:3;stroke-miterlimit:10;}
	.st14{fill:none;stroke:#000000;stroke-width:9;stroke-miterlimit:10;}
	.st15{fill:#FFFFFF;}
	.st16{fill:url(#SVGID_3_);}
	.st17{fill:url(#SVGID_4_);}
	.st18{fill:url(#SVGID_5_);}
	.st19{fill:url(#SVGID_6_);}
</style>
<g id="Layer_3" class="st0">
	<path class="st1" d="M401.1,212.2c5.1,15.3,7.9,31.7,7.9,48.8c0,85.3-69.2,154.5-154.5,154.5S100,346.3,100,261
		s69.2-154.5,154.5-154.5c51.2,0,96.6,24.9,124.7,63.3"/>
	<path class="st2" d="M333.4,255.2c0,4.2-3.3,7.7-7.4,7.7H174.9c-4.1,0-7.4-3.4-7.4-7.7l0,0c0-4.2,3.3-7.7,7.4-7.7H326
		C330.1,247.5,333.4,250.9,333.4,255.2L333.4,255.2z"/>
	<path class="st2" d="M333.4,284.8c0,4.2-3.3,7.6-7.4,7.6H174.9c-4.1,0-7.4-3.4-7.4-7.6l0,0c0-4.2,3.3-7.6,7.4-7.6H326
		C330.1,277.1,333.4,280.6,333.4,284.8L333.4,284.8z"/>
	<path class="st2" d="M333.4,313c0,4.2-3.3,7.7-7.4,7.7H174.9c-4.1,0-7.4-3.4-7.4-7.7l0,0c0-4.2,3.3-7.6,7.4-7.6H326
		C330.1,305.4,333.4,308.8,333.4,313L333.4,313z"/>
	<path class="st2" d="M333.4,338.4c0,4.2-3.3,7.7-7.4,7.7H174.9c-4.1,0-7.4-3.4-7.4-7.7l0,0c0-4.2,3.3-7.6,7.4-7.6H326
		C330.1,330.7,333.4,334.1,333.4,338.4L333.4,338.4z"/>
	<polygon class="st3" points="395,191.5 320.2,165.2 380.4,113.5 	"/>
	<g class="st4">
		<g>
			<g>
				<path class="st5" d="M241.5,239.2c-2.3,0-4.4-1.1-5.8-2.9l-18.8-24.8c-2.4-3.2-1.8-7.8,1.4-10.3c3.2-2.4,7.8-1.8,10.3,1.4
					l12.3,16.3l31-49.8c2.1-3.4,6.6-4.5,10.1-2.3c3.4,2.1,4.5,6.6,2.3,10.1l-36.7,58.9c-1.3,2-3.5,3.3-5.9,3.4
					C241.7,239.2,241.6,239.2,241.5,239.2z"/>
			</g>
		</g>
	</g>
</g>
<g id="Layer_2_2_" class="st0">
	<rect x="121" y="171.5" class="st6" width="298" height="251"/>
	<text transform="matrix(1 0 0 1 121 348.9979)" class="st7 st8 st9">24</text>
	<circle class="st10" cx="138.3" cy="91.8" r="17.3"/>
	<circle class="st10" cx="185.3" cy="91.8" r="17.3"/>
	<circle class="st10" cx="232.3" cy="91.8" r="17.3"/>
	<circle class="st10" cx="278.3" cy="91.8" r="17.3"/>
	<circle class="st10" cx="323.3" cy="91.8" r="17.3"/>
	<circle class="st10" cx="368.3" cy="91.8" r="17.3"/>
</g>
<g>
	<path class="st11" d="M350.3,54.5H161.7c-17.9,0-34.5,9.6-43.4,25.1L24,242.9c-9,15.5-9,34.6,0,50.2l94.3,163.3
		c9,15.5,25.5,25.1,43.4,25.1h188.5c17.9,0,34.5-9.6,43.4-25.1L488,293.1c9-15.5,9-34.6,0-50.2L393.7,79.6
		C384.8,64.1,368.2,54.5,350.3,54.5z"/>
</g>
<g>
	
		<linearGradient id="SVGID_1_" gradientUnits="userSpaceOnUse" x1="18.15" y1="590.05" x2="495.6125" y2="590.05" gradientTransform="matrix(1 0 0 -1 0 844)">
		<stop  offset="0" style="stop-color:#B07EB7"/>
		<stop  offset="0.5" style="stop-color:#8C3D96"/>
		<stop  offset="1" style="stop-color:#762A90"/>
	</linearGradient>
	<path class="st12" d="M491.1,274.8c-0.7,1.4-1.4,2.9-2.2,4.3l-94.3,163.3c-0.5,1-1.1,1.9-1.7,2.8c-8.3,12.4-21.7,20.5-36.5,22
		c-1.7,0.2-3.4,0.3-5.2,0.3H162.6c-17.9,0-34.5-9.6-43.5-25.1l-15.3-26.6l-70.4-122L24.9,279c-9-15.5-9-34.6,0-50.2l6.5-11.3
		l22.3-38.6l65.5-113.4c9-15.5,25.5-25.1,43.5-25.1h188.5c17.9,0,34.5,9.6,43.5,25.1l20.7,35.9l6.3,10.9l25.3,43.8l2.4,4.2l5.5,9.6
		l7,12l27.1,47c1.2,2,2.2,4.1,3,6.2C497.1,247.9,496.8,262.3,491.1,274.8z"/>
	
		<linearGradient id="SVGID_2_" gradientUnits="userSpaceOnUse" x1="18.15" y1="258.05" x2="495.6125" y2="258.05" gradientTransform="matrix(1 0 0 -1 0 512)">
		<stop  offset="0" style="stop-color:#B07EB7"/>
		<stop  offset="0.5" style="stop-color:#8C3D96"/>
		<stop  offset="1" style="stop-color:#762A90"/>
	</linearGradient>
	<path class="st13" d="M491.1,274.8c-0.7,1.4-1.4,2.9-2.2,4.3l-94.3,163.3c-0.5,1-1.1,1.9-1.7,2.8c-8.3,12.4-21.7,20.5-36.5,22
		c-1.7,0.2-3.4,0.3-5.2,0.3H162.6c-17.9,0-34.5-9.6-43.5-25.1l-15.3-26.6l-70.4-122L24.9,279c-9-15.5-9-34.6,0-50.2l6.5-11.3
		l22.3-38.6l65.5-113.4c9-15.5,25.5-25.1,43.5-25.1h188.5c17.9,0,34.5,9.6,43.5,25.1l20.7,35.9l6.3,10.9l25.3,43.8l2.4,4.2l5.5,9.6
		l7,12l27.1,47c1.2,2,2.2,4.1,3,6.2C497.1,247.9,496.8,262.3,491.1,274.8z"/>
</g>
<path class="st14" d="M385.8,390.4"/>
<path class="st14" d="M130.7,162.6"/>
<path class="st14" d="M140.1,379.6"/>
<path class="st14" d="M376.4,144.1"/>
<path class="st15" d="M160.7,229.4l36.8,14.7c8,3.2,17.1-0.7,20.3-8.7c3.2-8-0.7-17.2-8.7-20.4l-5.7-2.3
	c23.5-14.6,50.6-22.3,78.3-22.3c25.2,0,50,6.3,72,18.6c7.6,4.2,17.1,1.5,21.3-6.1c4.2-7.6,1.5-17.1-6.1-21.3
	c-26.7-14.7-56.7-22.5-87.2-22.5c-33.6,0-66.6,9.4-95.2,27.2l-0.9,0.6l1.8-9c1.7-8.5-3.8-16.7-12.3-18.4
	c-8.5-1.7-16.7,3.8-18.4,12.3l-7.3,36.6C147.5,216.7,152.7,226.2,160.7,229.4z"/>
<path class="st15" d="M364.6,300.7l-30.3-15.1c-8.3-4.2-18.5-0.8-22.7,7.6c-4.2,8.3-0.8,18.5,7.6,22.7l11.6,5.8l-5.7,3
	c-23.1,12.1-48.6,18.4-74.6,18.4c-25.1,0-49.8-5.8-72.2-17.1c-8.4-4.2-18.6-0.8-22.8,7.5c-4.2,8.4-0.8,18.6,7.5,22.8
	c27.1,13.6,57.1,20.7,87.4,20.7c29.5,0,58.5-6.7,85-19.5c-1.4,8.9,4.5,17.4,13.4,19.2c9.2,1.8,18.1-4.1,19.9-13.3l7.7-38.5
	C378.3,315.7,373,304.9,364.6,300.7z"/>
<path class="st15" d="M363.1,108.3H149.2c-12.6,0-22.7-10.2-22.7-22.7v0c0-12.6,10.2-22.7,22.7-22.7h213.9
	c12.6,0,22.7,10.2,22.7,22.7v0C385.8,98.1,375.7,108.3,363.1,108.3z"/>
<linearGradient id="SVGID_3_" gradientUnits="userSpaceOnUse" x1="139.1418" y1="85.5579" x2="183.1754" y2="85.5579">
	<stop  offset="0" style="stop-color:#5B57A5"/>
	<stop  offset="0.5" style="stop-color:#2E3092"/>
	<stop  offset="1" style="stop-color:#474374"/>
</linearGradient>
<polygon class="st16" points="183.2,86.7 161.2,98.6 139.1,110.6 139.8,85.6 140.5,60.5 161.8,73.6 "/>
<linearGradient id="SVGID_4_" gradientUnits="userSpaceOnUse" x1="202.6135" y1="85.5579" x2="246.6471" y2="85.5579">
	<stop  offset="0" style="stop-color:#5B57A5"/>
	<stop  offset="0.5" style="stop-color:#2E3092"/>
	<stop  offset="1" style="stop-color:#474374"/>
</linearGradient>
<polygon class="st17" points="246.6,86.7 224.6,98.6 202.6,110.6 203.3,85.6 203.9,60.5 225.3,73.6 "/>
<linearGradient id="SVGID_5_" gradientUnits="userSpaceOnUse" x1="262.8661" y1="85.5579" x2="306.8998" y2="85.5579">
	<stop  offset="0" style="stop-color:#5B57A5"/>
	<stop  offset="0.5" style="stop-color:#2E3092"/>
	<stop  offset="1" style="stop-color:#474374"/>
</linearGradient>
<polygon class="st18" points="306.9,86.7 284.9,98.6 262.9,110.6 263.5,85.6 264.2,60.5 285.5,73.6 "/>
<linearGradient id="SVGID_6_" gradientUnits="userSpaceOnUse" x1="332.3348" y1="85.5579" x2="376.3684" y2="85.5579">
	<stop  offset="0" style="stop-color:#5B57A5"/>
	<stop  offset="0.5" style="stop-color:#2E3092"/>
	<stop  offset="1" style="stop-color:#474374"/>
</linearGradient>
<polygon class="st19" points="376.4,86.7 354.4,98.6 332.3,110.6 333,85.6 333.7,60.5 355,73.6 "/>
</svg>
