<?xml version="1.0" encoding="utf-8"?>
<!-- Generator: Adobe Illustrator 24.0.1, SVG Export Plug-In . SVG Version: 6.00 Build 0)  -->
<svg version="1.1" id="Layer_1" xmlns="http://www.w3.org/2000/svg" xmlns:xlink="http://www.w3.org/1999/xlink" x="0px" y="0px"
	 viewBox="0 0 512 512" style="enable-background:new 0 0 512 512;" xml:space="preserve">
<style type="text/css">
	.st0{display:none;}
	.st1{display:inline;fill:#200A7F;stroke:#18E5EA;stroke-width:20;stroke-miterlimit:10;}
	.st2{display:inline;fill:#EF0B79;}
	.st3{display:inline;fill:#18E5EA;}
	.st4{display:inline;}
	.st5{fill:#E9F21C;}
	.st6{display:inline;fill:none;}
	.st7{display:inline;fill:#EF3A24;}
	.st8{font-family:'MyriadPro-Regular';}
	.st9{font-size:250px;}
	.st10{display:inline;fill:#FFFFFF;}
	.st11{fill:#C4C6C8;}
	.st12{fill:url(#SVGID_1_);stroke:url(#SVGID_2_);stroke-miterlimit:10;}
	.st13{fill:url(#SVGID_3_);stroke:url(#SVGID_4_);stroke-miterlimit:10;}
	.st14{fill:none;stroke:#000000;stroke-width:9;stroke-miterlimit:10;}
	.st15{fill:url(#SVGID_5_);}
	.st16{fill:url(#SVGID_6_);stroke:#3D3D3D;stroke-width:3;stroke-miterlimit:10;}
	.st17{fill:url(#SVGID_7_);stroke:#3D3D3D;stroke-width:3;stroke-miterlimit:10;}
	.st18{fill:url(#SVGID_8_);stroke:#3D3D3D;stroke-width:3;stroke-miterlimit:10;}
	.st19{fill:url(#SVGID_9_);stroke:#3D3D3D;stroke-width:3;stroke-miterlimit:10;}
</style>
<g id="Layer_3" class="st0">
	<path class="st1" d="M401.1,212.2c5.1,15.3,7.9,31.7,7.9,48.8c0,85.3-69.2,154.5-154.5,154.5S100,346.3,100,261
		s69.2-154.5,154.5-154.5c51.2,0,96.6,24.9,124.7,63.3"/>
	<path class="st2" d="M333.4,255.2c0,4.2-3.3,7.7-7.4,7.7H174.9c-4.1,0-7.4-3.4-7.4-7.7l0,0c0-4.2,3.3-7.7,7.4-7.7H326
		C330.1,247.5,333.4,250.9,333.4,255.2L333.4,255.2z"/>
	<path class="st2" d="M333.4,284.8c0,4.2-3.3,7.6-7.4,7.6H174.9c-4.1,0-7.4-3.4-7.4-7.6l0,0c0-4.2,3.3-7.6,7.4-7.6H326
		C330.1,277.1,333.4,280.6,333.4,284.8L333.4,284.8z"/>
	<path class="st2" d="M333.4,313c0,4.2-3.3,7.7-7.4,7.7H174.9c-4.1,0-7.4-3.4-7.4-7.7l0,0c0-4.2,3.3-7.6,7.4-7.6H326
		C330.1,305.4,333.4,308.8,333.4,313L333.4,313z"/>
	<path class="st2" d="M333.4,338.4c0,4.2-3.3,7.7-7.4,7.7H174.9c-4.1,0-7.4-3.4-7.4-7.7l0,0c0-4.2,3.3-7.6,7.4-7.6H326
		C330.1,330.7,333.4,334.1,333.4,338.4L333.4,338.4z"/>
	<polygon class="st3" points="395,191.5 320.2,165.2 380.4,113.5 	"/>
	<g class="st4">
		<g>
			<g>
				<path class="st5" d="M241.5,239.2c-2.3,0-4.4-1.1-5.8-2.9l-18.8-24.8c-2.4-3.2-1.8-7.8,1.4-10.3c3.2-2.4,7.8-1.8,10.3,1.4
					l12.3,16.3l31-49.8c2.1-3.4,6.6-4.5,10.1-2.3c3.4,2.1,4.5,6.6,2.3,10.1l-36.7,58.9c-1.3,2-3.5,3.3-5.9,3.4
					C241.7,239.2,241.6,239.2,241.5,239.2z"/>
			</g>
		</g>
	</g>
</g>
<g id="Layer_2_2_" class="st0">
	<rect x="121" y="171.5" class="st6" width="298" height="251"/>
	<text transform="matrix(1 0 0 1 121 348.9979)" class="st7 st8 st9">24</text>
	<circle class="st10" cx="138.3" cy="91.8" r="17.3"/>
	<circle class="st10" cx="185.3" cy="91.8" r="17.3"/>
	<circle class="st10" cx="232.3" cy="91.8" r="17.3"/>
	<circle class="st10" cx="278.3" cy="91.8" r="17.3"/>
	<circle class="st10" cx="323.3" cy="91.8" r="17.3"/>
	<circle class="st10" cx="368.3" cy="91.8" r="17.3"/>
</g>
<g>
	<path class="st11" d="M350.3,54.5H161.7c-17.9,0-34.5,9.6-43.4,25.1L24,242.9c-9,15.5-9,34.6,0,50.2l94.3,163.3
		c9,15.5,25.5,25.1,43.4,25.1h188.5c17.9,0,34.5-9.6,43.4-25.1L488,293.1c9-15.5,9-34.6,0-50.2L393.7,79.6
		C384.8,64.1,368.2,54.5,350.3,54.5z"/>
</g>
<g>
	
		<linearGradient id="SVGID_1_" gradientUnits="userSpaceOnUse" x1="18.15" y1="590.05" x2="495.6125" y2="590.05" gradientTransform="matrix(1 0 0 -1 0 844)">
		<stop  offset="0" style="stop-color:#F69453"/>
		<stop  offset="0.5" style="stop-color:#F37521"/>
		<stop  offset="1" style="stop-color:#D4622A"/>
	</linearGradient>
	<linearGradient id="SVGID_2_" gradientUnits="userSpaceOnUse" x1="17.65" y1="253.95" x2="496.1125" y2="253.95">
		<stop  offset="0" style="stop-color:#D471AD"/>
		<stop  offset="0.5" style="stop-color:#C7158C"/>
		<stop  offset="1" style="stop-color:#9D248E"/>
	</linearGradient>
	<path class="st12" d="M491.1,274.8c-0.7,1.4-1.4,2.9-2.2,4.3l-94.3,163.3c-0.5,1-1.1,1.9-1.7,2.8c-8.3,12.4-21.7,20.5-36.5,22
		c-1.7,0.2-3.4,0.3-5.2,0.3H162.6c-17.9,0-34.5-9.6-43.5-25.1l-15.3-26.6l-70.4-122L24.9,279c-9-15.5-9-34.6,0-50.2l6.5-11.3
		l22.3-38.6l65.5-113.4c9-15.5,25.5-25.1,43.5-25.1h188.5c17.9,0,34.5,9.6,43.5,25.1l20.7,35.9l6.3,10.9l25.3,43.8l2.4,4.2l5.5,9.6
		l7,12l27.1,47c1.2,2,2.2,4.1,3,6.2C497.1,247.9,496.8,262.3,491.1,274.8z"/>
	
		<linearGradient id="SVGID_3_" gradientUnits="userSpaceOnUse" x1="18.15" y1="258.05" x2="495.6125" y2="258.05" gradientTransform="matrix(1 0 0 -1 0 512)">
		<stop  offset="0" style="stop-color:#F69453"/>
		<stop  offset="0.5" style="stop-color:#F37521"/>
		<stop  offset="1" style="stop-color:#D4622A"/>
	</linearGradient>
	<linearGradient id="SVGID_4_" gradientUnits="userSpaceOnUse" x1="17.65" y1="253.95" x2="496.1125" y2="253.95">
		<stop  offset="0" style="stop-color:#D471AD"/>
		<stop  offset="0.5" style="stop-color:#C7158C"/>
		<stop  offset="1" style="stop-color:#9D248E"/>
	</linearGradient>
	<path class="st13" d="M491.1,274.8c-0.7,1.4-1.4,2.9-2.2,4.3l-94.3,163.3c-0.5,1-1.1,1.9-1.7,2.8c-8.3,12.4-21.7,20.5-36.5,22
		c-1.7,0.2-3.4,0.3-5.2,0.3H162.6c-17.9,0-34.5-9.6-43.5-25.1l-15.3-26.6l-70.4-122L24.9,279c-9-15.5-9-34.6,0-50.2l6.5-11.3
		l22.3-38.6l65.5-113.4c9-15.5,25.5-25.1,43.5-25.1h188.5c17.9,0,34.5,9.6,43.5,25.1l20.7,35.9l6.3,10.9l25.3,43.8l2.4,4.2l5.5,9.6
		l7,12l27.1,47c1.2,2,2.2,4.1,3,6.2C497.1,247.9,496.8,262.3,491.1,274.8z"/>
</g>
<path class="st14" d="M385.8,390.4"/>
<path class="st14" d="M130.7,162.6"/>
<path class="st14" d="M140.1,379.6"/>
<path class="st14" d="M376.4,144.1"/>
<linearGradient id="SVGID_5_" gradientUnits="userSpaceOnUse" x1="405.0105" y1="696.0421" x2="405.0105" y2="696.0421">
	<stop  offset="0" style="stop-color:#F074AC"/>
	<stop  offset="0.5" style="stop-color:#EB008B"/>
	<stop  offset="1" style="stop-color:#CD118C"/>
</linearGradient>
<path class="st15" d="M405,696"/>
<image style="display:none;overflow:visible;" width="1920" height="1080" xlink:href="AC6783C8.jpg"  transform="matrix(1 0 0 1 -1317.8105 -178.1895)">
</image>
<linearGradient id="SVGID_6_" gradientUnits="userSpaceOnUse" x1="98.6226" y1="234.4406" x2="413.3773" y2="234.4406">
	<stop  offset="0" style="stop-color:#F37F7B"/>
	<stop  offset="0.5" style="stop-color:#ED3D57"/>
	<stop  offset="1" style="stop-color:#DD1E47"/>
</linearGradient>
<path class="st16" d="M413.4,293.6c0,4.2-0.2,8.4-0.5,12.5c-0.3,3.8-0.7,7.6-1.3,11.4c-0.1,0.4-0.1,0.7-0.2,1.1
	c-0.7,4.8-1.7,9.5-2.9,14.1c-1.2-4.8-2.7-9.5-4.3-14.1H107.8c-1.7,4.6-3.1,9.3-4.3,14.1c-1.2-4.6-2.2-9.3-2.9-14.1
	c-0.1-0.4-0.1-0.7-0.2-1.1c-0.6-3.8-1-7.6-1.3-11.4c-0.3-4.1-0.5-8.3-0.5-12.5c0-86.9,70.5-157.4,157.4-157.4
	S413.4,206.7,413.4,293.6z"/>
<linearGradient id="SVGID_7_" gradientUnits="userSpaceOnUse" x1="98.6226" y1="253.187" x2="413.3773" y2="253.187">
	<stop  offset="0" style="stop-color:#FFF7A9"/>
	<stop  offset="0.5" style="stop-color:#FFF100"/>
	<stop  offset="1" style="stop-color:#FFD700"/>
</linearGradient>
<path class="st17" d="M412.9,306.1C406.5,225,338.7,161.2,256,161.2S105.5,225,99.1,306.1c-0.3,4.1-0.5,8.3-0.5,12.5
	c0,3.8,0.1,7.6,0.4,11.4c0.4,5.1,1,10.2,1.8,15.2c0.7-4.2,1.6-8.4,2.7-12.5c1.2-4.8,2.7-9.5,4.3-14.1h296.3
	c1.7,4.6,3.1,9.3,4.3,14.1c1.1,4.1,2,8.3,2.7,12.5c0.9-5,1.5-10.1,1.8-15.2c0.3-3.8,0.4-7.6,0.4-11.4
	C413.4,314.4,413.2,310.2,412.9,306.1z"/>
<linearGradient id="SVGID_8_" gradientUnits="userSpaceOnUse" x1="98.6226" y1="270.2829" x2="413.3773" y2="270.2829">
	<stop  offset="0" style="stop-color:#D1E4A5"/>
	<stop  offset="0.5" style="stop-color:#ACD479"/>
	<stop  offset="1" style="stop-color:#76B83F"/>
</linearGradient>
<path class="st18" d="M413,330c-0.3-3.8-0.7-7.6-1.2-11.4c0-0.4-0.1-0.7-0.1-1.1C400.1,241.9,334.8,184,256,184
	s-144.1,57.9-155.6,133.5c-0.1,0.4-0.1,0.7-0.1,1.1c-0.6,3.8-1,7.6-1.2,11.4c-0.3,3.8-0.4,7.6-0.4,11.4c0,5.1,0.2,10.2,0.7,15.2
	c0.4-3.8,0.9-7.6,1.5-11.4c0.7-4.2,1.6-8.4,2.7-12.5c1.2-4.8,2.7-9.5,4.3-14.1h296.3c1.7,4.6,3.1,9.3,4.3,14.1
	c1.1,4.1,2,8.3,2.7,12.5c0.6,3.8,1.1,7.6,1.5,11.4c0.5-5,0.7-10.1,0.7-15.2C413.4,337.5,413.2,333.7,413,330z"/>
<linearGradient id="SVGID_9_" gradientUnits="userSpaceOnUse" x1="107.8455" y1="266.4801" x2="404.1544" y2="266.4801">
	<stop  offset="0" style="stop-color:#2BC4F3"/>
	<stop  offset="0.5" style="stop-color:#00AEEE"/>
	<stop  offset="1" style="stop-color:#0095DA"/>
</linearGradient>
<path class="st19" d="M404.2,318.6H107.8c21.8-60.8,79.9-104.2,148.2-104.2S382.4,257.8,404.2,318.6z"/>
</svg>
