<?xml version="1.0" encoding="utf-8"?>
<!-- Generator: Adobe Illustrator 24.0.1, SVG Export Plug-In . SVG Version: 6.00 Build 0)  -->
<svg version="1.1" id="Layer_1" xmlns="http://www.w3.org/2000/svg" xmlns:xlink="http://www.w3.org/1999/xlink" x="0px" y="0px"
	 viewBox="0 0 512 512" style="enable-background:new 0 0 512 512;" xml:space="preserve">
<style type="text/css">
	.st0{display:none;}
	.st1{display:inline;fill:#200A7F;stroke:#18E5EA;stroke-width:20;stroke-miterlimit:10;}
	.st2{display:inline;fill:#EF0B79;}
	.st3{display:inline;fill:#18E5EA;}
	.st4{display:inline;}
	.st5{fill:#E9F21C;}
	.st6{display:inline;fill:none;}
	.st7{display:inline;fill:#EF3A24;}
	.st8{font-family:'MyriadPro-Regular';}
	.st9{font-size:250px;}
	.st10{display:inline;fill:#FFFFFF;}
	.st11{fill:#C4C6C8;}
	.st12{fill:url(#SVGID_1_);}
	.st13{fill:url(#SVGID_2_);}
	.st14{fill:none;stroke:#000000;stroke-width:9;stroke-miterlimit:10;}
	.st15{fill:url(#SVGID_3_);}
	.st16{display:none;fill:#FFFFFF;}
	.st17{fill:none;stroke:url(#SVGID_4_);stroke-miterlimit:10;}
	.st18{fill:#FFFFFF;}
	.st19{fill:#353535;}
	.st20{fill:url(#SVGID_5_);}
	.st21{fill:#E2E2E2;}
</style>
<g id="Layer_3" class="st0">
	<path class="st1" d="M401.1,212.2c5.1,15.3,7.9,31.7,7.9,48.8c0,85.3-69.2,154.5-154.5,154.5S100,346.3,100,261
		s69.2-154.5,154.5-154.5c51.2,0,96.6,24.9,124.7,63.3"/>
	<path class="st2" d="M333.4,255.2c0,4.2-3.3,7.7-7.4,7.7H174.9c-4.1,0-7.4-3.4-7.4-7.7l0,0c0-4.2,3.3-7.7,7.4-7.7H326
		C330.1,247.5,333.4,250.9,333.4,255.2L333.4,255.2z"/>
	<path class="st2" d="M333.4,284.8c0,4.2-3.3,7.6-7.4,7.6H174.9c-4.1,0-7.4-3.4-7.4-7.6l0,0c0-4.2,3.3-7.6,7.4-7.6H326
		C330.1,277.1,333.4,280.6,333.4,284.8L333.4,284.8z"/>
	<path class="st2" d="M333.4,313c0,4.2-3.3,7.7-7.4,7.7H174.9c-4.1,0-7.4-3.4-7.4-7.7l0,0c0-4.2,3.3-7.6,7.4-7.6H326
		C330.1,305.4,333.4,308.8,333.4,313L333.4,313z"/>
	<path class="st2" d="M333.4,338.4c0,4.2-3.3,7.7-7.4,7.7H174.9c-4.1,0-7.4-3.4-7.4-7.7l0,0c0-4.2,3.3-7.6,7.4-7.6H326
		C330.1,330.7,333.4,334.1,333.4,338.4L333.4,338.4z"/>
	<polygon class="st3" points="395,191.5 320.2,165.2 380.4,113.5 	"/>
	<g class="st4">
		<g>
			<g>
				<path class="st5" d="M241.5,239.2c-2.3,0-4.4-1.1-5.8-2.9l-18.8-24.8c-2.4-3.2-1.8-7.8,1.4-10.3c3.2-2.4,7.8-1.8,10.3,1.4
					l12.3,16.3l31-49.8c2.1-3.4,6.6-4.5,10.1-2.3c3.4,2.1,4.5,6.6,2.3,10.1l-36.7,58.9c-1.3,2-3.5,3.3-5.9,3.4
					C241.7,239.2,241.6,239.2,241.5,239.2z"/>
			</g>
		</g>
	</g>
</g>
<g id="Layer_2_2_" class="st0">
	<rect x="121" y="171.5" class="st6" width="298" height="251"/>
	<text transform="matrix(1 0 0 1 121 348.9979)" class="st7 st8 st9">24</text>
	<circle class="st10" cx="138.3" cy="91.8" r="17.3"/>
	<circle class="st10" cx="185.3" cy="91.8" r="17.3"/>
	<circle class="st10" cx="232.3" cy="91.8" r="17.3"/>
	<circle class="st10" cx="278.3" cy="91.8" r="17.3"/>
	<circle class="st10" cx="323.3" cy="91.8" r="17.3"/>
	<circle class="st10" cx="368.3" cy="91.8" r="17.3"/>
</g>
<g>
	<path class="st11" d="M350.3,54.5H161.7c-17.9,0-34.5,9.6-43.4,25.1L24,242.9c-9,15.5-9,34.6,0,50.2l94.3,163.3
		c9,15.5,25.5,25.1,43.4,25.1h188.5c17.9,0,34.5-9.6,43.4-25.1L488,293.1c9-15.5,9-34.6,0-50.2L393.7,79.6
		C384.8,64.1,368.2,54.5,350.3,54.5z"/>
</g>
<g>
	<radialGradient id="SVGID_1_" cx="256.8778" cy="253.95" r="226.4887" gradientUnits="userSpaceOnUse">
		<stop  offset="0" style="stop-color:#F37E5F"/>
		<stop  offset="0.5" style="stop-color:#EC1C24"/>
		<stop  offset="1" style="stop-color:#CF232A"/>
	</radialGradient>
	<path class="st12" d="M495.6,255.8c-0.2,6.5-1.7,13-4.5,19c-0.3,0.5-0.5,1-0.8,1.5c-0.5,0.9-0.9,1.9-1.4,2.8L399,434.8l-4.4,7.6
		c-0.5,1-1.1,1.9-1.7,2.8c-8.3,12.4-21.7,20.5-36.5,22c-1.7,0.2-3.4,0.3-5.2,0.3H162.6c-8.8,0-17.3-2.3-24.7-6.5h0
		c-0.4-0.2-0.9-0.5-1.3-0.8c-7.1-4.3-13.2-10.4-17.5-17.8l-15.3-26.6l-70.4-122L24.9,279c-1.1-1.8-2-3.7-2.8-5.7
		c-3.5-8.2-4.6-17.1-3.5-25.7c0.8-6.5,3-12.9,6.4-18.8l6.5-11.3l22.3-38.6L70,150.8l37.6-65.1l11.7-20.2c9-15.5,25.5-25.1,43.5-25.1
		h188.5c9.4,0,18.5,2.7,26.3,7.4c7,4.3,13,10.3,17.2,17.7l20.7,35.9l6.3,10.9l2.2,3.9l23.1,39.9l2.4,4.2l5.5,9.6l7,12l27.1,47
		c1.2,2,2.2,4.1,3,6.2C494.6,241.7,495.8,248.8,495.6,255.8z"/>
	<radialGradient id="SVGID_2_" cx="256.8778" cy="253.95" r="226.4887" gradientUnits="userSpaceOnUse">
		<stop  offset="0" style="stop-color:#F37E5F"/>
		<stop  offset="0.5" style="stop-color:#EC1C24"/>
		<stop  offset="1" style="stop-color:#CF232A"/>
	</radialGradient>
	<path class="st13" d="M495.6,255.8c-0.2,6.5-1.7,13-4.5,19c-0.3,0.5-0.5,1-0.8,1.5c-0.5,0.9-0.9,1.9-1.4,2.8L399,434.8l-4.4,7.6
		c-0.5,1-1.1,1.9-1.7,2.8c-8.3,12.4-21.7,20.5-36.5,22c-1.7,0.2-3.4,0.3-5.2,0.3H162.6c-8.8,0-17.3-2.3-24.7-6.5h0
		c-0.4-0.2-0.9-0.5-1.3-0.8c-7.1-4.3-13.2-10.4-17.5-17.8l-15.3-26.6l-70.4-122L24.9,279c-1.1-1.8-2-3.7-2.8-5.7
		c-3.5-8.2-4.6-17.1-3.5-25.7c0.8-6.5,3-12.9,6.4-18.8l6.5-11.3l22.3-38.6L70,150.8l37.6-65.1l11.7-20.2c9-15.5,25.5-25.1,43.5-25.1
		h188.5c9.4,0,18.5,2.7,26.3,7.4c7,4.3,13,10.3,17.2,17.7l20.7,35.9l6.3,10.9l2.2,3.9l23.1,39.9l2.4,4.2l5.5,9.6l7,12l27.1,47
		c1.2,2,2.2,4.1,3,6.2C494.6,241.7,495.8,248.8,495.6,255.8z"/>
</g>
<path class="st14" d="M385.8,390.4"/>
<path class="st14" d="M130.7,162.6"/>
<path class="st14" d="M140.1,379.6"/>
<path class="st14" d="M376.4,144.1"/>
<linearGradient id="SVGID_3_" gradientUnits="userSpaceOnUse" x1="405.0105" y1="696.0421" x2="405.0105" y2="696.0421">
	<stop  offset="0" style="stop-color:#F074AC"/>
	<stop  offset="0.5" style="stop-color:#EB008B"/>
	<stop  offset="1" style="stop-color:#CD118C"/>
</linearGradient>
<path class="st15" d="M405,696"/>
<image style="display:none;overflow:visible;" width="1920" height="1080" xlink:href="1CC09095.jpg"  transform="matrix(1 0 0 1 -1317.8105 -178.1895)">
</image>
<rect x="132.9" y="247" transform="matrix(0.7454 -0.6667 0.6667 0.7454 -123.5867 212.4417)" class="st16" width="166.8" height="42.1"/>
<linearGradient id="SVGID_4_" gradientUnits="userSpaceOnUse" x1="32.5053" y1="-141.8105" x2="32.5053" y2="-141.8105">
	<stop  offset="0" style="stop-color:#D471AD"/>
	<stop  offset="0.5" style="stop-color:#C7158C"/>
	<stop  offset="1" style="stop-color:#9D248E"/>
</linearGradient>
<path class="st17" d="M32.5-141.8"/>
<path class="st18" d="M380.4,353.1"/>
<path class="st19" d="M280.3,167.4"/>
<linearGradient id="SVGID_5_" gradientUnits="userSpaceOnUse" x1="438.5219" y1="242.3752" x2="438.5219" y2="242.3752">
	<stop  offset="0" style="stop-color:#D1E4A5"/>
	<stop  offset="0.5" style="stop-color:#ACD479"/>
	<stop  offset="1" style="stop-color:#76B83F"/>
</linearGradient>
<path class="st20" d="M438.5,242.4"/>
<path class="st21" d="M260.9,389.9"/>
<path class="st21" d="M388.8,262"/>
<path class="st21" d="M118.1,241.6c-7.7-5.6,8-33.6-5.1-45.8c-5-4.7-11.2-4.2-11.2-6.5c-0.1-2.4,6.2-6.1,48.9-12.5
	c59-8.9,68-5,72.6-2.5c20.4,11,28.4,33.1,29.8,37c3.8,10.6,4.7,21.5,2.9,22.2c-3.1,1-8.5-28-27.9-35.3c-8.4-3.2-16.9-1.4-30.4,3.8
	C149.8,220.1,126.3,247.5,118.1,241.6z"/>
<path class="st21" d="M174.8,352.9c-9.2,2.7-21.5-27-39.2-24.1c-6.8,1.1-10.1,6.2-12,4.9c-1.9-1.4-1-8.6,20.2-46.3
	c29.3-52,37.9-56.7,42.7-58.8c21.2-9.4,43.6-2,47.5-0.7c10.7,3.5,19.9,9.5,19.2,11.4c-1.1,3.1-27.2-10.5-45,0.2
	c-7.7,4.7-11.5,12.5-15.7,26.3C177.4,314.8,184.5,350.1,174.8,352.9z"/>
<path class="st21" d="M188.1,116.6c1.7-9.4,33.7-7.2,39.1-24.4c2-6.5-1.1-11.9,1-12.9c2.1-1.1,8.1,2.9,32.4,38.7
	c33.5,49.4,33.8,59.2,33.6,64.4c-1.1,23.2-17.6,39.9-20.5,42.8c-7.9,8-17.4,13.6-18.7,12.1c-2.3-2.3,21.6-19.7,19.8-40.4
	c-0.7-8.9-6-15.8-16.5-25.8C221.1,135.9,186.3,126.5,188.1,116.6z"/>
<path class="st21" d="M318.5,111.4c8.7-3.9,24.9,23.9,42.1,18.7c6.6-2,9.2-7.5,11.3-6.4c2.1,1.1,2.1,8.4-13.9,48.5
	c-22.1,55.5-30,61.2-34.5,64c-19.8,12.1-42.9,7.8-47,7c-11.1-2.1-21-6.8-20.6-8.7c0.7-3.2,28.4,6.8,44.5-6.2
	c7-5.6,9.7-13.9,12.1-28.1C321,149.5,309.2,115.5,318.5,111.4z"/>
<path class="st21" d="M408.8,264.2c6,7.4-16.4,30.3-6.9,45.6c3.6,5.8,9.7,6.9,9.2,9.2c-0.6,2.3-7.5,4.3-50.5-0.5
	c-59.3-6.6-67-12.7-70.8-16.3c-16.9-15.9-18.9-39.3-19.2-43.4c-0.9-11.2,1-22,2.9-22.1c3.2-0.2,1,29.2,17.8,41.3
	c7.3,5.2,16,5.7,30.3,4.2C372.7,276.7,402.4,256.3,408.8,264.2z"/>
<path class="st21" d="M310.4,372.7c-3.4,8.9-34.5,0.7-43,16.5c-3.3,6-1.2,11.9-3.5,12.5c-2.3,0.6-7.4-4.4-24.4-44.2
	c-23.5-54.9-21.9-64.6-20.7-69.6c5.5-22.5,24.9-35.8,28.3-38.1c9.3-6.4,19.6-10,20.7-8.3c1.8,2.7-24.9,15.2-27.2,35.8
	c-1,8.9,2.9,16.7,11.3,28.5C281.7,347.4,314,363.2,310.4,372.7z"/>
</svg>
