<?xml version="1.0" encoding="utf-8"?>
<!-- Generator: Adobe Illustrator 24.0.1, SVG Export Plug-In . SVG Version: 6.00 Build 0)  -->
<svg version="1.1" id="Layer_1" xmlns="http://www.w3.org/2000/svg" xmlns:xlink="http://www.w3.org/1999/xlink" x="0px" y="0px"
	 viewBox="0 0 512 512" style="enable-background:new 0 0 512 512;" xml:space="preserve">
<style type="text/css">
	.st0{display:none;}
	.st1{display:inline;fill:#200A7F;stroke:#18E5EA;stroke-width:20;stroke-miterlimit:10;}
	.st2{display:inline;fill:#EF0B79;}
	.st3{display:inline;fill:#18E5EA;}
	.st4{display:inline;}
	.st5{fill:#E9F21C;}
	.st6{display:inline;fill:none;}
	.st7{display:inline;fill:#EF3A24;}
	.st8{font-family:'MyriadPro-Regular';}
	.st9{font-size:250px;}
	.st10{display:inline;fill:#FFFFFF;}
	.st11{fill:#C4C6C8;}
	.st12{fill:#2ED8FF;stroke:#54B9FF;stroke-miterlimit:10;}
	.st13{fill:none;stroke:#000000;stroke-width:9;stroke-miterlimit:10;}
	.st14{fill:url(#SVGID_1_);}
	.st15{display:none;fill:#FFFFFF;}
	.st16{fill:none;stroke:url(#SVGID_2_);stroke-miterlimit:10;}
	.st17{fill:#FFFFFF;}
	.st18{fill:#353535;}
	.st19{opacity:0.76;fill:#00BD30;stroke:#000000;stroke-miterlimit:10;}
	.st20{opacity:0.76;fill:#F13D00;stroke:#000000;stroke-miterlimit:10;}
	.st21{opacity:0.76;fill:#F5FF18;stroke:#000000;stroke-miterlimit:10;}
	.st22{opacity:0.76;fill:#7708FF;stroke:#000000;stroke-miterlimit:10;}
	.st23{opacity:0.76;fill:#FF38D5;stroke:#000000;stroke-miterlimit:10;}
	.st24{fill:none;stroke:#000000;stroke-miterlimit:10;}
	.st25{opacity:0.76;fill:#7C9AFF;stroke:#000000;stroke-miterlimit:10;}
</style>
<g id="Layer_3" class="st0">
	<path class="st1" d="M401.1,212.2c5.1,15.3,7.9,31.7,7.9,48.8c0,85.3-69.2,154.5-154.5,154.5S100,346.3,100,261
		s69.2-154.5,154.5-154.5c51.2,0,96.6,24.9,124.7,63.3"/>
	<path class="st2" d="M333.4,255.2c0,4.2-3.3,7.7-7.4,7.7H174.9c-4.1,0-7.4-3.4-7.4-7.7l0,0c0-4.2,3.3-7.7,7.4-7.7H326
		C330.1,247.5,333.4,250.9,333.4,255.2L333.4,255.2z"/>
	<path class="st2" d="M333.4,284.8c0,4.2-3.3,7.6-7.4,7.6H174.9c-4.1,0-7.4-3.4-7.4-7.6l0,0c0-4.2,3.3-7.6,7.4-7.6H326
		C330.1,277.1,333.4,280.6,333.4,284.8L333.4,284.8z"/>
	<path class="st2" d="M333.4,313c0,4.2-3.3,7.7-7.4,7.7H174.9c-4.1,0-7.4-3.4-7.4-7.7l0,0c0-4.2,3.3-7.6,7.4-7.6H326
		C330.1,305.4,333.4,308.8,333.4,313L333.4,313z"/>
	<path class="st2" d="M333.4,338.4c0,4.2-3.3,7.7-7.4,7.7H174.9c-4.1,0-7.4-3.4-7.4-7.7l0,0c0-4.2,3.3-7.6,7.4-7.6H326
		C330.1,330.7,333.4,334.1,333.4,338.4L333.4,338.4z"/>
	<polygon class="st3" points="395,191.5 320.2,165.2 380.4,113.5 	"/>
	<g class="st4">
		<g>
			<g>
				<path class="st5" d="M241.5,239.2c-2.3,0-4.4-1.1-5.8-2.9l-18.8-24.8c-2.4-3.2-1.8-7.8,1.4-10.3c3.2-2.4,7.8-1.8,10.3,1.4
					l12.3,16.3l31-49.8c2.1-3.4,6.6-4.5,10.1-2.3c3.4,2.1,4.5,6.6,2.3,10.1l-36.7,58.9c-1.3,2-3.5,3.3-5.9,3.4
					C241.7,239.2,241.6,239.2,241.5,239.2z"/>
			</g>
		</g>
	</g>
</g>
<g id="Layer_2_2_" class="st0">
	<rect x="121" y="171.5" class="st6" width="298" height="251"/>
	<text transform="matrix(1 0 0 1 121 348.9979)" class="st7 st8 st9">24</text>
	<circle class="st10" cx="138.3" cy="91.8" r="17.3"/>
	<circle class="st10" cx="185.3" cy="91.8" r="17.3"/>
	<circle class="st10" cx="232.3" cy="91.8" r="17.3"/>
	<circle class="st10" cx="278.3" cy="91.8" r="17.3"/>
	<circle class="st10" cx="323.3" cy="91.8" r="17.3"/>
	<circle class="st10" cx="368.3" cy="91.8" r="17.3"/>
</g>
<g>
	<path class="st11" d="M350.3,54.5H161.7c-17.9,0-34.5,9.6-43.4,25.1L24,242.9c-9,15.5-9,34.6,0,50.2l94.3,163.3
		c9,15.5,25.5,25.1,43.4,25.1h188.5c17.9,0,34.5-9.6,43.4-25.1L488,293.1c9-15.5,9-34.6,0-50.2L393.7,79.6
		C384.8,64.1,368.2,54.5,350.3,54.5z"/>
</g>
<g>
	<path class="st12" d="M495.6,255.8c-0.2,6.5-1.7,13-4.5,19c-0.3,0.5-0.5,1-0.8,1.5c-0.5,0.9-0.9,1.9-1.4,2.8L399,434.8l-4.4,7.6
		c-0.5,1-1.1,1.9-1.7,2.8c-8.3,12.4-21.7,20.5-36.5,22c-1.7,0.2-3.4,0.3-5.2,0.3H162.6c-8.8,0-17.3-2.3-24.7-6.5l0,0
		c-0.4-0.2-0.9-0.5-1.3-0.8c-7.1-4.3-13.2-10.4-17.5-17.8l-15.3-26.6l-70.4-122L24.9,279c-1.1-1.8-2-3.7-2.8-5.7
		c-3.5-8.2-4.6-17.1-3.5-25.7c0.8-6.5,3-12.9,6.4-18.8l6.5-11.3l22.3-38.6L70,150.8l37.6-65.1l11.7-20.2c9-15.5,25.5-25.1,43.5-25.1
		h188.5c9.4,0,18.5,2.7,26.3,7.4c7,4.3,13,10.3,17.2,17.7l20.7,35.9l6.3,10.9l2.2,3.9l23.1,39.9l2.4,4.2l5.5,9.6l7,12l27.1,47
		c1.2,2,2.2,4.1,3,6.2C494.6,241.7,495.8,248.8,495.6,255.8z"/>
	<path class="st12" d="M495.6,255.8c-0.2,6.5-1.7,13-4.5,19c-0.3,0.5-0.5,1-0.8,1.5c-0.5,0.9-0.9,1.9-1.4,2.8L399,434.8l-4.4,7.6
		c-0.5,1-1.1,1.9-1.7,2.8c-8.3,12.4-21.7,20.5-36.5,22c-1.7,0.2-3.4,0.3-5.2,0.3H162.6c-8.8,0-17.3-2.3-24.7-6.5l0,0
		c-0.4-0.2-0.9-0.5-1.3-0.8c-7.1-4.3-13.2-10.4-17.5-17.8l-15.3-26.6l-70.4-122L24.9,279c-1.1-1.8-2-3.7-2.8-5.7
		c-3.5-8.2-4.6-17.1-3.5-25.7c0.8-6.5,3-12.9,6.4-18.8l6.5-11.3l22.3-38.6L70,150.8l37.6-65.1l11.7-20.2c9-15.5,25.5-25.1,43.5-25.1
		h188.5c9.4,0,18.5,2.7,26.3,7.4c7,4.3,13,10.3,17.2,17.7l20.7,35.9l6.3,10.9l2.2,3.9l23.1,39.9l2.4,4.2l5.5,9.6l7,12l27.1,47
		c1.2,2,2.2,4.1,3,6.2C494.6,241.7,495.8,248.8,495.6,255.8z"/>
</g>
<path class="st13" d="M385.8,390.4"/>
<path class="st13" d="M130.7,162.6"/>
<path class="st13" d="M140.1,379.6"/>
<path class="st13" d="M364.7,143.2"/>
<linearGradient id="SVGID_1_" gradientUnits="userSpaceOnUse" x1="405" y1="364" x2="405" y2="364" gradientTransform="matrix(1 0 0 1 0 332)">
	<stop  offset="0" style="stop-color:#F074AC"/>
	<stop  offset="0.5" style="stop-color:#EB008B"/>
	<stop  offset="1" style="stop-color:#CD118C"/>
</linearGradient>
<path class="st14" d="M405,696"/>
<rect x="132.9" y="247" transform="matrix(0.7454 -0.6667 0.6667 0.7454 -123.6336 212.491)" class="st15" width="166.8" height="42.1"/>
<linearGradient id="SVGID_2_" gradientUnits="userSpaceOnUse" x1="32.5" y1="-473.8" x2="32.5" y2="-473.8" gradientTransform="matrix(1 0 0 1 0 332)">
	<stop  offset="0" style="stop-color:#D471AD"/>
	<stop  offset="0.5" style="stop-color:#C7158C"/>
	<stop  offset="1" style="stop-color:#9D248E"/>
</linearGradient>
<path class="st16" d="M32.5-141.8"/>
<path class="st17" d="M405,385.2"/>
<path class="st18" d="M249.6,96.8"/>
<image style="display:none;overflow:visible;" width="1920" height="1080" xlink:href="6E4A767F.jpg"  transform="matrix(1 0 0 1 -795 -345)">
</image>
<path class="st19" d="M400.8,259.4c0,70.8-52.2,129.5-120.2,139.7c0,0,0,0,0,0c-4.6,0.7-9.3,1.2-14,1.4c-2.3,0.1-4.6,0.2-7,0.2
	c-78,0-141.2-63.2-141.2-141.2c0-1.7,0-3.3,0.1-5c0.4-10.7,1.9-21,4.5-30.9c9.1-34.8,31.2-64.3,60.7-83.2
	c21.8-13.9,47.7-22.1,75.5-22.1h0.5c11,0,21.7,1.3,32,3.6c7.1,1.6,13.9,3.8,20.5,6.5c35.1,14.1,63.3,41.8,77.8,76.7
	c3.7,8.7,6.5,17.9,8.3,27.4C399.9,241.2,400.8,250.2,400.8,259.4z"/>
<path class="st20" d="M266.6,160c0,28.3-9.7,53.9-25.2,72c-5.2,6.1-11.2,11.4-17.6,15.6c-11.4,7.5-24.5,11.8-38.4,11.8
	c-16.7,0-32.3-6.2-45.2-16.8c-6.5-5.3-12.3-11.8-17.3-19.1c9.1-34.8,31.2-64.3,60.7-83.2c21.8-13.9,47.7-22.1,75.5-22.1
	C263.9,130.9,266.6,145.1,266.6,160z"/>
<path class="st21" d="M280.7,345.3c0,16.1-3.3,31.4-9.3,45.2c-1.5,3.4-3.1,6.8-4.9,10c-2.3,0.1-4.6,0.2-7,0.2
	c-78,0-141.2-63.2-141.2-141.2c0-1.7,0-3.3,0.1-5c6.8-4.8,14.1-8.8,21.8-11.8c11.3-4.4,23.6-6.9,36.4-6.9c17,0,33,4.3,47.2,11.9
	c7.3,3.9,14.1,8.7,20.3,14.2C266.5,282,280.7,311.9,280.7,345.3z"/>
<path class="st22" d="M400.8,259.4c0,70.8-52.2,129.5-120.2,139.7c0,0,0,0,0,0c-3.2-2.7-6.2-5.5-9.1-8.6
	c-20.3-21.6-33.1-53.3-33.1-88.7c0-14,2-27.5,5.7-39.9c3.2-10.7,7.6-20.7,13.1-29.8c7.2-11.9,16.1-22.1,26.4-29.9v0
	c8.5-6.5,17.9-11.5,28-14.5c7.5-2.3,15.4-3.5,23.4-3.5c20.4,0,39.4,7.7,54.9,20.9c3.7,8.7,6.5,17.9,8.3,27.4
	C399.9,241.2,400.8,250.2,400.8,259.4z"/>
<path class="st23" d="M317.2,157.2c0,10.8-2,21.1-5.7,30.4c-4.4,11.1-11.1,20.8-19.5,28.3c-9.8,8.8-21.7,14.6-34.9,16.2
	c-2.5,0.3-5,0.5-7.6,0.5c-2.8,0-5.5-0.2-8.2-0.5c-33.5-4.5-59.5-36.3-59.5-74.8c0-5.8,0.6-11.5,1.7-16.9
	c21.8-13.9,47.7-22.1,75.5-22.1h0.5c11,0,21.7,1.3,32,3.6c7.1,1.6,13.9,3.8,20.5,6.5C315.4,137.2,317.2,147,317.2,157.2z"/>
<path class="st24" d="M312,128.3c-6.6-2.7-13.5-4.8-20.5-6.5"/>
<path class="st24" d="M398.2,232.4c-1.8-9.5-4.6-18.7-8.3-27.4"/>
<path class="st25" d="M398.2,232.4c-12.6,8.8-27.9,14-44.5,14c-25.1,0-47.5-11.9-61.7-30.5c-3.3-4.3-6.1-8.9-8.5-13.7v0
	c-4.9-10.2-7.6-21.6-7.6-33.6c0-17.5,5.8-33.7,15.6-46.7c7.1,1.6,13.9,3.8,20.5,6.5c35.1,14.1,63.3,41.8,77.8,76.7
	C393.6,213.7,396.4,222.9,398.2,232.4z"/>
</svg>
