<?xml version="1.0" encoding="utf-8"?>
<!-- Generator: Adobe Illustrator 24.0.1, SVG Export Plug-In . SVG Version: 6.00 Build 0)  -->
<svg version="1.1" id="Layer_1" xmlns="http://www.w3.org/2000/svg" xmlns:xlink="http://www.w3.org/1999/xlink" x="0px" y="0px"
	 viewBox="0 0 512 512" style="enable-background:new 0 0 512 512;" xml:space="preserve">
<style type="text/css">
	.st0{display:none;}
	.st1{display:inline;fill:#200A7F;stroke:#18E5EA;stroke-width:20;stroke-miterlimit:10;}
	.st2{display:inline;fill:#EF0B79;}
	.st3{display:inline;fill:#18E5EA;}
	.st4{display:inline;}
	.st5{fill:#E9F21C;}
	.st6{display:inline;fill:none;}
	.st7{display:inline;fill:#EF3A24;}
	.st8{font-family:'MyriadPro-Regular';}
	.st9{font-size:250px;}
	.st10{display:inline;fill:#FFFFFF;}
	.st11{fill:#C4C6C8;}
	.st12{fill:url(#SVGID_1_);}
	.st13{fill:url(#SVGID_2_);stroke:#E8E8E8;stroke-width:3;stroke-miterlimit:10;}
	.st14{fill:#EDF5E1;stroke:url(#SVGID_3_);stroke-width:4;stroke-miterlimit:10;}
	.st15{fill:#FFFFFF;}
</style>
<g id="Layer_3" class="st0">
	<path class="st1" d="M401.1,212.2c5.1,15.3,7.9,31.7,7.9,48.8c0,85.3-69.2,154.5-154.5,154.5S100,346.3,100,261
		s69.2-154.5,154.5-154.5c51.2,0,96.6,24.9,124.7,63.3"/>
	<path class="st2" d="M333.4,255.2c0,4.2-3.3,7.7-7.4,7.7H174.9c-4.1,0-7.4-3.4-7.4-7.7l0,0c0-4.2,3.3-7.7,7.4-7.7H326
		C330.1,247.5,333.4,250.9,333.4,255.2L333.4,255.2z"/>
	<path class="st2" d="M333.4,284.8c0,4.2-3.3,7.6-7.4,7.6H174.9c-4.1,0-7.4-3.4-7.4-7.6l0,0c0-4.2,3.3-7.6,7.4-7.6H326
		C330.1,277.1,333.4,280.6,333.4,284.8L333.4,284.8z"/>
	<path class="st2" d="M333.4,313c0,4.2-3.3,7.7-7.4,7.7H174.9c-4.1,0-7.4-3.4-7.4-7.7l0,0c0-4.2,3.3-7.6,7.4-7.6H326
		C330.1,305.4,333.4,308.8,333.4,313L333.4,313z"/>
	<path class="st2" d="M333.4,338.4c0,4.2-3.3,7.7-7.4,7.7H174.9c-4.1,0-7.4-3.4-7.4-7.7l0,0c0-4.2,3.3-7.6,7.4-7.6H326
		C330.1,330.7,333.4,334.1,333.4,338.4L333.4,338.4z"/>
	<polygon class="st3" points="395,191.5 320.2,165.2 380.4,113.5 	"/>
	<g class="st4">
		<g>
			<g>
				<path class="st5" d="M241.5,239.2c-2.3,0-4.4-1.1-5.8-2.9l-18.8-24.8c-2.4-3.2-1.8-7.8,1.4-10.3c3.2-2.4,7.8-1.8,10.3,1.4
					l12.3,16.3l31-49.8c2.1-3.4,6.6-4.5,10.1-2.3c3.4,2.1,4.5,6.6,2.3,10.1l-36.7,58.9c-1.3,2-3.5,3.3-5.9,3.4
					C241.7,239.2,241.6,239.2,241.5,239.2z"/>
			</g>
		</g>
	</g>
</g>
<g id="Layer_2_2_" class="st0">
	<rect x="121" y="171.5" class="st6" width="298" height="251"/>
	<text transform="matrix(1 0 0 1 121 348.9979)" class="st7 st8 st9">24</text>
	<circle class="st10" cx="138.3" cy="91.8" r="17.3"/>
	<circle class="st10" cx="185.3" cy="91.8" r="17.3"/>
	<circle class="st10" cx="232.3" cy="91.8" r="17.3"/>
	<circle class="st10" cx="278.3" cy="91.8" r="17.3"/>
	<circle class="st10" cx="323.3" cy="91.8" r="17.3"/>
	<circle class="st10" cx="368.3" cy="91.8" r="17.3"/>
</g>
<g>
	<path class="st11" d="M350.3,54.5H161.7c-17.9,0-34.5,9.6-43.4,25.1L24,242.9c-9,15.5-9,34.6,0,50.2l94.3,163.3
		c9,15.5,25.5,25.1,43.4,25.1h188.5c17.9,0,34.5-9.6,43.4-25.1L488,293.1c9-15.5,9-34.6,0-50.2L393.7,79.6
		C384.8,64.1,368.2,54.5,350.3,54.5z"/>
</g>
<g>
	<radialGradient id="SVGID_1_" cx="256.8813" cy="253.95" r="226.4908" gradientUnits="userSpaceOnUse">
		<stop  offset="0" style="stop-color:#FFFFFF"/>
		<stop  offset="5.464292e-02" style="stop-color:#FDE8E8"/>
		<stop  offset="0.1819" style="stop-color:#F8B6B7"/>
		<stop  offset="0.3125" style="stop-color:#F48C8D"/>
		<stop  offset="0.4442" style="stop-color:#F16A6B"/>
		<stop  offset="0.5775" style="stop-color:#EE4F50"/>
		<stop  offset="0.713" style="stop-color:#EC3C3D"/>
		<stop  offset="0.852" style="stop-color:#EB3132"/>
		<stop  offset="1" style="stop-color:#EB2D2E"/>
	</radialGradient>
	<path class="st12" d="M491.1,274.8c-0.7,1.4-1.4,2.9-2.2,4.3L406,422.7l-11.4,19.7c-0.5,1-1.1,1.9-1.7,2.8
		c-8.3,12.4-21.7,20.5-36.5,22c-1.7,0.2-3.4,0.3-5.2,0.3H162.6c-17.9,0-34.5-9.6-43.5-25.1l-15.3-26.6L42.1,308.9l-8.7-15.1
		L24.9,279c-9-15.5-9-34.6,0-50.2l6.5-11.3l22.3-38.6l65.5-113.4c9-15.5,25.5-25.1,43.5-25.1h188.5c17.9,0,34.5,9.6,43.5,25.1
		l20.7,35.9l6.3,10.9l25.3,43.8l2.4,4.2l5.5,9.6l7,12l27.1,47c1.2,2,2.2,4.1,3,6.2C497.1,247.9,496.8,262.3,491.1,274.8z"/>
	<radialGradient id="SVGID_2_" cx="256.8813" cy="253.95" r="226.4908" gradientUnits="userSpaceOnUse">
		<stop  offset="0" style="stop-color:#FFFFFF"/>
		<stop  offset="5.464292e-02" style="stop-color:#FDE8E8"/>
		<stop  offset="0.1819" style="stop-color:#F8B6B7"/>
		<stop  offset="0.3125" style="stop-color:#F48C8D"/>
		<stop  offset="0.4442" style="stop-color:#F16A6B"/>
		<stop  offset="0.5775" style="stop-color:#EE4F50"/>
		<stop  offset="0.713" style="stop-color:#EC3C3D"/>
		<stop  offset="0.852" style="stop-color:#EB3132"/>
		<stop  offset="1" style="stop-color:#EB2D2E"/>
	</radialGradient>
	<path class="st13" d="M491.1,274.8c-0.7,1.4-1.4,2.9-2.2,4.3L406,422.7l-11.4,19.7c-0.5,1-1.1,1.9-1.7,2.8
		c-8.3,12.4-21.7,20.5-36.5,22c-1.7,0.2-3.4,0.3-5.2,0.3H162.6c-17.9,0-34.5-9.6-43.5-25.1l-15.3-26.6L42.1,308.9l-8.7-15.1
		L24.9,279c-9-15.5-9-34.6,0-50.2l6.5-11.3l22.3-38.6l65.5-113.4c9-15.5,25.5-25.1,43.5-25.1h188.5c17.9,0,34.5,9.6,43.5,25.1
		l20.7,35.9l6.3,10.9l25.3,43.8l2.4,4.2l5.5,9.6l7,12l27.1,47c1.2,2,2.2,4.1,3,6.2C497.1,247.9,496.8,262.3,491.1,274.8z"/>
</g>
<linearGradient id="SVGID_3_" gradientUnits="userSpaceOnUse" x1="274.5482" y1="344" x2="274.5482" y2="344" gradientTransform="matrix(1 0 0 -1 0 512)">
	<stop  offset="0" style="stop-color:#FFFF25"/>
	<stop  offset="3.320000e-02" style="stop-color:#FAED31"/>
	<stop  offset="9.210000e-02" style="stop-color:#F4D242"/>
	<stop  offset="0.1523" style="stop-color:#EFBF4E"/>
	<stop  offset="0.2141" style="stop-color:#ECB456"/>
	<stop  offset="0.28" style="stop-color:#EBB058"/>
	<stop  offset="0.67" style="stop-color:#DB7971"/>
	<stop  offset="0.89" style="stop-color:#CD497E"/>
	<stop  offset="1" style="stop-color:#BB1284"/>
</linearGradient>
<path class="st14" d="M274.5,168"/>
<g id="Layer_2_3_">
	<path class="st15" d="M291.6,188.5c-19.4,0-29.7,9.4-34.8,16.8c-5.1-7.5-15.4-16.8-34.7-16.8c-23.2,0-48.1,15.4-48.1,49.3
		c0,13.3,2.9,23.9,9.7,35.4c6.6,11.2,20.6,24.9,41.6,40.9c8.2,6.2,15.7,11.5,20.6,14.8c9.4,6.3,9.8,6.4,10.9,6.4c0.1,0,0.1,0,0.2,0
		c1.1,0,1.8-0.3,10.8-6.4c4.9-3.3,12.4-8.5,20.6-14.7c21-15.9,35-29.7,41.7-41c6.8-11.5,9.7-22,9.7-35.4
		C339.8,203.9,314.8,188.5,291.6,188.5z"/>
	<path class="st15" d="M376.5,376.7c-9.2,0-14.1,4.4-16.5,8c-2.4-3.5-7.3-8-16.5-8c-11,0-22.8,7.3-22.8,23.3
		c0,6.3,1.4,11.3,4.6,16.8c3.1,5.3,9.8,11.8,19.7,19.4c3.9,3,7.5,5.4,9.8,7c4.4,3,4.6,3,5.2,3c0,0,0.1,0,0.1,0c0.5,0,0.9-0.2,5.1-3
		c2.3-1.6,5.9-4,9.8-7c10-7.6,16.6-14.1,19.8-19.4c3.2-5.4,4.6-10.4,4.6-16.8C399.3,384,387.4,376.7,376.5,376.7z"/>
	<path class="st15" d="M183.1,64.2c-9.2,0-14.1,4.4-16.5,8c-2.4-3.5-7.3-8-16.5-8c-11,0-22.8,7.3-22.8,23.3c0,6.3,1.4,11.3,4.6,16.8
		c3.1,5.3,9.8,11.8,19.7,19.4c3.9,3,7.5,5.4,9.8,7c4.4,3,4.6,3,5.2,3c0,0,0.1,0,0.1,0c0.5,0,0.9-0.2,5.1-3c2.3-1.6,5.9-4,9.8-7
		c10-7.6,16.6-14.1,19.8-19.4c3.2-5.4,4.6-10.4,4.6-16.8C205.9,71.5,194,64.2,183.1,64.2z"/>
</g>
</svg>
