<?xml version="1.0" encoding="utf-8"?>
<!-- Generator: Adobe Illustrator 24.0.1, SVG Export Plug-In . SVG Version: 6.00 Build 0)  -->
<svg version="1.1" id="Layer_1" xmlns="http://www.w3.org/2000/svg" xmlns:xlink="http://www.w3.org/1999/xlink" x="0px" y="0px"
	 viewBox="0 0 512 512" style="enable-background:new 0 0 512 512;" xml:space="preserve">
<style type="text/css">
	.st0{display:none;}
	.st1{display:inline;fill:#200A7F;stroke:#18E5EA;stroke-width:20;stroke-miterlimit:10;}
	.st2{display:inline;fill:#EF0B79;}
	.st3{display:inline;fill:#18E5EA;}
	.st4{display:inline;}
	.st5{fill:#E9F21C;}
	.st6{display:inline;fill:none;}
	.st7{display:inline;fill:#EF3A24;}
	.st8{font-family:'MyriadPro-Regular';}
	.st9{font-size:250px;}
	.st10{display:inline;fill:#FFFFFF;}
	.st11{fill:#C4C6C8;}
	.st12{fill:url(#SVGID_1_);}
	.st13{fill:url(#SVGID_2_);}
	.st14{fill:url(#SVGID_3_);}
	.st15{fill:url(#SVGID_4_);}
	.st16{fill:url(#SVGID_5_);}
	.st17{fill:#95A5A6;}
	.st18{fill:url(#rect4120_1_);}
	.st19{opacity:0.5;}
</style>
<g id="Layer_3" class="st0">
	<path class="st1" d="M401.1,212.2c5.1,15.3,7.9,31.7,7.9,48.8c0,85.3-69.2,154.5-154.5,154.5S100,346.3,100,261
		s69.2-154.5,154.5-154.5c51.2,0,96.6,24.9,124.7,63.3"/>
	<path class="st2" d="M333.4,255.2c0,4.2-3.3,7.7-7.4,7.7H174.9c-4.1,0-7.4-3.4-7.4-7.7l0,0c0-4.2,3.3-7.7,7.4-7.7H326
		C330.1,247.5,333.4,250.9,333.4,255.2L333.4,255.2z"/>
	<path class="st2" d="M333.4,284.8c0,4.2-3.3,7.6-7.4,7.6H174.9c-4.1,0-7.4-3.4-7.4-7.6l0,0c0-4.2,3.3-7.6,7.4-7.6H326
		C330.1,277.1,333.4,280.6,333.4,284.8L333.4,284.8z"/>
	<path class="st2" d="M333.4,313c0,4.2-3.3,7.7-7.4,7.7H174.9c-4.1,0-7.4-3.4-7.4-7.7l0,0c0-4.2,3.3-7.6,7.4-7.6H326
		C330.1,305.4,333.4,308.8,333.4,313L333.4,313z"/>
	<path class="st2" d="M333.4,338.4c0,4.2-3.3,7.7-7.4,7.7H174.9c-4.1,0-7.4-3.4-7.4-7.7l0,0c0-4.2,3.3-7.6,7.4-7.6H326
		C330.1,330.7,333.4,334.1,333.4,338.4L333.4,338.4z"/>
	<polygon class="st3" points="395,191.5 320.2,165.2 380.4,113.5 	"/>
	<g class="st4">
		<g>
			<g>
				<path class="st5" d="M241.5,239.2c-2.3,0-4.4-1.1-5.8-2.9l-18.8-24.8c-2.4-3.2-1.8-7.8,1.4-10.3c3.2-2.4,7.8-1.8,10.3,1.4
					l12.3,16.3l31-49.8c2.1-3.4,6.6-4.5,10.1-2.3c3.4,2.1,4.5,6.6,2.3,10.1l-36.7,58.9c-1.3,2-3.5,3.3-5.9,3.4
					C241.7,239.2,241.6,239.2,241.5,239.2z"/>
			</g>
		</g>
	</g>
</g>
<g id="Layer_2_2_" class="st0">
	<rect x="121" y="171.5" class="st6" width="298" height="251"/>
	<text transform="matrix(1 0 0 1 121 348.9979)" class="st7 st8 st9">24</text>
	<circle class="st10" cx="138.3" cy="91.8" r="17.3"/>
	<circle class="st10" cx="185.3" cy="91.8" r="17.3"/>
	<circle class="st10" cx="232.3" cy="91.8" r="17.3"/>
	<circle class="st10" cx="278.3" cy="91.8" r="17.3"/>
	<circle class="st10" cx="323.3" cy="91.8" r="17.3"/>
	<circle class="st10" cx="368.3" cy="91.8" r="17.3"/>
</g>
<g>
	<path class="st11" d="M350.3,54.5H161.7c-17.9,0-34.5,9.6-43.4,25.1L24,242.9c-9,15.5-9,34.6,0,50.2l94.3,163.3
		c9,15.5,25.5,25.1,43.4,25.1h188.5c17.9,0,34.5-9.6,43.4-25.1L488,293.1c9-15.5,9-34.6,0-50.2L393.7,79.6
		C384.8,64.1,368.2,54.5,350.3,54.5z"/>
</g>
<g>
	<linearGradient id="SVGID_1_" gradientUnits="userSpaceOnUse" x1="18.15" y1="253.95" x2="495.6125" y2="253.95">
		<stop  offset="0" style="stop-color:#BDC3C7"/>
		<stop  offset="1" style="stop-color:#E3E3E3"/>
	</linearGradient>
	<path class="st12" d="M491.1,274.8c-0.7,1.4-1.4,2.9-2.2,4.3L427,386.3L407,421l-12.4,21.4c-0.5,1-1.1,1.9-1.7,2.8
		c-8.3,12.4-21.7,20.5-36.5,22c-1.7,0.2-3.4,0.3-5.2,0.3H162.6c-17.9,0-34.5-9.6-43.5-25.1L106.8,421l-3-5.2L85,383.2l-51.6-89.4
		L24.9,279c-9-15.5-9-34.6,0-50.2l6.5-11.3l22.3-38.6L85,124.7L111.4,79l7.8-13.5c9-15.5,25.5-25.1,43.5-25.1h188.5
		c17.9,0,34.5,9.6,43.5,25.1l7.8,13.5l12.9,22.4l6.3,10.9l5.3,9.2l20,34.6l2.4,4.2l5.5,9.6l7,12l27.1,47c1.2,2,2.2,4.1,3,6.2
		C497.1,247.9,496.8,262.3,491.1,274.8z"/>
	<linearGradient id="SVGID_2_" gradientUnits="userSpaceOnUse" x1="18.15" y1="253.95" x2="495.6125" y2="253.95">
		<stop  offset="0" style="stop-color:#BDC3C7"/>
		<stop  offset="1" style="stop-color:#E3E3E3"/>
	</linearGradient>
	<path class="st13" d="M491.1,274.8c-0.7,1.4-1.4,2.9-2.2,4.3L427,386.3L407,421l-12.4,21.4c-0.5,1-1.1,1.9-1.7,2.8
		c-8.3,12.4-21.7,20.5-36.5,22c-1.7,0.2-3.4,0.3-5.2,0.3H162.6c-17.9,0-34.5-9.6-43.5-25.1L106.8,421l-3-5.2L85,383.2l-51.6-89.4
		L24.9,279c-9-15.5-9-34.6,0-50.2l6.5-11.3l22.3-38.6L85,124.7L111.4,79l7.8-13.5c9-15.5,25.5-25.1,43.5-25.1h188.5
		c17.9,0,34.5,9.6,43.5,25.1l7.8,13.5l12.9,22.4l6.3,10.9l5.3,9.2l20,34.6l2.4,4.2l5.5,9.6l7,12l27.1,47c1.2,2,2.2,4.1,3,6.2
		C497.1,247.9,496.8,262.3,491.1,274.8z"/>
</g>
<sodipodi:namedview  bordercolor="#666666" borderlayer="true" borderopacity="1.0" fit-margin-bottom="0" fit-margin-left="0" fit-margin-right="0" fit-margin-top="0" id="base" pagecolor="#ffffff" showgrid="true" showguides="true" units="px">
	<sodipodi:guide  id="guide4120" orientation="47.999977,0" position="-6.6748425e-06,47.999999"></sodipodi:guide>
	<sodipodi:guide  id="guide4122" orientation="0,48.000004" position="-6.6748425e-06,2.2810037e-05"></sodipodi:guide>
	<sodipodi:guide  id="guide4124" orientation="-47.999977,0" position="47.999997,2.2810037e-05"></sodipodi:guide>
	<sodipodi:guide  id="guide4126" orientation="0,-48.000004" position="47.999997,47.999999"></sodipodi:guide>
	<sodipodi:guide  id="guide4138" orientation="39.999962,0" position="3.9999733,44.000154"></sodipodi:guide>
	<sodipodi:guide  id="guide4140" orientation="0,40.000003" position="3.9999733,4.0001921"></sodipodi:guide>
	<sodipodi:guide  id="guide4142" orientation="-39.999962,0" position="43.999976,4.0001921"></sodipodi:guide>
	<sodipodi:guide  id="guide4144" orientation="0,-40.000003" position="43.999976,44.000154"></sodipodi:guide>
	<sodipodi:guide  id="guide4148" orientation="39.999962,0" position="6.9999922,47.999999"></sodipodi:guide>
	<sodipodi:guide  id="guide4150" orientation="0,34.000006" position="6.9999922,8.0000369"></sodipodi:guide>
	<sodipodi:guide  id="guide4152" orientation="-39.999962,0" position="40.999998,8.0000369"></sodipodi:guide>
	<sodipodi:guide  id="guide4154" orientation="0,-34.000006" position="40.999998,47.999999"></sodipodi:guide>
	<sodipodi:guide  id="guide4158" orientation="17.999951,0" position="14.999993,32.999986"></sodipodi:guide>
	<sodipodi:guide  id="guide4160" orientation="0,17.999998" position="14.999993,15.000036"></sodipodi:guide>
	<sodipodi:guide  id="guide4162" orientation="-17.999951,0" position="32.999991,15.000036"></sodipodi:guide>
	<sodipodi:guide  id="guide4164" orientation="0,-17.999998" position="32.999991,32.999986"></sodipodi:guide>
	<sodipodi:guide  id="guide3279" orientation="39.999962,0" position="1.9999969,44.000046"></sodipodi:guide>
	<sodipodi:guide  id="guide3281" orientation="0,44.000003" position="1.9999969,4.0000839"></sodipodi:guide>
	<sodipodi:guide  id="guide3283" orientation="-39.999962,0" position="46,4.0000839"></sodipodi:guide>
	<sodipodi:guide  id="guide3285" orientation="0,-44.000003" position="46,44.000046"></sodipodi:guide>
	<sodipodi:guide  id="guide4133" orientation="0,-2.0000035" position="21.499997,22.000035"></sodipodi:guide>
	<sodipodi:guide  id="guide4137" orientation="0,2.0000035" position="19.499994,15.000036"></sodipodi:guide>
	<sodipodi:guide  id="guide4149" orientation="0,-2.0000035" position="21.499997,22.000035"></sodipodi:guide>
	<sodipodi:guide  id="guide4151" orientation="6.9999988,0" position="19.499994,22.000035"></sodipodi:guide>
	<sodipodi:guide  id="guide4153" orientation="0,2.0000035" position="19.499994,15.000036"></sodipodi:guide>
	<sodipodi:guide  id="guide4155" orientation="-6.9999988,0" position="21.499997,15.000036"></sodipodi:guide>
	<sodipodi:guide  id="guide4157" orientation="0,-1.9999968" position="28.499996,22.000035"></sodipodi:guide>
	<sodipodi:guide  id="guide4159" orientation="6.9999988,0" position="26.5,22.000035"></sodipodi:guide>
	<sodipodi:guide  id="guide4161" orientation="0,1.9999968" position="26.5,15.000036"></sodipodi:guide>
	<sodipodi:guide  id="guide4163" orientation="-6.9999988,0" position="28.499996,15.000036"></sodipodi:guide>
	<inkscape:grid  id="grid3796" type="xygrid"></inkscape:grid>
</sodipodi:namedview>
<g id="layer1" transform="translate(38.119153,-397.84494)">
	<linearGradient id="SVGID_3_" gradientUnits="userSpaceOnUse" x1="46.8808" y1="499.7" x2="73.2809" y2="499.7">
		<stop  offset="0" style="stop-color:#BDC3C7"/>
		<stop  offset="1" style="stop-color:#E3E3E3"/>
	</linearGradient>
	<line class="st14" x1="73.3" y1="476.8" x2="46.9" y2="522.6"/>
	<linearGradient id="SVGID_4_" gradientUnits="userSpaceOnUse" x1="364.3608" y1="498.0849" x2="388.8809" y2="498.0849">
		<stop  offset="0" style="stop-color:#BDC3C7"/>
		<stop  offset="1" style="stop-color:#E3E3E3"/>
	</linearGradient>
	<polyline class="st15" points="388.9,519.3 383.6,510.1 377.3,499.2 364.4,476.8 	"/>
	<linearGradient id="SVGID_5_" gradientUnits="userSpaceOnUse" x1="46.8808" y1="647.8449" x2="388.8809" y2="647.8449">
		<stop  offset="0" style="stop-color:#BDC3C7"/>
		<stop  offset="1" style="stop-color:#E3E3E3"/>
	</linearGradient>
	<polygon class="st16" points="388.9,519.3 388.9,784.1 368.8,818.8 68.7,818.8 65.7,813.6 46.9,781.1 46.9,522.6 73.3,476.8 
		364.4,476.8 377.3,499.2 383.6,510.1 	"/>
	<rect id="rect4139" x="72.5" y="511" class="st17" width="290.7" height="290.7"/>
	
		<linearGradient id="rect4120_1_" gradientUnits="userSpaceOnUse" x1="74.1408" y1="324.7061" x2="156.1827" y2="324.7061" gradientTransform="matrix(3.5433 0 0 -3.5433 -190.1724 1789.8291)">
		<stop  offset="0" style="stop-color:#E2EAEC"/>
		<stop  offset="1" style="stop-color:#FFFFFF"/>
	</linearGradient>
	<rect id="rect4120" x="72.5" y="493.9" class="st18" width="290.7" height="290.7"/>
	<g id="text3024" class="st19">
		<path id="path3027" d="M263.8,716.2l-16-45.7h-54.5l-16,45.7H158l53.7-147.5h16.8l54.5,147.5H263.8L263.8,716.2z M242.2,654.5
			L227,612c-3.2-9.1-5.3-16.8-6.4-23.2c-1.6,7.5-4,15.2-7.2,23.2l-14.4,42.5H242.2L242.2,654.5z"/>
	</g>
</g>
</svg>
