<?xml version="1.0" encoding="utf-8"?>
<!-- Generator: Adobe Illustrator 24.0.1, SVG Export Plug-In . SVG Version: 6.00 Build 0)  -->
<svg version="1.1" id="Layer_1" xmlns="http://www.w3.org/2000/svg" xmlns:xlink="http://www.w3.org/1999/xlink" x="0px" y="0px"
	 viewBox="0 0 512 512" style="enable-background:new 0 0 512 512;" xml:space="preserve">
<style type="text/css">
	.st0{display:none;}
	.st1{display:inline;fill:#200A7F;stroke:#18E5EA;stroke-width:20;stroke-miterlimit:10;}
	.st2{display:inline;fill:#EF0B79;}
	.st3{display:inline;fill:#18E5EA;}
	.st4{display:inline;}
	.st5{fill:#E9F21C;}
	.st6{display:inline;fill:none;}
	.st7{display:inline;fill:#EF3A24;}
	.st8{font-family:'MyriadPro-Regular';}
	.st9{font-size:250px;}
	.st10{display:inline;fill:#FFFFFF;}
	.st11{fill:#C4C6C8;}
	.st12{fill:#026E87;}
	.st13{fill:#026E87;stroke:#E8E8E8;stroke-width:3;stroke-miterlimit:10;}
	.st14{fill:none;}
	.st15{fill:#FFFFFF;}
	.st16{font-family:'MyriadPro-Bold';}
	.st17{font-size:100px;}
</style>
<g id="Layer_3" class="st0">
	<path class="st1" d="M401.1,212.2c5.1,15.3,7.9,31.7,7.9,48.8c0,85.3-69.2,154.5-154.5,154.5S100,346.3,100,261
		s69.2-154.5,154.5-154.5c51.2,0,96.6,24.9,124.7,63.3"/>
	<path class="st2" d="M333.4,255.2c0,4.2-3.3,7.7-7.4,7.7H174.9c-4.1,0-7.4-3.4-7.4-7.7l0,0c0-4.2,3.3-7.7,7.4-7.7H326
		C330.1,247.5,333.4,250.9,333.4,255.2L333.4,255.2z"/>
	<path class="st2" d="M333.4,284.8c0,4.2-3.3,7.6-7.4,7.6H174.9c-4.1,0-7.4-3.4-7.4-7.6l0,0c0-4.2,3.3-7.6,7.4-7.6H326
		C330.1,277.1,333.4,280.6,333.4,284.8L333.4,284.8z"/>
	<path class="st2" d="M333.4,313c0,4.2-3.3,7.7-7.4,7.7H174.9c-4.1,0-7.4-3.4-7.4-7.7l0,0c0-4.2,3.3-7.6,7.4-7.6H326
		C330.1,305.4,333.4,308.8,333.4,313L333.4,313z"/>
	<path class="st2" d="M333.4,338.4c0,4.2-3.3,7.7-7.4,7.7H174.9c-4.1,0-7.4-3.4-7.4-7.7l0,0c0-4.2,3.3-7.6,7.4-7.6H326
		C330.1,330.7,333.4,334.1,333.4,338.4L333.4,338.4z"/>
	<polygon class="st3" points="395,191.5 320.2,165.2 380.4,113.5 	"/>
	<g class="st4">
		<g>
			<g>
				<path class="st5" d="M241.5,239.2c-2.3,0-4.4-1.1-5.8-2.9l-18.8-24.8c-2.4-3.2-1.8-7.8,1.4-10.3c3.2-2.4,7.8-1.8,10.3,1.4
					l12.3,16.3l31-49.8c2.1-3.4,6.6-4.5,10.1-2.3c3.4,2.1,4.5,6.6,2.3,10.1l-36.7,58.9c-1.3,2-3.5,3.3-5.9,3.4
					C241.7,239.2,241.6,239.2,241.5,239.2z"/>
			</g>
		</g>
	</g>
</g>
<g id="Layer_2_2_" class="st0">
	<rect x="121" y="171.5" class="st6" width="298" height="251"/>
	<text transform="matrix(1 0 0 1 121 348.9979)" class="st7 st8 st9">24</text>
	<circle class="st10" cx="138.3" cy="91.8" r="17.3"/>
	<circle class="st10" cx="185.3" cy="91.8" r="17.3"/>
	<circle class="st10" cx="232.3" cy="91.8" r="17.3"/>
	<circle class="st10" cx="278.3" cy="91.8" r="17.3"/>
	<circle class="st10" cx="323.3" cy="91.8" r="17.3"/>
	<circle class="st10" cx="368.3" cy="91.8" r="17.3"/>
</g>
<g>
	<path class="st11" d="M350.3,54.5H161.7c-17.9,0-34.5,9.6-43.4,25.1L24,242.9c-9,15.5-9,34.6,0,50.2l94.3,163.3
		c9,15.5,25.5,25.1,43.4,25.1h188.5c17.9,0,34.5-9.6,43.4-25.1L488,293.1c9-15.5,9-34.6,0-50.2L393.7,79.6
		C384.8,64.1,368.2,54.5,350.3,54.5z"/>
</g>
<g>
	<path class="st12" d="M491.1,274.8c-0.7,1.4-1.4,2.9-2.2,4.3l-94.3,163.3c-0.5,1-1.1,1.9-1.7,2.8c-8.3,12.4-21.7,20.5-36.5,22
		c-1.7,0.2-3.4,0.3-5.2,0.3H162.6c-17.9,0-34.5-9.6-43.5-25.1l-15.3-26.6l-70.4-122L24.9,279c-9-15.5-9-34.6,0-50.2l6.5-11.3
		l22.3-38.6l65.5-113.4c9-15.5,25.5-25.1,43.5-25.1h188.5c17.9,0,34.5,9.6,43.5,25.1l20.7,35.9l6.3,10.9l25.3,43.8l2.4,4.2l5.5,9.6
		l7,12l27.1,47c1.2,2,2.2,4.1,3,6.2C497.1,247.9,496.8,262.3,491.1,274.8z"/>
	<path class="st13" d="M491.1,274.8c-0.7,1.4-1.4,2.9-2.2,4.3l-94.3,163.3c-0.5,1-1.1,1.9-1.7,2.8c-8.3,12.4-21.7,20.5-36.5,22
		c-1.7,0.2-3.4,0.3-5.2,0.3H162.6c-17.9,0-34.5-9.6-43.5-25.1l-15.3-26.6l-70.4-122L24.9,279c-9-15.5-9-34.6,0-50.2l6.5-11.3
		l22.3-38.6l65.5-113.4c9-15.5,25.5-25.1,43.5-25.1h188.5c17.9,0,34.5,9.6,43.5,25.1l20.7,35.9l6.3,10.9l25.3,43.8l2.4,4.2l5.5,9.6
		l7,12l27.1,47c1.2,2,2.2,4.1,3,6.2C497.1,247.9,496.8,262.3,491.1,274.8z"/>
</g>
<rect x="58.4" y="93.3" class="st14" width="411" height="295"/>
<text transform="matrix(1 0 0 1 149.3336 164.3235)" class="st15 st16 st17">Libre </text>
<text transform="matrix(14.7626 0 0 1 134.1313 284.3236)" class="st15 st16 st17"> </text>
<path id="path4168" class="st15" d="M176,316.8c-0.2,0-2.2,0.3-4.3,0.7s-6.8,1.2-10.2,1.8c-3.4,0.6-6.5,1.1-6.8,1.2
	c-0.3,0.1-3.4,0.6-6.8,1.2c-3.4,0.6-6.3,1.1-6.6,1.2c-0.2,0.1-1.5,0.3-2.7,0.5l-2.3,0.4v25.9c0,14.2,0,25.9,0,25.9
	c0,0,1.2,0.2,2.7,0.5s5.5,1,8.9,1.6c3.4,0.6,6.3,1.1,6.5,1.2c0.2,0,3.2,0.6,6.7,1.2c3.5,0.6,8.3,1.4,10.6,1.9
	c2.3,0.4,4.3,0.7,4.4,0.7c0.2,0,0.2-1.6,0.2-32.9v-32.9L176,316.8L176,316.8z M178.6,321.4v2.4v2.4h4.7h4.7v3.5v3.5h-4.7h-4.7v1.2
	v1.2h4.7h4.7v3.5v3.5h-4.7h-4.7v1.2v1.2h4.7h4.7v3.5v3.5h-4.7h-4.7v1.2v1.2h4.7h4.7v3.5v3.5l-4.7,0l-4.7,0l0,1.2l0,1.2h4.7h4.7v3.5
	v3.5l-4.7,0l-4.7,0l0,2.4l0,2.4h14.2H207v-27.1v-27.1h-14.2L178.6,321.4L178.6,321.4z M190.5,326.2h5.8h5.8v3.5v3.5h-5.8h-5.8v-3.5
	V326.2L190.5,326.2z M190.5,335.6h5.8h5.8v3.5v3.5h-5.8h-5.8v-3.5V335.6L190.5,335.6z M164.4,337.3l-0.2,0.5
	c-0.1,0.3-0.3,0.8-0.5,1.2c-0.2,0.4-0.3,0.7-0.4,0.7c-0.1,0-0.2,0.1-0.2,0.3c-0.2,0.5-1.7,3.8-2.4,5.4c-0.8,1.6-1.7,3.6-1.7,3.8
	c0,0.2,1.6,3.6,2.2,4.7c0.2,0.5,0.6,1.1,0.7,1.5c0.2,0.4,0.6,1.4,1.1,2.4c0.9,1.9,1.5,3.3,1.4,3.4c-0.1,0.1-1.7,0.1-2.7,0
	c-0.6-0.1-1.3-0.2-1.5-0.3c-0.5-0.3-1-1.1-1.9-3.5c-1-2.6-1.8-4.2-2-4.2c-0.3,0-0.8,1.1-2.8,6l-0.5,1.2l-0.6,0
	c-0.6,0-3.6-0.2-3.7-0.3c0,0,0.1-0.4,0.3-0.8c0.2-0.4,0.5-1,0.6-1.4s0.4-0.8,0.5-0.9c0.1-0.1,0.4-0.8,0.8-1.5
	c0.3-0.7,1.1-2.4,1.7-3.7l1.2-2.4l-0.5-1.2c-0.3-0.7-0.7-1.6-0.9-2c-0.2-0.4-0.8-1.8-1.3-3s-1-2.5-1.2-2.8c-0.5-1-0.7-1.9-0.6-2.1
	c0.1-0.1,0.9-0.1,2.2-0.2l2,0l0.3,0.9c0.2,0.5,0.6,1.7,1,2.7c1,2.8,1.3,3.5,1.5,3.5c0.3,0,1.3-1.9,2-3.9c0.4-1,0.8-2.1,1-2.6
	s0.4-0.9,0.4-1c0-0.1,0.5-0.2,1.5-0.2c0.8,0,1.9-0.1,2.4-0.1L164.4,337.3z M190.5,345h5.8h5.8v3.5v3.5h-5.8h-5.8v-3.5V345L190.5,345
	z M190.5,354.4h5.8h5.8v3.5v3.5h-5.8h-5.8v-3.5V354.4L190.5,354.4z M190.5,363.8h5.8h5.8v3.5v3.5h-5.8h-5.8v-3.5V363.8L190.5,363.8z
	"/>
<path id="rect2993" class="st15" d="M275.7,314.1c-0.2-0.1-42.8,7.3-43.1,7.6c-0.2,0.1-0.2,5.9-0.2,28.2l0,28l21.3,3.8
	c11.7,2.1,21.4,3.8,21.7,3.7l0.4,0l0-35.6C275.8,330.2,275.8,314.1,275.7,314.1z M278.3,324.2v1.3v1.3l13.9,0.1l13.9,0.1l0,16.3
	c0,9,0.1,16.4,0.1,16.5c0.1,0.1,0.4,0.2,1.3,0.2l1.2,0V342v-17.8h-15.3L278.3,324.2L278.3,324.2L278.3,324.2z M278.3,329.3l0,2.7
	c0,1.9,0,2.7,0.1,2.8c0.1,0.1,0.4,0.1,0.8,0c0.3-0.1,0.8-0.1,1.1-0.1l0.5,0l0,5l0,5l5,0.1l5,0.1l-0.1,0.9c0,0.5-0.2,1.4-0.4,2.1
	c-1,3.1-3.4,5.5-6.5,6.5c-1.1,0.4-1.6,0.4-2.9,0.4c-0.9,0-1.8,0-2.1-0.1l-0.6,0v1.4v1.4l8.8,0.1l8.8,0.1v1.1v1.1l-8.8,0.1l-8.8,0.1
	v2.5v2.5l8.8,0.1l8.8,0.1v1.1v1.1l-8.8,0.1l-8.8,0.1l0,3.7c0,2,0,3.7,0,3.9c0.1,0.2,2.6,0.2,12.8,0.2l12.7,0v-22.9v-22.9h-12.7
	L278.3,329.3L278.3,329.3z M283.5,332.1h0.7c1,0,2.4,0.4,3.8,1.1c1.8,0.9,3.6,2.7,4.4,4.5c0.6,1.4,1,2.4,1,3.6l0,0.6l-4.9,0
	c-2.7,0-4.9,0-5-0.1c-0.1-0.1-0.1-2.3-0.1-4.9L283.5,332.1L283.5,332.1z M254.6,337.8c1.7,0,2.3,0,2.9,0.2c2,0.5,3.3,1.8,4,3.7
	c0.3,0.9,0.4,1.4,0.4,3.3c0,2.5-0.2,3.3-1,4.9c-1.2,2.4-3.8,3.8-7.1,3.8c-0.9,0-1.4,0.1-1.4,0.2c-0.1,0.1-0.2,1.9-0.2,3.9
	c-0.1,2.1-0.2,3.8-0.2,3.9c-0.1,0.2-0.6,0.2-2.5,0.1l-1-0.1l0-11.8c0-6.5,0-11.8,0.1-11.9c0.1-0.1,2-0.2,4.2-0.2
	C253.3,337.8,254,337.8,254.6,337.8z M252.1,341.9l0,3.5c0,4.3,0,4.3,1.5,4.3c0.6,0,1.2-0.1,1.7-0.4c1.5-0.7,2.2-2,2.1-4
	c-0.1-1.5-0.6-2.5-1.5-3c-0.7-0.4-0.9-0.4-2.3-0.4L252.1,341.9z"/>
<path class="st15" d="M374.5,313.9l-40.1,7.6c-0.7,0.1-1.2,0.7-1.2,1.4v53.4c0,0.7,0.5,1.3,1.2,1.4l40.1,7.6c0.1,0,0.2,0,0.3,0
	c0.3,0,0.6-0.1,0.9-0.3c0.3-0.3,0.5-0.7,0.5-1.1v-68.8c0-0.4-0.2-0.8-0.5-1.1C375.3,313.9,374.9,313.9,374.5,313.9z M379,322.5v10
	h17.2v2.9H379v7.2h17.2v2.9H379v7.2h17.2v2.9H379v8.6h17.2v2.9H379v10h21.5c1.6,0,2.9-1.3,2.9-2.9v-48.7c0-1.6-1.3-2.9-2.9-2.9
	L379,322.5L379,322.5z M339.8,336.3h5.1l2.9,17.8c0.1,0.8,0.2,1.8,0.3,3.1h0.1c0-1,0.2-2,0.4-3.1l3.8-17.8h5l3.4,18
	c0.1,0.7,0.2,1.6,0.3,2.9h0c0-1,0.1-2,0.3-3l2.9-17.9h4.7l-5.5,26.8h-5.2l-3.4-17.1c-0.2-0.9-0.3-1.9-0.3-3h0
	c-0.1,1.2-0.2,2.3-0.4,3l-3.5,17.1h-5.4L339.8,336.3z"/>
<rect x="130.9" y="203.3" class="st14" width="334" height="91"/>
<text transform="matrix(1 0 0 1 130.8814 274.3235)" class="st15 st16 st17">Office</text>
</svg>
