<?xml version="1.0" encoding="utf-8"?>
<!-- Generator: Adobe Illustrator 24.0.1, SVG Export Plug-In . SVG Version: 6.00 Build 0)  -->
<svg version="1.1" id="Layer_1" xmlns="http://www.w3.org/2000/svg" xmlns:xlink="http://www.w3.org/1999/xlink" x="0px" y="0px"
	 viewBox="0 0 512 512" style="enable-background:new 0 0 512 512;" xml:space="preserve">
<style type="text/css">
	.st0{display:none;}
	.st1{display:inline;fill:#200A7F;stroke:#18E5EA;stroke-width:20;stroke-miterlimit:10;}
	.st2{display:inline;fill:#EF0B79;}
	.st3{display:inline;fill:#18E5EA;}
	.st4{display:inline;}
	.st5{fill:#E9F21C;}
	.st6{display:inline;fill:none;}
	.st7{display:inline;fill:#EF3A24;}
	.st8{font-family:'MyriadPro-Regular';}
	.st9{font-size:250px;}
	.st10{display:inline;fill:#FFFFFF;}
	.st11{fill:#C4C6C8;}
	.st12{fill:url(#SVGID_1_);}
	.st13{fill:url(#SVGID_2_);stroke:#E8E8E8;stroke-width:3;stroke-miterlimit:10;}
	.st14{fill:#FEFEFE;}
</style>
<g id="Layer_3" class="st0">
	<path class="st1" d="M401.1,212.2c5.1,15.3,7.9,31.7,7.9,48.8c0,85.3-69.2,154.5-154.5,154.5S100,346.3,100,261
		s69.2-154.5,154.5-154.5c51.2,0,96.6,24.9,124.7,63.3"/>
	<path class="st2" d="M333.4,255.2c0,4.2-3.3,7.7-7.4,7.7H174.9c-4.1,0-7.4-3.4-7.4-7.7l0,0c0-4.2,3.3-7.7,7.4-7.7H326
		C330.1,247.5,333.4,250.9,333.4,255.2L333.4,255.2z"/>
	<path class="st2" d="M333.4,284.8c0,4.2-3.3,7.6-7.4,7.6H174.9c-4.1,0-7.4-3.4-7.4-7.6l0,0c0-4.2,3.3-7.6,7.4-7.6H326
		C330.1,277.1,333.4,280.6,333.4,284.8L333.4,284.8z"/>
	<path class="st2" d="M333.4,313c0,4.2-3.3,7.7-7.4,7.7H174.9c-4.1,0-7.4-3.4-7.4-7.7l0,0c0-4.2,3.3-7.6,7.4-7.6H326
		C330.1,305.4,333.4,308.8,333.4,313L333.4,313z"/>
	<path class="st2" d="M333.4,338.4c0,4.2-3.3,7.7-7.4,7.7H174.9c-4.1,0-7.4-3.4-7.4-7.7l0,0c0-4.2,3.3-7.6,7.4-7.6H326
		C330.1,330.7,333.4,334.1,333.4,338.4L333.4,338.4z"/>
	<polygon class="st3" points="395,191.5 320.2,165.2 380.4,113.5 	"/>
	<g class="st4">
		<g>
			<g>
				<path class="st5" d="M241.5,239.2c-2.3,0-4.4-1.1-5.8-2.9l-18.8-24.8c-2.4-3.2-1.8-7.8,1.4-10.3c3.2-2.4,7.8-1.8,10.3,1.4
					l12.3,16.3l31-49.8c2.1-3.4,6.6-4.5,10.1-2.3c3.4,2.1,4.5,6.6,2.3,10.1l-36.7,58.9c-1.3,2-3.5,3.3-5.9,3.4
					C241.7,239.2,241.6,239.2,241.5,239.2z"/>
			</g>
		</g>
	</g>
</g>
<g id="Layer_2_2_" class="st0">
	<rect x="121" y="171.5" class="st6" width="298" height="251"/>
	<text transform="matrix(1 0 0 1 121 348.9979)" class="st7 st8 st9">24</text>
	<circle class="st10" cx="138.3" cy="91.8" r="17.3"/>
	<circle class="st10" cx="185.3" cy="91.8" r="17.3"/>
	<circle class="st10" cx="232.3" cy="91.8" r="17.3"/>
	<circle class="st10" cx="278.3" cy="91.8" r="17.3"/>
	<circle class="st10" cx="323.3" cy="91.8" r="17.3"/>
	<circle class="st10" cx="368.3" cy="91.8" r="17.3"/>
</g>
<g>
	<path class="st11" d="M350.3,54.5H161.7c-17.9,0-34.5,9.6-43.4,25.1L24,242.9c-9,15.5-9,34.6,0,50.2l94.3,163.3
		c9,15.5,25.5,25.1,43.4,25.1h188.5c17.9,0,34.5-9.6,43.4-25.1L488,293.1c9-15.5,9-34.6,0-50.2L393.7,79.6
		C384.8,64.1,368.2,54.5,350.3,54.5z"/>
</g>
<g>
	
		<linearGradient id="SVGID_1_" gradientUnits="userSpaceOnUse" x1="18.15" y1="-79.3412" x2="495.6125" y2="-79.3412" gradientTransform="matrix(1 0 0 1 0 333.2912)">
		<stop  offset="5.618000e-03" style="stop-color:#D6E1F2"/>
		<stop  offset="0.5112" style="stop-color:#BBD0EC"/>
		<stop  offset="1" style="stop-color:#A2BCE2"/>
	</linearGradient>
	<path class="st12" d="M491.1,274.8c-0.7,1.4-1.4,2.9-2.2,4.3l-94.3,163.3c-0.5,1-1.1,1.9-1.7,2.8c-8.3,12.4-21.7,20.5-36.5,22
		c-1.7,0.2-3.4,0.3-5.2,0.3H162.6c-17.9,0-34.5-9.6-43.5-25.1l-15.3-26.6l-70.4-122L24.9,279c-9-15.5-9-34.6,0-50.2l6.5-11.3
		l22.3-38.6l65.5-113.4c9-15.5,25.5-25.1,43.5-25.1h188.5c17.9,0,34.5,9.6,43.5,25.1l20.7,35.9l6.3,10.9l25.3,43.8l2.4,4.2l5.5,9.6
		l7,12l27.1,47c1.2,2,2.2,4.1,3,6.2C497.1,247.9,496.8,262.3,491.1,274.8z"/>
	
		<linearGradient id="SVGID_2_" gradientUnits="userSpaceOnUse" x1="18.15" y1="258.05" x2="495.6125" y2="258.05" gradientTransform="matrix(1 0 0 -1 0 512)">
		<stop  offset="5.618000e-03" style="stop-color:#D6E1F2"/>
		<stop  offset="0.5112" style="stop-color:#BBD0EC"/>
		<stop  offset="1" style="stop-color:#A2BCE2"/>
	</linearGradient>
	<path class="st13" d="M491.1,274.8c-0.7,1.4-1.4,2.9-2.2,4.3l-94.3,163.3c-0.5,1-1.1,1.9-1.7,2.8c-8.3,12.4-21.7,20.5-36.5,22
		c-1.7,0.2-3.4,0.3-5.2,0.3H162.6c-17.9,0-34.5-9.6-43.5-25.1l-15.3-26.6l-70.4-122L24.9,279c-9-15.5-9-34.6,0-50.2l6.5-11.3
		l22.3-38.6l65.5-113.4c9-15.5,25.5-25.1,43.5-25.1h188.5c17.9,0,34.5,9.6,43.5,25.1l20.7,35.9l6.3,10.9l25.3,43.8l2.4,4.2l5.5,9.6
		l7,12l27.1,47c1.2,2,2.2,4.1,3,6.2C497.1,247.9,496.8,262.3,491.1,274.8z"/>
</g>
<path id="path5033" class="st14" d="M284.4,139.5c-1.1,0-3,0.3-6.8,1c-5.8,1-105.5,16.4-127,19.6c-3,0.4-6,1-6.5,1.2l-1.1,0.4v84
	c0,66.6,0.1,84.1,0.6,84.4c0.3,0.2,18.1,3.1,39.4,6.3c58.5,8.8,86.3,13.2,93.3,14.8c3.5,0.8,7.1,1.4,8.1,1.3l1.7-0.1l0.1-11.1
	l0.1-11.1l45.3-0.1L377,330l2.5-1.1c3.1-1.4,4.3-3.7,4.9-8.8c0.2-1.9,0.3-36.7,0.3-77.5c-0.1-73.6-0.1-74-1.1-75.9
	c-1.2-2.4-2.2-3.3-4.9-4.5c-2.1-1-2.9-1-47.2-1l-45.1,0v-10.4c0-8.8-0.1-10.5-0.7-11C285.4,139.6,285,139.5,284.4,139.5z
	 M285.9,168.8h44.3h44.3v75.9v75.9h-44.3h-44.3l0-34.6l0-34.6l2.9,11.2c1.6,6.2,3.1,11.5,3.4,11.9c0.3,0.5,1.7,0.6,6.8,0.4
	c3.7-0.2,6.6-0.5,7-0.8c0.3-0.3,3.5-13.1,7.2-28.5l6.7-28l7.6-0.3c4.2-0.2,15.6-0.3,25.5-0.4c13.2,0,18-0.2,18.5-0.6
	c0.4-0.4,0.6-2.7,0.6-7.3s-0.2-6.9-0.6-7.3c-0.7-0.7-65.9-0.8-66.3-0.1c-0.2,0.3-1.8,10.4-3.6,22.5c-1.8,12.1-3.4,22.2-3.4,22.4
	s-1.1-2.4-2.2-5.9s-2.3-6.6-2.5-7c-0.3-0.4-1.8-0.6-4-0.6h-3.5V201V168.8z M220,225.1c1.7,0,3,0.1,3.3,0.3c0.7,0.5,2.7,7.5,9,32
	c2.8,10.9,5.1,20,5.3,20.4c0.2,0.6-1.2,0.6-8.1,0.2l-2.9-0.2l-3.5-17.7c-1.9-9.7-3.6-18.1-3.7-18.5s-0.6-0.8-1.1-0.8
	c-1.1,0-0.9-0.7-5.5,19.7c-2,8.9-3.7,16.3-3.7,16.3c0,0-2.5-0.1-5.5-0.2l-5.5-0.3l-4.4-17.6c-3.8-15.2-4.5-17.6-5.2-17.6
	c-0.7,0-1,0.6-1.5,3.3c-1.8,9.9-5.4,29.2-5.7,29.9c-0.2,0.7-0.9,0.8-4.9,0.8h-4.7l1.1-5.4c3.7-17.2,9.4-41.6,9.9-42.1
	c0.3-0.3,2.6-0.6,5.7-0.7l5.1-0.2l0.4,1.7c0.2,0.9,1.8,7.6,3.6,14.8c4.6,19.1,4.2,17.9,5.2,17.9c0.8,0,1.1-1,2.5-6.9
	c0.9-3.8,2.7-11.7,4.1-17.6l2.6-10.7l2.6-0.3C216.3,225.2,218.4,225.1,220,225.1z M361.5,226.4c-1.7,0-3.2,0.1-3.7,0.2
	c-0.7,0.2-2.8,2.5-5.4,6.1c-2.3,3.1-4.4,5.7-4.5,5.7c-0.2,0-2.3-2.6-4.7-5.7c-2.5-3.3-4.9-5.8-5.5-6c-0.6-0.1-2.7-0.2-4.8-0.1
	c-3.4,0.1-3.8,0.2-3.9,1.1c-0.1,0.6,1.2,3.3,2.8,6.2c1.6,2.9,3.6,6.3,4.3,7.6l1.4,2.4l-4.5,5.7c-5.9,7.4-5.9,7.5,0.8,7.7l5.1,0.1
	l4.5-4.1l4.5-4.1l4.8,4.4l4.8,4.4l4.6-0.3c2.5-0.2,4.7-0.4,4.9-0.6c0.9-0.6,0.1-2-4.1-7.3c-2.5-3.1-4.5-5.7-4.5-5.9s2.2-3.7,4.8-8
	c2.6-4.2,4.7-8.1,4.6-8.5c-0.1-0.6-0.9-0.8-4.4-1C362.6,226.4,362.1,226.4,361.5,226.4z"/>
</svg>
