<?xml version="1.0" encoding="utf-8"?>
<!-- Generator: Adobe Illustrator 24.0.1, SVG Export Plug-In . SVG Version: 6.00 Build 0)  -->
<svg version="1.1" id="Layer_1" xmlns="http://www.w3.org/2000/svg" xmlns:xlink="http://www.w3.org/1999/xlink" x="0px" y="0px"
	 viewBox="0 0 512 512" style="enable-background:new 0 0 512 512;" xml:space="preserve">
<style type="text/css">
	.st0{display:none;}
	.st1{display:inline;fill:#200A7F;stroke:#18E5EA;stroke-width:20;stroke-miterlimit:10;}
	.st2{display:inline;fill:#EF0B79;}
	.st3{display:inline;fill:#18E5EA;}
	.st4{display:inline;}
	.st5{fill:#E9F21C;}
	.st6{display:inline;fill:none;}
	.st7{display:inline;fill:#EF3A24;}
	.st8{font-family:'MyriadPro-Regular';}
	.st9{font-size:250px;}
	.st10{display:inline;fill:#FFFFFF;}
	.st11{fill:#C4C6C8;}
	.st12{fill:url(#SVGID_1_);}
	.st13{fill:url(#SVGID_2_);stroke:#E8E8E8;stroke-width:3;stroke-miterlimit:10;}
	.st14{fill:#FFFFFF;stroke:#FFFFFF;stroke-width:3;stroke-miterlimit:10;}
</style>
<g id="Layer_3" class="st0">
	<path class="st1" d="M401.1,212.2c5.1,15.3,7.9,31.7,7.9,48.8c0,85.3-69.2,154.5-154.5,154.5S100,346.3,100,261
		s69.2-154.5,154.5-154.5c51.2,0,96.6,24.9,124.7,63.3"/>
	<path class="st2" d="M333.4,255.2c0,4.2-3.3,7.7-7.4,7.7H174.9c-4.1,0-7.4-3.4-7.4-7.7l0,0c0-4.2,3.3-7.7,7.4-7.7H326
		C330.1,247.5,333.4,250.9,333.4,255.2L333.4,255.2z"/>
	<path class="st2" d="M333.4,284.8c0,4.2-3.3,7.6-7.4,7.6H174.9c-4.1,0-7.4-3.4-7.4-7.6l0,0c0-4.2,3.3-7.6,7.4-7.6H326
		C330.1,277.1,333.4,280.6,333.4,284.8L333.4,284.8z"/>
	<path class="st2" d="M333.4,313c0,4.2-3.3,7.7-7.4,7.7H174.9c-4.1,0-7.4-3.4-7.4-7.7l0,0c0-4.2,3.3-7.6,7.4-7.6H326
		C330.1,305.4,333.4,308.8,333.4,313L333.4,313z"/>
	<path class="st2" d="M333.4,338.4c0,4.2-3.3,7.7-7.4,7.7H174.9c-4.1,0-7.4-3.4-7.4-7.7l0,0c0-4.2,3.3-7.6,7.4-7.6H326
		C330.1,330.7,333.4,334.1,333.4,338.4L333.4,338.4z"/>
	<polygon class="st3" points="395,191.5 320.2,165.2 380.4,113.5 	"/>
	<g class="st4">
		<g>
			<g>
				<path class="st5" d="M241.5,239.2c-2.3,0-4.4-1.1-5.8-2.9l-18.8-24.8c-2.4-3.2-1.8-7.8,1.4-10.3c3.2-2.4,7.8-1.8,10.3,1.4
					l12.3,16.3l31-49.8c2.1-3.4,6.6-4.5,10.1-2.3c3.4,2.1,4.5,6.6,2.3,10.1l-36.7,58.9c-1.3,2-3.5,3.3-5.9,3.4
					C241.7,239.2,241.6,239.2,241.5,239.2z"/>
			</g>
		</g>
	</g>
</g>
<g id="Layer_2_2_" class="st0">
	<rect x="121" y="171.5" class="st6" width="298" height="251"/>
	<text transform="matrix(1 0 0 1 121 348.9979)" class="st7 st8 st9">24</text>
	<circle class="st10" cx="138.3" cy="91.8" r="17.3"/>
	<circle class="st10" cx="185.3" cy="91.8" r="17.3"/>
	<circle class="st10" cx="232.3" cy="91.8" r="17.3"/>
	<circle class="st10" cx="278.3" cy="91.8" r="17.3"/>
	<circle class="st10" cx="323.3" cy="91.8" r="17.3"/>
	<circle class="st10" cx="368.3" cy="91.8" r="17.3"/>
</g>
<g>
	<path class="st11" d="M350.3,48.4H161.7c-17.9,0-34.5,9.7-43.4,25.5L24,239.5c-9,15.7-9,35.1,0,50.9L118.3,456
		c9,15.7,25.5,25.5,43.4,25.5h188.5c17.9,0,34.5-9.7,43.4-25.5L488,290.4c9-15.7,9-35.1,0-50.9L393.7,73.9
		C384.8,58.2,368.2,48.4,350.3,48.4z"/>
</g>
<g>
	<linearGradient id="SVGID_1_" gradientUnits="userSpaceOnUse" x1="18.15" y1="253.95" x2="495.6273" y2="253.95">
		<stop  offset="0" style="stop-color:#F37F7B"/>
		<stop  offset="0.5" style="stop-color:#ED3D57"/>
		<stop  offset="1" style="stop-color:#DD1E47"/>
	</linearGradient>
	<path class="st12" d="M491.1,274.8c-0.7,1.4-1.4,2.9-2.2,4.3l-94.3,163.3c-0.5,1-1.1,1.9-1.7,2.8c-8.3,12.4-21.7,20.5-36.5,22
		c-1.7,0.2-3.4,0.3-5.2,0.3H162.6c-17.9,0-34.5-9.6-43.5-25.1l-15.3-26.6l-70.4-122L24.9,279c-9-15.5-9-34.6,0-50.2l6.5-11.3
		l22.3-38.6L97,104l22.2-38.5c9-15.5,25.5-25.1,43.5-25.1H213c-2.5,5.8-3.9,12.3-3.9,19c0,1.6,0.1,3.2,0.2,4.7
		c2.4,24.4,22.9,43.4,47.9,43.4H419l2.8,4.8l25.3,43.8l2.4,4.2l5.5,9.6l7,12l27.1,47c1.2,2,2.2,4.1,3,6.2
		C497.1,247.9,496.8,262.3,491.1,274.8z"/>
	<linearGradient id="SVGID_2_" gradientUnits="userSpaceOnUse" x1="18.15" y1="253.95" x2="495.6273" y2="253.95">
		<stop  offset="0" style="stop-color:#F37F7B"/>
		<stop  offset="0.5" style="stop-color:#ED3D57"/>
		<stop  offset="1" style="stop-color:#DD1E47"/>
	</linearGradient>
	<path class="st13" d="M491.1,274.8c-0.7,1.4-1.4,2.9-2.2,4.3l-94.3,163.3c-0.5,1-1.1,1.9-1.7,2.8c-8.3,12.4-21.7,20.5-36.5,22
		c-1.7,0.2-3.4,0.3-5.2,0.3H162.6c-17.9,0-34.5-9.6-43.5-25.1l-15.3-26.6l-70.4-122L24.9,279c-9-15.5-9-34.6,0-50.2l6.5-11.3
		l22.3-38.6L97,104l22.2-38.5c9-15.5,25.5-25.1,43.5-25.1H213c-2.5,5.8-3.9,12.3-3.9,19c0,1.6,0.1,3.2,0.2,4.7
		c2.4,24.4,22.9,43.4,47.9,43.4H419l2.8,4.8l25.3,43.8l2.4,4.2l5.5,9.6l7,12l27.1,47c1.2,2,2.2,4.1,3,6.2
		C497.1,247.9,496.8,262.3,491.1,274.8z"/>
</g>
<path d="M494.8,353.7"/>
<path class="st14" d="M325,364.5h21.7c9.1,0,16.4-7.4,16.4-16.5v-80.2c0-9.1-7.4-16.5-16.4-16.5H179.4c-9.1,0-16.5,7.4-16.5,16.5
	v17.3l0,0c0,0.2,0,0.4,0,0.6l0,0l0,0c0,0.2,0,0.4,0,0.6l0,0V348c0,9.1,7.4,16.5,16.5,16.5h27.2c-6.9-11-10.6-23.8-10.6-37l0,0
	c0-18.5,7.3-36.3,20.4-49.4c13.1-13,30.9-20.4,49.4-20.4s36.3,7.4,49.4,20.4c13.1,13.1,20.5,30.9,20.5,49.4
	C335.6,340.7,331.9,353.5,325,364.5z M307.2,383.7h5.2h42.5c15.1,0,27.4-12.3,27.4-27.4v-75.8v-20.9c0-15.1-12.3-27.4-27.4-27.4
	h-45.8l-12.9-75.9c-1-5.9-6.6-9.9-12.5-8.9l-57.2,9.7l0,0c-3.9,0.7-6.6,4.4-5.9,8.3l0,0c0.7,3.9,4.4,6.6,8.3,5.9l0,0l46.5-7.9
	c3.9-0.7,7.7,2,8.3,5.9L286,182c-0.6,0.3-1.1,0.8-1.6,1.4l0,0l-31.9,29.3c-1.5,1.3-4,1.5-5.6,0.3l-21.8-15.4
	c-4.9-3.5-11.9-2.5-15.8,2l-27.4,32.6h-0.8l-7.4-44.1c-0.7-3.9,2-7.6,5.9-8.3l19.7-3.4l0,0c3.9-0.7,6.6-4.4,5.9-8.3l0,0
	c-0.7-3.9-4.4-6.6-8.3-5.9l0,0l-30.4,5.2c-5.9,1-9.8,6.6-8.8,12.5l9.2,52.7l0,0l0,0c-13.1,2.1-23.1,13.4-23.1,27.1v25.5l0,0
	c0,0.2,0,0.4,0,0.6s0,0.4,0,0.6l0,0v69.9c0,15.1,12.3,27.4,27.4,27.4h42.5h10.7c11.9,8.8,26.4,13.6,41.4,13.6
	C280.8,397.3,295.2,392.5,307.2,383.7z M292.2,232.1c1.2-1.4,1.8-3.3,1.4-5.4l-5.5-32.1l-28.5,27.6c-4.3,4.1-11.7,4.7-16.6,1.3
	l-21.3-15.1c-1.6-1.1-4-0.9-5.3,0.6l-20.1,23.1l0,0L292.2,232.1L292.2,232.1L292.2,232.1L292.2,232.1z M251.7,184.5
	c-0.8-4.9,2.5-9.6,7.4-10.4c4.9-0.8,9.6,2.5,10.4,7.4s-2.5,9.6-7.4,10.4C257.2,192.7,252.5,189.4,251.7,184.5L251.7,184.5
	L251.7,184.5L251.7,184.5L251.7,184.5L251.7,184.5z M275.4,360.4L275.4,360.4c3.6-1.1,7.4,1,8.5,4.7l0,0c1.1,3.6-1.1,7.4-4.7,8.5
	l0,0c-4.3,1.3-8.8,1.9-13.4,1.9c-12.7,0-25-5-34-14s-14-21.2-14-33.9c0-12.7,5-25,14-34s21.2-14,34-14c12.7,0,25,5,33.9,14
	c9,9,14,21.2,14,34c0,9-2.5,17.8-7.3,25.4l0,0c-2,3.2-6.2,4.2-9.4,2.2l0,0c-3.2-2-4.2-6.3-2.2-9.5l0,0c3.4-5.4,5.2-11.7,5.2-18.2
	c0-9.1-3.6-17.8-10-24.2c-6.4-6.4-15.1-10-24.2-10s-17.8,3.6-24.2,10s-10,15.1-10,24.2s3.6,17.8,10,24.2c6.4,6.4,15.1,10,24.2,10
	C269,361.7,272.3,361.3,275.4,360.4L275.4,360.4L275.4,360.4L275.4,360.4L275.4,360.4z M186.3,260.8L186.3,260.8c4.4,0,8,3.6,8,8
	l0,0c0,4.4-3.6,8-8,8l0,0c-4.4,0-8-3.6-8-8l0,0C178.3,264.4,181.9,260.8,186.3,260.8L186.3,260.8z M209.5,327.5
	c0-14.9,5.9-29.3,16.5-39.8c10.6-10.6,24.9-16.5,39.9-16.5s29.2,5.9,39.8,16.5c10.6,10.5,16.5,24.9,16.5,39.8s-5.9,29.3-16.5,39.8
	c-10.6,10.6-24.9,16.5-39.8,16.5s-29.3-5.9-39.9-16.5C215.4,356.8,209.5,342.4,209.5,327.5L209.5,327.5z"/>
</svg>
