<?xml version="1.0" encoding="utf-8"?>
<!-- Generator: Adobe Illustrator 24.0.1, SVG Export Plug-In . SVG Version: 6.00 Build 0)  -->
<svg version="1.1" id="Layer_1" xmlns="http://www.w3.org/2000/svg" xmlns:xlink="http://www.w3.org/1999/xlink" x="0px" y="0px"
	 viewBox="0 0 512 512" style="enable-background:new 0 0 512 512;" xml:space="preserve">
<style type="text/css">
	.st0{display:none;}
	.st1{display:inline;fill:#200A7F;stroke:#18E5EA;stroke-width:20;stroke-miterlimit:10;}
	.st2{display:inline;fill:#EF0B79;}
	.st3{display:inline;fill:#18E5EA;}
	.st4{display:inline;}
	.st5{fill:#E9F21C;}
	.st6{display:inline;fill:none;}
	.st7{display:inline;fill:#EF3A24;}
	.st8{font-family:'MyriadPro-Regular';}
	.st9{font-size:250px;}
	.st10{display:inline;fill:#FFFFFF;}
	.st11{fill:#C4C6C8;}
	.st12{fill:url(#SVGID_1_);}
	.st13{fill:url(#SVGID_2_);stroke:#E8E8E8;stroke-width:3;stroke-miterlimit:10;}
	.st14{fill:#FFFFFF;stroke:#FFFFFF;stroke-width:3;stroke-miterlimit:10;}
</style>
<g id="Layer_3" class="st0">
	<path class="st1" d="M401.1,212.2c5.1,15.3,7.9,31.7,7.9,48.8c0,85.3-69.2,154.5-154.5,154.5S100,346.3,100,261
		s69.2-154.5,154.5-154.5c51.2,0,96.6,24.9,124.7,63.3"/>
	<path class="st2" d="M333.4,255.2c0,4.2-3.3,7.7-7.4,7.7H174.9c-4.1,0-7.4-3.4-7.4-7.7l0,0c0-4.2,3.3-7.7,7.4-7.7H326
		C330.1,247.5,333.4,250.9,333.4,255.2L333.4,255.2z"/>
	<path class="st2" d="M333.4,284.8c0,4.2-3.3,7.6-7.4,7.6H174.9c-4.1,0-7.4-3.4-7.4-7.6l0,0c0-4.2,3.3-7.6,7.4-7.6H326
		C330.1,277.1,333.4,280.6,333.4,284.8L333.4,284.8z"/>
	<path class="st2" d="M333.4,313c0,4.2-3.3,7.7-7.4,7.7H174.9c-4.1,0-7.4-3.4-7.4-7.7l0,0c0-4.2,3.3-7.6,7.4-7.6H326
		C330.1,305.4,333.4,308.8,333.4,313L333.4,313z"/>
	<path class="st2" d="M333.4,338.4c0,4.2-3.3,7.7-7.4,7.7H174.9c-4.1,0-7.4-3.4-7.4-7.7l0,0c0-4.2,3.3-7.6,7.4-7.6H326
		C330.1,330.7,333.4,334.1,333.4,338.4L333.4,338.4z"/>
	<polygon class="st3" points="395,191.5 320.2,165.2 380.4,113.5 	"/>
	<g class="st4">
		<g>
			<g>
				<path class="st5" d="M241.5,239.2c-2.3,0-4.4-1.1-5.8-2.9l-18.8-24.8c-2.4-3.2-1.8-7.8,1.4-10.3c3.2-2.4,7.8-1.8,10.3,1.4
					l12.3,16.3l31-49.8c2.1-3.4,6.6-4.5,10.1-2.3c3.4,2.1,4.5,6.6,2.3,10.1l-36.7,58.9c-1.3,2-3.5,3.3-5.9,3.4
					C241.7,239.2,241.6,239.2,241.5,239.2z"/>
			</g>
		</g>
	</g>
</g>
<g id="Layer_2_2_" class="st0">
	<rect x="121" y="171.5" class="st6" width="298" height="251"/>
	<text transform="matrix(1 0 0 1 121 348.9979)" class="st7 st8 st9">24</text>
	<circle class="st10" cx="138.3" cy="91.8" r="17.3"/>
	<circle class="st10" cx="185.3" cy="91.8" r="17.3"/>
	<circle class="st10" cx="232.3" cy="91.8" r="17.3"/>
	<circle class="st10" cx="278.3" cy="91.8" r="17.3"/>
	<circle class="st10" cx="323.3" cy="91.8" r="17.3"/>
	<circle class="st10" cx="368.3" cy="91.8" r="17.3"/>
</g>
<g>
	<path class="st11" d="M350.3,48.4H161.7c-17.9,0-34.5,9.7-43.4,25.5L24,239.5c-9,15.7-9,35.1,0,50.9L118.3,456
		c9,15.7,25.5,25.5,43.4,25.5h188.5c17.9,0,34.5-9.7,43.4-25.5L488,290.4c9-15.7,9-35.1,0-50.9L393.7,73.9
		C384.8,58.2,368.2,48.4,350.3,48.4z"/>
</g>
<g>
	
		<linearGradient id="SVGID_1_" gradientUnits="userSpaceOnUse" x1="18.15" y1="259.3256" x2="495.6273" y2="259.3256" gradientTransform="matrix(1 0 0 -1 0 513.2756)">
		<stop  offset="0" style="stop-color:#B07EB7"/>
		<stop  offset="0.5" style="stop-color:#8C3D96"/>
		<stop  offset="1" style="stop-color:#762A90"/>
	</linearGradient>
	<path class="st12" d="M491.1,274.8c-0.7,1.4-1.4,2.9-2.2,4.3l-94.3,163.3c-0.5,1-1.1,1.9-1.7,2.8c-8.3,12.4-21.7,20.5-36.5,22
		c-1.7,0.2-3.4,0.3-5.2,0.3H162.6c-17.9,0-34.5-9.6-43.5-25.1l-15.3-26.6l-70.4-122L24.9,279c-9-15.5-9-34.6,0-50.2l6.5-11.3
		l22.3-38.6L97,104l22.2-38.5c9-15.5,25.5-25.1,43.5-25.1H213c-2.5,5.8-3.9,12.3-3.9,19c0,1.6,0.1,3.2,0.2,4.7
		c2.4,24.4,22.9,43.4,47.9,43.4H419l2.8,4.8l25.3,43.8l2.4,4.2l5.5,9.6l7,12l27.1,47c1.2,2,2.2,4.1,3,6.2
		C497.1,247.9,496.8,262.3,491.1,274.8z"/>
	
		<linearGradient id="SVGID_2_" gradientUnits="userSpaceOnUse" x1="18.15" y1="259.3256" x2="495.6273" y2="259.3256" gradientTransform="matrix(1 0 0 -1 0 513.2756)">
		<stop  offset="0" style="stop-color:#B07EB7"/>
		<stop  offset="0.5" style="stop-color:#8C3D96"/>
		<stop  offset="1" style="stop-color:#762A90"/>
	</linearGradient>
	<path class="st13" d="M491.1,274.8c-0.7,1.4-1.4,2.9-2.2,4.3l-94.3,163.3c-0.5,1-1.1,1.9-1.7,2.8c-8.3,12.4-21.7,20.5-36.5,22
		c-1.7,0.2-3.4,0.3-5.2,0.3H162.6c-17.9,0-34.5-9.6-43.5-25.1l-15.3-26.6l-70.4-122L24.9,279c-9-15.5-9-34.6,0-50.2l6.5-11.3
		l22.3-38.6L97,104l22.2-38.5c9-15.5,25.5-25.1,43.5-25.1H213c-2.5,5.8-3.9,12.3-3.9,19c0,1.6,0.1,3.2,0.2,4.7
		c2.4,24.4,22.9,43.4,47.9,43.4H419l2.8,4.8l25.3,43.8l2.4,4.2l5.5,9.6l7,12l27.1,47c1.2,2,2.2,4.1,3,6.2
		C497.1,247.9,496.8,262.3,491.1,274.8z"/>
</g>
<path d="M494.8,353.7"/>
<path class="st14" d="M247.6,211.1h-45.4v-12H226c2,0,3.9-0.7,5.4-2c1.5-1.2,2.5-3,2.9-4.9c0.4-2.5,1.3-4.9,2.6-7.1
	c0.8-1.5,1.9-2.8,3.3-3.8c1.5-1.2,3.1-2,4.9-2.5c3.2-0.9,6.5-1.3,9.8-1.3c3.3,0,6.6,0.4,9.8,1.4c1.8,0.5,3.5,1.3,4.9,2.5
	c1.3,1,2.4,2.3,3.3,3.8c1.2,2.2,2.1,4.6,2.6,7.1c0.3,2,1.3,3.7,2.9,4.9c1.5,1.2,3.4,2,5.4,2h20.4v12L247.6,211.1L247.6,211.1
	L247.6,211.1L247.6,211.1L247.6,211.1L247.6,211.1L247.6,211.1z M337.4,211.1L337.4,211.1c-4.6,0-8.4-3.8-8.4-8.4l0,0
	c0-4.6,3.8-8.4,8.4-8.4l0,0h14c12.4,0,22.4,10.1,22.4,22.4v162.7c0,12.4-10.1,22.4-22.4,22.4H160.6c-12.4,0-22.4-10.1-22.4-22.4
	V216.7c0-12.4,10.1-22.4,22.4-22.4h8.4l0,0c4.6,0,8.4,3.8,8.4,8.4l0,0c0,4.6-3.8,8.4-8.4,8.4l0,0h-2.8c-6.2,0-11.2,5-11.2,11.2
	v151.5c0,6.2,5,11.2,11.2,11.2h179.5c6.2,0,11.2-5,11.2-11.2V222.3c0-6.2-5-11.2-11.2-11.2H337.4L337.4,211.1L337.4,211.1
	L337.4,211.1L337.4,211.1L337.4,211.1z M225.1,281.2L225.1,281.2c6.2,0,11.2,5,11.2,11.2l0,0c0,6.2-5,11.2-11.2,11.2l0,0
	c-6.2,0-11.2-5-11.2-11.2l0,0C213.9,286.3,218.9,281.2,225.1,281.2L225.1,281.2L225.1,281.2L225.1,281.2z M258.8,281.2h33.7
	c3.1,0,5.6,2.5,5.6,5.6V298c0,3.1-2.5,5.6-5.6,5.6h-33.7c-3.1,0-5.6-2.5-5.6-5.6v-11.2C253.2,283.7,255.7,281.2,258.8,281.2
	L258.8,281.2L258.8,281.2z M258.8,320.5h33.7c3.1,0,5.6,2.5,5.6,5.6v11.2c0,3.1-2.5,5.6-5.6,5.6h-33.7c-3.1,0-5.6-2.5-5.6-5.6v-11.2
	C253.2,323,255.7,320.5,258.8,320.5L258.8,320.5z M247.6,227.9h-51c-6.2,0-11.2-5-11.2-11.2v-23.2c0-6.2,5-11.2,11.2-11.2h23
	c0.7-1.8,1.6-3.6,2.5-5.4c1.9-3.4,4.5-6.5,7.6-8.9c3.2-2.5,6.8-4.3,10.7-5.4c4.7-1.3,9.5-2,14.4-2c4.9,0,9.8,0.7,14.4,2
	c3.9,1.1,7.6,3,10.8,5.5c3.1,2.4,5.6,5.4,7.5,8.8c1,1.7,1.8,3.5,2.5,5.3h19.7c6.2,0,11.2,5,11.2,11.2v23.2c0,6.2-5,11.2-11.2,11.2
	L247.6,227.9L247.6,227.9L247.6,227.9L247.6,227.9L247.6,227.9L247.6,227.9L247.6,227.9z M202.7,261.6h106.6V357H202.7V261.6
	L202.7,261.6L202.7,261.6L202.7,261.6L202.7,261.6L202.7,261.6z M185.9,244.8h140.3v129H185.9V244.8L185.9,244.8L185.9,244.8
	L185.9,244.8L185.9,244.8L185.9,244.8z M225.1,320.5L225.1,320.5c6.2,0,11.2,5,11.2,11.2l0,0c0,6.2-5,11.2-11.2,11.2l0,0
	c-6.2,0-11.2-5-11.2-11.2l0,0C213.9,325.5,218.9,320.5,225.1,320.5z"/>
</svg>
