<?xml version="1.0" encoding="utf-8"?>
<!-- Generator: Adobe Illustrator 24.0.1, SVG Export Plug-In . SVG Version: 6.00 Build 0)  -->
<svg version="1.1" id="Layer_1" xmlns="http://www.w3.org/2000/svg" xmlns:xlink="http://www.w3.org/1999/xlink" x="0px" y="0px"
	 viewBox="0 0 512 512" style="enable-background:new 0 0 512 512;" xml:space="preserve">
<style type="text/css">
	.st0{display:none;}
	.st1{display:inline;fill:#200A7F;stroke:#18E5EA;stroke-width:20;stroke-miterlimit:10;}
	.st2{display:inline;fill:#EF0B79;}
	.st3{display:inline;fill:#18E5EA;}
	.st4{display:inline;}
	.st5{fill:#E9F21C;}
	.st6{display:inline;fill:none;}
	.st7{display:inline;fill:#EF3A24;}
	.st8{font-family:'MyriadPro-Regular';}
	.st9{font-size:250px;}
	.st10{display:inline;fill:#FFFFFF;}
	.st11{fill:#C4C6C8;}
	.st12{fill:url(#SVGID_1_);}
	.st13{fill:url(#SVGID_2_);stroke:#E8E8E8;stroke-width:3;stroke-miterlimit:10;}
	.st14{fill:#FFFFFF;stroke:#FFFFFF;stroke-width:3;stroke-miterlimit:10;}
</style>
<g id="Layer_3" class="st0">
	<path class="st1" d="M401.1,212.2c5.1,15.3,7.9,31.7,7.9,48.8c0,85.3-69.2,154.5-154.5,154.5S100,346.3,100,261
		s69.2-154.5,154.5-154.5c51.2,0,96.6,24.9,124.7,63.3"/>
	<path class="st2" d="M333.4,255.2c0,4.2-3.3,7.7-7.4,7.7H174.9c-4.1,0-7.4-3.4-7.4-7.7l0,0c0-4.2,3.3-7.7,7.4-7.7H326
		C330.1,247.5,333.4,250.9,333.4,255.2L333.4,255.2z"/>
	<path class="st2" d="M333.4,284.8c0,4.2-3.3,7.6-7.4,7.6H174.9c-4.1,0-7.4-3.4-7.4-7.6l0,0c0-4.2,3.3-7.6,7.4-7.6H326
		C330.1,277.1,333.4,280.6,333.4,284.8L333.4,284.8z"/>
	<path class="st2" d="M333.4,313c0,4.2-3.3,7.7-7.4,7.7H174.9c-4.1,0-7.4-3.4-7.4-7.7l0,0c0-4.2,3.3-7.6,7.4-7.6H326
		C330.1,305.4,333.4,308.8,333.4,313L333.4,313z"/>
	<path class="st2" d="M333.4,338.4c0,4.2-3.3,7.7-7.4,7.7H174.9c-4.1,0-7.4-3.4-7.4-7.7l0,0c0-4.2,3.3-7.6,7.4-7.6H326
		C330.1,330.7,333.4,334.1,333.4,338.4L333.4,338.4z"/>
	<polygon class="st3" points="395,191.5 320.2,165.2 380.4,113.5 	"/>
	<g class="st4">
		<g>
			<g>
				<path class="st5" d="M241.5,239.2c-2.3,0-4.4-1.1-5.8-2.9l-18.8-24.8c-2.4-3.2-1.8-7.8,1.4-10.3c3.2-2.4,7.8-1.8,10.3,1.4
					l12.3,16.3l31-49.8c2.1-3.4,6.6-4.5,10.1-2.3c3.4,2.1,4.5,6.6,2.3,10.1l-36.7,58.9c-1.3,2-3.5,3.3-5.9,3.4
					C241.7,239.2,241.6,239.2,241.5,239.2z"/>
			</g>
		</g>
	</g>
</g>
<g id="Layer_2_2_" class="st0">
	<rect x="121" y="171.5" class="st6" width="298" height="251"/>
	<text transform="matrix(1 0 0 1 121 348.9979)" class="st7 st8 st9">24</text>
	<circle class="st10" cx="138.3" cy="91.8" r="17.3"/>
	<circle class="st10" cx="185.3" cy="91.8" r="17.3"/>
	<circle class="st10" cx="232.3" cy="91.8" r="17.3"/>
	<circle class="st10" cx="278.3" cy="91.8" r="17.3"/>
	<circle class="st10" cx="323.3" cy="91.8" r="17.3"/>
	<circle class="st10" cx="368.3" cy="91.8" r="17.3"/>
</g>
<g>
	<path class="st11" d="M350.3,48.4H161.7c-17.9,0-34.5,9.7-43.4,25.5L24,239.5c-9,15.7-9,35.1,0,50.9L118.3,456
		c9,15.7,25.5,25.5,43.4,25.5h188.5c17.9,0,34.5-9.7,43.4-25.5L488,290.4c9-15.7,9-35.1,0-50.9L393.7,73.9
		C384.8,58.2,368.2,48.4,350.3,48.4z"/>
</g>
<g>
	
		<linearGradient id="SVGID_1_" gradientUnits="userSpaceOnUse" x1="18.15" y1="259.3256" x2="495.6273" y2="259.3256" gradientTransform="matrix(1 0 0 -1 0 513.2756)">
		<stop  offset="0" style="stop-color:#B07EB7"/>
		<stop  offset="0.5" style="stop-color:#8C3D96"/>
		<stop  offset="1" style="stop-color:#762A90"/>
	</linearGradient>
	<path class="st12" d="M491.1,274.8c-0.7,1.4-1.4,2.9-2.2,4.3l-94.3,163.3c-0.5,1-1.1,1.9-1.7,2.8c-8.3,12.4-21.7,20.5-36.5,22
		c-1.7,0.2-3.4,0.3-5.2,0.3H162.6c-17.9,0-34.5-9.6-43.5-25.1l-15.3-26.6l-70.4-122L24.9,279c-9-15.5-9-34.6,0-50.2l6.5-11.3
		l22.3-38.6L97,104l22.2-38.5c9-15.5,25.5-25.1,43.5-25.1H213c-2.5,5.8-3.9,12.3-3.9,19c0,1.6,0.1,3.2,0.2,4.7
		c2.4,24.4,22.9,43.4,47.9,43.4H419l2.8,4.8l25.3,43.8l2.4,4.2l5.5,9.6l7,12l27.1,47c1.2,2,2.2,4.1,3,6.2
		C497.1,247.9,496.8,262.3,491.1,274.8z"/>
	
		<linearGradient id="SVGID_2_" gradientUnits="userSpaceOnUse" x1="18.15" y1="259.3256" x2="495.6273" y2="259.3256" gradientTransform="matrix(1 0 0 -1 0 513.2756)">
		<stop  offset="0" style="stop-color:#B07EB7"/>
		<stop  offset="0.5" style="stop-color:#8C3D96"/>
		<stop  offset="1" style="stop-color:#762A90"/>
	</linearGradient>
	<path class="st13" d="M491.1,274.8c-0.7,1.4-1.4,2.9-2.2,4.3l-94.3,163.3c-0.5,1-1.1,1.9-1.7,2.8c-8.3,12.4-21.7,20.5-36.5,22
		c-1.7,0.2-3.4,0.3-5.2,0.3H162.6c-17.9,0-34.5-9.6-43.5-25.1l-15.3-26.6l-70.4-122L24.9,279c-9-15.5-9-34.6,0-50.2l6.5-11.3
		l22.3-38.6L97,104l22.2-38.5c9-15.5,25.5-25.1,43.5-25.1H213c-2.5,5.8-3.9,12.3-3.9,19c0,1.6,0.1,3.2,0.2,4.7
		c2.4,24.4,22.9,43.4,47.9,43.4H419l2.8,4.8l25.3,43.8l2.4,4.2l5.5,9.6l7,12l27.1,47c1.2,2,2.2,4.1,3,6.2
		C497.1,247.9,496.8,262.3,491.1,274.8z"/>
</g>
<path d="M494.8,353.7"/>
<path class="st14" d="M160.9,299.1L160.9,299.1c1,7-3.8,13.5-10.8,14.6l0,0c-7,1-13.5-3.8-14.6-10.8l0,0c-0.9-6.1-1.3-12.3-1.3-18.5
	c0-33.1,13.2-64.9,36.6-88.4c23.5-23.4,55.3-36.6,88.4-36.6s64.9,13.2,88.4,36.6c23.4,23.5,36.6,55.3,36.6,88.4
	s-13.2,64.9-36.6,88.4c-23.5,23.4-55.3,36.6-88.4,36.6c-32.7,0-64.1-12.8-87.4-35.7l0,0c-5.1-5-5.1-13.1-0.2-18.1l0,0
	c5-5.1,13.1-5.2,18.1-0.2l0,0c18.5,18.2,43.5,28.4,69.5,28.4c26.3,0,51.6-10.4,70.3-29.1c18.7-18.7,29.1-43.9,29.1-70.3
	c0-26.3-10.4-51.6-29.1-70.3S285.6,185,259.2,185s-51.6,10.4-70.3,29.1s-29.1,43.9-29.1,70.3C159.8,289.3,160.2,294.2,160.9,299.1
	L160.9,299.1L160.9,299.1L160.9,299.1z M283.6,214.6L283.6,214.6c-3.4-1.1-5.2-4.8-4-8.1l0,0c1.1-3.4,4.8-5.2,8.1-4l0,0
	c23,7.7,41.8,24.4,52.3,46.2l0,0c1.6,3.2,0.2,7-2.9,8.6l0,0c-3.2,1.5-7,0.2-8.6-3l0,0C319.4,235.5,303.2,221.3,283.6,214.6
	L283.6,214.6L283.6,214.6L283.6,214.6z M252.7,201.1c0-3.5,2.9-6.4,6.4-6.4c3.5,0,6.4,2.9,6.4,6.4s-2.9,6.4-6.4,6.4
	S252.7,204.6,252.7,201.1L252.7,201.1L252.7,201.1z M242.7,284.4c0-4.3,1.7-8.6,4.8-11.7s7.3-4.8,11.7-4.8c4.3,0,8.6,1.7,11.7,4.8
	c3.1,3.1,4.8,7.3,4.8,11.7s-1.7,8.6-4.8,11.7c-3.1,3.1-7.3,4.8-11.7,4.8c-4.3,0-8.6-1.7-11.7-4.8C244.4,293,242.7,288.7,242.7,284.4
	L242.7,284.4L242.7,284.4z M230.8,284.4c0-7.5,3-14.8,8.3-20.1c5.3-5.4,12.6-8.3,20.1-8.3s14.8,3,20.1,8.3
	c5.4,5.3,8.3,12.6,8.3,20.1s-3,14.8-8.3,20.1c-5.3,5.4-12.6,8.3-20.1,8.3s-14.8-3-20.1-8.3C233.7,299.2,230.8,291.9,230.8,284.4
	L230.8,284.4L230.8,284.4z M217,284.4c0-11.2,4.5-21.9,12.4-29.8c7.9-7.9,18.6-12.4,29.8-12.4c11.2,0,21.9,4.5,29.8,12.4
	c7.9,7.9,12.4,18.6,12.4,29.8s-4.5,21.9-12.4,29.8s-18.6,12.4-29.8,12.4s-21.9-4.5-29.8-12.4C221.5,306.3,217,295.6,217,284.4
	L217,284.4z M205.1,284.4c0-14.3,5.7-28.1,15.8-38.2s23.9-15.8,38.2-15.8c14.3,0,28.1,5.7,38.2,15.8s15.8,23.9,15.8,38.2
	s-5.7,28.1-15.8,38.2c-10.1,10.1-23.9,15.8-38.2,15.8c-14.3,0-28.1-5.7-38.2-15.8C210.8,312.5,205.1,298.7,205.1,284.4L205.1,284.4z
	"/>
</svg>
