<?xml version="1.0" encoding="utf-8"?>
<!-- Generator: Adobe Illustrator 24.0.1, SVG Export Plug-In . SVG Version: 6.00 Build 0)  -->
<svg version="1.1" id="Layer_1" xmlns="http://www.w3.org/2000/svg" xmlns:xlink="http://www.w3.org/1999/xlink" x="0px" y="0px"
	 viewBox="0 0 512 512" style="enable-background:new 0 0 512 512;" xml:space="preserve">
<style type="text/css">
	.st0{display:none;}
	.st1{display:inline;fill:#200A7F;stroke:#18E5EA;stroke-width:20;stroke-miterlimit:10;}
	.st2{display:inline;fill:#EF0B79;}
	.st3{display:inline;fill:#18E5EA;}
	.st4{display:inline;}
	.st5{fill:#E9F21C;}
	.st6{display:inline;fill:none;}
	.st7{display:inline;fill:#EF3A24;}
	.st8{font-family:'MyriadPro-Regular';}
	.st9{font-size:250px;}
	.st10{display:inline;fill:#FFFFFF;}
	.st11{fill:#C4C6C8;}
	.st12{fill:url(#SVGID_1_);}
	.st13{fill:url(#SVGID_2_);stroke:#E8E8E8;stroke-width:3;stroke-miterlimit:10;}
	.st14{fill:#FFFFFF;stroke:#FFFFFF;stroke-width:3;stroke-miterlimit:10;}
</style>
<g id="Layer_3" class="st0">
	<path class="st1" d="M401.1,212.2c5.1,15.3,7.9,31.7,7.9,48.8c0,85.3-69.2,154.5-154.5,154.5S100,346.3,100,261
		s69.2-154.5,154.5-154.5c51.2,0,96.6,24.9,124.7,63.3"/>
	<path class="st2" d="M333.4,255.2c0,4.2-3.3,7.7-7.4,7.7H174.9c-4.1,0-7.4-3.4-7.4-7.7l0,0c0-4.2,3.3-7.7,7.4-7.7H326
		C330.1,247.5,333.4,250.9,333.4,255.2L333.4,255.2z"/>
	<path class="st2" d="M333.4,284.8c0,4.2-3.3,7.6-7.4,7.6H174.9c-4.1,0-7.4-3.4-7.4-7.6l0,0c0-4.2,3.3-7.6,7.4-7.6H326
		C330.1,277.1,333.4,280.6,333.4,284.8L333.4,284.8z"/>
	<path class="st2" d="M333.4,313c0,4.2-3.3,7.7-7.4,7.7H174.9c-4.1,0-7.4-3.4-7.4-7.7l0,0c0-4.2,3.3-7.6,7.4-7.6H326
		C330.1,305.4,333.4,308.8,333.4,313L333.4,313z"/>
	<path class="st2" d="M333.4,338.4c0,4.2-3.3,7.7-7.4,7.7H174.9c-4.1,0-7.4-3.4-7.4-7.7l0,0c0-4.2,3.3-7.6,7.4-7.6H326
		C330.1,330.7,333.4,334.1,333.4,338.4L333.4,338.4z"/>
	<polygon class="st3" points="395,191.5 320.2,165.2 380.4,113.5 	"/>
	<g class="st4">
		<g>
			<g>
				<path class="st5" d="M241.5,239.2c-2.3,0-4.4-1.1-5.8-2.9l-18.8-24.8c-2.4-3.2-1.8-7.8,1.4-10.3c3.2-2.4,7.8-1.8,10.3,1.4
					l12.3,16.3l31-49.8c2.1-3.4,6.6-4.5,10.1-2.3c3.4,2.1,4.5,6.6,2.3,10.1l-36.7,58.9c-1.3,2-3.5,3.3-5.9,3.4
					C241.7,239.2,241.6,239.2,241.5,239.2z"/>
			</g>
		</g>
	</g>
</g>
<g id="Layer_2_2_" class="st0">
	<rect x="121" y="171.5" class="st6" width="298" height="251"/>
	<text transform="matrix(1 0 0 1 121 348.9979)" class="st7 st8 st9">24</text>
	<circle class="st10" cx="138.3" cy="91.8" r="17.3"/>
	<circle class="st10" cx="185.3" cy="91.8" r="17.3"/>
	<circle class="st10" cx="232.3" cy="91.8" r="17.3"/>
	<circle class="st10" cx="278.3" cy="91.8" r="17.3"/>
	<circle class="st10" cx="323.3" cy="91.8" r="17.3"/>
	<circle class="st10" cx="368.3" cy="91.8" r="17.3"/>
</g>
<g>
	<path class="st11" d="M350.3,48.4H161.7c-17.9,0-34.5,9.7-43.4,25.5L24,239.5c-9,15.7-9,35.1,0,50.9L118.3,456
		c9,15.7,25.5,25.5,43.4,25.5h188.5c17.9,0,34.5-9.7,43.4-25.5L488,290.4c9-15.7,9-35.1,0-50.9L393.7,73.9
		C384.8,58.2,368.2,48.4,350.3,48.4z"/>
</g>
<g>
	
		<linearGradient id="SVGID_1_" gradientUnits="userSpaceOnUse" x1="18.15" y1="258.05" x2="495.6273" y2="258.05" gradientTransform="matrix(1 0 0 -1 0 512)">
		<stop  offset="0" style="stop-color:#FFE7A3"/>
		<stop  offset="0.5" style="stop-color:#FFCA05"/>
		<stop  offset="1" style="stop-color:#FAAC18"/>
	</linearGradient>
	<path class="st12" d="M491.1,274.8c-0.7,1.4-1.4,2.9-2.2,4.3l-94.3,163.3c-0.5,1-1.1,1.9-1.7,2.8c-8.3,12.4-21.7,20.5-36.5,22
		c-1.7,0.2-3.4,0.3-5.2,0.3H162.6c-17.9,0-34.5-9.6-43.5-25.1l-15.3-26.6l-70.4-122L24.9,279c-9-15.5-9-34.6,0-50.2l6.5-11.3
		l22.3-38.6L97,104l22.2-38.5c9-15.5,25.5-25.1,43.5-25.1H213c-2.5,5.8-3.9,12.3-3.9,19c0,1.6,0.1,3.2,0.2,4.7
		c2.4,24.4,22.9,43.4,47.9,43.4H419l2.8,4.8l25.3,43.8l2.4,4.2l5.5,9.6l7,12l27.1,47c1.2,2,2.2,4.1,3,6.2
		C497.1,247.9,496.8,262.3,491.1,274.8z"/>
	
		<linearGradient id="SVGID_2_" gradientUnits="userSpaceOnUse" x1="18.15" y1="258.05" x2="495.6273" y2="258.05" gradientTransform="matrix(1 0 0 -1 0 512)">
		<stop  offset="0" style="stop-color:#FFE7A3"/>
		<stop  offset="0.5" style="stop-color:#FFCA05"/>
		<stop  offset="1" style="stop-color:#FAAC18"/>
	</linearGradient>
	<path class="st13" d="M491.1,274.8c-0.7,1.4-1.4,2.9-2.2,4.3l-94.3,163.3c-0.5,1-1.1,1.9-1.7,2.8c-8.3,12.4-21.7,20.5-36.5,22
		c-1.7,0.2-3.4,0.3-5.2,0.3H162.6c-17.9,0-34.5-9.6-43.5-25.1l-15.3-26.6l-70.4-122L24.9,279c-9-15.5-9-34.6,0-50.2l6.5-11.3
		l22.3-38.6L97,104l22.2-38.5c9-15.5,25.5-25.1,43.5-25.1H213c-2.5,5.8-3.9,12.3-3.9,19c0,1.6,0.1,3.2,0.2,4.7
		c2.4,24.4,22.9,43.4,47.9,43.4H419l2.8,4.8l25.3,43.8l2.4,4.2l5.5,9.6l7,12l27.1,47c1.2,2,2.2,4.1,3,6.2
		C497.1,247.9,496.8,262.3,491.1,274.8z"/>
</g>
<path d="M494.8,353.7"/>
<path class="st14" d="M320.6,152.9c-1-0.3-2-0.4-3-0.4l0,0H159.8c-16.8,0-30.4,13.6-30.4,30.4v115.3l0,0c0,6.7,5.4,12.1,12.1,12.1
	l0,0c6.7,0,12.1-5.4,12.1-12.1l0,0l0,0l0,0V195c0-10.1,8.2-18.2,18.2-18.2h145.7l0,0c1.1,0,2.1-0.1,3-0.4c1,0.3,2,0.4,3,0.4l0,0
	h18.2c10.1,0,18.2,8.2,18.2,18.2v18.2l0,0c0,6.7,5.4,12.1,12.1,12.1l0,0c6.7,0,12.1-5.4,12.1-12.1l0,0v-30.4
	c0-16.8-13.6-30.4-30.4-30.4h-30.4l0,0C322.6,152.5,321.6,152.6,320.6,152.9z M281.1,292.1L281.1,292.1L281.1,292.1
	c1.3,0,2.7,0.1,4,0.4c3.3,0.5,6.5,1.4,9.5,2.8c3,1.3,5.7,3.3,7.7,6c1,1.4,1.8,3,2.2,4.6c0.7,2.4,1.1,4.9,1,7.5c0.1,2.5-0.3,5-1,7.5
	c-0.5,1.6-1.3,3.2-2.2,4.6c-2,2.7-4.7,4.7-7.7,6c-3,1.4-6.2,2.3-9.5,2.8c-1.3,0.2-2.6,0.4-3.9,0.4h-84.9c-3.2,0-6.3,1.3-8.6,3.6
	c-2.2,2.2-3.6,5.3-3.6,8.6c0,3.2,1.3,6.3,3.6,8.6c2.2,2.3,5.3,3.6,8.6,3.6h85c0.1,0,0.2,0,0.2,0c2.4-0.1,4.9-0.2,7.3-0.7
	c5.4-0.8,10.6-2.3,15.6-4.6c6.9-3,12.8-7.8,17.4-13.8c2.6-3.6,4.6-7.7,6-12c1.4-4.7,2.1-9.6,2.1-14.6c0.1-4.9-0.7-9.8-2.1-14.6
	c-1.3-4.2-3.3-8.3-6-12c-4.6-6-10.5-10.7-17.4-13.8c-5-2.2-10.2-3.8-15.6-4.6c-2.4-0.4-4.9-0.6-7.3-0.7c-0.1,0-0.3,0-0.5,0h-47.1
	c-0.4,0-0.8-0.1-1.2-0.1l0,0c-1.3-0.1-2.7-0.2-4-0.4c-3.3-0.4-6.5-1.4-9.5-2.7c-3-1.3-5.7-3.4-7.7-6c-1-1.4-1.8-3-2.2-4.6
	c-0.7-2.4-1.1-5-1-7.5c-0.1-2.5,0.3-5.1,1-7.5c0.5-1.6,1.3-3.2,2.2-4.6c2-2.6,4.7-4.7,7.7-6c3-1.3,6.2-2.3,9.5-2.7
	c1.3-0.2,2.6-0.4,3.9-0.4h84.9c3.2,0,6.3-1.3,8.6-3.6c2.2-2.2,3.6-5.3,3.6-8.6c0-3.2-1.3-6.3-3.6-8.6c-2.3-2.2-5.4-3.5-8.6-3.5h-85
	c-0.1,0-0.2,0-0.2,0c-2.4,0-4.9,0.2-7.3,0.7c-5.4,0.8-10.6,2.3-15.6,4.6c-6.9,3-12.8,7.8-17.4,13.8c-2.6,3.6-4.6,7.6-5.9,12
	c-1.4,4.7-2.1,9.6-2.1,14.6c-0.1,4.9,0.7,9.8,2.1,14.5c1.3,4.3,3.3,8.4,5.9,12c4.6,6,10.5,10.8,17.4,13.8c5,2.2,10.2,3.7,15.6,4.6
	c2.4,0.4,4.9,0.6,7.3,0.7c0.1,0,0.2,0,0.2,0l0.1,0.1L281.1,292.1L281.1,292.1L281.1,292.1L281.1,292.1z M190.1,383.2L190.1,383.2
	c6.7,0,12.1,5.4,12.1,12.1l0,0c0,6.7-5.4,12.1-12.1,12.1l0,0h-30.4c-16.8,0-30.4-13.6-30.4-30.4v-30.4l0,0c0-6.7,5.4-12.1,12.1-12.1
	l0,0c6.7,0,12.1,5.4,12.1,12.1l0,0V365c0,10.1,8.2,18.2,18.2,18.2L190.1,383.2L190.1,383.2L190.1,383.2L190.1,383.2z M360.1,267.9
	L360.1,267.9c0-6.7,5.4-12.1,12.1-12.1l0,0c6.7,0,12.1,5.4,12.1,12.1l0,0v109.3c0,16.8-13.6,30.4-30.4,30.4H244.7l0,0
	c-6.7,0-12.1-5.4-12.1-12.1l0,0c0-6.7,5.4-12.1,12.1-12.1l0,0h97.1c10.1,0,18.2-8.2,18.2-18.2L360.1,267.9L360.1,267.9z"/>
</svg>
