<?xml version="1.0" encoding="utf-8"?>
<!-- Generator: Adobe Illustrator 24.0.1, SVG Export Plug-In . SVG Version: 6.00 Build 0)  -->
<svg version="1.1" id="Layer_1" xmlns="http://www.w3.org/2000/svg" xmlns:xlink="http://www.w3.org/1999/xlink" x="0px" y="0px"
	 viewBox="0 0 512 512" style="enable-background:new 0 0 512 512;" xml:space="preserve">
<style type="text/css">
	.st0{display:none;}
	.st1{display:inline;fill:#200A7F;stroke:#18E5EA;stroke-width:20;stroke-miterlimit:10;}
	.st2{display:inline;fill:#EF0B79;}
	.st3{display:inline;fill:#18E5EA;}
	.st4{display:inline;}
	.st5{fill:#E9F21C;}
	.st6{display:inline;fill:none;}
	.st7{display:inline;fill:#EF3A24;}
	.st8{font-family:'MyriadPro-Regular';}
	.st9{font-size:250px;}
	.st10{display:inline;fill:#FFFFFF;}
	.st11{fill:#C4C6C8;}
	.st12{fill:#FFFFFF;}
	.st13{fill:#FFFFFF;stroke:#E8E8E8;stroke-width:3;stroke-miterlimit:10;}
	.st14{opacity:0.75;fill:#3875FC;enable-background:new    ;}
	.st15{fill:#3875FC;}
	.st16{font-family:'MyriadPro-Bold';}
</style>
<g id="Layer_3" class="st0">
	<path class="st1" d="M401.1,212.2c5.1,15.3,7.9,31.7,7.9,48.8c0,85.3-69.2,154.5-154.5,154.5S100,346.3,100,261
		s69.2-154.5,154.5-154.5c51.2,0,96.6,24.9,124.7,63.3"/>
	<path class="st2" d="M333.4,255.2c0,4.2-3.3,7.7-7.4,7.7H174.9c-4.1,0-7.4-3.4-7.4-7.7l0,0c0-4.2,3.3-7.7,7.4-7.7H326
		C330.1,247.5,333.4,250.9,333.4,255.2L333.4,255.2z"/>
	<path class="st2" d="M333.4,284.8c0,4.2-3.3,7.6-7.4,7.6H174.9c-4.1,0-7.4-3.4-7.4-7.6l0,0c0-4.2,3.3-7.6,7.4-7.6H326
		C330.1,277.1,333.4,280.6,333.4,284.8L333.4,284.8z"/>
	<path class="st2" d="M333.4,313c0,4.2-3.3,7.7-7.4,7.7H174.9c-4.1,0-7.4-3.4-7.4-7.7l0,0c0-4.2,3.3-7.6,7.4-7.6H326
		C330.1,305.4,333.4,308.8,333.4,313L333.4,313z"/>
	<path class="st2" d="M333.4,338.4c0,4.2-3.3,7.7-7.4,7.7H174.9c-4.1,0-7.4-3.4-7.4-7.7l0,0c0-4.2,3.3-7.6,7.4-7.6H326
		C330.1,330.7,333.4,334.1,333.4,338.4L333.4,338.4z"/>
	<polygon class="st3" points="395,191.5 320.2,165.2 380.4,113.5 	"/>
	<g class="st4">
		<g>
			<g>
				<path class="st5" d="M241.5,239.2c-2.3,0-4.4-1.1-5.8-2.9l-18.8-24.8c-2.4-3.2-1.8-7.8,1.4-10.3c3.2-2.4,7.8-1.8,10.3,1.4
					l12.3,16.3l31-49.8c2.1-3.4,6.6-4.5,10.1-2.3c3.4,2.1,4.5,6.6,2.3,10.1l-36.7,58.9c-1.3,2-3.5,3.3-5.9,3.4
					C241.7,239.2,241.6,239.2,241.5,239.2z"/>
			</g>
		</g>
	</g>
</g>
<g id="Layer_2_2_" class="st0">
	<rect x="121" y="171.5" class="st6" width="298" height="251"/>
	<text transform="matrix(1 0 0 1 121 348.9979)" class="st7 st8 st9">24</text>
	<circle class="st10" cx="138.3" cy="91.8" r="17.3"/>
	<circle class="st10" cx="185.3" cy="91.8" r="17.3"/>
	<circle class="st10" cx="232.3" cy="91.8" r="17.3"/>
	<circle class="st10" cx="278.3" cy="91.8" r="17.3"/>
	<circle class="st10" cx="323.3" cy="91.8" r="17.3"/>
	<circle class="st10" cx="368.3" cy="91.8" r="17.3"/>
</g>
<g>
	<path class="st11" d="M350.3,54.5H161.7c-17.9,0-34.5,9.6-43.4,25.1L24,242.9c-9,15.5-9,34.6,0,50.2l94.3,163.3
		c9,15.5,25.5,25.1,43.4,25.1h188.5c17.9,0,34.5-9.6,43.4-25.1L488,293.1c9-15.5,9-34.6,0-50.2L393.7,79.6
		C384.8,64.1,368.2,54.5,350.3,54.5z"/>
</g>
<g>
	<path class="st12" d="M491.1,274.8c-0.7,1.4-1.4,2.9-2.2,4.3l-94.3,163.3c-0.5,1-1.1,1.9-1.7,2.8c-8.3,12.4-21.7,20.5-36.5,22
		c-1.7,0.2-3.4,0.3-5.2,0.3H162.6c-17.9,0-34.5-9.6-43.5-25.1l-15.3-26.6l-70.4-122L24.9,279c-9-15.5-9-34.6,0-50.2l6.5-11.3
		l22.3-38.6L97,104l22.2-38.5c9-15.5,25.5-25.1,43.5-25.1h188.5c17.9,0,34.5,9.6,43.5,25.1l20.7,35.9l1.5,2.6l4.8,8.3l25.3,43.8
		l2.4,4.2l5.5,9.6l7,12l27.1,47c1.2,2,2.2,4.1,3,6.2C497.1,247.9,496.8,262.3,491.1,274.8z"/>
	<path class="st13" d="M491.1,274.8c-0.7,1.4-1.4,2.9-2.2,4.3l-94.3,163.3c-0.5,1-1.1,1.9-1.7,2.8c-8.3,12.4-21.7,20.5-36.5,22
		c-1.7,0.2-3.4,0.3-5.2,0.3H162.6c-17.9,0-34.5-9.6-43.5-25.1l-15.3-26.6l-70.4-122L24.9,279c-9-15.5-9-34.6,0-50.2l6.5-11.3
		l22.3-38.6L97,104l22.2-38.5c9-15.5,25.5-25.1,43.5-25.1h188.5c17.9,0,34.5,9.6,43.5,25.1l20.7,35.9l1.5,2.6l4.8,8.3l25.3,43.8
		l2.4,4.2l5.5,9.6l7,12l27.1,47c1.2,2,2.2,4.1,3,6.2C497.1,247.9,496.8,262.3,491.1,274.8z"/>
</g>
<path d="M443.8,329"/>
<path shape-rendering="auto" image-rendering="auto" text-rendering="auto" color-rendering="auto" class="st14" d="M148.8,335.6
	v12.5h53.3v-12.5H148.8z M148.3,298.2v12.5h53.8v-12.5H148.3z M148.8,260.8v12.5h53.3v-12.5H148.8z M148.3,223.5V236h53.8v-12.5
	H148.3z M256.7,186.1v12.5h86.7v-12.5H256.7z M148.8,186.1v12.5H235v-12.5H148.8z M256.7,148.7v12.5h86.7v-12.5H256.7z M148.3,148.7
	v12.5H235v-12.5H148.3z M256.7,186.1v12.5h86.7v-12.5H256.7z M256.7,148.7v12.5h86.7v-12.5H256.7z M148.8,186.1v12.5H235v-12.5
	H148.8z M148.3,148.7v12.5H235v-12.5H148.3z M148.8,335.6v12.5h53.3v-12.5H148.8z M148.3,298.2v12.5h53.8v-12.5H148.3z M148.8,260.8
	v12.5h53.3v-12.5H148.8z M148.3,223.5V236h53.8v-12.5H148.3z M148.3,223.5V236h53.8v-12.5H148.3z M148.8,260.8v12.5h53.3v-12.5
	H148.8z M148.3,298.2v12.5h53.8v-12.5H148.3z M148.8,335.6v12.5h53.3v-12.5H148.8z M148.3,148.7v12.5H235v-12.5H148.3z M148.8,186.1
	v12.5H235v-12.5H148.8z M256.7,148.7v12.5h86.7v-12.5H256.7z M256.7,186.1v12.5h86.7v-12.5H256.7z M256.7,186.1v12.5h86.7v-12.5
	H256.7z M256.7,148.7v12.5h86.7v-12.5H256.7z M148.8,186.1v12.5H235v-12.5H148.8z M148.3,148.7v12.5H235v-12.5H148.3z M148.8,335.6
	v12.5h53.3v-12.5H148.8z M148.3,298.2v12.5h53.8v-12.5H148.3z M148.8,260.8v12.5h53.3v-12.5H148.8z M148.3,223.5V236h53.8v-12.5
	H148.3z M148.3,223.5V236h53.8v-12.5H148.3z M148.8,260.8v12.5h53.3v-12.5H148.8z M148.3,298.2v12.5h53.8v-12.5H148.3z M148.8,335.6
	v12.5h53.3v-12.5H148.8z M148.3,148.7v12.5H235v-12.5H148.3z M148.8,186.1v12.5H235v-12.5H148.8z M256.7,148.7v12.5h86.7v-12.5
	H256.7z M256.7,186.1v12.5h86.7v-12.5H256.7z M256.7,186.1v12.5h86.7v-12.5H256.7z M256.7,148.7v12.5h86.7v-12.5H256.7z
	 M148.8,186.1v12.5H235v-12.5H148.8z M148.3,148.7v12.5H235v-12.5H148.3z M148.8,335.6v12.5h53.3v-12.5H148.8z M148.3,298.2v12.5
	h53.8v-12.5H148.3z M148.8,260.8v12.5h53.3v-12.5H148.8z M148.3,223.5V236h53.8v-12.5H148.3z M148.3,223.5V236h53.8v-12.5H148.3z
	 M148.8,260.8v12.5h53.3v-12.5H148.8z M148.3,298.2v12.5h53.8v-12.5H148.3z M148.8,335.6v12.5h53.3v-12.5H148.8z M148.3,148.7v12.5
	H235v-12.5H148.3z M148.8,186.1v12.5H235v-12.5H148.8z M256.7,148.7v12.5h86.7v-12.5H256.7z M256.7,186.1v12.5h86.7v-12.5H256.7z
	 M256.7,186.1v12.5h86.7v-12.5H256.7z M256.7,148.7v12.5h86.7v-12.5H256.7z M148.8,186.1v12.5H235v-12.5H148.8z M148.3,148.7v12.5
	H235v-12.5H148.3z M148.8,335.6v12.5h53.3v-12.5H148.8z M148.3,298.2v12.5h53.8v-12.5H148.3z M148.8,260.8v12.5h53.3v-12.5H148.8z
	 M148.3,223.5V236h53.8v-12.5H148.3z M148.3,223.5V236h53.8v-12.5H148.3z M148.8,260.8v12.5h53.3v-12.5H148.8z M148.3,298.2v12.5
	h53.8v-12.5H148.3z M148.8,335.6v12.5h53.3v-12.5H148.8z M148.3,148.7v12.5H235v-12.5H148.3z M148.8,186.1v12.5H235v-12.5H148.8z
	 M256.7,148.7v12.5h86.7v-12.5H256.7z M256.7,186.1v12.5h86.7v-12.5H256.7z M256.7,198.6h86.7v-12.5h-86.7L256.7,198.6L256.7,198.6z
	 M256.7,148.7v12.5h86.7v-12.5H256.7z M148.8,198.6H235v-12.5h-86.2V198.6z M148.3,161.2H235v-12.5h-86.7V161.2z M148.8,348h53.3
	v-12.5h-53.3V348z M148.3,310.7h53.8v-12.5h-53.8V310.7z M148.8,273.3h53.3v-12.5h-53.3V273.3z M148.3,235.9h53.8v-12.4h-53.8V235.9
	z M354.3,111.4H137.4c-6,0-10.8,5.5-10.8,12.5V373c0,6.9,4.8,12.5,10.8,12.5h81.7V373h-81.7V123.8h216.8v95.7h10.9v-95.7
	C365.1,116.9,360.3,111.4,354.3,111.4z M256.7,198.6h86.7v-12.5h-86.7L256.7,198.6L256.7,198.6z M256.7,161.2h86.7v-12.5h-86.7
	L256.7,161.2L256.7,161.2z M148.8,198.6H235v-12.5h-86.2V198.6z M148.3,161.2H235v-12.5h-86.7V161.2z M202.1,348v-12.5h-53.3V348
	H202.1z M202.1,298.2h-53.8v12.5h53.8V298.2z M202.1,260.8h-53.3v12.5h53.3V260.8z M202.1,223.5h-53.8V236h53.8V223.5z M148.3,223.5
	V236h53.8v-12.5H148.3z M148.8,260.8v12.5h53.3v-12.5H148.8z M148.3,298.2v12.5h53.8v-12.5H148.3z M148.8,335.6v12.5h53.3v-12.5
	H148.8z M148.3,148.7v12.5H235v-12.5H148.3z M148.8,186.1v12.5H235v-12.5H148.8z M256.7,148.7v12.5h86.7v-12.5H256.7z M256.7,186.1
	v12.5h86.7v-12.5H256.7z M256.7,186.1v12.5h86.7v-12.5H256.7z M256.7,148.7v12.5h86.7v-12.5H256.7z M148.8,186.1v12.5H235v-12.5
	H148.8z M148.3,148.7v12.5H235v-12.5H148.3z M148.8,335.6v12.5h53.3v-12.5H148.8z M148.3,298.2v12.5h53.8v-12.5H148.3z M148.8,260.8
	v12.5h53.3v-12.5H148.8z M148.3,223.5V236h53.8v-12.5H148.3z M148.3,223.5V236h53.8v-12.5H148.3z M148.8,260.8v12.5h53.3v-12.5
	H148.8z M148.3,298.2v12.5h53.8v-12.5H148.3z M148.8,335.6v12.5h53.3v-12.5H148.8z M148.3,148.7v12.5H235v-12.5H148.3z M148.8,186.1
	v12.5H235v-12.5H148.8z M256.7,148.7v12.5h86.7v-12.5H256.7z M256.7,186.1v12.5h86.7v-12.5H256.7z M256.7,186.1v12.5h86.7v-12.5
	H256.7z M256.7,148.7v12.5h86.7v-12.5H256.7z M148.8,186.1v12.5H235v-12.5H148.8z M148.3,148.7v12.5H235v-12.5H148.3z M148.8,335.6
	v12.5h53.3v-12.5H148.8z M148.3,298.2v12.5h53.8v-12.5H148.3z M148.8,260.8v12.5h53.3v-12.5H148.8z M148.3,223.5V236h53.8v-12.5
	H148.3z M148.3,223.5V236h53.8v-12.5H148.3z M148.8,260.8v12.5h53.3v-12.5H148.8z M148.3,298.2v12.5h53.8v-12.5H148.3z M148.8,335.6
	v12.5h53.3v-12.5H148.8z M148.3,148.7v12.5H235v-12.5H148.3z M148.8,186.1v12.5H235v-12.5H148.8z M256.7,148.7v12.5h86.7v-12.5
	H256.7z M256.7,186.1v12.5h86.7v-12.5H256.7z M256.7,186.1v12.5h86.7v-12.5H256.7z M256.7,148.7v12.5h86.7v-12.5H256.7z
	 M148.8,186.1v12.5H235v-12.5H148.8z M148.3,148.7v12.5H235v-12.5H148.3z M148.8,335.6v12.5h53.3v-12.5H148.8z M148.3,298.2v12.5
	h53.8v-12.5H148.3z M148.8,260.8v12.5h53.3v-12.5H148.8z M148.3,223.5V236h53.8v-12.5H148.3z M148.3,223.5V236h53.8v-12.5H148.3z
	 M148.8,260.8v12.5h53.3v-12.5H148.8z M148.3,298.2v12.5h53.8v-12.5H148.3z M148.8,335.6v12.5h53.3v-12.5H148.8z M148.3,148.7v12.5
	H235v-12.5H148.3z M148.8,186.1v12.5H235v-12.5H148.8z M256.7,148.7v12.5h86.7v-12.5H256.7z M256.7,186.1v12.5h86.7v-12.5H256.7z
	 M256.7,186.1v12.5h86.7v-12.5H256.7z M256.7,148.7v12.5h86.7v-12.5H256.7z M148.8,186.1v12.5H235v-12.5H148.8z M148.3,148.7v12.5
	H235v-12.5H148.3z M148.8,335.6v12.5h53.3v-12.5H148.8z M148.3,298.2v12.5h53.8v-12.5H148.3z M148.8,260.8v12.5h53.3v-12.5H148.8z
	 M148.3,223.5V236h53.8v-12.5H148.3z"/>
<text transform="matrix(1 0 0 1 211.9693 397.0837)" class="st15 st16 st9">W</text>
</svg>
